<svg width="24" height="24" viewBox="0 0 24 24" fill="none" xmlns="http://www.w3.org/2000/svg">
<path d="M11.1752 16.1083C10.8653 16.1083 10.5454 16.0083 10.2754 15.8082C10.2154 15.7682 10.1654 15.7182 10.1155 15.6782L7.72604 13.2877C7.43611 12.9976 7.43611 12.5175 7.72604 12.2274C8.01597 11.9374 8.49586 11.9374 8.78578 12.2274L11.1752 14.618L15.1542 9.30681C15.4042 8.97674 15.8741 8.90672 16.204 9.15677C16.5339 9.40683 16.6039 9.87693 16.3539 10.207L12.3749 15.5182C12.075 15.8982 11.6251 16.1083 11.1752 16.1083Z" fill="#171717"/>
<path d="M12.005 24C11.4651 24 10.9453 23.82 10.5154 23.4799C10.3854 23.3699 10.2554 23.2498 10.1554 23.1198L8.64582 21.2394C8.45587 20.9993 8.15594 20.8693 7.85601 20.9093L5.4566 21.1694C4.82675 21.2394 4.2069 21.0594 3.70703 20.6693C3.20715 20.2692 2.89722 19.7091 2.82724 19.0789C2.80724 18.8989 2.80724 18.7189 2.82724 18.5488L3.08718 16.1483C3.11717 15.8482 2.9972 15.5582 2.76725 15.3681L0.887713 13.8578C-0.132038 13.0376 -0.301996 11.5373 0.527801 10.5071C0.637774 10.377 0.757745 10.247 0.887713 10.147L2.76725 8.63666C3.0072 8.43662 3.12717 8.14655 3.09717 7.84649L2.83724 5.44597C2.76725 4.81583 2.94721 4.1957 3.33712 3.69559C3.72702 3.19548 4.29688 2.88541 4.92673 2.8154C5.09669 2.79539 5.27664 2.79539 5.4566 2.8154L7.85601 3.07545C8.15594 3.10546 8.44587 2.98543 8.63582 2.75538L10.1455 0.884976C10.5454 0.384867 11.1152 0.0747996 11.7451 0.0147866C12.3749 -0.0552286 12.9948 0.124811 13.4946 0.524897C13.6246 0.634921 13.7546 0.754947 13.8545 0.894978L15.3642 2.77539C15.5541 3.01544 15.8441 3.13546 16.144 3.09546L18.5434 2.8354C19.8331 2.69537 21.0228 3.63557 21.1728 4.93586C21.1928 5.10589 21.1928 5.28593 21.1728 5.46597L20.9128 7.86649C20.8828 8.16656 21.0028 8.45662 21.2327 8.64666L23.1123 10.157C24.132 10.9772 24.302 12.4775 23.4722 13.5077C23.3622 13.6478 23.2423 13.7678 23.1123 13.8678L21.2227 15.3781C20.9928 15.5682 20.8728 15.8582 20.9028 16.1583L21.1628 18.5588C21.3027 19.8591 20.363 21.0394 19.0633 21.1894C18.8833 21.2094 18.7134 21.2094 18.5334 21.1894L16.134 20.9293C15.8341 20.8893 15.5441 21.0194 15.3542 21.2494L13.8445 23.1198C13.4446 23.6199 12.8848 23.93 12.2449 24C12.175 24 12.085 24 12.005 24ZM7.95599 19.399C8.67581 19.399 9.35565 19.7191 9.80554 20.2892L11.3152 22.1696C11.3552 22.2196 11.3951 22.2596 11.4451 22.2996C11.6351 22.4497 11.855 22.5097 12.095 22.4897C12.3249 22.4597 12.5349 22.3496 12.6848 22.1696L14.1945 20.2992C14.7043 19.6591 15.5041 19.339 16.3039 19.419L18.7034 19.6791C18.7733 19.6891 18.8333 19.6891 18.9033 19.6791C19.3832 19.6291 19.7331 19.189 19.6831 18.7088L19.4232 16.3083C19.3332 15.4982 19.6631 14.708 20.303 14.1979L22.1925 12.6875C22.2425 12.6475 22.2825 12.6075 22.3325 12.5475C22.6324 12.1774 22.5724 11.6173 22.1925 11.3172L20.303 9.80692C19.6631 9.2968 19.3432 8.50663 19.4232 7.69646L19.6831 5.29593C19.6931 5.22592 19.6931 5.16591 19.6831 5.10589C19.6331 4.62579 19.1832 4.26571 18.7134 4.32572L16.3139 4.58578C15.5041 4.6658 14.7143 4.34573 14.2045 3.70559L12.6948 1.82518C12.6548 1.77517 12.6149 1.73516 12.5649 1.69515C12.3849 1.54512 12.155 1.4751 11.915 1.50511C11.6851 1.52511 11.4751 1.64514 11.3252 1.82518L9.80554 3.69559C9.29566 4.32572 8.50585 4.6558 7.69605 4.56578L5.29664 4.30572C5.22665 4.29572 5.16667 4.29572 5.09669 4.30572C4.86674 4.33573 4.65679 4.44575 4.50683 4.63579C4.36686 4.81583 4.29688 5.04588 4.32687 5.27593L4.58681 7.67645C4.67679 8.49663 4.34687 9.2868 3.70703 9.79691L1.82748 11.3072C1.7775 11.3473 1.72751 11.3973 1.69752 11.4373C1.39759 11.8174 1.45757 12.3675 1.82748 12.6775L3.70703 14.1879C4.34687 14.698 4.66679 15.4881 4.58681 16.2983L4.32687 18.6988C4.31688 18.7689 4.31688 18.8289 4.32687 18.8989C4.35687 19.1289 4.46684 19.339 4.65679 19.489C4.83675 19.6391 5.06669 19.6991 5.30663 19.6791L7.70605 19.419C7.78603 19.409 7.86601 19.399 7.95599 19.399Z" fill="#171717"/>
</svg>
