<svg width="24" height="24" viewBox="0 0 24 24" fill="none" xmlns="http://www.w3.org/2000/svg">
<g clip-path="url(#clip0_2849_15076)">
<path d="M11.17 16.11C10.86 16.11 10.54 16.01 10.27 15.81C10.21 15.77 10.16 15.72 10.11 15.68L7.72 13.29C7.43 13 7.43 12.52 7.72 12.23C8.01 11.94 8.49 11.94 8.77999 12.23L11.17 14.62L15.15 9.31003C15.4 8.98003 15.87 8.91003 16.2 9.16003C16.53 9.41003 16.6 9.88003 16.35 10.21L12.37 15.52C12.07 15.9 11.62 16.11 11.17 16.11Z" fill="#171717"/>
<path d="M12 24C11.46 24 10.94 23.82 10.51 23.48C10.38 23.37 10.25 23.25 10.15 23.12L8.64 21.24C8.45 21 8.15 20.87 7.85 20.91L5.45 21.17C4.82 21.24 4.2 21.06 3.7 20.67C3.2 20.27 2.89 19.71 2.82 19.08C2.8 18.9 2.8 18.72 2.82 18.55L3.08 16.15C3.11 15.85 2.99 15.56 2.76 15.37L0.879996 13.86C-0.140004 13.04 -0.310004 11.54 0.519996 10.51C0.629996 10.38 0.749996 10.25 0.879996 10.15L2.76 8.64003C3 8.44003 3.12 8.15003 3.09 7.85003L2.83 5.45003C2.76 4.82003 2.94 4.20003 3.33 3.70003C3.72 3.20003 4.29 2.89003 4.92 2.82003C5.09 2.80003 5.27 2.80003 5.45 2.82003L7.85 3.08003C8.15 3.11003 8.44 2.99003 8.63 2.76003L10.14 0.890032C10.54 0.390032 11.11 0.0800324 11.74 0.0200324C12.37 -0.0499676 12.99 0.130032 13.49 0.530032C13.62 0.640032 13.75 0.760032 13.85 0.900032L15.36 2.78003C15.55 3.02003 15.84 3.14003 16.14 3.10003L18.54 2.84003C19.83 2.70003 21.02 3.64003 21.17 4.94003C21.19 5.11003 21.19 5.29003 21.17 5.47003L20.91 7.87003C20.88 8.17003 21 8.46003 21.23 8.65003L23.11 10.16C24.13 10.98 24.3 12.48 23.47 13.51C23.36 13.65 23.24 13.77 23.11 13.87L21.22 15.38C20.99 15.57 20.87 15.86 20.9 16.16L21.16 18.56C21.3 19.86 20.36 21.04 19.06 21.19C18.88 21.21 18.71 21.21 18.53 21.19L16.13 20.93C15.83 20.89 15.54 21.02 15.35 21.25L13.84 23.12C13.44 23.62 12.88 23.93 12.24 24C12.17 24 12.08 24 12 24ZM7.95 19.4C8.67 19.4 9.35 19.72 9.8 20.29L11.31 22.17C11.35 22.22 11.39 22.26 11.44 22.3C11.63 22.45 11.85 22.51 12.09 22.49C12.32 22.46 12.53 22.35 12.68 22.17L14.19 20.3C14.7 19.66 15.5 19.34 16.3 19.42L18.7 19.68C18.77 19.69 18.83 19.69 18.9 19.68C19.38 19.63 19.73 19.19 19.68 18.71L19.42 16.31C19.33 15.5 19.66 14.71 20.3 14.2L22.19 12.69C22.24 12.65 22.28 12.61 22.33 12.55C22.63 12.18 22.57 11.62 22.19 11.32L20.3 9.81003C19.66 9.30003 19.34 8.51003 19.42 7.70003L19.68 5.30003C19.69 5.23003 19.69 5.17003 19.68 5.11003C19.63 4.63003 19.18 4.27003 18.71 4.33003L16.31 4.59003C15.5 4.67003 14.71 4.35003 14.2 3.71003L12.69 1.83003C12.65 1.78003 12.61 1.74003 12.56 1.70003C12.38 1.55003 12.15 1.48003 11.91 1.51003C11.68 1.53003 11.47 1.65003 11.32 1.83003L9.8 3.70003C9.29 4.33003 8.5 4.66003 7.69 4.57003L5.29 4.31003C5.22 4.30003 5.16 4.30003 5.09 4.31003C4.86 4.34003 4.65 4.45003 4.5 4.64003C4.36 4.82003 4.29 5.05003 4.32 5.28003L4.58 7.68003C4.67 8.50003 4.34 9.29003 3.7 9.80003L1.82 11.31C1.77 11.35 1.72 11.4 1.69 11.44C1.39 11.82 1.45 12.37 1.82 12.68L3.7 14.19C4.34 14.7 4.66 15.49 4.58 16.3L4.32 18.7C4.31 18.77 4.31 18.83 4.32 18.9C4.35 19.13 4.46 19.34 4.65 19.49C4.83 19.64 5.06 19.7 5.3 19.68L7.7 19.42C7.78 19.41 7.86 19.4 7.95 19.4Z" fill="#171717"/>
</g>
<defs>
<clipPath id="clip0_2849_15076">
<rect width="24" height="24" fill="white"/>
</clipPath>
</defs>
</svg>
