<svg width="24" height="24" viewBox="0 0 24 24" fill="none" xmlns="http://www.w3.org/2000/svg">
<path fill-rule="evenodd" clip-rule="evenodd" d="M8.86585 2.1543C10.6719 0.615232 13.3281 0.615232 15.1341 2.1543L14.4921 2.90766L15.1341 2.1543C15.5877 2.54085 16.1517 2.77446 16.7458 2.82186C19.1111 3.01062 20.9894 4.88889 21.1781 7.25422C21.2255 7.84829 21.4591 8.41226 21.8457 8.86585C23.3848 10.6719 23.3848 13.3281 21.8457 15.1341C21.4591 15.5877 21.2255 16.1517 21.1781 16.7458C20.9894 19.1111 19.1111 20.9894 16.7458 21.1781C16.1517 21.2255 15.5877 21.4591 15.1341 21.8457C13.3281 23.3848 10.6719 23.3848 8.86585 21.8457C8.41226 21.4591 7.84829 21.2255 7.25422 21.1781C4.88889 20.9894 3.01062 19.1111 2.82186 16.7458C2.77446 16.1517 2.54085 15.5877 2.1543 15.1341L2.90766 14.4921L2.1543 15.1341C0.615232 13.3281 0.615232 10.6719 2.1543 8.86585C2.54085 8.41226 2.77446 7.84829 2.82186 7.25422C3.01062 4.88889 4.88889 3.01062 7.25422 2.82186C7.84829 2.77446 8.41226 2.54085 8.86585 2.1543ZM13.8369 3.67653C12.7784 2.77449 11.2216 2.77449 10.1631 3.67653C9.38917 4.33606 8.42692 4.73464 7.41332 4.81553C6.027 4.92616 4.92616 6.027 4.81553 7.41332C4.73464 8.42692 4.33606 9.38917 3.67653 10.1631C2.77449 11.2216 2.77449 12.7784 3.67653 13.8369L2.91542 14.4855L3.67653 13.8369C4.33606 14.6108 4.73464 15.5731 4.81553 16.5867C4.92616 17.973 6.027 19.0738 7.41332 19.1845C8.42692 19.2654 9.38917 19.6639 10.1631 20.3235C11.2216 21.2255 12.7784 21.2255 13.8369 20.3235C14.6108 19.6639 15.5731 19.2654 16.5867 19.1845C17.973 19.0738 19.0738 17.973 19.1845 16.5867C19.2654 15.5731 19.6639 14.6108 20.3235 13.8369C21.2255 12.7784 21.2255 11.2216 20.3235 10.1631C19.6639 9.38917 19.2654 8.42692 19.1845 7.41332C19.0738 6.027 17.973 4.92616 16.5867 4.81553C15.5731 4.73464 14.6108 4.33606 13.8369 3.67653ZM16.2071 8.79289C16.5976 9.18342 16.5976 9.81658 16.2071 10.2071L11.7071 14.7071C11.3166 15.0976 10.6834 15.0976 10.2929 14.7071L8.29289 12.7071C7.90237 12.3166 7.90237 11.6834 8.29289 11.2929C8.68342 10.9024 9.31658 10.9024 9.70711 11.2929L11 12.5858L14.7929 8.79289C15.1834 8.40237 15.8166 8.40237 16.2071 8.79289Z" fill="#0A0B0D"/>
</svg>
