<svg width="24" height="24" viewBox="0 0 24 24" fill="none" xmlns="http://www.w3.org/2000/svg">
<path fill-rule="evenodd" clip-rule="evenodd" d="M11.9997 1.99995C12.552 1.99995 12.9997 2.44765 12.9997 2.99992V4.99987C12.9997 5.55214 12.552 5.99985 11.9997 5.99985C11.4474 5.99985 10.9997 5.55214 10.9997 4.99987V2.99992C10.9997 2.44765 11.4474 1.99995 11.9997 1.99995ZM4.19269 5.19266C4.5832 4.80215 5.21635 4.80215 5.60687 5.19266L7.02104 6.60684C7.41156 6.99736 7.41156 7.6305 7.02104 8.02102C6.63053 8.41153 5.99738 8.41153 5.60687 8.02102L4.19269 6.60684C3.80217 6.21633 3.80217 5.58318 4.19269 5.19266ZM19.8064 5.19266C20.1969 5.58318 20.1969 6.21633 19.8064 6.60684L18.3922 8.02102C18.0017 8.41153 17.3685 8.41153 16.978 8.02102C16.5875 7.6305 16.5875 6.99736 16.978 6.60684L18.3922 5.19266C18.7827 4.80215 19.4158 4.80215 19.8064 5.19266ZM11.9997 8.99977C9.79061 8.99977 7.9998 10.7906 7.9998 12.9997C7.9998 13.5519 7.55209 13.9996 6.99982 13.9996C6.44755 13.9996 5.99985 13.5519 5.99985 12.9997C5.99985 9.68604 8.68607 6.99982 11.9997 6.99982C15.3133 6.99982 17.9995 9.68604 17.9995 12.9997C17.9995 13.5519 17.5518 13.9996 16.9996 13.9996C16.4473 13.9996 15.9996 13.5519 15.9996 12.9997C15.9996 10.7906 14.2088 8.99977 11.9997 8.99977ZM0.999975 12.9997C0.999975 12.4474 1.44768 11.9997 1.99995 11.9997H3.9999C4.55217 11.9997 4.99987 12.4474 4.99987 12.9997C4.99987 13.5519 4.55217 13.9996 3.9999 13.9996H1.99995C1.44768 13.9996 0.999975 13.5519 0.999975 12.9997ZM18.9995 12.9997C18.9995 12.4474 19.4472 11.9997 19.9995 11.9997H21.9994C22.5517 11.9997 22.9994 12.4474 22.9994 12.9997C22.9994 13.5519 22.5517 13.9996 21.9994 13.9996H19.9995C19.4472 13.9996 18.9995 13.5519 18.9995 12.9997ZM5.64615 18.3224C4.6991 17.8919 3.46089 17.8919 2.51384 18.3224C2.01107 18.5509 1.41823 18.3286 1.1897 17.8259C0.96117 17.3231 1.18348 16.7302 1.68625 16.5017C3.15914 15.8322 5.00085 15.8322 6.47374 16.5017C7.42079 16.9322 8.659 16.9322 9.60605 16.5017C11.0789 15.8322 12.9206 15.8322 14.3935 16.5017C15.3406 16.9322 16.5788 16.9322 17.5258 16.5017C18.9987 15.8322 20.8404 15.8322 22.3133 16.5017C22.8161 16.7302 23.0384 17.3231 22.8099 17.8259C22.5814 18.3286 21.9885 18.5509 21.4857 18.3224C20.5387 17.8919 19.3005 17.8919 18.3534 18.3224C16.8805 18.9919 15.0388 18.9919 13.5659 18.3224C12.6189 17.8919 11.3807 17.8919 10.4336 18.3224C8.96075 18.9919 7.11904 18.9919 5.64615 18.3224ZM13.5659 21.8223C12.6189 21.3918 11.3806 21.3918 10.4336 21.8223C8.96071 22.4918 7.119 22.4918 5.64611 21.8223C5.14334 21.5938 4.92103 21.0009 5.14956 20.4982C5.37809 19.9954 5.97093 19.7731 6.4737 20.0016C7.42075 20.4321 8.65896 20.4321 9.60601 20.0016C11.0789 19.3321 12.9206 19.3321 14.3935 20.0016C15.3405 20.4321 16.5788 20.4321 17.5258 20.0016C18.0286 19.7731 18.6214 19.9954 18.8499 20.4982C19.0785 21.0009 18.8562 21.5938 18.3534 21.8223C16.8805 22.4918 15.0388 22.4918 13.5659 21.8223Z" fill="#0A0B0D"/>
</svg>
