<svg width="24" height="24" viewBox="0 0 24 24" fill="none" xmlns="http://www.w3.org/2000/svg">
<g clip-path="url(#clip0_2861_15292)">
<path d="M18.2 17.4899C17.84 17.8799 17.41 18.1899 16.91 18.4099C16.42 18.6299 15.9 18.7399 15.37 18.7399C14.82 18.7299 14.3 18.6199 13.82 18.3899C13.45 18.2099 13 18.3699 12.82 18.7399C12.64 19.1099 12.79 19.5599 13.17 19.7399C13.86 20.0699 14.59 20.2399 15.39 20.2399C16.13 20.2299 16.85 20.0799 17.53 19.7799C17.99 19.5799 18.41 19.3199 18.78 18.9999C19.33 19.4199 19.95 19.7499 20.6 19.9599C21.24 20.1699 21.91 20.2799 22.58 20.2799C22.84 20.2799 23.09 20.2599 23.34 20.2299C23.75 20.1799 24.04 19.7999 23.99 19.3899C23.94 18.9799 23.56 18.6899 23.15 18.7399C22.45 18.8199 21.73 18.7499 21.06 18.5299C20.39 18.3099 19.77 17.9299 19.26 17.4399C19.11 17.2999 18.91 17.2299 18.72 17.2299C18.52 17.2599 18.33 17.3399 18.2 17.4899Z" fill="#171717"/>
<path d="M23.25 22.4999H11.16L11.84 9.49994L17.28 11.2799C17.44 11.3299 17.6 11.3599 17.76 11.3599C17.86 11.3599 17.96 11.3499 18.05 11.3299C18.31 11.2799 18.55 11.1599 18.75 10.9799C18.95 10.8099 19.09 10.5799 19.18 10.3299C19.26 10.0799 19.28 9.81994 19.24 9.60994C19.1 8.49994 18.63 7.46994 17.88 6.62994C17.26 5.93994 16.47 5.42994 15.58 5.11994L17.71 2.97994C17.88 2.80994 18.01 2.59994 18.09 2.36994C18.16 2.13994 18.18 1.88994 18.14 1.65994C18.09 1.42994 17.99 1.19994 17.84 0.999939C17.69 0.809939 17.5 0.659939 17.3 0.559939C16.36 0.0999394 15.32 -0.0900606 14.28 0.0199394C13.24 0.119939 12.26 0.509939 11.43 1.13994C11 1.45994 10.68 1.84994 10.43 2.25994C10.11 1.90994 9.74001 1.59994 9.34001 1.33994C8.55001 0.829939 7.64001 0.509939 6.63001 0.419939C6.62001 0.419939 6.62001 0.419939 6.61001 0.419939C5.73001 0.419939 4.84001 0.499939 3.96001 0.669939C3.70001 0.719939 3.46001 0.849939 3.26001 1.02994C3.06001 1.20994 2.92001 1.42994 2.84001 1.68994C2.76001 1.94994 2.76001 2.22994 2.81001 2.48994C2.87001 2.74994 3.00001 2.98994 3.18001 3.17994L4.15001 4.22994C3.07001 4.49994 2.11001 5.07994 1.37001 5.91994C0.620013 6.76994 0.150013 7.81994 0.0300126 8.87994C-0.0199874 9.12994 -0.00998744 9.38994 0.0700126 9.62994C0.150013 9.86994 0.290013 10.0999 0.480013 10.2699C0.670013 10.4399 0.890013 10.5699 1.14001 10.6299C1.26001 10.6599 1.38001 10.6699 1.50001 10.6699C1.63001 10.6699 1.77001 10.6499 1.90001 10.6199L8.10001 8.93994L3.74001 22.4999H0.750013C0.340013 22.4999 1.25575e-05 22.8399 1.25575e-05 23.2499C1.25575e-05 23.6599 0.340013 23.9999 0.750013 23.9999H23.25C23.66 23.9999 24 23.6599 24 23.2499C24 22.8399 23.66 22.4999 23.25 22.4999ZM17.74 9.84994L10.39 7.43994C10.79 6.99994 12.11 5.88994 14.71 6.40994C15.5 6.59994 16.21 7.01994 16.75 7.61994C17.3 8.23994 17.64 8.98994 17.74 9.84994ZM12.34 2.34994C12.95 1.88994 13.67 1.59994 14.43 1.51994C15.19 1.44994 15.96 1.57994 16.65 1.91994L13.78 4.79994C12.7 4.74994 11.82 4.91994 11.13 5.19994C11.16 4.48994 11.35 3.07994 12.34 2.34994ZM6.56001 1.93994C7.26001 1.99994 7.94001 2.22994 8.53001 2.60994C9.04001 2.93994 9.46001 3.39994 9.79001 3.90994C9.65001 4.53994 9.62001 5.07994 9.62001 5.39994C8.67001 4.53994 7.45001 4.06994 6.01001 4.04994L4.26001 2.15994C5.04001 2.00994 5.84001 1.93994 6.56001 1.93994ZM1.51001 9.10994C1.60001 8.28994 1.94001 7.52994 2.49001 6.90994C3.04001 6.28994 3.75001 5.85994 4.53001 5.66994C4.94001 5.58994 5.40001 5.52994 5.87001 5.52994C6.95001 5.52994 8.10001 5.84994 8.96001 6.84994L8.75001 7.20994L1.51001 9.10994ZM9.72001 8.79994L10.36 9.00994L9.65001 22.4999H5.32001L9.72001 8.79994Z" fill="#171717"/>
</g>
<defs>
<clipPath id="clip0_2861_15292">
<rect width="24" height="24" fill="white"/>
</clipPath>
</defs>
</svg>
