<svg width="24" height="24" viewBox="0 0 24 24" fill="none" xmlns="http://www.w3.org/2000/svg">
<path d="M18.2001 17.4924C17.8402 17.8823 17.4102 18.1921 16.9102 18.412C16.4202 18.6319 15.9002 18.7419 15.3702 18.7419C14.8202 18.7319 14.3002 18.6219 13.8202 18.392C13.4503 18.2121 13.0003 18.372 12.8203 18.7419C12.6403 19.1117 12.7903 19.5615 13.1703 19.7414C13.8602 20.0712 14.5902 20.2412 15.3902 20.2412C16.1302 20.2312 16.8502 20.0812 17.5302 19.7814C17.9902 19.5815 18.4101 19.3216 18.7801 19.0017C19.3301 19.4215 19.9501 19.7514 20.6001 19.9613C21.2401 20.1712 21.9101 20.2812 22.58 20.2812C22.84 20.2812 23.09 20.2612 23.34 20.2312C23.75 20.1812 24.04 19.8014 23.99 19.3916C23.94 18.9817 23.56 18.6919 23.15 18.7419C22.45 18.8218 21.7301 18.7519 21.0601 18.532C20.3901 18.3121 19.7701 17.9322 19.2601 17.4425C19.1101 17.3025 18.9101 17.2325 18.7201 17.2325C18.5201 17.2625 18.3301 17.3425 18.2001 17.4924Z" fill="#1D2127"/>
<path d="M23.25 22.5001H11.1603L11.8403 9.50609L17.2802 11.2853C17.4402 11.3352 17.6002 11.3652 17.7602 11.3652C17.8602 11.3652 17.9602 11.3552 18.0501 11.3352C18.3101 11.2853 18.5501 11.1653 18.7501 10.9854C18.9501 10.8155 19.0901 10.5856 19.1801 10.3357C19.2601 10.0858 19.2801 9.82594 19.2401 9.61603C19.1001 8.50654 18.6301 7.47702 17.8802 6.6374C17.2602 5.94771 16.4702 5.43795 15.5802 5.12809L17.7102 2.98907C17.8802 2.81915 18.0102 2.60924 18.0901 2.37935C18.1601 2.14945 18.1801 1.89957 18.1401 1.66967C18.0901 1.43978 17.9902 1.20988 17.8402 1.00998C17.6902 0.820062 17.5002 0.670131 17.3002 0.570176C16.3602 0.110387 15.3202 -0.0795261 14.2802 0.0304235C13.2403 0.130378 12.2603 0.520199 11.4303 1.14991C11.0003 1.46976 10.6803 1.85959 10.4303 2.2694C10.1103 1.91956 9.74034 1.6097 9.34035 1.34982C8.55037 0.840053 7.64039 0.520199 6.63041 0.43024C6.62041 0.43024 6.62041 0.43024 6.61041 0.43024C5.73043 0.43024 4.84045 0.510204 3.96047 0.680126C3.70048 0.730103 3.46048 0.860044 3.26049 1.03996C3.06049 1.21988 2.92049 1.43978 2.8405 1.69966C2.7605 1.95954 2.7605 2.23941 2.8105 2.49929C2.8705 2.75917 3.00049 2.99906 3.18049 3.18898L4.15047 4.2385C3.07049 4.50837 2.11051 5.08811 1.37053 5.92772C0.620548 6.77734 0.150558 7.82685 0.0305612 8.88637C-0.0194377 9.13626 -0.0094379 9.39614 0.0705603 9.63603C0.150558 9.87592 0.290555 10.1058 0.480551 10.2757C0.670547 10.4457 0.890541 10.5756 1.14054 10.6356C1.26053 10.6656 1.38053 10.6756 1.50053 10.6756C1.63052 10.6756 1.77052 10.6556 1.90052 10.6256L8.10038 8.94634L3.74048 22.5001H0.750545C0.340554 22.5001 0.000561861 22.84 0.000561861 23.2498C0.000561861 23.6596 0.340554 23.9995 0.750545 23.9995H23.25C23.66 23.9995 24 23.6596 24 23.2498C24 22.84 23.66 22.5001 23.25 22.5001ZM17.7402 9.85593L10.3903 7.44703C10.7903 7.00723 12.1103 5.89774 14.7102 6.4175C15.5002 6.60741 16.2102 7.02722 16.7502 7.62695C17.3002 8.24666 17.6402 8.99632 17.7402 9.85593ZM12.3403 2.35936C12.9503 1.89957 13.6702 1.6097 14.4302 1.52974C15.1902 1.45977 15.9602 1.58971 16.6502 1.92955L13.7802 4.80824C12.7003 4.75826 11.8203 4.92818 11.1303 5.20805C11.1603 4.49838 11.3503 3.08902 12.3403 2.35936ZM6.56041 1.94955C7.2604 2.00952 7.94038 2.23941 8.53037 2.61924C9.04035 2.94909 9.46035 3.40888 9.79034 3.91864C9.65034 4.54836 9.62034 5.08811 9.62034 5.40796C8.67036 4.54836 7.45039 4.07857 6.01042 4.05858L4.26046 2.16944C5.04045 2.01951 5.84043 1.94955 6.56041 1.94955ZM1.51053 9.11626C1.60053 8.29664 1.94052 7.53699 2.4905 6.91727C3.04049 6.29755 3.75048 5.86775 4.53046 5.67784C4.94045 5.59788 5.40044 5.5379 5.87043 5.5379C6.9504 5.5379 8.10038 5.85776 8.96036 6.8573L8.75036 7.21713L1.51053 9.11626ZM9.72034 8.80641L10.3603 9.01631L9.65034 22.5001H5.32044L9.72034 8.80641Z" fill="#1D2127"/>
</svg>
