<svg width="24" height="24" viewBox="0 0 24 24" fill="none" xmlns="http://www.w3.org/2000/svg">
<path d="M18.2002 17.4925C17.8402 17.8823 17.4102 18.1922 16.9102 18.4121C16.4202 18.632 15.9002 18.7419 15.3702 18.7419C14.8203 18.7319 14.3003 18.622 13.8203 18.3921C13.4503 18.2121 13.0003 18.3721 12.8203 18.7419C12.6403 19.1117 12.7903 19.5615 13.1703 19.7415C13.8603 20.0713 14.5903 20.2412 15.3902 20.2412C16.1302 20.2312 16.8502 20.0813 17.5302 19.7814C17.9902 19.5815 18.4102 19.3216 18.7802 19.0018C19.3302 19.4216 19.9502 19.7514 20.6001 19.9613C21.2401 20.1713 21.9101 20.2812 22.5801 20.2812C22.8401 20.2812 23.0901 20.2612 23.3401 20.2312C23.7501 20.1812 24.0401 19.8014 23.9901 19.3916C23.9401 18.9818 23.5601 18.6919 23.1501 18.7419C22.4501 18.8219 21.7301 18.7519 21.0601 18.532C20.3901 18.3121 19.7702 17.9323 19.2602 17.4425C19.1102 17.3026 18.9102 17.2326 18.7202 17.2326C18.5202 17.2626 18.3302 17.3425 18.2002 17.4925Z" fill="#171717"/>
<path d="M23.2501 22.5002H11.1603L11.8403 9.50611L17.2802 11.2853C17.4402 11.3353 17.6002 11.3653 17.7602 11.3653C17.8602 11.3653 17.9602 11.3553 18.0502 11.3353C18.3102 11.2853 18.5502 11.1654 18.7502 10.9854C18.9502 10.8155 19.0902 10.5856 19.1802 10.3357C19.2602 10.0858 19.2802 9.82596 19.2402 9.61606C19.1002 8.50656 18.6302 7.47703 17.8802 6.63742C17.2602 5.94773 16.4702 5.43796 15.5802 5.1281L17.7102 2.98908C17.8802 2.81915 18.0102 2.60925 18.0902 2.37935C18.1602 2.14946 18.1802 1.89957 18.1402 1.66968C18.0902 1.43978 17.9902 1.20989 17.8402 1.00998C17.6902 0.820064 17.5002 0.670132 17.3002 0.570178C16.3602 0.110387 15.3202 -0.0795263 14.2803 0.0304236C13.2403 0.130378 12.2603 0.520201 11.4303 1.14991C11.0003 1.46977 10.6803 1.85959 10.4303 2.2694C10.1104 1.91956 9.74036 1.6097 9.34037 1.34982C8.55039 0.840055 7.64041 0.520201 6.63043 0.430242C6.62043 0.430242 6.62043 0.430242 6.61043 0.430242C5.73045 0.430242 4.84046 0.510205 3.96048 0.680128C3.70049 0.730105 3.46049 0.860046 3.2605 1.03996C3.0605 1.21988 2.9205 1.43978 2.8405 1.69966C2.76051 1.95955 2.76051 2.23942 2.8105 2.4993C2.8705 2.75918 3.0005 2.99907 3.1805 3.18899L4.15048 4.23851C3.0705 4.50839 2.11052 5.08812 1.37053 5.92774C0.620549 6.77735 0.150559 7.82687 0.0305613 8.88639C-0.0194377 9.13628 -0.00943793 9.39616 0.0705604 9.63605C0.150559 9.87594 0.290556 10.1058 0.480552 10.2758C0.670548 10.4457 0.890544 10.5756 1.14054 10.6356C1.26054 10.6656 1.38053 10.6756 1.50053 10.6756C1.63053 10.6756 1.77053 10.6556 1.90052 10.6256L8.1004 8.94636L3.74049 22.5002H0.750547C0.340555 22.5002 0.000561863 22.84 0.000561863 23.2499C0.000561863 23.6597 0.340555 23.9995 0.750547 23.9995H23.2501C23.6601 23.9995 24.0001 23.6597 24.0001 23.2499C24.0001 22.84 23.6601 22.5002 23.2501 22.5002ZM17.7402 9.85595L10.3904 7.44705C10.7903 7.00725 12.1103 5.89775 14.7103 6.41752C15.5002 6.60743 16.2102 7.02724 16.7502 7.62697C17.3002 8.24668 17.6402 8.99634 17.7402 9.85595ZM12.3403 2.35936C12.9503 1.89957 13.6703 1.6097 14.4303 1.52974C15.1903 1.45977 15.9602 1.58971 16.6502 1.92956L13.7803 4.80825C12.7003 4.75827 11.8203 4.92819 11.1303 5.20807C11.1603 4.49839 11.3503 3.08903 12.3403 2.35936ZM6.56043 1.94955C7.26041 2.00952 7.9404 2.23942 8.53039 2.61924C9.04038 2.94909 9.46037 3.40889 9.79036 3.91865C9.65036 4.54837 9.62037 5.08812 9.62037 5.40798C8.67039 4.54837 7.45041 4.07858 6.01044 4.05859L4.26048 2.16945C5.04046 2.01952 5.84044 1.94955 6.56043 1.94955ZM1.51053 9.11629C1.60053 8.29666 1.94052 7.53701 2.49051 6.91729C3.0405 6.29757 3.75049 5.86777 4.53047 5.67785C4.94046 5.59789 5.40045 5.53792 5.87044 5.53792C6.95042 5.53792 8.1004 5.85777 8.96038 6.85732L8.75038 7.21715L1.51053 9.11629ZM9.72036 8.80643L10.3604 9.01633L9.65036 22.5002H5.32045L9.72036 8.80643Z" fill="#171717"/>
</svg>
