<svg width="24" height="24" viewBox="0 0 24 24" fill="none" xmlns="http://www.w3.org/2000/svg">
<path opacity="0.2" d="M6 19.505H3.5V17.005L18 3.005L20 5.005L6 19.505Z" fill="#101C2D"/>
<path fill-rule="evenodd" clip-rule="evenodd" d="M15.793 2.79788C17.012 1.57893 18.9883 1.57893 20.2072 2.79788C21.4262 4.01683 21.4262 5.99314 20.2072 7.21209L7.64449 19.7748C7.62469 19.7946 7.60507 19.8143 7.58561 19.8338C7.29817 20.1218 7.04473 20.3757 6.7392 20.5629C6.47078 20.7274 6.17815 20.8486 5.87204 20.9221C5.5236 21.0058 5.16485 21.0054 4.75796 21.005C4.73041 21.005 4.70265 21.005 4.67464 21.005H3.0001C2.44782 21.005 2.0001 20.5573 2.0001 20.005V18.3305C2.0001 18.3025 2.00008 18.2747 2.00005 18.2472C1.99967 17.8403 1.99934 17.4815 2.08299 17.1331C2.15648 16.827 2.2777 16.5343 2.44218 16.2659C2.62942 15.9604 2.88332 15.7069 3.17131 15.4195C3.1908 15.4 3.21046 15.3804 3.23026 15.3606L15.793 2.79788ZM18.793 4.21209C18.3551 3.77419 17.6451 3.77419 17.2072 4.21209L4.64447 16.7748C4.26491 17.1544 4.19492 17.2335 4.14746 17.3109C4.09263 17.4004 4.05223 17.4979 4.02773 17.6C4.00653 17.6883 4.0001 17.7937 4.0001 18.3305V19.005H4.67464C5.21143 19.005 5.31683 18.9986 5.40515 18.9774C5.50718 18.9529 5.60473 18.9125 5.6942 18.8576C5.77164 18.8102 5.85072 18.7402 6.23028 18.3606L18.793 5.79788C19.2309 5.35998 19.2309 4.65 18.793 4.21209ZM21.6748 17.2669C22.0824 17.6395 22.1108 18.2721 21.7382 18.6797L20.7381 19.7737L20.738 19.7738C20.0284 20.5499 19.0459 21.005 18.0002 21.005C16.9549 21.005 15.9726 20.5501 15.263 19.7745C14.9111 19.3912 14.4549 19.1951 14.0003 19.1951C13.5454 19.1951 13.0889 19.3914 12.7369 19.7751C12.3635 20.182 11.731 20.2093 11.324 19.8359C10.9171 19.4625 10.8899 18.8299 11.2632 18.423C11.9736 17.6488 12.9555 17.1951 14.0003 17.1951C15.045 17.1951 16.027 17.6488 16.7373 18.423L16.7385 18.4242C17.0897 18.8084 17.5458 19.005 18.0002 19.005C18.4546 19.005 18.9107 18.8084 19.2619 18.4243C19.2619 18.4243 19.2619 18.4243 19.262 18.4242L20.262 17.3303C20.6346 16.9227 21.2672 16.8943 21.6748 17.2669Z" fill="#101C2D"/>
</svg>
