<svg width="24" height="24" viewBox="0 0 24 24" fill="none" xmlns="http://www.w3.org/2000/svg">
<path d="M23.25 8.62988C22.84 8.62988 22.5 8.96988 22.5 9.37988V13.8799H1.5V5.62988C1.5 5.21988 1.16 4.87988 0.75 4.87988C0.34 4.87988 0 5.20988 0 5.62988V18.3799C0 18.7899 0.34 19.1299 0.75 19.1299C1.16 19.1299 1.5 18.7899 1.5 18.3799V15.3799H22.5V18.3799C22.5 18.7899 22.84 19.1299 23.25 19.1299C23.66 19.1299 24 18.7899 24 18.3699V9.36988C24 8.95988 23.66 8.62988 23.25 8.62988Z" fill="#171717"/>
<path d="M6 12.3799C7.65 12.3799 9 11.0299 9 9.37988C9 7.72988 7.65 6.37988 6 6.37988C4.35 6.37988 3 7.72988 3 9.37988C3 11.0299 4.35 12.3799 6 12.3799ZM6 7.87988C6.83 7.87988 7.5 8.54988 7.5 9.37988C7.5 10.2099 6.83 10.8799 6 10.8799C5.17 10.8799 4.5 10.2099 4.5 9.37988C4.5 8.54988 5.17 7.87988 6 7.87988Z" fill="#171717"/>
<path d="M11.25 12.3798H20.25C20.45 12.3798 20.64 12.2998 20.78 12.1598C20.92 12.0198 21 11.8298 21 11.6298C21 10.8198 20.73 10.0298 20.23 9.38979C19.73 8.74979 19.03 8.29979 18.25 8.09979L12.37 6.62979C12.15 6.57979 11.92 6.56979 11.69 6.61979C11.47 6.66979 11.26 6.76979 11.08 6.90979C10.9 7.04979 10.76 7.22979 10.65 7.43979C10.55 7.63979 10.5 7.86979 10.5 8.09979V11.6398C10.5 12.0398 10.84 12.3798 11.25 12.3798ZM12 8.08979L17.88 9.55979C18.34 9.67979 18.75 9.93979 19.05 10.3198C19.18 10.4898 19.29 10.6798 19.37 10.8798H12.01L12 8.08979Z" fill="#171717"/>
</svg>
