<svg width="24" height="24" viewBox="0 0 24 24" fill="none" xmlns="http://www.w3.org/2000/svg">
<path d="M23.25 8.62988C22.84 8.62988 22.5 8.96988 22.5 9.37988V13.8799H1.5V5.62988C1.5 5.21988 1.16 4.87988 0.75 4.87988C0.34 4.87988 0 5.20988 0 5.62988V18.3799C0 18.7899 0.34 19.1299 0.75 19.1299C1.16 19.1299 1.5 18.7899 1.5 18.3799V15.3799H22.5V18.3799C22.5 18.7899 22.84 19.1299 23.25 19.1299C23.66 19.1299 24 18.7899 24 18.3699V9.36988C24 8.95988 23.66 8.62988 23.25 8.62988Z" fill="#171717"/>
<path d="M6 12.3799C7.65 12.3799 9 11.0299 9 9.37988C9 7.72988 7.65 6.37988 6 6.37988C4.35 6.37988 3 7.72988 3 9.37988C3 11.0299 4.35 12.3799 6 12.3799ZM6 7.87988C6.83 7.87988 7.5 8.54988 7.5 9.37988C7.5 10.2099 6.83 10.8799 6 10.8799C5.17 10.8799 4.5 10.2099 4.5 9.37988C4.5 8.54988 5.17 7.87988 6 7.87988Z" fill="#171717"/>
<path d="M11.25 12.3799H20.25C20.45 12.3799 20.64 12.2999 20.78 12.1599C20.92 12.0199 21 11.8299 21 11.6299C21 10.8199 20.73 10.0299 20.23 9.38988C19.73 8.74988 19.03 8.29988 18.25 8.09988L12.37 6.62988C12.15 6.57988 11.92 6.56988 11.69 6.61988C11.47 6.66988 11.26 6.76988 11.08 6.90988C10.9 7.04988 10.76 7.22988 10.65 7.43988C10.55 7.63988 10.5 7.86988 10.5 8.09988V11.6399C10.5 12.0399 10.84 12.3799 11.25 12.3799ZM12 8.08988L17.88 9.55988C18.34 9.67988 18.75 9.93988 19.05 10.3199C19.18 10.4899 19.29 10.6799 19.37 10.8799H12.01L12 8.08988Z" fill="#171717"/>
</svg>
