<svg width="24" height="24" viewBox="0 0 24 24" fill="none" xmlns="http://www.w3.org/2000/svg">
<path fill-rule="evenodd" clip-rule="evenodd" d="M4.58517 12.5772C4.42041 12.5772 4.26239 12.6426 4.14589 12.7591C4.02938 12.8756 3.96393 13.0336 3.96393 13.1984V16.024H20.0361V13.1984C20.0361 13.0336 19.9706 12.8756 19.8541 12.7591C19.7376 12.6426 19.5796 12.5772 19.4148 12.5772H4.58517ZM2.75718 11.3704C3.24199 10.8856 3.89954 10.6132 4.58517 10.6132H19.4148C20.1005 10.6132 20.758 10.8856 21.2428 11.3704C21.7276 11.8552 22 12.5128 22 13.1984V17.006C22 17.5483 21.5604 17.988 21.018 17.988H2.98196C2.43964 17.988 2 17.5483 2 17.006V13.1984C2 12.5128 2.27237 11.8552 2.75718 11.3704Z" fill="#0A0B0D"/>
<path fill-rule="evenodd" clip-rule="evenodd" d="M2.98196 16.024C3.52429 16.024 3.96393 16.4637 3.96393 17.006V19.4108C3.96393 19.9531 3.52429 20.3928 2.98196 20.3928C2.43964 20.3928 2 19.9531 2 19.4108V17.006C2 16.4637 2.43964 16.024 2.98196 16.024Z" fill="#0A0B0D"/>
<path fill-rule="evenodd" clip-rule="evenodd" d="M21.018 16.024C21.5604 16.024 22 16.4637 22 17.006V19.4108C22 19.9531 21.5604 20.3928 21.018 20.3928C20.4757 20.3928 20.0361 19.9531 20.0361 19.4108V17.006C20.0361 16.4637 20.4757 16.024 21.018 16.024Z" fill="#0A0B0D"/>
<path fill-rule="evenodd" clip-rule="evenodd" d="M4.44339 3.63979C4.85304 3.23014 5.40864 3 5.98798 3H18.012C18.5914 3 19.147 3.23014 19.5566 3.63979C19.9663 4.04943 20.1964 4.60504 20.1964 5.18437V11.5952C20.1964 12.1375 19.7568 12.5772 19.2144 12.5772C18.6721 12.5772 18.2325 12.1375 18.2325 11.5952V5.18437C18.2325 5.12591 18.2092 5.06984 18.1679 5.02849C18.1266 4.98715 18.0705 4.96393 18.012 4.96393H5.98798C5.92951 4.96393 5.87344 4.98715 5.8321 5.02849C5.79076 5.06983 5.76753 5.1259 5.76753 5.18437V11.5952C5.76753 12.1375 5.32789 12.5772 4.78557 12.5772C4.24325 12.5772 3.80361 12.1375 3.80361 11.5952V5.18437C3.80361 4.60504 4.03375 4.04944 4.44339 3.63979Z" fill="#0A0B0D"/>
<path fill-rule="evenodd" clip-rule="evenodd" d="M9.37475 8.57114V10.6132H14.6252V8.57114H9.37475ZM7.93322 7.12961C8.2677 6.79513 8.72136 6.60721 9.19439 6.60721H14.8056C15.2786 6.60721 15.7323 6.79513 16.0668 7.12961C16.4013 7.46409 16.5892 7.91775 16.5892 8.39078V11.5952C16.5892 12.1375 16.1495 12.5772 15.6072 12.5772H8.39279C7.85046 12.5772 7.41082 12.1375 7.41082 11.5952V8.39078C7.41082 7.91775 7.59873 7.46409 7.93322 7.12961Z" fill="#0A0B0D"/>
</svg>
