<svg width="24" height="24" viewBox="0 0 24 24" fill="none" xmlns="http://www.w3.org/2000/svg">
<path d="M23.25 8.68421C22.84 8.68421 22.5 9.01825 22.5 9.42105V13.8421H1.5V5.73684C1.5 5.33404 1.16 5 0.75 5C0.34 5 0 5.32421 0 5.73684V18.2632C0 18.666 0.34 19 0.75 19C1.16 19 1.5 18.666 1.5 18.2632V15.3158H22.5V18.2632C22.5 18.666 22.84 19 23.25 19C23.66 19 24 18.666 24 18.2533V9.41123C24 9.00842 23.66 8.68421 23.25 8.68421Z" fill="#171717"/>
<path d="M6 12.3684C7.65 12.3684 9 11.0421 9 9.42105C9 7.8 7.65 6.47368 6 6.47368C4.35 6.47368 3 7.8 3 9.42105C3 11.0421 4.35 12.3684 6 12.3684ZM6 7.94737C6.83 7.94737 7.5 8.60561 7.5 9.42105C7.5 10.2365 6.83 10.8947 6 10.8947C5.17 10.8947 4.5 10.2365 4.5 9.42105C4.5 8.60561 5.17 7.94737 6 7.94737Z" fill="#171717"/>
<path d="M11.25 12.3684H20.25C20.45 12.3684 20.64 12.2898 20.78 12.1523C20.92 12.0147 21 11.8281 21 11.6316C21 10.8358 20.73 10.0596 20.23 9.43088C19.73 8.80211 19.03 8.36 18.25 8.16351L12.37 6.7193C12.15 6.67018 11.92 6.66035 11.69 6.70947C11.47 6.7586 11.26 6.85684 11.08 6.99439C10.9 7.13193 10.76 7.30877 10.65 7.51509C10.55 7.71158 10.5 7.93754 10.5 8.16351V11.6414C10.5 12.0344 10.84 12.3684 11.25 12.3684ZM12 8.15368L17.88 9.5979C18.34 9.71579 18.75 9.97123 19.05 10.3446C19.18 10.5116 19.29 10.6982 19.37 10.8947H12.01L12 8.15368Z" fill="#171717"/>
</svg>
