<svg width="24" height="24" viewBox="0 0 24 24" fill="none" xmlns="http://www.w3.org/2000/svg">
<path fill-rule="evenodd" clip-rule="evenodd" d="M3.59164 0.00895576C2.75198 0.10413 2.08778 0.769381 2.01066 1.59242C1.9967 1.74136 1.99633 21.7551 2.01027 21.9204C2.05059 22.3984 2.22743 22.8223 2.54067 23.1919C2.92114 23.6408 3.49777 23.9363 4.09684 23.9892C4.18533 23.997 4.78642 23.999 6.23773 23.9964C8.46752 23.9923 8.29112 23.9972 8.56564 23.9307C9.41756 23.7243 10.0858 23.0441 10.2624 22.2036C10.2853 22.0948 10.3223 21.5848 10.6616 16.7124C10.8909 13.4193 11.0416 11.3101 11.0511 11.2607C11.1208 10.8988 11.4342 10.596 11.8139 10.524C11.9086 10.506 12.0932 10.506 12.1879 10.524C12.5698 10.5965 12.8807 10.8968 12.9507 11.2607C12.9601 11.3098 13.1119 13.424 13.3396 16.6788C13.5449 19.6145 13.7201 22.0616 13.7288 22.1167C13.8399 22.8183 14.3204 23.4486 14.9883 23.7687C15.1972 23.8688 15.4064 23.9338 15.6576 23.9765C15.7487 23.992 15.9078 23.9935 17.769 23.9966C19.2131 23.9991 19.8167 23.997 19.905 23.9892C20.5938 23.9284 21.226 23.5593 21.6151 22.9908C21.8001 22.7205 21.9175 22.4194 21.9797 22.0553C21.9951 21.9656 21.9964 21.2504 21.9992 11.8404C22.0014 4.74634 21.9991 1.68764 21.9918 1.607C21.9533 1.18465 21.7791 0.81621 21.4772 0.518946C21.1855 0.231647 20.8123 0.0545942 20.4021 0.00885016C20.2956 -0.00301544 3.6964 -0.00291944 3.59164 0.00895576ZM3.7443 1.50666C3.66691 1.52155 3.60119 1.57442 3.56611 1.65002C3.54658 1.6921 3.54605 1.71006 3.54584 2.34362L3.54562 2.99402H12.0009H20.4562L20.4561 2.34362L20.456 1.69322L20.4327 1.64522C20.4057 1.58951 20.3706 1.55516 20.3085 1.52368L20.2642 1.50122L12.0255 1.49986C7.49421 1.49911 3.76766 1.50217 3.7443 1.50666ZM3.54562 5.96042C3.54562 6.76298 3.54906 7.41962 3.55325 7.41962C3.57168 7.41962 3.80705 7.36022 3.91474 7.32841C4.14016 7.26179 4.44826 7.13256 4.66068 7.01552C5.14137 6.75064 5.58845 6.35563 5.91589 5.90652C6.17615 5.54953 6.38736 5.10031 6.49968 4.66485C6.52073 4.58325 6.53795 4.51306 6.53795 4.50885C6.53795 4.50466 5.86467 4.50122 5.04178 4.50122H3.54562V5.96042ZM8.10301 4.50386C8.10301 4.50532 8.09186 4.56903 8.07823 4.64546C7.93849 5.42905 7.61851 6.17185 7.14371 6.81482C6.59684 7.55539 5.84301 8.15748 4.99257 8.53296C4.57644 8.71668 4.15782 8.84266 3.70227 8.92125C3.6233 8.93487 3.55574 8.94602 3.55212 8.94602C3.5485 8.94602 3.54667 11.8588 3.54804 15.4188C3.55042 21.5538 3.55144 21.8946 3.56779 21.9492C3.62742 22.1484 3.7824 22.3279 3.9738 22.4197C4.14693 22.5027 3.95148 22.4953 6.08516 22.4989C7.3644 22.5011 8.01144 22.4988 8.07683 22.492C8.26794 22.4721 8.40987 22.4053 8.54595 22.2714C8.64068 22.1781 8.68431 22.1119 8.72568 21.9988L8.75435 21.9204L9.1266 16.578C9.33134 13.6397 9.50395 11.1924 9.51019 11.1396C9.56958 10.6366 9.81958 10.1303 10.1945 9.75359C10.4063 9.54082 10.6178 9.39083 10.8935 9.25777C11.1478 9.1351 11.3924 9.06248 11.6908 9.02104C11.8066 9.00497 12.1952 9.00497 12.311 9.02104C12.7958 9.08836 13.2156 9.2638 13.5857 9.55377C14.0694 9.93287 14.4075 10.5162 14.4869 11.1086C14.4955 11.1732 14.6705 13.6236 14.8757 16.554C15.1366 20.2806 15.2534 21.9008 15.2643 21.9444C15.3272 22.1962 15.5553 22.4116 15.8299 22.4784C15.9008 22.4957 15.9808 22.4964 17.8527 22.4964C20.0517 22.4964 19.8534 22.5034 20.028 22.4197C20.2165 22.3293 20.3634 22.163 20.4264 21.9685L20.4513 21.8916L20.4538 15.4188C20.4551 11.8588 20.4528 8.94602 20.4485 8.94602C20.4442 8.94602 20.3766 8.9349 20.2983 8.92132C19.3091 8.74965 18.4192 8.33103 17.6656 7.68285C16.7458 6.89166 16.1339 5.82472 15.9236 4.64546C15.91 4.56903 15.8988 4.50532 15.8988 4.50386C15.8988 4.50241 14.1447 4.50122 12.0009 4.50122C9.85706 4.50122 8.10301 4.50241 8.10301 4.50386ZM17.4639 4.50885C17.4639 4.51306 17.4813 4.58432 17.5027 4.66722C17.6312 5.16563 17.8813 5.66372 18.1997 6.05555C18.7488 6.73116 19.4771 7.18939 20.3231 7.39146C20.3879 7.40695 20.4444 7.41962 20.4486 7.41962C20.4528 7.41962 20.4562 6.76298 20.4562 5.96042V4.50122H18.96C18.1371 4.50122 17.4639 4.50466 17.4639 4.50885Z" fill="#1D2127"/>
</svg>
