<svg width="24" height="24" viewBox="0 0 24 24" fill="none" xmlns="http://www.w3.org/2000/svg">
<path fill-rule="evenodd" clip-rule="evenodd" d="M7.58918 8.01202C8.1315 8.01202 8.57114 8.45166 8.57114 8.99399V20.0361H16.2265V8.99399C16.2265 8.45166 16.6661 8.01202 17.2084 8.01202C17.7507 8.01202 18.1904 8.45166 18.1904 8.99399V20.4168C18.1904 20.8367 18.0236 21.2394 17.7267 21.5363C17.4298 21.8332 17.0271 22 16.6072 22H8.19038C7.7705 22 7.36782 21.8332 7.07091 21.5363C6.77401 21.2394 6.60721 20.8367 6.60721 20.4168V8.99399C6.60721 8.45166 7.04685 8.01202 7.58918 8.01202Z" fill="#0A0B0D"/>
<path fill-rule="evenodd" clip-rule="evenodd" d="M4.69632 3.69632C5.78245 2.61018 7.25556 2 8.79158 2H9.99399C10.5363 2 10.976 2.43964 10.976 2.98196C10.976 3.35933 11.1259 3.72123 11.3927 3.98807C11.6595 4.2549 12.0214 4.40481 12.3988 4.40481C12.7762 4.40481 13.1381 4.2549 13.4049 3.98807C13.6717 3.72123 13.8216 3.35933 13.8216 2.98196C13.8216 2.43964 14.2613 2 14.8036 2H16.006C17.542 2 19.0151 2.61018 20.1013 3.69632C21.1874 4.78245 21.7976 6.25556 21.7976 7.79158V12C21.7976 12.4199 21.6308 12.8226 21.3339 13.1195C21.037 13.4164 20.6343 13.5832 20.2144 13.5832H17.2084C16.6661 13.5832 16.2265 13.1435 16.2265 12.6012C16.2265 12.0589 16.6661 11.6192 17.2084 11.6192H19.8337V7.79158C19.8337 6.77643 19.4304 5.80285 18.7126 5.08502C17.9948 4.3672 17.0212 3.96393 16.006 3.96393H15.6401C15.4799 4.49259 15.1913 4.97905 14.7936 5.37677C14.1585 6.01192 13.297 6.36874 12.3988 6.36874C11.5006 6.36874 10.6391 6.01192 10.004 5.37677C9.60626 4.97905 9.31768 4.49259 9.1575 3.96393H8.79158C7.77643 3.96393 6.80285 4.3672 6.08502 5.08502C5.3672 5.80285 4.96393 6.77643 4.96393 7.79158V11.6192H7.58918C8.1315 11.6192 8.57114 12.0589 8.57114 12.6012C8.57114 13.1435 8.1315 13.5832 7.58918 13.5832H4.58317C4.16328 13.5832 3.7606 13.4164 3.4637 13.1195C3.1668 12.8226 3 12.4199 3 12V7.79158C3 6.25556 3.61018 4.78245 4.69632 3.69632Z" fill="#0A0B0D"/>
</svg>
