<svg width="24" height="24" viewBox="0 0 24 24" fill="none" xmlns="http://www.w3.org/2000/svg">
<path fill-rule="evenodd" clip-rule="evenodd" d="M11.4097 4.13831C11.1953 3.33813 10.3728 2.86327 9.57265 3.07767C8.77247 3.29208 8.2976 4.11457 8.51201 4.91475C8.56923 5.12829 8.66924 5.31826 8.80073 5.4783C9.21312 5.28618 9.64489 5.12881 10.0902 5.00948C10.5356 4.89014 10.9882 4.81055 11.4415 4.77074C11.4753 4.56639 11.467 4.35186 11.4097 4.13831ZM13.4458 4.85728C13.4843 4.45316 13.4527 4.03543 13.3415 3.62069C12.8413 1.75359 10.9221 0.645576 9.05502 1.14586C7.18793 1.64615 6.07991 3.56529 6.5802 5.43238C6.69133 5.84711 6.87282 6.22466 7.10815 6.55541C6.61333 6.97247 6.17711 7.45204 5.81704 7.98414C4.83469 9.43585 4.49502 11.1733 4.93352 12.8098C5.47901 14.8456 5.36271 16.4216 5.03921 17.5806L5.03387 17.5997C4.82584 18.345 4.66336 18.9271 4.56074 19.3412C4.50945 19.5482 4.46658 19.7387 4.4412 19.8989C4.42861 19.9783 4.41659 20.0728 4.41367 20.1706C4.4115 20.2435 4.40853 20.4317 4.48605 20.6381C4.52862 20.7515 4.61665 20.9756 4.81446 21.1755C5.01226 21.3754 5.23548 21.4657 5.34837 21.5095C5.53232 21.5807 5.69916 21.5877 5.78151 21.5884C5.87869 21.5892 5.97056 21.5805 6.04607 21.5707C6.19703 21.5511 6.36939 21.5156 6.5479 21.4744C6.90383 21.3921 7.39694 21.26 8.0183 21.0935L9.26479 20.7595C10.1402 22.311 11.9828 23.137 13.7832 22.6546C15.5835 22.1722 16.7663 20.5355 16.7486 18.7542L19.9269 17.9026C20.5481 17.7361 21.0411 17.604 21.3904 17.4973C21.5656 17.4438 21.7326 17.3884 21.8732 17.3298C21.9434 17.3005 22.0274 17.2622 22.1111 17.2129C22.1821 17.1711 22.3231 17.0817 22.4468 16.928C22.5227 16.8336 22.6708 16.6438 22.7422 16.3718C22.8135 16.0998 22.7777 15.8616 22.7579 15.7422C22.7218 15.5247 22.6251 15.3631 22.5868 15.3011C22.5354 15.2179 22.4777 15.1421 22.4271 15.0796C22.3251 14.9536 22.1926 14.81 22.0447 14.6564C21.7488 14.3491 21.3171 13.9263 20.7644 13.3849L20.7501 13.3709C19.8904 12.5289 19.0017 11.2222 18.4562 9.1864C18.0177 7.54988 16.8548 6.21507 15.2782 5.44902C14.7004 5.16825 14.0829 4.97106 13.4458 4.85728ZM12.1214 6.74074C12.1348 6.74105 12.1482 6.7411 12.1615 6.74088C12.9595 6.74666 13.73 6.92031 14.4042 7.24788C15.5061 7.78327 16.249 8.67634 16.5244 9.70403C17.16 12.0762 18.2282 13.7004 19.3507 14.7997C19.7368 15.1779 20.0497 15.4844 20.2963 15.731C20.0464 15.8 19.7457 15.8806 19.3872 15.9767L7.52238 19.1558C7.16389 19.2519 6.86318 19.3324 6.61223 19.3976C6.7025 19.0608 6.82024 18.6388 6.96553 18.1183C7.38792 16.605 7.50097 14.6644 6.86533 12.2922C6.58996 11.2645 6.78683 10.1196 7.47341 9.10498C7.89328 8.4845 8.47338 7.94907 9.16115 7.54514C9.17353 7.53828 9.18578 7.53115 9.19789 7.52375C9.63042 7.27405 10.1047 7.07611 10.6078 6.94129C11.1114 6.80635 11.6216 6.74064 12.1214 6.74074ZM14.6801 19.3085L11.3333 20.2052C11.822 20.6932 12.5505 20.9144 13.2655 20.7228C13.9806 20.5312 14.5008 19.9754 14.6801 19.3085ZM16.4763 3.59681C16.6139 3.06197 17.1591 2.73999 17.694 2.87765C19.4524 3.33023 20.8345 4.71232 21.287 6.47073C21.4247 7.00558 21.1027 7.55075 20.5679 7.6884C20.033 7.82606 19.4879 7.50408 19.3502 6.96924C19.0793 5.91649 18.2482 5.08544 17.1955 4.81448C16.6606 4.67682 16.3386 4.13165 16.4763 3.59681ZM3.82279 6.98728C4.20943 7.38163 4.20317 8.01475 3.80881 8.40139C3.03259 9.16242 2.7284 10.2977 3.02012 11.3448C3.16832 11.8769 2.85718 12.4283 2.32517 12.5765C1.79315 12.7247 1.24172 12.4136 1.09352 11.8815C0.60626 10.1324 1.11214 8.24445 2.40868 6.9733C2.80303 6.58666 3.43616 6.59292 3.82279 6.98728Z" fill="#101C2D"/>
</svg>
