<svg width="24" height="24" viewBox="0 0 24 24" fill="none" xmlns="http://www.w3.org/2000/svg">
<g clip-path="url(#clip0_2849_15107)">
<path d="M17.25 13.5C13.53 13.5 10.5 10.47 10.5 6.75C10.5 3.03 13.53 0 17.25 0C20.97 0 24 3.02 24 6.75C24 10.48 20.97 13.5 17.25 13.5ZM17.25 1.5C14.36 1.5 12 3.85 12 6.75C12 9.65 14.36 12 17.25 12C20.14 12 22.5 9.65 22.5 6.75C22.5 3.85 20.14 1.5 17.25 1.5Z" fill="#171717"/>
<path d="M19.5 8.5H17.25C16.84 8.5 16.5 8.16 16.5 7.75V4.5C16.5 4.09 16.84 3.75 17.25 3.75C17.66 3.75 18 4.08 18 4.5V7H19.5C19.91 7 20.25 7.34 20.25 7.75C20.25 8.16 19.91 8.5 19.5 8.5Z" fill="#171717"/>
<path d="M18.75 19.5H0.750047C0.480047 19.5 0.220047 19.35 0.0900474 19.11C-0.0399526 18.87 -0.0299526 18.58 0.120047 18.34C0.130047 18.32 1.50005 16.06 1.50005 10.5C1.50005 6.67004 4.10005 3.37004 7.83005 2.47004C8.23005 2.38004 8.64005 2.62004 8.73005 3.02004C8.83005 3.42004 8.58005 3.83004 8.18005 3.92004C5.12005 4.66004 3.00005 7.36004 3.00005 10.49C3.00005 14.31 2.38005 16.71 1.91005 17.99H17.43C17.21 17.54 17.04 17.07 16.91 16.58C16.81 16.18 17.05 15.77 17.45 15.66C17.85 15.56 18.26 15.79 18.37 16.2C18.57 16.96 18.9 17.67 19.36 18.3C19.53 18.53 19.55 18.83 19.42 19.08C19.29 19.34 19.03 19.5 18.75 19.5Z" fill="#171717"/>
<path d="M9.75014 24C9.28014 24 8.81014 23.88 8.38014 23.64C7.72014 23.27 7.24014 22.67 7.03014 21.94C6.92014 21.54 7.15014 21.13 7.55014 21.01C7.95014 20.89 8.36014 21.13 8.48014 21.52C8.68014 22.23 9.42014 22.63 10.1201 22.43C10.5701 22.3 10.9101 21.96 11.0301 21.52C11.1401 21.12 11.5601 20.89 11.9601 21C12.3601 21.11 12.5901 21.53 12.4801 21.93C12.2101 22.88 11.4801 23.6 10.5401 23.87C10.2701 23.97 10.0101 24 9.75014 24Z" fill="#171717"/>
</g>
<defs>
<clipPath id="clip0_2849_15107">
<rect width="24" height="24" fill="white"/>
</clipPath>
</defs>
</svg>
