<svg width="24" height="24" viewBox="0 0 24 24" fill="none" xmlns="http://www.w3.org/2000/svg">
<path fill-rule="evenodd" clip-rule="evenodd" d="M11.9998 3C11.1713 3 10.4998 3.67157 10.4998 4.5C10.4998 4.72108 10.5472 4.93048 10.6328 5.11911C11.0809 5.04027 11.5387 5 11.9998 5C12.4608 5 12.9186 5.04027 13.3667 5.11911C13.4523 4.93048 13.4998 4.72109 13.4998 4.5C13.4998 3.67157 12.8282 3 11.9998 3ZM15.2804 5.72147C15.4222 5.34107 15.4998 4.92938 15.4998 4.5C15.4998 2.567 13.9328 1 11.9998 1C10.0668 1 8.49977 2.567 8.49977 4.5C8.49977 4.92938 8.57736 5.34107 8.71909 5.72147C8.13319 5.99625 7.58771 6.34658 7.10219 6.76736C5.77756 7.91537 4.99977 9.50571 4.99977 11.2C4.99977 13.3077 4.47951 14.7999 3.86705 15.8357L3.85684 15.853C3.46305 16.5189 3.15549 17.0391 2.9492 17.4125C2.84608 17.5991 2.75535 17.7721 2.68938 17.9203C2.65667 17.9937 2.62059 18.0819 2.59247 18.1756C2.57151 18.2454 2.51992 18.4265 2.54137 18.6459C2.55315 18.7664 2.58018 19.0057 2.71951 19.25C2.85885 19.4942 3.05108 19.6393 3.1488 19.7108C3.30805 19.8272 3.4674 19.8772 3.54676 19.8991C3.64042 19.9251 3.73143 19.9404 3.80689 19.9505C3.95777 19.9707 4.13346 19.981 4.31657 19.9873C4.6816 20 5.192 20 5.83512 20H8.12578C8.56983 21.7252 10.1359 23 11.9998 23C13.8636 23 15.4297 21.7252 15.8737 20H18.1644C18.8075 20 19.3179 20 19.683 19.9873C19.8661 19.981 20.0418 19.9707 20.1926 19.9505C20.2681 19.9404 20.3591 19.9251 20.4528 19.8991C20.5321 19.8772 20.6915 19.8272 20.8507 19.7108C20.9485 19.6393 21.1407 19.4942 21.28 19.25C21.4194 19.0057 21.4464 18.7664 21.4582 18.6459C21.4796 18.4265 21.428 18.2454 21.4071 18.1756C21.3789 18.0819 21.3429 17.9937 21.3102 17.9203C21.2442 17.7721 21.1535 17.5991 21.0503 17.4125C20.844 17.0391 20.5364 16.5189 20.1426 15.8528L20.1325 15.8357C19.52 14.7999 18.9998 13.3077 18.9998 11.2C18.9998 9.50571 18.222 7.91537 16.8973 6.76736C16.4118 6.34658 15.8663 5.99625 15.2804 5.72147ZM13.5139 7.19808C13.5266 7.2018 13.5393 7.20526 13.5521 7.20846C14.3215 7.42057 15.021 7.78776 15.5875 8.27873C16.5133 9.08109 16.9998 10.136 16.9998 11.2C16.9998 13.6559 17.6112 15.5012 18.4109 16.8537C18.686 17.3189 18.9089 17.696 19.0833 17.998C18.824 18 18.5127 18 18.1416 18H5.85795C5.48681 18 5.1755 18 4.91622 17.998C5.09059 17.696 5.31354 17.3189 5.58861 16.8537C6.38829 15.5012 6.99977 13.6559 6.99977 11.2C6.99977 10.136 7.48626 9.08109 8.41206 8.27873C8.97856 7.78776 9.678 7.42057 10.4474 7.20846C10.4602 7.20526 10.4729 7.2018 10.4856 7.19809C10.9685 7.06859 11.4783 7 11.9998 7C12.5212 7 13.0311 7.06858 13.5139 7.19808ZM10.2673 20C10.6131 20.5978 11.2595 21 11.9998 21C12.74 21 13.3864 20.5978 13.7322 20H10.2673Z" fill="#101C2D"/>
</svg>
