<svg width="24" height="24" viewBox="0 0 24 24" fill="none" xmlns="http://www.w3.org/2000/svg">
<g clip-path="url(#clip0_2849_15099)">
<path d="M14.22 21.03C13.82 20.91 13.41 21.14 13.29 21.54C13.16 21.98 12.82 22.32 12.38 22.45C11.68 22.66 10.93 22.25 10.72 21.54C10.6 21.14 10.19 20.92 9.79001 21.03C9.39001 21.15 9.17001 21.56 9.28001 21.96C9.64001 23.2 10.78 24 12 24C12.26 24 12.53 23.96 12.8 23.88C13.73 23.61 14.45 22.89 14.72 21.96C14.84 21.56 14.61 21.15 14.22 21.03Z" fill="#171717"/>
<path d="M21.47 18.17C21.46 18.16 20.25 16.8 20.25 10.5C20.25 6.2 16.95 2.67 12.75 2.29V0.75C12.75 0.34 12.41 0 12 0C11.59 0 11.25 0.34 11.25 0.75V2.29C7.05002 2.67 3.75002 6.21 3.75002 10.5C3.75002 16.39 2.42002 18.28 2.41002 18.29C2.23002 18.52 2.20002 18.82 2.33002 19.08C2.46002 19.34 2.71002 19.5 3.00002 19.5H21C21.32 19.5 21.6 19.3 21.71 19C21.81 18.7 21.72 18.36 21.47 18.17ZM4.21002 18C4.68002 16.76 5.25002 14.45 5.25002 10.5C5.25002 6.78 8.28002 3.75 12 3.75C15.72 3.75 18.75 6.78 18.75 10.5C18.75 14.55 19.24 16.79 19.71 18H4.21002Z" fill="#171717"/>
</g>
<defs>
<clipPath id="clip0_2849_15099">
<rect width="24" height="24" fill="white"/>
</clipPath>
</defs>
</svg>
