<svg width="24" height="24" viewBox="0 0 24 24" fill="none" xmlns="http://www.w3.org/2000/svg">
<path d="M14.2768 21.03C13.8666 20.91 13.4461 21.14 13.323 21.54C13.1897 21.98 12.8409 22.32 12.3897 22.45C11.6717 22.66 10.9025 22.25 10.6871 21.54C10.564 21.14 10.1435 20.92 9.73324 21.03C9.32298 21.15 9.09734 21.56 9.21016 21.96C9.57939 23.2 10.7486 24 11.9999 24C12.2666 24 12.5435 23.96 12.8204 23.88C13.7743 23.61 14.5127 22.89 14.7897 21.96C14.9127 21.56 14.6768 21.15 14.2768 21.03Z" fill="#1D2127"/>
<path d="M21.7128 18.17C21.7025 18.16 20.4615 16.8 20.4615 10.5C20.4615 6.2 17.0769 2.67 12.7692 2.29V0.75C12.7692 0.34 12.4204 0 11.9999 0C11.5794 0 11.2307 0.34 11.2307 0.75V2.29C6.92299 2.67 3.53837 6.21 3.53837 10.5C3.53837 16.39 2.17426 18.28 2.164 18.29C1.97939 18.52 1.94862 18.82 2.08195 19.08C2.21529 19.34 2.4717 19.5 2.76913 19.5H21.2307C21.5589 19.5 21.8461 19.3 21.9589 19C22.0615 18.7 21.9692 18.36 21.7128 18.17ZM4.01016 18C4.49222 16.76 5.07683 14.45 5.07683 10.5C5.07683 6.78 8.18453 3.75 11.9999 3.75C15.8153 3.75 18.923 6.78 18.923 10.5C18.923 14.55 19.4256 16.79 19.9076 18H4.01016Z" fill="#1D2127"/>
</svg>
