<svg width="24" height="24" viewBox="0 0 24 24" fill="none" xmlns="http://www.w3.org/2000/svg">
<path d="M17.2501 13.4997C13.5302 13.4997 10.5003 10.4698 10.5003 6.74986C10.5003 3.02994 13.5302 0 17.2501 0C20.9701 0 24 3.01994 24 6.74986C24 10.4798 20.9701 13.4997 17.2501 13.4997ZM17.2501 1.49997C14.3602 1.49997 12.0002 3.84992 12.0002 6.74986C12.0002 9.6498 14.3602 11.9998 17.2501 11.9998C20.1401 11.9998 22.5 9.6498 22.5 6.74986C22.5 3.84992 20.1401 1.49997 17.2501 1.49997Z" fill="#171717"/>
<path d="M19.5001 8.49983H17.2501C16.8401 8.49983 16.5002 8.15983 16.5002 7.74984V4.49991C16.5002 4.08992 16.8401 3.74992 17.2501 3.74992C17.6601 3.74992 18.0001 4.07992 18.0001 4.49991V6.99986H19.5001C19.9101 6.99986 20.2501 7.33985 20.2501 7.74984C20.2501 8.15983 19.9101 8.49983 19.5001 8.49983Z" fill="#171717"/>
<path d="M18.7502 19.4996H0.75052C0.480526 19.4996 0.220531 19.3496 0.0905339 19.1096C-0.0394635 18.8697 -0.0294637 18.5797 0.120533 18.3397C0.130533 18.3197 1.50051 16.0597 1.50051 10.4998C1.50051 6.6699 4.10045 3.36997 7.83038 2.46999C8.23037 2.37999 8.64036 2.61998 8.73036 3.01998C8.83036 3.41997 8.58036 3.82996 8.18037 3.91996C5.12043 4.65994 3.00047 7.35989 3.00047 10.4898C3.00047 14.3097 2.38049 16.7097 1.9105 17.9897H17.4302C17.2102 17.5397 17.0402 17.0697 16.9102 16.5797C16.8102 16.1797 17.0502 15.7697 17.4502 15.6597C17.8502 15.5597 18.2602 15.7897 18.3702 16.1997C18.5702 16.9597 18.9002 17.6697 19.3601 18.2997C19.5301 18.5297 19.5501 18.8297 19.4201 19.0796C19.2901 19.3396 19.0301 19.4996 18.7502 19.4996Z" fill="#171717"/>
<path d="M9.75043 23.9995C9.28044 23.9995 8.81045 23.8795 8.38046 23.6395C7.72048 23.2695 7.24048 22.6695 7.03049 21.9395C6.92049 21.5396 7.15049 21.1296 7.55048 21.0096C7.95047 20.8896 8.36046 21.1296 8.48046 21.5196C8.68046 22.2295 9.42044 22.6295 10.1204 22.4295C10.5704 22.2995 10.9104 21.9595 11.0304 21.5196C11.1404 21.1196 11.5604 20.8896 11.9604 20.9996C12.3604 21.1096 12.5904 21.5296 12.4804 21.9295C12.2104 22.8795 11.4804 23.5995 10.5404 23.8695C10.2704 23.9695 10.0104 23.9995 9.75043 23.9995Z" fill="#171717"/>
</svg>
