<svg width="24" height="24" viewBox="0 0 24 24" fill="none" xmlns="http://www.w3.org/2000/svg">
<path d="M16.7903 11.6551C17.0909 11.4152 17.3139 11.0154 17.5079 10.3557C17.9636 8.83632 18.5455 5.84756 18.5455 5.63765C18.5455 4.70804 17.7794 3.75843 16.3055 3.75843H15.9855L16.9552 1.88921C17.0521 1.69929 17.1006 1.48938 17.1006 1.27947C17.1006 1.06955 17.0521 0.859642 16.9745 0.699708C16.8776 0.499792 16.7321 0.319867 16.5576 0.199917C16.3733 0.0799667 16.16 0.00999583 15.9273 0H10.2642C10.0218 0.0199917 9.81818 0.0899625 9.64364 0.209913C9.45939 0.329863 9.31394 0.499792 9.23636 0.679717C9.13939 0.859642 9.09091 1.06955 9.09091 1.27947C9.09091 1.48938 9.13939 1.69929 9.23636 1.88921L9.59515 2.56893L8.67394 3.90837C8.61576 3.97834 8.54788 4.03832 8.4703 4.0783C8.39273 4.11828 8.30545 4.14827 8.23758 4.14827H7.60727C7.54909 3.48855 7.08364 3.00875 6.47273 3.00875H4.72727C4.3297 3.00875 4 3.3486 4 3.75843C4 4.16826 4.3297 4.50812 4.72727 4.50812H6.18182V10.5056H4.72727C4.3297 10.5056 4 10.8455 4 11.2553C4 11.6651 4.3297 12.005 4.72727 12.005H6.47273C7.13212 12.005 7.63636 11.4552 7.63636 10.7155V10.6456C8.11152 10.9155 8.54788 11.1554 8.95515 11.3553C7.5297 12.7947 5.45455 15.6535 5.45455 18.9321C5.45455 22.6706 9.33333 24 12.6594 24C16.3152 24 20 22.4307 20 18.9321C20 15.7834 18.1188 13.0945 16.7903 11.6551ZM15.4909 1.50937L14.3273 3.76843L11.8642 3.77843L11.0691 2.24906C11.0691 2.24906 11.0691 2.23907 11.0594 2.23907L10.6909 1.50937H15.4909ZM7.63636 8.94627V5.64765H8.26667C8.56727 5.63765 8.84848 5.55768 9.12 5.41774C9.38182 5.2878 9.62424 5.08788 9.83758 4.81799L10.3612 4.05831L10.7879 4.88796C10.9139 5.12786 11.1564 5.2878 11.4279 5.2878L16.2958 5.26781C16.7903 5.26781 17.0327 5.44773 17.0715 5.59767C16.9842 6.08746 16.5382 8.45648 16.1018 9.91587C15.9661 10.3557 15.8982 10.4656 15.8982 10.4756C15.8109 10.5156 15.4424 10.5156 15.2776 10.5156H11.2436C11.0303 10.5156 10.817 10.4756 10.5842 10.4157C10.5552 10.4057 10.5164 10.3857 10.4873 10.3857C9.79879 10.1758 8.98424 9.72595 7.90788 9.1262L7.63636 8.94627ZM12.6594 22.5006C10.0121 22.5006 6.90909 21.571 6.90909 18.9321C6.90909 15.6835 9.48849 12.7547 10.5164 11.915C10.7685 11.965 11.0109 11.995 11.2727 11.995H12.9115H15.0448C15.9079 12.7547 18.5455 15.6135 18.5455 18.9221C18.5455 21.7509 14.8412 22.5006 12.6594 22.5006Z" fill="#1D2127"/>
<path d="M12.1842 12.7547V13.1245C11.0206 13.3844 10.1867 14.2541 10.1867 15.3336C10.1867 16.6231 11.3891 17.6327 12.9115 17.6327C13.6582 17.6327 14.1818 18.0525 14.1818 18.4323C14.1818 18.8122 13.6582 19.232 12.8824 19.232C12.6594 19.232 12.4267 19.192 12.2133 19.092C12 18.9921 11.8255 18.8421 11.6897 18.6522C11.4473 18.3224 10.9915 18.2624 10.6715 18.5123C10.3515 18.7622 10.2933 19.232 10.5358 19.5618C10.817 19.9417 11.1855 20.2516 11.6024 20.4515C11.7867 20.5414 11.9903 20.6114 12.1939 20.6614V21.0012C12.1939 21.4111 12.5236 21.7509 12.9212 21.7509C13.3188 21.7509 13.6485 21.4111 13.6485 21.0012V20.6314C14.8121 20.3715 15.6461 19.5019 15.6461 18.4223C15.6461 17.1329 14.4436 16.1233 12.9212 16.1233C12.1745 16.1233 11.6509 15.7035 11.6509 15.3236C11.6509 14.9438 12.1745 14.5239 12.9503 14.5239C13.183 14.5239 13.4061 14.5639 13.6194 14.6639C13.823 14.7638 14.0073 14.9138 14.143 15.1037C14.3855 15.4336 14.8412 15.4935 15.1612 15.2436C15.4812 14.9938 15.5394 14.5239 15.297 14.1941C15.0158 13.8142 14.6473 13.5044 14.2303 13.3045C14.0461 13.2145 13.8424 13.1545 13.6388 13.1045V12.7447C13.6388 12.3349 13.3091 11.995 12.9115 11.995C12.5042 12.005 12.1842 12.3449 12.1842 12.7547Z" fill="#1D2127"/>
</svg>
