<svg width="24" height="24" viewBox="0 0 24 24" fill="none" xmlns="http://www.w3.org/2000/svg">
<g clip-path="url(#clip0_2861_15345)">
<path d="M16.94 11.65C17.25 11.41 17.48 11.01 17.68 10.35C18.15 8.82999 18.75 5.83999 18.75 5.62999C18.75 4.69999 17.96 3.74999 16.44 3.74999H16.11L17.11 1.87999C17.21 1.68999 17.26 1.47999 17.26 1.26999C17.26 1.05999 17.21 0.84999 17.13 0.68999C17.03 0.48999 16.88 0.30999 16.7 0.18999C16.51 0.0699902 16.29 -9.76585e-06 16.05 -0.0100098H10.21C9.96 0.00999023 9.75 0.0799902 9.57 0.19999C9.38 0.31999 9.23 0.48999 9.15 0.66999C9.05 0.84999 9 1.05999 9 1.26999C9 1.47999 9.05 1.68999 9.15 1.87999L9.52 2.55999L8.57 3.89999C8.51 3.96999 8.44 4.02999 8.36 4.06999C8.28 4.10999 8.19 4.13999 8.12 4.13999H7.47C7.41 3.47999 6.93 2.99999 6.3 2.99999H4.5C4.09 2.99999 3.75 3.33999 3.75 3.74999C3.75 4.15999 4.09 4.49999 4.5 4.49999H6V10.5H4.5C4.09 10.5 3.75 10.84 3.75 11.25C3.75 11.66 4.09 12 4.5 12H6.3C6.98 12 7.5 11.45 7.5 10.71V10.64C7.99 10.91 8.44 11.15 8.86 11.35C7.39 12.79 5.25 15.65 5.25 18.93C5.25 22.67 9.25 24 12.68 24C16.45 24 20.25 22.43 20.25 18.93C20.25 15.78 18.31 13.09 16.94 11.65ZM15.6 1.49999L14.4 3.75999L11.86 3.76999L11.04 2.23999C11.04 2.23999 11.04 2.22999 11.03 2.22999L10.65 1.49999H15.6ZM7.5 8.93999V5.63999H8.15C8.46 5.62999 8.75 5.54999 9.03 5.40999C9.3 5.27999 9.55 5.07999 9.77 4.80999L10.31 4.04999L10.75 4.87999C10.88 5.11999 11.13 5.27999 11.41 5.27999L16.43 5.25999C16.94 5.25999 17.19 5.43999 17.23 5.58999C17.14 6.07999 16.68 8.44999 16.23 9.90999C16.09 10.35 16.02 10.46 16.02 10.47C15.93 10.51 15.55 10.51 15.38 10.51H11.22C11 10.51 10.78 10.47 10.54 10.41C10.51 10.4 10.47 10.38 10.44 10.38C9.73 10.17 8.89 9.71999 7.78 9.11999L7.5 8.93999ZM12.68 22.5C9.95 22.5 6.75 21.57 6.75 18.93C6.75 15.68 9.41 12.75 10.47 11.91C10.73 11.96 10.98 11.99 11.25 11.99H12.94H15.14C16.03 12.75 18.75 15.61 18.75 18.92C18.75 21.75 14.93 22.5 12.68 22.5Z" fill="#171717"/>
<path d="M12.19 12.75V13.12C10.99 13.38 10.13 14.25 10.13 15.33C10.13 16.62 11.37 17.63 12.94 17.63C13.71 17.63 14.25 18.05 14.25 18.43C14.25 18.81 13.71 19.23 12.91 19.23C12.68 19.23 12.44 19.19 12.22 19.09C12 18.99 11.82 18.84 11.68 18.65C11.43 18.32 10.96 18.26 10.63 18.51C10.3 18.76 10.24 19.23 10.49 19.56C10.78 19.94 11.16 20.25 11.59 20.45C11.78 20.54 11.99 20.61 12.2 20.66V21C12.2 21.41 12.54 21.75 12.95 21.75C13.36 21.75 13.7 21.41 13.7 21V20.63C14.9 20.37 15.76 19.5 15.76 18.42C15.76 17.13 14.52 16.12 12.95 16.12C12.18 16.12 11.64 15.7 11.64 15.32C11.64 14.94 12.18 14.52 12.98 14.52C13.22 14.52 13.45 14.56 13.67 14.66C13.88 14.76 14.07 14.91 14.21 15.1C14.46 15.43 14.93 15.49 15.26 15.24C15.59 14.99 15.65 14.52 15.4 14.19C15.11 13.81 14.73 13.5 14.3 13.3C14.11 13.21 13.9 13.15 13.69 13.1V12.74C13.69 12.33 13.35 11.99 12.94 11.99C12.52 12 12.19 12.34 12.19 12.75Z" fill="#171717"/>
</g>
<defs>
<clipPath id="clip0_2861_15345">
<rect width="24" height="24" fill="white"/>
</clipPath>
</defs>
</svg>
