<svg width="24" height="24" viewBox="0 0 24 24" fill="none" xmlns="http://www.w3.org/2000/svg">
<path fill-rule="evenodd" clip-rule="evenodd" d="M11.5443 6.07173C10.0868 6.52377 8.55144 7 7.00001 7C5.9728 7 5.05445 6.89085 4.27915 6.74188C3.75131 6.64047 3.39967 6.57333 3.14638 6.53985C3.09648 6.53325 3.05516 6.52865 3.02121 6.52551C3.01903 6.54751 3.01685 6.5734 3.01484 6.60359C3.00054 6.81883 3.00001 7.11984 3.00001 7.58885L3.00001 18.3373C3.00001 18.3744 3.00004 18.3983 3.00031 18.4168C3.00252 18.4203 3.00482 18.4239 3.00717 18.4275C3.00951 18.4311 3.01184 18.4346 3.01413 18.4381C3.5354 18.6589 4.71281 19 7.00001 19C8.83704 19 10.4616 18.5425 12.0809 18.0442C12.2053 18.006 12.3302 17.9672 12.4557 17.9283C13.9132 17.4762 15.4486 17 17 17C18.0272 17 18.9456 17.1091 19.7209 17.2581C20.2487 17.3595 20.6003 17.4267 20.8536 17.4602C20.9035 17.4667 20.9449 17.4713 20.9788 17.4745C20.981 17.4525 20.9832 17.4266 20.9852 17.3964C20.9995 17.1812 21 16.8802 21 16.4111V5.66274C21 5.62557 21 5.60174 20.9997 5.58315C20.9975 5.57965 20.9952 5.57608 20.9928 5.57247C20.9905 5.56888 20.9882 5.56536 20.9859 5.56194C20.4646 5.34105 19.2872 5 17 5C15.163 5 13.5384 5.45754 11.9191 5.95578C11.7948 5.99404 11.6698 6.03279 11.5443 6.07173ZM21.0972 17.4803C21.0995 17.4801 21.1007 17.48 21.101 17.48L21.0972 17.4803ZM2.9028 6.5197C2.90033 6.51993 2.89903 6.51999 2.89899 6.51996L2.9028 6.5197ZM11.3309 4.04422C12.9616 3.54246 14.837 3 17 3C19.5455 3 21.016 3.38891 21.8357 3.7505C21.8381 3.75155 21.8407 3.7527 21.8436 3.75396C21.8869 3.77295 21.9863 3.81648 22.0953 3.88804C22.2065 3.961 22.2994 4.04322 22.3808 4.12094C22.5068 4.24114 22.6121 4.39405 22.6683 4.4803C22.7245 4.56656 22.8219 4.72464 22.8811 4.88838C23.0001 5.21806 23.0001 5.45216 23 5.6493L23 16.445C23 16.8704 23 17.2391 22.9808 17.529C22.9628 17.7996 22.9222 18.178 22.7274 18.5118C22.6214 18.6936 22.4831 18.8856 22.2801 19.0533C22.0771 19.221 21.8624 19.3206 21.6639 19.3905C21.2852 19.5238 20.871 19.4798 20.5915 19.4429C20.273 19.4008 19.8631 19.322 19.375 19.2282L19.3435 19.2222C18.6772 19.0942 17.8858 19 17 19C15.7654 19 14.5142 19.3863 12.9736 19.8619C12.8734 19.8928 12.7719 19.9241 12.6691 19.9558C11.0384 20.4575 9.16298 21 7.00001 21C4.45447 21 2.98405 20.6111 2.1643 20.2495C2.16193 20.2485 2.1593 20.2473 2.15643 20.246C2.11309 20.227 2.01375 20.1835 1.90469 20.112C1.7935 20.039 1.70064 19.9568 1.61921 19.8791C1.49326 19.7589 1.38794 19.606 1.33171 19.5197C1.27548 19.4334 1.17809 19.2754 1.11895 19.1116C0.999866 18.7819 0.99994 18.5478 1 18.3507L1.00001 7.55506C0.999992 7.12959 0.99998 6.76088 1.01924 6.471C1.03722 6.2004 1.07777 5.82202 1.27256 5.48818C1.37861 5.30643 1.51696 5.11439 1.71995 4.94669C1.92293 4.77899 2.13763 4.67936 2.33612 4.60951C2.71485 4.47624 3.129 4.52015 3.40848 4.55709C3.72704 4.5992 4.13696 4.67797 4.62506 4.77177L4.65652 4.77781C5.3228 4.90583 6.11417 5 7.00001 5C8.23458 5 9.48584 4.61372 11.0264 4.13813C11.1266 4.10718 11.2281 4.07585 11.3309 4.04422ZM18 8C18.5523 8 19 8.44771 19 9V13C19 13.5523 18.5523 14 18 14C17.4477 14 17 13.5523 17 13V9C17 8.44771 17.4477 8 18 8ZM12 10.5C11.1716 10.5 10.5 11.1716 10.5 12C10.5 12.8284 11.1716 13.5 12 13.5C12.8284 13.5 13.5 12.8284 13.5 12C13.5 11.1716 12.8284 10.5 12 10.5ZM8.50001 12C8.50001 10.067 10.067 8.5 12 8.5C13.933 8.5 15.5 10.067 15.5 12C15.5 13.933 13.933 15.5 12 15.5C10.067 15.5 8.50001 13.933 8.50001 12ZM6.00001 10C6.55229 10 7.00001 10.4477 7.00001 11V15C7.00001 15.5523 6.55229 16 6.00001 16C5.44772 16 5.00001 15.5523 5.00001 15V11C5.00001 10.4477 5.44772 10 6.00001 10Z" fill="#0A0B0D"/>
</svg>
