<svg width="24" height="24" viewBox="0 0 24 24" fill="none" xmlns="http://www.w3.org/2000/svg">
<path d="M21.75 3.75C21.75 1.68 20.07 0 18 0C15.93 0 14.25 1.68 14.25 3.75C14.25 5.82 15.93 7.5 18 7.5C20.07 7.5 21.75 5.82 21.75 3.75ZM18 6C16.76 6 15.75 4.99 15.75 3.75C15.75 2.51 16.76 1.5 18 1.5C19.24 1.5 20.25 2.51 20.25 3.75C20.25 4.99 19.24 6 18 6Z" fill="#171717"/>
<path d="M22.24 9.26C21.13 8.14 19.58 7.5 18 7.5C16.4 7.5 14.89 8.12 13.76 9.26C12.62 10.39 12 11.9 12 13.5V15.75C12 16.16 12.34 16.5 12.75 16.5H14.32L15 23.32C15.04 23.7 15.36 24 15.75 24H20.25C20.64 24 20.96 23.71 21 23.32L21.68 16.5H23.25C23.66 16.5 24 16.16 24 15.75V13.5C24 11.9 23.38 10.39 22.24 9.26ZM22.5 15H21C20.61 15 20.29 15.29 20.25 15.68L19.57 22.5H16.43L15.75 15.68C15.71 15.29 15.39 15 15 15H13.5V13.5C13.5 12.3 13.97 11.17 14.82 10.32C15.49 9.65 16.34 9.23 17.25 9.08V12.76C17.25 13.17 17.59 13.51 18 13.51C18.41 13.51 18.75 13.18 18.75 12.76V9.08C19.66 9.24 20.52 9.66 21.18 10.32C22.02 11.16 22.5 12.32 22.5 13.5V15Z" fill="#171717"/>
<path d="M12.33 6.53C11.65 6.02 10.94 5.54 10.21 5.09L11.6 2.7C11.72 2.5 11.78 2.28 11.78 2.05C11.78 1.82 11.72 1.59 11.6 1.39C11.48 1.2 11.32 1.03 11.12 0.92C10.92 0.81 10.73 0.76 10.47 0.75H4.54C4.29 0.73 4.08 0.81 3.88 0.92C3.69 1.03 3.52 1.19 3.4 1.39C3.28 1.59 3.22 1.81 3.22 2.04C3.22 2.27 3.28 2.51 3.4 2.7L4.78 5.06C3.2 5.9 0 7.76 0 11.95C0 15.76 3.25 18.75 7.41 18.75C8.29 18.75 9.16 18.61 9.99 18.34C10.38 18.21 10.6 17.79 10.47 17.39C10.34 17 9.92 16.78 9.52 16.91C8.84 17.13 8.13 17.25 7.41 17.25C4.1 17.25 1.5 14.92 1.5 11.95C1.5 8.49 4.32 7 5.67 6.29C5.9 6.17 6.09 6.07 6.22 5.99C6.56 5.77 6.67 5.33 6.46 4.98L4.87 2.25L10.14 2.23L8.54 4.97C8.44 5.14 8.41 5.35 8.46 5.54C8.51 5.73 8.64 5.9 8.81 6C9.71 6.52 10.59 7.1 11.43 7.73C11.76 7.98 12.23 7.91 12.48 7.58C12.73 7.25 12.66 6.78 12.33 6.53Z" fill="#171717"/>
<path d="M7.5 16.5C7.91 16.5 8.25 16.16 8.25 15.75V15.37C9.46 15.1 10.31 14.25 10.31 13.17C10.31 11.88 9.07 10.87 7.5 10.87C6.73 10.87 6.19 10.45 6.19 10.07C6.19 9.69 6.73 9.27 7.53 9.27C7.77 9.27 8 9.32 8.22 9.42C8.43 9.52 8.62 9.67 8.76 9.86C9.01 10.19 9.48 10.25 9.81 10C10.14 9.75 10.2 9.28 9.95 8.95C9.66 8.57 9.28 8.27 8.85 8.06C8.66 7.97 8.45 7.91 8.25 7.86V7.5C8.25 7.09 7.91 6.75 7.5 6.75C7.09 6.75 6.75 7.09 6.75 7.5V7.87C5.55 8.13 4.69 9 4.69 10.08C4.69 11.37 5.93 12.38 7.5 12.38C8.27 12.38 8.81 12.8 8.81 13.18C8.81 13.56 8.27 13.98 7.47 13.98C7.23 13.98 6.99 13.94 6.78 13.84C6.57 13.74 6.38 13.59 6.24 13.4C5.99 13.06 5.52 13 5.19 13.25C4.86 13.5 4.8 13.97 5.05 14.3C5.34 14.68 5.72 14.99 6.15 15.19C6.34 15.28 6.55 15.35 6.76 15.4V15.75C6.75 16.16 7.09 16.5 7.5 16.5Z" fill="#171717"/>
</svg>
