<svg width="24" height="24" viewBox="0 0 24 24" fill="none" xmlns="http://www.w3.org/2000/svg">
<path fill-rule="evenodd" clip-rule="evenodd" d="M11.8624 1.99996C11.9076 1.99998 11.9535 2 12 2C12.0465 2 12.0924 1.99998 12.1376 1.99996C12.933 1.99952 13.5236 1.99921 14.0353 2.1363C15.4156 2.50617 16.4938 3.58436 16.8637 4.96473C16.9461 5.2722 16.9789 5.60819 16.9918 6L17.2413 6C18.0463 5.99999 18.7106 5.99998 19.2518 6.0442C19.8139 6.09012 20.3306 6.18869 20.816 6.43598C21.5686 6.81947 22.1805 7.43139 22.564 8.18404C22.8113 8.66938 22.9099 9.18608 22.9558 9.74818C23 10.2894 23 10.9537 23 11.7587V16.2413C23 17.0463 23 17.7106 22.9558 18.2518C22.9099 18.8139 22.8113 19.3306 22.564 19.816C22.1805 20.5686 21.5686 21.1805 20.816 21.564C20.3306 21.8113 19.8139 21.9099 19.2518 21.9558C18.7106 22 18.0463 22 17.2413 22H6.75868C5.95372 22 5.28936 22 4.74817 21.9558C4.18608 21.9099 3.66937 21.8113 3.18404 21.564C2.43139 21.1805 1.81947 20.5686 1.43597 19.816C1.18868 19.3306 1.09012 18.8139 1.04419 18.2518C0.999977 17.7106 0.999988 17.0463 1 16.2413V11.7587C0.999988 10.9537 0.999977 10.2894 1.04419 9.74818C1.09012 9.18608 1.18868 8.66938 1.43597 8.18404C1.81947 7.43139 2.43139 6.81947 3.18404 6.43598C3.66937 6.18869 4.18608 6.09012 4.74817 6.0442C5.28937 5.99998 5.95373 5.99999 6.7587 6L7.00822 6C7.02115 5.60819 7.05391 5.2722 7.1363 4.96473C7.50617 3.58436 8.58436 2.50617 9.96472 2.1363C10.4764 1.99921 11.067 1.99952 11.8624 1.99996ZM7 8H6.8C5.94342 8 5.36113 8.00078 4.91104 8.03756C4.47262 8.07338 4.24842 8.1383 4.09202 8.21799C3.7157 8.40974 3.40973 8.7157 3.21799 9.09202C3.1383 9.24842 3.07337 9.47263 3.03755 9.91104C3.00078 10.3611 3 10.9434 3 11.8V16.2C3 17.0566 3.00078 17.6389 3.03755 18.089C3.07337 18.5274 3.1383 18.7516 3.21799 18.908C3.40973 19.2843 3.7157 19.5903 4.09202 19.782C4.24842 19.8617 4.47262 19.9266 4.91104 19.9625C5.36113 19.9992 5.94342 20 6.8 20H7V8ZM9 20V8H15V12.5H12.8C12.7924 12.5 12.7847 12.5 12.7769 12.5C12.6578 12.5 12.5155 12.4999 12.3902 12.5101C12.245 12.522 12.037 12.5524 11.819 12.6635C11.5368 12.8073 11.3073 13.0368 11.1635 13.319C11.0524 13.537 11.022 13.745 11.0101 13.8902C10.9999 14.0155 10.9999 14.1578 11 14.2769C11 14.2847 11 14.2924 11 14.3V16.7C11 16.7076 11 16.7153 11 16.7231C10.9999 16.8423 10.9999 16.9845 11.0101 17.1098C11.022 17.2551 11.0524 17.463 11.1635 17.681C11.3073 17.9632 11.5368 18.1927 11.819 18.3365C12.037 18.4476 12.245 18.478 12.3902 18.4899C12.5155 18.5001 12.6578 18.5001 12.7769 18.5C12.7847 18.5 12.7924 18.5 12.8 18.5H15V20H9ZM17 20H17.2C18.0566 20 18.6389 19.9992 19.089 19.9625C19.5274 19.9266 19.7516 19.8617 19.908 19.782C20.2843 19.5903 20.5903 19.2843 20.782 18.908C20.8617 18.7516 20.9266 18.5274 20.9624 18.089C20.9992 17.6389 21 17.0566 21 16.2V11.8C21 10.9434 20.9992 10.3611 20.9624 9.91104C20.9266 9.47263 20.8617 9.24842 20.782 9.09202C20.5903 8.7157 20.2843 8.40974 19.908 8.21799C19.7516 8.1383 19.5274 8.07338 19.089 8.03756C18.6389 8.00078 18.0566 8 17.2 8H17V12.5H17.7C17.7076 12.5 17.7153 12.5 17.7231 12.5C17.8422 12.5 17.9845 12.4999 18.1098 12.5101C18.255 12.522 18.463 12.5524 18.681 12.6635C18.9632 12.8073 19.1927 13.0368 19.3365 13.319C19.4476 13.537 19.478 13.745 19.4899 13.8902C19.5001 14.0155 19.5001 14.1577 19.5 14.2769C19.5 14.2847 19.5 14.2924 19.5 14.3V16.7C19.5 16.7076 19.5 16.7153 19.5 16.7232C19.5001 16.8423 19.5001 16.9845 19.4899 17.1098C19.478 17.2551 19.4476 17.463 19.3365 17.681C19.1927 17.9632 18.9632 18.1927 18.681 18.3365C18.463 18.4476 18.255 18.478 18.1098 18.4899C17.9845 18.5001 17.8422 18.5001 17.7231 18.5C17.7153 18.5 17.7076 18.5 17.7 18.5H17V20ZM17.5 16.5V14.5H13V16.5H17.5ZM14.9901 6H9.00986C9.01905 5.74243 9.03632 5.60116 9.06815 5.48237C9.25308 4.79218 9.79218 4.25309 10.4824 4.06815C10.7046 4.00859 11.0056 4.00001 12 4.00001C12.9944 4.00001 13.2954 4.00859 13.5176 4.06815C14.2078 4.25309 14.7469 4.79218 14.9319 5.48237C14.9637 5.60116 14.981 5.74243 14.9901 6Z" fill="#0A0B0D"/>
</svg>
