<svg width="24" height="24" viewBox="0 0 24 24" fill="none" xmlns="http://www.w3.org/2000/svg">
<path d="M21.9164 22.86C21.8974 22.82 21.8783 22.79 21.8592 22.76C20.5149 20.75 19.3041 18.66 18.2458 16.5H19.1611C19.552 16.5 19.8761 16.16 19.8761 15.75C19.8761 15.34 19.5615 15 19.1611 15H17.5498C16.8824 13.53 16.2818 12.03 15.7479 10.5H16.3009C16.6918 10.5 17.0159 10.16 17.0159 9.75C17.0159 9.34 16.7013 9 16.3009 9H15.2426C14.8421 7.73 14.4703 6.45 14.1557 5.15V3.75C14.1557 3.15 13.9364 2.58 13.5264 2.16C13.2976 1.92 13.0211 1.76 12.7256 1.65V0.75C12.7256 0.34 12.4014 0 12.0105 0C11.6196 0 11.2954 0.34 11.2954 0.75V1.65C10.9999 1.75 10.7234 1.92 10.4946 2.16C10.0942 2.58 9.86533 3.16 9.86533 3.75V5.15C9.55071 6.45 9.17888 7.73 8.77845 9H7.72016C7.32926 9 7.0051 9.34 7.0051 9.75C7.0051 10.16 7.32926 10.5 7.72016 10.5H8.27314C7.73923 12.03 7.13858 13.53 6.47119 15H4.85993C4.46903 15 4.14487 15.34 4.14487 15.75C4.14487 16.16 4.46903 16.5 4.85993 16.5H5.7752C4.71692 18.66 3.50609 20.75 2.16178 22.76C2.14271 22.79 2.09504 22.88 2.07597 22.92C1.96156 23.15 1.98063 23.43 2.10457 23.65C2.23805 23.87 2.46687 24 2.71476 24H7.0051C7.396 24 7.72016 23.66 7.72016 23.25C7.72016 21.18 9.64605 19.5 12.0105 19.5C14.375 19.5 16.3009 21.18 16.3009 23.25C16.3009 23.66 16.625 24 17.0159 24H21.3063C21.5541 24 21.7734 23.84 21.8974 23.62C22.0308 23.4 22.0308 23.09 21.9164 22.86ZM11.2954 3.75C11.2954 3.55 11.3717 3.36 11.5052 3.22C11.7722 2.94 12.2489 2.94 12.5158 3.22C12.6493 3.36 12.7256 3.55 12.7256 3.75V4.5H11.2954V3.75ZM11.1238 6H12.8972C13.1546 7.01 13.4311 8.01 13.7362 9H10.2848C10.5899 8.01 10.8759 7.01 11.1238 6ZM9.79859 10.5H14.2224C14.7468 12.03 15.3284 13.53 15.9672 15H8.05385C8.70217 13.53 9.28375 12.03 9.79859 10.5ZM17.6738 22.5C17.2733 19.96 14.8898 18 12.0105 18C9.13121 18 6.74768 19.96 6.34725 22.5H4.05906C5.28896 20.57 6.39492 18.56 7.37693 16.5H16.6441C17.6261 18.57 18.732 20.57 19.9619 22.5H17.6738Z" fill="#1D2127"/>
</svg>
