<svg width="24" height="24" viewBox="0 0 24 24" fill="none" xmlns="http://www.w3.org/2000/svg">
<path d="M22.4001 22.86C22.3801 22.82 22.3601 22.79 22.3401 22.76C20.9301 20.75 19.6601 18.66 18.5501 16.5H19.5101C19.9201 16.5 20.2601 16.16 20.2601 15.75C20.2601 15.34 19.9301 15 19.5101 15H17.8201C17.1201 13.53 16.4901 12.03 15.9301 10.5H16.5101C16.9201 10.5 17.2601 10.16 17.2601 9.75C17.2601 9.34 16.9301 9 16.5101 9H15.4001C14.9801 7.73 14.5901 6.45 14.2601 5.15V3.75C14.2601 3.15 14.0301 2.58 13.6001 2.16C13.3601 1.92 13.0701 1.76 12.7601 1.65V0.75C12.7601 0.34 12.4201 0 12.0101 0C11.6001 0 11.2601 0.34 11.2601 0.75V1.65C10.9501 1.75 10.6601 1.92 10.4201 2.16C10.0001 2.58 9.76006 3.16 9.76006 3.75V5.15C9.43006 6.45 9.04006 7.73 8.62006 9H7.51006C7.10006 9 6.76006 9.34 6.76006 9.75C6.76006 10.16 7.10006 10.5 7.51006 10.5H8.09006C7.53006 12.03 6.90006 13.53 6.20006 15H4.51006C4.10006 15 3.76006 15.34 3.76006 15.75C3.76006 16.16 4.10006 16.5 4.51006 16.5H5.47006C4.36006 18.66 3.09006 20.75 1.68006 22.76C1.66006 22.79 1.61006 22.88 1.59006 22.92C1.47006 23.15 1.49006 23.43 1.62006 23.65C1.76006 23.87 2.00006 24 2.26006 24H6.76006C7.17006 24 7.51006 23.66 7.51006 23.25C7.51006 21.18 9.53006 19.5 12.0101 19.5C14.4901 19.5 16.5101 21.18 16.5101 23.25C16.5101 23.66 16.8501 24 17.2601 24H21.7601C22.0201 24 22.2501 23.84 22.3801 23.62C22.5201 23.4 22.5201 23.09 22.4001 22.86ZM11.2601 3.75C11.2601 3.55 11.3401 3.36 11.4801 3.22C11.7601 2.94 12.2601 2.94 12.5401 3.22C12.6801 3.36 12.7601 3.55 12.7601 3.75V4.5H11.2601V3.75ZM11.0801 6H12.9401C13.2101 7.01 13.5001 8.01 13.8201 9H10.2001C10.5201 8.01 10.8201 7.01 11.0801 6ZM9.69006 10.5H14.3301C14.8801 12.03 15.4901 13.53 16.1601 15H7.86006C8.54006 13.53 9.15006 12.03 9.69006 10.5ZM17.9501 22.5C17.5301 19.96 15.0301 18 12.0101 18C8.99006 18 6.49006 19.96 6.07006 22.5H3.67006C4.96006 20.57 6.12006 18.56 7.15006 16.5H16.8701C17.9001 18.57 19.0601 20.57 20.3501 22.5H17.9501Z" fill="#171717"/>
</svg>
