<svg width="24" height="24" viewBox="0 0 24 24" fill="none" xmlns="http://www.w3.org/2000/svg">
<path d="M21.75 3H2.25C1.01 3 0 4.01 0 5.25V18.75C0 19.99 1.01 21 2.25 21H21.75C22.99 21 24 19.99 24 18.75V5.25C24 4.01 22.99 3 21.75 3ZM2.25 4.5H21.75C22.16 4.5 22.5 4.84 22.5 5.25V7.5H1.5V5.25C1.5 4.84 1.84 4.5 2.25 4.5ZM21.75 19.5H2.25C1.84 19.5 1.5 19.16 1.5 18.75V9H22.5V18.75C22.5 19.16 22.16 19.5 21.75 19.5Z" fill="#1D2127"/>
<path d="M13.5 12H5.25C4.84 12 4.5 12.34 4.5 12.75C4.5 13.16 4.84 13.5 5.25 13.5H13.5C13.91 13.5 14.25 13.16 14.25 12.75C14.25 12.34 13.91 12 13.5 12Z" fill="#1D2127"/>
<path d="M10.5 15H5.25C4.84 15 4.5 15.34 4.5 15.75C4.5 16.16 4.84 16.5 5.25 16.5H10.5C10.91 16.5 11.25 16.16 11.25 15.75C11.25 15.34 10.91 15 10.5 15Z" fill="#1D2127"/>
</svg>
