<svg width="24" height="24" viewBox="0 0 24 24" fill="none" xmlns="http://www.w3.org/2000/svg">
<path opacity="0.2" d="M20 3.5L3.5 20L20 20.5V3.5Z" fill="#0A0B0D"/>
<path fill-rule="evenodd" clip-rule="evenodd" d="M7.7587 2H16.2413C17.0463 1.99999 17.7106 1.99998 18.2518 2.04419C18.8139 2.09012 19.3306 2.18868 19.816 2.43597C20.5686 2.81947 21.1805 3.43139 21.564 4.18404C21.8113 4.66937 21.9099 5.18608 21.9558 5.74817C22 6.28936 22 6.95372 22 7.75868V16.2413C22 17.0463 22 17.7106 21.9558 18.2518C21.9099 18.8139 21.8113 19.3306 21.564 19.816C21.1805 20.5686 20.5686 21.1805 19.816 21.564C19.3306 21.8113 18.8139 21.9099 18.2518 21.9558C17.7106 22 17.0463 22 16.2413 22H7.75868C6.95372 22 6.28936 22 5.74817 21.9558C5.18608 21.9099 4.66937 21.8113 4.18404 21.564C3.43139 21.1805 2.81947 20.5686 2.43597 19.816C2.18868 19.3306 2.09012 18.8139 2.04419 18.2518C1.99998 17.7106 1.99999 17.0463 2 16.2413V7.7587C1.99999 6.95373 1.99998 6.28937 2.04419 5.74817C2.09012 5.18608 2.18868 4.66937 2.43597 4.18404C2.81947 3.43139 3.43139 2.81947 4.18404 2.43597C4.66937 2.18868 5.18608 2.09012 5.74817 2.04419C6.28937 1.99998 6.95373 1.99999 7.7587 2ZM5.91104 4.03755C5.47262 4.07337 5.24842 4.1383 5.09202 4.21799C4.7157 4.40973 4.40973 4.7157 4.21799 5.09202C4.1383 5.24842 4.07337 5.47262 4.03755 5.91104C4.00078 6.36113 4 6.94342 4 7.8V16.2C4 17.0566 4.00078 17.6389 4.03755 18.089C4.07337 18.5274 4.1383 18.7516 4.21799 18.908C4.40973 19.2843 4.7157 19.5903 5.09202 19.782C5.24842 19.8617 5.47262 19.9266 5.91104 19.9624C6.36113 19.9992 6.94342 20 7.8 20H16.2C17.0566 20 17.6389 19.9992 18.089 19.9624C18.5274 19.9266 18.7516 19.8617 18.908 19.782C19.2843 19.5903 19.5903 19.2843 19.782 18.908C19.8617 18.7516 19.9266 18.5274 19.9624 18.089C19.9992 17.6389 20 17.0566 20 16.2V7.8C20 6.94342 19.9992 6.36113 19.9624 5.91104C19.9266 5.47262 19.8617 5.24842 19.782 5.09202C19.5903 4.7157 19.2843 4.40973 18.908 4.21799C18.7516 4.1383 18.5274 4.07337 18.089 4.03755C17.6389 4.00078 17.0566 4 16.2 4H7.8C6.94342 4 6.36113 4.00078 5.91104 4.03755ZM8.5 5.5C9.05229 5.5 9.5 5.94772 9.5 6.5V7.5H10.5C11.0523 7.5 11.5 7.94772 11.5 8.5C11.5 9.05229 11.0523 9.5 10.5 9.5H9.5V10.5C9.5 11.0523 9.05229 11.5 8.5 11.5C7.94772 11.5 7.5 11.0523 7.5 10.5V9.5H6.5C5.94772 9.5 5.5 9.05229 5.5 8.5C5.5 7.94772 5.94772 7.5 6.5 7.5H7.5V6.5C7.5 5.94772 7.94772 5.5 8.5 5.5ZM16.7929 5.79289C17.1834 5.40237 17.8166 5.40237 18.2071 5.79289C18.5976 6.18342 18.5976 6.81658 18.2071 7.20711L7.20711 18.2071C6.81658 18.5976 6.18342 18.5976 5.79289 18.2071C5.40237 17.8166 5.40237 17.1834 5.79289 16.7929L16.7929 5.79289ZM12.5 15.5C12.5 14.9477 12.9477 14.5 13.5 14.5H17.5C18.0523 14.5 18.5 14.9477 18.5 15.5C18.5 16.0523 18.0523 16.5 17.5 16.5H13.5C12.9477 16.5 12.5 16.0523 12.5 15.5Z" fill="#0A0B0D"/>
</svg>
