<svg width="24" height="24" viewBox="0 0 24 24" fill="none" xmlns="http://www.w3.org/2000/svg">
<path opacity="0.2" fill-rule="evenodd" clip-rule="evenodd" d="M6.23179 22.1192C4.58244 21.9989 3.28889 20.6703 3.19378 19.0193C3.01207 15.8652 2.95129 12.7902 3.01147 9.68909H20.9886C21.0488 12.7902 20.9881 15.8652 20.8064 19.0193C20.7112 20.6703 19.4176 21.9989 17.7683 22.1192C13.8415 22.4059 10.1586 22.4059 6.23179 22.1192Z" fill="#101C2D"/>
<path fill-rule="evenodd" clip-rule="evenodd" d="M13.3955 5.67742C13.3955 5.20404 13.7792 4.82028 14.2526 4.82028H16.607C17.0804 4.82028 17.4642 5.20404 17.4642 5.67742C17.4642 6.15081 17.0804 6.53457 16.607 6.53457H14.2526C13.7792 6.53457 13.3955 6.15081 13.3955 5.67742Z" fill="#101C2D"/>
<path fill-rule="evenodd" clip-rule="evenodd" d="M6.52159 14.0284C6.52159 13.555 6.90534 13.1713 7.37873 13.1713H7.86151C8.33489 13.1713 8.71865 13.555 8.71865 14.0284C8.71865 14.5018 8.33489 14.8855 7.86151 14.8855H7.37873C6.90534 14.8855 6.52159 14.5018 6.52159 14.0284ZM10.9015 14.0284C10.9015 13.555 11.2852 13.1713 11.7586 13.1713H12.2414C12.7148 13.1713 13.0985 13.555 13.0985 14.0284C13.0985 14.5018 12.7148 14.8855 12.2414 14.8855H11.7586C11.2852 14.8855 10.9015 14.5018 10.9015 14.0284ZM15.3487 14.0284C15.3487 13.555 15.7325 13.1713 16.2059 13.1713H16.6887C17.162 13.1713 17.5458 13.555 17.5458 14.0284C17.5458 14.5018 17.162 14.8855 16.6887 14.8855H16.2059C15.7325 14.8855 15.3487 14.5018 15.3487 14.0284ZM6.52159 17.8855C6.52159 17.4121 6.90534 17.0283 7.37873 17.0283H7.86151C8.33489 17.0283 8.71865 17.4121 8.71865 17.8855C8.71865 18.3589 8.33489 18.7426 7.86151 18.7426H7.37873C6.90534 18.7426 6.52159 18.3589 6.52159 17.8855ZM10.9015 17.8855C10.9015 17.4121 11.2852 17.0283 11.7586 17.0283H12.2414C12.7148 17.0283 13.0985 17.4121 13.0985 17.8855C13.0985 18.3589 12.7148 18.7426 12.2414 18.7426H11.7586C11.2852 18.7426 10.9015 18.3589 10.9015 17.8855ZM15.3487 17.8855C15.3487 17.4121 15.7325 17.0283 16.2059 17.0283H16.6887C17.162 17.0283 17.5458 17.4121 17.5458 17.8855C17.5458 18.3589 17.162 18.7426 16.6887 18.7426H16.2059C15.7325 18.7426 15.3487 18.3589 15.3487 17.8855Z" fill="#101C2D"/>
<path fill-rule="evenodd" clip-rule="evenodd" d="M6.16961 1.02579C10.138 0.736194 13.8626 0.736196 17.8309 1.02579C19.9146 1.17787 21.5427 2.85606 21.6623 4.93141C21.9373 9.70326 21.9373 14.2968 21.6623 19.0686C21.5427 21.144 19.9146 22.8223 17.8309 22.9743C13.8625 23.264 10.138 23.264 6.16959 22.9743C4.08584 22.8223 2.45781 21.144 2.33826 19.0686C2.06335 14.2968 2.06335 9.70327 2.33826 4.93143M17.7061 2.73553C13.8209 2.452 10.1797 2.452 6.29438 2.73553C5.0794 2.8242 4.12037 3.80339 4.04971 5.03002C3.77858 9.73619 3.77858 14.2639 4.04971 18.97C4.12037 20.1967 5.07943 21.1759 6.29437 21.2646C10.1797 21.5482 13.8209 21.5482 17.7061 21.2646C18.921 21.1759 19.8801 20.1967 19.9508 18.97C20.222 14.2639 20.222 9.73619 19.9508 5.03004C19.8801 3.8034 18.9211 2.8242 17.7061 2.73553ZM6.16961 1.02579C4.08589 1.17787 2.45782 2.85607 2.33826 4.93143L6.16961 1.02579Z" fill="#101C2D"/>
</svg>
