<svg width="24" height="24" viewBox="0 0 24 24" fill="none" xmlns="http://www.w3.org/2000/svg">
<g clip-path="url(#clip0_2850_15075)">
<path d="M21.75 3H18V0.75C18 0.34 17.66 0 17.25 0C16.84 0 16.5 0.34 16.5 0.75V3H7.5V0.75C7.5 0.34 7.16 0 6.75 0C6.34 0 6 0.34 6 0.75V3H2.25C1.01 3 0 4.01 0 5.25V21.75C0 22.99 1.01 24 2.25 24H21.75C22.99 24 24 22.99 24 21.75V5.25C24 4.01 22.99 3 21.75 3ZM2.25 4.5H6V6C6 6.41 6.34 6.75 6.75 6.75C7.16 6.75 7.5 6.41 7.5 6V4.5H16.5V6C16.5 6.41 16.84 6.75 17.25 6.75C17.66 6.75 18 6.41 18 6V4.5H21.75C22.16 4.5 22.5 4.84 22.5 5.25V9H1.5V5.25C1.5 4.84 1.84 4.5 2.25 4.5ZM21.75 22.5H2.25C1.84 22.5 1.5 22.16 1.5 21.75V10.5H22.5V21.75C22.5 22.16 22.16 22.5 21.75 22.5Z" fill="#171717"/>
</g>
<defs>
<clipPath id="clip0_2850_15075">
<rect width="24" height="24" fill="white"/>
</clipPath>
</defs>
</svg>
