<svg width="24" height="24" viewBox="0 0 24 24" fill="none" xmlns="http://www.w3.org/2000/svg">
<path d="M23.2 9.87022C22.74 9.42389 22.14 9.17162 21.5 9.1134L20 5.88235C19.78 5.32929 19.4 4.85385 18.9 4.51425C18.4 4.17465 17.81 4 17.19 4H6.81C6.2 4 5.61 4.17465 5.1 4.51425C4.59 4.85385 4.21 5.31959 4.02 5.83384L2.5 9.1037C1.86 9.16192 1.26 9.41419 0.8 9.86052C0.29 10.3748 0 11.0443 0 11.7526V15.3911C0 15.8472 0.18 16.2741 0.51 16.5943C0.58 16.6622 0.66 16.7301 0.75 16.7884V17.8169C0.75 18.3893 0.99 18.9521 1.41 19.3596C1.83 19.7768 2.4 20 3 20C3.6 20 4.17 19.7768 4.59 19.3596C5.01 18.9521 5.25 18.3893 5.25 17.8169V17.0891H18.75V17.8169C18.75 18.3893 18.99 18.9521 19.41 19.3596C19.83 19.7671 20.41 20 21 20C21.6 20 22.17 19.7768 22.59 19.3596C23.01 18.9424 23.25 18.399 23.25 17.8169V16.7787C23.33 16.7204 23.42 16.6622 23.49 16.5943C23.82 16.2741 24 15.8472 24 15.3911V11.7526C24 11.0443 23.71 10.3651 23.2 9.87022ZM5.4 6.3869C5.51 6.10552 5.7 5.87265 5.95 5.698C6.2 5.53305 6.5 5.44572 6.81 5.44572H17.19C17.5 5.44572 17.79 5.53305 18.04 5.7077C18.29 5.88235 18.48 6.11522 18.61 6.43542L19.84 9.08429H4.16L5.4 6.3869ZM1.5 11.7526C1.5 11.4324 1.63 11.1219 1.87 10.8987C2.11 10.6756 2.42 10.5397 2.75 10.5397H21.25C21.58 10.5397 21.9 10.6659 22.13 10.8987C22.37 11.1316 22.5 11.4324 22.5 11.7526V15.3911C22.5 15.4591 22.47 15.5173 22.43 15.5658C22.39 15.6143 22.32 15.6337 22.25 15.6337H1.75C1.68 15.6337 1.62 15.6046 1.57 15.5658C1.53 15.5173 1.5 15.4591 1.5 15.3911V11.7526ZM3.75 17.8169C3.75 18.0109 3.67 18.1953 3.53 18.3311C3.25 18.6028 2.75 18.6028 2.47 18.3311C2.33 18.1953 2.25 18.0109 2.25 17.8169V17.0891H3.75V17.8169ZM21.53 18.3311C21.25 18.6028 20.75 18.6028 20.47 18.3311C20.33 18.1953 20.25 18.0109 20.25 17.8169V17.0891H21.75V17.8169C21.75 18.0109 21.67 18.1953 21.53 18.3311Z" fill="#171717"/>
<path d="M4.13 14.1686C4.74856 14.1686 5.25 13.682 5.25 13.0819C5.25 12.4817 4.74856 11.9951 4.13 11.9951C3.51144 11.9951 3.01 12.4817 3.01 13.0819C3.01 13.682 3.51144 14.1686 4.13 14.1686Z" fill="#171717"/>
<path d="M19.87 14.1686C20.4886 14.1686 20.99 13.682 20.99 13.0819C20.99 12.4817 20.4886 11.9951 19.87 11.9951C19.2514 11.9951 18.75 12.4817 18.75 13.0819C18.75 13.682 19.2514 14.1686 19.87 14.1686Z" fill="#171717"/>
</svg>
