<svg width="24" height="24" viewBox="0 0 24 24" fill="none" xmlns="http://www.w3.org/2000/svg">
<path fill-rule="evenodd" clip-rule="evenodd" d="M8.16146 2H15.8385C16.3657 1.99998 16.8205 1.99997 17.195 2.03057C17.5904 2.06287 17.9836 2.13419 18.362 2.32698C18.9265 2.6146 19.3854 3.07354 19.673 3.63803C19.8658 4.01641 19.9371 4.40963 19.9694 4.80497C20 5.17954 20 5.6343 20 6.16144V8H21C21 7.44772 21.4477 7 22 7C22.5523 7 23 7.44772 23 8V9C23 9.55229 22.5523 10 22 10H21.6458C22.0215 10.3314 22.3339 10.7324 22.564 11.184C22.8113 11.6694 22.9099 12.1861 22.9558 12.7482C23 13.2894 23 13.9537 23 14.7587V18.032C23 18.4706 23 18.8491 22.9787 19.1624C22.9561 19.4922 22.9066 19.8221 22.7716 20.1481C22.4672 20.8831 21.8831 21.4672 21.1481 21.7716C20.8221 21.9066 20.4922 21.9561 20.1624 21.9787C19.8491 22 19.4706 22 19.032 22H18.4C18.3774 22 18.3551 22 18.3329 22C18.0284 22.0002 17.7664 22.0004 17.5307 21.9631C16.247 21.7598 15.2403 20.753 15.0369 19.4693C15.0139 19.3241 15.0052 19.169 15.0019 19H8.99812C8.99482 19.169 8.98606 19.3241 8.96307 19.4693C8.75975 20.753 7.75298 21.7598 6.46931 21.9631C6.23364 22.0004 5.97161 22.0002 5.66707 22C5.64494 22 5.62259 22 5.6 22H4.96801C4.52936 22 4.15088 22 3.83762 21.9787C3.50779 21.9561 3.17788 21.9066 2.85195 21.7716C2.11687 21.4672 1.53284 20.8831 1.22836 20.1481C1.09336 19.8221 1.04386 19.4922 1.02135 19.1624C0.999977 18.8491 0.999988 18.4706 1 18.032L1 14.7587C0.999988 13.9537 0.999978 13.2894 1.04419 12.7482C1.09012 12.1861 1.18868 11.6694 1.43598 11.184C1.66612 10.7324 1.97853 10.3314 2.35425 10H2C1.44772 10 1 9.55229 1 9V8C1 7.44772 1.44772 7 2 7C2.55229 7 3 7.44772 3 8H4L4 6.16146C3.99998 5.63431 3.99997 5.17955 4.03057 4.80497C4.06287 4.40963 4.13419 4.01641 4.32698 3.63803C4.6146 3.07354 5.07354 2.6146 5.63803 2.32698C6.01641 2.13419 6.40963 2.06287 6.80497 2.03057C7.17955 1.99997 7.63431 1.99998 8.16146 2ZM6 9.00163C6.23771 8.99999 6.4904 9 6.7587 9H17.2413C17.5096 9 17.7623 8.99999 18 9.00163L18 9M18 9V6.2C18 5.62345 17.9992 5.25118 17.9761 4.96784C17.9539 4.69617 17.9162 4.59546 17.891 4.54601C17.7951 4.35785 17.6422 4.20487 17.454 4.109C17.4045 4.0838 17.3038 4.04612 17.0322 4.02393C16.7488 4.00078 16.3766 4 15.8 4H8.2C7.62345 4 7.25117 4.00078 6.96784 4.02393C6.69617 4.04612 6.59546 4.0838 6.54601 4.109C6.35785 4.20487 6.20487 4.35785 6.10899 4.54601C6.0838 4.59546 6.04612 4.69617 6.02393 4.96784C6.00078 5.25118 6 5.62345 6 6.2V9M4.91104 11.0376C4.47262 11.0734 4.24842 11.1383 4.09202 11.218C3.7157 11.4097 3.40973 11.7157 3.21799 12.092C3.1383 12.2484 3.07337 12.4726 3.03755 12.911C3.00078 13.3611 3 13.9434 3 14.8V18C3 18.4796 3.00054 18.7893 3.01671 19.0262C3.03227 19.2542 3.05888 19.3411 3.07612 19.3827C3.17762 19.6277 3.37229 19.8224 3.61732 19.9239C3.65893 19.9411 3.74576 19.9677 3.97376 19.9833C4.21074 19.9995 4.52038 20 5 20H5.6C6.00981 20 6.0983 19.9969 6.15644 19.9877C6.58433 19.9199 6.91992 19.5843 6.98769 19.1564C6.9969 19.0983 7 19.0098 7 18.6C7 18.5946 6.99997 18.5884 6.99994 18.5815C6.99963 18.5172 6.99901 18.3882 7.01847 18.2654C7.12013 17.6235 7.62351 17.1201 8.26535 17.0185C8.3882 16.999 8.51722 16.9996 8.58145 16.9999C8.58843 17 8.59464 17 8.6 17H15.4C15.4054 17 15.4116 17 15.4185 16.9999C15.4828 16.9996 15.6118 16.999 15.7347 17.0185C16.3765 17.1201 16.8799 17.6235 16.9815 18.2653C17.001 18.3882 17.0004 18.5172 17.0001 18.5815C17 18.5884 17 18.5946 17 18.6C17 19.0098 17.0031 19.0983 17.0123 19.1564C17.0801 19.5843 17.4157 19.9199 17.8436 19.9877C17.9017 19.9969 17.9902 20 18.4 20H19C19.4796 20 19.7893 19.9995 20.0262 19.9833C20.2542 19.9677 20.3411 19.9411 20.3827 19.9239C20.6277 19.8224 20.8224 19.6277 20.9239 19.3827C20.9411 19.3411 20.9677 19.2542 20.9833 19.0262C20.9995 18.7893 21 18.4796 21 18V14.8C21 13.9434 20.9992 13.3611 20.9625 12.911C20.9266 12.4726 20.8617 12.2484 20.782 12.092C20.5903 11.7157 20.2843 11.4097 19.908 11.218C19.7516 11.1383 19.5274 11.0734 19.089 11.0376C18.6389 11.0008 18.0566 11 17.2 11H6.8C5.94342 11 5.36113 11.0008 4.91104 11.0376ZM4.5 13.5C4.5 12.6716 5.17157 12 6 12C6.82843 12 7.5 12.6716 7.5 13.5C7.5 14.3284 6.82843 15 6 15C5.17157 15 4.5 14.3284 4.5 13.5ZM16.5 13.5C16.5 12.6716 17.1716 12 18 12C18.8284 12 19.5 12.6716 19.5 13.5C19.5 14.3284 18.8284 15 18 15C17.1716 15 16.5 14.3284 16.5 13.5Z" fill="#101C2D"/>
</svg>
