<svg width="24" height="24" viewBox="0 0 24 24" fill="none" xmlns="http://www.w3.org/2000/svg">
<path fill-rule="evenodd" clip-rule="evenodd" d="M8.16158 3.00014C8.20953 3.00021 8.25788 3.00028 8.30665 3.00028H15.6938C15.7426 3.00028 15.7909 3.00021 15.8389 3.00014C16.5223 2.99912 17.1222 2.99822 17.6567 3.20845C18.1241 3.39227 18.5379 3.69048 18.86 4.07576C19.2285 4.51637 19.4174 5.08575 19.6325 5.73447C19.6476 5.77997 19.6628 5.82586 19.6783 5.87213L20.5843 8.59022L21.553 8.10586C22.047 7.85887 22.6477 8.05909 22.8946 8.55307C23.1416 9.04705 22.9414 9.64772 22.4474 9.89471L21.85 10.1934C22.1357 10.4834 22.3772 10.8171 22.5642 11.1843C22.8115 11.6697 22.9101 12.1864 22.956 12.7485C23.0002 13.2896 23.0002 13.954 23.0002 14.759V17.5003C23.0002 17.5285 23.0002 17.5565 23.0003 17.5842C23.0006 17.9649 23.0008 18.2927 22.9426 18.5856C22.7059 19.7756 21.7756 20.7059 20.5855 20.9426C20.2926 21.0009 19.9648 21.0006 19.5841 21.0003C19.5564 21.0003 19.5285 21.0003 19.5002 21.0003H19.0002C17.5137 21.0003 16.2797 19.9191 16.0417 18.5003H7.95874C7.7207 19.9191 6.48672 21.0003 5.00022 21.0003H4.50022C4.47198 21.0003 4.44402 21.0003 4.41635 21.0003C4.03564 21.0006 3.70781 21.0009 3.41495 20.9426C2.22488 20.7059 1.29458 19.7756 1.05786 18.5856C0.999611 18.2927 0.999872 17.9649 1.00017 17.5842C1.0002 17.5565 1.00022 17.5285 1.00022 17.5003L1.00022 14.759C1.00021 13.954 1.0002 13.2897 1.04441 12.7485C1.09034 12.1864 1.1889 11.6697 1.43619 11.1843C1.62329 10.8171 1.86475 10.4834 2.1504 10.1934L1.55301 9.89471C1.05903 9.64772 0.858803 9.04705 1.10579 8.55307C1.35278 8.05909 1.95345 7.85887 2.44743 8.10586L3.41615 8.59022L4.32218 5.87213C4.3376 5.82586 4.35282 5.77996 4.36792 5.73446C4.58308 5.08574 4.77193 4.51636 5.14039 4.07576C5.46258 3.69049 5.87633 3.39227 6.34372 3.20845C6.87823 2.99822 7.47811 2.99912 8.16158 3.00014ZM5.38381 9.01179C5.78783 9.00027 6.24468 9.00028 6.75892 9.00028H17.2415C17.7558 9.00028 18.2126 9.00027 18.6166 9.01179L17.7809 6.50458C17.4916 5.63682 17.418 5.46898 17.3258 5.35878C17.2184 5.23035 17.0805 5.13095 16.9247 5.06967C16.791 5.01709 16.6085 5.00028 15.6938 5.00028H8.30665C7.39195 5.00028 7.20943 5.01709 7.07573 5.06967C6.91994 5.13094 6.78202 5.23035 6.67462 5.35877C6.58246 5.46898 6.5088 5.63682 6.21955 6.50458L5.38381 9.01179ZM4.91126 11.0378C4.47284 11.0737 4.24864 11.1386 4.09224 11.2183C3.71591 11.41 3.40995 11.716 3.21821 12.0923C3.13852 12.2487 3.07359 12.4729 3.03777 12.9113C3.001 13.3614 3.00022 13.9437 3.00022 14.8003V17.5003C3.00022 18.0129 3.00506 18.1231 3.01943 18.1954C3.09834 18.5921 3.40844 18.9022 3.80513 18.9811C3.87738 18.9954 3.98763 19.0003 4.50022 19.0003H5.00022C5.5525 19.0003 6.00022 18.5526 6.00022 18.0003C6.00022 17.1719 6.67179 16.5003 7.50022 16.5003H16.5002C17.3286 16.5003 18.0002 17.1719 18.0002 18.0003C18.0002 18.5526 18.4479 19.0003 19.0002 19.0003H19.5002C20.0128 19.0003 20.1231 18.9954 20.1953 18.9811C20.592 18.9022 20.9021 18.5921 20.981 18.1954C20.9954 18.1231 21.0002 18.0129 21.0002 17.5003V14.8003C21.0002 13.9437 20.9994 13.3614 20.9627 12.9113C20.9268 12.4729 20.8619 12.2487 20.7822 12.0923C20.5905 11.716 20.2845 11.41 19.9082 11.2183C19.7518 11.1386 19.5276 11.0737 19.0892 11.0378C18.6391 11.0011 18.0568 11.0003 17.2002 11.0003H6.80022C5.94364 11.0003 5.36135 11.0011 4.91126 11.0378ZM4.00022 13.0003C4.00022 12.448 4.44793 12.0003 5.00022 12.0003H8.00022C8.5525 12.0003 9.00022 12.448 9.00022 13.0003C9.00022 13.5526 8.5525 14.0003 8.00022 14.0003H5.00022C4.44793 14.0003 4.00022 13.5526 4.00022 13.0003ZM15.0002 13.0003C15.0002 12.448 15.4479 12.0003 16.0002 12.0003H19.0002C19.5525 12.0003 20.0002 12.448 20.0002 13.0003C20.0002 13.5526 19.5525 14.0003 19.0002 14.0003H16.0002C15.4479 14.0003 15.0002 13.5526 15.0002 13.0003Z" fill="#101C2D"/>
</svg>
