<svg width="24" height="24" viewBox="0 0 24 24" fill="none" xmlns="http://www.w3.org/2000/svg">
<path d="M23.2 9.81001C22.74 9.35001 22.14 9.09001 21.5 9.03001L20 5.70001C19.78 5.13001 19.4 4.64001 18.9 4.29001C18.4 3.94001 17.81 3.76001 17.19 3.76001H6.81C6.2 3.76001 5.61 3.94001 5.1 4.29001C4.59 4.64001 4.21 5.12001 4.02 5.65001L2.5 9.02001C1.86 9.08001 1.26 9.34001 0.8 9.80001C0.29 10.33 0 11.02 0 11.75V15.5C0 15.97 0.18 16.41 0.51 16.74C0.58 16.81 0.66 16.88 0.75 16.94V18C0.75 18.59 0.99 19.17 1.41 19.59C1.83 20.02 2.4 20.25 3 20.25C3.6 20.25 4.17 20.02 4.59 19.59C5.01 19.17 5.25 18.59 5.25 18V17.25H18.75V18C18.75 18.59 18.99 19.17 19.41 19.59C19.83 20.01 20.41 20.25 21 20.25C21.6 20.25 22.17 20.02 22.59 19.59C23.01 19.16 23.25 18.6 23.25 18V16.93C23.33 16.87 23.42 16.81 23.49 16.74C23.82 16.41 24 15.97 24 15.5V11.75C24 11.02 23.71 10.32 23.2 9.81001ZM5.4 6.22001C5.51 5.93001 5.7 5.69001 5.95 5.51001C6.2 5.34001 6.5 5.25001 6.81 5.25001H17.19C17.5 5.25001 17.79 5.34001 18.04 5.52001C18.29 5.70001 18.48 5.94001 18.61 6.27001L19.84 9.00001H4.16L5.4 6.22001ZM1.5 11.75C1.5 11.42 1.63 11.1 1.87 10.87C2.11 10.64 2.42 10.5 2.75 10.5H21.25C21.58 10.5 21.9 10.63 22.13 10.87C22.37 11.11 22.5 11.42 22.5 11.75V15.5C22.5 15.57 22.47 15.63 22.43 15.68C22.39 15.73 22.32 15.75 22.25 15.75H1.75C1.68 15.75 1.62 15.72 1.57 15.68C1.53 15.63 1.5 15.57 1.5 15.5V11.75ZM3.75 18C3.75 18.2 3.67 18.39 3.53 18.53C3.25 18.81 2.75 18.81 2.47 18.53C2.33 18.39 2.25 18.2 2.25 18V17.25H3.75V18ZM21.53 18.53C21.25 18.81 20.75 18.81 20.47 18.53C20.33 18.39 20.25 18.2 20.25 18V17.25H21.75V18C21.75 18.2 21.67 18.39 21.53 18.53Z" fill="#171717"/>
<path d="M4.13 14.24C4.74856 14.24 5.25 13.7386 5.25 13.12C5.25 12.5015 4.74856 12 4.13 12C3.51144 12 3.01 12.5015 3.01 13.12C3.01 13.7386 3.51144 14.24 4.13 14.24Z" fill="#171717"/>
<path d="M19.87 14.24C20.4886 14.24 20.99 13.7386 20.99 13.12C20.99 12.5015 20.4886 12 19.87 12C19.2514 12 18.75 12.5015 18.75 13.12C18.75 13.7386 19.2514 14.24 19.87 14.24Z" fill="#171717"/>
</svg>
