<svg width="24" height="24" viewBox="0 0 24 24" fill="none" xmlns="http://www.w3.org/2000/svg">
<path fill-rule="evenodd" clip-rule="evenodd" d="M2 3.90869C2 2.25184 3.34315 0.908691 5 0.908691H19C20.6569 0.908691 22 2.25184 22 3.90869V17.9087C22 19.5655 20.6569 20.9087 19 20.9087H17.7996L15.8999 22.8084C15.5094 23.1989 14.8763 23.1989 14.4857 22.8084L12.0106 20.3335L9.53578 22.8084C9.14525 23.1989 8.51209 23.1989 8.12156 22.8084L6.22189 20.9087H5C3.34315 20.9087 2 19.5655 2 17.9087V3.90869ZM7.41446 19.2728L8.82867 20.687L10.0911 19.4247C9.49534 19.1005 8.99117 18.6294 8.62723 18.0601L7.41446 19.2728ZM8.00031 15.8585L5.29314 18.5657C5.19457 18.6643 5.1187 18.7813 5.0689 18.9087H5C4.44772 18.9087 4 18.461 4 17.9087V3.90869C4 3.35641 4.44772 2.90869 5 2.90869H19C19.5523 2.90869 20 3.35641 20 3.90869V17.9087C20 18.461 19.5523 18.9087 19 18.9087H18.9526C18.9028 18.7813 18.8269 18.6643 18.7283 18.5657L15.9994 15.8367C15.961 13.6608 14.1851 11.9087 12 11.9087C9.8076 11.9087 8.02716 13.6725 8.00031 15.8585ZM10.0135 16.142C10.0132 16.14 10.013 16.1379 10.0127 16.1358C10.0043 16.0612 10 15.9855 10 15.9087C10 14.8041 10.8954 13.9087 12 13.9087C13.1046 13.9087 14 14.8041 14 15.9087C14 17.004 13.1195 17.8936 12.0278 17.9085C12.0224 17.9085 12.0171 17.9085 12.0117 17.9085L11.9957 17.9087C10.972 17.9065 10.1289 17.1353 10.0135 16.142ZM13.9227 19.4171C14.517 19.0908 15.0194 18.6178 15.3811 18.0469L16.607 19.2728L15.1928 20.6871L13.9227 19.4171ZM8 5.90869C8 5.35641 8.44772 4.90869 9 4.90869H15C15.5523 4.90869 16 5.35641 16 5.90869C16 6.46098 15.5523 6.90869 15 6.90869H9C8.44772 6.90869 8 6.46098 8 5.90869ZM6 9.40869C6 8.85641 6.44772 8.40869 7 8.40869H17C17.5523 8.40869 18 8.85641 18 9.40869C18 9.96098 17.5523 10.4087 17 10.4087H7C6.44772 10.4087 6 9.96098 6 9.40869Z" fill="#101C2D"/>
<path opacity="0.2" d="M8.40005 22.7153L4.80005 20.0117L8.40005 16.2266L10.2 12.9823H14.4L19.2 20.0117L15.6 22.7153L12.6 20.0117L8.40005 22.7153Z" fill="#101C2D"/>
</svg>
