<svg width="24" height="24" viewBox="0 0 24 24" fill="none" xmlns="http://www.w3.org/2000/svg">
<path opacity="0.2" d="M19.3 9.59998C18.3 8.99998 17.1 8.59998 15.8 8.59998C14.8 8.59998 13.8 8.79998 12.9 9.29998C12 9.69998 11.2 10.4 10.5 11.2C9.90005 12 9.40005 12.9 9.20005 13.9C9.00005 14.9 9.00005 15.9 9.20005 16.9C9.40005 17.9 9.90005 18.8 10.5 19.6C11.1 20.4 11.9 21 12.9 21.5C13.9 22 14.8 22.2 15.8 22.2C16.6 22.2 17.5 22 18.3 21.7L21.9 22.3C22.4 22.4 22.8 21.9 22.6 21.5L21.7 18.8C22.2 17.9 22.5 16.8 22.6 15.8C22.7 14.6 22.4 13.4 21.8 12.3C21.2 11.1 20.3 10.2 19.3 9.59998Z" fill="#1D2127"/>
<path d="M22 23.2C21.9 23.2 21.8 23.2 21.7 23.2L18.4 22.6C17.6 22.9 16.7 23.1 15.8 23.1C14.7 23.1 13.5 22.8 12.5 22.4C11.6 22 10.7 21.3 9.99998 20.5C8.99998 20.5 7.99998 20.2 7.09998 19.9L2.59998 20.7C1.99998 20.7 1.39998 20.5 0.999976 20C0.599976 19.5 0.499976 18.9 0.699976 18.3L1.79998 15.1C1.09998 13.8 0.799976 12.4 0.699976 11C0.599976 9.19998 0.999976 7.39998 1.89998 5.89998C2.69998 4.29998 3.89998 2.99998 5.49998 1.99998C7.09998 0.999976 8.79998 0.599976 10.6 0.599976C12.1 0.599976 13.6 0.899976 14.9 1.59998C16.2 2.19998 17.4 3.19998 18.3 4.39998C19.2 5.59998 19.9 6.89998 20.2 8.39998C20.3 8.69998 20.3 8.99998 20.4 9.29998C21.3 9.99998 22.1 10.8 22.6 11.8C23.2 13 23.6 14.4 23.5 15.8C23.4 16.9 23.2 17.9 22.7 18.9L23.5 21.3C23.7 21.8 23.6 22.3 23.2 22.8C22.8 23 22.4 23.2 22 23.2ZM18.3 20.9H18.4L21.6 21.4L20.8 19C20.7 18.8 20.7 18.5 20.9 18.3C21.4 17.5 21.6 16.6 21.7 15.6C21.8 14.5 21.5 13.5 21 12.5C20.6 11.7 19.9 11 19.2 10.4C19.1 10.4 19.1 10.3 19 10.3C19 10.3 18.9 10.3 18.9 10.2C18 9.59997 16.9 9.39997 15.9 9.39997C15 9.39997 14.1 9.59998 13.3 9.99998C12.5 10.4 11.8 11 11.2 11.6C10.6 12.3 10.3 13.1 10.1 14C9.89998 14.9 9.89998 15.8 10.1 16.6C10.3 17.4 10.6 18.1 11.1 18.8C11.2 18.9 11.3 19 11.3 19.1C11.8 19.8 12.5 20.3 13.3 20.7C14.1 21.1 15 21.3 15.8 21.3C16.5 21.3 17.3 21.2 18 20.9C18.1 20.9 18.2 20.9 18.3 20.9ZM10.6 2.29998C9.09998 2.29998 7.69998 2.69998 6.39998 3.49998C5.09998 4.29998 4.09998 5.39998 3.39998 6.69998C2.69998 7.99998 2.39998 9.49998 2.39998 11C2.49998 12.3 2.79998 13.6 3.49998 14.7C3.59998 14.9 3.59998 15.2 3.59998 15.4L2.39998 19L7.09998 18.2C7.29998 18.2 7.39998 18.2 7.59998 18.2C7.99998 18.4 8.49997 18.5 8.89997 18.6C8.69998 18.1 8.49998 17.7 8.39998 17.2C8.09998 16.1 8.09998 14.9 8.39998 13.8C8.69998 12.7 9.19998 11.6 9.89997 10.7C10.6 9.79998 11.5 9.09998 12.6 8.59998C13.6 8.09998 14.8 7.79998 15.9 7.79998C16.8 7.79998 17.6 7.99998 18.5 8.19998C18.2 7.19998 17.7 6.19998 17.1 5.39998C16.3 4.39998 15.4 3.69998 14.3 3.09998C13 2.59998 11.8 2.29998 10.6 2.29998Z" fill="#1D2127"/>
</svg>
