<svg width="24" height="24" viewBox="0 0 24 24" fill="none" xmlns="http://www.w3.org/2000/svg">
<path opacity="0.2" d="M19.3 9.59998C18.3 8.99998 17.1 8.59998 15.8 8.59998C14.8 8.59998 13.8 8.79998 12.9 9.29998C12 9.69998 11.2 10.4 10.5 11.2C9.90005 12 9.40005 12.9 9.20005 13.9C9.00005 14.9 9.00005 15.9 9.20005 16.9C9.40005 17.9 9.90005 18.8 10.5 19.6C11.1 20.4 11.9 21 12.9 21.5C13.9 22 14.8 22.2 15.8 22.2C16.6 22.2 17.5 22 18.3 21.7L21.9 22.3C22.4 22.4 22.8 21.9 22.6 21.5L21.7 18.8C22.2 17.9 22.5 16.8 22.6 15.8C22.7 14.6 22.4 13.4 21.8 12.3C21.2 11.1 20.3 10.2 19.3 9.59998Z" fill="#101C2D"/>
<path d="M22.0001 23.2C21.9001 23.2 21.8001 23.2 21.7001 23.2L18.4001 22.6C17.6001 22.9 16.7001 23.1 15.8001 23.1C14.7001 23.1 13.5001 22.8 12.5001 22.4C11.6001 22 10.7001 21.3 10.0001 20.5C9.0001 20.5 8.0001 20.2 7.1001 19.9L2.6001 20.7C2.0001 20.7 1.4001 20.5 1.0001 20C0.600098 19.5 0.500098 18.9 0.700098 18.3L1.8001 15.1C1.1001 13.8 0.800098 12.4 0.700098 11C0.600098 9.19998 1.0001 7.39998 1.9001 5.89998C2.7001 4.29998 3.9001 2.99998 5.5001 1.99998C7.1001 0.999976 8.8001 0.599976 10.6001 0.599976C12.1001 0.599976 13.6001 0.899976 14.9001 1.59998C16.2001 2.19998 17.4001 3.19998 18.3001 4.39998C19.2001 5.59998 19.9001 6.89998 20.2001 8.39998C20.3001 8.69998 20.3001 8.99998 20.4001 9.29998C21.3001 9.99998 22.1001 10.8 22.6001 11.8C23.2001 13 23.6001 14.4 23.5001 15.8C23.4001 16.9 23.2001 17.9 22.7001 18.9L23.5001 21.3C23.7001 21.8 23.6001 22.3 23.2001 22.8C22.8001 23 22.4001 23.2 22.0001 23.2ZM18.3001 20.9H18.4001L21.6001 21.4L20.8001 19C20.7001 18.8 20.7001 18.5 20.9001 18.3C21.4001 17.5 21.6001 16.6 21.7001 15.6C21.8001 14.5 21.5001 13.5 21.0001 12.5C20.6001 11.7 19.9001 11 19.2001 10.4C19.1001 10.4 19.1001 10.3 19.0001 10.3C19.0001 10.3 18.9001 10.3 18.9001 10.2C18.0001 9.59997 16.9001 9.39997 15.9001 9.39997C15.0001 9.39997 14.1001 9.59998 13.3001 9.99998C12.5001 10.4 11.8001 11 11.2001 11.6C10.6001 12.3 10.3001 13.1 10.1001 14C9.9001 14.9 9.9001 15.8 10.1001 16.6C10.3001 17.4 10.6001 18.1 11.1001 18.8C11.2001 18.9 11.3001 19 11.3001 19.1C11.8001 19.8 12.5001 20.3 13.3001 20.7C14.1001 21.1 15.0001 21.3 15.8001 21.3C16.5001 21.3 17.3001 21.2 18.0001 20.9C18.1001 20.9 18.2001 20.9 18.3001 20.9ZM10.6001 2.29998C9.1001 2.29998 7.7001 2.69998 6.4001 3.49998C5.1001 4.29998 4.1001 5.39998 3.4001 6.69998C2.7001 7.99998 2.4001 9.49998 2.4001 11C2.5001 12.3 2.8001 13.6 3.5001 14.7C3.6001 14.9 3.6001 15.2 3.6001 15.4L2.4001 19L7.1001 18.2C7.3001 18.2 7.4001 18.2 7.6001 18.2C8.0001 18.4 8.5001 18.5 8.9001 18.6C8.7001 18.1 8.5001 17.7 8.4001 17.2C8.1001 16.1 8.1001 14.9 8.4001 13.8C8.7001 12.7 9.2001 11.6 9.9001 10.7C10.6001 9.79998 11.5001 9.09998 12.6001 8.59998C13.6001 8.09998 14.8001 7.79998 15.9001 7.79998C16.8001 7.79998 17.6001 7.99998 18.5001 8.19998C18.2001 7.19998 17.7001 6.19998 17.1001 5.39998C16.3001 4.39998 15.4001 3.69998 14.3001 3.09998C13.0001 2.59998 11.8001 2.29998 10.6001 2.29998Z" fill="#101C2D"/>
</svg>
