<svg width="24" height="24" viewBox="0 0 24 24" fill="none" xmlns="http://www.w3.org/2000/svg">
<path opacity="0.2" d="M19.2918 9.60277C18.243 8.9714 17.0433 8.63777 15.8207 8.63739C14.8035 8.63679 13.7993 8.86692 12.8829 9.31064C11.9665 9.75437 11.1616 10.4002 10.5281 11.2001C9.89472 12 9.44911 12.9332 9.22453 13.9302C8.99995 14.9272 9.00219 15.9623 9.2311 16.9584C9.46001 17.9544 9.90967 18.8856 10.5466 19.6828C11.1835 20.4799 11.9912 21.1221 12.9095 21.5618C13.8278 22.0015 14.833 22.2273 15.8502 22.2223C16.6992 22.218 17.5382 22.0531 18.3239 21.7377L21.8747 22.3318C22.3526 22.4119 22.744 21.9544 22.5907 21.4946L21.6904 18.7941C22.2168 17.8661 22.5191 16.8244 22.57 15.7531C22.6281 14.5259 22.354 13.3057 21.7766 12.2226C21.1994 11.1396 20.3406 10.2341 19.2918 9.60277Z" fill="#1D2127"/>
<path d="M10.5094 19.6049C9.37737 19.5993 8.25865 19.3793 7.2111 18.9588L2.47669 19.7511C1.83935 19.8578 1.3177 19.2477 1.52207 18.6346L2.7225 15.034C2.02058 13.7968 1.61743 12.4078 1.54971 10.9794C1.47213 9.34305 1.83765 7.71619 2.60737 6.27209C3.37706 4.828 4.52214 3.62074 5.92059 2.77894C7.31905 1.93713 8.91853 1.49227 10.5487 1.49176C11.905 1.49096 13.2439 1.79781 14.4658 2.38944C15.6876 2.98107 16.7608 3.84223 17.6054 4.9087C18.45 5.9752 19.0442 7.21949 19.3435 8.54885C19.4342 8.95135 19.4971 9.35851 19.5324 9.76745M19.2917 9.60276C18.2429 8.97139 17.0433 8.63775 15.8207 8.63738C14.8035 8.63678 13.7993 8.8669 12.8829 9.31063C11.9665 9.75436 11.1616 10.4002 10.5281 11.2001C9.89469 11.9999 9.44908 12.9332 9.22451 13.9302C8.99992 14.9272 9.00217 15.9623 9.23108 16.9584C9.45999 17.9544 9.90964 18.8856 10.5465 19.6827C11.1834 20.4799 11.9911 21.1221 12.9095 21.5618C13.8277 22.0015 14.833 22.2273 15.8502 22.2223C16.6992 22.218 17.5382 22.0531 18.3239 21.7377L21.8747 22.3318C22.3526 22.4119 22.744 21.9543 22.5907 21.4946L21.6904 18.7941C22.2168 17.8661 22.5191 16.8244 22.57 15.7531C22.6281 14.5258 22.354 13.3057 21.7766 12.2226C21.1994 11.1395 20.3405 10.2341 19.2917 9.60276Z" stroke="#1D2127" stroke-width="1.71429" stroke-linecap="round" stroke-linejoin="round"/>
</svg>
