<svg width="24" height="24" viewBox="0 0 24 24" fill="none" xmlns="http://www.w3.org/2000/svg">
<path d="M19 3.34473H5C3.9 3.34473 3 4.24473 3 5.34473V19.3447C3 20.4447 3.9 21.3447 5 21.3447H19C20.1 21.3447 21 20.4447 21 19.3447V5.34473C21 4.24473 20.1 3.34473 19 3.34473ZM10.71 16.6347C10.32 17.0247 9.69 17.0247 9.3 16.6347L5.71 13.0447C5.32 12.6547 5.32 12.0247 5.71 11.6347C6.1 11.2447 6.73 11.2447 7.12 11.6347L10 14.5147L16.88 7.63473C17.27 7.24473 17.9 7.24473 18.29 7.63473C18.68 8.02473 18.68 8.65473 18.29 9.04473L10.71 16.6347Z" fill="#171717"/>
</svg>
