<svg width="24" height="24" viewBox="0 0 24 24" fill="none" xmlns="http://www.w3.org/2000/svg">
<path d="M22.99 10.2C22.52 9.73004 21.93 9.41004 21.28 9.28004C20.57 4.50004 16.1 1.67004 12 1.67004C7.90002 1.67004 3.43002 4.50004 2.71002 9.29004C2.07002 9.41004 1.48002 9.73004 1.01002 10.2C0.37002 10.84 0.0200195 11.68 0.0200195 12.58C0.0200195 13.47 0.38002 14.34 1.01002 14.96C1.51002 15.46 2.15002 15.79 2.84002 15.9C3.49002 17.69 4.67002 19.28 6.20002 20.41C7.87002 21.65 9.93002 22.33 12 22.33C14.08 22.33 16.14 21.65 17.8 20.41C19.33 19.28 20.51 17.69 21.16 15.9C21.85 15.79 22.48 15.46 22.99 14.96C23.62 14.33 23.98 13.46 23.98 12.58C23.98 11.69 23.63 10.84 22.99 10.2ZM21.93 13.91C21.58 14.26 21.11 14.46 20.61 14.46C20.28 14.46 19.99 14.68 19.89 14.99C19.38 16.67 18.32 18.17 16.91 19.22C15.5 20.26 13.75 20.84 12 20.84C10.24 20.84 8.50002 20.26 7.09002 19.22C5.68002 18.18 4.62002 16.67 4.11002 14.99C4.01002 14.67 3.72002 14.46 3.39002 14.46C2.90002 14.46 2.42002 14.26 2.07002 13.91C1.72002 13.56 1.52002 13.08 1.52002 12.59C1.52002 12.09 1.71002 11.62 2.07002 11.27C2.42002 10.92 2.89002 10.72 3.39002 10.72C3.78002 10.72 4.11002 10.42 4.14002 10.03C4.47002 5.79004 8.48002 3.17004 12 3.17004C12.28 3.17004 12.55 3.25004 12.78 3.39004C13.01 3.53004 13.21 3.74004 13.33 3.98004C13.46 4.23004 13.51 4.50004 13.5 4.77004C13.48 5.04004 13.39 5.31004 13.23 5.53004C13.07 5.75004 12.85 5.93004 12.6 6.04004C12.35 6.15004 12.07 6.19004 11.8 6.15004C11.52 6.11004 11.27 6.00004 11.05 5.83004C10.84 5.66004 10.68 5.43004 10.58 5.17004C10.44 4.78004 10.02 4.58004 9.62002 4.71004C9.23002 4.85004 9.02002 5.28004 9.16002 5.67004C9.34002 6.19004 9.67002 6.65004 10.09 7.00004C10.52 7.35004 11.03 7.57004 11.57 7.65004C11.71 7.67004 11.84 7.68004 11.98 7.68004C12.39 7.68004 12.79 7.60004 13.17 7.43004C13.67 7.21004 14.11 6.86004 14.43 6.41004C14.75 5.96004 14.93 5.43004 14.97 4.88004C15 4.49004 14.94 4.09004 14.82 3.72004C17.37 4.69004 19.59 6.93004 19.84 10.03C19.87 10.42 20.2 10.72 20.59 10.72C21.09 10.72 21.56 10.91 21.91 11.27C22.26 11.62 22.46 12.09 22.46 12.59C22.48 13.08 22.28 13.56 21.93 13.91Z" fill="#171717"/>
<path d="M13.5 16.5301C12.67 17.2701 11.33 17.2701 10.5 16.5301C10.19 16.2501 9.71997 16.2801 9.43997 16.5901C9.15997 16.9001 9.18997 17.3701 9.49997 17.6501C10.19 18.2701 11.08 18.6101 12 18.6101C12.92 18.6101 13.81 18.2701 14.5 17.6601C14.81 17.3801 14.83 16.9101 14.56 16.6001C14.28 16.2801 13.81 16.2501 13.5 16.5301Z" fill="#171717"/>
<path d="M17.25 10.3401C16.84 10.3401 16.5 10.6801 16.5 11.0901C16.5 11.2901 16.42 11.4801 16.28 11.6201C16 11.9001 15.5 11.9001 15.22 11.6201C15.08 11.4801 15 11.2801 15 11.0901C15 10.6801 14.66 10.3401 14.25 10.3401C13.84 10.3401 13.5 10.6801 13.5 11.0901C13.5 11.6901 13.73 12.2601 14.16 12.6801C14.58 13.1001 15.15 13.3401 15.75 13.3401C16.34 13.3401 16.92 13.1001 17.34 12.6801C17.76 12.2601 18 11.6801 18 11.0901C18 10.6701 17.66 10.3401 17.25 10.3401Z" fill="#171717"/>
<path d="M10.5 11.0901C10.5 10.6801 10.16 10.3401 9.75 10.3401C9.34 10.3401 9 10.6701 9 11.0901C9 11.2901 8.92 11.4801 8.78 11.6201C8.5 11.9001 8 11.9001 7.72 11.6201C7.58 11.4801 7.5 11.2901 7.5 11.0901C7.5 10.6801 7.16 10.3401 6.75 10.3401C6.34 10.3401 6 10.6701 6 11.0901C6 11.6801 6.24 12.2601 6.66 12.6801C7.08 13.1001 7.65 13.3401 8.25 13.3401C8.85 13.3401 9.42 13.1101 9.84 12.6801C10.26 12.2601 10.5 11.6801 10.5 11.0901Z" fill="#171717"/>
</svg>
