<svg width="24" height="24" viewBox="0 0 24 24" fill="none" xmlns="http://www.w3.org/2000/svg">
<path fill-rule="evenodd" clip-rule="evenodd" d="M4.2102 9.18898C4.92776 5.37869 8.55997 3 12 3C15.44 3 19.0722 5.37869 19.7898 9.18899C20.2787 9.33384 20.7287 9.59893 21.0958 9.96602C21.6748 10.545 22 11.3302 22 12.1489C22 12.9677 21.6748 13.7529 21.0958 14.3319C20.6919 14.7357 20.1876 15.0162 19.6416 15.1488C19.0805 16.578 18.1279 17.8255 16.8873 18.7447C15.4733 19.7924 13.7599 20.358 12 20.358C10.2401 20.358 8.52675 19.7924 7.11268 18.7447C5.87212 17.8255 4.9195 16.578 4.35838 15.1488C3.81236 15.0162 3.30808 14.7357 2.90419 14.3319C2.32525 13.7529 2 12.9677 2 12.1489C2 11.3302 2.32525 10.545 2.90419 9.96602C3.27128 9.59893 3.7213 9.33384 4.2102 9.18898ZM12 4.96708C9.1493 4.96708 6.30844 7.07888 6.06759 10.1229C6.02712 10.6345 5.60022 11.0289 5.08711 11.0289C4.79006 11.0289 4.50518 11.1469 4.29513 11.357C4.08508 11.567 3.96708 11.8519 3.96708 12.1489C3.96708 12.446 4.08508 12.7309 4.29513 12.9409C4.50518 13.151 4.79006 13.269 5.08711 13.269C5.52 13.269 5.90199 13.552 6.02803 13.9661C6.41771 15.2464 7.20848 16.3675 8.28372 17.1642C9.35897 17.9608 10.6618 18.3909 12 18.3909C13.3382 18.3909 14.641 17.9608 15.7163 17.1642C16.7915 16.3675 17.5823 15.2464 17.972 13.9661C18.098 13.552 18.48 13.269 18.9129 13.269C19.2099 13.269 19.4948 13.151 19.7049 12.9409C19.9149 12.7309 20.0329 12.446 20.0329 12.1489C20.0329 11.8519 19.9149 11.567 19.7049 11.357C19.4948 11.1469 19.2099 11.0289 18.9129 11.0289C18.3998 11.0289 17.9729 10.6345 17.9324 10.1229C17.6916 7.07888 14.8507 4.96708 12 4.96708Z" fill="#101C2D"/>
<path fill-rule="evenodd" clip-rule="evenodd" d="M12.4284 5.08676C12.2995 5.00839 12.1509 4.96699 12 4.96708C11.4568 4.9674 11.0168 4.52731 11.0165 3.98412C11.0161 3.44092 11.4568 3.00032 12 3C12.5116 2.9997 13.0128 3.14006 13.45 3.40573C13.8872 3.6714 14.2429 4.05216 14.4783 4.50637C14.7136 4.96058 14.8196 5.47076 14.7846 5.98114C14.7495 6.49151 14.5748 6.98242 14.2796 7.40021C13.9844 7.81799 13.5799 8.14656 13.1106 8.35C12.6412 8.55343 12.1249 8.6239 11.6182 8.55369C11.1114 8.48348 10.6337 8.2753 10.2374 7.95191C9.84096 7.62852 9.54111 7.20238 9.37058 6.72006C9.18952 6.20793 9.4579 5.64599 9.97003 5.46492C10.4822 5.28386 11.0441 5.55224 11.2252 6.06437C11.2755 6.20663 11.3639 6.33233 11.4808 6.42772C11.5978 6.52311 11.7386 6.58451 11.8881 6.60522C12.0376 6.62593 12.1899 6.60514 12.3283 6.54514C12.4668 6.48513 12.5861 6.38822 12.6731 6.26499C12.7602 6.14175 12.8118 5.99695 12.8221 5.84641C12.8324 5.69587 12.8012 5.54538 12.7317 5.41141C12.6623 5.27743 12.5574 5.16512 12.4284 5.08676Z" fill="#101C2D"/>
<path fill-rule="evenodd" clip-rule="evenodd" d="M9.66113 15.1063C10.0233 14.7014 10.645 14.6667 11.0499 15.0289C11.3112 15.2626 11.6494 15.3918 12 15.3918C12.3506 15.3918 12.6888 15.2626 12.9501 15.0289C13.355 14.6667 13.9767 14.7014 14.3389 15.1063C14.701 15.5111 14.6663 16.1329 14.2615 16.495C13.6395 17.0513 12.8344 17.3588 12 17.3588C11.1656 17.3588 10.3605 17.0513 9.73853 16.495C9.33365 16.1329 9.299 15.5111 9.66113 15.1063Z" fill="#101C2D"/>
<path fill-rule="evenodd" clip-rule="evenodd" d="M13.8065 9.96106C14.3497 9.96106 14.79 10.4014 14.79 10.9446C14.79 11.0032 14.8133 11.0593 14.8547 11.1007C14.8961 11.1421 14.9523 11.1654 15.0108 11.1654C15.0694 11.1654 15.1256 11.1421 15.167 11.1007C15.2084 11.0593 15.2316 11.0032 15.2316 10.9446C15.2316 10.4014 15.672 9.96106 16.2152 9.96106C16.7584 9.96106 17.1987 10.4014 17.1987 10.9446C17.1987 11.5249 16.9682 12.0814 16.5579 12.4917C16.1476 12.902 15.5911 13.1325 15.0108 13.1325C14.4306 13.1325 13.8741 12.902 13.4638 12.4917C13.0535 12.0814 12.823 11.5249 12.823 10.9446C12.823 10.4014 13.2633 9.96106 13.8065 9.96106Z" fill="#101C2D"/>
<path fill-rule="evenodd" clip-rule="evenodd" d="M7.78483 9.96106C8.32802 9.96106 8.76837 10.4014 8.76837 10.9446C8.76837 11.0032 8.79163 11.0593 8.83304 11.1007C8.87444 11.1421 8.9306 11.1654 8.98916 11.1654C9.04772 11.1654 9.10388 11.1421 9.14529 11.1007C9.18669 11.0593 9.20996 11.0032 9.20996 10.9446C9.20996 10.4014 9.6503 9.96106 10.1935 9.96106C10.7367 9.96106 11.177 10.4014 11.177 10.9446C11.177 11.5249 10.9465 12.0814 10.5362 12.4917C10.1259 12.902 9.56942 13.1325 8.98916 13.1325C8.4089 13.1325 7.85241 12.902 7.4421 12.4917C7.03179 12.0814 6.80128 11.5249 6.80128 10.9446C6.80128 10.4014 7.24163 9.96106 7.78483 9.96106Z" fill="#101C2D"/>
</svg>
