<svg width="24" height="24" viewBox="0 0 24 24" fill="none" xmlns="http://www.w3.org/2000/svg">
<path d="M23.0083 10.2575C22.5376 9.80252 21.9466 9.49274 21.2955 9.36689C20.5843 4.73959 16.1068 2 12 2C7.89316 2 3.41569 4.73959 2.69449 9.37657C2.05342 9.49274 1.46244 9.80252 0.991653 10.2575C0.350584 10.8771 0 11.6902 0 12.5615C0 13.423 0.360601 14.2652 0.991653 14.8654C1.49249 15.3495 2.13356 15.6689 2.82471 15.7754C3.47579 17.5082 4.65776 19.0474 6.19032 20.1413C7.86311 21.3417 9.92655 22 12 22C14.0835 22 16.1469 21.3417 17.8097 20.1413C19.3422 19.0474 20.5242 17.5082 21.1753 15.7754C21.8664 15.6689 22.4975 15.3495 23.0083 14.8654C23.6394 14.2556 24 13.4134 24 12.5615C24 11.6999 23.6494 10.8771 23.0083 10.2575ZM21.9466 13.849C21.596 14.1878 21.1252 14.3814 20.6244 14.3814C20.2938 14.3814 20.0033 14.5944 19.9032 14.8945C19.3923 16.5208 18.3306 17.9729 16.9182 18.9894C15.5058 19.9961 13.7529 20.5576 12 20.5576C10.2371 20.5576 8.49416 19.9961 7.0818 18.9894C5.66945 17.9826 4.60768 16.5208 4.09683 14.8945C3.99666 14.5847 3.70618 14.3814 3.37563 14.3814C2.88481 14.3814 2.40401 14.1878 2.05342 13.849C1.70284 13.5102 1.5025 13.0455 1.5025 12.5712C1.5025 12.0871 1.69282 11.6321 2.05342 11.2933C2.40401 10.9545 2.87479 10.7609 3.37563 10.7609C3.76628 10.7609 4.09683 10.4705 4.12688 10.0929C4.45743 5.98838 8.47412 3.45208 12 3.45208C12.2805 3.45208 12.5509 3.52953 12.7813 3.66505C13.0117 3.80058 13.212 4.00387 13.3322 4.23621C13.4624 4.47822 13.5125 4.73959 13.5025 5.00097C13.4825 5.26234 13.3923 5.52372 13.2321 5.73669C13.0718 5.94966 12.8514 6.12391 12.601 6.2304C12.3506 6.33688 12.0701 6.37561 11.7997 6.33688C11.5192 6.29816 11.2688 6.19167 11.0484 6.02711C10.8381 5.86254 10.6778 5.63988 10.5776 5.38819C10.4374 5.01065 10.0167 4.81704 9.61603 4.94288C9.22538 5.07841 9.01503 5.49468 9.15526 5.87222C9.33556 6.37561 9.66611 6.82091 10.0868 7.15973C10.5175 7.49855 11.0284 7.71152 11.5693 7.78896C11.7095 7.80833 11.8397 7.81801 11.98 7.81801C12.3907 7.81801 12.7913 7.74056 13.172 7.57599C13.6728 7.36302 14.1135 7.0242 14.4341 6.58858C14.7546 6.15295 14.9349 5.63988 14.975 5.10745C15.005 4.72991 14.9449 4.34269 14.8247 3.98451C17.379 4.92352 19.6027 7.09197 19.8531 10.0929C19.8831 10.4705 20.2137 10.7609 20.6043 10.7609C21.1052 10.7609 21.576 10.9448 21.9265 11.2933C22.2771 11.6321 22.4775 12.0871 22.4775 12.5712C22.4975 13.0455 22.2972 13.5102 21.9466 13.849Z" fill="#1D2127"/>
<path d="M13.5025 16.3853C12.6711 17.1016 11.3289 17.1016 10.4975 16.3853C10.187 16.1142 9.71619 16.1433 9.43573 16.4434C9.15526 16.7435 9.18531 17.1985 9.49583 17.4695C10.187 18.0697 11.0785 18.3988 12 18.3988C12.9215 18.3988 13.813 18.0697 14.5042 17.4792C14.8147 17.2081 14.8347 16.7531 14.5643 16.453C14.2838 16.1433 13.813 16.1142 13.5025 16.3853Z" fill="#1D2127"/>
<path d="M17.2588 10.393C16.8481 10.393 16.5075 10.7222 16.5075 11.1191C16.5075 11.3127 16.4274 11.4966 16.2871 11.6321C16.0067 11.9032 15.5058 11.9032 15.2254 11.6321C15.0851 11.4966 15.005 11.303 15.005 11.1191C15.005 10.7222 14.6644 10.393 14.2538 10.393C13.8431 10.393 13.5025 10.7222 13.5025 11.1191C13.5025 11.6999 13.7329 12.2517 14.1636 12.6583C14.5843 13.0649 15.1553 13.2972 15.7563 13.2972C16.3472 13.2972 16.9282 13.0649 17.3489 12.6583C17.7696 12.2517 18.01 11.6902 18.01 11.1191C18.01 10.7125 17.6695 10.393 17.2588 10.393Z" fill="#1D2127"/>
<path d="M10.4975 11.1191C10.4975 10.7222 10.1569 10.393 9.74624 10.393C9.33556 10.393 8.99499 10.7125 8.99499 11.1191C8.99499 11.3127 8.91486 11.4966 8.77462 11.6321C8.49416 11.9032 7.99332 11.9032 7.71286 11.6321C7.57262 11.4966 7.49249 11.3127 7.49249 11.1191C7.49249 10.7222 7.15192 10.393 6.74124 10.393C6.33055 10.393 5.98998 10.7125 5.98998 11.1191C5.98998 11.6902 6.23038 12.2517 6.65109 12.6583C7.07179 13.0649 7.64274 13.2972 8.24374 13.2972C8.84474 13.2972 9.41569 13.0745 9.83639 12.6583C10.2571 12.2517 10.4975 11.6902 10.4975 11.1191Z" fill="#1D2127"/>
</svg>
