<svg width="24" height="24" viewBox="0 0 24 24" fill="none" xmlns="http://www.w3.org/2000/svg">
<path d="M22.99 10.2C22.52 9.73004 21.93 9.41004 21.28 9.28004C20.57 4.50004 16.1 1.67004 12 1.67004C7.90002 1.67004 3.43002 4.50004 2.71002 9.29004C2.07002 9.41004 1.48002 9.73004 1.01002 10.2C0.37002 10.84 0.0200195 11.68 0.0200195 12.58C0.0200195 13.47 0.38002 14.34 1.01002 14.96C1.51002 15.46 2.15002 15.79 2.84002 15.9C3.49002 17.69 4.67002 19.28 6.20002 20.41C7.87002 21.65 9.93002 22.33 12 22.33C14.08 22.33 16.14 21.65 17.8 20.41C19.33 19.28 20.51 17.69 21.16 15.9C21.85 15.79 22.48 15.46 22.99 14.96C23.62 14.33 23.98 13.46 23.98 12.58C23.98 11.69 23.63 10.84 22.99 10.2ZM21.93 13.91C21.58 14.26 21.11 14.46 20.61 14.46C20.28 14.46 19.99 14.68 19.89 14.99C19.38 16.67 18.32 18.17 16.91 19.22C15.5 20.26 13.75 20.84 12 20.84C10.24 20.84 8.50002 20.26 7.09002 19.22C5.68002 18.18 4.62002 16.67 4.11002 14.99C4.01002 14.67 3.72002 14.46 3.39002 14.46C2.90002 14.46 2.42002 14.26 2.07002 13.91C1.72002 13.56 1.52002 13.08 1.52002 12.59C1.52002 12.09 1.71002 11.62 2.07002 11.27C2.42002 10.92 2.89002 10.72 3.39002 10.72C3.78002 10.72 4.11002 10.42 4.14002 10.03C4.47002 5.79004 8.48002 3.17004 12 3.17004C12.28 3.17004 12.55 3.25004 12.78 3.39004C13.01 3.53004 13.21 3.74004 13.33 3.98004C13.46 4.23004 13.51 4.50004 13.5 4.77004C13.48 5.04004 13.39 5.31004 13.23 5.53004C13.07 5.75004 12.85 5.93004 12.6 6.04004C12.35 6.15004 12.07 6.19004 11.8 6.15004C11.52 6.11004 11.27 6.00004 11.05 5.83004C10.84 5.66004 10.68 5.43004 10.58 5.17004C10.44 4.78004 10.02 4.58004 9.62002 4.71004C9.23002 4.85004 9.02002 5.28004 9.16002 5.67004C9.34002 6.19004 9.67002 6.65004 10.09 7.00004C10.52 7.35004 11.03 7.57004 11.57 7.65004C11.71 7.67004 11.84 7.68004 11.98 7.68004C12.39 7.68004 12.79 7.60004 13.17 7.43004C13.67 7.21004 14.11 6.86004 14.43 6.41004C14.75 5.96004 14.93 5.43004 14.97 4.88004C15 4.49004 14.94 4.09004 14.82 3.72004C17.37 4.69004 19.59 6.93004 19.84 10.03C19.87 10.42 20.2 10.72 20.59 10.72C21.09 10.72 21.56 10.91 21.91 11.27C22.26 11.62 22.46 12.09 22.46 12.59C22.48 13.08 22.28 13.56 21.93 13.91Z" fill="#171717"/>
<path d="M13.5 16.53C12.67 17.27 11.33 17.27 10.5 16.53C10.19 16.25 9.72002 16.28 9.44002 16.59C9.16002 16.9 9.19002 17.37 9.50002 17.65C10.19 18.27 11.08 18.61 12 18.61C12.92 18.61 13.81 18.27 14.5 17.66C14.81 17.38 14.83 16.91 14.56 16.6C14.28 16.28 13.81 16.25 13.5 16.53Z" fill="#171717"/>
<path d="M17.25 10.34C16.84 10.34 16.5 10.68 16.5 11.09C16.5 11.29 16.42 11.48 16.28 11.62C16 11.9 15.5 11.9 15.22 11.62C15.08 11.48 15 11.28 15 11.09C15 10.68 14.66 10.34 14.25 10.34C13.84 10.34 13.5 10.68 13.5 11.09C13.5 11.69 13.73 12.26 14.16 12.68C14.58 13.1 15.15 13.34 15.75 13.34C16.34 13.34 16.92 13.1 17.34 12.68C17.76 12.26 18 11.68 18 11.09C18 10.67 17.66 10.34 17.25 10.34Z" fill="#171717"/>
<path d="M10.5 11.09C10.5 10.68 10.16 10.34 9.75002 10.34C9.34002 10.34 9.00002 10.67 9.00002 11.09C9.00002 11.29 8.92002 11.48 8.78002 11.62C8.50002 11.9 8.00002 11.9 7.72002 11.62C7.58002 11.48 7.50002 11.29 7.50002 11.09C7.50002 10.68 7.16002 10.34 6.75002 10.34C6.34002 10.34 6.00002 10.67 6.00002 11.09C6.00002 11.68 6.24002 12.26 6.66002 12.68C7.08002 13.1 7.65002 13.34 8.25002 13.34C8.85002 13.34 9.42002 13.11 9.84002 12.68C10.26 12.26 10.5 11.68 10.5 11.09Z" fill="#171717"/>
</svg>
