<svg width="24" height="24" viewBox="0 0 24 24" fill="none" xmlns="http://www.w3.org/2000/svg">
<path d="M18.6894 5.32114C18.2753 4.90703 17.6064 4.90703 17.1923 5.32114L12 10.5028L6.80774 5.31052C6.39363 4.89641 5.72469 4.89641 5.31058 5.31052C4.89647 5.72463 4.89647 6.39357 5.31058 6.80768L10.5028 11.9999L5.31058 17.1922C4.89647 17.6063 4.89647 18.2753 5.31058 18.6894C5.72469 19.1035 6.39363 19.1035 6.80774 18.6894L12 13.4971L17.1923 18.6894C17.6064 19.1035 18.2753 19.1035 18.6894 18.6894C19.1035 18.2753 19.1035 17.6063 18.6894 17.1922L13.4972 11.9999L18.6894 6.80768C19.0929 6.40419 19.0929 5.72463 18.6894 5.32114Z" fill="#1D2127"/>
</svg>
