<svg width="24" height="24" viewBox="0 0 24 24" fill="none" xmlns="http://www.w3.org/2000/svg">
<g clip-path="url(#clip0_2862_15633)">
<path d="M12.08 10.3901C12.17 10.4701 12.25 10.5601 12.3 10.6701C12.35 10.7801 12.38 10.9001 12.39 11.0201C12.39 11.1401 12.37 11.2601 12.33 11.3801C12.29 11.4901 12.22 11.5901 12.13 11.6801C11.83 11.9701 11.83 12.4401 12.12 12.7401C12.27 12.8901 12.46 12.9701 12.66 12.9701C12.85 12.9701 13.04 12.9001 13.18 12.7601C13.42 12.5301 13.6 12.2501 13.72 11.9501C13.84 11.6401 13.9 11.3201 13.89 10.9901C13.88 10.6601 13.8 10.3401 13.66 10.0401C13.52 9.74006 13.32 9.48006 13.06 9.26006C12.89 9.12006 12.79 8.93006 12.77 8.71006C12.75 8.50006 12.81 8.28006 12.95 8.10006L13.56 7.28006C13.81 6.95006 13.74 6.48006 13.4 6.23006C13.07 5.98006 12.6 6.05006 12.35 6.38006L11.75 7.19006C11.38 7.67006 11.21 8.27006 11.28 8.87006C11.33 9.46006 11.62 10.0101 12.08 10.3901Z" fill="#171717"/>
<path d="M16.58 10.5301C16.67 10.6101 16.75 10.7101 16.8 10.8201C16.85 10.9301 16.88 11.0501 16.88 11.1701C16.88 11.2901 16.86 11.4101 16.82 11.5301C16.77 11.6401 16.71 11.7401 16.62 11.8301C16.32 12.1201 16.32 12.5901 16.61 12.8901C16.76 13.0401 16.95 13.1201 17.15 13.1201C17.34 13.1201 17.53 13.0501 17.67 12.9101C17.91 12.6801 18.09 12.4001 18.21 12.1001C18.33 11.7901 18.39 11.4701 18.38 11.1401C18.37 10.8101 18.29 10.4901 18.15 10.1901C18.01 9.89005 17.81 9.63005 17.54 9.40005C17.37 9.26005 17.27 9.07006 17.25 8.86005C17.23 8.65005 17.29 8.44006 17.43 8.25006L18.04 7.42006C18.29 7.09006 18.21 6.62006 17.88 6.37006C17.55 6.12006 17.08 6.20006 16.83 6.53006L16.24 7.34006C15.86 7.82006 15.69 8.42006 15.76 9.02006C15.83 9.61006 16.12 10.1601 16.58 10.5301Z" fill="#171717"/>
<path d="M20.69 11.3601C20.3 11.2301 19.87 11.4501 19.75 11.8401C19.62 12.2301 19.84 12.6601 20.23 12.7801C21.8 13.2801 22.5 13.9201 22.5 14.3201C22.5 15.2201 19.51 16.5701 15 16.5701C10.49 16.5701 7.49999 15.2201 7.49999 14.3201C7.49999 13.9201 8.19999 13.2901 9.77999 12.7801C10.17 12.6501 10.39 12.2301 10.27 11.8401C10.14 11.4501 9.71999 11.2301 9.32999 11.3501C8.39999 11.6501 7.73999 11.9801 7.24999 12.3301L6.49999 6.89006C6.32999 5.35006 5.71999 3.89006 4.73999 2.69006C3.75999 1.49006 2.45999 0.590055 0.989987 0.110055C0.589987 -0.0199447 0.169987 0.190055 0.0399869 0.590055C-0.0900131 0.980055 0.119987 1.40006 0.519987 1.53006C1.71999 1.92006 2.77999 2.65006 3.57999 3.63006C4.37999 4.61006 4.86999 5.80006 5.00999 7.07006L5.99999 14.3701V14.9301C5.99999 17.3301 6.93999 19.5901 8.63999 21.2901C10.34 22.9901 12.6 23.9301 15 23.9301C17.4 23.9301 19.66 22.9901 21.36 21.2901C23.06 19.5901 24 17.3301 24 14.9301V14.3201C24 13.4501 23.43 12.2401 20.69 11.3601ZM20.3 20.2301C18.88 21.6501 17 22.4301 15 22.4301C13 22.4301 11.11 21.6501 9.69999 20.2301C8.68999 19.2201 8.00999 17.9601 7.69999 16.6001C9.41999 17.5701 12.22 18.0701 15.01 18.0701C17.79 18.0701 20.6 17.5701 22.32 16.6001C22 17.9701 21.32 19.2201 20.3 20.2301Z" fill="#171717"/>
</g>
<defs>
<clipPath id="clip0_2862_15633">
<rect width="24" height="24" fill="white"/>
</clipPath>
</defs>
</svg>
