<svg width="24" height="24" viewBox="0 0 24 24" fill="none" xmlns="http://www.w3.org/2000/svg">
<g clip-path="url(#clip0_2861_15394)">
<path d="M9 7.95005V2.99005C9 2.19005 8.69 1.44005 8.12 0.870053C6.99 -0.269947 5.01 -0.259947 3.88 0.870053C3.31 1.43005 3 2.18005 3 2.99005V7.95005C1.12 10.1101 0.06 12.8601 0 15.7501C0.05 18.4301 1 21.0501 2.67 23.1301C2.88 23.3901 3.15 23.6101 3.45 23.7601C3.75 23.9101 4.09 23.9801 4.43 23.9801H7.56C7.9 23.9801 8.24 23.9001 8.54 23.7601C8.84 23.6101 9.12 23.4001 9.32 23.1401C10.99 21.0501 11.94 18.4301 11.99 15.7201C11.94 12.8601 10.88 10.1101 9 7.95005ZM4.5 7.49005V5.99005H7.5V7.49005H4.5ZM4.94 1.92005C5.22 1.65005 5.61 1.49005 6 1.49005C6.4 1.49005 6.78 1.65005 7.06 1.93005C7.34 2.21005 7.5 2.59005 7.5 2.99005V4.49005H4.5V2.99005C4.5 2.59005 4.66 2.21005 4.94 1.92005ZM8.16 22.2001C8.09 22.2901 8 22.3601 7.89 22.4101C7.79 22.4601 7.68 22.4801 7.56 22.4801H4.44C4.33 22.4801 4.21 22.4501 4.11 22.4001C4.01 22.3501 3.92 22.2801 3.85 22.1901C2.38 20.3601 1.55 18.0601 1.51 15.7401C1.56 13.2501 2.49 10.8601 4.11 8.97005H7.91C9.53 10.8601 10.46 13.2401 10.51 15.7101C10.46 18.0701 9.63 20.3701 8.16 22.2001Z" fill="#171717"/>
<path d="M22.96 11.7401C22.28 10.5201 21.3 9.48005 20.12 8.74005C18.94 8.00005 17.58 7.57005 16.18 7.50005C14.79 7.43005 13.39 7.71005 12.13 8.32005C11.76 8.50005 11.6 8.95005 11.78 9.32005C11.96 9.69005 12.41 9.85005 12.78 9.67005C13.81 9.17005 14.96 8.94005 16.09 9.00005C17.23 9.06005 18.34 9.41005 19.31 10.0201C20.28 10.6201 21.08 11.4701 21.64 12.4701C22.19 13.4701 22.49 14.6001 22.49 15.7401C22.49 16.8801 22.2 18.0101 21.64 19.0101C21.09 20.0101 20.28 20.8601 19.31 21.4601C18.34 22.0701 17.23 22.4201 16.09 22.4801C14.95 22.5501 13.8 22.3101 12.78 21.8101C12.41 21.6301 11.96 21.7801 11.78 22.1601C11.6 22.5301 11.75 22.9801 12.13 23.1601C13.25 23.7101 14.5 23.9901 15.74 23.9901C15.88 23.9901 16.03 23.9901 16.17 23.9801C17.56 23.9101 18.92 23.4801 20.11 22.7401C21.29 22.0001 22.28 20.9601 22.95 19.7401C23.62 18.5201 23.98 17.1401 23.98 15.7401C23.98 14.3401 23.64 12.9601 22.96 11.7401Z" fill="#171717"/>
<path d="M16.13 16.4801C16.7486 16.4801 17.25 15.9786 17.25 15.3601C17.25 14.7415 16.7486 14.2401 16.13 14.2401C15.5114 14.2401 15.01 14.7415 15.01 15.3601C15.01 15.9786 15.5114 16.4801 16.13 16.4801Z" fill="#171717"/>
<path d="M16.88 12.7301C17.4986 12.7301 18 12.2286 18 11.6101C18 10.9915 17.4986 10.4901 16.88 10.4901C16.2614 10.4901 15.76 10.9915 15.76 11.6101C15.76 12.2286 16.2614 12.7301 16.88 12.7301Z" fill="#171717"/>
<path d="M19.88 15.7301C20.4986 15.7301 21 15.2286 21 14.6101C21 13.9915 20.4986 13.4901 19.88 13.4901C19.2614 13.4901 18.76 13.9915 18.76 14.6101C18.76 15.2286 19.2614 15.7301 19.88 15.7301Z" fill="#171717"/>
</g>
<defs>
<clipPath id="clip0_2861_15394">
<rect width="24" height="24" fill="white"/>
</clipPath>
</defs>
</svg>
