<svg width="24" height="24" viewBox="0 0 24 24" fill="none" xmlns="http://www.w3.org/2000/svg">
<path fill-rule="evenodd" clip-rule="evenodd" d="M6.5 2.10568C7.05228 2.10568 7.5 2.55339 7.5 3.10568V20.8557C7.5 21.408 7.05228 21.8557 6.5 21.8557C5.94772 21.8557 5.5 21.408 5.5 20.8557V3.10568C5.5 2.55339 5.94772 2.10568 6.5 2.10568Z" fill="#101C2D"/>
<path fill-rule="evenodd" clip-rule="evenodd" d="M3 2.10568C3.55228 2.10568 4 2.55339 4 3.10568V8.729C4.00153 9.12678 4.16023 9.50785 4.44153 9.78915C4.72243 10.0701 6.10283 10.2287 6.5 10.2307C6.89717 10.2287 8.27757 10.0701 8.55847 9.78915C8.83978 9.50784 8.99848 9.12675 9 8.72895V3.10568C9 2.55339 9.44771 2.10568 10 2.10568C10.5523 2.10568 11 2.55339 11 3.10568V8.73367C10.9972 9.66028 10.6279 10.5481 9.97269 11.2034C9.31747 11.8586 7.4296 12.2279 6.50299 12.2307H6.49701C5.5704 12.2279 3.68253 11.8586 3.02731 11.2034C2.37209 10.5481 2.00277 9.66028 2 8.73367L2 8.73068V3.10568C2 2.55339 2.44772 2.10568 3 2.10568Z" fill="#101C2D"/>
<path fill-rule="evenodd" clip-rule="evenodd" d="M13.4743 2.14935C13.7691 1.96714 14.1372 1.95058 14.4472 2.10557C17.4444 3.60414 19.0715 6.38559 19.9487 9.01711C20.8275 11.6535 21 14.2694 21 15.6667C21 16.219 20.5523 16.6667 20 16.6667H15V21C15 21.5523 14.5523 22 14 22C13.4477 22 13 21.5523 13 21V3C13 2.65342 13.1795 2.33156 13.4743 2.14935ZM15 14.6667H18.971C18.8974 13.3377 18.6639 11.4874 18.0513 9.64956C17.4411 7.81903 16.4825 6.07805 15 4.84237V14.6667Z" fill="#101C2D"/>
</svg>
