<svg width="24" height="24" viewBox="0 0 24 24" fill="none" xmlns="http://www.w3.org/2000/svg">
<path d="M9.00751 7.94076V2.97482C9.00751 2.17386 8.69725 1.42296 8.12677 0.852275C6.99583 -0.289092 5.01418 -0.27908 3.88324 0.852275C3.31276 1.41295 3.0025 2.16385 3.0025 2.97482V7.94076C1.12093 10.1034 0.06005 12.8567 0 15.7501C0.0500417 18.4333 1.00083 21.0565 2.67223 23.139C2.8824 23.3993 3.15263 23.6195 3.45288 23.7697C3.75313 23.9199 4.09341 23.99 4.43369 23.99H7.5663C7.90659 23.99 8.24687 23.9099 8.54712 23.7697C8.84737 23.6195 9.12761 23.4093 9.32777 23.149C10.9992 21.0565 11.95 18.4333 12 15.7201C11.95 12.8567 10.8891 10.1034 9.00751 7.94076ZM4.50375 7.48021V5.97841H7.50626V7.48021H4.50375ZM4.94412 1.90353C5.22435 1.63321 5.61468 1.47302 6.005 1.47302C6.40534 1.47302 6.78565 1.63321 7.06589 1.91355C7.34612 2.19388 7.50626 2.57434 7.50626 2.97482V4.47662H4.50375V2.97482C4.50375 2.57434 4.66389 2.19388 4.94412 1.90353ZM8.16681 22.2079C8.09675 22.298 8.00667 22.368 7.89658 22.4181C7.7965 22.4682 7.6864 22.4882 7.5663 22.4882H4.4437C4.33361 22.4882 4.21351 22.4582 4.11343 22.4081C4.01334 22.358 3.92327 22.2879 3.85321 22.1978C2.38198 20.3656 1.55129 18.0629 1.51126 15.7401C1.5613 13.2471 2.49208 10.8543 4.11343 8.96199H7.9166C9.53795 10.8543 10.4687 13.2371 10.5188 15.7101C10.4687 18.0729 9.63803 20.3757 8.16681 22.2079Z" fill="#171717"/>
<path d="M22.9791 11.7353C22.2986 10.5138 21.3178 9.4726 20.1368 8.73171C18.9558 7.99082 17.5947 7.56031 16.1935 7.49022C14.8023 7.42014 13.4012 7.70048 12.1401 8.31121C11.7698 8.49142 11.6097 8.94196 11.7898 9.31241C11.97 9.68285 12.4203 9.84304 12.7907 9.66283C13.8215 9.16223 14.9725 8.93195 16.1034 8.99202C17.2444 9.0521 18.3553 9.40252 19.3261 10.0132C20.2969 10.614 21.0976 11.465 21.658 12.4662C22.2085 13.4674 22.5088 14.5987 22.5088 15.7401C22.5088 16.8815 22.2185 18.0128 21.658 19.014C21.1076 20.0152 20.2969 20.8662 19.3261 21.467C18.3553 22.0777 17.2444 22.4281 16.1034 22.4882C14.9625 22.5583 13.8115 22.318 12.7907 21.8174C12.4203 21.6372 11.97 21.7873 11.7898 22.1678C11.6097 22.5382 11.7598 22.9888 12.1401 23.169C13.2611 23.7197 14.5121 24 15.7531 24C15.8932 24 16.0434 24 16.1835 23.99C17.5746 23.9199 18.9358 23.4894 20.1268 22.7485C21.3078 22.0076 22.2986 20.9664 22.9691 19.7449C23.6397 18.5234 24 17.1418 24 15.7401C24 14.3384 23.6597 12.9568 22.9791 11.7353Z" fill="#171717"/>
<path d="M16.1435 16.481C16.7625 16.481 17.2644 15.979 17.2644 15.3597C17.2644 14.7403 16.7625 14.2383 16.1435 14.2383C15.5244 14.2383 15.0225 14.7403 15.0225 15.3597C15.0225 15.979 15.5244 16.481 16.1435 16.481Z" fill="#171717"/>
<path d="M16.8941 12.7265C17.5132 12.7265 18.015 12.2245 18.015 11.6052C18.015 10.9859 17.5132 10.4838 16.8941 10.4838C16.275 10.4838 15.7731 10.9859 15.7731 11.6052C15.7731 12.2245 16.275 12.7265 16.8941 12.7265Z" fill="#171717"/>
<path d="M19.8966 15.7301C20.5157 15.7301 21.0175 15.2281 21.0175 14.6088C21.0175 13.9895 20.5157 13.4874 19.8966 13.4874C19.2775 13.4874 18.7756 13.9895 18.7756 14.6088C18.7756 15.2281 19.2775 15.7301 19.8966 15.7301Z" fill="#171717"/>
</svg>
