<svg width="24" height="24" viewBox="0 0 24 24" fill="none" xmlns="http://www.w3.org/2000/svg">
<g clip-path="url(#clip0_2849_15094)">
<path d="M23.25 22.5H21V3.75C21 3.64 20.97 3.53 20.93 3.43C20.93 3.42 20.93 3.42 20.93 3.41L19.43 0.41C19.29 0.16 19.03 0 18.75 0H5.25C4.97 0 4.71 0.16 4.58 0.41L3.08 3.41C3.08 3.42 3.08 3.42 3.08 3.43C3.03 3.53 3 3.64 3 3.75V22.5H0.75C0.34 22.5 0 22.84 0 23.25C0 23.66 0.34 24 0.75 24H3.75H9.75H14.25H20.25H23.25C23.66 24 24 23.66 24 23.25C24 22.84 23.66 22.5 23.25 22.5ZM14.12 18.88C12.99 17.75 11.01 17.75 9.88 18.88C9.31 19.44 9 20.2 9 21V22.5H4.5V4.5H19.5V22.5H15V21C15 20.2 14.69 19.45 14.12 18.88ZM5.71 1.5H18.28L19.04 3H4.96L5.71 1.5ZM10.5 22.5V21C10.5 20.6 10.66 20.22 10.94 19.94C11.51 19.37 12.49 19.37 13.06 19.94C13.34 20.22 13.5 20.6 13.5 21V22.5H10.5Z" fill="#171717"/>
<path d="M7.5 7.87C8.11856 7.87 8.62 7.36856 8.62 6.75C8.62 6.13145 8.11856 5.63 7.5 5.63C6.88145 5.63 6.38 6.13145 6.38 6.75C6.38 7.36856 6.88145 7.87 7.5 7.87Z" fill="#171717"/>
<path d="M12 7.87C12.6186 7.87 13.12 7.36856 13.12 6.75C13.12 6.13145 12.6186 5.63 12 5.63C11.3814 5.63 10.88 6.13145 10.88 6.75C10.88 7.36856 11.3814 7.87 12 7.87Z" fill="#171717"/>
<path d="M16.5 7.87C17.1186 7.87 17.62 7.36856 17.62 6.75C17.62 6.13145 17.1186 5.63 16.5 5.63C15.8814 5.63 15.38 6.13145 15.38 6.75C15.38 7.36856 15.8814 7.87 16.5 7.87Z" fill="#171717"/>
<path d="M7.5 12.37C8.11856 12.37 8.62 11.8686 8.62 11.25C8.62 10.6314 8.11856 10.13 7.5 10.13C6.88145 10.13 6.38 10.6314 6.38 11.25C6.38 11.8686 6.88145 12.37 7.5 12.37Z" fill="#171717"/>
<path d="M12 12.37C12.6186 12.37 13.12 11.8686 13.12 11.25C13.12 10.6314 12.6186 10.13 12 10.13C11.3814 10.13 10.88 10.6314 10.88 11.25C10.88 11.8686 11.3814 12.37 12 12.37Z" fill="#171717"/>
<path d="M16.5 12.37C17.1186 12.37 17.62 11.8686 17.62 11.25C17.62 10.6314 17.1186 10.13 16.5 10.13C15.8814 10.13 15.38 10.6314 15.38 11.25C15.38 11.8686 15.8814 12.37 16.5 12.37Z" fill="#171717"/>
<path d="M7.5 16.87C8.11856 16.87 8.62 16.3686 8.62 15.75C8.62 15.1314 8.11856 14.63 7.5 14.63C6.88145 14.63 6.38 15.1314 6.38 15.75C6.38 16.3686 6.88145 16.87 7.5 16.87Z" fill="#171717"/>
<path d="M12 16.87C12.6186 16.87 13.12 16.3686 13.12 15.75C13.12 15.1314 12.6186 14.63 12 14.63C11.3814 14.63 10.88 15.1314 10.88 15.75C10.88 16.3686 11.3814 16.87 12 16.87Z" fill="#171717"/>
<path d="M16.5 16.87C17.1186 16.87 17.62 16.3686 17.62 15.75C17.62 15.1314 17.1186 14.63 16.5 14.63C15.8814 14.63 15.38 15.1314 15.38 15.75C15.38 16.3686 15.8814 16.87 16.5 16.87Z" fill="#171717"/>
</g>
<defs>
<clipPath id="clip0_2849_15094">
<rect width="24" height="24" fill="white"/>
</clipPath>
</defs>
</svg>
