<svg width="24" height="24" viewBox="0 0 24 24" fill="none" xmlns="http://www.w3.org/2000/svg">
<path fill-rule="evenodd" clip-rule="evenodd" d="M4.5 1C5.05228 1 5.5 1.44772 5.5 2V3.5H7C7.55228 3.5 8 3.94772 8 4.5C8 5.05228 7.55228 5.5 7 5.5H5.5V7C5.5 7.55228 5.05228 8 4.5 8C3.94772 8 3.5 7.55228 3.5 7V5.5H2C1.44772 5.5 1 5.05228 1 4.5C1 3.94772 1.44772 3.5 2 3.5H3.5V2C3.5 1.44772 3.94772 1 4.5 1ZM13 2C13.4138 2 13.7848 2.25483 13.9333 2.64102L15.6675 7.14988C15.9679 7.93093 16.0623 8.156 16.1914 8.33759C16.321 8.5198 16.4802 8.67899 16.6624 8.80855C16.844 8.93768 17.0691 9.03207 17.8501 9.33248L22.359 11.0667C22.7452 11.2152 23 11.5862 23 12C23 12.4138 22.7452 12.7848 22.359 12.9333L17.8501 14.6675C17.0691 14.9679 16.844 15.0623 16.6624 15.1914C16.4802 15.321 16.321 15.4802 16.1914 15.6624C16.0623 15.844 15.9679 16.0691 15.6675 16.8501L13.9333 21.359C13.7848 21.7452 13.4138 22 13 22C12.5862 22 12.2152 21.7452 12.0667 21.359L10.3325 16.8501C10.0321 16.0691 9.93768 15.844 9.80855 15.6624C9.67899 15.4802 9.5198 15.321 9.33759 15.1914C9.156 15.0623 8.93093 14.9679 8.14988 14.6675L3.64102 12.9333C3.25483 12.7848 3 12.4138 3 12C3 11.5862 3.25483 11.2152 3.64102 11.0667L8.14988 9.33248C8.93093 9.03207 9.156 8.93768 9.33759 8.80855C9.5198 8.67899 9.67899 8.5198 9.80855 8.33759C9.93768 8.156 10.0321 7.93093 10.3325 7.14988L12.0667 2.64102C12.2152 2.25483 12.5862 2 13 2ZM13 5.78568L12.1992 7.86784C12.1859 7.90231 12.1728 7.93634 12.1599 7.96993C11.9164 8.60419 11.7324 9.0833 11.4385 9.49658C11.1794 9.861 10.861 10.1794 10.4966 10.4385C10.0833 10.7324 9.60419 10.9164 8.96994 11.1599C8.93634 11.1728 8.90232 11.1859 8.86784 11.1992L6.78568 12L8.86784 12.8008C8.90232 12.8141 8.93634 12.8272 8.96993 12.8401C9.60419 13.0836 10.0833 13.2676 10.4966 13.5615C10.861 13.8206 11.1794 14.139 11.4385 14.5034C11.7324 14.9167 11.9164 15.3958 12.1599 16.0301C12.1728 16.0637 12.1859 16.0977 12.1992 16.1322L13 18.2143L13.8008 16.1322C13.8141 16.0977 13.8272 16.0637 13.8401 16.0301C14.0836 15.3958 14.2676 14.9167 14.5615 14.5034C14.8206 14.139 15.139 13.8206 15.5034 13.5615C15.9167 13.2676 16.3958 13.0836 17.0301 12.8401C17.0637 12.8272 17.0977 12.8141 17.1322 12.8008L19.2143 12L17.1322 11.1992C17.0977 11.1859 17.0637 11.1728 17.0301 11.1599C16.3958 10.9164 15.9167 10.7324 15.5034 10.4385C15.139 10.1794 14.8206 9.861 14.5615 9.49658C14.2676 9.08331 14.0836 8.60419 13.8401 7.96994C13.8272 7.93635 13.8141 7.90232 13.8008 7.86784L13 5.78568ZM4.5 16C5.05228 16 5.5 16.4477 5.5 17V18.5H7C7.55228 18.5 8 18.9477 8 19.5C8 20.0523 7.55228 20.5 7 20.5H5.5V22C5.5 22.5523 5.05228 23 4.5 23C3.94772 23 3.5 22.5523 3.5 22V20.5H2C1.44772 20.5 1 20.0523 1 19.5C1 18.9477 1.44772 18.5 2 18.5H3.5V17C3.5 16.4477 3.94772 16 4.5 16Z" fill="#0A0B0D"/>
</svg>
