<svg width="24" height="24" viewBox="0 0 24 24" fill="none" xmlns="http://www.w3.org/2000/svg">
<path d="M4.5 20C4.224 20 4 19.776 4 19.5C4 19.224 4.224 19 4.5 19H6V6.5C6 6.466 6.00333 6.432 6.01067 6.398C6.012 6.39067 6.014 6.38267 6.01667 6.37467C6.024 6.34733 6.032 6.32333 6.04267 6.3C6.046 6.29067 6.05067 6.28133 6.05467 6.27267L7.05267 4.27667C7.138 4.106 7.30933 4 7.5 4H16.5C16.6907 4 16.862 4.106 16.9473 4.27667L17.9473 6.27667C17.9513 6.28467 17.9547 6.29333 17.9587 6.30267C17.9713 6.332 17.9807 6.35933 17.9867 6.38667C17.9873 6.38933 17.988 6.39267 17.9887 6.39533C17.9967 6.432 18 6.466 18 6.5V19H19.5C19.776 19 20 19.224 20 19.5C20 19.776 19.776 20 19.5 20H4.5ZM17 19V7H7V19H10V18C10 16.8973 10.8973 16 12 16C13.1027 16 14 16.8973 14 18V19H17ZM13 19V18C13 17.4487 12.5513 17 12 17C11.4487 17 11 17.4487 11 18V19H13ZM16.6913 6L16.1913 5H7.80933L7.30933 6H16.6913Z" fill="#171717"/>
<path d="M9 9.25C8.97067 9.25 8.94133 9.24733 8.91267 9.242C8.57067 9.202 8.298 8.92867 8.258 8.58733C8.25267 8.55867 8.25 8.52933 8.25 8.5C8.25 8.47067 8.25267 8.44133 8.258 8.41267C8.298 8.07067 8.57133 7.798 8.91267 7.758C8.94133 7.75267 8.97067 7.75 9 7.75C9.02933 7.75 9.05867 7.75267 9.08733 7.758C9.42933 7.798 9.702 8.07133 9.742 8.41267C9.74733 8.44133 9.75 8.47067 9.75 8.5C9.75 8.52933 9.74733 8.55867 9.742 8.58733C9.702 8.92933 9.42867 9.202 9.08733 9.242C9.05867 9.24733 9.02933 9.25 9 9.25Z" fill="#171717"/>
<path d="M9 12.2501C8.97067 12.2501 8.94133 12.2474 8.91267 12.2427C8.57067 12.2021 8.298 11.9294 8.258 11.5881C8.25267 11.5594 8.25 11.5301 8.25 11.5007C8.25 11.4714 8.25267 11.4421 8.258 11.4134C8.298 11.0714 8.57133 10.7987 8.91267 10.7587C8.94133 10.7534 8.97067 10.7507 9 10.7507C9.02933 10.7507 9.05867 10.7534 9.08733 10.7587C9.42933 10.7987 9.702 11.0721 9.742 11.4134C9.74733 11.4421 9.75 11.4714 9.75 11.5007C9.75 11.5301 9.74733 11.5594 9.742 11.5881C9.702 11.9301 9.42867 12.2027 9.08733 12.2427C9.05867 12.2474 9.02933 12.2501 9 12.2501Z" fill="#171717"/>
<path d="M9 15.2501C8.97067 15.2501 8.94134 15.2474 8.91334 15.2427C8.57134 15.2027 8.298 14.9294 8.258 14.5881C8.25267 14.5594 8.25067 14.5301 8.25067 14.5007C8.25067 14.4714 8.25334 14.4421 8.258 14.4134C8.298 14.0714 8.57134 13.7987 8.91334 13.7581C8.94134 13.7534 8.97067 13.7507 9 13.7507C9.02934 13.7507 9.05867 13.7534 9.08667 13.7581C9.42867 13.7987 9.702 14.0714 9.742 14.4134C9.74734 14.4421 9.74934 14.4714 9.74934 14.5007C9.74934 14.5301 9.74667 14.5594 9.742 14.5881C9.702 14.9301 9.42867 15.2027 9.08667 15.2427C9.05867 15.2474 9.02934 15.2501 9 15.2501Z" fill="#171717"/>
<path d="M12 9.25C11.9707 9.25 11.9413 9.24733 11.9127 9.242C11.5707 9.202 11.298 8.92867 11.258 8.58733C11.2527 8.55867 11.25 8.52933 11.25 8.5C11.25 8.47067 11.2527 8.44133 11.258 8.41267C11.298 8.07067 11.5713 7.798 11.9127 7.758C11.9413 7.75267 11.9707 7.75 12 7.75C12.0293 7.75 12.0587 7.75267 12.0873 7.758C12.4293 7.798 12.702 8.07133 12.7427 8.41333C12.7473 8.44133 12.75 8.47067 12.75 8.5C12.75 8.52933 12.7473 8.55867 12.7427 8.58667C12.702 8.92867 12.4293 9.20133 12.0873 9.242C12.0587 9.24733 12.0293 9.25 12 9.25Z" fill="#171717"/>
<path d="M12 12.2501C11.9707 12.2501 11.9413 12.2474 11.9127 12.2427C11.5707 12.2021 11.298 11.9294 11.258 11.5881C11.2527 11.5594 11.25 11.5301 11.25 11.5007C11.25 11.4714 11.2527 11.4421 11.258 11.4134C11.298 11.0714 11.5713 10.7987 11.9127 10.7587C11.9413 10.7534 11.9707 10.7507 12 10.7507C12.0293 10.7507 12.0587 10.7534 12.0873 10.7587C12.4293 10.7987 12.702 11.0721 12.7427 11.4141C12.7473 11.4421 12.75 11.4714 12.75 11.5007C12.75 11.5301 12.7473 11.5594 12.7427 11.5874C12.702 11.9294 12.4293 12.2021 12.0873 12.2427C12.0587 12.2474 12.0293 12.2501 12 12.2501Z" fill="#171717"/>
<path d="M12 15.2501C11.9707 15.2501 11.9413 15.2474 11.9133 15.2427C11.5713 15.2027 11.298 14.9294 11.258 14.5881C11.2527 14.5594 11.2507 14.5301 11.2507 14.5007C11.2507 14.4714 11.2533 14.4421 11.258 14.4134C11.298 14.0714 11.5713 13.7987 11.9133 13.7581C11.9413 13.7534 11.9707 13.7507 12 13.7507C12.0293 13.7507 12.0587 13.7534 12.0867 13.7581C12.4287 13.7987 12.702 14.0714 12.742 14.4134C12.7473 14.4414 12.7493 14.4707 12.7493 14.5007C12.7493 14.5307 12.7467 14.5594 12.742 14.5881C12.702 14.9301 12.4287 15.2034 12.0867 15.2434C12.0587 15.2474 12.0293 15.2501 12 15.2501Z" fill="#171717"/>
<path d="M15 9.25001C14.9707 9.25001 14.9413 9.24734 14.9127 9.24268C14.5707 9.20268 14.298 8.92934 14.258 8.58734C14.2527 8.55934 14.2507 8.53001 14.2507 8.50068C14.2507 8.47134 14.2533 8.44201 14.258 8.41401C14.298 8.07201 14.5713 7.79868 14.9127 7.75868C14.9413 7.75334 14.9707 7.75134 15 7.75134C15.0293 7.75134 15.0587 7.75401 15.0873 7.75868C15.4293 7.79868 15.702 8.07201 15.7427 8.41401C15.7473 8.44201 15.75 8.47134 15.75 8.50068C15.75 8.53001 15.7473 8.55934 15.7427 8.58734C15.702 8.92934 15.4293 9.20268 15.0873 9.24268C15.0587 9.24734 15.0293 9.25001 15 9.25001Z" fill="#171717"/>
<path d="M15 12.25C14.9707 12.25 14.9413 12.2473 14.9127 12.2427C14.5707 12.202 14.298 11.9293 14.258 11.5873C14.2527 11.5593 14.2507 11.53 14.2507 11.5007C14.2507 11.4713 14.2533 11.442 14.258 11.414C14.298 11.072 14.5713 10.7987 14.9127 10.7587C14.9413 10.7533 14.9707 10.7513 15 10.7513C15.0293 10.7513 15.0587 10.754 15.0873 10.7587C15.4293 10.7987 15.702 11.072 15.7427 11.414C15.7473 11.442 15.75 11.4713 15.75 11.5007C15.75 11.53 15.7473 11.5593 15.7427 11.5873C15.702 11.9293 15.4293 12.202 15.0873 12.2427C15.0587 12.2473 15.0293 12.25 15 12.25Z" fill="#171717"/>
<path d="M15 15.2501C14.9707 15.2501 14.9413 15.2474 14.9133 15.2427C14.5713 15.2027 14.298 14.9294 14.258 14.5874C14.2533 14.5594 14.2507 14.5301 14.2507 14.5007C14.2507 14.4714 14.2533 14.4421 14.258 14.4134C14.298 14.0714 14.5713 13.7981 14.9133 13.7581C14.9413 13.7527 14.9707 13.7507 15.0007 13.7507C15.0307 13.7507 15.0593 13.7534 15.088 13.7581C15.43 13.7981 15.7033 14.0714 15.7433 14.4134C15.7487 14.4414 15.7507 14.4707 15.7507 14.5007C15.7507 14.5307 15.748 14.5594 15.7433 14.5881C15.7033 14.9301 15.43 15.2034 15.088 15.2434C15.0587 15.2474 15.0293 15.2501 15 15.2501Z" fill="#171717"/>
</svg>
