<svg width="24" height="24" viewBox="0 0 24 24" fill="none" xmlns="http://www.w3.org/2000/svg">
<path d="M4.5 20C4.224 20 4 19.776 4 19.5C4 19.224 4.224 19 4.5 19H6V6.5C6 6.466 6.00333 6.432 6.01067 6.398C6.012 6.39067 6.014 6.38267 6.01667 6.37467C6.024 6.34733 6.032 6.32333 6.04267 6.3C6.046 6.29067 6.05067 6.28133 6.05467 6.27267L7.05267 4.27667C7.138 4.106 7.30933 4 7.5 4H16.5C16.6907 4 16.862 4.106 16.9473 4.27667L17.9473 6.27667C17.9513 6.28467 17.9547 6.29333 17.9587 6.30267C17.9713 6.332 17.9807 6.35933 17.9867 6.38667C17.9873 6.38933 17.988 6.39267 17.9887 6.39533C17.9967 6.432 18 6.466 18 6.5V19H19.5C19.776 19 20 19.224 20 19.5C20 19.776 19.776 20 19.5 20H4.5ZM17 19V7H7V19H10V18C10 16.8973 10.8973 16 12 16C13.1027 16 14 16.8973 14 18V19H17ZM13 19V18C13 17.4487 12.5513 17 12 17C11.4487 17 11 17.4487 11 18V19H13ZM16.6913 6L16.1913 5H7.80933L7.30933 6H16.6913Z" fill="#171717"/>
<path d="M9 9.25C8.97067 9.25 8.94133 9.24733 8.91267 9.242C8.57067 9.202 8.298 8.92867 8.258 8.58733C8.25267 8.55867 8.25 8.52933 8.25 8.5C8.25 8.47067 8.25267 8.44133 8.258 8.41267C8.298 8.07067 8.57133 7.798 8.91267 7.758C8.94133 7.75267 8.97067 7.75 9 7.75C9.02933 7.75 9.05867 7.75267 9.08733 7.758C9.42933 7.798 9.702 8.07133 9.742 8.41267C9.74733 8.44133 9.75 8.47067 9.75 8.5C9.75 8.52933 9.74733 8.55867 9.742 8.58733C9.702 8.92933 9.42867 9.202 9.08733 9.242C9.05867 9.24733 9.02933 9.25 9 9.25Z" fill="#171717"/>
<path d="M9 12.25C8.97067 12.25 8.94133 12.2473 8.91267 12.2427C8.57067 12.202 8.298 11.9293 8.258 11.588C8.25267 11.5593 8.25 11.53 8.25 11.5007C8.25 11.4713 8.25267 11.442 8.258 11.4133C8.298 11.0713 8.57133 10.7987 8.91267 10.7587C8.94133 10.7533 8.97067 10.7507 9 10.7507C9.02933 10.7507 9.05867 10.7533 9.08733 10.7587C9.42933 10.7987 9.702 11.072 9.742 11.4133C9.74733 11.442 9.75 11.4713 9.75 11.5007C9.75 11.53 9.74733 11.5593 9.742 11.588C9.702 11.93 9.42867 12.2027 9.08733 12.2427C9.05867 12.2473 9.02933 12.25 9 12.25Z" fill="#171717"/>
<path d="M9.00001 15.25C8.97067 15.25 8.94134 15.2473 8.91334 15.2427C8.57134 15.2027 8.29801 14.9293 8.25801 14.588C8.25267 14.5593 8.25067 14.53 8.25067 14.5007C8.25067 14.4713 8.25334 14.442 8.25801 14.4133C8.29801 14.0713 8.57134 13.7987 8.91334 13.758C8.94134 13.7533 8.97067 13.7507 9.00001 13.7507C9.02934 13.7507 9.05867 13.7533 9.08667 13.758C9.42867 13.7987 9.70201 14.0713 9.74201 14.4133C9.74734 14.442 9.74934 14.4713 9.74934 14.5007C9.74934 14.53 9.74667 14.5593 9.74201 14.588C9.70201 14.93 9.42867 15.2027 9.08667 15.2427C9.05867 15.2473 9.02934 15.25 9.00001 15.25Z" fill="#171717"/>
<path d="M12 9.25C11.9707 9.25 11.9413 9.24733 11.9127 9.242C11.5707 9.202 11.298 8.92867 11.258 8.58733C11.2527 8.55867 11.25 8.52933 11.25 8.5C11.25 8.47067 11.2527 8.44133 11.258 8.41267C11.298 8.07067 11.5713 7.798 11.9127 7.758C11.9413 7.75267 11.9707 7.75 12 7.75C12.0293 7.75 12.0587 7.75267 12.0873 7.758C12.4293 7.798 12.702 8.07133 12.7427 8.41333C12.7473 8.44133 12.75 8.47067 12.75 8.5C12.75 8.52933 12.7473 8.55867 12.7427 8.58667C12.702 8.92867 12.4293 9.20133 12.0873 9.242C12.0587 9.24733 12.0293 9.25 12 9.25Z" fill="#171717"/>
<path d="M12 12.25C11.9707 12.25 11.9413 12.2473 11.9127 12.2427C11.5707 12.202 11.298 11.9293 11.258 11.588C11.2527 11.5593 11.25 11.53 11.25 11.5007C11.25 11.4713 11.2527 11.442 11.258 11.4133C11.298 11.0713 11.5713 10.7987 11.9127 10.7587C11.9413 10.7533 11.9707 10.7507 12 10.7507C12.0293 10.7507 12.0587 10.7533 12.0873 10.7587C12.4293 10.7987 12.702 11.072 12.7427 11.414C12.7473 11.442 12.75 11.4713 12.75 11.5007C12.75 11.53 12.7473 11.5593 12.7427 11.5873C12.702 11.9293 12.4293 12.202 12.0873 12.2427C12.0587 12.2473 12.0293 12.25 12 12.25Z" fill="#171717"/>
<path d="M12 15.25C11.9707 15.25 11.9413 15.2473 11.9133 15.2427C11.5713 15.2027 11.298 14.9293 11.258 14.588C11.2527 14.5593 11.2507 14.53 11.2507 14.5007C11.2507 14.4713 11.2533 14.442 11.258 14.4133C11.298 14.0713 11.5713 13.7987 11.9133 13.758C11.9413 13.7533 11.9707 13.7507 12 13.7507C12.0293 13.7507 12.0587 13.7533 12.0867 13.758C12.4287 13.7987 12.702 14.0713 12.742 14.4133C12.7473 14.4413 12.7493 14.4707 12.7493 14.5007C12.7493 14.5307 12.7467 14.5593 12.742 14.588C12.702 14.93 12.4287 15.2033 12.0867 15.2433C12.0587 15.2473 12.0293 15.25 12 15.25Z" fill="#171717"/>
<path d="M15 9.25002C14.9707 9.25002 14.9413 9.24735 14.9127 9.24268C14.5707 9.20268 14.298 8.92935 14.258 8.58735C14.2527 8.55935 14.2507 8.53002 14.2507 8.50068C14.2507 8.47135 14.2533 8.44202 14.258 8.41402C14.298 8.07202 14.5713 7.79868 14.9127 7.75868C14.9413 7.75335 14.9707 7.75135 15 7.75135C15.0293 7.75135 15.0587 7.75402 15.0873 7.75868C15.4293 7.79868 15.702 8.07202 15.7427 8.41402C15.7473 8.44202 15.75 8.47135 15.75 8.50068C15.75 8.53002 15.7473 8.55935 15.7427 8.58735C15.702 8.92935 15.4293 9.20268 15.0873 9.24268C15.0587 9.24735 15.0293 9.25002 15 9.25002Z" fill="#171717"/>
<path d="M15 12.25C14.9707 12.25 14.9413 12.2473 14.9127 12.2427C14.5707 12.202 14.298 11.9293 14.258 11.5873C14.2527 11.5593 14.2507 11.53 14.2507 11.5007C14.2507 11.4713 14.2533 11.442 14.258 11.414C14.298 11.072 14.5713 10.7987 14.9127 10.7587C14.9413 10.7533 14.9707 10.7513 15 10.7513C15.0293 10.7513 15.0587 10.754 15.0873 10.7587C15.4293 10.7987 15.702 11.072 15.7427 11.414C15.7473 11.442 15.75 11.4713 15.75 11.5007C15.75 11.53 15.7473 11.5593 15.7427 11.5873C15.702 11.9293 15.4293 12.202 15.0873 12.2427C15.0587 12.2473 15.0293 12.25 15 12.25Z" fill="#171717"/>
<path d="M15 15.25C14.9707 15.25 14.9413 15.2473 14.9133 15.2427C14.5713 15.2027 14.298 14.9293 14.258 14.5873C14.2533 14.5593 14.2507 14.53 14.2507 14.5007C14.2507 14.4713 14.2533 14.442 14.258 14.4133C14.298 14.0713 14.5713 13.798 14.9133 13.758C14.9413 13.7527 14.9707 13.7507 15.0007 13.7507C15.0307 13.7507 15.0593 13.7533 15.088 13.758C15.43 13.798 15.7033 14.0713 15.7433 14.4133C15.7487 14.4413 15.7507 14.4707 15.7507 14.5007C15.7507 14.5307 15.748 14.5593 15.7433 14.588C15.7033 14.93 15.43 15.2033 15.088 15.2433C15.0587 15.2473 15.0293 15.25 15 15.25Z" fill="#171717"/>
</svg>
