<svg width="24" height="24" viewBox="0 0 24 24" fill="none" xmlns="http://www.w3.org/2000/svg">
<path d="M12.0784 10.3796C12.1684 10.4601 12.2484 10.5506 12.2984 10.6613C12.3484 10.772 12.3784 10.8927 12.3884 11.0134C12.3884 11.1341 12.3684 11.2548 12.3284 11.3755C12.2884 11.4862 12.2184 11.5868 12.1284 11.6773C11.8284 11.969 11.8284 12.4418 12.1184 12.7436C12.2684 12.8945 12.4584 12.975 12.6584 12.975C12.8484 12.975 13.0384 12.9045 13.1784 12.7637C13.4184 12.5323 13.5984 12.2507 13.7184 11.9489C13.8384 11.6371 13.8984 11.3152 13.8884 10.9832C13.8784 10.6512 13.7984 10.3293 13.6584 10.0276C13.5184 9.72578 13.3184 9.46424 13.0584 9.24293C12.8884 9.1021 12.7884 8.91097 12.7684 8.68967C12.7484 8.47842 12.8084 8.25712 12.9484 8.07605L13.5584 7.25118C13.8084 6.91922 13.7384 6.44643 13.3984 6.19495C13.0684 5.94347 12.5984 6.01388 12.3484 6.34584L11.7484 7.16065C11.3784 7.6435 11.2084 8.24706 11.2784 8.85062C11.3284 9.44412 11.6184 9.99738 12.0784 10.3796Z" fill="#171717"/>
<path d="M16.5784 10.5205C16.6684 10.6009 16.7484 10.7015 16.7984 10.8122C16.8484 10.9228 16.8784 11.0436 16.8784 11.1643C16.8784 11.285 16.8584 11.4057 16.8184 11.5264C16.7684 11.6371 16.7084 11.7377 16.6184 11.8282C16.3184 12.1199 16.3184 12.5927 16.6084 12.8945C16.7584 13.0454 16.9484 13.1258 17.1484 13.1258C17.3384 13.1258 17.5284 13.0554 17.6684 12.9146C17.9084 12.6832 18.0884 12.4016 18.2084 12.0998C18.3284 11.7879 18.3884 11.466 18.3784 11.1341C18.3684 10.8021 18.2884 10.4802 18.1484 10.1785C18.0084 9.87667 17.8084 9.61513 17.5384 9.38376C17.3684 9.24293 17.2684 9.0518 17.2484 8.84056C17.2284 8.62931 17.2884 8.41807 17.4284 8.22694L18.0384 7.39201C18.2884 7.06005 18.2084 6.58726 17.8784 6.33578C17.5484 6.0843 17.0784 6.16477 16.8284 6.49673L16.2384 7.31154C15.8584 7.79439 15.6884 8.39795 15.7584 9.00151C15.8284 9.59501 16.1184 10.1483 16.5784 10.5205Z" fill="#171717"/>
<path d="M20.6884 11.3554C20.2984 11.2246 19.8684 11.4459 19.7484 11.8382C19.6184 12.2306 19.8384 12.6631 20.2284 12.7838C21.7984 13.2868 22.4984 13.9306 22.4984 14.333C22.4984 15.2383 19.5084 16.5963 14.9984 16.5963C10.4884 16.5963 7.4984 15.2383 7.4984 14.333C7.4984 13.9306 8.1984 13.2969 9.7784 12.7838C10.1684 12.6531 10.3884 12.2306 10.2684 11.8382C10.1384 11.4459 9.7184 11.2246 9.3284 11.3453C8.3984 11.6471 7.7384 11.9791 7.2484 12.3312L6.4984 6.85887C6.3284 5.30973 5.7184 3.84106 4.7384 2.63394C3.7584 1.42682 2.4584 0.521477 0.9884 0.0386279C0.5884 -0.0921436 0.1684 0.119103 0.0384 0.521477C-0.0916 0.913791 0.1184 1.33628 0.5184 1.46706C1.7184 1.85937 2.7784 2.5937 3.5784 3.57952C4.3784 4.56534 4.8684 5.7624 5.0084 7.03994L5.9984 14.3833V14.9466C5.9984 17.3608 6.9384 19.6342 8.6384 21.3443C10.3384 23.0544 12.5984 24 14.9984 24C17.3984 24 19.6584 23.0544 21.3584 21.3443C23.0584 19.6342 23.9984 17.3608 23.9984 14.9466V14.333C23.9984 13.4578 23.4284 12.2406 20.6884 11.3554ZM20.2984 20.278C18.8784 21.7065 16.9984 22.4911 14.9984 22.4911C12.9984 22.4911 11.1084 21.7065 9.6984 20.278C8.6884 19.262 8.0084 17.9946 7.6984 16.6265C9.4184 17.6023 12.2184 18.1052 15.0084 18.1052C17.7884 18.1052 20.5984 17.6023 22.3184 16.6265C21.9984 18.0046 21.3184 19.262 20.2984 20.278Z" fill="#171717"/>
</svg>
