<svg width="24" height="24" viewBox="0 0 24 24" fill="none" xmlns="http://www.w3.org/2000/svg">
<g clip-path="url(#clip0_2878_15090)">
<path d="M4.5 12H6.82L7.05 14.32C7.1 14.74 7.46 15.04 7.88 15C8.29 14.96 8.59 14.59 8.55 14.18L8.33 12H15.67L15.45 14.17C15.41 14.58 15.71 14.95 16.12 14.99C16.15 14.99 16.17 14.99 16.2 14.99C16.58 14.99 16.91 14.7 16.95 14.32L17.18 12H19.5C19.91 12 20.25 11.66 20.25 11.25C20.25 10.84 19.91 10.5 19.5 10.5H16.5H7.5H4.5C4.09 10.5 3.75 10.84 3.75 11.25C3.75 11.66 4.09 12 4.5 12Z" fill="#171717"/>
<path d="M9.32007 8.74C9.65007 8.35 10.0601 8.04 10.5201 7.83C11.4501 7.4 12.5501 7.4 13.4701 7.83C13.9301 8.04 14.3501 8.36 14.6701 8.74C14.8301 8.91 15.0401 9 15.2501 9C15.4201 9 15.6001 8.94 15.7401 8.82C16.0601 8.55 16.0901 8.08 15.8201 7.76C15.3501 7.21 14.7601 6.76 14.1001 6.46C13.9601 6.39 13.8101 6.34 13.6701 6.29C14.6801 5.71 15.3801 4.63 15.3801 3.37C15.3801 1.51 13.8601 0 12.0001 0C10.1401 0 8.63007 1.51 8.63007 3.37C8.63007 4.62 9.32007 5.7 10.3301 6.28C10.1801 6.34 10.0401 6.4 9.90007 6.46C9.24007 6.76 8.65007 7.21 8.18007 7.76C7.91007 8.08 7.95007 8.55 8.26007 8.82C8.58007 9.09 9.05007 9.05 9.32007 8.74ZM12.0001 1.5C13.0301 1.5 13.8801 2.34 13.8801 3.38C13.8801 4.42 13.0301 5.25 12.0001 5.25C10.9701 5.25 10.1201 4.41 10.1201 3.38C10.1201 2.35 10.9701 1.5 12.0001 1.5Z" fill="#171717"/>
<path d="M6.10005 21.46C5.96005 21.39 5.81005 21.34 5.67005 21.29C6.68005 20.71 7.38005 19.63 7.38005 18.37C7.37005 16.51 5.86005 15 4.00005 15C2.14005 15 0.620047 16.51 0.620047 18.38C0.620047 19.63 1.31005 20.71 2.32005 21.29C2.17005 21.34 2.03005 21.4 1.88005 21.46C1.23005 21.76 0.630047 22.21 0.160047 22.76C-0.109953 23.08 -0.0699533 23.55 0.240047 23.82C0.560047 24.09 1.03005 24.05 1.30005 23.74C1.63005 23.35 2.05005 23.04 2.50005 22.83C3.43005 22.4 4.53005 22.4 5.45005 22.83C5.91005 23.04 6.33005 23.36 6.65005 23.74C6.83005 23.91 7.04005 24 7.25005 24C7.42005 24 7.60005 23.94 7.74005 23.82C8.05005 23.55 8.09005 23.08 7.82005 22.76C7.35005 22.21 6.76005 21.76 6.10005 21.46ZM4.00005 16.5C5.03005 16.5 5.87005 17.34 5.87005 18.38C5.87005 19.42 5.03005 20.25 4.00005 20.25C2.97005 20.25 2.12005 19.41 2.12005 18.37C2.12005 17.33 2.97005 16.5 4.00005 16.5Z" fill="#171717"/>
<path d="M14.1 21.46C13.96 21.39 13.81 21.34 13.67 21.29C14.68 20.71 15.38 19.63 15.38 18.37C15.38 16.51 13.87 14.99 12 14.99C10.13 14.99 8.62005 16.5 8.62005 18.37C8.62005 19.62 9.31005 20.7 10.32 21.28C10.17 21.33 10.03 21.39 9.88005 21.45C9.23005 21.75 8.63005 22.2 8.16005 22.75C7.89005 23.07 7.93005 23.54 8.24005 23.81C8.40005 23.94 8.58005 24 8.75005 24C8.96005 24 9.17005 23.91 9.32005 23.74C9.65005 23.35 10.07 23.04 10.52 22.83C11.45 22.4 12.55 22.4 13.47 22.83C13.93 23.04 14.35 23.36 14.68 23.74C14.95 24.06 15.42 24.09 15.74 23.82C16.06 23.55 16.09 23.08 15.82 22.76C15.35 22.21 14.76 21.76 14.1 21.46ZM12 16.5C13.03 16.5 13.88 17.34 13.88 18.38C13.88 19.42 13.04 20.26 12 20.26C10.97 20.26 10.12 19.42 10.12 18.38C10.12 17.34 10.97 16.5 12 16.5Z" fill="#171717"/>
<path d="M23.8201 22.76C23.3401 22.2 22.7701 21.77 22.1001 21.46C21.9501 21.39 21.7901 21.36 21.6401 21.31C22.6701 20.73 23.3801 19.64 23.3801 18.38C23.3801 16.52 21.8701 15 20.0001 15C18.1301 15 16.6201 16.51 16.6201 18.38C16.6201 19.64 17.3301 20.73 18.3601 21.31C18.2001 21.36 18.0401 21.4 17.8901 21.46C17.2301 21.76 16.6401 22.21 16.1701 22.76C15.9001 23.08 15.9401 23.55 16.2501 23.82C16.5601 24.09 17.0401 24.05 17.3101 23.74C17.6401 23.36 18.0601 23.04 18.5101 22.83C19.4301 22.41 20.5401 22.41 21.4601 22.83C21.9301 23.05 22.3301 23.35 22.6701 23.74C22.8201 23.91 23.0301 24 23.2401 24C23.4101 24 23.5901 23.94 23.7301 23.82C24.0501 23.55 24.0901 23.08 23.8201 22.76ZM20.0001 16.5C21.0301 16.5 21.8801 17.34 21.8801 18.38C21.8801 19.42 21.0401 20.26 20.0001 20.26C18.9601 20.26 18.1201 19.42 18.1201 18.38C18.1201 17.34 18.9701 16.5 20.0001 16.5Z" fill="#171717"/>
</g>
<defs>
<clipPath id="clip0_2878_15090">
<rect width="24" height="24" fill="white"/>
</clipPath>
</defs>
</svg>
