<svg width="24" height="24" viewBox="0 0 24 24" fill="none" xmlns="http://www.w3.org/2000/svg">
<path fill-rule="evenodd" clip-rule="evenodd" d="M1 3C1 2.44772 1.44772 2 2 2H22C22.5523 2 23 2.44772 23 3C23 3.55228 22.5523 4 22 4V11.2413C22 12.0463 22 12.7106 21.9558 13.2518C21.9099 13.8139 21.8113 14.3306 21.564 14.816C21.1805 15.5686 20.5686 16.1805 19.816 16.564C19.3306 16.8113 18.8139 16.9099 18.2518 16.9558C17.7106 17 17.0463 17 16.2413 17H14.762L18.6402 20.2318C19.0645 20.5853 19.1218 21.2159 18.7682 21.6402C18.4147 22.0645 17.7841 22.1218 17.3598 21.7682L13.4084 18.4754C13.2506 18.3439 13.1167 18.2324 13 18.1371V21C13 21.5523 12.5523 22 12 22C11.4477 22 11 21.5523 11 21V18.1371C10.8833 18.2324 10.7494 18.3439 10.5916 18.4754L6.64018 21.7682C6.21591 22.1218 5.58534 22.0645 5.23178 21.6402C4.87821 21.2159 4.93554 20.5853 5.35982 20.2318L9.23795 17H7.75872C6.95374 17 6.28937 17 5.74817 16.9558C5.18608 16.9099 4.66937 16.8113 4.18404 16.564C3.43139 16.1805 2.81947 15.5686 2.43597 14.816C2.18868 14.3306 2.09012 13.8139 2.04419 13.2518C1.99998 12.7106 1.99999 12.0463 2 11.2413V4C1.44772 4 1 3.55228 1 3ZM4 4V11.2C4 12.0566 4.00078 12.6389 4.03755 13.089C4.07337 13.5274 4.1383 13.7516 4.21799 13.908C4.40973 14.2843 4.7157 14.5903 5.09202 14.782C5.24842 14.8617 5.47262 14.9266 5.91104 14.9624C6.36113 14.9992 6.94342 15 7.8 15H16.2C17.0566 15 17.6389 14.9992 18.089 14.9624C18.5274 14.9266 18.7516 14.8617 18.908 14.782C19.2843 14.5903 19.5903 14.2843 19.782 13.908C19.8617 13.7516 19.9266 13.5274 19.9624 13.089C19.9992 12.6389 20 12.0566 20 11.2V4H4ZM16 6C16.5523 6 17 6.44772 17 7V12C17 12.5523 16.5523 13 16 13C15.4477 13 15 12.5523 15 12V7C15 6.44772 15.4477 6 16 6ZM12 8C12.5523 8 13 8.44772 13 9V12C13 12.5523 12.5523 13 12 13C11.4477 13 11 12.5523 11 12V9C11 8.44772 11.4477 8 12 8ZM8 10C8.55228 10 9 10.4477 9 11V12C9 12.5523 8.55228 13 8 13C7.44772 13 7 12.5523 7 12V11C7 10.4477 7.44772 10 8 10Z" fill="#101C2D"/>
</svg>
