<svg width="24" height="25" viewBox="0 0 24 25" fill="none" xmlns="http://www.w3.org/2000/svg">
<path d="M4.51629 12H6.83448L7.0643 14.32C7.11426 14.74 7.47398 15.04 7.89365 15C8.30333 14.96 8.6031 14.59 8.56313 14.18L8.3433 12H15.6776L15.4577 14.17C15.4178 14.58 15.7175 14.95 16.1272 14.99C16.1572 14.99 16.1772 14.99 16.2072 14.99C16.5869 14.99 16.9166 14.7 16.9566 14.32L17.1864 12H19.5046C19.9143 12 20.254 11.66 20.254 11.25C20.254 10.84 19.9143 10.5 19.5046 10.5H4.51629C4.10661 10.5 3.76688 10.84 3.76688 11.25C3.76688 11.66 4.10661 12 4.51629 12Z" fill="#1D2127"/>
<path d="M9.33253 8.74C9.66227 8.35 10.072 8.04 10.5316 7.83C11.4609 7.4 12.56 7.4 13.4793 7.83C13.9389 8.04 14.3586 8.36 14.6784 8.74C14.8382 8.91 15.0481 9 15.2579 9C15.4278 9 15.6076 8.94 15.7475 8.82C16.0673 8.55 16.0972 8.08 15.8275 7.76C15.3578 7.21 14.7683 6.76 14.1088 6.46C13.9689 6.39 13.819 6.34 13.6791 6.29C14.6883 5.71 15.3878 4.63 15.3878 3.37C15.3878 1.51 13.869 0 12.0104 0C10.1519 0 8.64307 1.51 8.64307 3.37C8.64307 4.62 9.33253 5.7 10.3417 6.28C10.1919 6.34 10.052 6.4 9.91208 6.46C9.25259 6.76 8.66305 7.21 8.19342 7.76C7.92363 8.08 7.9636 8.55 8.27336 8.82C8.59311 9.09 9.06274 9.05 9.33253 8.74ZM12.0104 1.5C13.0396 1.5 13.889 2.34 13.889 3.38C13.889 4.42 13.0396 5.25 12.0104 5.25C10.9812 5.25 10.1319 4.41 10.1319 3.38C10.1319 2.35 10.9812 1.5 12.0104 1.5Z" fill="#1D2127"/>
<path d="M6.11504 21.46C5.97515 21.39 5.82527 21.34 5.68538 21.29C6.69459 20.71 7.39404 19.63 7.39404 18.37C7.38405 16.51 5.87523 15 4.01668 15C2.15814 15 0.639323 16.51 0.639323 18.38C0.639323 19.63 1.32878 20.71 2.338 21.29C2.18811 21.34 2.04822 21.4 1.89834 21.46C1.24885 21.76 0.649315 22.21 0.179682 22.76C-0.0901075 23.08 -0.0501388 23.55 0.259619 23.82C0.579369 24.09 1.049 24.05 1.31879 23.74C1.64853 23.35 2.06821 23.04 2.51785 22.83C3.44713 22.4 4.54627 22.4 5.46555 22.83C5.92519 23.04 6.34486 23.36 6.66461 23.74C6.84447 23.91 7.05431 24 7.26415 24C7.43401 24 7.61387 23.94 7.75376 23.82C8.06352 23.55 8.10349 23.08 7.8337 22.76C7.36407 22.21 6.77453 21.76 6.11504 21.46ZM4.01668 16.5C5.04588 16.5 5.88522 17.34 5.88522 18.38C5.88522 19.42 5.04588 20.25 4.01668 20.25C2.98749 20.25 2.13815 19.41 2.13815 18.37C2.13815 17.33 2.98749 16.5 4.01668 16.5Z" fill="#1D2127"/>
<path d="M14.1088 21.46C13.9689 21.39 13.819 21.34 13.6791 21.29C14.6883 20.71 15.3878 19.63 15.3878 18.37C15.3878 16.51 13.879 14.99 12.0104 14.99C10.1419 14.99 8.63308 16.5 8.63308 18.37C8.63308 19.62 9.32254 20.7 10.3317 21.28C10.1819 21.33 10.042 21.39 9.89209 21.45C9.2426 21.75 8.64307 22.2 8.17344 22.75C7.90365 23.07 7.94361 23.54 8.25337 23.81C8.41325 23.94 8.59311 24 8.76297 24C8.97281 24 9.18265 23.91 9.33253 23.74C9.66227 23.35 10.0819 23.04 10.5316 22.83C11.4609 22.4 12.56 22.4 13.4793 22.83C13.9389 23.04 14.3586 23.36 14.6883 23.74C14.9581 24.06 15.4278 24.09 15.7475 23.82C16.0673 23.55 16.0972 23.08 15.8275 22.76C15.3578 22.21 14.7683 21.76 14.1088 21.46ZM12.0104 16.5C13.0396 16.5 13.889 17.34 13.889 18.38C13.889 19.42 13.0496 20.26 12.0104 20.26C10.9812 20.26 10.1319 19.42 10.1319 18.38C10.1319 17.34 10.9812 16.5 12.0104 16.5Z" fill="#1D2127"/>
<path d="M23.8212 22.76C23.3416 22.2 22.772 21.77 22.1026 21.46C21.9527 21.39 21.7928 21.36 21.6429 21.31C22.6721 20.73 23.3816 19.64 23.3816 18.38C23.3816 16.52 21.8727 15 20.0042 15C18.1357 15 16.6268 16.51 16.6268 18.38C16.6268 19.64 17.3363 20.73 18.3655 21.31C18.2056 21.36 18.0457 21.4 17.8958 21.46C17.2364 21.76 16.6468 22.21 16.1772 22.76C15.9074 23.08 15.9474 23.55 16.2571 23.82C16.5669 24.09 17.0465 24.05 17.3163 23.74C17.646 23.36 18.0657 23.04 18.5154 22.83C19.4346 22.41 20.5438 22.41 21.4631 22.83C21.9327 23.05 22.3324 23.35 22.6721 23.74C22.822 23.91 23.0318 24 23.2417 24C23.4115 24 23.5914 23.94 23.7313 23.82C24.051 23.55 24.091 23.08 23.8212 22.76ZM20.0042 16.5C21.0334 16.5 21.8827 17.34 21.8827 18.38C21.8827 19.42 21.0434 20.26 20.0042 20.26C18.965 20.26 18.1257 19.42 18.1257 18.38C18.1257 17.34 18.975 16.5 20.0042 16.5Z" fill="#1D2127"/>
</svg>
