<svg width="24" height="24" viewBox="0 0 24 24" fill="none" xmlns="http://www.w3.org/2000/svg">
<g clip-path="url(#clip0_2878_15090)">
<path d="M4.50005 12H6.82005L7.05005 14.32C7.10005 14.74 7.46005 15.04 7.88005 15C8.29005 14.96 8.59005 14.59 8.55005 14.18L8.33005 12H15.67L15.45 14.17C15.41 14.58 15.71 14.95 16.12 14.99C16.15 14.99 16.17 14.99 16.2 14.99C16.58 14.99 16.91 14.7 16.95 14.32L17.18 12H19.5C19.91 12 20.25 11.66 20.25 11.25C20.25 10.84 19.91 10.5 19.5 10.5H4.50005C4.09005 10.5 3.75005 10.84 3.75005 11.25C3.75005 11.66 4.09005 12 4.50005 12Z" fill="#171717"/>
<path d="M9.32005 8.74C9.65005 8.35 10.06 8.04 10.52 7.83C11.45 7.4 12.55 7.4 13.47 7.83C13.93 8.04 14.35 8.36 14.67 8.74C14.83 8.91 15.04 9 15.25 9C15.42 9 15.6 8.94 15.74 8.82C16.06 8.55 16.09 8.08 15.82 7.76C15.35 7.21 14.76 6.76 14.1 6.46C13.96 6.39 13.81 6.34 13.67 6.29C14.68 5.71 15.38 4.63 15.38 3.37C15.38 1.51 13.86 0 12 0C10.14 0 8.63005 1.51 8.63005 3.37C8.63005 4.62 9.32005 5.7 10.33 6.28C10.18 6.34 10.04 6.4 9.90005 6.46C9.24005 6.76 8.65005 7.21 8.18005 7.76C7.91005 8.08 7.95005 8.55 8.26005 8.82C8.58005 9.09 9.05005 9.05 9.32005 8.74ZM12 1.5C13.03 1.5 13.88 2.34 13.88 3.38C13.88 4.42 13.03 5.25 12 5.25C10.97 5.25 10.12 4.41 10.12 3.38C10.12 2.35 10.97 1.5 12 1.5Z" fill="#171717"/>
<path d="M6.10005 21.46C5.96005 21.39 5.81005 21.34 5.67005 21.29C6.68005 20.71 7.38005 19.63 7.38005 18.37C7.37005 16.51 5.86005 15 4.00005 15C2.14005 15 0.620047 16.51 0.620047 18.38C0.620047 19.63 1.31005 20.71 2.32005 21.29C2.17005 21.34 2.03005 21.4 1.88005 21.46C1.23005 21.76 0.630047 22.21 0.160047 22.76C-0.109953 23.08 -0.0699533 23.55 0.240047 23.82C0.560047 24.09 1.03005 24.05 1.30005 23.74C1.63005 23.35 2.05005 23.04 2.50005 22.83C3.43005 22.4 4.53005 22.4 5.45005 22.83C5.91005 23.04 6.33005 23.36 6.65005 23.74C6.83005 23.91 7.04005 24 7.25005 24C7.42005 24 7.60005 23.94 7.74005 23.82C8.05005 23.55 8.09005 23.08 7.82005 22.76C7.35005 22.21 6.76005 21.76 6.10005 21.46ZM4.00005 16.5C5.03005 16.5 5.87005 17.34 5.87005 18.38C5.87005 19.42 5.03005 20.25 4.00005 20.25C2.97005 20.25 2.12005 19.41 2.12005 18.37C2.12005 17.33 2.97005 16.5 4.00005 16.5Z" fill="#171717"/>
<path d="M14.1 21.46C13.96 21.39 13.81 21.34 13.67 21.29C14.68 20.71 15.38 19.63 15.38 18.37C15.38 16.51 13.87 14.99 12 14.99C10.13 14.99 8.62005 16.5 8.62005 18.37C8.62005 19.62 9.31005 20.7 10.32 21.28C10.17 21.33 10.03 21.39 9.88005 21.45C9.23005 21.75 8.63005 22.2 8.16005 22.75C7.89005 23.07 7.93005 23.54 8.24005 23.81C8.40005 23.94 8.58005 24 8.75005 24C8.96005 24 9.17005 23.91 9.32005 23.74C9.65005 23.35 10.07 23.04 10.52 22.83C11.45 22.4 12.55 22.4 13.47 22.83C13.93 23.04 14.35 23.36 14.68 23.74C14.95 24.06 15.42 24.09 15.74 23.82C16.06 23.55 16.09 23.08 15.82 22.76C15.35 22.21 14.76 21.76 14.1 21.46ZM12 16.5C13.03 16.5 13.88 17.34 13.88 18.38C13.88 19.42 13.04 20.26 12 20.26C10.97 20.26 10.12 19.42 10.12 18.38C10.12 17.34 10.97 16.5 12 16.5Z" fill="#171717"/>
<path d="M23.82 22.76C23.34 22.2 22.77 21.77 22.1 21.46C21.95 21.39 21.79 21.36 21.64 21.31C22.67 20.73 23.38 19.64 23.38 18.38C23.38 16.52 21.87 15 20 15C18.13 15 16.62 16.51 16.62 18.38C16.62 19.64 17.33 20.73 18.36 21.31C18.2 21.36 18.04 21.4 17.89 21.46C17.23 21.76 16.64 22.21 16.17 22.76C15.9 23.08 15.94 23.55 16.25 23.82C16.56 24.09 17.04 24.05 17.31 23.74C17.64 23.36 18.06 23.04 18.51 22.83C19.43 22.41 20.54 22.41 21.46 22.83C21.93 23.05 22.33 23.35 22.67 23.74C22.82 23.91 23.03 24 23.24 24C23.41 24 23.59 23.94 23.73 23.82C24.05 23.55 24.09 23.08 23.82 22.76ZM20 16.5C21.03 16.5 21.88 17.34 21.88 18.38C21.88 19.42 21.04 20.26 20 20.26C18.96 20.26 18.12 19.42 18.12 18.38C18.12 17.34 18.97 16.5 20 16.5Z" fill="#171717"/>
</g>
<defs>
<clipPath id="clip0_2878_15090">
<rect width="24" height="24" fill="white"/>
</clipPath>
</defs>
</svg>
