<svg width="24" height="24" viewBox="0 0 24 24" fill="none" xmlns="http://www.w3.org/2000/svg">
<g clip-path="url(#clip0_2850_15082)">
<path d="M23.34 2.16C22.92 1.74 22.34 1.5 21.75 1.5H12C12 1.1 11.84 0.72 11.56 0.44C11.28 0.16 10.9 0 10.5 0H6C5.8 0 5.61 0.04 5.43 0.11C5.24 0.19 5.08 0.3 4.94 0.44C4.8 0.58 4.69 0.75 4.61 0.93C4.54 1.11 4.5 1.3 4.5 1.5H2.25C1.65 1.5 1.08 1.73 0.66 2.16C0.23 2.58 0 3.15 0 3.75V21.75C0 22.34 0.24 22.92 0.66 23.34C1.08 23.77 1.65 24 2.25 24H21.75C22.34 24 22.92 23.76 23.34 23.34C23.76 22.92 24 22.34 24 21.75V3.75C24 3.15 23.77 2.58 23.34 2.16ZM6 1.5H10.5V9.75L8.7 8.4C8.43 8.2 8.07 8.2 7.8 8.4L6 9.75V1.5ZM22.5 21.75C22.5 21.95 22.42 22.14 22.28 22.28C22.14 22.42 21.95 22.5 21.75 22.5H2.25C2.05 22.5 1.86 22.42 1.72 22.28C1.58 22.14 1.5 21.95 1.5 21.75V3.75C1.5 3.55 1.58 3.36 1.72 3.22C1.86 3.08 2.05 3 2.25 3H4.5V11.25C4.5 11.53 4.66 11.79 4.91 11.92C5.02 11.98 5.14 12 5.25 12C5.41 12 5.57 11.95 5.7 11.85L8.25 9.94L10.8 11.85C11.03 12.02 11.33 12.05 11.59 11.92C11.84 11.79 12 11.53 12 11.25V3H21.75C21.95 3 22.14 3.08 22.28 3.22C22.42 3.36 22.5 3.55 22.5 3.75V21.75Z" fill="#171717"/>
<path d="M15.75 18H5.25C4.84 18 4.5 18.34 4.5 18.75C4.5 19.16 4.84 19.5 5.25 19.5H15.75C16.16 19.5 16.5 19.16 16.5 18.75C16.5 18.34 16.16 18 15.75 18Z" fill="#171717"/>
<path d="M18.75 13.5H5.25C4.84 13.5 4.5 13.84 4.5 14.25C4.5 14.66 4.84 15 5.25 15H18.75C19.16 15 19.5 14.66 19.5 14.25C19.5 13.84 19.16 13.5 18.75 13.5Z" fill="#171717"/>
<path d="M18.75 9H14.25C13.84 9 13.5 9.34 13.5 9.75C13.5 10.16 13.84 10.5 14.25 10.5H18.75C19.16 10.5 19.5 10.16 19.5 9.75C19.5 9.34 19.16 9 18.75 9Z" fill="#171717"/>
</g>
<defs>
<clipPath id="clip0_2850_15082">
<rect width="24" height="24" fill="white"/>
</clipPath>
</defs>
</svg>
