<svg width="24" height="24" viewBox="0 0 24 24" fill="none" xmlns="http://www.w3.org/2000/svg">
<path fill-rule="evenodd" clip-rule="evenodd" d="M8.7587 1H15.2413C16.0463 0.999988 16.7106 0.999977 17.2518 1.04419C17.8139 1.09012 18.3306 1.18868 18.816 1.43597C19.5686 1.81947 20.1805 2.43139 20.564 3.18404C20.8113 3.66937 20.9099 4.18608 20.9558 4.74817C21 5.28936 21 5.95372 21 6.75868V10C21 10.5523 20.5523 11 20 11C19.4477 11 19 10.5523 19 10V6.8C19 5.94342 18.9992 5.36113 18.9624 4.91104C18.9266 4.47262 18.8617 4.24842 18.782 4.09202C18.5903 3.7157 18.2843 3.40973 17.908 3.21799C17.7516 3.1383 17.5274 3.07337 17.089 3.03755C16.6389 3.00078 16.0566 3 15.2 3H8.8C7.94342 3 7.36113 3.00078 6.91104 3.03755C6.47262 3.07337 6.24842 3.1383 6.09202 3.21799C5.7157 3.40973 5.40973 3.7157 5.21799 4.09202C5.1383 4.24842 5.07337 4.47262 5.03755 4.91104C5.00078 5.36113 5 5.94342 5 6.8V17.2C5 18.0566 5.00078 18.6389 5.03755 19.089C5.07337 19.5274 5.1383 19.7516 5.21799 19.908C5.40973 20.2843 5.7157 20.5903 6.09202 20.782C6.24842 20.8617 6.47262 20.9266 6.91104 20.9624C7.36113 20.9992 7.94342 21 8.8 21H12.5C13.0523 21 13.5 21.4477 13.5 22C13.5 22.5523 13.0523 23 12.5 23H8.75868C7.95372 23 7.28936 23 6.74817 22.9558C6.18608 22.9099 5.66937 22.8113 5.18404 22.564C4.43139 22.1805 3.81947 21.5686 3.43597 20.816C3.18868 20.3306 3.09012 19.8139 3.04419 19.2518C2.99998 18.7106 2.99999 18.0463 3 17.2413V6.7587C2.99999 5.95373 2.99998 5.28937 3.04419 4.74817C3.09012 4.18608 3.18868 3.66937 3.43597 3.18404C3.81947 2.43139 4.43139 1.81947 5.18404 1.43597C5.66937 1.18868 6.18608 1.09012 6.74817 1.04419C7.28937 0.999977 7.95373 0.999988 8.7587 1ZM7 7C7 6.44772 7.44772 6 8 6H16C16.5523 6 17 6.44772 17 7C17 7.55229 16.5523 8 16 8H8C7.44772 8 7 7.55229 7 7ZM7 11C7 10.4477 7.44772 10 8 10H14C14.5523 10 15 10.4477 15 11C15 11.5523 14.5523 12 14 12H8C7.44772 12 7 11.5523 7 11ZM19.1496 13.1998C19.1495 13.1997 19.1497 13.1998 19.1496 13.1998L21.3365 13.9812C21.7344 14.1234 22 14.5003 22 14.9229V17.4252C22 18.9643 20.9435 20.1151 20.1405 20.7849C19.7141 21.1405 19.2929 21.4161 18.9806 21.6021C18.8233 21.6958 18.6909 21.7685 18.5956 21.8188C18.5479 21.844 18.5093 21.8637 18.4812 21.8777L18.4473 21.8945L18.4366 21.8997L18.4329 21.9015L18.4314 21.9021C18.4312 21.9023 18.4303 21.9027 18 21C17.5697 21.9027 17.5695 21.9026 17.5692 21.9024L17.5671 21.9015L17.5634 21.8997L17.5527 21.8945L17.5188 21.8777C17.4907 21.8637 17.4521 21.844 17.4044 21.8188C17.3091 21.7685 17.1767 21.6958 17.0194 21.6021C16.7071 21.4161 16.2859 21.1405 15.8595 20.7849C15.0565 20.1151 14 18.9643 14 17.4252V14.9229C14 14.5004 14.2655 14.1235 14.6633 13.9813L16.8492 13.1998C16.849 13.1998 16.8494 13.1997 16.8492 13.1998C17.5926 12.9336 18.4062 12.9336 19.1496 13.1998ZM18 21L17.5692 21.9024C17.8414 22.0322 18.1581 22.0324 18.4303 21.9027L18 21ZM18 19.8581C18.2442 19.7104 18.5541 19.5037 18.8595 19.249C19.5565 18.6676 20 18.0311 20 17.4252V15.6275L18.4759 15.0829C18.1683 14.9727 17.8312 14.9725 17.5236 15.0826L16 15.6274V17.4252C16 18.0311 16.4436 18.6676 17.1405 19.249C17.4459 19.5037 17.7558 19.7104 18 19.8581ZM7 15C7 14.4477 7.44772 14 8 14H10C10.5523 14 11 14.4477 11 15C11 15.5523 10.5523 16 10 16H8C7.44772 16 7 15.5523 7 15Z" fill="#101C2D"/>
</svg>
