<svg width="24" height="24" viewBox="0 0 24 24" fill="none" xmlns="http://www.w3.org/2000/svg">
<g clip-path="url(#clip0_2861_15171)">
<path d="M23.6 3.32997C23.36 3.11997 23.05 2.99997 22.74 2.99997H22.73C21.4 2.99997 20.07 3.11997 18.75 3.28997V1.23997C18.75 1.02997 18.69 0.809971 18.59 0.639971C18.48 0.449971 18.33 0.299971 18.16 0.199971C17.99 0.0999712 17.81 0.0399712 17.62 0.00997118C17.43 -0.0100288 17.24 -2.88151e-05 17.07 0.0599712C15.53 0.499971 14.15 1.35997 13.09 2.53997C12.36 3.30997 11.84 4.21997 11.52 5.20997C10.1 4.34997 7.03 3.06997 1.28 2.99997C0.95 2.98997 0.65 3.11997 0.38 3.35997C0.13 3.58997 0 3.90997 0 4.24997V20.01C0.01 20.34 0.14 20.64 0.37 20.88C0.6 21.11 0.91 21.24 1.24 21.25C8.97 21.36 11.41 23.72 11.45 23.76C11.46 23.77 11.48 23.79 11.49 23.8C11.6 23.9 11.73 23.96 11.87 23.99C11.92 24 11.96 24 12 24C12.02 24 12.03 24 12.04 24C12.2 23.99 12.35 23.93 12.48 23.82C12.49 23.81 12.5 23.8 12.51 23.79C12.52 23.78 12.53 23.77 12.54 23.76C12.6 23.7 15.06 21.36 22.76 21.25C23.09 21.24 23.39 21.11 23.62 20.88C23.85 20.65 23.99 20.34 24 20V4.24997C24 3.91997 23.86 3.58997 23.6 3.32997ZM14.2 3.54997C15.05 2.60997 16.13 1.91997 17.25 1.52997V16.25C15.65 16.69 14.23 17.56 13.1 18.78C12.97 18.91 12.87 19.06 12.75 19.21V6.54997C12.91 5.41997 13.4 4.38997 14.2 3.54997ZM11.25 21.81C9.74 20.97 6.76 19.85 1.5 19.75V4.49997C7.85 4.61997 10.54 6.27997 11.25 6.81997V21.81ZM22.5 19.75C17.55 19.85 14.64 20.84 13.05 21.66C13.3 20.98 13.68 20.35 14.19 19.82C15.25 18.67 16.62 17.9 18.15 17.59C18.5 17.52 18.75 17.21 18.75 16.86V4.79997C19.99 4.62997 21.25 4.51997 22.5 4.49997V19.75Z" fill="#171717"/>
</g>
<defs>
<clipPath id="clip0_2861_15171">
<rect width="24" height="24" fill="white"/>
</clipPath>
</defs>
</svg>
