<svg width="24" height="24" viewBox="0 0 24 24" fill="none" xmlns="http://www.w3.org/2000/svg">
<path d="M23.6 3.32936C23.36 3.11936 23.05 2.99936 22.74 2.99936H22.73C21.4 2.99936 20.07 3.11936 18.75 3.28936V1.23936C18.75 1.02936 18.69 0.809361 18.59 0.639361C18.48 0.449361 18.33 0.299361 18.16 0.199361C17.99 0.0993608 17.81 0.0393608 17.62 0.00936083C17.43 -0.0106392 17.24 -0.000639167 17.07 0.0593608C15.53 0.499361 14.15 1.35936 13.09 2.53936C12.36 3.30936 11.84 4.21936 11.52 5.20936C10.1 4.34936 7.03 3.06936 1.28 2.99936C0.95 2.98936 0.65 3.11936 0.38 3.35936C0.13 3.58936 0 3.90936 0 4.24936V20.0094C0.01 20.3394 0.14 20.6394 0.37 20.8794C0.6 21.1094 0.91 21.2394 1.24 21.2494C8.97 21.3594 11.41 23.7194 11.45 23.7594C11.46 23.7694 11.48 23.7894 11.49 23.7994C11.6 23.8994 11.73 23.9594 11.87 23.9894C11.92 23.9994 11.96 23.9994 12 23.9994C12.02 23.9994 12.03 23.9994 12.04 23.9994C12.2 23.9894 12.35 23.9294 12.48 23.8194C12.49 23.8094 12.5 23.7994 12.51 23.7894C12.52 23.7794 12.53 23.7694 12.54 23.7594C12.6 23.6994 15.06 21.3594 22.76 21.2494C23.09 21.2394 23.39 21.1094 23.62 20.8794C23.85 20.6494 23.99 20.3394 24 19.9994V4.24936C24 3.91936 23.86 3.58936 23.6 3.32936ZM14.2 3.54936C15.05 2.60936 16.13 1.91936 17.25 1.52936V16.2494C15.65 16.6894 14.23 17.5594 13.1 18.7794C12.97 18.9094 12.87 19.0594 12.75 19.2094V6.54936C12.91 5.41936 13.4 4.38936 14.2 3.54936ZM11.25 21.8094C9.74 20.9694 6.76 19.8494 1.5 19.7494V4.49936C7.85 4.61936 10.54 6.27936 11.25 6.81936V21.8094ZM22.5 19.7494C17.55 19.8494 14.64 20.8394 13.05 21.6594C13.3 20.9794 13.68 20.3494 14.19 19.8194C15.25 18.6694 16.62 17.8994 18.15 17.5894C18.5 17.5194 18.75 17.2094 18.75 16.8594V4.79936C19.99 4.62936 21.25 4.51936 22.5 4.49936V19.7494Z" fill="#171717"/>
</svg>
