<svg width="24" height="24" viewBox="0 0 24 24" fill="none" xmlns="http://www.w3.org/2000/svg">
<g clip-path="url(#clip0_2861_15521)">
<path d="M23.77 6.21999C23.62 5.90999 23.39 5.63999 23.11 5.42999C22.83 5.21999 22.51 5.07999 22.17 5.00999C21.83 4.94999 21.48 4.95999 21.14 5.04999C17.12 6.19999 12.87 6.19999 8.85998 5.04999C8.51998 4.95999 8.16998 4.93999 7.82998 5.00999C7.48998 5.06999 7.16998 5.21999 6.88998 5.42999C6.61998 5.63999 6.38998 5.90999 6.23998 6.21999C6.07998 6.52999 5.99998 6.86999 5.99998 7.21999V14.37C5.97998 16.33 6.68998 18.2 8.00998 19.66C9.70998 21.52 11.86 22.97 14.23 23.86C14.48 23.95 14.74 24 15 24C15.26 24 15.53 23.95 15.78 23.86C18.14 22.98 20.29 21.52 22 19.66C23.31 18.21 24.02 16.33 24 14.38V7.21999C24 6.86999 23.92 6.52999 23.77 6.21999ZM22.5 14.39C22.52 15.97 21.94 17.48 20.89 18.65C19.35 20.34 17.4 21.65 15.26 22.45C15.09 22.51 14.91 22.51 14.75 22.45C12.61 21.65 10.66 20.33 9.11998 18.65C8.05998 17.48 7.48998 15.96 7.49998 14.37V7.21999C7.49998 7.09999 7.52998 6.98999 7.57998 6.88999C7.62998 6.78999 7.70998 6.69999 7.79998 6.62999C7.88998 6.54999 7.99998 6.49999 8.10998 6.47999C8.15998 6.46999 8.19998 6.46999 8.24998 6.46999C8.31998 6.46999 8.37998 6.47999 8.44998 6.49999C12.74 7.71999 17.27 7.71999 21.55 6.49999C21.66 6.46999 21.78 6.45999 21.89 6.48999C22 6.50999 22.11 6.55999 22.2 6.62999C22.29 6.69999 22.37 6.78999 22.42 6.88999C22.47 6.98999 22.5 7.10999 22.5 7.22999V14.39V14.39Z" fill="#171717"/>
<path d="M3.11998 13.69C2.05998 12.52 1.47998 11 1.49998 9.41005V2.25005C1.49998 2.13005 1.52998 2.02005 1.57998 1.91005C1.62998 1.81005 1.69998 1.72005 1.79998 1.65005C1.88998 1.58005 1.99998 1.54005 2.10998 1.51005C2.21998 1.49005 2.33998 1.50005 2.44998 1.53005C6.73998 2.75005 11.27 2.75005 15.55 1.53005C15.66 1.50005 15.78 1.49005 15.89 1.52005C16 1.54005 16.11 1.59005 16.2 1.66005C16.29 1.73005 16.37 1.82005 16.42 1.92005C16.47 2.02005 16.5 2.14005 16.5 2.25005V4.03005C16.5 4.44005 16.84 4.78005 17.25 4.78005C17.66 4.78005 18 4.45005 18 4.04005V2.25005C18 1.91005 17.92 1.56005 17.77 1.25005C17.62 0.940046 17.39 0.670046 17.12 0.460046C16.85 0.250046 16.52 0.110046 16.18 0.0400461C15.84 -0.0199539 15.49 -0.00995393 15.15 0.0800461C11.13 1.23005 6.88998 1.23005 2.86998 0.0800461C2.53998 -0.0199539 2.17998 -0.0299539 1.83998 0.0300461C1.48998 0.100046 1.16998 0.250046 0.889984 0.460046C0.609984 0.670046 0.389984 0.940046 0.229984 1.25005C0.079984 1.56005 -1.59782e-05 1.91005 -1.59782e-05 2.25005V9.40005C-0.020016 11.36 0.689984 13.23 2.00998 14.69C2.18998 14.88 2.37998 15.08 2.57998 15.28C2.72998 15.43 2.91998 15.5 3.10998 15.5C3.29998 15.5 3.49998 15.43 3.63998 15.28C3.92998 14.99 3.92998 14.51 3.63998 14.22C3.44998 14.04 3.26998 13.86 3.11998 13.69Z" fill="#171717"/>
<path d="M18 15C17.59 15 17.25 15.34 17.25 15.75C17.25 16.35 17.02 16.92 16.59 17.34C15.74 18.19 14.26 18.19 13.41 17.34C12.99 16.92 12.75 16.35 12.75 15.75C12.75 15.34 12.41 15 12 15C11.59 15 11.25 15.34 11.25 15.75C11.25 16.75 11.64 17.69 12.35 18.4C13.06 19.11 14 19.5 15 19.5C16 19.5 16.94 19.11 17.65 18.4C18.36 17.69 18.75 16.75 18.75 15.75C18.75 15.34 18.41 15 18 15Z" fill="#171717"/>
<path d="M11.78 10.72C11.92 10.86 12 11.05 12 11.25C12 11.66 12.34 12 12.75 12C13.16 12 13.5 11.66 13.5 11.25C13.5 10.65 13.27 10.08 12.84 9.66003C12 8.82003 10.5 8.82003 9.66 9.66003C9.24 10.08 9 10.66 9 11.25C9 11.67 9.33 12 9.75 12C10.17 12 10.5 11.66 10.5 11.25C10.5 11.05 10.58 10.86 10.72 10.72C11 10.44 11.5 10.44 11.78 10.72Z" fill="#171717"/>
<path d="M17.16 9.66003C16.74 10.08 16.5 10.66 16.5 11.25C16.5 11.66 16.84 12 17.25 12C17.66 12 18 11.67 18 11.25C18 11.05 18.08 10.86 18.22 10.72C18.5 10.44 19 10.44 19.28 10.72C19.42 10.86 19.5 11.05 19.5 11.25C19.5 11.66 19.84 12 20.25 12C20.66 12 21 11.67 21 11.25C21 10.66 20.76 10.08 20.34 9.66003C19.5 8.82003 17.99 8.82003 17.16 9.66003Z" fill="#171717"/>
</g>
<defs>
<clipPath id="clip0_2861_15521">
<rect width="24" height="24" fill="white"/>
</clipPath>
</defs>
</svg>
