<svg width="24" height="24" viewBox="0 0 24 24" fill="none" xmlns="http://www.w3.org/2000/svg">
<path d="M23.7696 6.22506C23.6196 5.91516 23.3896 5.64525 23.1096 5.43532C22.8296 5.22539 22.5096 5.08544 22.1696 5.01546C21.8296 4.95548 21.4796 4.96548 21.1397 5.05545C17.1198 6.20506 12.87 6.20506 8.8601 5.05545C8.52011 4.96548 8.17012 4.94548 7.83013 5.01546C7.49014 5.07544 7.17016 5.22539 6.89017 5.43532C6.62018 5.64525 6.39018 5.91516 6.24019 6.22506C6.08019 6.53495 6.0002 6.87484 6.0002 7.22472V14.3723C5.9802 16.3317 6.69017 18.2011 8.01013 19.6606C9.71007 21.52 11.86 22.9695 14.2299 23.8592C14.4799 23.9492 14.7399 23.9991 14.9999 23.9991C15.2599 23.9991 15.5299 23.9492 15.7798 23.8592C18.1398 22.9795 20.2897 21.52 21.9996 19.6606C23.3096 18.2111 24.0196 16.3317 23.9996 14.3823V7.22472C23.9996 6.87484 23.9196 6.53495 23.7696 6.22506ZM22.4996 14.3923C22.5196 15.9718 21.9396 17.4813 20.8897 18.6509C19.3497 20.3404 17.3998 21.6499 15.2599 22.4497C15.0899 22.5096 14.9099 22.5096 14.7499 22.4497C12.61 21.6499 10.66 20.3304 9.12009 18.6509C8.06012 17.4813 7.49014 15.9618 7.50014 14.3723V7.22472C7.50014 7.10476 7.53014 6.9948 7.58014 6.89483C7.63014 6.79487 7.71014 6.7049 7.80013 6.63492C7.89013 6.55495 8.00013 6.50496 8.11012 6.48497C8.16012 6.47497 8.20012 6.47497 8.25012 6.47497C8.32011 6.47497 8.38011 6.48497 8.45011 6.50496C12.74 7.72456 17.2698 7.72456 21.5496 6.50496C21.6596 6.47497 21.7796 6.46498 21.8896 6.49497C21.9996 6.51496 22.1096 6.56494 22.1996 6.63492C22.2896 6.7049 22.3696 6.79487 22.4196 6.89483C22.4696 6.9948 22.4996 7.11476 22.4996 7.23472V14.3923Z" fill="#1D2127"/>
<path d="M3.1203 13.6926C2.06034 12.523 1.48036 11.0035 1.50036 9.414V2.25638C1.50036 2.13642 1.53036 2.02645 1.58036 1.91649C1.63035 1.81652 1.70035 1.72655 1.80035 1.65658C1.89034 1.5866 2.00034 1.54661 2.11034 1.51662C2.22033 1.49663 2.34033 1.50663 2.45032 1.53662C6.74017 2.75621 11.27 2.75621 15.5499 1.53662C15.6599 1.50663 15.7798 1.49663 15.8898 1.52662C15.9998 1.54661 16.1098 1.5966 16.1998 1.66657C16.2898 1.73655 16.3698 1.82652 16.4198 1.92649C16.4698 2.02645 16.4998 2.14641 16.4998 2.25638V4.03578C16.4998 4.44565 16.8398 4.78554 17.2498 4.78554C17.6598 4.78554 17.9998 4.45564 17.9998 4.04578V2.25638C17.9998 1.91649 17.9198 1.56661 17.7698 1.25671C17.6198 0.946811 17.3898 0.676901 17.1198 0.466971C16.8498 0.257041 16.5198 0.117087 16.1798 0.0471105C15.8398 -0.0128696 15.4899 -0.0028729 15.1499 0.0870972C11.13 1.23671 6.89017 1.23671 2.87031 0.0870972C2.54032 -0.0128696 2.18033 -0.0228662 1.84035 0.0371138C1.49036 0.107091 1.17037 0.257041 0.89038 0.466971C0.61039 0.676901 0.390397 0.946811 0.230403 1.25671C0.0804084 1.56661 0.000411253 1.91649 0.000411253 2.25638V9.404C-0.019588 11.3633 0.690387 13.2327 2.01034 14.6922C2.19033 14.8822 2.38033 15.0821 2.58032 15.282C2.73031 15.432 2.92031 15.502 3.1103 15.502C3.30029 15.502 3.50029 15.432 3.64028 15.282C3.93027 14.9921 3.93027 14.5123 3.64028 14.2224C3.45029 14.0425 3.27029 13.8625 3.1203 13.6926Z" fill="#1D2127"/>
<path d="M17.9998 15.0021C17.5898 15.0021 17.2498 15.342 17.2498 15.7519C17.2498 16.3517 17.0198 16.9215 16.5898 17.3414C15.7398 18.1911 14.2599 18.1911 13.4099 17.3414C12.9899 16.9215 12.75 16.3517 12.75 15.7519C12.75 15.342 12.41 15.0021 12 15.0021C11.59 15.0021 11.25 15.342 11.25 15.7519C11.25 16.7516 11.64 17.6912 12.35 18.401C13.0599 19.1108 13.9999 19.5006 14.9999 19.5006C15.9998 19.5006 16.9398 19.1108 17.6498 18.401C18.3598 17.6912 18.7497 16.7516 18.7497 15.7519C18.7497 15.342 18.4098 15.0021 17.9998 15.0021Z" fill="#1D2127"/>
<path d="M11.78 10.7236C11.92 10.8635 12 11.0534 12 11.2534C12 11.6632 12.34 12.0031 12.75 12.0031C13.1599 12.0031 13.4999 11.6632 13.4999 11.2534C13.4999 10.6536 13.2699 10.0838 12.84 9.66391C12 8.82419 10.5 8.82419 9.66007 9.66391C9.24008 10.0838 9.00009 10.6636 9.00009 11.2534C9.00009 11.6732 9.33008 12.0031 9.75006 12.0031C10.17 12.0031 10.5 11.6632 10.5 11.2534C10.5 11.0534 10.58 10.8635 10.72 10.7236C11 10.4437 11.5 10.4437 11.78 10.7236Z" fill="#1D2127"/>
<path d="M17.1598 9.66391C16.7398 10.0838 16.4998 10.6636 16.4998 11.2534C16.4998 11.6632 16.8398 12.0031 17.2498 12.0031C17.6598 12.0031 17.9998 11.6732 17.9998 11.2534C17.9998 11.0534 18.0798 10.8635 18.2198 10.7236C18.4998 10.4437 18.9997 10.4437 19.2797 10.7236C19.4197 10.8635 19.4997 11.0534 19.4997 11.2534C19.4997 11.6632 19.8397 12.0031 20.2497 12.0031C20.6597 12.0031 20.9997 11.6732 20.9997 11.2534C20.9997 10.6636 20.7597 10.0838 20.3397 9.66391C19.4997 8.82419 17.9898 8.82419 17.1598 9.66391Z" fill="#1D2127"/>
</svg>
