<svg width="24" height="24" viewBox="0 0 24 24" fill="none" xmlns="http://www.w3.org/2000/svg">
<path d="M23.7696 6.22507C23.6196 5.91517 23.3896 5.64526 23.1096 5.43533C22.8297 5.2254 22.5097 5.08545 22.1697 5.01547C21.8297 4.95549 21.4797 4.96549 21.1397 5.05546C17.1198 6.20508 12.87 6.20508 8.86012 5.05546C8.52013 4.96549 8.17014 4.94549 7.83015 5.01547C7.49016 5.07545 7.17017 5.2254 6.89018 5.43533C6.62019 5.64526 6.3902 5.91517 6.2402 6.22507C6.08021 6.53497 6.00021 6.87486 6.00021 7.22474V14.3724C5.98021 16.3317 6.69019 18.2011 8.01015 19.6606C9.71009 21.52 11.86 22.9695 14.2299 23.8593C14.4799 23.9492 14.7399 23.9992 14.9999 23.9992C15.2599 23.9992 15.5299 23.9492 15.7799 23.8593C18.1398 22.9795 20.2897 21.52 21.9997 19.6606C23.3096 18.2111 24.0196 16.3317 23.9996 14.3824V7.22474C23.9996 6.87486 23.9196 6.53497 23.7696 6.22507ZM22.4997 14.3924C22.5197 15.9719 21.9397 17.4814 20.8897 18.651C19.3498 20.3404 17.3998 21.65 15.2599 22.4497C15.0899 22.5097 14.9099 22.5097 14.7499 22.4497C12.61 21.65 10.6601 20.3304 9.12011 18.651C8.06014 17.4814 7.49016 15.9619 7.50016 14.3724V7.22474C7.50016 7.10478 7.53016 6.99482 7.58016 6.89485C7.63016 6.79488 7.71016 6.70491 7.80015 6.63494C7.89015 6.55496 8.00015 6.50498 8.11014 6.48499C8.16014 6.47499 8.20014 6.47499 8.25014 6.47499C8.32014 6.47499 8.38013 6.48499 8.45013 6.50498C12.74 7.72458 17.2698 7.72458 21.5497 6.50498C21.6597 6.47499 21.7797 6.46499 21.8897 6.49498C21.9997 6.51498 22.1097 6.56496 22.1997 6.63494C22.2897 6.70491 22.3697 6.79488 22.4197 6.89485C22.4697 6.99482 22.4997 7.11478 22.4997 7.23474V14.3924Z" fill="#171717"/>
<path d="M3.12031 13.6926C2.06034 12.523 1.48036 11.0035 1.50036 9.41402V2.25638C1.50036 2.13642 1.53036 2.02646 1.58036 1.91649C1.63036 1.81653 1.70035 1.72656 1.80035 1.65658C1.89035 1.5866 2.00035 1.54662 2.11034 1.51663C2.22034 1.49663 2.34033 1.50663 2.45033 1.53662C6.74019 2.75622 11.27 2.75622 15.5499 1.53662C15.6599 1.50663 15.7799 1.49663 15.8899 1.52662C15.9999 1.54662 16.1099 1.5966 16.1999 1.66658C16.2899 1.73655 16.3699 1.82652 16.4199 1.92649C16.4699 2.02646 16.4999 2.14642 16.4999 2.25638V4.03579C16.4999 4.44566 16.8399 4.78555 17.2498 4.78555C17.6598 4.78555 17.9998 4.45566 17.9998 4.04579V2.25638C17.9998 1.91649 17.9198 1.56661 17.7698 1.25671C17.6198 0.946814 17.3898 0.676903 17.1198 0.466972C16.8499 0.257041 16.5199 0.117088 16.1799 0.0471106C15.8399 -0.0128696 15.4899 -0.0028729 15.1499 0.0870974C11.13 1.23672 6.89018 1.23672 2.87032 0.0870974C2.54033 -0.0128696 2.18034 -0.0228663 1.84035 0.0371139C1.49036 0.107091 1.17037 0.257041 0.890382 0.466972C0.610391 0.676903 0.390398 0.946814 0.230404 1.25671C0.0804086 1.56661 0.000411254 1.91649 0.000411254 2.25638V9.40402C-0.0195881 11.3634 0.690388 13.2328 2.01034 14.6923C2.19034 14.8822 2.38033 15.0821 2.58033 15.2821C2.73032 15.432 2.92031 15.502 3.11031 15.502C3.3003 15.502 3.5003 15.432 3.64029 15.2821C3.93028 14.9922 3.93028 14.5123 3.64029 14.2224C3.4503 14.0425 3.2703 13.8626 3.12031 13.6926Z" fill="#171717"/>
<path d="M17.9998 15.0022C17.5898 15.0022 17.2498 15.3421 17.2498 15.7519C17.2498 16.3517 17.0198 16.9215 16.5899 17.3414C15.7399 18.1911 14.2599 18.1911 13.41 17.3414C12.99 16.9215 12.75 16.3517 12.75 15.7519C12.75 15.3421 12.41 15.0022 12 15.0022C11.59 15.0022 11.25 15.3421 11.25 15.7519C11.25 16.7516 11.64 17.6913 12.35 18.4011C13.06 19.1108 13.9999 19.5007 14.9999 19.5007C15.9999 19.5007 16.9399 19.1108 17.6498 18.4011C18.3598 17.6913 18.7498 16.7516 18.7498 15.7519C18.7498 15.3421 18.4098 15.0022 17.9998 15.0022Z" fill="#171717"/>
<path d="M11.78 10.7236C11.92 10.8635 12 11.0535 12 11.2534C12 11.6633 12.34 12.0032 12.75 12.0032C13.16 12.0032 13.5 11.6633 13.5 11.2534C13.5 10.6536 13.27 10.0838 12.84 9.66394C12 8.82421 10.5001 8.82421 9.66009 9.66394C9.24011 10.0838 9.00011 10.6636 9.00011 11.2534C9.00011 11.6733 9.3301 12.0032 9.75009 12.0032C10.1701 12.0032 10.5001 11.6633 10.5001 11.2534C10.5001 11.0535 10.5801 10.8635 10.7201 10.7236C11 10.4437 11.5 10.4437 11.78 10.7236Z" fill="#171717"/>
<path d="M17.1598 9.66394C16.7399 10.0838 16.4999 10.6636 16.4999 11.2534C16.4999 11.6633 16.8399 12.0032 17.2498 12.0032C17.6598 12.0032 17.9998 11.6733 17.9998 11.2534C17.9998 11.0535 18.0798 10.8635 18.2198 10.7236C18.4998 10.4437 18.9998 10.4437 19.2798 10.7236C19.4198 10.8635 19.4998 11.0535 19.4998 11.2534C19.4998 11.6633 19.8398 12.0032 20.2497 12.0032C20.6597 12.0032 20.9997 11.6733 20.9997 11.2534C20.9997 10.6636 20.7597 10.0838 20.3397 9.66394C19.4998 8.82421 17.9898 8.82421 17.1598 9.66394Z" fill="#171717"/>
</svg>
