<svg width="24" height="24" viewBox="0 0 24 24" fill="none" xmlns="http://www.w3.org/2000/svg">
<path d="M23.7697 6.22509C23.6197 5.91519 23.3897 5.64528 23.1097 5.43535C22.8297 5.22542 22.5097 5.08546 22.1697 5.01548C21.8297 4.9555 21.4798 4.9655 21.1398 5.05547C17.1199 6.20509 12.87 6.20509 8.86014 5.05547C8.52015 4.9655 8.17016 4.94551 7.83017 5.01548C7.49018 5.07546 7.17019 5.22542 6.8902 5.43535C6.62021 5.64528 6.39022 5.91519 6.24022 6.22509C6.08023 6.53499 6.00023 6.87488 6.00023 7.22476V14.3724C5.98023 16.3318 6.69021 18.2012 8.01017 19.6607C9.71011 21.5201 11.86 22.9696 14.23 23.8593C14.48 23.9493 14.74 23.9993 15 23.9993C15.2599 23.9993 15.5299 23.9493 15.7799 23.8593C18.1399 22.9796 20.2898 21.5201 21.9997 19.6607C23.3097 18.2112 24.0197 16.3318 23.9997 14.3824V7.22476C23.9997 6.87488 23.9197 6.53499 23.7697 6.22509ZM22.4997 14.3924C22.5197 15.9719 21.9397 17.4814 20.8898 18.651C19.3498 20.3405 17.3999 21.65 15.2599 22.4498C15.09 22.5098 14.91 22.5098 14.75 22.4498C12.61 21.65 10.6601 20.3305 9.12013 18.651C8.06017 17.4814 7.49018 15.9619 7.50018 14.3724V7.22476C7.50018 7.1048 7.53018 6.99484 7.58018 6.89487C7.63018 6.7949 7.71018 6.70493 7.80017 6.63495C7.89017 6.55498 8.00017 6.505 8.11016 6.485C8.16016 6.47501 8.20016 6.47501 8.25016 6.47501C8.32016 6.47501 8.38016 6.485 8.45015 6.505C12.74 7.7246 17.2699 7.7246 21.5498 6.505C21.6597 6.47501 21.7797 6.46501 21.8897 6.495C21.9997 6.51499 22.1097 6.56498 22.1997 6.63495C22.2897 6.70493 22.3697 6.7949 22.4197 6.89487C22.4697 6.99484 22.4997 7.1148 22.4997 7.23476V14.3924Z" fill="#171717"/>
<path d="M3.12032 13.6926C2.06035 12.523 1.48037 11.0035 1.50037 9.41404V2.25639C1.50037 2.13643 1.53036 2.02646 1.58036 1.9165C1.63036 1.81653 1.70036 1.72656 1.80036 1.65658C1.89035 1.58661 2.00035 1.54662 2.11035 1.51663C2.22034 1.49664 2.34034 1.50663 2.45034 1.53662C6.74021 2.75622 11.2701 2.75622 15.5499 1.53662C15.6599 1.50663 15.7799 1.49664 15.8899 1.52663C15.9999 1.54662 16.1099 1.5966 16.1999 1.66658C16.2899 1.73656 16.3699 1.82653 16.4199 1.9265C16.4699 2.02646 16.4999 2.14642 16.4999 2.25639V4.03581C16.4999 4.44567 16.8399 4.78556 17.2499 4.78556C17.6599 4.78556 17.9999 4.45567 17.9999 4.0458V2.25639C17.9999 1.9165 17.9199 1.56661 17.7699 1.25671C17.6199 0.946816 17.3899 0.676905 17.1199 0.466973C16.8499 0.257042 16.5199 0.117088 16.1799 0.0471107C15.8399 -0.0128696 15.4899 -0.00287291 15.1499 0.0870976C11.1301 1.23672 6.8902 1.23672 2.87032 0.0870976C2.54033 -0.0128696 2.18034 -0.0228664 1.84036 0.037114C1.49037 0.107091 1.17038 0.257042 0.890384 0.466973C0.610393 0.676905 0.390399 0.946816 0.230404 1.25671C0.0804088 1.56661 0.000411255 1.9165 0.000411255 2.25639V9.40405C-0.0195881 11.3634 0.69039 13.2328 2.01035 14.6923C2.19034 14.8823 2.38034 15.0822 2.58033 15.2821C2.73033 15.4321 2.92032 15.502 3.11032 15.502C3.30031 15.502 3.5003 15.4321 3.6403 15.2821C3.93029 14.9922 3.93029 14.5124 3.6403 14.2225C3.45031 14.0425 3.27031 13.8626 3.12032 13.6926Z" fill="#171717"/>
<path d="M17.9999 15.0022C17.5899 15.0022 17.2499 15.3421 17.2499 15.752C17.2499 16.3518 17.0199 16.9216 16.5899 17.3414C15.7399 18.1912 14.26 18.1912 13.41 17.3414C12.99 16.9216 12.75 16.3518 12.75 15.752C12.75 15.3421 12.41 15.0022 12 15.0022C11.5901 15.0022 11.2501 15.3421 11.2501 15.752C11.2501 16.7516 11.6401 17.6913 12.35 18.4011C13.06 19.1109 14 19.5007 15 19.5007C15.9999 19.5007 16.9399 19.1109 17.6499 18.4011C18.3598 17.6913 18.7498 16.7516 18.7498 15.752C18.7498 15.3421 18.4098 15.0022 17.9999 15.0022Z" fill="#171717"/>
<path d="M11.7801 10.7236C11.92 10.8636 12 11.0535 12 11.2534C12 11.6633 12.34 12.0032 12.75 12.0032C13.16 12.0032 13.5 11.6633 13.5 11.2534C13.5 10.6536 13.27 10.0838 12.84 9.66396C12 8.82424 10.5001 8.82424 9.66012 9.66396C9.24013 10.0838 9.00014 10.6636 9.00014 11.2534C9.00014 11.6733 9.33013 12.0032 9.75011 12.0032C10.1701 12.0032 10.5001 11.6633 10.5001 11.2534C10.5001 11.0535 10.5801 10.8636 10.7201 10.7236C11.0001 10.4437 11.5001 10.4437 11.7801 10.7236Z" fill="#171717"/>
<path d="M17.1599 9.66396C16.7399 10.0838 16.4999 10.6636 16.4999 11.2534C16.4999 11.6633 16.8399 12.0032 17.2499 12.0032C17.6599 12.0032 17.9999 11.6733 17.9999 11.2534C17.9999 11.0535 18.0799 10.8636 18.2199 10.7236C18.4998 10.4437 18.9998 10.4437 19.2798 10.7236C19.4198 10.8636 19.4998 11.0535 19.4998 11.2534C19.4998 11.6633 19.8398 12.0032 20.2498 12.0032C20.6598 12.0032 20.9998 11.6733 20.9998 11.2534C20.9998 10.6636 20.7598 10.0838 20.3398 9.66396C19.4998 8.82424 17.9899 8.82424 17.1599 9.66396Z" fill="#171717"/>
</svg>
