<svg width="24" height="24" viewBox="0 0 24 24" fill="none" xmlns="http://www.w3.org/2000/svg">
<path fill-rule="evenodd" clip-rule="evenodd" d="M3.91187 2.02235C4.26309 1.97211 4.62124 2.00662 4.95641 2.123L4.96557 2.12618C9.238 3.65622 13.909 3.65626 18.1814 2.12623L18.1905 2.12295C18.5257 2.00658 18.8839 1.97211 19.2351 2.02235C19.5863 2.07258 19.9204 2.2061 20.2095 2.41175C20.4987 2.61741 20.7344 2.88925 20.897 3.20456C21.0597 3.51988 21.1446 3.86953 21.1446 4.22432V11.2682C21.1783 12.7939 20.866 14.3075 20.2311 15.6954L20.2208 15.7172C18.7381 18.7624 15.8961 20.8955 12.3561 22.2251C11.8518 22.4146 11.2959 22.4146 10.7916 22.2251C7.25262 20.8924 4.40913 18.7602 2.92628 15.7175L2.91584 15.6954C2.28098 14.3076 1.96871 12.794 2.00239 11.2683V4.22434C2.00239 3.86954 2.08727 3.51988 2.24993 3.20456C2.41258 2.88925 2.64831 2.61741 2.93742 2.41175C3.22653 2.2061 3.56065 2.07258 3.91187 2.02235ZM4.29772 4.01136C4.26468 4.00036 4.22952 3.99719 4.19502 4.00213C4.15957 4.0072 4.12586 4.02067 4.09668 4.04143C4.0675 4.06218 4.04371 4.08961 4.0273 4.12143C4.01089 4.15325 4.00232 4.18853 4.00232 4.22434V11.2796L4.00205 11.3028C3.97361 12.5258 4.22231 13.7393 4.72945 14.8524C5.92086 17.2881 8.26756 19.1376 11.4957 20.3532C11.5466 20.3723 11.6019 20.3721 11.6528 20.3529C14.88 19.1408 17.226 17.2908 18.4174 14.8525C18.9246 13.7394 19.1733 12.5259 19.1449 11.3028L19.1446 11.2796V4.22435C19.1446 4.18854 19.1361 4.15325 19.1197 4.12143C19.1032 4.08961 19.0795 4.06218 19.0503 4.04143C19.0211 4.02067 18.9874 4.0072 18.9519 4.00213C18.9174 3.99719 18.8823 4.00036 18.8492 4.01137C14.1447 5.69445 9.00221 5.69445 4.29772 4.01136Z" fill="#101C2D"/>
<path fill-rule="evenodd" clip-rule="evenodd" d="M7.85476 12.1026C8.40646 12.0776 8.87401 12.5045 8.89907 13.0562C8.92945 13.7249 9.22358 14.3544 9.71705 14.8067C10.2105 15.2591 10.8631 15.4975 11.532 15.4697C11.5596 15.4685 11.5873 15.4685 11.615 15.4697C12.2838 15.4975 12.9364 15.2591 13.4299 14.8067C13.9234 14.3544 14.2175 13.7249 14.2479 13.0562C14.2729 12.5045 14.7405 12.0776 15.2922 12.1026C15.8439 12.1277 16.2708 12.5953 16.2458 13.147C16.1914 14.3442 15.6648 15.4711 14.7813 16.281C13.908 17.0815 12.7564 17.5077 11.5735 17.4694C10.3905 17.5077 9.23892 17.0815 8.36565 16.281C7.48218 15.4711 6.95559 14.3442 6.90121 13.147C6.87614 12.5953 7.30306 12.1277 7.85476 12.1026Z" fill="#101C2D"/>
<path fill-rule="evenodd" clip-rule="evenodd" d="M5.80468 7.63888C6.27924 7.16432 6.92289 6.89771 7.59403 6.89771C8.26516 6.89771 8.90881 7.16432 9.38338 7.63888C9.85794 8.11345 10.1245 8.7571 10.1245 9.42823C10.1245 9.9805 9.67685 10.4282 9.12459 10.4282C8.57232 10.4282 8.12462 9.9805 8.12462 9.42823C8.12462 9.28751 8.06872 9.15255 7.96921 9.05305C7.86971 8.95354 7.73475 8.89764 7.59403 8.89764C7.45331 8.89764 7.31835 8.95354 7.21884 9.05305C7.11934 9.15255 7.06343 9.28751 7.06343 9.42823C7.06343 9.9805 6.61574 10.4282 6.06347 10.4282C5.51121 10.4282 5.06351 9.9805 5.06351 9.42823C5.06351 8.7571 5.33011 8.11345 5.80468 7.63888Z" fill="#101C2D"/>
<path fill-rule="evenodd" clip-rule="evenodd" d="M13.7636 7.63888C14.2381 7.16432 14.8818 6.89771 15.5529 6.89771C16.2241 6.89771 16.8677 7.16432 17.3423 7.63888C17.8168 8.11345 18.0835 8.7571 18.0835 9.42823C18.0835 9.9805 17.6358 10.4282 17.0835 10.4282C16.5312 10.4282 16.0835 9.9805 16.0835 9.42823C16.0835 9.28751 16.0276 9.15255 15.9281 9.05305C15.8286 8.95354 15.6937 8.89764 15.5529 8.89764C15.4122 8.89764 15.2772 8.95354 15.1777 9.05305C15.0782 9.15255 15.0223 9.28751 15.0223 9.42823C15.0223 9.9805 14.5746 10.4282 14.0224 10.4282C13.4701 10.4282 13.0224 9.9805 13.0224 9.42823C13.0224 8.7571 13.289 8.11345 13.7636 7.63888Z" fill="#101C2D"/>
</svg>
