<svg width="24" height="24" viewBox="0 0 24 24" fill="none" xmlns="http://www.w3.org/2000/svg">
<rect opacity="0.2" x="5" y="17" width="14" height="5" fill="#0A0B0D"/>
<circle opacity="0.2" cx="12" cy="10" r="4" fill="#0A0B0D"/>
<path fill-rule="evenodd" clip-rule="evenodd" d="M6.7587 1H17.2413C18.0463 0.999988 18.7106 0.999977 19.2518 1.04419C19.8139 1.09012 20.3306 1.18868 20.816 1.43597C21.5686 1.81947 22.1805 2.43139 22.564 3.18404C22.8113 3.66937 22.9099 4.18608 22.9558 4.74817C23 5.28936 23 5.95372 23 6.75868V17.2413C23 18.0463 23 18.7106 22.9558 19.2518C22.9099 19.8139 22.8113 20.3306 22.564 20.816C22.1805 21.5686 21.5686 22.1805 20.816 22.564C20.6461 22.6506 20.4713 22.7195 20.2899 22.7745C19.5428 23.0008 18.5943 23.0005 17.3661 23C17.3113 23 17.2559 23 17.2 23H6.8C6.74407 23 6.68871 23 6.6339 23C5.40566 23.0005 4.45716 23.0008 3.71007 22.7745C3.52872 22.7195 3.35389 22.6506 3.18404 22.564C2.43139 22.1805 1.81947 21.5686 1.43597 20.816C1.18868 20.3306 1.09012 19.8139 1.04419 19.2518C0.999977 18.7106 0.999988 18.0463 1 17.2413V6.7587C0.999988 5.95373 0.999977 5.28937 1.04419 4.74817C1.09012 4.18608 1.18868 3.66937 1.43597 3.18404C1.81947 2.43139 2.43139 1.81947 3.18404 1.43597C3.66937 1.18868 4.18608 1.09012 4.74817 1.04419C5.28937 0.999977 5.95373 0.999988 6.7587 1ZM4.91104 3.03755C4.47262 3.07337 4.24842 3.1383 4.09202 3.21799C3.7157 3.40973 3.40973 3.7157 3.21799 4.09202C3.1383 4.24842 3.07337 4.47262 3.03755 4.91104C3.00078 5.36113 3 5.94342 3 6.8V17.2C3 18.0566 3.00078 18.6389 3.03755 19.089C3.06353 19.407 3.10483 19.6123 3.15597 19.7607C3.63035 17.9045 5.12992 16.4729 7.02455 16.0961C7.50935 15.9996 8.06664 15.9998 8.88424 16C8.92226 16 8.96084 16 9 16H15C15.0392 16 15.0777 16 15.1158 16C15.9334 15.9998 16.4907 15.9996 16.9755 16.0961C18.8701 16.4729 20.3697 17.9045 20.844 19.7607C20.8952 19.6123 20.9365 19.407 20.9624 19.089C20.9992 18.6389 21 18.0566 21 17.2V6.8C21 5.94342 20.9992 5.36113 20.9624 4.91104C20.9266 4.47262 20.8617 4.24842 20.782 4.09202C20.5903 3.7157 20.2843 3.40973 19.908 3.21799C19.7516 3.1383 19.5274 3.07337 19.089 3.03755C18.6389 3.00078 18.0566 3 17.2 3H6.8C5.94342 3 5.36113 3.00078 4.91104 3.03755ZM18.9918 20.9701C18.984 20.7089 18.9693 20.5503 18.9424 20.4147C18.7056 19.2247 17.7753 18.2944 16.5853 18.0576C16.3198 18.0048 15.9772 18 15 18H9C8.02276 18 7.68018 18.0048 7.41473 18.0576C6.22466 18.2944 5.29436 19.2247 5.05765 20.4147C5.03068 20.5503 5.01596 20.7089 5.00817 20.9701C5.41515 20.9965 5.97445 21 6.8 21H17.2C18.0256 21 18.5848 20.9965 18.9918 20.9701ZM12 6.5C10.3431 6.5 9 7.84315 9 9.5C9 11.1569 10.3431 12.5 12 12.5C13.6569 12.5 15 11.1569 15 9.5C15 7.84315 13.6569 6.5 12 6.5ZM7 9.5C7 6.73858 9.23858 4.5 12 4.5C14.7614 4.5 17 6.73858 17 9.5C17 12.2614 14.7614 14.5 12 14.5C9.23858 14.5 7 12.2614 7 9.5Z" fill="#0A0B0D"/>
</svg>
