<svg width="24" height="24" viewBox="0 0 24 24" fill="none" xmlns="http://www.w3.org/2000/svg">
<path opacity="0.2" d="M21.4 9.29999C21.4 10.3 21.4 11.3 21.4 12C21.4 12.4 21.4 12.9 21.4 13.3C21.4 13.3 21.4 13.4 21.4 13.5V13.6C21.4 13.5 21.4 13.5 21.4 13.4C21.3 9.29999 17.9 8.59999 15.5 8.59999C14.6 8.59999 13.8 7.79999 13.8 6.89999V0.899994C13.9 0.899994 14 0.899994 14.1 0.899994C14.8 0.899994 15.5 1.09999 16 1.59999C17.7 2.89999 18.8 3.99999 20.1 5.59999C21 6.59999 21.4 7.89999 21.4 9.29999Z" fill="#101C2D"/>
<path d="M12 24C9.79995 24 7.89995 23.9 5.79995 23.8C3.69995 23.7 2.09995 22 1.89995 19.9C1.79995 17.4 1.69995 14.5 1.69995 12C1.69995 9.5 1.79995 6.6 1.89995 4.1C2.09995 2 3.69995 0.3 5.79995 0.2C7.89995 0.1 9.79995 0 12 0C12.8 0 13.5 0 14.2 0C15.1 0 15.9 0.3 16.6 0.8C18.3 2.1 19.5 3.3 20.7999 5C21.6999 6.2 22.2 7.7 22.2 9.2C22.2 10.2 22.2 11.2 22.2 11.9C22.2 14.4 22.1 17.3 22 19.8C21.9 21.9 20.2 23.5 18.1 23.7C16.1 23.9 14.2 24 12 24ZM12 1.7C9.79995 1.7 7.89995 1.8 5.89995 1.9C4.69995 2 3.69995 3 3.69995 4.2C3.49995 6.7 3.39995 9.5 3.39995 12C3.39995 14.5 3.49995 17.3 3.59995 19.8C3.69995 21 4.59995 22 5.89995 22.1C7.89995 22.2 9.79995 22.3 12 22.3C14.2 22.3 16.1 22.2 18.1 22.1C19.3 22 20.2999 21 20.4 19.8C20.5 17.3 20.6 14.5 20.6 12C20.6 11.3 20.6 10.3 20.6 9.3C20.6 8.1 20.2 7 19.5 6.1C18.2999 4.5 17.2 3.5 15.6 2.2C15.2 1.9 14.7 1.7 14.2 1.7C13.5 1.7 12.8 1.7 12 1.7Z" fill="#101C2D"/>
<path d="M11.5 13.1C11 13.1 10.6 12.7 10.6 12.2C10.6 11.4 9.79995 10.8 8.69995 10.8C7.59995 10.8 6.79995 11.3 6.79995 12.2C6.79995 12.7 6.39995 13.1 5.89995 13.1C5.39995 13.1 4.99995 12.7 4.99995 12.2C4.99995 10.4 6.49995 9.1 8.59995 9.1C10.7 9.1 12.2 10.4 12.2 12.2C12.4 12.7 12 13.1 11.5 13.1Z" fill="#101C2D"/>
<path d="M8.69995 10.9C6.99995 10.9 5.69995 9.5 5.69995 7.9C5.69995 6.3 7.09995 4.9 8.69995 4.9C10.3 4.9 11.7 6.3 11.7 7.9C11.7 9.5 10.4 10.9 8.69995 10.9ZM8.69995 6.5C7.99995 6.5 7.39995 7.1 7.39995 7.9C7.39995 8.7 7.99995 9.2 8.69995 9.2C9.39995 9.2 9.99995 8.6 9.99995 7.9C9.99995 7.2 9.49995 6.5 8.69995 6.5Z" fill="#101C2D"/>
<path d="M16.4 16.7H6.19995C5.69995 16.7 5.29995 16.3 5.29995 15.8C5.29995 15.3 5.69995 15 6.19995 15H16.4C16.9 15 17.3 15.4 17.3 15.9C17.3 16.4 16.9 16.7 16.4 16.7Z" fill="#101C2D"/>
<path d="M13 20.3H6.19995C5.69995 20.3 5.29995 19.9 5.29995 19.4C5.29995 18.9 5.69995 18.5 6.19995 18.5H13C13.5 18.5 13.9 18.9 13.9 19.4C13.9 19.9 13.5 20.3 13 20.3Z" fill="#101C2D"/>
<path d="M22.2999 13.5H20.6C20.6 10.8 19 9.5 15.6 9.4C14.2 9.4 13.1 8.2 13.1 6.8V1.3H14.8V6.8C14.8 7.3 15.2 7.6 15.7 7.6C21.1 7.8 22.2999 10.9 22.2999 13.5Z" fill="#101C2D"/>
</svg>
