<svg width="24" height="24" viewBox="0 0 24 24" fill="none" xmlns="http://www.w3.org/2000/svg">
<path opacity="0.2" d="M21.4074 9.28201C21.4214 10.2499 21.4286 11.2573 21.4286 11.9999C21.4286 12.4329 21.4262 12.8777 21.4214 13.3307C21.4223 13.3803 21.4228 13.4303 21.4228 13.4809L21.4188 13.5466C21.4199 13.4745 21.4206 13.4025 21.4214 13.3307C21.3402 9.1896 17.8922 8.56196 15.5397 8.49401C14.5933 8.46667 13.8269 7.7367 13.8269 6.78994V0.872833C13.9444 0.874944 14.061 0.877261 14.1767 0.87979C14.8636 0.894802 15.5311 1.12259 16.0751 1.54241C17.778 2.85673 18.905 3.98544 20.1467 5.58301C20.967 6.63864 21.388 7.94521 21.4074 9.28201Z" fill="#1D2127"/>
<path d="M21.2016 19.8573L20.3459 19.8075L20.3459 19.8076L21.2016 19.8573ZM21.4073 9.28207L20.5502 9.29449L20.5502 9.29452L21.4073 9.28207ZM20.1466 5.58307L20.8234 5.05714L20.8234 5.05708L20.1466 5.58307ZM16.075 1.54246L16.5987 0.863908L16.5987 0.863905L16.075 1.54246ZM14.1766 0.879846L14.1579 1.73678L14.1579 1.73678L14.1766 0.879846ZM5.85547 1.06072L5.91426 1.91585L5.85547 1.06072ZM2.79831 4.14282L3.65402 4.19251L3.65402 4.1925L2.79831 4.14282ZM2.79831 19.8573L3.65402 19.8076L3.65402 19.8076L2.79831 19.8573ZM5.85547 22.9392L5.91428 22.0841L5.91421 22.0841L5.85547 22.9392ZM18.1445 22.9392L18.0857 22.0841L18.0857 22.0841L18.1445 22.9392ZM10.6493 12.2626C10.6493 12.736 11.033 13.1197 11.5064 13.1197C11.9798 13.1197 12.3636 12.736 12.3636 12.2626H10.6493ZM5.12066 12.2626C5.12066 12.736 5.50441 13.1197 5.9778 13.1197C6.45119 13.1197 6.83494 12.736 6.83494 12.2626H5.12066ZM6.20129 15.0234C5.7279 15.0234 5.34415 15.4072 5.34415 15.8806C5.34415 16.354 5.7279 16.7377 6.20129 16.7377V15.0234ZM16.4249 16.7377C16.8983 16.7377 17.2821 16.354 17.2821 15.8806C17.2821 15.4072 16.8983 15.0234 16.4249 15.0234V16.7377ZM6.20129 18.57C5.7279 18.57 5.34415 18.9538 5.34415 19.4271C5.34415 19.9005 5.7279 20.2843 6.20129 20.2843V18.57ZM12.9963 20.2843C13.4697 20.2843 13.8535 19.9005 13.8535 19.4271C13.8535 18.9538 13.4697 18.57 12.9963 18.57V20.2843ZM15.5396 8.49407L15.5149 9.35085H15.5149L15.5396 8.49407ZM22.0573 19.907C22.2071 17.3297 22.2857 14.4741 22.2857 12H20.5714C20.5714 14.4421 20.4937 17.2645 20.3459 19.8075L22.0573 19.907ZM22.2857 12C22.2857 11.2528 22.2785 10.2412 22.2643 9.26962L20.5502 9.29452C20.5642 10.2587 20.5714 11.262 20.5714 12H22.2857ZM22.2644 9.26965C22.2425 7.76313 21.7677 6.27233 20.8234 5.05714L19.4698 6.10901C20.1661 7.00506 20.5333 8.12738 20.5502 9.29449L22.2644 9.26965ZM20.8234 5.05708C19.5366 3.40137 18.3579 2.22163 16.5987 0.863908L15.5513 2.22101C17.1981 3.49195 18.2734 4.56962 19.4698 6.10907L20.8234 5.05708ZM16.5987 0.863905C15.9045 0.328165 15.0586 0.0417705 14.1953 0.0229077L14.1579 1.73678C14.6685 1.74794 15.1576 1.91712 15.5513 2.22102L16.5987 0.863905ZM14.1953 0.0229078C13.4997 0.00770736 12.7741 4.35114e-06 12 4.35114e-06V1.71429C12.7627 1.71429 13.4758 1.72188 14.1579 1.73678L14.1953 0.0229078ZM12 4.35114e-06C9.65442 4.35114e-06 7.75835 0.0707268 5.79668 0.2056L5.91426 1.91585C7.8363 1.7837 9.69315 1.71429 12 1.71429V4.35114e-06ZM5.79668 0.2056C3.7169 0.348593 2.06377 2.00657 1.94261 4.09313L3.65402 4.1925C3.72483 2.97292 4.69013 2.00001 5.91426 1.91585L5.79668 0.2056ZM1.94261 4.09313C1.79296 6.67031 1.71427 9.52587 1.71427 12H3.42855C3.42855 9.55791 3.50634 6.73551 3.65402 4.19251L1.94261 4.09313ZM1.71427 12C1.71427 14.4741 1.79296 17.3297 1.94261 19.907L3.65402 19.8076C3.50634 17.2645 3.42855 14.4421 3.42855 12H1.71427ZM1.94261 19.9069C2.06377 21.9935 3.71692 23.6515 5.79672 23.7943L5.91421 22.0841C4.69011 22 3.72483 21.0272 3.65402 19.8076L1.94261 19.9069ZM5.79666 23.7943C7.75833 23.9292 9.65441 24 12 24V22.2857C9.69316 22.2857 7.83632 22.2163 5.91428 22.0841L5.79666 23.7943ZM12 24C14.3456 24 16.2416 23.9292 18.2033 23.7943L18.0857 22.0841C16.1636 22.2163 14.3068 22.2857 12 22.2857V24ZM18.2032 23.7943C20.283 23.6515 21.9361 21.9935 22.0573 19.907L20.3459 19.8076C20.2751 21.0272 19.3098 22 18.0857 22.0841L18.2032 23.7943ZM12.3636 12.2626C12.3636 10.3811 10.7332 9.18834 8.7421 9.18834V10.9026C10.1108 10.9026 10.6493 11.6224 10.6493 12.2626H12.3636ZM8.7421 9.18834C6.75098 9.18834 5.12066 10.3811 5.12066 12.2626H6.83494C6.83494 11.6224 7.37346 10.9026 8.7421 10.9026V9.18834ZM8.7421 10.9026C10.4214 10.9026 11.7814 9.54109 11.7814 7.86259H10.0671C10.0671 8.5951 9.47382 9.18834 8.7421 9.18834V10.9026ZM11.7814 7.86259C11.7814 6.18371 10.4204 4.82268 8.74147 4.82268V6.53697C9.47357 6.53697 10.0671 7.13047 10.0671 7.86259H11.7814ZM8.74147 4.82268C7.06257 4.82268 5.70158 6.18371 5.70158 7.86259H7.41586C7.41586 7.13047 8.00936 6.53697 8.74147 6.53697V4.82268ZM5.70158 7.86259C5.70158 9.54174 7.06347 10.9026 8.7421 10.9026V9.18834C8.00973 9.18834 7.41586 8.59445 7.41586 7.86259H5.70158ZM6.20129 16.7377H16.4249V15.0234H6.20129V16.7377ZM6.20129 20.2843H12.9963V18.57H6.20129V20.2843ZM12.9697 1.29503V6.78998H14.684V1.29503H12.9697ZM12.9697 6.78998C12.9697 8.2377 14.143 9.31122 15.5149 9.35085L15.5644 7.63728C15.0435 7.62223 14.684 7.23583 14.684 6.78998H12.9697ZM15.5149 9.35085C16.6692 9.38419 17.9553 9.55842 18.9331 10.1448C19.8356 10.6861 20.5656 11.6292 20.5656 13.481H22.2799C22.2799 11.0565 21.2586 9.54058 19.8148 8.67464C18.4461 7.85382 16.7907 7.6727 15.5644 7.63728L15.5149 9.35085Z" fill="#1D2127"/>
</svg>
