<svg width="24" height="24" viewBox="0 0 24 24" fill="none" xmlns="http://www.w3.org/2000/svg">
<path fill-rule="evenodd" clip-rule="evenodd" d="M2 4C2 2.34315 3.34315 1 5 1H19C20.6569 1 22 2.34315 22 4V18C22 19.6569 20.6569 21 19 21H17.7996L15.8999 22.8997C15.5094 23.2902 14.8763 23.2902 14.4857 22.8997L12.0106 20.4248L9.53578 22.8997C9.14525 23.2902 8.51209 23.2902 8.12156 22.8997L6.22189 21H5C3.34315 21 2 19.6569 2 18V4ZM7.41446 19.3641L8.82867 20.7783L10.0911 19.516C9.49534 19.1919 8.99117 18.7208 8.62723 18.1514L7.41446 19.3641ZM8.00031 15.9499L5.29314 18.657C5.19457 18.7556 5.1187 18.8726 5.0689 19H5C4.44772 19 4 18.5523 4 18V4C4 3.44772 4.44772 3 5 3H19C19.5523 3 20 3.44772 20 4V18C20 18.5523 19.5523 19 19 19H18.9526C18.9028 18.8726 18.8269 18.7556 18.7283 18.657L15.9994 15.928C15.961 13.7521 14.1851 12 12 12C9.8076 12 8.02716 13.7638 8.00031 15.9499ZM10.0135 16.2334C10.0132 16.2313 10.013 16.2292 10.0127 16.2271C10.0043 16.1525 10 16.0768 10 16C10 14.8954 10.8954 14 12 14C13.1046 14 14 14.8954 14 16C14 17.0953 13.1195 17.9849 12.0278 17.9998C12.0224 17.9998 12.0171 17.9998 12.0117 17.9998L11.9957 18C10.972 17.9978 10.1289 17.2266 10.0135 16.2334ZM13.9227 19.5084C14.517 19.1821 15.0194 18.7091 15.3811 18.1382L16.607 19.3641L15.1928 20.7784L13.9227 19.5084ZM8 6C8 5.44772 8.44772 5 9 5H15C15.5523 5 16 5.44772 16 6C16 6.55228 15.5523 7 15 7H9C8.44772 7 8 6.55228 8 6ZM6 9.5C6 8.94772 6.44772 8.5 7 8.5H17C17.5523 8.5 18 8.94772 18 9.5C18 10.0523 17.5523 10.5 17 10.5H7C6.44772 10.5 6 10.0523 6 9.5Z" fill="#0A0B0D"/>
</svg>
