<svg width="24" height="24" viewBox="0 0 24 24" fill="none" xmlns="http://www.w3.org/2000/svg">
<g clip-path="url(#clip0_2850_15056)">
<path d="M9.51003 17.9999L6.39003 22.1999C6.33003 22.2899 6.24003 22.3699 6.15003 22.4199C6.05003 22.4699 5.94003 22.5099 5.84003 22.5099C5.73003 22.5199 5.62003 22.4999 5.51003 22.4599C5.41003 22.4199 5.32003 22.3599 5.22003 22.2499L1.72003 18.7499C1.64003 18.6799 1.58003 18.5799 1.55003 18.4799C1.51003 18.3799 1.50003 18.2699 1.51003 18.1599C1.52003 18.0499 1.55003 17.9499 1.61003 17.8499C1.66003 17.7499 1.74003 17.6799 1.84003 17.5999L6.00003 14.5499C6.33003 14.2999 6.41003 13.8399 6.16003 13.4999C5.91003 13.1599 5.45003 13.0899 5.11003 13.3399L0.950029 16.3999C0.680029 16.5899 0.460029 16.8299 0.290029 17.1199C0.130029 17.4 0.0300293 17.7199 2.92789e-05 18.0399C-0.0299707 18.3599 0.0200293 18.6999 0.130029 18.9999C0.240029 19.3099 0.430029 19.5899 0.650029 19.8099L4.12003 23.2699C4.35003 23.5199 4.63003 23.7099 4.94003 23.8399C5.20003 23.9499 5.49003 23.9999 5.78003 23.9999C5.83003 23.9999 5.87003 23.9999 5.92003 23.9999C6.25003 23.9799 6.58003 23.8799 6.87003 23.7199C7.16003 23.5599 7.42003 23.3299 7.59003 23.0699L10.7 18.8899C10.95 18.5599 10.88 18.0899 10.55 17.8399C10.23 17.5999 9.76003 17.6699 9.51003 17.9999Z" fill="#171717"/>
<path d="M14.53 6.01995L17.62 1.81995C17.68 1.72995 17.76 1.64995 17.86 1.59995C17.96 1.53995 18.07 1.50995 18.18 1.49995C18.29 1.48995 18.4 1.50995 18.5 1.54995C18.6 1.58995 18.7 1.64995 18.79 1.74995L22.29 5.28995C22.37 5.36995 22.43 5.45995 22.46 5.55995C22.5 5.65995 22.51 5.76995 22.5 5.87995C22.49 5.98995 22.46 6.08995 22.4 6.18995C22.35 6.27995 22.27 6.35995 22.17 6.43995L17.98 9.50995C17.65 9.74995 17.57 10.2199 17.82 10.5599C17.97 10.7599 18.2 10.8699 18.43 10.8699C18.58 10.8699 18.74 10.82 18.87 10.7199L23.05 7.65995C23.32 7.46995 23.54 7.21995 23.7 6.93995C23.87 6.62995 23.97 6.29995 24 5.97995C24.03 5.65995 23.98 5.31995 23.87 5.00995C23.75 4.69995 23.58 4.41995 23.35 4.19995L19.87 0.67995C19.64 0.43995 19.35 0.23995 19.04 0.12995C18.73 0.00994992 18.39 -0.0400501 18.05 -0.0100501C17.72 0.0199499 17.39 0.11995 17.1 0.28995C16.81 0.45995 16.56 0.68995 16.39 0.94995L13.32 5.12995C13.07 5.45995 13.15 5.92995 13.48 6.17995C13.82 6.41995 14.29 6.34995 14.53 6.01995Z" fill="#171717"/>
<path d="M23.66 16.6299L16.5 11.9999C16.5 9.51995 14.48 7.50995 12 7.50995C9.52003 7.50995 7.50003 9.52995 7.50003 12.0099C7.50003 14.49 9.52003 16.51 11.99 16.51L16.62 23.67C16.76 23.8899 17 24.01 17.25 24.01C17.3 24.01 17.34 24.01 17.39 24C17.69 23.94 17.93 23.7099 17.98 23.41L18.88 18.9L23.4 18C23.7 17.9399 23.93 17.7099 23.99 17.41C24.04 17.0999 23.91 16.7999 23.66 16.6299ZM9.00003 12.0099C9.00003 10.3599 10.35 9.00995 12 9.00995C13.65 9.00995 15 10.3599 15 12.0099C15 13.66 13.65 15.0099 12 15.0099C10.35 15.0099 9.00003 13.6699 9.00003 12.0099ZM18.1 17.53C17.8 17.59 17.57 17.82 17.51 18.12L16.87 21.3099L13.58 16.2199C14.78 15.7599 15.74 14.8099 16.19 13.6099L21.28 16.9L18.1 17.53Z" fill="#171717"/>
</g>
<defs>
<clipPath id="clip0_2850_15056">
<rect width="24" height="24" fill="white"/>
</clipPath>
</defs>
</svg>
