<svg width="24" height="24" viewBox="0 0 24 24" fill="none" xmlns="http://www.w3.org/2000/svg">
<path d="M9.51178 17.9971L6.39401 22.1921C6.33405 22.282 6.24411 22.3619 6.15418 22.4119C6.05425 22.4618 5.94433 22.5018 5.8444 22.5018C5.73448 22.5118 5.62456 22.4918 5.51463 22.4518C5.41471 22.4119 5.32477 22.352 5.22484 22.2421L1.72734 18.7462C1.6474 18.6763 1.58744 18.5764 1.55746 18.4766C1.51749 18.3767 1.5075 18.2668 1.51749 18.1569C1.52748 18.0471 1.55746 17.9472 1.61742 17.8473C1.66738 17.7474 1.74733 17.6775 1.84725 17.5976L6.00428 14.5512C6.33405 14.3015 6.41399 13.8421 6.16417 13.5025C5.91435 13.1629 5.45468 13.093 5.11492 13.3427L0.95789 16.399C0.688083 16.5888 0.46824 16.8285 0.298361 17.1182C0.138475 17.3978 0.0385467 17.7175 0.00856808 18.0371C-0.0214105 18.3567 0.0285538 18.6963 0.138475 18.9959C0.248397 19.3056 0.438261 19.5852 0.658104 19.805L4.12563 23.2609C4.35546 23.5106 4.63526 23.7004 4.94504 23.8302C5.20486 23.9401 5.49465 23.99 5.78444 23.99C5.83441 23.99 5.87438 23.99 5.92434 23.99C6.25411 23.97 6.58387 23.8702 6.87366 23.7103C7.16346 23.5505 7.42327 23.3208 7.59315 23.0611L10.7009 18.8861C10.9507 18.5565 10.8808 18.087 10.551 17.8373C10.2313 17.5976 9.7616 17.6675 9.51178 17.9971Z" fill="#1D2127"/>
<path d="M14.5282 6.03134L17.616 1.83632C17.6759 1.74643 17.7559 1.66653 17.8558 1.61658C17.9557 1.55666 18.0657 1.52669 18.1756 1.5167C18.2855 1.50672 18.3954 1.52669 18.4954 1.56664C18.5953 1.6066 18.6952 1.66653 18.7852 1.76641L22.2827 5.30221C22.3626 5.38211 22.4226 5.47201 22.4525 5.57189C22.4925 5.67177 22.5025 5.78164 22.4925 5.89151C22.4825 6.00138 22.4525 6.10126 22.3926 6.20114C22.3426 6.29103 22.2627 6.37094 22.1627 6.45084L17.9757 9.5172C17.646 9.75692 17.566 10.2264 17.8158 10.566C17.9657 10.7657 18.1956 10.8756 18.4254 10.8756C18.5753 10.8756 18.7352 10.8256 18.8651 10.7258L23.0421 7.6694C23.3119 7.47962 23.5318 7.22992 23.6916 6.95025C23.8615 6.64062 23.9615 6.31101 23.9914 5.99139C24.0214 5.67177 23.9714 5.33217 23.8615 5.02254C23.7416 4.71291 23.5717 4.43324 23.3419 4.2135L19.8644 0.697676C19.6345 0.457961 19.3448 0.258198 19.035 0.148328C18.7252 0.0284708 18.3854 -0.0214699 18.0457 0.00849452C17.7159 0.0384589 17.3862 0.13834 17.0964 0.308139C16.8066 0.477937 16.5567 0.707664 16.3869 0.967356L13.3191 5.1424C13.0692 5.47201 13.1492 5.94145 13.4789 6.19115C13.8187 6.43087 14.2884 6.36095 14.5282 6.03134Z" fill="#1D2127"/>
<path d="M23.6517 16.6288L16.4968 12.0042C16.4968 9.52719 14.4782 7.51957 12 7.51957C9.52177 7.51957 7.50321 9.53718 7.50321 12.0142C7.50321 14.4913 9.52177 16.5089 11.99 16.5089L16.6167 23.6604C16.7566 23.8801 16.9964 24 17.2463 24C17.2962 24 17.3362 24 17.3862 23.99C17.6859 23.9301 17.9258 23.7004 17.9757 23.4007L18.8751 18.8961L23.3919 17.9971C23.6916 17.9372 23.9215 17.7075 23.9814 17.4078C24.0314 17.0982 23.9015 16.7986 23.6517 16.6288ZM9.00214 12.0142C9.00214 10.3662 10.3512 9.01779 12 9.01779C13.6488 9.01779 14.9979 10.3662 14.9979 12.0142C14.9979 13.6623 13.6488 15.0107 12 15.0107C10.3512 15.0107 9.00214 13.6723 9.00214 12.0142ZM18.0956 17.5277C17.7959 17.5876 17.566 17.8173 17.5061 18.117L16.8665 21.3032L13.5789 16.2192C14.778 15.7598 15.7373 14.8109 16.187 13.6123L21.2734 16.8984L18.0956 17.5277Z" fill="#1D2127"/>
</svg>
