<svg width="24" height="24" viewBox="0 0 24 24" fill="none" xmlns="http://www.w3.org/2000/svg">
<path d="M10.796 13.583C10.796 13.8568 10.8449 14.1208 10.9524 14.375C11.06 14.6195 11.2067 14.8444 11.3925 15.0302C11.6859 15.3236 12.0477 15.5192 12.4486 15.5974C12.8495 15.6756 13.27 15.6267 13.6416 15.4605L15.5974 14.6097C15.705 14.5608 15.8125 14.5511 15.9299 14.5706C16.0374 14.5902 16.145 14.6488 16.2232 14.7369C16.2819 14.7955 16.321 14.8542 16.3504 14.9227C16.3797 14.9911 16.3993 15.0693 16.3993 15.1476C16.3993 15.2258 16.3797 15.2943 16.3504 15.3627C16.321 15.4312 16.2819 15.4996 16.2037 15.5681L14.8542 16.9762C14.5706 17.2696 14.5804 17.7292 14.8738 18.0128C15.0204 18.1497 15.1965 18.2181 15.3823 18.2181C15.5778 18.2181 15.7636 18.1399 15.9103 17.9932L16.409 17.4749L16.4188 17.4847C16.5655 17.6314 16.7513 17.6999 16.9371 17.6999C17.1229 17.6999 17.3087 17.6314 17.4554 17.4847C17.739 17.2011 17.739 16.7317 17.4554 16.4482L17.4065 16.3993C17.5238 16.2526 17.6216 16.1059 17.6901 15.9299C17.7976 15.6756 17.8465 15.4116 17.8465 15.1476C17.8465 14.8835 17.7976 14.6097 17.6901 14.3555C17.5825 14.111 17.4358 13.8861 17.25 13.7003C16.9567 13.4069 16.5948 13.2114 16.1939 13.1331C15.7832 13.0549 15.3725 13.1038 15.0009 13.27L13.0451 14.1208C12.9375 14.1599 12.83 14.1795 12.7126 14.1599C12.6051 14.1403 12.4975 14.0817 12.4193 13.9937C12.3606 13.935 12.3215 13.8763 12.2921 13.8079C12.2628 13.7394 12.253 13.6612 12.253 13.5927C12.253 13.5145 12.2726 13.446 12.3019 13.3776C12.3313 13.3091 12.3704 13.2407 12.4388 13.182L13.8372 11.7739C14.1208 11.4903 14.1208 11.0209 13.8372 10.7373C13.5536 10.4537 13.0842 10.4537 12.8006 10.7373L12.2824 11.2556C11.9988 10.972 11.5294 10.972 11.2458 11.2556C10.9622 11.5392 10.9622 12.0086 11.2458 12.2921L11.2654 12.3117C11.1382 12.4584 11.0307 12.6246 10.9622 12.8006C10.8449 13.0451 10.796 13.3091 10.796 13.583Z" fill="#171717"/>
<path d="M22.8338 13.7394C22.7262 13.4754 22.5599 13.2309 22.3546 13.0256L12.9473 3.65741C12.7322 3.44227 12.4877 3.28581 12.2041 3.16846C11.9303 3.0609 11.637 3.00222 11.2458 3.02178L7.49072 3.5694C7.08979 3.62807 6.81598 3.99967 6.87465 4.4006C6.93333 4.80153 7.30492 5.07534 7.70586 5.01667L11.3729 4.47883C11.4707 4.46905 11.5685 4.49839 11.6663 4.52773C11.7641 4.55706 11.8423 4.61574 11.9108 4.69397L21.318 14.0621C21.3865 14.1306 21.4354 14.2088 21.4745 14.2968C21.5136 14.3848 21.5332 14.4826 21.5332 14.5706C21.5332 14.6586 21.5136 14.7564 21.4745 14.8444C21.4354 14.9324 21.3865 15.0107 21.3083 15.0889L15.0889 21.3083C15.0204 21.3767 14.9422 21.4256 14.8542 21.4647C14.6684 21.5429 14.4728 21.5429 14.2968 21.4647C14.2088 21.4256 14.1306 21.3767 14.0523 21.2985L4.76242 12.0183C4.69397 11.9499 4.64507 11.8717 4.60596 11.7934C4.56684 11.7054 4.55706 11.6076 4.54728 11.5978L5.07534 7.80364C5.13402 7.40271 4.85043 7.03111 4.44949 6.98222C4.05834 6.92355 3.67696 7.19736 3.62807 7.59829L3.09023 11.4805C3.08045 11.7739 3.13913 12.0672 3.24669 12.341C3.36404 12.6148 3.53028 12.8593 3.73564 13.0549L13.0256 22.3448C13.2309 22.5502 13.4656 22.7164 13.7394 22.8338C14.0132 22.9413 14.2968 23 14.5804 23C14.864 23 15.1476 22.9413 15.4214 22.8338C15.6952 22.7164 15.9299 22.5599 16.1352 22.3546L22.3546 16.1352C22.5599 15.9299 22.7262 15.6952 22.8338 15.4214C22.9511 15.1574 23 14.864 23 14.5804C23 14.2968 22.9413 14.0034 22.8338 13.7394Z" fill="#171717"/>
<path d="M6.31726 8.5175C6.31726 9.73008 7.30492 10.7177 8.5175 10.7177C9.73008 10.7177 10.7177 9.73008 10.7177 8.5175C10.7177 7.30492 9.73008 6.31726 8.5175 6.31726C8.17524 6.31726 7.86232 6.40527 7.57873 6.54217L2.24925 1.21269C1.96566 0.929103 1.49628 0.929103 1.21269 1.21269C0.929103 1.49628 0.929103 1.96566 1.21269 2.24925L6.54217 7.57873C6.39549 7.86232 6.31726 8.17524 6.31726 8.5175ZM9.25092 8.5175C9.25092 8.91844 8.91844 9.25092 8.5175 9.25092C8.11657 9.25092 7.78409 8.91844 7.78409 8.5175C7.78409 8.31215 7.86232 8.13613 7.99922 7.99922C8.13613 7.86232 8.31215 7.78409 8.5175 7.78409C8.91844 7.78409 9.25092 8.10679 9.25092 8.5175Z" fill="#171717"/>
</svg>
