<svg width="24" height="24" viewBox="0 0 24 24" fill="none" xmlns="http://www.w3.org/2000/svg">
<g clip-path="url(#clip0_2862_15602)">
<path d="M10.77 13.6199C10.77 13.8999 10.82 14.1699 10.93 14.4299C11.04 14.6799 11.19 14.9099 11.38 15.0999C11.68 15.3999 12.05 15.5999 12.46 15.6799C12.87 15.7599 13.3 15.7099 13.68 15.5399L15.68 14.6699C15.79 14.6199 15.9 14.6099 16.02 14.6299C16.13 14.6499 16.24 14.7099 16.32 14.7999C16.38 14.8599 16.42 14.9199 16.45 14.9899C16.48 15.0599 16.5 15.1399 16.5 15.2199C16.5 15.2999 16.48 15.3699 16.45 15.4399C16.42 15.5099 16.38 15.5799 16.3 15.6499L14.92 17.0899C14.63 17.3899 14.64 17.8599 14.94 18.1499C15.09 18.2899 15.27 18.3599 15.46 18.3599C15.66 18.3599 15.85 18.2799 16 18.1299L16.51 17.5999L16.52 17.6099C16.67 17.7599 16.86 17.8299 17.05 17.8299C17.24 17.8299 17.43 17.7599 17.58 17.6099C17.87 17.3199 17.87 16.8399 17.58 16.5499L17.53 16.4999C17.65 16.3499 17.75 16.1999 17.82 16.0199C17.93 15.7599 17.98 15.4899 17.98 15.2199C17.98 14.9499 17.93 14.6699 17.82 14.4099C17.71 14.1599 17.56 13.9299 17.37 13.7399C17.07 13.4399 16.7 13.2399 16.29 13.1599C15.87 13.0799 15.45 13.1299 15.07 13.2999L13.07 14.1699C12.96 14.2099 12.85 14.2299 12.73 14.2099C12.62 14.1899 12.51 14.1299 12.43 14.0399C12.37 13.9799 12.33 13.9199 12.3 13.8499C12.27 13.7799 12.26 13.6999 12.26 13.6299C12.26 13.5499 12.28 13.4799 12.31 13.4099C12.34 13.3399 12.38 13.2699 12.45 13.2099L13.88 11.7699C14.17 11.4799 14.17 10.9999 13.88 10.7099C13.59 10.4199 13.11 10.4199 12.82 10.7099L12.29 11.2399C12 10.9499 11.52 10.9499 11.23 11.2399C10.94 11.5299 10.94 12.0099 11.23 12.2999L11.25 12.3199C11.12 12.4699 11.01 12.6399 10.94 12.8199C10.82 13.0699 10.77 13.3399 10.77 13.6199Z" fill="#171717"/>
<path d="M23.08 13.7799C22.97 13.5099 22.8 13.2599 22.59 13.0499L12.97 3.46994C12.75 3.24994 12.5 3.08994 12.21 2.96994C11.93 2.85994 11.63 2.79994 11.23 2.81994L7.39 3.37994C6.98 3.43994 6.7 3.81994 6.76 4.22994C6.82 4.63994 7.2 4.91994 7.61 4.85994L11.36 4.30994C11.46 4.29994 11.56 4.32994 11.66 4.35994C11.76 4.38994 11.84 4.44994 11.91 4.52994L21.53 14.1099C21.6 14.1799 21.65 14.2599 21.69 14.3499C21.73 14.4399 21.75 14.5399 21.75 14.6299C21.75 14.7199 21.73 14.8199 21.69 14.9099C21.65 14.9999 21.6 15.0799 21.52 15.1599L15.16 21.5199C15.09 21.5899 15.01 21.6399 14.92 21.6799C14.73 21.7599 14.53 21.7599 14.35 21.6799C14.26 21.6399 14.18 21.5899 14.1 21.5099L4.6 12.0199C4.53 11.9499 4.48 11.8699 4.44 11.7899C4.4 11.6999 4.39 11.5999 4.38 11.5899L4.92 7.70994C4.98 7.29994 4.69 6.91994 4.28 6.86994C3.88 6.80994 3.49 7.08994 3.44 7.49994L2.89 11.4699C2.88 11.7699 2.94 12.0699 3.05 12.3499C3.17 12.6299 3.34 12.8799 3.55 13.0799L13.05 22.5799C13.26 22.7899 13.5 22.9599 13.78 23.0799C14.06 23.1899 14.35 23.2499 14.64 23.2499C14.93 23.2499 15.22 23.1899 15.5 23.0799C15.78 22.9599 16.02 22.7999 16.23 22.5899L22.59 16.2299C22.8 16.0199 22.97 15.7799 23.08 15.4999C23.2 15.2299 23.25 14.9299 23.25 14.6399C23.25 14.3499 23.19 14.0499 23.08 13.7799Z" fill="#171717"/>
<path d="M6.19 8.43994C6.19 9.67994 7.2 10.6899 8.44 10.6899C9.68 10.6899 10.69 9.67994 10.69 8.43994C10.69 7.19994 9.68 6.18994 8.44 6.18994C8.09 6.18994 7.77 6.27994 7.48 6.41994L2.03 0.969941C1.74 0.679941 1.26 0.679941 0.970002 0.969941C0.680002 1.25994 0.680002 1.73994 0.970002 2.02994L6.42 7.47994C6.27 7.76994 6.19 8.08994 6.19 8.43994ZM9.19 8.43994C9.19 8.84994 8.85 9.18994 8.44 9.18994C8.03 9.18994 7.69 8.84994 7.69 8.43994C7.69 8.22994 7.77 8.04994 7.91 7.90994C8.05 7.76994 8.23 7.68994 8.44 7.68994C8.85 7.68994 9.19 8.01994 9.19 8.43994Z" fill="#171717"/>
</g>
<defs>
<clipPath id="clip0_2862_15602">
<rect width="24" height="24" fill="white"/>
</clipPath>
</defs>
</svg>
