<svg width="24" height="24" viewBox="0 0 24 24" fill="none" xmlns="http://www.w3.org/2000/svg">
<g clip-path="url(#clip0_2862_15602)">
<path d="M10.77 13.6199C10.77 13.8999 10.82 14.1699 10.93 14.4299C11.04 14.6799 11.19 14.9099 11.38 15.0999C11.68 15.3999 12.05 15.5999 12.46 15.6799C12.87 15.7599 13.3 15.7099 13.68 15.5399L15.68 14.6699C15.79 14.6199 15.9 14.6099 16.02 14.6299C16.13 14.6499 16.24 14.7099 16.32 14.7999C16.38 14.8599 16.42 14.9199 16.45 14.9899C16.48 15.0599 16.5 15.1399 16.5 15.2199C16.5 15.2999 16.48 15.3699 16.45 15.4399C16.42 15.5099 16.38 15.5799 16.3 15.6499L14.92 17.0899C14.63 17.3899 14.64 17.8599 14.94 18.1499C15.09 18.2899 15.27 18.3599 15.46 18.3599C15.66 18.3599 15.85 18.2799 16 18.1299L16.51 17.5999L16.52 17.6099C16.67 17.7599 16.86 17.8299 17.05 17.8299C17.24 17.8299 17.43 17.7599 17.58 17.6099C17.87 17.3199 17.87 16.8399 17.58 16.5499L17.53 16.4999C17.65 16.3499 17.75 16.1999 17.82 16.0199C17.93 15.7599 17.98 15.4899 17.98 15.2199C17.98 14.9499 17.93 14.6699 17.82 14.4099C17.71 14.1599 17.56 13.9299 17.37 13.7399C17.07 13.4399 16.7 13.2399 16.29 13.1599C15.87 13.0799 15.45 13.1299 15.07 13.2999L13.07 14.1699C12.96 14.2099 12.85 14.2299 12.73 14.2099C12.62 14.1899 12.51 14.1299 12.43 14.0399C12.37 13.9799 12.33 13.9199 12.3 13.8499C12.27 13.7799 12.26 13.6999 12.26 13.6299C12.26 13.5499 12.28 13.4799 12.31 13.4099C12.34 13.3399 12.38 13.2699 12.45 13.2099L13.88 11.7699C14.17 11.4799 14.17 10.9999 13.88 10.7099C13.59 10.4199 13.11 10.4199 12.82 10.7099L12.29 11.2399C12 10.9499 11.52 10.9499 11.23 11.2399C10.94 11.5299 10.94 12.0099 11.23 12.2999L11.25 12.3199C11.12 12.4699 11.01 12.6399 10.94 12.8199C10.82 13.0699 10.77 13.3399 10.77 13.6199Z" fill="#171717"/>
<path d="M23.08 13.78C22.97 13.51 22.8 13.26 22.59 13.05L12.97 3.46997C12.75 3.24997 12.5 3.08997 12.21 2.96997C11.93 2.85997 11.63 2.79997 11.23 2.81997L7.38999 3.37997C6.97999 3.43997 6.7 3.81997 6.75999 4.22997C6.81999 4.63997 7.2 4.91997 7.60999 4.85997L11.36 4.30997C11.46 4.29997 11.56 4.32997 11.66 4.35997C11.76 4.38997 11.84 4.44997 11.91 4.52997L21.53 14.11C21.6 14.18 21.65 14.26 21.69 14.35C21.73 14.44 21.75 14.54 21.75 14.63C21.75 14.72 21.73 14.82 21.69 14.91C21.65 15 21.6 15.08 21.52 15.16L15.16 21.52C15.09 21.59 15.01 21.64 14.92 21.68C14.73 21.76 14.53 21.76 14.35 21.68C14.26 21.64 14.18 21.59 14.1 21.51L4.59999 12.02C4.52999 11.95 4.47999 11.87 4.43999 11.79C4.39999 11.7 4.38999 11.6 4.37999 11.59L4.91999 7.70997C4.97999 7.29997 4.68999 6.91997 4.27999 6.86997C3.87999 6.80997 3.48999 7.08997 3.43999 7.49997L2.88999 11.47C2.87999 11.77 2.93999 12.07 3.04999 12.35C3.16999 12.63 3.33999 12.88 3.54999 13.08L13.05 22.58C13.26 22.79 13.5 22.96 13.78 23.08C14.06 23.19 14.35 23.25 14.64 23.25C14.93 23.25 15.22 23.19 15.5 23.08C15.78 22.96 16.02 22.8 16.23 22.59L22.59 16.23C22.8 16.02 22.97 15.78 23.08 15.5C23.2 15.23 23.25 14.93 23.25 14.64C23.25 14.35 23.19 14.05 23.08 13.78Z" fill="#171717"/>
<path d="M6.19 8.43994C6.19 9.67994 7.2 10.6899 8.44 10.6899C9.68 10.6899 10.69 9.67994 10.69 8.43994C10.69 7.19994 9.68 6.18994 8.44 6.18994C8.09 6.18994 7.77 6.27994 7.48 6.41994L2.03 0.969941C1.74 0.679941 1.26 0.679941 0.970002 0.969941C0.680002 1.25994 0.680002 1.73994 0.970002 2.02994L6.42 7.47994C6.27 7.76994 6.19 8.08994 6.19 8.43994ZM9.19 8.43994C9.19 8.84994 8.85 9.18994 8.44 9.18994C8.03 9.18994 7.69 8.84994 7.69 8.43994C7.69 8.22994 7.77 8.04994 7.91 7.90994C8.05 7.76994 8.23 7.68994 8.44 7.68994C8.85 7.68994 9.19 8.01994 9.19 8.43994Z" fill="#171717"/>
</g>
<defs>
<clipPath id="clip0_2862_15602">
<rect width="24" height="24" fill="white"/>
</clipPath>
</defs>
</svg>
