<svg width="24" height="24" viewBox="0 0 24 24" fill="none" xmlns="http://www.w3.org/2000/svg">
<path fill-rule="evenodd" clip-rule="evenodd" d="M8.69971 11.9242C9.46134 11.1626 10.4943 10.7347 11.5714 10.7347C12.6485 10.7347 13.6815 11.1626 14.4431 11.9242C14.9939 12.475 15.3702 13.1677 15.5363 13.9164C16.1119 14.0727 16.6424 14.377 17.0715 14.8061C17.7183 15.4529 18.0816 16.3302 18.0816 17.2449C18.0816 18.1596 17.7183 19.0369 17.0715 19.6837C16.4246 20.3305 15.5474 20.6939 14.6327 20.6939L14.6092 20.6936C13.9149 20.6773 13.2343 20.498 12.6222 20.1701C12.2972 20.0023 11.9368 19.9147 11.571 19.9147C11.2052 19.9147 10.8447 20.0023 10.5198 20.1702C9.90798 20.498 9.22759 20.6774 8.53359 20.6936L8.5102 20.6939C7.59548 20.6939 6.71822 20.3305 6.07141 19.6837C5.4246 19.0369 5.06122 18.1596 5.06122 17.2449C5.06122 16.3302 5.4246 15.4529 6.07141 14.8061C6.50049 14.377 7.03099 14.0727 7.60657 13.9164C7.77267 13.1677 8.14892 12.475 8.69971 11.9242ZM11.5714 12.7347C11.0248 12.7347 10.5005 12.9519 10.1139 13.3384C9.72737 13.725 9.5102 14.2492 9.5102 14.7959C9.5102 15.3482 9.06249 15.7959 8.5102 15.7959C8.12591 15.7959 7.75736 15.9486 7.48562 16.2203C7.21388 16.4921 7.06122 16.8606 7.06122 17.2449C7.06122 17.6292 7.21388 17.9977 7.48562 18.2695C7.75472 18.5386 8.11877 18.6909 8.49902 18.6938C8.87654 18.6831 9.24639 18.5843 9.57903 18.4052L9.59176 18.3985C10.2031 18.0806 10.882 17.9147 11.571 17.9147C12.26 17.9147 12.9389 18.0806 13.5503 18.3985L13.5627 18.405C13.8958 18.5841 14.266 18.6831 14.6439 18.6938C15.0241 18.6909 15.3881 18.5386 15.6572 18.2695C15.929 17.9977 16.0816 17.6292 16.0816 17.2449C16.0816 16.8606 15.929 16.4921 15.6572 16.2203C15.3855 15.9486 15.0169 15.7959 14.6327 15.7959C14.0804 15.7959 13.6327 15.3482 13.6327 14.7959C13.6327 14.2492 13.4155 13.725 13.0289 13.3384C12.6424 12.9519 12.1181 12.7347 11.5714 12.7347Z" fill="#0A0B0D"/>
<path fill-rule="evenodd" clip-rule="evenodd" d="M3.75116 9.11389C4.09533 8.97133 4.46421 8.89796 4.83673 8.89796C5.20926 8.89796 5.57814 8.97133 5.92231 9.11389C6.26647 9.25645 6.57919 9.4654 6.84261 9.72882C7.10602 9.99223 7.31498 10.305 7.45754 10.6491C7.6001 10.9933 7.67347 11.3622 7.67347 11.7347C7.67347 12.1072 7.6001 12.4761 7.45754 12.8203C7.31498 13.1644 7.10602 13.4772 6.84261 13.7406C6.57919 14.004 6.26647 14.2129 5.92231 14.3555C5.57814 14.4981 5.20926 14.5714 4.83673 14.5714C4.46421 14.5714 4.09533 14.4981 3.75116 14.3555C3.407 14.2129 3.09428 14.004 2.83086 13.7406C2.56745 13.4772 2.35849 13.1644 2.21593 12.8203C2.07337 12.4761 2 12.1072 2 11.7347C2 11.3622 2.07337 10.9933 2.21593 10.6491C2.35849 10.305 2.56745 9.99223 2.83086 9.72882C3.09428 9.4654 3.407 9.25645 3.75116 9.11389ZM4.83673 10.898C4.72685 10.898 4.61805 10.9196 4.51653 10.9617C4.41501 11.0037 4.32277 11.0653 4.24507 11.143C4.16738 11.2207 4.10574 11.313 4.06369 11.4145C4.02164 11.516 4 11.6248 4 11.7347C4 11.8446 4.02164 11.9534 4.06369 12.0549C4.10574 12.1564 4.16738 12.2487 4.24507 12.3264C4.32277 12.4041 4.41501 12.4657 4.51653 12.5077C4.61805 12.5498 4.72685 12.5714 4.83673 12.5714C4.94662 12.5714 5.05542 12.5498 5.15694 12.5077C5.25846 12.4657 5.3507 12.4041 5.4284 12.3264C5.50609 12.2487 5.56773 12.1564 5.60978 12.0549C5.65183 11.9534 5.67347 11.8446 5.67347 11.7347C5.67347 11.6248 5.65183 11.516 5.60978 11.4145C5.56773 11.313 5.50609 11.2207 5.4284 11.143C5.3507 11.0653 5.25846 11.0037 5.15694 10.9617C5.05542 10.9196 4.94662 10.898 4.83673 10.898Z" fill="#0A0B0D"/>
<path fill-rule="evenodd" clip-rule="evenodd" d="M6.50433 4.83086C7.03632 4.29887 7.75786 4 8.5102 4C9.26255 4 9.98409 4.29887 10.5161 4.83086C11.0481 5.36285 11.3469 6.08439 11.3469 6.83673C11.3469 7.58908 11.0481 8.31062 10.5161 8.84261C9.98409 9.3746 9.26255 9.67347 8.5102 9.67347C7.75786 9.67347 7.03632 9.3746 6.50433 8.84261C5.97234 8.31062 5.67347 7.58908 5.67347 6.83673C5.67347 6.08439 5.97234 5.36285 6.50433 4.83086ZM8.5102 6C8.28829 6 8.07546 6.08816 7.91854 6.24507C7.76163 6.40199 7.67347 6.61482 7.67347 6.83673C7.67347 7.05865 7.76163 7.27148 7.91854 7.4284C8.07546 7.58531 8.28829 7.67347 8.5102 7.67347C8.73212 7.67347 8.94495 7.58531 9.10186 7.4284C9.25878 7.27148 9.34694 7.05865 9.34694 6.83673C9.34694 6.61482 9.25878 6.40199 9.10186 6.24507C8.94495 6.08816 8.73212 6 8.5102 6Z" fill="#0A0B0D"/>
<path fill-rule="evenodd" clip-rule="evenodd" d="M12.6268 4.83086C13.1588 4.29887 13.8803 4 14.6327 4C15.385 4 16.1065 4.29887 16.6385 4.83086C17.1705 5.36285 17.4694 6.08439 17.4694 6.83673C17.4694 7.58908 17.1705 8.31062 16.6385 8.84261C16.1065 9.3746 15.385 9.67347 14.6327 9.67347C13.8803 9.67347 13.1588 9.3746 12.6268 8.84261C12.0948 8.31062 11.7959 7.58908 11.7959 6.83673C11.7959 6.08439 12.0948 5.36285 12.6268 4.83086ZM14.6327 6C14.4107 6 14.1979 6.08816 14.041 6.24507C13.8841 6.40199 13.7959 6.61482 13.7959 6.83673C13.7959 7.05865 13.8841 7.27148 14.041 7.4284C14.1979 7.58531 14.4107 7.67347 14.6327 7.67347C14.8546 7.67347 15.0674 7.58531 15.2243 7.4284C15.3812 7.27148 15.4694 7.05865 15.4694 6.83673C15.4694 6.61482 15.3812 6.40199 15.2243 6.24507C15.0674 6.08816 14.8546 6 14.6327 6Z" fill="#0A0B0D"/>
<path fill-rule="evenodd" clip-rule="evenodd" d="M16.9125 9.72882C17.4445 9.19683 18.166 8.89796 18.9184 8.89796C19.6707 8.89796 20.3923 9.19683 20.9242 9.72882C21.4562 10.2608 21.7551 10.9823 21.7551 11.7347C21.7551 12.487 21.4562 13.2086 20.9242 13.7406C20.3923 14.2726 19.6707 14.5714 18.9184 14.5714C18.166 14.5714 17.4445 14.2726 16.9125 13.7406C16.3805 13.2086 16.0816 12.487 16.0816 11.7347C16.0816 10.9823 16.3805 10.2608 16.9125 9.72882ZM18.9184 10.898C18.6965 10.898 18.4836 10.9861 18.3267 11.143C18.1698 11.3 18.0816 11.5128 18.0816 11.7347C18.0816 11.9566 18.1698 12.1694 18.3267 12.3264C18.4836 12.4833 18.6965 12.5714 18.9184 12.5714C19.1403 12.5714 19.3531 12.4833 19.51 12.3264C19.6669 12.1694 19.7551 11.9566 19.7551 11.7347C19.7551 11.5128 19.6669 11.3 19.51 11.143C19.3531 10.9861 19.1403 10.898 18.9184 10.898Z" fill="#0A0B0D"/>
</svg>
