<svg width="24" height="24" viewBox="0 0 24 24" fill="none" xmlns="http://www.w3.org/2000/svg">
<g clip-path="url(#clip0_2862_16069)">
<path d="M20.23 12.73C19.81 12.68 19.44 12.96 19.39 13.37C19.19 14.88 18.43 18.82 16 20.98C14.83 20.56 13.86 19.37 13.3 18.53C14.36 18.19 15.09 17.4 15.09 16.47C15.09 15.21 13.77 14.22 12.09 14.22C10.41 14.22 9.09004 15.21 9.09004 16.47C9.09004 17.41 9.82004 18.19 10.88 18.53C10.27 19.43 9.28004 20.56 8.16004 20.97C5.74004 18.8 4.98004 14.88 4.78004 13.37C4.73004 12.96 4.35004 12.67 3.94004 12.73C3.53004 12.79 3.24004 13.16 3.30004 13.57C3.85004 17.68 5.36004 20.74 7.57004 22.45L7.58004 22.46C8.87004 23.45 10.39 23.98 12.09 23.98C16.73 23.98 20.02 20.09 20.89 13.58C20.93 13.16 20.64 12.78 20.23 12.73ZM10.58 16.47C10.58 16.16 11.16 15.72 12.08 15.72C12.98 15.72 13.58 16.17 13.58 16.47C13.58 16.77 12.98 17.22 12.08 17.22C11.16 17.22 10.58 16.78 10.58 16.47ZM9.59004 21.93C10.68 21.25 11.53 20.22 12.07 19.42C12.61 20.21 13.47 21.25 14.55 21.93C13.83 22.26 13.01 22.47 12.07 22.47C11.13 22.47 10.32 22.26 9.59004 21.93Z" fill="#171717"/>
<path d="M23.32 3.27994C22.94 2.57994 22.43 1.97994 21.81 1.49994C21.19 1.01994 20.47 0.669935 19.69 0.479935C19.19 0.369935 18.67 0.379935 18.17 0.529935C17.68 0.679935 17.23 0.949935 16.87 1.30994C16.79 1.39994 16.74 1.49994 16.66 1.59994C16.12 1.18994 15.54 0.839935 14.91 0.589935C13.97 0.199935 13 0.0199354 11.98 0.0299354C10.97 0.0399354 9.99001 0.249935 9.06001 0.659935C8.46001 0.919935 7.90001 1.26994 7.39001 1.66994C7.30001 1.54994 7.23001 1.41994 7.12001 1.31994C6.76001 0.949935 6.31001 0.679935 5.82001 0.539935C5.33001 0.389935 4.81001 0.369935 4.30001 0.489935C3.53001 0.679935 2.82001 1.01994 2.19001 1.49994C1.56001 1.98994 1.05001 2.57994 0.690012 3.24994C-0.339988 4.97994 -0.0699875 7.34993 1.49001 10.1099C1.69001 10.4599 1.98001 10.7599 2.33001 10.9599C2.67001 11.1599 3.06001 11.2599 3.46001 11.2599C3.47001 11.2599 3.48001 11.2599 3.49001 11.2599C3.90001 11.2599 4.29001 11.1399 4.64001 10.9299C4.99001 10.7199 5.27001 10.4099 5.45001 10.0699C6.46001 8.19993 7.28001 6.20994 7.88001 4.16994C7.88001 4.15994 7.88001 4.14994 7.89001 4.13994C7.97001 3.82994 7.98001 3.50994 7.95001 3.18994C8.46001 2.70994 9.02001 2.30994 9.67001 2.02994C10.41 1.70994 11.2 1.53994 12 1.52994C12.81 1.51994 13.6 1.66994 14.35 1.96994C14.99 2.22994 15.56 2.60994 16.07 3.06994C16.03 3.42994 16.03 3.78994 16.12 4.14994C16.12 4.15994 16.12 4.16994 16.13 4.17994C16.73 6.21994 17.55 8.20994 18.56 10.0699C18.75 10.4299 19.03 10.7299 19.38 10.9499C19.73 11.1599 20.12 11.2799 20.53 11.2799C20.54 11.2799 20.55 11.2799 20.56 11.2799C20.96 11.2799 21.35 11.1799 21.69 10.9799C22.04 10.7799 22.33 10.4799 22.53 10.1299C24.06 7.34994 24.34 4.97994 23.32 3.27994ZM6.43001 3.76994C5.86001 5.70994 5.09001 7.58994 4.12001 9.36994C4.06001 9.48993 3.96001 9.58994 3.85001 9.65993C3.73001 9.72993 3.60001 9.76994 3.47001 9.76994C3.32001 9.76994 3.20001 9.73993 3.08001 9.66994C2.96001 9.59994 2.87001 9.49994 2.80001 9.37994C1.91001 7.79994 1.04001 5.58994 1.99001 3.99994C2.27001 3.48994 2.64001 3.04994 3.10001 2.68994C3.56001 2.32994 4.08001 2.07994 4.64001 1.94994C4.75001 1.92994 4.86001 1.90994 4.97001 1.90994C5.11001 1.90994 5.26001 1.92994 5.40001 1.96994C5.65001 2.03994 5.87001 2.17994 6.05001 2.35994C6.23001 2.53994 6.36001 2.76994 6.43001 3.01994C6.49001 3.25994 6.49001 3.51994 6.43001 3.76994ZM21.19 9.38994C21.13 9.50994 21.03 9.59994 20.91 9.66994C20.79 9.73993 20.7 9.76994 20.52 9.76994C20.39 9.76994 20.25 9.72993 20.14 9.65993C20.02 9.58994 19.93 9.48993 19.86 9.35993C18.9 7.57994 18.12 5.69994 17.55 3.75994C17.49 3.51994 17.49 3.25994 17.56 3.00994C17.63 2.75994 17.76 2.53994 17.94 2.34994C18.12 2.16994 18.34 2.02994 18.59 1.95994C18.84 1.88994 19.1 1.87994 19.34 1.92994C19.91 2.06994 20.43 2.31994 20.89 2.66994C21.35 3.02994 21.72 3.46994 22.02 4.00994C22.95 5.58994 22.09 7.79994 21.19 9.38994Z" fill="#171717"/>
<path d="M8.70002 11.21C9.31858 11.21 9.82002 10.7085 9.82002 10.09C9.82002 9.47141 9.31858 8.96997 8.70002 8.96997C8.08146 8.96997 7.58002 9.47141 7.58002 10.09C7.58002 10.7085 8.08146 11.21 8.70002 11.21Z" fill="#171717"/>
<path d="M15.45 11.21C16.0686 11.21 16.57 10.7085 16.57 10.09C16.57 9.47141 16.0686 8.96997 15.45 8.96997C14.8315 8.96997 14.33 9.47141 14.33 10.09C14.33 10.7085 14.8315 11.21 15.45 11.21Z" fill="#171717"/>
</g>
<defs>
<clipPath id="clip0_2862_16069">
<rect width="24" height="24" fill="white"/>
</clipPath>
</defs>
</svg>
