<svg width="24" height="24" viewBox="0 0 24 24" fill="none" xmlns="http://www.w3.org/2000/svg">
<path d="M20.2829 12.7267C19.8601 12.6766 19.4878 12.9572 19.4374 13.368C19.2361 14.8812 18.4712 18.8293 16.0255 20.9938C14.848 20.5729 13.8717 19.3805 13.3081 18.5387C14.3749 18.198 15.1097 17.4064 15.1097 16.4744C15.1097 15.2118 13.7811 14.2198 12.0903 14.2198C10.3994 14.2198 9.0709 15.2118 9.0709 16.4744C9.0709 17.4164 9.80561 18.198 10.8725 18.5387C10.2585 19.4406 9.26213 20.5729 8.13489 20.9838C5.69926 18.8093 4.93435 14.8812 4.73306 13.368C4.68274 12.9572 4.30028 12.6666 3.88763 12.7267C3.47498 12.7868 3.18311 13.1576 3.2435 13.5684C3.79705 17.687 5.3168 20.7533 7.54108 22.4668L7.55115 22.4769C8.84948 23.4689 10.3793 24 12.0903 24C16.7603 24 20.0715 20.1019 20.9471 13.5785C20.9874 13.1576 20.6955 12.7768 20.2829 12.7267ZM10.5705 16.4744C10.5705 16.1638 11.1543 15.7229 12.0802 15.7229C12.986 15.7229 13.5899 16.1738 13.5899 16.4744C13.5899 16.7751 12.986 17.226 12.0802 17.226C11.1543 17.226 10.5705 16.7851 10.5705 16.4744ZM9.57413 21.9458C10.6712 21.2643 11.5267 20.2322 12.0701 19.4306C12.6136 20.2222 13.4792 21.2643 14.5662 21.9458C13.8415 22.2764 13.0162 22.4869 12.0701 22.4869C11.1241 22.4869 10.3088 22.2764 9.57413 21.9458Z" fill="#171717"/>
<path d="M23.3928 3.25713C23.0104 2.55568 22.4971 1.95443 21.8731 1.47344C21.2491 0.992446 20.5244 0.641721 19.7394 0.451327C19.2361 0.341099 18.7128 0.35112 18.2096 0.501431C17.7164 0.651741 17.2635 0.922301 16.9012 1.28305C16.8206 1.37323 16.7703 1.47344 16.6898 1.57365C16.1463 1.1628 15.5626 0.812073 14.9285 0.561555C13.9824 0.170747 13.0062 -0.00962552 11.9796 0.00039519C10.963 0.0104159 9.97671 0.220851 9.04071 0.6317C8.43683 0.892239 7.87321 1.24296 7.35992 1.64379C7.26934 1.52354 7.19888 1.39327 7.08817 1.29307C6.72585 0.922301 6.27294 0.651742 5.77978 0.511452C5.28661 0.361141 4.76325 0.341099 4.24996 0.461348C3.47498 0.651742 2.7604 0.992446 2.12633 1.47344C1.49226 1.96445 0.978964 2.55568 0.616638 3.22706C-0.420015 4.96065 -0.148271 7.33556 1.42181 10.1013C1.6231 10.452 1.91497 10.7526 2.26723 10.953C2.60943 11.1534 3.00195 11.2537 3.40453 11.2537C3.4146 11.2537 3.42466 11.2537 3.43473 11.2537C3.84737 11.2537 4.23989 11.1334 4.59215 10.923C4.94441 10.7125 5.22622 10.4019 5.40739 10.0612C6.42391 8.18732 7.24921 6.1932 7.85308 4.14897C7.85308 4.13895 7.85308 4.12893 7.86315 4.11891C7.94366 3.80827 7.95373 3.4876 7.92353 3.16694C8.43683 2.68595 9.00045 2.28512 9.65465 2.00454C10.3994 1.68387 11.1945 1.51352 11.9997 1.5035C12.8149 1.49348 13.61 1.64379 14.3649 1.94441C15.009 2.20495 15.5827 2.58574 16.096 3.04669C16.0557 3.40744 16.0557 3.76818 16.1463 4.12893C16.1463 4.13895 16.1463 4.14897 16.1564 4.15899C16.7602 6.20322 17.5855 8.19734 18.6021 10.0612C18.7933 10.4219 19.0751 10.7226 19.4274 10.943C19.7796 11.1534 20.1721 11.2737 20.5848 11.2737C20.5949 11.2737 20.6049 11.2737 20.615 11.2737C21.0176 11.2737 21.4101 11.1735 21.7523 10.9731C22.1046 10.7727 22.3964 10.472 22.5977 10.1213C24.1376 7.33556 24.4194 4.96065 23.3928 3.25713ZM6.39372 3.74814C5.82003 5.69216 5.04506 7.57605 4.06879 9.35974C4.00841 9.47999 3.90776 9.5802 3.79705 9.65034C3.67628 9.72049 3.54544 9.76057 3.4146 9.76057C3.26363 9.76057 3.14285 9.73051 3.02208 9.66036C2.9013 9.59022 2.81072 9.49001 2.74027 9.36976C1.84452 7.78649 0.968899 5.57191 1.92504 3.97862C2.20684 3.46756 2.57923 3.02665 3.04221 2.6659C3.50518 2.30516 4.02854 2.05464 4.59215 1.92437C4.70286 1.90433 4.81357 1.88429 4.92429 1.88429C5.06519 1.88429 5.21616 1.90433 5.35706 1.94441C5.60868 2.01456 5.8301 2.15485 6.01126 2.33522C6.19242 2.51559 6.32326 2.74607 6.39372 2.99659C6.4541 3.23709 6.4541 3.49762 6.39372 3.74814ZM21.2491 9.37978C21.1887 9.50003 21.088 9.59022 20.9673 9.66036C20.8465 9.73051 20.7559 9.76057 20.5747 9.76057C20.4439 9.76057 20.303 9.72049 20.1923 9.65034C20.0715 9.5802 19.9809 9.47999 19.9105 9.34972C18.9443 7.56603 18.1592 5.68214 17.5855 3.73812C17.5252 3.49762 17.5252 3.23709 17.5956 2.98657C17.6661 2.73605 17.7969 2.51559 17.9781 2.3252C18.1592 2.14483 18.3806 2.00454 18.6323 1.93439C18.8839 1.86425 19.1456 1.85423 19.3871 1.90433C19.9608 2.04462 20.4841 2.29514 20.9471 2.64586C21.4101 3.00661 21.7825 3.44752 22.0844 3.98864C23.0204 5.57191 22.1549 7.78649 21.2491 9.37978Z" fill="#171717"/>
<path d="M8.67838 11.2036C9.30093 11.2036 9.80561 10.7011 9.80561 10.0812C9.80561 9.46139 9.30093 8.95891 8.67838 8.95891C8.05583 8.95891 7.55115 9.46139 7.55115 10.0812C7.55115 10.7011 8.05583 11.2036 8.67838 11.2036Z" fill="#171717"/>
<path d="M15.472 11.2036C16.0945 11.2036 16.5992 10.7011 16.5992 10.0812C16.5992 9.46139 16.0945 8.95891 15.472 8.95891C14.8494 8.95891 14.3447 9.46139 14.3447 10.0812C14.3447 10.7011 14.8494 11.2036 15.472 11.2036Z" fill="#171717"/>
</svg>
