<svg width="24" height="24" viewBox="0 0 24 24" fill="none" xmlns="http://www.w3.org/2000/svg">
<path opacity="0.2" d="M2 19.005V12.005L4 10.005H19.5L22 11.005V19.005H18L16.5 17.505H7.5L7 19.005H2Z" fill="#0A0B0D"/>
<path fill-rule="evenodd" clip-rule="evenodd" d="M8.16134 3.0049C8.20928 3.00497 8.25763 3.00504 8.3064 3.00504H15.6935C15.7423 3.00504 15.7907 3.00497 15.8386 3.0049C16.5221 3.00388 17.122 3.00298 17.6565 3.21321C18.1239 3.39703 18.5376 3.69525 18.8598 4.08052C19.2283 4.52113 19.4171 5.09051 19.6323 5.73923C19.6474 5.78473 19.6626 5.83062 19.678 5.87689L20.584 8.59498L21.5528 8.11062C22.0467 7.86363 22.6474 8.06385 22.8944 8.55783C23.1414 9.05181 22.9412 9.65248 22.4472 9.89947L21.8498 10.1982C22.1354 10.4882 22.3769 10.8219 22.564 11.1891C22.8113 11.6744 22.9099 12.1911 22.9558 12.7532C23 13.2944 23 13.9588 23 14.7637V17.505C23 17.5333 23 17.5612 23 17.5889C23.0003 17.9696 23.0006 18.2975 22.9423 18.5903C22.7056 19.7804 21.7753 20.7107 20.5852 20.9474C20.2924 21.0057 19.9645 21.0054 19.5838 21.0051C19.5562 21.0051 19.5282 21.005 19.5 21.005H19C17.5135 21.005 16.2795 19.9239 16.0415 18.505H7.9585C7.72046 19.9239 6.48647 21.005 4.99997 21.005H4.49997C4.47173 21.005 4.44378 21.0051 4.4161 21.0051C4.0354 21.0054 3.70756 21.0057 3.4147 20.9474C2.22463 20.7107 1.29434 19.7804 1.05762 18.5903C0.999367 18.2975 0.999628 17.9696 0.999931 17.5889C0.999953 17.5612 0.999975 17.5333 0.999975 17.505L0.999974 14.7637C0.999962 13.9588 0.999951 13.2944 1.04417 12.7532C1.09009 12.1911 1.18866 11.6744 1.43595 11.1891C1.62304 10.8219 1.86451 10.4882 2.15016 10.1982L1.55276 9.89947C1.05878 9.65248 0.858558 9.05181 1.10555 8.55783C1.35254 8.06385 1.95321 7.86363 2.44719 8.11062L3.41591 8.59498L4.32193 5.87689C4.33736 5.83062 4.35258 5.78473 4.36767 5.73922C4.58284 5.0905 4.77168 4.52112 5.14015 4.08052C5.46233 3.69525 5.87609 3.39703 6.34347 3.21321C6.87799 3.00298 7.47787 3.00388 8.16134 3.0049ZM5.38356 9.01655C5.78758 9.00503 6.24444 9.00504 6.75868 9.00504H17.2413C17.7555 9.00504 18.2124 9.00503 18.6164 9.01655L17.7806 6.50934C17.4914 5.64158 17.4177 5.47374 17.3256 5.36354C17.2182 5.23511 17.0803 5.13571 16.9245 5.07443C16.7908 5.02185 16.6082 5.00504 15.6935 5.00504H8.3064C7.3917 5.00504 7.20918 5.02185 7.07549 5.07443C6.91969 5.13571 6.78177 5.23511 6.67438 5.36354C6.58222 5.47374 6.50856 5.64158 6.2193 6.50934L5.38356 9.01655ZM4.91101 11.0426C4.4726 11.0784 4.24839 11.1433 4.09199 11.223C3.71567 11.4148 3.40971 11.7207 3.21796 12.0971C3.13827 12.2535 3.07335 12.4777 3.03753 12.9161C3.00075 13.3662 2.99997 13.9485 2.99997 14.805V17.505C2.99997 18.0176 3.00482 18.1279 3.01919 18.2001C3.0981 18.5968 3.40819 18.9069 3.80488 18.9858C3.87713 19.0002 3.98739 19.005 4.49997 19.005H4.99997C5.55226 19.005 5.99997 18.5573 5.99997 18.005C5.99997 17.1766 6.67155 16.505 7.49997 16.505H16.5C17.3284 16.505 18 17.1766 18 18.005C18 18.5573 18.4477 19.005 19 19.005H19.5C20.0126 19.005 20.1228 19.0002 20.1951 18.9858C20.5918 18.9069 20.9019 18.5968 20.9808 18.2001C20.9951 18.1279 21 18.0176 21 17.505V14.805C21 13.9485 20.9992 13.3662 20.9624 12.9161C20.9266 12.4777 20.8617 12.2535 20.782 12.0971C20.5902 11.7207 20.2843 11.4148 19.908 11.223C19.7516 11.1433 19.5274 11.0784 19.0889 11.0426C18.6388 11.0058 18.0566 11.005 17.2 11.005H6.79997C5.9434 11.005 5.3611 11.0058 4.91101 11.0426ZM3.99997 13.005C3.99997 12.4528 4.44769 12.005 4.99997 12.005H7.99997C8.55226 12.005 8.99998 12.4528 8.99998 13.005C8.99998 13.5573 8.55226 14.005 7.99997 14.005H4.99997C4.44769 14.005 3.99997 13.5573 3.99997 13.005ZM15 13.005C15 12.4528 15.4477 12.005 16 12.005H19C19.5523 12.005 20 12.4528 20 13.005C20 13.5573 19.5523 14.005 19 14.005H16C15.4477 14.005 15 13.5573 15 13.005Z" fill="#0A0B0D"/>
</svg>
