<svg width="24" height="24" viewBox="0 0 24 24" fill="none" xmlns="http://www.w3.org/2000/svg">
<path d="M24 4.4C24 3.2 23.6007 2.1 22.7021 1.3L22.2029 1.8L22.7021 1.3C21.9034 0.5 20.8052 0 19.6072 0C18.4091 0 17.3109 0.5 16.5122 1.3L2.0359 15.8C1.93607 15.9 1.93607 16 1.83623 16.1L0.0391665 23.1C-0.0606703 23.4 0.0391665 23.6 0.23884 23.8C0.438514 23.9 0.638187 24 0.738024 24C0.837861 24 0.837861 24 0.937698 24L7.82644 22.2C7.92627 22.2 8.02611 22.1 8.12595 22L22.3028 7.9L22.7021 7.5C23.5008 6.7 24 5.6 24 4.4ZM7.7266 20.4L3.63329 16.3L16.6121 3.3L20.7054 7.4L7.7266 20.4ZM2.93443 17.8L6.22905 21.1L1.83623 22.2L2.93443 17.8ZM21.7038 6.3L17.6104 2.2C18.1096 1.7 18.8085 1.4 19.5073 1.4C20.306 1.4 21.0049 1.7 21.5041 2.2L22.0033 1.7L21.5041 2.3C22.0033 2.9 22.3028 3.6 22.3028 4.4C22.5024 5.1 22.2029 5.8 21.7038 6.3Z" fill="#1D2127"/>
</svg>
