<svg width="24" height="24" viewBox="0 0 24 24" fill="none" xmlns="http://www.w3.org/2000/svg">
<g clip-path="url(#clip0_229_11663)">
<path d="M24.0392 4.4C24.0392 3.2 23.6392 2.1 22.7392 1.3L22.2392 1.8L22.7392 1.3C21.9392 0.5 20.8392 0 19.6392 0C18.4392 0 17.3392 0.5 16.5392 1.3L2.03923 15.8C1.93923 15.9 1.93923 16 1.83923 16.1L0.0392305 23.1C-0.0607695 23.4 0.0392305 23.6 0.23923 23.8C0.439231 23.9 0.63923 24 0.73923 24C0.83923 24 0.83923 24 0.93923 24L7.83923 22.2C7.93923 22.2 8.03923 22.1 8.13923 22L22.3392 7.9L22.7392 7.5C23.5392 6.7 24.0392 5.6 24.0392 4.4ZM7.73923 20.4L3.63923 16.3L16.6392 3.3L20.7392 7.4L7.73923 20.4ZM2.93923 17.8L6.23923 21.1L1.83923 22.2L2.93923 17.8ZM21.7392 6.3L17.6392 2.2C18.1392 1.7 18.8392 1.4 19.5392 1.4C20.3392 1.4 21.0392 1.7 21.5392 2.2L22.0392 1.7L21.5392 2.3C22.0392 2.9 22.3392 3.6 22.3392 4.4C22.5392 5.1 22.2392 5.8 21.7392 6.3Z" fill="#171717"/>
</g>
<defs>
<clipPath id="clip0_229_11663">
<rect width="24" height="24" fill="white"/>
</clipPath>
</defs>
</svg>
