<svg width="24" height="24" viewBox="0 0 24 24" fill="none" xmlns="http://www.w3.org/2000/svg">
<path d="M21.6568 12.8588C21.4376 12.3588 21.123 11.9188 20.7321 11.5588C20.3413 11.1988 19.8742 10.9288 19.3785 10.7688C19.2545 10.7288 19.1211 10.7188 18.9971 10.6888C19.0829 10.3688 19.1497 10.0288 19.1497 9.67879C19.1497 8.45879 18.5872 7.38879 17.7197 6.69879V4.32879L20.0458 3.65879C20.3603 3.56879 20.5701 3.26879 20.5701 2.93879C20.5701 2.59879 20.3508 2.30879 20.0458 2.21879L12.572 0.0787946C12.2002 -0.0312054 11.8093 -0.0212054 11.4471 0.0787946L3.95424 2.21879C3.93518 2.21879 3.92564 2.23879 3.90658 2.23879C3.87798 2.24879 3.84938 2.26879 3.82078 2.27879C3.77312 2.30879 3.72545 2.33879 3.67779 2.37879C3.65872 2.39879 3.63966 2.41879 3.62059 2.43879C3.58246 2.48879 3.54433 2.53879 3.51573 2.59879C3.5062 2.61879 3.49666 2.63879 3.48713 2.66879C3.449 2.75879 3.42993 2.84879 3.42993 2.93879V5.93879C3.42993 6.34879 3.75405 6.68879 4.1449 6.68879C4.53575 6.68879 4.85987 6.34879 4.85987 5.93879V3.91879L6.99523 4.52879V6.24879C5.73689 6.82879 4.85033 8.1488 4.85033 9.67879C4.85033 9.96879 4.88847 10.2588 4.9552 10.5288C4.80267 10.5588 4.65014 10.5888 4.50715 10.6388C4.02097 10.8188 3.58246 11.0888 3.20114 11.4588C2.81983 11.8288 2.52431 12.2688 2.31459 12.7588C2.10486 13.2588 2 13.7788 2 14.3188V16.4188C2 17.2588 2.16206 18.0688 2.48618 18.8388C2.8103 19.6088 3.26787 20.2788 3.85891 20.8488C4.44995 21.4188 5.13632 21.8388 5.88942 22.0988C6.48046 22.3088 7.09056 22.4088 7.70067 22.4088C7.74833 22.4088 7.796 22.3988 7.85319 22.3988C9.01621 23.4388 10.4652 23.9988 12 23.9988C13.5348 23.9988 14.9838 23.4388 16.1373 22.4088C16.1945 22.4088 16.2612 22.4188 16.3184 22.4188C16.919 22.4188 17.51 22.3188 18.082 22.1188C18.8351 21.8588 19.5214 21.4488 20.1125 20.8888C20.7035 20.3288 21.1706 19.6688 21.4948 18.9088C21.8189 18.1488 21.9905 17.3388 22 16.4988V14.4288C21.9905 13.8888 21.8761 13.3588 21.6568 12.8588ZM12 9.68879C12 10.8288 12.5052 11.8388 13.2774 12.5288L12 13.8688L10.7226 12.5288C11.4948 11.8388 12 10.8288 12 9.68879ZM13.4299 9.67879C13.4299 8.4388 14.3928 7.42879 15.5748 7.42879C16.7569 7.42879 17.7197 8.4388 17.7197 9.67879C17.7197 10.9188 16.7569 11.9288 15.5748 11.9288C14.3928 11.9288 13.4299 10.9188 13.4299 9.67879ZM11.8189 1.52879C11.9428 1.48879 12.0763 1.48879 12.2002 1.52879L17.1478 2.94879L12.1907 4.35879C12.0667 4.39879 11.9333 4.38879 11.8093 4.35879L6.86177 2.93879L11.8189 1.52879ZM11.4376 5.79879C11.6282 5.84879 11.8189 5.87879 12.0095 5.87879C12.2002 5.87879 12.3908 5.84879 12.572 5.79879L16.2898 4.73879V6.00879C16.0515 5.95879 15.8132 5.93879 15.5748 5.93879C13.6111 5.93879 12.0095 7.61879 12 9.67879C11.9905 7.61879 10.3985 5.93879 8.4347 5.93879V4.93879L11.4376 5.79879ZM8.4347 7.43879C9.61678 7.43879 10.5796 8.44879 10.5796 9.68879C10.5796 10.9288 9.61678 11.9388 8.4347 11.9388C7.25262 11.9388 6.2898 10.9288 6.2898 9.68879C6.2898 8.44879 7.25262 7.43879 8.4347 7.43879ZM20.5701 16.4988C20.5605 17.1188 20.4366 17.7288 20.1888 18.2888C19.9409 18.8588 19.5977 19.3588 19.1497 19.7688C18.7112 20.1888 18.1964 20.4888 17.6339 20.6888C17.5863 20.7088 17.5481 20.7088 17.5005 20.7188C18.101 19.6788 18.4252 18.4888 18.4252 17.2488V14.9188C18.4252 14.5088 18.101 14.1688 17.7102 14.1688C17.3194 14.1688 16.9952 14.5088 16.9952 14.9188V17.2488C16.9952 18.6488 16.4805 19.9688 15.5272 20.9588C15.5176 20.9688 15.5081 20.9688 15.5081 20.9788C15.4128 21.0288 15.3365 21.0988 15.2698 21.1888C14.3642 22.0188 13.2202 22.4988 12 22.4988C10.7798 22.4988 9.63584 22.0188 8.72069 21.1888C8.65396 21.1088 8.58723 21.0488 8.50143 20.9988C8.4919 20.9888 8.48236 20.9788 8.47283 20.9688C7.52908 19.9788 7.00477 18.6588 7.00477 17.2588V14.9288C7.00477 14.5188 6.68065 14.1788 6.2898 14.1788C5.89895 14.1788 5.57483 14.5188 5.57483 14.9288V17.2588C5.57483 18.4988 5.89895 19.6788 6.48999 20.7188C6.44233 20.7088 6.39466 20.6988 6.35653 20.6888C5.78456 20.4888 5.26978 20.1688 4.83127 19.7488C4.39276 19.3288 4.04004 18.8188 3.80172 18.2388C3.56339 17.6588 3.43947 17.0488 3.43947 16.4188V14.3188C3.43947 13.9888 3.5062 13.6588 3.63012 13.3588C3.75405 13.0588 3.94471 12.7888 4.1735 12.5588C4.41182 12.3288 4.67874 12.1588 4.97426 12.0588C5.17445 11.9888 5.39371 11.9488 5.60343 11.9388C6.2612 12.8388 7.27169 13.4188 8.4347 13.4188C8.77788 13.4188 9.102 13.3488 9.41659 13.2588L11.5043 15.4488C11.6473 15.5988 11.8284 15.6688 12.0095 15.6688C12.1907 15.6688 12.3718 15.5988 12.5148 15.4488L14.6025 13.2588C14.9171 13.3488 15.2412 13.4188 15.5844 13.4188C16.6616 13.4188 17.6244 12.8988 18.2822 12.1088C18.5205 12.1088 18.7493 12.1288 18.9781 12.1988C19.2831 12.2988 19.5691 12.4588 19.8074 12.6788C20.0458 12.8988 20.246 13.1688 20.3794 13.4788C20.5129 13.7888 20.5796 14.1088 20.5891 14.4388V16.4988H20.5701Z" fill="#1D2127"/>
<path d="M8.53003 10.7988C9.11969 10.7988 9.59771 10.2974 9.59771 9.67879C9.59771 9.06024 9.11969 8.55879 8.53003 8.55879C7.94036 8.55879 7.46234 9.06024 7.46234 9.67879C7.46234 10.2974 7.94036 10.7988 8.53003 10.7988Z" fill="#1D2127"/>
<path d="M16.6425 9.67879C16.6425 9.05879 16.1659 8.55879 15.5748 8.55879C14.9838 8.55879 14.5071 9.05879 14.5071 9.67879C14.5071 10.2988 14.9838 10.7988 15.5748 10.7988C16.1659 10.8088 16.6425 10.2988 16.6425 9.67879Z" fill="#1D2127"/>
</svg>
