<svg width="24" height="24" viewBox="0 0 24 24" fill="none" xmlns="http://www.w3.org/2000/svg">
<path fill-rule="evenodd" clip-rule="evenodd" d="M5.96079 4C5.97365 4.00001 5.98671 4.00001 5.99995 4.00001C6.55224 4.00001 6.99995 4.44772 6.99995 5.00001C6.99995 5.55229 6.55224 6.00001 5.99995 6.00001C5.71457 6.00001 5.62807 6.00075 5.56062 6.00597C4.65241 6.07625 3.90642 6.75135 3.74613 7.64806C3.73422 7.71466 3.72488 7.80066 3.69648 8.08462L3.43423 10.7071C5.35479 9.5573 7.88077 9.80976 9.53549 11.4645C10.0409 11.9698 10.4154 12.5565 10.6592 13.1824C11.5354 12.9392 12.4645 12.9392 13.3407 13.1824C13.5845 12.5565 13.959 11.9699 14.4644 11.4645C16.1191 9.80976 18.6451 9.5573 20.5657 10.7071L20.3034 8.08462C20.275 7.80067 20.2657 7.71466 20.2538 7.64806C20.0935 6.75135 19.3475 6.07625 18.4393 6.00597C18.3718 6.00075 18.2853 6.00001 18 6.00001C17.4477 6.00001 17 5.55229 17 5.00001C17 4.44772 17.4477 4.00001 18 4.00001L18.0391 4C18.2683 3.99997 18.4386 3.99994 18.5936 4.01193C20.41 4.15248 21.902 5.5027 22.2226 7.29612C22.2499 7.44911 22.2668 7.61861 22.2896 7.8467L22.9105 14.0561C22.9694 14.3637 22.9992 14.6757 22.9999 14.9878C23.0001 14.997 23.0001 15.0061 22.9999 15.0152C22.9961 16.2897 22.5079 17.5631 21.5355 18.5355C19.5829 20.4882 16.417 20.4882 14.4644 18.5355C13.5318 17.6029 13.0446 16.3935 13.0029 15.1717C12.3555 14.9428 11.6444 14.9428 10.997 15.1716C10.9553 16.3934 10.4681 17.6029 9.53549 18.5355C7.58287 20.4882 4.41704 20.4882 2.46442 18.5355C1.49198 17.5631 1.00383 16.2898 0.999976 15.0152C0.999848 15.0061 0.999845 14.997 0.999968 14.9878C1.00073 14.6757 1.03052 14.3637 1.08936 14.0561L1.7064 7.88562C1.70772 7.87244 1.70902 7.85945 1.7103 7.84665C1.73307 7.61859 1.74999 7.44911 1.77734 7.29612C2.09793 5.5027 3.5899 4.15248 5.40632 4.01193C5.56127 3.99994 5.73159 3.99997 5.96079 4ZM3.00031 15.0463C3.01185 15.7986 3.30463 16.5473 3.87863 17.1213C5.05021 18.2929 6.94971 18.2929 8.12127 17.1213C9.29285 15.9498 9.29284 14.0503 8.12128 12.8787C6.9497 11.7071 5.0502 11.7071 3.87863 12.8787C3.45729 13.3 3.18747 13.8155 3.0692 14.3575L3.00031 15.0463ZM20.9307 14.3574L20.9996 15.0463C20.9881 15.7986 20.6953 16.5473 20.1213 17.1213C18.9497 18.2929 17.0502 18.2929 15.8786 17.1213C14.7071 15.9498 14.7071 14.0503 15.8786 12.8787C17.0502 11.7071 18.9497 11.7071 20.1213 12.8787C20.5426 13.3 20.8124 13.8155 20.9307 14.3574Z" fill="#0A0B0D"/>
</svg>
