<svg width="24" height="24" viewBox="0 0 24 24" fill="none" xmlns="http://www.w3.org/2000/svg">
<path opacity="0.2" d="M5 16.505V11.005V10.005L12 13.505L19 10.005V17.005L12 20.505L5 16.505Z" fill="#101C2D"/>
<path fill-rule="evenodd" clip-rule="evenodd" d="M11.8026 4.52539L11.8026 4.5254L11.8026 4.52539ZM12 4.62298L19.7639 8.50495L18.5722 9.10084C18.5596 9.10681 18.5471 9.11304 18.5348 9.11951L12 12.3869L5.46521 9.11952C5.4529 9.11304 5.44044 9.10681 5.42784 9.10083L4.23607 8.50495L12 4.62298ZM4 10.623L1.55279 9.39937C1.214 9.22998 1 8.88372 1 8.50495C1 8.12618 1.214 7.77991 1.55279 7.61052L11.195 2.78941C11.2024 2.7857 11.211 2.78134 11.2206 2.77643C11.3139 2.72882 11.507 2.63029 11.7234 2.58969C11.9062 2.55539 12.0938 2.55539 12.2766 2.58969C12.493 2.63029 12.6861 2.72883 12.7794 2.77644C12.789 2.78134 12.7976 2.7857 12.805 2.78941L22.4472 7.61052C22.786 7.77991 23 8.12618 23 8.50495C23 8.88372 22.786 9.22998 22.4472 9.39937L20 10.623V16.0161C20 16.0407 20.0001 16.0659 20.0002 16.0918C20.0012 16.3678 20.0026 16.7147 19.8907 17.0391C19.794 17.3193 19.6363 17.5746 19.4288 17.7863L18.7144 17.0866L19.4288 17.7864C19.1888 18.0315 18.8779 18.1854 18.6305 18.3079C18.6074 18.3194 18.5847 18.3306 18.5628 18.3416L13.1628 21.0416C13.1449 21.0505 13.1266 21.0598 13.1078 21.0692C12.9053 21.1713 12.6503 21.2998 12.3688 21.3526C12.1251 21.3983 11.8749 21.3983 11.6312 21.3526C11.3497 21.2998 11.0947 21.1713 10.8922 21.0692C10.8734 21.0598 10.8551 21.0505 10.8372 21.0416L5.43725 18.3416C5.41528 18.3306 5.39265 18.3194 5.36946 18.3079C5.12211 18.1854 4.81122 18.0315 4.57116 17.7864C4.36373 17.5746 4.20597 17.3193 4.10931 17.0391C3.99744 16.7147 3.99876 16.3678 3.99981 16.0918C3.9999 16.0659 4 16.0406 4 16.0161V10.623ZM6 11.623V16.0161C6 16.2077 6.00045 16.3062 6.00489 16.3775C6.00503 16.3796 6.00516 16.3817 6.00529 16.3836C6.00699 16.3846 6.00876 16.3857 6.01062 16.3868C6.0724 16.4226 6.16032 16.4671 6.33167 16.5527L5.91886 17.3784L6.33167 16.5527L11.7317 19.2527C11.872 19.3229 11.943 19.3581 11.9958 19.381C11.9973 19.3817 11.9987 19.3823 12 19.3828C12.0013 19.3823 12.0027 19.3817 12.0042 19.381C12.057 19.3581 12.128 19.3229 12.2683 19.2527L17.6683 16.5527C17.8397 16.4671 17.9276 16.4226 17.9894 16.3868C17.9912 16.3857 17.993 16.3846 17.9947 16.3836C17.9948 16.3817 17.995 16.3796 17.9951 16.3775C17.9996 16.3062 18 16.2077 18 16.0161V11.623L12.805 14.2205C12.7976 14.2242 12.789 14.2286 12.7794 14.2335C12.6861 14.2811 12.493 14.3796 12.2766 14.4202C12.0938 14.4545 11.9062 14.4545 11.7234 14.4202C11.507 14.3796 11.3139 14.2811 11.2206 14.2335C11.211 14.2286 11.2024 14.2242 11.195 14.2205L6 11.623ZM11.8026 12.4845C11.8024 12.4846 11.8024 12.4846 11.8026 12.4845L11.8026 12.4845ZM12.1974 12.4845C12.1976 12.4846 12.1976 12.4846 12.1974 12.4845L12.1974 12.4845ZM12.1974 4.5254L12.1974 4.52539L12.1974 4.5254Z" fill="#101C2D"/>
</svg>
