<svg width="24" height="24" viewBox="0 0 24 24" fill="none" xmlns="http://www.w3.org/2000/svg">
<g clip-path="url(#clip0_2862_15694)">
<path d="M22.13 12.86C21.9 12.36 21.57 11.92 21.16 11.56C20.75 11.2 20.26 10.93 19.74 10.77C19.61 10.73 19.47 10.72 19.34 10.69C19.43 10.37 19.5 10.03 19.5 9.68002C19.5 8.46002 18.91 7.39002 18 6.70002V4.33002L20.44 3.66002C20.77 3.57002 20.99 3.27002 20.99 2.94002C20.99 2.60002 20.76 2.31002 20.44 2.22002L12.6 0.0800153C12.21 -0.0299847 11.8 -0.0199847 11.42 0.0800153L3.56001 2.22002C3.54001 2.22002 3.53001 2.24002 3.51001 2.24002C3.48001 2.25002 3.45001 2.27002 3.42001 2.28002C3.37001 2.31002 3.32001 2.34002 3.27001 2.38002C3.25001 2.40002 3.23001 2.42002 3.21001 2.44002C3.17001 2.49002 3.13001 2.54002 3.10001 2.60002C3.09001 2.62002 3.08001 2.64002 3.07001 2.67002C3.03001 2.76002 3.01001 2.85002 3.01001 2.94002V5.94002C3.01001 6.35002 3.35001 6.69002 3.76001 6.69002C4.17001 6.69002 4.51001 6.35002 4.51001 5.94002V3.92002L6.75001 4.53002V6.25002C5.43001 6.83002 4.50001 8.15002 4.50001 9.68002C4.50001 9.97002 4.54001 10.26 4.61001 10.53C4.45001 10.56 4.29001 10.59 4.14001 10.64C3.63001 10.82 3.17001 11.09 2.77001 11.46C2.37001 11.83 2.06001 12.27 1.84001 12.76C1.62001 13.26 1.51001 13.78 1.51001 14.32V16.42C1.51001 17.26 1.68001 18.07 2.02001 18.84C2.36001 19.61 2.84001 20.28 3.46001 20.85C4.08001 21.42 4.80001 21.84 5.59001 22.1C6.21001 22.31 6.85001 22.41 7.49001 22.41C7.54001 22.41 7.59001 22.4 7.65001 22.4C8.87001 23.44 10.39 24 12 24C13.61 24 15.13 23.44 16.34 22.41C16.4 22.41 16.47 22.42 16.53 22.42C17.16 22.42 17.78 22.32 18.38 22.12C19.17 21.86 19.89 21.45 20.51 20.89C21.13 20.33 21.62 19.67 21.96 18.91C22.3 18.15 22.48 17.34 22.49 16.5V14.43C22.48 13.89 22.36 13.36 22.13 12.86ZM12 9.69001C12 10.83 12.53 11.84 13.34 12.53L12 13.87L10.66 12.53C11.47 11.84 12 10.83 12 9.69001ZM13.5 9.68002C13.5 8.44002 14.51 7.43002 15.75 7.43002C16.99 7.43002 18 8.44002 18 9.68002C18 10.92 16.99 11.93 15.75 11.93C14.51 11.93 13.5 10.92 13.5 9.68002ZM11.81 1.53002C11.94 1.49002 12.08 1.49002 12.21 1.53002L17.4 2.95002L12.2 4.36002C12.07 4.40002 11.93 4.39002 11.8 4.36002L6.61001 2.94002L11.81 1.53002ZM11.41 5.80002C11.61 5.85002 11.81 5.88002 12.01 5.88002C12.21 5.88002 12.41 5.85002 12.6 5.80002L16.5 4.74002V6.01002C16.25 5.96002 16 5.94002 15.75 5.94002C13.69 5.94002 12.01 7.62002 12 9.68002C11.99 7.62002 10.32 5.94002 8.26001 5.94002V4.94002L11.41 5.80002ZM8.26001 7.44002C9.50001 7.44002 10.51 8.45002 10.51 9.69001C10.51 10.93 9.50001 11.94 8.26001 11.94C7.02001 11.94 6.01001 10.93 6.01001 9.69001C6.01001 8.45002 7.02001 7.44002 8.26001 7.44002ZM20.99 16.5C20.98 17.12 20.85 17.73 20.59 18.29C20.33 18.86 19.97 19.36 19.5 19.77C19.04 20.19 18.5 20.49 17.91 20.69C17.86 20.71 17.82 20.71 17.77 20.72C18.4 19.68 18.74 18.49 18.74 17.25V14.92C18.74 14.51 18.4 14.17 17.99 14.17C17.58 14.17 17.24 14.51 17.24 14.92V17.25C17.24 18.65 16.7 19.97 15.7 20.96C15.69 20.97 15.68 20.97 15.68 20.98C15.58 21.03 15.5 21.1 15.43 21.19C14.48 22.02 13.28 22.5 12 22.5C10.72 22.5 9.52001 22.02 8.56001 21.19C8.49001 21.11 8.42001 21.05 8.33001 21C8.32001 20.99 8.31001 20.98 8.30001 20.97C7.31001 19.98 6.76001 18.66 6.76001 17.26V14.93C6.76001 14.52 6.42001 14.18 6.01001 14.18C5.60001 14.18 5.26001 14.52 5.26001 14.93V17.26C5.26001 18.5 5.60001 19.68 6.22001 20.72C6.17001 20.71 6.12001 20.7 6.08001 20.69C5.48001 20.49 4.94001 20.17 4.48001 19.75C4.02001 19.33 3.65001 18.82 3.40001 18.24C3.15001 17.66 3.02001 17.05 3.02001 16.42V14.32C3.02001 13.99 3.09001 13.66 3.22001 13.36C3.35001 13.06 3.55001 12.79 3.79001 12.56C4.04001 12.33 4.32001 12.16 4.63001 12.06C4.84001 11.99 5.07001 11.95 5.29001 11.94C5.98001 12.84 7.04001 13.42 8.26001 13.42C8.62001 13.42 8.96001 13.35 9.29001 13.26L11.48 15.45C11.63 15.6 11.82 15.67 12.01 15.67C12.2 15.67 12.39 15.6 12.54 15.45L14.73 13.26C15.06 13.35 15.4 13.42 15.76 13.42C16.89 13.42 17.9 12.9 18.59 12.11C18.84 12.11 19.08 12.13 19.32 12.2C19.64 12.3 19.94 12.46 20.19 12.68C20.44 12.9 20.65 13.17 20.79 13.48C20.93 13.79 21 14.11 21.01 14.44V16.5H20.99Z" fill="#171717"/>
<path d="M8.36001 10.8C8.97857 10.8 9.48001 10.2986 9.48001 9.68002C9.48001 9.06146 8.97857 8.56002 8.36001 8.56002C7.74145 8.56002 7.24001 9.06146 7.24001 9.68002C7.24001 10.2986 7.74145 10.8 8.36001 10.8Z" fill="#171717"/>
<path d="M16.87 9.68002C16.87 9.06002 16.37 8.56002 15.75 8.56002C15.13 8.56002 14.63 9.06002 14.63 9.68002C14.63 10.3 15.13 10.8 15.75 10.8C16.37 10.81 16.87 10.3 16.87 9.68002Z" fill="#171717"/>
</g>
<defs>
<clipPath id="clip0_2862_15694">
<rect width="24" height="24" fill="white"/>
</clipPath>
</defs>
</svg>
