<svg width="24" height="24" viewBox="0 0 24 24" fill="none" xmlns="http://www.w3.org/2000/svg">
<path fill-rule="evenodd" clip-rule="evenodd" d="M6.75866 3H17.2413C18.0462 2.99999 18.7106 2.99998 19.2518 3.04419C19.8139 3.09012 20.3306 3.18868 20.8159 3.43597C21.5686 3.81947 22.1805 4.43139 22.564 5.18404C22.8026 5.65238 22.9028 6.14994 22.9508 6.68931C23.0042 6.8527 23.0136 7.02505 22.9818 7.18959C23 7.63971 23 8.16035 23 8.75868V15.2413C23 16.0463 23 16.7106 22.9558 17.2518C22.9098 17.8139 22.8113 18.3306 22.564 18.816C22.1805 19.5686 21.5686 20.1805 20.8159 20.564C20.3306 20.8113 19.8139 20.9099 19.2518 20.9558C18.7106 21 18.0462 21 17.2413 21H6.75864C5.95368 21 5.28933 21 4.74814 20.9558C4.18604 20.9099 3.66934 20.8113 3.184 20.564C2.43135 20.1805 1.81943 19.5686 1.43594 18.816C1.18865 18.3306 1.09008 17.8139 1.04416 17.2518C0.99994 16.7106 0.999951 16.0463 0.999963 15.2413V8.7587C0.999954 8.16037 0.999945 7.63972 1.0181 7.1896C0.986344 7.02505 0.995717 6.85269 1.04918 6.6893C1.09717 6.14993 1.19731 5.65238 1.43594 5.18404C1.81943 4.43139 2.43135 3.81947 3.184 3.43597C3.66934 3.18868 4.18604 3.09012 4.74814 3.04419C5.28933 2.99998 5.95369 2.99999 6.75866 3ZM2.99996 8.92066V15.2C2.99996 16.0566 3.00074 16.6389 3.03752 17.089C3.07334 17.5274 3.13826 17.7516 3.21795 17.908C3.4097 18.2843 3.71566 18.5903 4.09198 18.782C4.24838 18.8617 4.47259 18.9266 4.911 18.9624C5.36109 18.9992 5.94338 19 6.79996 19H17.2C18.0565 19 18.6388 18.9992 19.0889 18.9624C19.5273 18.9266 19.7515 18.8617 19.9079 18.782C20.2843 18.5903 20.5902 18.2843 20.782 17.908C20.8617 17.7516 20.9266 17.5274 20.9624 17.089C20.9992 16.6389 21 16.0566 21 15.2V8.92066L14.4085 13.5347C14.3697 13.5618 14.3313 13.5888 14.2932 13.6156C13.7485 13.998 13.2703 14.3338 12.7256 14.4696C12.2491 14.5884 11.7508 14.5884 11.2744 14.4696C10.7297 14.3338 10.2514 13.998 9.70677 13.6156C9.66866 13.5888 9.63022 13.5618 9.59142 13.5347L2.99996 8.92066ZM20.9172 6.53728L13.2616 11.8962C12.5326 12.4065 12.3782 12.495 12.2418 12.529C12.083 12.5686 11.9169 12.5686 11.7581 12.529C11.6217 12.495 11.4673 12.4065 10.7383 11.8962L3.08273 6.53728C3.11846 6.33012 3.16494 6.19607 3.21795 6.09202C3.4097 5.7157 3.71566 5.40973 4.09198 5.21799C4.24838 5.1383 4.47259 5.07337 4.911 5.03755C5.36109 5.00078 5.94338 5 6.79996 5H17.2C18.0565 5 18.6388 5.00078 19.0889 5.03755C19.5273 5.07337 19.7515 5.1383 19.9079 5.21799C20.2843 5.40973 20.5902 5.7157 20.782 6.09202C20.835 6.19607 20.8815 6.33012 20.9172 6.53728Z" fill="#0A0B0D"/>
</svg>
