<svg width="24" height="24" viewBox="0 0 24 24" fill="none" xmlns="http://www.w3.org/2000/svg">
<path d="M22.78 5.14001C22.77 5.13001 22.77 5.11001 22.76 5.10001C22.75 5.08001 22.73 5.07001 22.71 5.06001C22.3 4.58001 21.69 4.26001 21 4.26001H3C2.31 4.26001 1.71 4.58001 1.29 5.06001C1.28 5.07001 1.26 5.08001 1.24 5.09001C1.24 5.11001 1.23 5.12001 1.22 5.13001C0.93 5.51001 0.75 5.98001 0.75 6.50001V18.5C0.75 19.74 1.76 20.75 3 20.75H21C22.24 20.75 23.25 19.74 23.25 18.5V6.50001C23.25 5.99001 23.07 5.52001 22.78 5.14001ZM20.67 5.75001L13.56 11.22C12.67 11.91 11.33 11.91 10.44 11.22L3.33 5.75001H20.67ZM21 19.25H3C2.59 19.25 2.25 18.91 2.25 18.5V6.81001L9.53 12.41C10.24 12.95 11.11 13.25 12 13.25C12.89 13.25 13.77 12.95 14.47 12.41L21.75 6.81001V18.5C21.75 18.91 21.41 19.25 21 19.25Z" fill="#171717"/>
</svg>
