<svg width="24" height="24" viewBox="0 0 24 24" fill="none" xmlns="http://www.w3.org/2000/svg">
<path d="M22.5404 3.96058C22.5307 3.94967 22.5307 3.92783 22.5209 3.91692C22.5111 3.89509 22.4916 3.88417 22.472 3.87326C22.0711 3.3493 21.4747 3 20.8 3H3.2C2.52533 3 1.93867 3.3493 1.528 3.87326C1.51822 3.88417 1.49867 3.89509 1.47911 3.906C1.47911 3.92783 1.46933 3.93875 1.45956 3.94967C1.176 4.36446 1 4.8775 1 5.44512V18.544C1 19.8975 1.98756 21 3.2 21H20.8C22.0124 21 23 19.8975 23 18.544V5.44512C23 4.88842 22.824 4.37538 22.5404 3.96058ZM20.4773 4.62644L13.5253 10.5973C12.6551 11.3505 11.3449 11.3505 10.4747 10.5973L3.52267 4.62644H20.4773ZM20.8 19.3626H3.2C2.79911 19.3626 2.46667 18.9915 2.46667 18.544V5.7835L9.58489 11.8963C10.2791 12.4857 11.1298 12.8132 12 12.8132C12.8702 12.8132 13.7307 12.4857 14.4151 11.8963L21.5333 5.7835V18.544C21.5333 18.9915 21.2009 19.3626 20.8 19.3626Z" fill="#171717"/>
</svg>
