<svg width="24" height="24" viewBox="0 0 24 24" fill="none" xmlns="http://www.w3.org/2000/svg">
<path d="M16.9065 8.3775C16.8715 8.33797 16.8287 8.30619 16.7806 8.28422C16.7326 8.26226 16.6804 8.2506 16.6275 8.25H13.7852V7.1925C13.7852 6.9825 13.8305 6.7425 14.1697 6.7425H16.4315C16.4813 6.74575 16.5311 6.73726 16.577 6.71771C16.6228 6.69816 16.6634 6.66811 16.6954 6.63C16.7293 6.59673 16.7561 6.55701 16.7742 6.51319C16.7924 6.46938 16.8014 6.42238 16.8009 6.375V3.375C16.8009 3.27554 16.7612 3.18016 16.6905 3.10983C16.6198 3.03951 16.5239 3 16.4239 3H13.1595C9.5407 3 9.26175 6.075 9.26175 7.0125V8.25H7.37696C7.27698 8.25 7.1811 8.28951 7.11041 8.35984C7.03972 8.43016 7 8.52554 7 8.625V11.625C7 11.7245 7.03972 11.8198 7.11041 11.8902C7.1811 11.9605 7.27698 12 7.37696 12H9.26175V20.625C9.26175 20.7245 9.30146 20.8198 9.37216 20.8902C9.44285 20.9605 9.53873 21 9.6387 21H13.4083C13.5083 21 13.6041 20.9605 13.6748 20.8902C13.7455 20.8198 13.7852 20.7245 13.7852 20.625V12H16.3109C16.4046 12.0005 16.4952 11.9661 16.5649 11.9037C16.6346 11.8413 16.6784 11.7553 16.6878 11.6625L16.9969 8.6625C17.0037 8.6113 16.9992 8.55924 16.9836 8.50999C16.9679 8.46074 16.9416 8.41551 16.9065 8.3775Z" fill="#171717"/>
</svg>
