<svg width="24" height="24" viewBox="0 0 24 24" fill="none" xmlns="http://www.w3.org/2000/svg">
<path d="M13.9004 24H8.81448C8.39743 24 8.05158 23.66 8.05158 23.25V12.5H5.7629C5.34585 12.5 5 12.16 5 11.75V7.75C5 7.34 5.34585 7 5.7629 7H8.05158V5.6C8.05158 4.29 8.44829 0 13.5648 0H17.9692C18.3863 0 18.7321 0.34 18.7321 0.75V4.75C18.7321 5.16 18.3863 5.5 17.9692 5.5H14.9176C14.8566 5.49 14.8464 5.51 14.8159 5.52C14.7752 5.54 14.7549 5.56 14.7244 5.58C14.704 5.6 14.6837 5.64 14.6735 5.67C14.6633 5.7 14.6633 5.74 14.6633 5.78V7.01H18.2337C18.4473 7.01 18.6507 7.1 18.8033 7.26C18.9457 7.42 19.0169 7.63 18.9966 7.84L18.5795 11.84C18.5388 12.22 18.2133 12.51 17.8166 12.51H14.6633V23.26C14.6633 23.67 14.3175 24 13.9004 24ZM9.57737 22.5H13.1375V11.75C13.1375 11.34 13.4834 11 13.9004 11H17.1249L17.3894 8.5H13.9004C13.4834 8.5 13.1375 8.16 13.1375 7.75V5.85C13.1172 5.67 13.1477 5.43 13.2189 5.2C13.3003 4.97 13.4224 4.76 13.5953 4.57C13.7682 4.38 13.9716 4.24 14.1954 4.14C14.4192 4.04 14.6532 4.01 14.9176 3.99H17.2063V1.5H13.5648C10.0961 1.5 9.57737 4.08 9.57737 5.61V7.76C9.57737 8.17 9.23152 8.51 8.81448 8.51H6.52579V11H8.81448C9.23152 11 9.57737 11.34 9.57737 11.75V22.5Z" fill="#1D2127"/>
</svg>
