<svg width="24" height="24" viewBox="0 0 24 24" fill="none" xmlns="http://www.w3.org/2000/svg">
<path d="M13.87 24H8.87C8.46 24 8.12 23.66 8.12 23.25V12.5H5.87C5.46 12.5 5.12 12.16 5.12 11.75V7.75C5.12 7.34 5.46 7 5.87 7H8.12V5.6C8.12 4.29 8.50999 0 13.54 0H17.87C18.28 0 18.62 0.34 18.62 0.75V4.75C18.62 5.16 18.28 5.5 17.87 5.5H14.87C14.81 5.49 14.8 5.51 14.77 5.52C14.73 5.54 14.71 5.56 14.68 5.58C14.66 5.6 14.64 5.64 14.63 5.67C14.62 5.7 14.62 5.74 14.62 5.78V7.01H18.13C18.34 7.01 18.54 7.1 18.69 7.26C18.83 7.42 18.9 7.63 18.88 7.84L18.47 11.84C18.43 12.22 18.11 12.51 17.72 12.51H14.62V23.26C14.62 23.67 14.28 24 13.87 24ZM9.62 22.5H13.12V11.75C13.12 11.34 13.46 11 13.87 11H17.04L17.3 8.5H13.87C13.46 8.5 13.12 8.16 13.12 7.75V5.85C13.1 5.67 13.13 5.43 13.2 5.2C13.28 4.97 13.4 4.76 13.57 4.57C13.74 4.38 13.94 4.24 14.16 4.14C14.38 4.04 14.61 4.01 14.87 3.99H17.12V1.5H13.54C10.13 1.5 9.62 4.08 9.62 5.61V7.76C9.62 8.17 9.27999 8.51 8.87 8.51H6.62V11H8.87C9.27999 11 9.62 11.34 9.62 11.75V22.5Z" fill="#171717"/>
</svg>
