<svg width="24" height="24" viewBox="0 0 24 24" fill="none" xmlns="http://www.w3.org/2000/svg">
<path d="M16.855 8.3775C16.8203 8.33797 16.7776 8.30619 16.7298 8.28422C16.682 8.26226 16.6301 8.2506 16.5775 8.25H13.75V7.1925C13.75 6.9825 13.795 6.7425 14.1325 6.7425H16.3825C16.432 6.74575 16.4816 6.73726 16.5272 6.71771C16.5728 6.69816 16.6132 6.66811 16.645 6.63C16.6787 6.59673 16.7054 6.55701 16.7235 6.51319C16.7415 6.46938 16.7505 6.42238 16.75 6.375V3.375C16.75 3.27554 16.7105 3.18016 16.6402 3.10983C16.5698 3.03951 16.4745 3 16.375 3H13.1275C9.5275 3 9.25 6.075 9.25 7.0125V8.25H7.375C7.27554 8.25 7.18016 8.28951 7.10983 8.35984C7.03951 8.43016 7 8.52554 7 8.625V11.625C7 11.7245 7.03951 11.8198 7.10983 11.8902C7.18016 11.9605 7.27554 12 7.375 12H9.25V20.625C9.25 20.7245 9.28951 20.8198 9.35983 20.8902C9.43016 20.9605 9.52554 21 9.625 21H13.375C13.4745 21 13.5698 20.9605 13.6402 20.8902C13.7105 20.8198 13.75 20.7245 13.75 20.625V12H16.2625C16.3558 12.0005 16.4459 11.9661 16.5152 11.9037C16.5846 11.8413 16.6282 11.7553 16.6375 11.6625L16.945 8.6625C16.9518 8.6113 16.9473 8.55924 16.9317 8.50999C16.9161 8.46074 16.89 8.41551 16.855 8.3775Z" fill="#171717"/>
</svg>
