<svg width="24" height="24" viewBox="0 0 24 24" fill="none" xmlns="http://www.w3.org/2000/svg">
<path fill-rule="evenodd" clip-rule="evenodd" d="M8.7587 1H15.2413C16.0463 0.999988 16.7106 0.999977 17.2518 1.04419C17.8139 1.09012 18.3306 1.18868 18.816 1.43597C19.5686 1.81947 20.1805 2.43139 20.564 3.18404C20.8113 3.66937 20.9099 4.18608 20.9558 4.74817C21 5.28936 21 5.95372 21 6.75868V10C21 10.5523 20.5523 11 20 11C19.4477 11 19 10.5523 19 10V6.8C19 5.94342 18.9992 5.36113 18.9624 4.91104C18.9266 4.47262 18.8617 4.24842 18.782 4.09202C18.5903 3.7157 18.2843 3.40973 17.908 3.21799C17.7516 3.1383 17.5274 3.07337 17.089 3.03755C16.6389 3.00078 16.0566 3 15.2 3H8.8C7.94342 3 7.36113 3.00078 6.91104 3.03755C6.47262 3.07337 6.24842 3.1383 6.09202 3.21799C5.7157 3.40973 5.40973 3.7157 5.21799 4.09202C5.1383 4.24842 5.07337 4.47262 5.03755 4.91104C5.00078 5.36113 5 5.94342 5 6.8V17.2C5 18.0566 5.00078 18.6389 5.03755 19.089C5.07337 19.5274 5.1383 19.7516 5.21799 19.908C5.40973 20.2843 5.7157 20.5903 6.09202 20.782C6.24842 20.8617 6.47262 20.9266 6.91104 20.9624C7.36113 20.9992 7.94342 21 8.8 21H12C12.5523 21 13 21.4477 13 22C13 22.5523 12.5523 23 12 23H8.75868C7.95372 23 7.28936 23 6.74817 22.9558C6.18608 22.9099 5.66937 22.8113 5.18404 22.564C4.43139 22.1805 3.81947 21.5686 3.43597 20.816C3.18868 20.3306 3.09012 19.8139 3.04419 19.2518C2.99998 18.7106 2.99999 18.0463 3 17.2413V6.7587C2.99999 5.95373 2.99998 5.28937 3.04419 4.74817C3.09012 4.18608 3.18868 3.66937 3.43597 3.18404C3.81947 2.43139 4.43139 1.81947 5.18404 1.43597C5.66937 1.18868 6.18608 1.09012 6.74817 1.04419C7.28937 0.999977 7.95373 0.999988 8.7587 1ZM7 7C7 6.44772 7.44772 6 8 6H16C16.5523 6 17 6.44772 17 7C17 7.55229 16.5523 8 16 8H8C7.44772 8 7 7.55229 7 7ZM7 11C7 10.4477 7.44772 10 8 10H12.5C13.0523 10 13.5 10.4477 13.5 11C13.5 11.5523 13.0523 12 12.5 12H8C7.44772 12 7 11.5523 7 11ZM16.9967 13.5268C18.101 12.8231 19.5676 12.7672 20.7612 13.7316C22.2151 14.9065 22.3949 16.9349 21.27 18.3423C20.8157 18.9106 19.8769 19.7871 19.1171 20.4712C18.7241 20.8252 18.3567 21.1473 18.0877 21.3808C17.9531 21.4976 17.8428 21.5925 17.766 21.6584L17.677 21.7346L17.6454 21.7615C17.6453 21.7616 17.6447 21.7621 16.9973 21C16.3498 21.7621 16.3498 21.7621 16.3498 21.7621L16.3176 21.7346L16.2285 21.6584C16.1517 21.5925 16.0414 21.4976 15.9068 21.3808C15.6379 21.1473 15.2704 20.8252 14.8774 20.4712C14.1176 19.7871 13.1788 18.9106 12.7246 18.3423C11.5904 16.9234 11.8104 14.9136 13.2229 13.7402C14.4103 12.7539 15.8903 12.8224 16.9967 13.5268ZM16.9973 21L16.3498 21.7621C16.7231 22.0792 17.272 22.0787 17.6454 21.7615L16.9973 21ZM16.9973 19.6782C17.2252 19.4788 17.4955 19.2401 17.7788 18.985C18.5681 18.2743 19.3751 17.5097 19.7077 17.0936C20.1565 16.5321 20.0887 15.7596 19.5041 15.2873C18.9576 14.8456 18.2431 14.9285 17.748 15.4911C17.5582 15.7069 17.2847 15.8306 16.9973 15.8306C16.7098 15.8306 16.4363 15.7069 16.2465 15.4911C15.744 14.9201 15.0198 14.8476 14.5009 15.2787C13.9093 15.7701 13.8472 16.5436 14.2868 17.0936C14.6194 17.5097 15.4265 18.2743 16.2157 18.985C16.499 19.2401 16.7693 19.4788 16.9973 19.6782ZM7 15C7 14.4477 7.44772 14 8 14H9C9.55229 14 10 14.4477 10 15C10 15.5523 9.55229 16 9 16H8C7.44772 16 7 15.5523 7 15Z" fill="#101C2D"/>
</svg>
