<svg width="24" height="24" viewBox="0 0 24 24" fill="none" xmlns="http://www.w3.org/2000/svg">
<path fill-rule="evenodd" clip-rule="evenodd" d="M11.8026 4.52045L11.8026 4.52046L11.8026 4.52045ZM12 4.61804L19.7639 8.5L18.5722 9.09589C18.5596 9.10187 18.5471 9.10809 18.5348 9.11457L12 12.382L5.46521 9.11457C5.4529 9.10809 5.44044 9.10186 5.42784 9.09589L4.23607 8.5L12 4.61804ZM4 10.618L1.55279 9.39443C1.214 9.22504 1 8.87878 1 8.5C1 8.12123 1.214 7.77497 1.55279 7.60558L11.195 2.78446C11.2024 2.78076 11.211 2.77639 11.2206 2.77149C11.3139 2.72388 11.507 2.62535 11.7234 2.58474C11.9062 2.55045 12.0938 2.55045 12.2766 2.58474C12.493 2.62535 12.6861 2.72388 12.7794 2.77149C12.789 2.77639 12.7976 2.78076 12.805 2.78446L22.4472 7.60558C22.786 7.77497 23 8.12123 23 8.5C23 8.87878 22.786 9.22504 22.4472 9.39443L20 10.618V16.0111C20 16.0357 20.0001 16.061 20.0002 16.0868C20.0012 16.3629 20.0026 16.7098 19.8907 17.0341C19.794 17.3144 19.6363 17.5696 19.4288 17.7814L18.7144 17.0817L19.4288 17.7814C19.1888 18.0265 18.8779 18.1805 18.6305 18.303C18.6074 18.3145 18.5847 18.3257 18.5628 18.3367L13.1628 21.0367C13.1449 21.0456 13.1266 21.0548 13.1078 21.0643C12.9053 21.1664 12.6503 21.2949 12.3688 21.3477C12.1251 21.3934 11.8749 21.3934 11.6312 21.3477C11.3497 21.2949 11.0947 21.1664 10.8922 21.0643C10.8734 21.0548 10.8551 21.0456 10.8372 21.0367L5.43725 18.3367C5.41528 18.3257 5.39265 18.3145 5.36946 18.303C5.12211 18.1805 4.81122 18.0265 4.57116 17.7814C4.36373 17.5696 4.20597 17.3144 4.10931 17.0341C3.99744 16.7098 3.99876 16.3629 3.99981 16.0868C3.9999 16.061 4 16.0357 4 16.0111V10.618ZM6 11.618V16.0111C6 16.2027 6.00045 16.3012 6.00489 16.3725C6.00503 16.3747 6.00516 16.3767 6.00529 16.3787C6.00699 16.3797 6.00876 16.3807 6.01062 16.3818C6.0724 16.4177 6.16032 16.4621 6.33167 16.5478L5.91886 17.3734L6.33167 16.5478L11.7317 19.2478C11.872 19.318 11.943 19.3531 11.9958 19.3761C11.9973 19.3767 11.9987 19.3773 12 19.3779C12.0013 19.3773 12.0027 19.3767 12.0042 19.3761C12.057 19.3531 12.128 19.318 12.2683 19.2478L17.6683 16.5478C17.8397 16.4621 17.9276 16.4177 17.9894 16.3818C17.9912 16.3807 17.993 16.3797 17.9947 16.3787C17.9948 16.3767 17.995 16.3747 17.9951 16.3725C17.9996 16.3012 18 16.2027 18 16.0111V11.618L12.805 14.2155C12.7976 14.2192 12.789 14.2236 12.7794 14.2285C12.6861 14.2761 12.493 14.3747 12.2766 14.4153C12.0938 14.4496 11.9062 14.4496 11.7234 14.4153C11.507 14.3747 11.3139 14.2761 11.2206 14.2285C11.211 14.2236 11.2024 14.2192 11.195 14.2155L6 11.618ZM11.8026 12.4796C11.8024 12.4797 11.8024 12.4796 11.8026 12.4795L11.8026 12.4796ZM12.1974 12.4795C12.1976 12.4796 12.1976 12.4797 12.1974 12.4796L12.1974 12.4795ZM12.1974 4.52046L12.1974 4.52045L12.1974 4.52046Z" fill="#101C2D"/>
</svg>
