<svg width="24" height="24" viewBox="0 0 24 24" fill="none" xmlns="http://www.w3.org/2000/svg">
<path fill-rule="evenodd" clip-rule="evenodd" d="M12.0903 6.16603C12.3794 6.04215 12.7066 6.04215 12.9956 6.16603L19.3035 8.86943C20.2747 9.28563 20.2166 10.6815 19.2143 11.0157L17.6602 11.5337V15.2898C17.6602 15.7688 17.3631 16.1975 16.9146 16.3657L12.9464 17.8538C12.6863 17.9513 12.3996 17.9513 12.1395 17.8538L8.17135 16.3657C7.72287 16.1975 7.42575 15.7688 7.42575 15.2898V11.5337L5.0991 10.7581V12.8505C5.0991 13.154 4.85305 13.4 4.54955 13.4C4.24604 13.4 4 13.154 4 12.8505V9.99568C4 9.77585 4.13101 9.57717 4.33307 9.49057L12.0903 6.16603ZM6.09458 9.93142L8.14908 10.6163C8.15552 10.6184 8.16191 10.6207 8.16826 10.623L12.5254 12.257C12.5367 12.2612 12.5492 12.2612 12.5605 12.257L16.9177 10.623C16.924 10.6207 16.9304 10.6184 16.9369 10.6163L18.8667 9.97297C18.8778 9.96926 18.8835 9.96557 18.8859 9.96375C18.8885 9.96183 18.8903 9.95992 18.8919 9.95766C18.8955 9.95262 18.9002 9.94237 18.9008 9.92765C18.9014 9.91293 18.8976 9.90233 18.8945 9.89701C18.893 9.89463 18.8914 9.89257 18.889 9.89044C18.8867 9.88843 18.8814 9.88428 18.8706 9.87966L12.5627 7.17626C12.5501 7.17087 12.5359 7.17087 12.5233 7.17626L6.09458 9.93142ZM8.52485 11.9306L12.1395 13.2861C12.3996 13.3836 12.6863 13.3836 12.9464 13.2861L16.5611 11.9306V15.2898C16.5611 15.3106 16.5482 15.3293 16.5287 15.3366L12.5605 16.8247C12.5492 16.8289 12.5367 16.8289 12.5254 16.8247L8.55727 15.3366C8.53777 15.3293 8.52485 15.3106 8.52485 15.2898V11.9306Z" fill="#171717"/>
</svg>
