<svg width="24" height="24" viewBox="0 0 24 24" fill="none" xmlns="http://www.w3.org/2000/svg">
<path fill-rule="evenodd" clip-rule="evenodd" d="M12.0903 6.09405C12.3794 5.96865 12.7066 5.96865 12.9956 6.09405L19.3035 8.8308C20.2747 9.25213 20.2166 10.6653 19.2143 11.0035L17.6602 11.5279V15.3304C17.6602 15.8152 17.3631 16.2493 16.9146 16.4195L12.9464 17.9259C12.6863 18.0247 12.3996 18.0247 12.1395 17.9259L8.17135 16.4195C7.72287 16.2493 7.42575 15.8152 7.42575 15.3304V11.5279L5.0991 10.7428V12.8609C5.0991 13.1682 4.85305 13.4173 4.54955 13.4173C4.24604 13.4173 4 13.1682 4 12.8609V9.97094C4 9.74839 4.13101 9.54726 4.33307 9.4596L12.0903 6.09405ZM6.09458 9.90588L8.14908 10.5992C8.15552 10.6013 8.16191 10.6036 8.16826 10.606L12.5254 12.2601C12.5367 12.2644 12.5492 12.2644 12.5605 12.2601L16.9177 10.606C16.924 10.6036 16.9304 10.6013 16.9369 10.5992L18.8667 9.94795C18.8778 9.94419 18.8835 9.94045 18.8859 9.93862C18.8885 9.93667 18.8903 9.93473 18.8919 9.93245C18.8955 9.92735 18.9002 9.91697 18.9008 9.90207C18.9014 9.88717 18.8976 9.87643 18.8945 9.87104C18.893 9.86864 18.8914 9.86655 18.889 9.8644C18.8867 9.86236 18.8814 9.85816 18.8706 9.85348L12.5627 7.11674C12.5501 7.11129 12.5359 7.11129 12.5233 7.11674L6.09458 9.90588ZM8.52485 11.9297L12.1395 13.3019C12.3996 13.4007 12.6863 13.4007 12.9464 13.3019L16.5611 11.9297V15.3304C16.5611 15.3514 16.5482 15.3703 16.5287 15.3777L12.5605 16.8841C12.5492 16.8884 12.5367 16.8884 12.5254 16.8841L8.55727 15.3777C8.53777 15.3703 8.52485 15.3514 8.52485 15.3304V11.9297Z" fill="#171717"/>
</svg>
