<svg width="24" height="24" viewBox="0 0 24 24" fill="none" xmlns="http://www.w3.org/2000/svg">
<path opacity="0.2" d="M11.5263 2.5H5.89474C4.8483 2.5 4 3.29131 4 4.26744V19.7326C4 20.7087 4.8483 21.5 5.89474 21.5H18.1053C19.1517 21.5 20 20.7087 20 19.7326V11.3372C20 10.3611 19.1517 8.56977 18.1053 8.56977H15.3158C14.2694 8.56977 13.4211 7.77846 13.4211 6.80233V4.26744C13.4211 3.29131 12.5728 2.5 11.5263 2.5Z" fill="#0A0B0D"/>
<path fill-rule="evenodd" clip-rule="evenodd" d="M13 3.01991C12.8143 3.00299 12.5391 3.00006 12.0118 3.00006H8.8C7.94342 3.00006 7.36113 3.00084 6.91104 3.03761C6.47262 3.07343 6.24842 3.13836 6.09202 3.21805C5.7157 3.4098 5.40973 3.71576 5.21799 4.09208C5.1383 4.24848 5.07337 4.47269 5.03755 4.9111C5.00078 5.36119 5 5.94348 5 6.80006V17.2001C5 18.0566 5.00078 18.6389 5.03755 19.089C5.07337 19.5274 5.1383 19.7516 5.21799 19.908C5.40973 20.2844 5.7157 20.5903 6.09202 20.7821C6.24842 20.8618 6.47262 20.9267 6.91104 20.9625C7.36113 20.9993 7.94342 21.0001 8.8 21.0001H15.2C16.0566 21.0001 16.6389 20.9993 17.089 20.9625C17.5274 20.9267 17.7516 20.8618 17.908 20.7821C18.2843 20.5903 18.5903 20.2844 18.782 19.908C18.8617 19.7516 18.9266 19.5274 18.9624 19.089C18.9992 18.6389 19 18.0566 19 17.2001V9.98829C19 9.46099 18.9971 9.18583 18.9802 9.00013L15.5681 9.00014C15.3157 9.00017 15.0699 9.0002 14.8618 8.98319C14.6332 8.96451 14.3634 8.92044 14.092 8.78215C13.7157 8.5904 13.4097 8.28444 13.218 7.90812C13.0797 7.63669 13.0356 7.36696 13.0169 7.13836C12.9999 6.9302 13 6.6844 13 6.43202L13 3.01991ZM14.3936 1.35003C14.1677 1.24877 13.9326 1.16854 13.6911 1.11058C13.2284 0.9995 12.7487 0.999729 12.1137 1.00003C12.0801 1.00005 12.0462 1.00006 12.0118 1.00006L8.7587 1.00006C7.95373 1.00005 7.28937 1.00004 6.74817 1.04426C6.18608 1.09018 5.66937 1.18875 5.18404 1.43604C4.43139 1.81953 3.81947 2.43145 3.43597 3.1841C3.18868 3.66944 3.09012 4.18614 3.04419 4.74824C2.99998 5.28943 2.99999 5.95379 3 6.75876V17.2414C2.99999 18.0463 2.99998 18.7107 3.04419 19.2519C3.09012 19.814 3.18868 20.3307 3.43597 20.816C3.81947 21.5687 4.43139 22.1806 5.18404 22.5641C5.66937 22.8114 6.18608 22.9099 6.74817 22.9559C7.28936 23.0001 7.95372 23.0001 8.75868 23.0001H15.2413C16.0463 23.0001 16.7106 23.0001 17.2518 22.9559C17.8139 22.9099 18.3306 22.8114 18.816 22.5641C19.5686 22.1806 20.1805 21.5687 20.564 20.816C20.8113 20.3307 20.9099 19.814 20.9558 19.2519C21 18.7107 21 18.0463 21 17.2414V9.98829C21 9.95389 21 9.91994 21 9.88642C21.0003 9.25142 21.0006 8.77162 20.8895 8.30892C20.8317 8.06819 20.7518 7.83372 20.6509 7.60843C20.6447 7.59375 20.6381 7.57925 20.6311 7.56494C20.5658 7.42355 20.4922 7.28589 20.4106 7.15271C20.1619 6.74698 19.8225 6.40788 19.3733 5.95907C19.3496 5.93539 19.3255 5.91139 19.3012 5.88707L16.113 2.69884C16.0887 2.67452 16.0647 2.6505 16.041 2.62678C15.5922 2.17756 15.2531 1.83813 14.8474 1.5895C14.7136 1.50756 14.5754 1.43367 14.4334 1.36814C14.4203 1.36182 14.407 1.35578 14.3936 1.35003ZM15 4.41428V6.40014C15 6.69666 15.0008 6.85892 15.0103 6.9755C15.0107 6.98014 15.0111 6.98454 15.0114 6.98869C15.0156 6.98907 15.02 6.98945 15.0246 6.98983C15.1412 6.99936 15.3035 7.00013 15.6 7.00013H17.5859L15 4.41428ZM7 13.0001C7 12.4478 7.44772 12.0001 8 12.0001H16C16.5523 12.0001 17 12.4478 17 13.0001C17 13.5523 16.5523 14.0001 16 14.0001H8C7.44772 14.0001 7 13.5523 7 13.0001ZM7 17.0001C7 16.4478 7.44772 16.0001 8 16.0001H14C14.5523 16.0001 15 16.4478 15 17.0001C15 17.5523 14.5523 18.0001 14 18.0001H8C7.44772 18.0001 7 17.5523 7 17.0001Z" fill="#0A0B0D"/>
</svg>
