<svg width="24" height="24" viewBox="0 0 24 24" fill="none" xmlns="http://www.w3.org/2000/svg">
<path fill-rule="evenodd" clip-rule="evenodd" d="M10 3.01991C9.8143 3.00299 9.53915 3.00006 9.01178 3.00006H5.8C4.94342 3.00006 4.36113 3.00084 3.91104 3.03761C3.47262 3.07343 3.24842 3.13836 3.09202 3.21805C2.7157 3.4098 2.40973 3.71576 2.21799 4.09208C2.1383 4.24848 2.07337 4.47269 2.03755 4.9111C2.00078 5.36119 2 5.94348 2 6.80006V17.2001C2 18.0566 2.00078 18.6389 2.03755 19.089C2.07337 19.5274 2.1383 19.7516 2.21799 19.908C2.40973 20.2844 2.7157 20.5903 3.09202 20.7821C3.24842 20.8618 3.47262 20.9267 3.91104 20.9625C4.36113 20.9993 4.94342 21.0001 5.8 21.0001H12.2C13.0566 21.0001 13.6389 20.9993 14.089 20.9625C14.5274 20.9267 14.7516 20.8618 14.908 20.7821C15.2843 20.5903 15.5903 20.2844 15.782 19.908C15.8617 19.7516 15.9266 19.5274 15.9624 19.089C15.9992 18.6389 16 18.0566 16 17.2001V9.98829C16 9.46099 15.9971 9.18583 15.9802 9.00013L12.5681 9.00014C12.3157 9.00017 12.0699 9.0002 11.8618 8.98319C11.6332 8.96451 11.3634 8.92044 11.092 8.78215C10.7157 8.5904 10.4097 8.28444 10.218 7.90812C10.0797 7.63669 10.0356 7.36696 10.0169 7.13836C9.99994 6.9302 9.99997 6.6844 10 6.43202L10 3.01991ZM11.3936 1.35003C11.1677 1.24877 10.9326 1.16854 10.6911 1.11058C10.2284 0.9995 9.74865 0.999729 9.11366 1.00003C9.08014 1.00005 9.04618 1.00006 9.01178 1.00006L5.7587 1.00006C4.95373 1.00005 4.28937 1.00004 3.74817 1.04426C3.18608 1.09018 2.66937 1.18875 2.18404 1.43604C1.43139 1.81953 0.819468 2.43145 0.435975 3.1841C0.188684 3.66944 0.0901197 4.18614 0.0441945 4.74824C-2.28137e-05 5.28943 -1.23241e-05 5.95379 4.31292e-07 6.75876V17.2414C-1.23241e-05 18.0463 -2.28137e-05 18.7107 0.0441945 19.2519C0.0901197 19.814 0.188684 20.3307 0.435975 20.816C0.819468 21.5687 1.43139 22.1806 2.18404 22.5641C2.66937 22.8114 3.18608 22.9099 3.74817 22.9559C4.28936 23.0001 4.95372 23.0001 5.75868 23.0001H12.2413C13.0463 23.0001 13.7106 23.0001 14.2518 22.9559C14.8139 22.9099 15.3306 22.8114 15.816 22.5641C16.5686 22.1806 17.1805 21.5687 17.564 20.816C17.8113 20.3307 17.9099 19.814 17.9558 19.2519C18 18.7107 18 18.0463 18 17.2414V9.98829C18 9.95389 18 9.91994 18 9.88642C18.0003 9.25142 18.0006 8.77162 17.8895 8.30892C17.8317 8.06819 17.7518 7.83372 17.6509 7.60843C17.6447 7.59375 17.6381 7.57925 17.6311 7.56494C17.5658 7.42355 17.4922 7.28589 17.4106 7.15271C17.1619 6.74698 16.8225 6.40788 16.3733 5.95907C16.3496 5.93539 16.3255 5.91139 16.3012 5.88707L13.113 2.69884C13.0887 2.67452 13.0647 2.6505 13.041 2.62678C12.5922 2.17756 12.2531 1.83813 11.8474 1.5895C11.7136 1.50756 11.5754 1.43367 11.4334 1.36814C11.4203 1.36182 11.407 1.35578 11.3936 1.35003ZM12 4.41428V6.40014C12 6.69666 12.0008 6.85892 12.0103 6.9755C12.0107 6.98014 12.0111 6.98454 12.0114 6.98869C12.0156 6.98907 12.02 6.98945 12.0246 6.98983C12.1412 6.99936 12.3035 7.00013 12.6 7.00013H14.5859L12 4.41428ZM4 13.0001C4 12.4478 4.44772 12.0001 5 12.0001H13C13.5523 12.0001 14 12.4478 14 13.0001C14 13.5523 13.5523 14.0001 13 14.0001H5C4.44772 14.0001 4 13.5523 4 13.0001ZM4 17.0001C4 16.4478 4.44772 16.0001 5 16.0001H11C11.5523 16.0001 12 16.4478 12 17.0001C12 17.5523 11.5523 18.0001 11 18.0001H5C4.44772 18.0001 4 17.5523 4 17.0001Z" fill="#0A0B0D"/>
<circle cx="15.5" cy="15.5" r="6.5" fill="white"/>
<path d="M16 8C14.4178 8 12.871 8.46919 11.5554 9.34824C10.2398 10.2273 9.21447 11.4767 8.60897 12.9385C8.00347 14.4003 7.84504 16.0089 8.15372 17.5607C8.4624 19.1126 9.22433 20.538 10.3431 21.6569C11.462 22.7757 12.8874 23.5376 14.4393 23.8463C15.9911 24.155 17.5997 23.9965 19.0615 23.391C20.5233 22.7855 21.7727 21.7602 22.6518 20.4446C23.5308 19.129 24 17.5822 24 16C24 13.8783 23.1571 11.8434 21.6569 10.3431C20.1566 8.84285 18.1217 8 16 8ZM20.62 13.4667L16.0533 19.66C16.0002 19.7324 15.933 19.7933 15.8557 19.8391C15.7784 19.8849 15.6927 19.9146 15.6037 19.9265C15.5146 19.9383 15.4241 19.932 15.3376 19.908C15.251 19.884 15.1702 19.8427 15.1 19.7867L11.84 17.18C11.7715 17.125 11.7146 17.057 11.6725 16.9799C11.6303 16.9028 11.6039 16.8181 11.5946 16.7308C11.5853 16.6434 11.5934 16.5551 11.6183 16.4709C11.6433 16.3867 11.6846 16.3082 11.74 16.24C11.8508 16.1056 12.0098 16.0198 12.183 16.0012C12.3561 15.9825 12.5298 16.0323 12.6667 16.14L15.3867 18.3133L19.5467 12.6667C19.6516 12.5261 19.8078 12.4326 19.9812 12.4064C20.1547 12.3802 20.3315 12.4234 20.4733 12.5267C20.5453 12.5782 20.6064 12.6436 20.6528 12.7191C20.6993 12.7945 20.7302 12.8784 20.7439 12.9659C20.7575 13.0534 20.7536 13.1428 20.7323 13.2287C20.7111 13.3147 20.6729 13.3956 20.62 13.4667Z" fill="#098551"/>
</svg>
