<svg width="24" height="24" viewBox="0 0 24 24" fill="none" xmlns="http://www.w3.org/2000/svg">
<path opacity="0.2" d="M10.5263 2.5H5.89474C4.8483 2.5 4 3.29131 4 4.26744V19.7326C4 20.7087 4.8483 21.5 5.89474 21.5H18.1053C19.1517 21.5 20 20.7087 20 19.7326V11.3372C20 10.3611 19.1517 9.56977 18.1053 9.56977H14.3158C13.2694 9.56977 12.4211 8.77846 12.4211 7.80233V4.26744C12.4211 3.29131 11.5728 2.5 10.5263 2.5Z" fill="#101C2D"/>
<path fill-rule="evenodd" clip-rule="evenodd" d="M5.25064 1.00252C4.99071 1.02776 4.82524 1.0634 4.60402 1.14181C4.11369 1.3156 3.69997 1.6284 3.40682 2.04697C3.21358 2.32288 3.08589 2.62572 3.02352 2.95606L3 3.08065V12.9761V20.9166L3.02352 21.0412C3.15365 21.7304 3.58238 22.321 4.21129 22.6774C4.47123 22.8247 4.76643 22.9259 5.09024 22.9789C5.19086 22.9953 5.57838 22.9962 9.93718 22.9992C16.2937 23.0014 18.666 22.9993 18.767 22.9915C19.4459 22.9386 20.0934 22.5949 20.5094 22.0667C20.7313 21.7848 20.8908 21.444 20.9601 21.1035C21.0013 20.901 20.9997 23.1439 21 15.8755C21.0002 9.68451 20.9986 8.95185 20.9847 8.84949C20.9265 8.42185 20.7519 8.02507 20.4706 7.68098C20.3891 7.58134 14.148 1.61432 14.0274 1.52075C13.8282 1.3662 13.5579 1.21955 13.3159 1.13468C13.1993 1.09381 12.9895 1.04252 12.8395 1.01823C12.7395 1.00204 13.4482 1.00113 8.0349 1.00016C6.85041 0.999581 5.26994 1.00064 5.25064 1.00252ZM5.29292 2.74472C5.12669 2.7832 4.95095 2.9212 4.87122 3.07586C4.84812 3.12067 4.82262 3.18752 4.81454 3.22441C4.80171 3.28307 4.79986 4.50846 4.79986 12.9761C4.79986 19.4888 4.80171 20.7142 4.81454 20.7728C4.86297 20.9941 5.06605 21.1964 5.29535 21.2519C5.34839 21.2648 6.32425 21.2664 10.0272 21.2664H18.6494L18.7244 21.2466C18.8335 21.2178 18.9183 21.169 19.0061 21.0844C19.0986 20.9953 19.1576 20.8904 19.1805 20.7744C19.1936 20.7085 19.1954 21.8848 19.1954 16.397V10.1397L16.436 10.1369L13.6765 10.134L13.5441 10.1132C12.977 10.0241 12.4952 9.78468 12.119 9.40509C11.7804 9.06353 11.5668 8.65491 11.4734 8.16977L11.4512 8.05476L11.4484 5.3928L11.4456 2.73084L7.4207 2.73165C6.32629 2.7323 5.33554 2.73486 5.29292 2.74472ZM13.2528 5.56052L13.2555 7.90141L13.2862 7.9833C13.303 8.02833 13.3338 8.08967 13.3546 8.1196C13.4352 8.23567 13.5687 8.33533 13.7015 8.37852L13.7668 8.39978L16.2279 8.40225L18.6891 8.40473L15.9773 5.81217C14.4858 4.38627 13.2621 3.21962 13.2578 3.21962C13.2536 3.21962 13.2513 4.27302 13.2528 5.56052Z" fill="#101C2D"/>
</svg>
