<svg width="24" height="24" viewBox="0 0 24 24" fill="none" xmlns="http://www.w3.org/2000/svg">
<path d="M19.5515 22H2.44143C2.36138 22 2.29134 21.9905 2.2213 21.9714C2.19128 21.9714 2.16127 21.9619 2.13125 21.9619C1.55091 21.8857 1.01059 21.619 0.620363 21.2C0.230135 20.781 0.0100059 20.2476 0 19.6857V4.14286C0 3.57143 0.230135 3.02857 0.660387 2.62857C1.08063 2.22857 1.66097 2 2.25132 2H6.75396C7.3443 2 7.92464 2.22857 8.34489 2.62857C8.76514 3.02857 8.99527 3.57143 8.99527 4.14286V4.85714H18.751C19.3413 4.85714 19.9217 5.08571 20.3419 5.48571C20.7722 5.88571 21.0023 6.42857 21.0023 7V9.14286H21.7527C22.0929 9.14286 22.4431 9.21905 22.7433 9.3619C23.0535 9.50476 23.3237 9.72381 23.5338 9.98095C23.7439 10.2381 23.894 10.5524 23.954 10.8667C24.0241 11.181 24.0141 11.5143 23.924 11.8381L21.7227 20.4C21.5927 20.8667 21.3025 21.2762 20.9123 21.5619C20.532 21.8381 20.0417 22 19.5515 22ZM4.69275 20.5714H19.5515C19.7115 20.5714 19.8816 20.5238 20.0117 20.419C20.1418 20.3238 20.2419 20.1905 20.2819 20.0381L22.4832 11.4762C22.5132 11.3524 22.5232 11.2476 22.4932 11.1429C22.4732 11.0381 22.4231 10.9333 22.3531 10.8476C22.2831 10.7619 22.193 10.6952 22.0929 10.6381C21.9929 10.5905 21.8728 10.5619 21.7628 10.5619H7.87461C7.71452 10.5619 7.55443 10.6095 7.42435 10.7048C7.29427 10.8 7.20422 10.9333 7.15419 11.0762L4.81282 20.2476C4.7728 20.3619 4.73277 20.4667 4.69275 20.5714ZM2.24131 3.42857C2.0412 3.42857 1.85108 3.50476 1.711 3.6381C1.57092 3.77143 1.49087 3.95238 1.49087 4.14286V19.6667C1.49087 19.8762 1.58093 20.0857 1.73101 20.2476C1.8811 20.4095 2.09123 20.5143 2.32136 20.5429C2.55149 20.5714 2.78163 20.5238 2.97174 20.4C3.16185 20.2762 3.30193 20.0952 3.36197 19.8857L5.70334 10.7143C5.84342 10.2381 6.13359 9.84762 6.52382 9.57143C6.90405 9.29524 7.38433 9.14286 7.87461 9.14286H19.5014V7C19.5014 6.80952 19.4214 6.62857 19.2813 6.49524C19.1412 6.3619 18.9511 6.28571 18.751 6.28571H8.24483C7.83459 6.28571 7.49439 5.9619 7.49439 5.57143V4.14286C7.49439 3.95238 7.41434 3.77143 7.27426 3.6381C7.13418 3.50476 6.94407 3.42857 6.74395 3.42857H2.24131Z" fill="#171717"/>
</svg>
