<svg width="24" height="24" viewBox="0 0 24 24" fill="none" xmlns="http://www.w3.org/2000/svg">
<path d="M19.55 22.5H2.45001C2.37001 22.5 2.30001 22.49 2.23001 22.47C2.20001 22.47 2.17001 22.46 2.14001 22.46C1.56001 22.38 1.02001 22.1 0.63001 21.66C0.24001 21.22 0.0200098 20.66 0.0100098 20.07V3.75C0.0100098 3.15 0.24001 2.58 0.67001 2.16C1.09001 1.74 1.67001 1.5 2.26001 1.5H6.76001C7.35001 1.5 7.93001 1.74 8.35001 2.16C8.77001 2.58 9.00001 3.15 9.00001 3.75V4.5H18.75C19.34 4.5 19.92 4.74 20.34 5.16C20.77 5.58 21 6.15 21 6.75V9H21.75C22.09 9 22.44 9.08 22.74 9.23C23.05 9.38 23.32 9.61 23.53 9.88C23.74 10.15 23.89 10.48 23.95 10.81C24.02 11.14 24.01 11.49 23.92 11.83L21.72 20.82C21.59 21.31 21.3 21.74 20.91 22.04C20.53 22.33 20.04 22.5 19.55 22.5ZM4.70001 21H19.55C19.71 21 19.88 20.95 20.01 20.84C20.14 20.74 20.24 20.6 20.28 20.44L22.48 11.45C22.51 11.32 22.52 11.21 22.49 11.1C22.47 10.99 22.42 10.88 22.35 10.79C22.28 10.7 22.19 10.63 22.09 10.57C21.99 10.52 21.87 10.49 21.76 10.49H7.88001C7.72001 10.49 7.56001 10.54 7.43001 10.64C7.30001 10.74 7.21001 10.88 7.16001 11.03L4.82001 20.66C4.78001 20.78 4.74001 20.89 4.70001 21ZM2.25001 3C2.05001 3 1.86001 3.08 1.72001 3.22C1.58001 3.36 1.50001 3.55 1.50001 3.75V20.05C1.50001 20.27 1.59001 20.49 1.74001 20.66C1.89001 20.83 2.10001 20.94 2.33001 20.97C2.56001 21 2.79001 20.95 2.98001 20.82C3.17001 20.69 3.31001 20.5 3.37001 20.28L5.71001 10.65C5.85001 10.15 6.14001 9.74 6.53001 9.45C6.91001 9.16 7.39001 9 7.88001 9H19.5V6.75C19.5 6.55 19.42 6.36 19.28 6.22C19.14 6.08 18.95 6 18.75 6H8.25001C7.84001 6 7.50001 5.66 7.50001 5.25V3.75C7.50001 3.55 7.42001 3.36 7.28001 3.22C7.14001 3.08 6.95001 3 6.75001 3H2.25001Z" fill="#171717"/>
</svg>
