<svg width="24" height="24" viewBox="0 0 24 24" fill="none" xmlns="http://www.w3.org/2000/svg">
<path d="M23.7652 12.276C23.7652 11.4603 23.699 10.6402 23.5579 9.83772H12.2396V14.4585H18.7211C18.4521 15.9488 17.5879 17.2672 16.3225 18.1049V21.1032H20.1893C22.46 19.0132 23.7652 15.9268 23.7652 12.276Z" fill="#4285F4"/>
<path d="M12.2397 24C15.476 24 18.2053 22.9374 20.1938 21.1031L16.327 18.1049C15.2511 18.8368 13.8622 19.2513 12.2441 19.2513C9.11356 19.2513 6.45923 17.1393 5.50685 14.2998H1.51655V17.3906C3.55359 21.4426 7.70262 24 12.2397 24Z" fill="#34A853"/>
<path d="M5.50233 14.2998C4.99969 12.8095 4.99969 11.1957 5.50233 9.7054V6.61457H1.51644C-0.185504 10.0052 -0.185504 13.9999 1.51644 17.3906L5.50233 14.2998Z" fill="#FBBC04"/>
<path d="M12.2397 4.74949C13.9504 4.72304 15.6039 5.36678 16.8428 6.54843L20.2688 3.12251C18.0995 1.08547 15.2203 -0.0344648 12.2397 0.000808637C7.70262 0.000808637 3.55359 2.55813 1.51655 6.61457L5.50244 9.7054C6.45042 6.86149 9.10915 4.74949 12.2397 4.74949Z" fill="#EA4335"/>
</svg>
