<svg width="24" height="24" viewBox="0 0 24 24" fill="none" xmlns="http://www.w3.org/2000/svg">
<path d="M12 21.7L11.6 21.3C11.3 21 4.20002 14.4 2.90002 12.8C1.50002 11.1 1.40002 9.50005 1.40002 8.20005C1.40002 4.90005 3.90002 2.30005 7.00002 2.30005C9.20002 2.30005 11.1 3.60005 12 5.50005C12.9 3.60005 14.8 2.30005 17 2.30005C20.1 2.30005 22.6 4.90005 22.6 8.20005C22.6 9.50005 22.5 11.1 21.1 12.8C19.8 14.4 12.7 21.1 12.4 21.3L12 21.7ZM7.00002 3.50005C4.60002 3.50005 2.60002 5.60005 2.60002 8.20005C2.60002 9.40005 2.70002 10.6 3.80002 12C4.90002 13.3 10.4 18.6 12 20C13.6 18.5 19.1 13.3 20.2 12C21.3 10.6 21.4 9.30005 21.4 8.20005C21.4 5.60005 19.4 3.50005 17 3.50005C14.6 3.50005 12.6 5.60005 12.6 8.20005H11.4C11.4 5.60005 9.40002 3.50005 7.00002 3.50005Z" fill="#1D2127"/>
</svg>
