<svg width="24" height="24" viewBox="0 0 24 24" fill="none" xmlns="http://www.w3.org/2000/svg">
<path d="M12 2C10.0222 2 8.08879 2.58649 6.4443 3.6853C4.79981 4.78412 3.51809 6.3459 2.76121 8.17317C2.00433 10.0004 1.8063 12.0111 2.19215 13.9509C2.578 15.8907 3.53041 17.6725 4.92894 19.0711C6.32746 20.4696 8.10929 21.422 10.0491 21.8079C11.9889 22.1937 13.9996 21.9957 15.8268 21.2388C17.6541 20.4819 19.2159 19.2002 20.3147 17.5557C21.4135 15.9112 22 13.9778 22 12C22 9.34784 20.9464 6.8043 19.0711 4.92893C17.1957 3.05357 14.6522 2 12 2ZM12 17.8333C11.7528 17.8333 11.5111 17.76 11.3055 17.6227C11.1 17.4853 10.9398 17.2901 10.8452 17.0617C10.7505 16.8333 10.7258 16.5819 10.774 16.3395C10.8223 16.097 10.9413 15.8743 11.1161 15.6994C11.2909 15.5246 11.5137 15.4056 11.7561 15.3574C11.9986 15.3091 12.25 15.3339 12.4784 15.4285C12.7068 15.5231 12.902 15.6833 13.0393 15.8889C13.1767 16.0944 13.25 16.3361 13.25 16.5833C13.25 16.9149 13.1183 17.2328 12.8839 17.4672C12.6495 17.7016 12.3315 17.8333 12 17.8333ZM13.3333 12.7667C13.1843 12.8317 13.0575 12.939 12.9687 13.0752C12.8798 13.2114 12.8328 13.3707 12.8333 13.5333C12.8333 13.7543 12.7455 13.9663 12.5893 14.1226C12.433 14.2789 12.221 14.3667 12 14.3667C11.779 14.3667 11.567 14.2789 11.4107 14.1226C11.2545 13.9663 11.1667 13.7543 11.1667 13.5333C11.1666 13.0468 11.3085 12.5709 11.5749 12.1638C11.8414 11.7567 12.2208 11.4363 12.6667 11.2417C12.9418 11.1216 13.1795 10.9294 13.3544 10.6854C13.5294 10.4414 13.6352 10.1547 13.6607 9.85552C13.6861 9.55637 13.6303 9.25589 13.4991 8.98584C13.3679 8.71578 13.1662 8.48619 12.9153 8.3213C12.6644 8.15642 12.3736 8.06238 12.0737 8.04911C11.7737 8.03584 11.4758 8.10384 11.2113 8.24592C10.9468 8.38801 10.7256 8.5989 10.571 8.85631C10.4165 9.11372 10.3344 9.4081 10.3333 9.70833C10.3333 9.92935 10.2455 10.1413 10.0893 10.2976C9.93298 10.4539 9.72102 10.5417 9.5 10.5417C9.27899 10.5417 9.06703 10.4539 8.91075 10.2976C8.75447 10.1413 8.66667 9.92935 8.66667 9.70833C8.66726 9.10751 8.83024 8.51801 9.13836 8.0022C9.44648 7.4864 9.88828 7.06346 10.417 6.77813C10.9458 6.49281 11.5418 6.3557 12.1421 6.38131C12.7424 6.40693 13.3246 6.59432 13.8271 6.92365C14.3296 7.25298 14.7338 7.71202 14.9969 8.2522C15.2599 8.79238 15.3721 9.39362 15.3215 9.99231C15.2709 10.591 15.0594 11.1649 14.7095 11.6533C14.3595 12.1416 13.884 12.5263 13.3333 12.7667Z" fill="#0A0B0D"/>
</svg>
