<svg width="24" height="24" viewBox="0 0 24 24" fill="none" xmlns="http://www.w3.org/2000/svg">
<path d="M6.30224 12.9127L7.31212 10.3933L9.0219 9.96337C9.43185 9.86339 9.8118 9.64344 10.1018 9.33352C10.3917 9.02359 10.6017 8.64368 10.6817 8.20379L10.9617 6.65416C11.0616 6.13428 10.9817 5.59441 10.7217 5.12453C10.4617 4.66464 10.0518 4.29472 9.55183 4.10477L5.62233 2.62513C6.79218 1.95529 8.11201 1.55538 9.46184 1.50539C10.9417 1.45541 12.4115 1.80532 13.7113 2.51515C14.2012 2.78509 14.6412 3.11501 15.0711 3.46492L13.8713 5.85435C13.7313 6.12429 13.6613 6.40422 13.6313 6.70415C13.6113 7.00408 13.6513 7.304 13.7413 7.57394L14.2912 9.23354C14.3912 9.54347 14.6912 9.74342 15.0011 9.74342C15.0811 9.74342 15.1611 9.73342 15.2411 9.70343C15.6311 9.57346 15.851 9.15356 15.721 8.75366L15.1611 7.10405C15.1311 7.01407 15.1211 6.9141 15.1211 6.81412C15.1311 6.71414 15.1511 6.62417 15.2011 6.53419L16.181 4.59465C16.421 4.89458 16.6509 5.2145 16.8509 5.55442C17.6008 6.82412 18.0008 8.27377 18.0008 9.75342C18.0008 10.1633 18.3307 10.5032 18.7507 10.5032C19.1606 10.5032 19.5006 10.1633 19.5006 9.75342C19.5006 8.00384 19.0306 6.28425 18.1407 4.77461C17.7108 4.04478 17.1809 3.38494 16.5809 2.79508C16.5709 2.78509 16.5709 2.78509 16.5609 2.77509C15.931 2.15524 15.2111 1.62537 14.4312 1.19547C12.9014 0.35567 11.1516 -0.0542319 9.41185 0.00575375C7.66207 0.075737 5.96229 0.60561 4.49247 1.54538C4.21251 1.72534 3.95254 1.92529 3.70257 2.13524C3.60259 2.17523 3.5226 2.23522 3.4526 2.3152C2.45273 3.165 1.63283 4.20475 1.04291 5.37447C0.253009 6.94409 -0.0969462 8.69367 0.0230386 10.4333C0.143023 12.1728 0.732949 13.8624 1.73282 15.3021C1.81281 15.4121 1.9028 15.512 1.99279 15.622C2.00279 15.652 2.01279 15.672 2.02279 15.702C2.04278 15.742 2.08278 15.752 2.11277 15.782C3.06265 16.9917 4.2825 17.9714 5.68232 18.6113C5.78231 18.6613 5.89229 18.6813 5.99228 18.6813C6.27225 18.6813 6.55221 18.5213 6.6722 18.2414C6.84217 17.8615 6.6822 17.4216 6.30224 17.2516C5.33237 16.8117 4.47247 16.1819 3.75257 15.4121L4.87242 14.6322C5.52234 14.2123 6.01228 13.6225 6.30224 12.9127ZM4.04253 13.3825L2.83268 14.2223C2.07278 13.0526 1.61284 11.7229 1.52285 10.3333C1.42286 8.85363 1.71282 7.37399 2.38274 6.0543C2.83268 5.15452 3.4526 4.36471 4.19251 3.68487L9.0219 5.51443C9.18188 5.58442 9.32186 5.70439 9.40185 5.85435C9.49184 6.01431 9.51184 6.19427 9.48184 6.38422L9.21187 7.92385C9.18188 8.06382 9.11189 8.19379 9.0119 8.29377C8.91191 8.39374 8.79193 8.47372 8.65194 8.50372L6.57221 9.02359C6.33224 9.08358 6.14226 9.25354 6.05227 9.47348L4.90242 12.3428C4.73244 12.7727 4.44248 13.1226 4.04253 13.3825Z" fill="#1D2127"/>
<path d="M21.7503 14.2523H19.5006V13.7525C19.5006 12.9526 19.1906 12.2028 18.6207 11.633C17.4908 10.5032 15.5111 10.5032 14.3812 11.633C13.8113 12.2028 13.5013 12.9526 13.5013 13.7525V14.2523H11.2516C10.0118 14.2523 9.0019 15.2621 9.0019 16.5018V21.7505C9.0019 22.9902 10.0118 24 11.2516 24H21.7503C22.9901 24 24 22.9902 24 21.7505V16.5018C24 15.2621 22.9901 14.2523 21.7503 14.2523ZM18.7507 22.5004H14.2512V15.752H18.7507V22.5004ZM15.0011 13.7525C15.0011 13.3526 15.1611 12.9726 15.4411 12.6927C16.011 12.1228 17.0009 12.1228 17.5608 12.6927C17.8408 12.9726 18.0008 13.3526 18.0008 13.7525V14.2523H15.0011V13.7525ZM10.5017 21.7505V16.5018C10.5017 16.0919 10.8417 15.752 11.2516 15.752H12.7514V22.5004H11.2516C10.8417 22.5004 10.5017 22.1604 10.5017 21.7505ZM22.5002 21.7505C22.5002 22.1604 22.1602 22.5004 21.7503 22.5004H20.2505V15.752H21.7503C22.1602 15.752 22.5002 16.0919 22.5002 16.5018V21.7505Z" fill="#1D2127"/>
</svg>
