<svg width="24" height="24" viewBox="0 0 24 24" fill="none" xmlns="http://www.w3.org/2000/svg">
<g clip-path="url(#clip0_2862_15892)">
<path d="M6.29999 12.91L7.30999 10.39L9.01999 9.96002C9.42999 9.86002 9.80999 9.64002 10.1 9.33002C10.39 9.02002 10.6 8.64002 10.68 8.20002L10.96 6.65002C11.06 6.13002 10.98 5.59002 10.72 5.12002C10.46 4.66002 10.05 4.29002 9.54999 4.10002L5.61999 2.62002C6.78999 1.95002 8.10999 1.55002 9.45999 1.50002C10.94 1.45002 12.41 1.80002 13.71 2.51002C14.2 2.78002 14.64 3.11002 15.07 3.46002L13.87 5.85002C13.73 6.12002 13.66 6.40002 13.63 6.70002C13.61 7.00002 13.65 7.30002 13.74 7.57002L14.29 9.23002C14.39 9.54002 14.69 9.74002 15 9.74002C15.08 9.74002 15.16 9.73002 15.24 9.70002C15.63 9.57002 15.85 9.15002 15.72 8.75002L15.16 7.10002C15.13 7.01002 15.12 6.91002 15.12 6.81002C15.13 6.71002 15.15 6.62002 15.2 6.53002L16.18 4.59002C16.42 4.89002 16.65 5.21002 16.85 5.55002C17.6 6.82002 18 8.27002 18 9.75002C18 10.16 18.33 10.5 18.75 10.5C19.16 10.5 19.5 10.16 19.5 9.75002C19.5 8.00002 19.03 6.28002 18.14 4.77002C17.71 4.04002 17.18 3.38002 16.58 2.79002C16.57 2.78002 16.57 2.78002 16.56 2.77002C15.93 2.15002 15.21 1.62002 14.43 1.19002C12.9 0.350018 11.15 -0.0599822 9.40999 1.78199e-05C7.65999 0.0700178 5.95999 0.600018 4.48999 1.54002C4.20999 1.72002 3.94999 1.92002 3.69999 2.13002C3.59999 2.17002 3.51999 2.23002 3.44999 2.31002C2.44999 3.16002 1.62999 4.20002 1.03999 5.37002C0.24999 6.94002 -0.10001 8.69002 0.0199898 10.43C0.13999 12.17 0.72999 13.86 1.72999 15.3C1.80999 15.41 1.89999 15.51 1.98999 15.62C1.99999 15.65 2.00999 15.67 2.01999 15.7C2.03999 15.74 2.07999 15.75 2.10999 15.78C3.05999 16.99 4.27999 17.97 5.67999 18.61C5.77999 18.66 5.88999 18.68 5.98999 18.68C6.26999 18.68 6.54999 18.52 6.66999 18.24C6.83999 17.86 6.67999 17.42 6.29999 17.25C5.32999 16.81 4.46999 16.18 3.74999 15.41L4.86999 14.63C5.51999 14.21 6.00999 13.62 6.29999 12.91ZM4.03999 13.38L2.82999 14.22C2.06999 13.05 1.60999 11.72 1.51999 10.33C1.41999 8.85002 1.70999 7.37002 2.37999 6.05002C2.82999 5.15002 3.44999 4.36002 4.18999 3.68002L9.01999 5.51002C9.17999 5.58002 9.31999 5.70002 9.39999 5.85002C9.48999 6.01002 9.50999 6.19002 9.47999 6.38002L9.20999 7.92002C9.17999 8.06002 9.10999 8.19002 9.00999 8.29002C8.90999 8.39002 8.78999 8.47002 8.64999 8.50002L6.56999 9.02002C6.32999 9.08002 6.13999 9.25002 6.04999 9.47002L4.89999 12.34C4.72999 12.77 4.43999 13.12 4.03999 13.38Z" fill="#171717"/>
<path d="M21.75 14.25H19.5V13.75C19.5 12.95 19.19 12.2 18.62 11.63C17.49 10.5 15.51 10.5 14.38 11.63C13.81 12.2 13.5 12.95 13.5 13.75V14.25H11.25C10.01 14.25 9 15.26 9 16.5V21.75C9 22.99 10.01 24 11.25 24H21.75C22.99 24 24 22.99 24 21.75V16.5C24 15.26 22.99 14.25 21.75 14.25ZM18.75 22.5H14.25V15.75H18.75V22.5ZM15 13.75C15 13.35 15.16 12.97 15.44 12.69C16.01 12.12 17 12.12 17.56 12.69C17.84 12.97 18 13.35 18 13.75V14.25H15V13.75ZM10.5 21.75V16.5C10.5 16.09 10.84 15.75 11.25 15.75H12.75V22.5H11.25C10.84 22.5 10.5 22.16 10.5 21.75ZM22.5 21.75C22.5 22.16 22.16 22.5 21.75 22.5H20.25V15.75H21.75C22.16 15.75 22.5 16.09 22.5 16.5V21.75Z" fill="#171717"/>
</g>
<defs>
<clipPath id="clip0_2862_15892">
<rect width="24" height="24" fill="white"/>
</clipPath>
</defs>
</svg>
