<svg width="25" height="24" viewBox="0 0 25 24" fill="none" xmlns="http://www.w3.org/2000/svg">
<path d="M6.30304 12.9127L7.31304 10.3933L9.02304 9.96337C9.43304 9.86339 9.81304 9.64344 10.103 9.33352C10.393 9.02359 10.603 8.64368 10.683 8.20379L10.963 6.65416C11.063 6.13428 10.983 5.59441 10.723 5.12453C10.463 4.66464 10.053 4.29472 9.55304 4.10477L5.62304 2.62513C6.79304 1.95529 8.11304 1.55538 9.46304 1.50539C10.943 1.45541 12.413 1.80532 13.713 2.51515C14.203 2.78509 14.643 3.11501 15.073 3.46492L13.873 5.85435C13.733 6.12429 13.663 6.40422 13.633 6.70415C13.613 7.00408 13.653 7.304 13.743 7.57394L14.293 9.23354C14.393 9.54347 14.693 9.74342 15.003 9.74342C15.083 9.74342 15.163 9.73342 15.243 9.70343C15.633 9.57346 15.853 9.15356 15.723 8.75366L15.163 7.10405C15.133 7.01407 15.123 6.9141 15.123 6.81412C15.133 6.71414 15.153 6.62417 15.203 6.53419L16.183 4.59465C16.423 4.89458 16.653 5.2145 16.853 5.55442C17.603 6.82412 18.003 8.27377 18.003 9.75342C18.003 10.1633 18.333 10.5032 18.753 10.5032C19.163 10.5032 19.503 10.1633 19.503 9.75342C19.503 8.00384 19.033 6.28425 18.143 4.77461C17.713 4.04478 17.183 3.38494 16.583 2.79508C16.573 2.78509 16.573 2.78509 16.563 2.77509C15.933 2.15524 15.213 1.62537 14.433 1.19547C12.903 0.35567 11.153 -0.0542319 9.41304 0.00575375C7.66304 0.075737 5.96304 0.60561 4.49304 1.54538C4.21304 1.72534 3.95304 1.92529 3.70304 2.13524C3.60304 2.17523 3.52304 2.23522 3.45304 2.3152C2.45304 3.165 1.63304 4.20475 1.04304 5.37447C0.253041 6.94409 -0.0969585 8.69367 0.0230415 10.4333C0.143042 12.1728 0.733042 13.8624 1.73304 15.3021C1.81304 15.4121 1.90304 15.512 1.99304 15.622C2.00304 15.652 2.01304 15.672 2.02304 15.702C2.04304 15.742 2.08304 15.752 2.11304 15.782C3.06304 16.9917 4.28304 17.9714 5.68304 18.6113C5.78304 18.6613 5.89304 18.6813 5.99304 18.6813C6.27304 18.6813 6.55304 18.5213 6.67304 18.2414C6.84304 17.8615 6.68304 17.4216 6.30304 17.2516C5.33304 16.8117 4.47304 16.1819 3.75304 15.4121L4.87304 14.6322C5.52304 14.2123 6.01304 13.6225 6.30304 12.9127ZM4.04304 13.3825L2.83304 14.2223C2.07304 13.0526 1.61304 11.7229 1.52304 10.3333C1.42304 8.85363 1.71304 7.37399 2.38304 6.0543C2.83304 5.15452 3.45304 4.36471 4.19304 3.68487L9.02304 5.51443C9.18304 5.58442 9.32304 5.70439 9.40304 5.85435C9.49304 6.01431 9.51304 6.19427 9.48304 6.38422L9.21304 7.92385C9.18304 8.06382 9.11304 8.19379 9.01304 8.29377C8.91304 8.39374 8.79304 8.47372 8.65304 8.50372L6.57304 9.02359C6.33304 9.08358 6.14304 9.25354 6.05304 9.47348L4.90304 12.3428C4.73304 12.7727 4.44304 13.1226 4.04304 13.3825Z" fill="#171717"/>
<path d="M21.753 14.2523H19.503V13.7525C19.503 12.9526 19.193 12.2028 18.623 11.633C17.493 10.5032 15.513 10.5032 14.383 11.633C13.813 12.2028 13.503 12.9526 13.503 13.7525V14.2523H11.253C10.013 14.2523 9.00304 15.2621 9.00304 16.5018V21.7505C9.00304 22.9902 10.013 24 11.253 24H21.753C22.993 24 24.003 22.9902 24.003 21.7505V16.5018C24.003 15.2621 22.993 14.2523 21.753 14.2523ZM18.753 22.5004H14.253V15.752H18.753V22.5004ZM15.003 13.7525C15.003 13.3526 15.163 12.9726 15.443 12.6927C16.013 12.1228 17.003 12.1228 17.563 12.6927C17.843 12.9726 18.003 13.3526 18.003 13.7525V14.2523H15.003V13.7525ZM10.503 21.7505V16.5018C10.503 16.0919 10.843 15.752 11.253 15.752H12.753V22.5004H11.253C10.843 22.5004 10.503 22.1604 10.503 21.7505ZM22.503 21.7505C22.503 22.1604 22.163 22.5004 21.753 22.5004H20.253V15.752H21.753C22.163 15.752 22.503 16.0919 22.503 16.5018V21.7505Z" fill="#171717"/>
</svg>
