<svg width="24" height="24" viewBox="0 0 24 24" fill="none" xmlns="http://www.w3.org/2000/svg">
<path fill-rule="evenodd" clip-rule="evenodd" d="M11.4908 1.31589C11.8245 1.22804 12.1753 1.22804 12.5091 1.31589C12.8963 1.41782 13.2249 1.66653 13.4869 1.8649C13.5119 1.88378 13.5362 1.9022 13.5599 1.92L14.1668 2.37517C14.2432 2.4319 14.3206 2.49009 14.3993 2.5493C14.438 2.57848 14.4772 2.60791 14.5166 2.63752C14.5177 2.63835 14.5188 2.63917 14.5199 2.64L20.5999 7.2C20.5999 7.19995 20.6 7.20005 20.5999 7.2L22.5999 8.7C23.0418 9.03137 23.1313 9.65817 22.7999 10.1C22.4686 10.5418 21.8418 10.6314 21.3999 10.3L20.9999 10V17.8386C21 18.3657 21 18.8205 20.9694 19.195C20.9371 19.5904 20.8658 19.9836 20.673 20.362C20.3853 20.9265 19.9264 21.3854 19.3619 21.673C18.9835 21.8658 18.5903 21.9371 18.195 21.9694C17.8204 22 17.3656 22 16.8385 22H7.16137C6.63423 22 6.17948 22 5.80491 21.9694C5.40957 21.9371 5.01635 21.8658 4.63797 21.673C4.07348 21.3854 3.61454 20.9265 3.32692 20.362C3.13413 19.9836 3.06281 19.5904 3.03051 19.195C2.99991 18.8205 2.99992 18.3657 2.99994 17.8385L2.99994 10L2.59994 10.3C2.15811 10.6314 1.53131 10.5418 1.19994 10.1C0.868566 9.65817 0.958109 9.03137 1.39994 8.7L9.47994 2.64C9.48161 2.63875 9.48328 2.6375 9.48494 2.63625C9.52385 2.60706 9.56239 2.57806 9.60061 2.5493C9.67929 2.49011 9.75662 2.43192 9.833 2.3752L10.4399 1.92C10.4637 1.9022 10.488 1.88378 10.5129 1.8649C10.775 1.66653 11.1036 1.41782 11.4908 1.31589ZM4.99994 8.5V17.8C4.99994 18.3766 5.00072 18.7488 5.02387 19.0322C5.04606 19.3038 5.08374 19.4045 5.10893 19.454C5.20481 19.6422 5.35779 19.7951 5.54595 19.891C5.59539 19.9162 5.69611 19.9539 5.96778 19.9761C6.25111 19.9992 6.62339 20 7.19994 20H7.99994L7.99994 13.5681C7.99991 13.3157 7.99988 13.0699 8.01689 12.8618C8.03556 12.6332 8.07963 12.3634 8.21793 12.092C8.40967 11.7157 8.71563 11.4097 9.09196 11.218C9.36338 11.0797 9.63312 11.0356 9.86171 11.0169C10.0699 10.9999 10.3157 11 10.5681 11H13.4318C13.6842 11 13.93 10.9999 14.1382 11.0169C14.3668 11.0356 14.6365 11.0797 14.9079 11.218C15.2842 11.4097 15.5902 11.7157 15.782 12.092C15.9203 12.3634 15.9643 12.6332 15.983 12.8618C16 13.0699 16 13.3157 15.9999 13.5681L15.9999 20H16.7999C17.3765 20 17.7488 19.9992 18.0321 19.9761C18.3038 19.9539 18.4045 19.9162 18.4539 19.891C18.6421 19.7951 18.7951 19.6422 18.8909 19.454C18.9161 19.4045 18.9538 19.3038 18.976 19.0322C18.9992 18.7488 18.9999 18.3766 18.9999 17.8V8.5L13.3199 4.24C12.5602 3.67022 12.3976 3.57061 12.2545 3.53295C12.0876 3.48902 11.9122 3.48902 11.7454 3.53295C11.6023 3.57061 11.4397 3.67022 10.6799 4.24L4.99994 8.5ZM13.9999 20V13.6C13.9999 13.3035 13.9992 13.1412 13.9896 13.0246C13.9893 13.02 13.9889 13.0156 13.9885 13.0114C13.9843 13.0111 13.9799 13.0107 13.9753 13.0103C13.8587 13.0008 13.6965 13 13.3999 13H10.5999C10.3034 13 10.1412 13.0008 10.0246 13.0103C10.0199 13.0107 10.0155 13.0111 10.0114 13.0114C10.011 13.0156 10.0106 13.02 10.0102 13.0246C10.0007 13.1412 9.99994 13.3035 9.99994 13.6V20H13.9999Z" fill="#0A0B0D"/>
</svg>
