<svg width="24" height="24" viewBox="0 0 24 24" fill="none" xmlns="http://www.w3.org/2000/svg">
<path opacity="0.2" d="M2.29995 8.89999L9.79995 14.8C11 15.8 12.8 15.8 14 14.8L21.5 8.89999C21.7 9.19999 21.9 9.59999 22 10.1C22.2 11.5 22.2999 12.9 22.2999 14.8C22.2999 16.8 22.2 18.2 22 19.5C21.7999 20.9 20.5999 21.9 19.2999 22C16.9 22.3 14.5 22.5 12 22.5C9.49995 22.5 6.99995 22.3 4.69995 22C3.29995 21.8 2.19995 20.8 1.99995 19.5C1.79995 18.1 1.69995 16.7 1.69995 14.8C1.69995 12.8 1.79995 11.4 1.99995 10.1C1.89995 9.59999 2.09995 9.19999 2.29995 8.89999Z" fill="#101C2D"/>
<path d="M11.8999 16.4C10.9999 16.4 9.9999 16.1 9.1999 15.5L2.8999 10.5V10.1C2.8999 8.4 2.8999 6.6 3.0999 4.8C3.0999 2.7 4.7999 1 6.8999 0.9C10.2999 0.7 13.4999 0.7 16.8999 0.9C18.9999 1 20.5999 2.7 20.7999 4.8C20.8999 6.6 20.9999 8.3 20.9999 10.1V10.5L14.5999 15.5C13.6999 16.1 12.7999 16.4 11.8999 16.4ZM4.5999 9.6L10.2999 14.1C11.1999 14.8 12.4999 14.8 13.4999 14.1L19.1999 9.6C19.1999 8 19.0999 6.5 19.0999 4.9C18.9999 3.7 18.0999 2.7 16.7999 2.6C13.4999 2.4 10.2999 2.4 6.9999 2.6C5.7999 2.7 4.7999 3.6 4.6999 4.9C4.5999 6.5 4.5999 8 4.5999 9.6Z" fill="#101C2D"/>
<path d="M14.4 11.1H9.4C8.9 11.1 8.5 10.7 8.5 10.2C8.5 9.69999 9 9.39999 9.4 9.39999H14.3C14.8 9.39999 15.2 9.79999 15.2 10.3C15.2 10.8 14.8 11.1 14.4 11.1Z" fill="#101C2D"/>
<path d="M14.4 6.99999H9.39997C8.99998 6.99999 8.59998 6.59999 8.59998 6.19999C8.59998 5.79999 8.99998 5.29999 9.39997 5.29999H14.3C14.8 5.29999 15.2 5.69999 15.2 6.19999C15.2 6.69999 14.8 6.99999 14.4 6.99999Z" fill="#101C2D"/>
<path d="M11.9 23.4C9.69995 23.4 7.29995 23.2 4.49995 22.9C2.69995 22.7 1.29995 21.4 0.999951 19.7C0.799951 18.2 0.699951 16.8 0.699951 14.8C0.699951 12.8 0.799951 11.4 0.999951 9.9C1.09995 9.4 1.29995 8.9 1.59995 8.4C1.69995 8.2 1.89995 8.1 2.19995 8C2.39995 8 2.69995 8 2.89995 8.2L10.4 14.1C11.3 14.8 12.6 14.8 13.6 14.1L21 8.2C21.2 8.1 21.4 8 21.7 8C21.9 8 22.0999 8.2 22.2999 8.4C22.5999 8.9 22.7999 9.4 22.9 9.9C23.1 11.3 23.2 12.8 23.2 14.8C23.2 16.8 23.1 18.2 22.9 19.7C22.6 21.4 21.1999 22.7 19.4 22.9C16.5 23.2 14.1 23.4 11.9 23.4ZM2.69995 10.3C2.49995 11.6 2.39995 13 2.39995 14.8C2.39995 16.7 2.49995 18 2.69995 19.4C2.89995 20.3 3.69995 21.1 4.69995 21.2C7.49995 21.5 9.79995 21.7 11.9 21.7C14.1 21.7 16.4 21.6 19.1 21.2C20.1 21.1 20.9 20.3 21.1 19.4C21.3 18 21.4 16.7 21.4 14.8C21.4 13 21.3 11.6 21.1 10.3L14.5 15.5C12.9 16.7 10.7999 16.7 9.1999 15.5L2.69995 10.3Z" fill="#101C2D"/>
</svg>
