<svg width="24" height="24" viewBox="0 0 24 24" fill="none" xmlns="http://www.w3.org/2000/svg">
<path opacity="0.2" d="M12 2C9.16667 3.83333 3.4 7.6 3 8L12.5 14L21.5 8L12 2Z" fill="#101C2D"/>
<path fill-rule="evenodd" clip-rule="evenodd" d="M11.3145 0.964753C11.7654 0.858917 12.2347 0.858917 12.6856 0.964753C13.2007 1.08565 13.6585 1.38414 14.1794 1.72374C14.2156 1.74736 14.2522 1.77117 14.289 1.79514L20.515 5.84202C20.5371 5.85637 20.5591 5.87065 20.5809 5.88484L21.817 6.68835C21.8352 6.70013 21.8538 6.71218 21.873 6.72453C22.0788 6.85728 22.3376 7.0243 22.5348 7.26024C22.7054 7.4644 22.8335 7.70055 22.9117 7.95485C23.0021 8.24874 23.0011 8.55681 23.0002 8.80168C23.0002 8.82446 23.0001 8.84668 23.0001 8.8683V16.2413C23.0001 17.0463 23.0001 17.7106 22.9559 18.2518C22.91 18.8139 22.8114 19.3306 22.5641 19.816C22.1806 20.5686 21.5687 21.1805 20.816 21.564C20.3307 21.8113 19.814 21.9099 19.2519 21.9558C18.7107 22 18.0464 22 17.2414 22H6.75875C5.95379 22 5.28944 22 4.74825 21.9558C4.18615 21.9099 3.66945 21.8113 3.18411 21.564C2.43146 21.1805 1.81954 20.5686 1.43605 19.816C1.18876 19.3306 1.09019 18.8139 1.04427 18.2518C1.00005 17.7106 1.00006 17.0463 1.00007 16.2413L1.00007 8.8683C1.00007 8.84668 0.999998 8.82445 0.999921 8.80168C0.999088 8.5568 0.998041 8.24874 1.08841 7.95485C1.16661 7.70054 1.29477 7.4644 1.46537 7.26024C1.66253 7.0243 1.92139 6.85728 2.12716 6.72453C2.1463 6.71218 2.16498 6.70013 2.1831 6.68835L3.41849 5.88535C3.44057 5.87099 3.4628 5.85654 3.48514 5.84202C3.49638 5.83472 3.50765 5.82739 3.51895 5.82005L9.71112 1.79514C9.74799 1.77117 9.78451 1.74736 9.82073 1.72375C10.3416 1.38414 10.7995 1.08565 11.3145 0.964753ZM10.8011 3.47202L4.60892 7.49694C4.2488 7.73102 4.03666 7.87008 3.89408 7.98242C3.8862 7.98863 3.87889 7.99449 3.87212 8C3.87889 8.00552 3.8862 8.01138 3.89408 8.01759C4.03666 8.12992 4.2488 8.26899 4.60892 8.50307L10.8011 12.528C11.4965 12.98 11.6423 13.0578 11.7716 13.0882C11.9219 13.1235 12.0783 13.1235 12.2286 13.0882C12.3578 13.0578 12.5037 12.98 13.199 12.528L19.3912 8.50307C19.7513 8.26899 19.9635 8.12992 20.1061 8.01759C20.114 8.01138 20.1213 8.00551 20.128 8C20.1213 7.99449 20.114 7.98863 20.1061 7.98242C19.9649 7.87123 19.7557 7.73385 19.4022 7.50408C19.3986 7.50171 19.3949 7.49933 19.3912 7.49694L13.199 3.47202C12.5037 3.02004 12.3578 2.94218 12.2286 2.91184C12.0783 2.87656 11.9219 2.87656 11.7716 2.91184C11.6423 2.94218 11.4965 3.02004 10.8011 3.47202ZM21.0001 9.83781C20.8501 9.94019 20.6861 10.0468 20.515 10.158L16.2627 12.922L20.9965 17.1976C20.9999 16.9115 21.0001 16.5832 21.0001 16.2V9.83781ZM20.439 19.3891L14.5276 14.0498L14.289 14.2049C14.2522 14.2288 14.2156 14.2526 14.1794 14.2762C13.6585 14.6159 13.2007 14.9144 12.6856 15.0353C12.2347 15.1411 11.7654 15.1411 11.3145 15.0353C10.7995 14.9144 10.3416 14.6159 9.82072 14.2763C9.78451 14.2526 9.74799 14.2288 9.71112 14.2049L9.47254 14.0498L3.56118 19.3891C3.71422 19.5476 3.89334 19.6807 4.09209 19.782C4.24849 19.8617 4.4727 19.9266 4.91111 19.9625C5.3612 19.9992 5.94349 20 6.80007 20H17.2001C18.0567 20 18.6389 19.9992 19.089 19.9625C19.5275 19.9266 19.7517 19.8617 19.9081 19.782C20.1068 19.6807 20.2859 19.5476 20.439 19.3891ZM3.00369 17.1976L7.73741 12.922L3.48511 10.158C3.31402 10.0468 3.15 9.94019 3.00007 9.83781V16.2C3.00007 16.5832 3.00023 16.9115 3.00369 17.1976Z" fill="#101C2D"/>
</svg>
