<svg width="24" height="24" viewBox="0 0 24 24" fill="none" xmlns="http://www.w3.org/2000/svg">
<path opacity="0.2" d="M2.29035 8.88556L9.75113 14.7857C10.9942 15.7688 12.7491 15.7717 13.9955 14.7928L21.503 8.89682C21.7305 9.2357 21.8895 9.62433 21.9588 10.048C22.1823 11.4153 22.2857 12.8299 22.2857 14.7847C22.2857 16.7394 22.1823 18.1541 21.9588 19.5216C21.7371 20.8771 20.5966 21.8743 19.2319 22.0298C16.8696 22.2987 14.4152 22.5003 11.8929 22.5003C9.37054 22.5003 6.91613 22.2987 4.55379 22.0298C3.18902 21.8743 2.04861 20.8771 1.82698 19.5216C1.60344 18.1541 1.5 16.7394 1.5 14.7847C1.5 12.8299 1.60344 11.4153 1.82698 10.048C1.89701 9.61963 2.05877 9.22708 2.29035 8.88556Z" fill="#1D2127"/>
<path d="M3.73164 10.0253L2.8745 10.0282L2.87592 10.4413L3.19996 10.6976L3.73164 10.0253ZM13.9956 14.7928L14.525 15.4669L14.525 15.4669L13.9956 14.7928ZM20.0542 10.0347L20.5836 10.7088L20.9099 10.4526L20.9114 10.0377L20.0542 10.0347ZM19.9058 4.82809L20.7614 4.77698V4.77697L19.9058 4.82809ZM16.8392 1.76258L16.7882 2.61821L16.7882 2.61821L16.8392 1.76258ZM6.94668 1.76258L6.99774 2.61821H6.99774L6.94668 1.76258ZM3.88018 4.82809L3.02457 4.77695L3.02457 4.77696L3.88018 4.82809ZM9.42396 9.42861C8.95057 9.42861 8.56682 9.81237 8.56682 10.2858C8.56682 10.7591 8.95057 11.1429 9.42396 11.1429V9.42861ZM14.3619 11.1429C14.8353 11.1429 15.2191 10.7591 15.2191 10.2858C15.2191 9.81237 14.8353 9.42861 14.3619 9.42861V11.1429ZM9.42396 5.31364C8.95057 5.31364 8.56682 5.6974 8.56682 6.17078C8.56682 6.64417 8.95057 7.02793 9.42396 7.02793V5.31364ZM14.3619 7.02793C14.8353 7.02793 15.2191 6.64417 15.2191 6.17078C15.2191 5.6974 14.8353 5.31364 14.3619 5.31364V7.02793ZM2.29035 8.88556L2.82203 8.21324C2.63517 8.06547 2.39525 8.00213 2.1598 8.03842C1.92436 8.0747 1.71463 8.20734 1.58093 8.40451L2.29035 8.88556ZM21.503 8.89682L22.2146 8.41909C22.0818 8.22114 21.8724 8.08747 21.6369 8.05021C21.4014 8.01295 21.1611 8.07546 20.9736 8.22272L21.503 8.89682ZM21.9588 10.048L21.1129 10.1863V10.1863L21.9588 10.048ZM21.9588 19.5216L22.8047 19.6599L22.8047 19.6599L21.9588 19.5216ZM19.2319 22.0298L19.3289 22.8814L19.3289 22.8814L19.2319 22.0298ZM4.55379 22.0298L4.45677 22.8814L4.45683 22.8814L4.55379 22.0298ZM1.82698 19.5216L0.981068 19.6599L0.981072 19.6599L1.82698 19.5216ZM1.82698 10.048L2.67289 10.1863L2.67289 10.1863L1.82698 10.048ZM3.19996 10.6976L9.21955 15.458L10.2829 14.1134L4.26332 9.35295L3.19996 10.6976ZM9.21956 15.458C10.7734 16.6868 12.967 16.6905 14.525 15.4669L13.4662 14.1187C12.5314 14.8529 11.2152 14.8507 10.2829 14.1134L9.21956 15.458ZM14.525 15.4669L20.5836 10.7088L19.5248 9.36056L13.4662 14.1187L14.525 15.4669ZM20.9114 10.0377C20.9176 8.29431 20.8675 6.55361 20.7614 4.77698L19.0502 4.8792C19.1542 6.62096 19.2032 8.3255 19.1971 10.0316L20.9114 10.0377ZM20.7614 4.77697C20.6368 2.69062 18.9761 1.03144 16.8903 0.906964L16.7882 2.61821C18.0082 2.69101 18.9773 3.65976 19.0502 4.8792L20.7614 4.77697ZM16.8903 0.906964C13.5109 0.705294 10.275 0.705294 6.89562 0.906964L6.99774 2.61821C10.3091 2.42059 13.4768 2.42059 16.7882 2.61821L16.8903 0.906964ZM6.89562 0.906964C4.80979 1.03144 3.14927 2.69065 3.02457 4.77695L4.7358 4.87923C4.80869 3.65973 5.77774 2.69101 6.99774 2.61821L6.89562 0.906964ZM3.02457 4.77696C2.91859 6.5504 2.86852 8.288 2.8745 10.0282L4.58878 10.0223C4.58293 8.31933 4.63191 6.6178 4.7358 4.87922L3.02457 4.77696ZM9.42396 11.1429H14.3619V9.42861H9.42396V11.1429ZM9.42396 7.02793H14.3619V5.31364H9.42396V7.02793ZM1.75868 9.55788L9.21956 15.458L10.2829 14.1134L2.82203 8.21324L1.75868 9.55788ZM14.525 15.4669L22.0324 9.57093L20.9736 8.22272L13.4662 14.1187L14.525 15.4669ZM20.7913 9.37456C20.9524 9.6145 21.0641 9.88791 21.1129 10.1863L22.8047 9.90968C22.715 9.36076 22.5085 8.85691 22.2146 8.41909L20.7913 9.37456ZM21.1129 10.1863C21.327 11.4961 21.4286 12.8626 21.4286 14.7847H23.1429C23.1429 12.7973 23.0377 11.3345 22.8047 9.90967L21.1129 10.1863ZM21.4286 14.7847C21.4286 16.7068 21.327 18.0733 21.1129 19.3833L22.8047 19.6599C23.0377 18.2349 23.1429 16.7721 23.1429 14.7847H21.4286ZM21.1129 19.3833C20.9588 20.3258 20.1543 21.062 19.1349 21.1781L19.3289 22.8814C21.039 22.6866 22.5155 21.4284 22.8047 19.6599L21.1129 19.3833ZM19.1349 21.1781C16.7899 21.4451 14.3706 21.6432 11.8929 21.6432V23.3575C14.4597 23.3575 16.9492 23.1524 19.3289 22.8814L19.1349 21.1781ZM11.8929 21.6432C9.41508 21.6432 6.99578 21.4451 4.65076 21.1781L4.45683 22.8814C6.83648 23.1524 9.326 23.3575 11.8929 23.3575V21.6432ZM4.65082 21.1781C3.63138 21.062 2.827 20.3258 2.67289 19.3833L0.981072 19.6599C1.27021 21.4284 2.74665 22.6866 4.45677 22.8814L4.65082 21.1781ZM2.6729 19.3833C2.45875 18.0733 2.35714 16.7068 2.35714 14.7847H0.642857C0.642857 16.7721 0.748129 18.2349 0.981068 19.6599L2.6729 19.3833ZM2.35714 14.7847C2.35714 12.8626 2.45875 11.4961 2.67289 10.1863L0.981071 9.90967C0.748125 11.3345 0.642857 12.7973 0.642857 14.7847H2.35714ZM2.67289 10.1863C2.72223 9.88451 2.83586 9.60835 2.99978 9.36662L1.58093 8.40451C1.28169 8.84581 1.07179 9.35477 0.981071 9.90967L2.67289 10.1863Z" fill="#1D2127"/>
</svg>
