<svg width="24" height="24" viewBox="0 0 24 24" fill="none" xmlns="http://www.w3.org/2000/svg">
<path d="M14.2 17.15C14.6142 17.15 14.95 16.8142 14.95 16.4C14.95 15.9858 14.6142 15.65 14.2 15.65V17.15ZM11.7852 10.7482L11.2547 11.2783L11.255 11.2787L11.7852 10.7482ZM10.5333 9.78333C10.1191 9.78333 9.78333 10.1191 9.78333 10.5333C9.78333 10.9475 10.1191 11.2833 10.5333 11.2833V9.78333ZM14.2 15.65H13.4667V17.15H14.2V15.65ZM13.4667 15.65C13.2765 15.65 13.0942 15.5745 12.9599 15.4401L11.8992 16.5008C12.315 16.9165 12.8789 17.15 13.4667 17.15V15.65ZM12.9599 15.4401C12.8255 15.3058 12.75 15.1235 12.75 14.9333H11.25C11.25 15.5211 11.4835 16.085 11.8992 16.5008L12.9599 15.4401ZM12.75 14.9333V11.2667H11.25V14.9333H12.75ZM12.75 11.2667C12.75 10.8734 12.5938 10.4959 12.3153 10.2176L11.255 11.2787C11.2517 11.2754 11.25 11.271 11.25 11.2667H12.75ZM12.3157 10.218C12.0374 9.93954 11.66 9.78333 11.2667 9.78333V11.2833C11.2623 11.2833 11.258 11.2816 11.2547 11.2783L12.3157 10.218ZM11.2667 9.78333H10.5333V11.2833H11.2667V9.78333ZM11.6333 6.85C11.845 6.85 12.0167 7.02161 12.0167 7.23333H10.5167C10.5167 7.85007 11.0166 8.35 11.6333 8.35V6.85ZM12.0167 7.23333C12.0167 7.44505 11.845 7.61667 11.6333 7.61667V6.11667C11.0166 6.11667 10.5167 6.6166 10.5167 7.23333H12.0167ZM11.6333 8.35C12.25 8.35 12.75 7.85007 12.75 7.23333H11.25C11.25 7.02161 11.4216 6.85 11.6333 6.85V8.35ZM12.75 7.23333C12.75 6.6166 12.25 6.11667 11.6333 6.11667V7.61667C11.4216 7.61667 11.25 7.44505 11.25 7.23333H12.75ZM12 23.75C18.4893 23.75 23.75 18.4893 23.75 12H22.25C22.25 17.6609 17.6609 22.25 12 22.25V23.75ZM23.75 12C23.75 5.51066 18.4893 0.25 12 0.25V1.75C17.6609 1.75 22.25 6.33908 22.25 12H23.75ZM12 0.25C5.51066 0.25 0.25 5.51066 0.25 12H1.75C1.75 6.33908 6.33908 1.75 12 1.75V0.25ZM0.25 12C0.25 18.4893 5.51066 23.75 12 23.75V22.25C6.33908 22.25 1.75 17.6609 1.75 12H0.25Z" fill="#171717"/>
</svg>
