<svg width="24" height="24" viewBox="0 0 24 24" fill="none" xmlns="http://www.w3.org/2000/svg">
<g clip-path="url(#clip0_2706_7638)">
<path d="M14.25 17.25C14.6642 17.25 15 16.9142 15 16.5C15 16.0858 14.6642 15.75 14.25 15.75V17.25ZM11.7803 10.7197L11.2498 11.2498L11.2502 11.2502L11.7803 10.7197ZM10.5 9.75C10.0858 9.75 9.75 10.0858 9.75 10.5C9.75 10.9142 10.0858 11.25 10.5 11.25V9.75ZM14.25 15.75H13.5V17.25H14.25V15.75ZM13.5 15.75C13.301 15.75 13.1102 15.671 12.9696 15.5304L11.909 16.591C12.331 17.013 12.9034 17.25 13.5 17.25V15.75ZM12.9696 15.5304C12.829 15.3898 12.75 15.199 12.75 15H11.25C11.25 15.5966 11.487 16.169 11.909 16.591L12.9696 15.5304ZM12.75 15V11.25H11.25V15H12.75ZM12.75 11.25C12.75 10.8523 12.592 10.4706 12.3104 10.1892L11.2502 11.2502L11.25 11.25H12.75ZM12.3108 10.1896C12.0294 9.90796 11.6477 9.75 11.25 9.75V11.25L11.2498 11.2498L12.3108 10.1896ZM11.25 9.75H10.5V11.25H11.25V9.75ZM11.625 6.75C11.8321 6.75 12 6.91788 12 7.125H10.5C10.5 7.74634 11.0037 8.25 11.625 8.25V6.75ZM12 7.125C12 7.33212 11.8321 7.5 11.625 7.5V6C11.0037 6 10.5 6.50366 10.5 7.125H12ZM11.625 8.25C12.2463 8.25 12.75 7.74634 12.75 7.125H11.25C11.25 6.91788 11.4179 6.75 11.625 6.75V8.25ZM12.75 7.125C12.75 6.50366 12.2463 6 11.625 6V7.5C11.4179 7.5 11.25 7.33212 11.25 7.125H12.75ZM12 24C18.6274 24 24 18.6274 24 12H22.5C22.5 17.799 17.799 22.5 12 22.5V24ZM24 12C24 5.37259 18.6274 0 12 0V1.5C17.799 1.5 22.5 6.20101 22.5 12H24ZM12 0C5.37259 0 0 5.37259 0 12H1.5C1.5 6.20101 6.20101 1.5 12 1.5V0ZM0 12C0 18.6274 5.37259 24 12 24V22.5C6.20101 22.5 1.5 17.799 1.5 12H0Z" fill="#171717"/>
</g>
<defs>
<clipPath id="clip0_2706_7638">
<rect width="24" height="24" fill="white"/>
</clipPath>
</defs>
</svg>
