<svg width="24" height="24" viewBox="0 0 24 24" fill="none" xmlns="http://www.w3.org/2000/svg">
<path fill-rule="evenodd" clip-rule="evenodd" d="M12.01 17C11.4577 17 11.01 16.5523 11.01 16L11.01 12C11.01 11.4477 11.4577 11 12.01 11C12.5623 11 13.01 11.4477 13.01 12L13.01 16C13.01 16.5523 12.5623 17 12.01 17ZM13.01 8C13.01 8.55229 12.5623 9 12.01 9H12C11.4477 9 11 8.55229 11 8C11 7.44771 11.4477 7 12 7H12.01C12.5623 7 13.01 7.44771 13.01 8Z" fill="#101C2D"/>
<path fill-rule="evenodd" clip-rule="evenodd" d="M12 19.8C16.3078 19.8 19.8 16.3078 19.8 12C19.8 7.69218 16.3078 4.2 12 4.2C7.69218 4.2 4.2 7.69218 4.2 12C4.2 16.3078 7.69218 19.8 12 19.8ZM12 22C17.5228 22 22 17.5228 22 12C22 6.47715 17.5228 2 12 2C6.47715 2 2 6.47715 2 12C2 17.5228 6.47715 22 12 22Z" fill="#101C2D"/>
</svg>
