<svg width="24" height="24" viewBox="0 0 24 24" fill="none" xmlns="http://www.w3.org/2000/svg">
<path fill-rule="evenodd" clip-rule="evenodd" d="M11.7732 2.0203C9.23103 2.13587 6.8314 3.20084 5.01068 5.02159C3.75767 6.27457 2.86484 7.78985 2.38207 9.48275C1.87264 11.2691 1.87264 13.3168 2.38207 15.1031C2.86484 16.796 3.75767 18.3113 5.01068 19.5642C6.26635 20.8199 7.75555 21.6971 9.47184 22.1921C11.2398 22.702 13.3243 22.702 15.0922 22.1921C16.7998 21.6997 18.2865 20.8251 19.5412 19.5749C21.6066 17.517 22.6811 14.7579 22.5543 11.8378C22.5028 10.6532 22.2864 9.63415 21.845 8.49792C21.1478 6.70329 19.8576 5.05923 18.244 3.90929C16.8471 2.91379 15.258 2.2964 13.547 2.08452C13.2362 2.04602 12.3847 1.99289 12.205 2.00079C12.1687 2.00237 11.9744 2.01115 11.7732 2.0203ZM11.633 4.03544C9.53115 4.20572 7.57597 5.16197 6.17509 6.70485C5.87781 7.03225 5.72526 7.22119 5.49109 7.55192C4.82005 8.49968 4.31211 9.73289 4.12282 10.8739C4.02844 11.4428 4.02116 11.5443 4.02116 12.2929C4.02116 13.0416 4.02844 13.143 4.12282 13.7119C4.31211 14.8529 4.82005 16.0862 5.49109 17.0339C6.31449 18.1969 7.38256 19.1135 8.61901 19.7182C9.42522 20.1125 10.2209 20.3616 11.072 20.4861C11.8092 20.594 12.7548 20.594 13.492 20.4861C16.1691 20.0944 18.522 18.3794 19.7073 15.9559C20.1746 15.0004 20.44 14.0544 20.5313 13.0189C20.5795 12.4722 20.5551 11.6288 20.4752 11.0829C20.0834 8.40578 18.3685 6.05292 15.945 4.86765C14.9895 4.40035 14.0435 4.13492 13.008 4.0436C12.779 4.0234 11.8496 4.0179 11.633 4.03544ZM12.0101 6.67304C11.6227 6.75002 11.2515 7.03258 11.0722 7.38692C10.8039 7.91707 10.8988 8.53199 11.3136 8.95101C11.5877 9.22792 11.9114 9.36692 12.282 9.36692C12.6527 9.36692 12.9763 9.22792 13.2504 8.95101C13.4491 8.75026 13.5594 8.5435 13.6145 8.26832C13.7613 7.53515 13.2735 6.81254 12.5367 6.67156C12.333 6.63258 12.212 6.63291 12.0101 6.67304ZM10.5935 10.6109C10.4281 10.6555 10.3115 10.7203 10.1862 10.8375C9.95793 11.0509 9.85959 11.2733 9.86012 11.575C9.86067 11.8845 9.95238 12.0967 10.1778 12.3099C10.3968 12.5171 10.5831 12.5789 10.988 12.5789H11.27V14.0749V15.5709L10.6595 15.5712C10.1926 15.5715 10.0158 15.5794 9.90792 15.6048C9.36307 15.7333 9.02878 16.2913 9.16993 16.8368C9.24038 17.109 9.45875 17.3652 9.73001 17.494L9.87301 17.5619L11.0775 17.5729C11.74 17.579 12.824 17.579 13.4865 17.5729L14.691 17.5619L14.8412 17.4908C15.0286 17.402 15.2411 17.1952 15.3276 17.0173C15.604 16.4494 15.2715 15.7499 14.6561 15.6048C14.5482 15.5794 14.3715 15.5715 13.9045 15.5712L13.294 15.5709L13.2933 13.5854C13.293 12.4748 13.2835 11.5296 13.2719 11.4403C13.2447 11.231 13.1643 11.0665 13.0071 10.8984C12.8631 10.7445 12.7246 10.6602 12.5342 10.6106C12.3528 10.5634 10.7692 10.5636 10.5935 10.6109Z" fill="#0A0B0D"/>
</svg>
