<svg width="24" height="24" viewBox="0 0 24 24" fill="none" xmlns="http://www.w3.org/2000/svg">
<g clip-path="url(#clip0_2862_16091)">
<path d="M12 3C12.41 3 12.75 2.66 12.75 2.25V0.75C12.75 0.34 12.41 0 12 0C11.59 0 11.25 0.34 11.25 0.75V2.25C11.25 2.66 11.59 3 12 3Z" fill="#171717"/>
<path d="M3 10.5H1.5C1.09 10.5 0.75 10.84 0.75 11.25C0.75 11.66 1.09 12 1.5 12H3C3.41 12 3.75 11.66 3.75 11.25C3.75 10.84 3.41 10.5 3 10.5Z" fill="#171717"/>
<path d="M5.39 5.33C5.68 5.03 5.67 4.56 5.37 4.27L4.27 3.21C3.97 2.92 3.5 2.93 3.21 3.23C2.92 3.53 2.93 4 3.23 4.29L4.33 5.35C4.48 5.49 4.66 5.56 4.85 5.56C5.05 5.56 5.24 5.48 5.39 5.33Z" fill="#171717"/>
<path d="M22.5 10.5H21C20.59 10.5 20.25 10.84 20.25 11.25C20.25 11.66 20.59 12 21 12H22.5C22.91 12 23.25 11.66 23.25 11.25C23.25 10.84 22.91 10.5 22.5 10.5Z" fill="#171717"/>
<path d="M20.79 3.23C20.5 2.93 20.03 2.92 19.73 3.21L18.63 4.27C18.33 4.56 18.32 5.03 18.61 5.33C18.76 5.48 18.95 5.56 19.15 5.56C19.34 5.56 19.53 5.49 19.67 5.35L20.77 4.29C21.07 4 21.08 3.53 20.79 3.23Z" fill="#171717"/>
<path d="M11.99 3.75C10 3.78 8.13 4.58 6.73 5.98C5.33 7.38 4.53 9.25 4.5 11.24C4.48 12.63 4.86 13.99 5.58 15.17C6.24 16.24 7.16 17.11 8.25 17.72V21.75C8.25 22.35 8.48 22.92 8.91 23.34C9.33 23.77 9.9 24 10.5 24H13.5C14.1 24 14.67 23.77 15.09 23.34C15.51 22.92 15.75 22.35 15.75 21.75V17.72C16.84 17.11 17.76 16.24 18.42 15.17C19.14 13.99 19.52 12.63 19.5 11.24C19.47 9.26 18.67 7.39 17.27 5.98C15.87 4.58 14 3.78 11.99 3.75ZM14.25 18V19.5H9.75V18H14.25ZM14.03 22.28C13.89 22.42 13.7 22.5 13.5 22.5H10.5C10.3 22.5 10.11 22.42 9.97 22.28C9.83 22.14 9.75 21.95 9.75 21.75V21H14.25V21.75C14.25 21.95 14.17 22.14 14.03 22.28ZM17.14 14.39C16.59 15.28 15.82 16.01 14.9 16.5H14.25V12.25C14.25 12.05 14.33 11.86 14.47 11.72C14.61 11.58 14.8 11.5 15 11.5C15.41 11.5 15.75 11.16 15.75 10.75C15.75 10.34 15.41 10 15 10C14.41 10 13.83 10.24 13.41 10.66C12.99 11.08 12.75 11.66 12.75 12.25V16.5H11.25V12.25C11.25 11.65 11.02 11.08 10.59 10.66C10.17 10.23 9.6 10 9 10C8.59 10 8.25 10.34 8.25 10.75C8.25 11.16 8.59 11.5 9 11.5C9.2 11.5 9.39 11.58 9.53 11.72C9.67 11.86 9.75 12.05 9.75 12.25V16.5H9.1C8.18 16.01 7.4 15.28 6.86 14.39C6.28 13.45 5.99 12.36 6 11.26C6.03 9.66 6.66 8.17 7.79 7.04C8.92 5.91 10.42 5.28 11.99 5.25C13.59 5.28 15.08 5.91 16.21 7.04C17.34 8.17 17.97 9.67 18 11.26C18.01 12.36 17.72 13.45 17.14 14.39Z" fill="#171717"/>
</g>
<defs>
<clipPath id="clip0_2862_16091">
<rect width="24" height="24" fill="white"/>
</clipPath>
</defs>
</svg>
