<svg width="24" height="24" viewBox="0 0 24 24" fill="none" xmlns="http://www.w3.org/2000/svg">
<path d="M12 3C12.4009 3 12.7333 2.66 12.7333 2.25V0.75C12.7333 0.34 12.4009 0 12 0C11.5991 0 11.2667 0.34 11.2667 0.75V2.25C11.2667 2.66 11.5991 3 12 3Z" fill="#171717"/>
<path d="M3.2 10.5H1.73333C1.33244 10.5 1 10.84 1 11.25C1 11.66 1.33244 12 1.73333 12H3.2C3.60089 12 3.93333 11.66 3.93333 11.25C3.93333 10.84 3.60089 10.5 3.2 10.5Z" fill="#171717"/>
<path d="M5.53689 5.33C5.82044 5.03 5.81067 4.56 5.51733 4.27L4.44178 3.21C4.14844 2.92 3.68889 2.93 3.40533 3.23C3.12178 3.53 3.13156 4 3.42489 4.29L4.50044 5.35C4.64711 5.49 4.82311 5.56 5.00889 5.56C5.20444 5.56 5.39022 5.48 5.53689 5.33Z" fill="#171717"/>
<path d="M22.2667 10.5H20.8C20.3991 10.5 20.0667 10.84 20.0667 11.25C20.0667 11.66 20.3991 12 20.8 12H22.2667C22.6676 12 23 11.66 23 11.25C23 10.84 22.6676 10.5 22.2667 10.5Z" fill="#171717"/>
<path d="M20.5947 3.23C20.3111 2.93 19.8516 2.92 19.5582 3.21L18.4827 4.27C18.1893 4.56 18.1796 5.03 18.4631 5.33C18.6098 5.48 18.7956 5.56 18.9911 5.56C19.1769 5.56 19.3627 5.49 19.4996 5.35L20.5751 4.29C20.8684 4 20.8782 3.53 20.5947 3.23Z" fill="#171717"/>
<path d="M11.9902 3.75C10.0444 3.78 8.216 4.58 6.84711 5.98C5.47822 7.38 4.696 9.25 4.66667 11.24C4.64711 12.63 5.01867 13.99 5.72267 15.17C6.368 16.24 7.26756 17.11 8.33333 17.72V21.75C8.33333 22.35 8.55822 22.92 8.97867 23.34C9.38933 23.77 9.94667 24 10.5333 24H13.4667C14.0533 24 14.6107 23.77 15.0213 23.34C15.432 22.92 15.6667 22.35 15.6667 21.75V17.72C16.7324 17.11 17.632 16.24 18.2773 15.17C18.9813 13.99 19.3529 12.63 19.3333 11.24C19.304 9.26 18.5218 7.39 17.1529 5.98C15.784 4.58 13.9556 3.78 11.9902 3.75ZM14.2 18V19.5H9.8V18H14.2ZM13.9849 22.28C13.848 22.42 13.6622 22.5 13.4667 22.5H10.5333C10.3378 22.5 10.152 22.42 10.0151 22.28C9.87822 22.14 9.8 21.95 9.8 21.75V21H14.2V21.75C14.2 21.95 14.1218 22.14 13.9849 22.28ZM17.0258 14.39C16.488 15.28 15.7351 16.01 14.8356 16.5H14.2V12.25C14.2 12.05 14.2782 11.86 14.4151 11.72C14.552 11.58 14.7378 11.5 14.9333 11.5C15.3342 11.5 15.6667 11.16 15.6667 10.75C15.6667 10.34 15.3342 10 14.9333 10C14.3564 10 13.7893 10.24 13.3787 10.66C12.968 11.08 12.7333 11.66 12.7333 12.25V16.5H11.2667V12.25C11.2667 11.65 11.0418 11.08 10.6213 10.66C10.2107 10.23 9.65333 10 9.06667 10C8.66578 10 8.33333 10.34 8.33333 10.75C8.33333 11.16 8.66578 11.5 9.06667 11.5C9.26222 11.5 9.448 11.58 9.58489 11.72C9.72178 11.86 9.8 12.05 9.8 12.25V16.5H9.16444C8.26489 16.01 7.50222 15.28 6.97422 14.39C6.40711 13.45 6.12356 12.36 6.13333 11.26C6.16267 9.66 6.77867 8.17 7.88356 7.04C8.98844 5.91 10.4551 5.28 11.9902 5.25C13.5547 5.28 15.0116 5.91 16.1164 7.04C17.2213 8.17 17.8373 9.67 17.8667 11.26C17.8764 12.36 17.5929 13.45 17.0258 14.39Z" fill="#171717"/>
</svg>
