<svg width="24" height="24" viewBox="0 0 24 24" fill="none" xmlns="http://www.w3.org/2000/svg">
<g clip-path="url(#clip0_2862_16091)">
<path d="M12 3C12.41 3 12.75 2.66 12.75 2.25V0.75C12.75 0.34 12.41 0 12 0C11.59 0 11.25 0.34 11.25 0.75V2.25C11.25 2.66 11.59 3 12 3Z" fill="#171717"/>
<path d="M3 10.5H1.5C1.09 10.5 0.75 10.84 0.75 11.25C0.75 11.66 1.09 12 1.5 12H3C3.41 12 3.75 11.66 3.75 11.25C3.75 10.84 3.41 10.5 3 10.5Z" fill="#171717"/>
<path d="M5.38999 5.32993C5.67999 5.02993 5.66999 4.55993 5.36999 4.26993L4.26999 3.20993C3.96999 2.91993 3.49999 2.92993 3.20999 3.22993C2.91999 3.52993 2.92999 3.99993 3.22999 4.28993L4.32999 5.34993C4.47999 5.48993 4.65999 5.55993 4.84999 5.55993C5.04999 5.55993 5.23999 5.47993 5.38999 5.32993Z" fill="#171717"/>
<path d="M22.5 10.5H21C20.59 10.5 20.25 10.84 20.25 11.25C20.25 11.66 20.59 12 21 12H22.5C22.91 12 23.25 11.66 23.25 11.25C23.25 10.84 22.91 10.5 22.5 10.5Z" fill="#171717"/>
<path d="M20.79 3.22993C20.5 2.92993 20.03 2.91993 19.73 3.20993L18.63 4.26993C18.33 4.55993 18.32 5.02993 18.61 5.32993C18.76 5.47993 18.95 5.55993 19.15 5.55993C19.34 5.55993 19.53 5.48993 19.67 5.34993L20.77 4.28993C21.07 3.99993 21.08 3.52993 20.79 3.22993Z" fill="#171717"/>
<path d="M11.99 3.75C10 3.78 8.13002 4.58 6.73002 5.98C5.33002 7.38 4.53002 9.25 4.50002 11.24C4.48002 12.63 4.86002 13.99 5.58002 15.17C6.24002 16.24 7.16002 17.11 8.25002 17.72V21.75C8.25002 22.35 8.48002 22.92 8.91002 23.34C9.33002 23.77 9.90002 24 10.5 24H13.5C14.1 24 14.67 23.77 15.09 23.34C15.51 22.92 15.75 22.35 15.75 21.75V17.72C16.84 17.11 17.76 16.24 18.42 15.17C19.14 13.99 19.52 12.63 19.5 11.24C19.47 9.26 18.67 7.39 17.27 5.98C15.87 4.58 14 3.78 11.99 3.75ZM14.25 18V19.5H9.75002V18H14.25ZM14.03 22.28C13.89 22.42 13.7 22.5 13.5 22.5H10.5C10.3 22.5 10.11 22.42 9.97002 22.28C9.83002 22.14 9.75002 21.95 9.75002 21.75V21H14.25V21.75C14.25 21.95 14.17 22.14 14.03 22.28ZM17.14 14.39C16.59 15.28 15.82 16.01 14.9 16.5H14.25V12.25C14.25 12.05 14.33 11.86 14.47 11.72C14.61 11.58 14.8 11.5 15 11.5C15.41 11.5 15.75 11.16 15.75 10.75C15.75 10.34 15.41 10 15 10C14.41 10 13.83 10.24 13.41 10.66C12.99 11.08 12.75 11.66 12.75 12.25V16.5H11.25V12.25C11.25 11.65 11.02 11.08 10.59 10.66C10.17 10.23 9.60002 10 9.00002 10C8.59002 10 8.25002 10.34 8.25002 10.75C8.25002 11.16 8.59002 11.5 9.00002 11.5C9.20002 11.5 9.39002 11.58 9.53002 11.72C9.67002 11.86 9.75002 12.05 9.75002 12.25V16.5H9.10002C8.18002 16.01 7.40002 15.28 6.86002 14.39C6.28002 13.45 5.99002 12.36 6.00002 11.26C6.03002 9.66 6.66002 8.17 7.79002 7.04C8.92002 5.91 10.42 5.28 11.99 5.25C13.59 5.28 15.08 5.91 16.21 7.04C17.34 8.17 17.97 9.67 18 11.26C18.01 12.36 17.72 13.45 17.14 14.39Z" fill="#171717"/>
</g>
<defs>
<clipPath id="clip0_2862_16091">
<rect width="24" height="24" fill="white"/>
</clipPath>
</defs>
</svg>
