<svg width="24" height="24" viewBox="0 0 24 24" fill="none" xmlns="http://www.w3.org/2000/svg">
<rect opacity="0.2" x="3" y="8.005" width="18" height="4" fill="#101C2D"/>
<path fill-rule="evenodd" clip-rule="evenodd" d="M11.8624 2.00493C11.9076 2.00495 11.9535 2.00498 12 2.00498C12.0465 2.00498 12.0924 2.00495 12.1376 2.00493C12.933 2.0045 13.5236 2.00418 14.0353 2.14128C15.4156 2.51114 16.4938 3.58933 16.8637 4.9697C16.9461 5.27717 16.9789 5.61317 16.9918 6.00498L18.8385 6.00498C19.3657 6.00496 19.8205 6.00494 20.195 6.03555C20.5904 6.06785 20.9836 6.13917 21.362 6.33196C21.9265 6.61958 22.3854 7.07852 22.673 7.64301C22.8658 8.02139 22.9371 8.41461 22.9694 8.80995C23 9.18452 23 9.63927 23 10.1664V17.8435C23 18.3707 23 18.8254 22.9694 19.2C22.9371 19.5954 22.8658 19.9886 22.673 20.367C22.3854 20.9314 21.9265 21.3904 21.362 21.678C20.9836 21.8708 20.5904 21.9421 20.195 21.9744C19.8205 22.005 19.3657 22.005 18.8386 22.005H5.16144C4.6343 22.005 4.17954 22.005 3.80497 21.9744C3.40963 21.9421 3.01641 21.8708 2.63803 21.678C2.07354 21.3904 1.6146 20.9314 1.32698 20.367C1.13419 19.9886 1.06287 19.5954 1.03057 19.2C0.999967 18.8254 0.999983 18.3707 1 17.8435V10.1664C0.999983 9.63929 0.999967 9.18452 1.03057 8.80995C1.06287 8.41461 1.13419 8.02139 1.32698 7.64301C1.6146 7.07852 2.07354 6.61958 2.63803 6.33196C3.01641 6.13917 3.40963 6.06785 3.80497 6.03555C4.17955 6.00494 4.63431 6.00496 5.16146 6.00498L7.00822 6.00498C7.02115 5.61317 7.05391 5.27717 7.1363 4.9697C7.50617 3.58933 8.58436 2.51114 9.96473 2.14128C10.4764 2.00418 11.067 2.0045 11.8624 2.00493ZM5.2 8.00498C4.62345 8.00498 4.25117 8.00576 3.96784 8.02891C3.69617 8.0511 3.59546 8.08878 3.54601 8.11397C3.35785 8.20985 3.20487 8.36283 3.109 8.55099C3.0838 8.60043 3.04612 8.70115 3.02393 8.97282C3.00078 9.25615 3 9.62843 3 10.205V17.805C3 18.3815 3.00078 18.7538 3.02393 19.0371C3.04612 19.3088 3.0838 19.4095 3.109 19.459C3.20487 19.6471 3.35785 19.8001 3.54601 19.896C3.59546 19.9212 3.69617 19.9589 3.96784 19.9811C4.25117 20.0042 4.62345 20.005 5.2 20.005H18.8C19.3766 20.005 19.7488 20.0042 20.0322 19.9811C20.3038 19.9589 20.4045 19.9212 20.454 19.896C20.6422 19.8001 20.7951 19.6471 20.891 19.459C20.9162 19.4095 20.9539 19.3088 20.9761 19.0371C20.9992 18.7538 21 18.3815 21 17.805V10.205C21 9.62843 20.9992 9.25615 20.9761 8.97282C20.9539 8.70115 20.9162 8.60043 20.891 8.55099C20.7951 8.36283 20.6422 8.20985 20.454 8.11397C20.4045 8.08878 20.3038 8.0511 20.0322 8.02891C19.7488 8.00576 19.3766 8.00498 18.8 8.00498H5.2ZM14.9901 6.00498H9.00986C9.01905 5.74741 9.03632 5.60613 9.06815 5.48734C9.25308 4.79716 9.79218 4.25806 10.4824 4.07313C10.7046 4.01357 11.0056 4.00498 12 4.00498C12.9944 4.00498 13.2954 4.01357 13.5176 4.07313C14.2078 4.25806 14.7469 4.79716 14.9319 5.48734C14.9637 5.60613 14.981 5.74741 14.9901 6.00498Z" fill="#101C2D"/>
<path d="M3 12.005H21V14.005H3V12.005Z" fill="#101C2D"/>
</svg>
