<svg width="24" height="24" viewBox="0 0 24 24" fill="none" xmlns="http://www.w3.org/2000/svg">
<path d="M13.915 15.255C13.623 15.255 13.356 15.084 13.234 14.819C13.061 14.443 13.226 13.997 13.601 13.824C14.289 13.508 14.741 12.842 14.782 12.086C14.782 11.959 14.766 11.799 14.73 11.628C14.463 11.861 14.117 12 13.75 12C12.923 12 12.25 11.327 12.25 10.5C12.25 9.764 12.774 9.147 13.501 9.025C13.565 9.008 13.626 9 13.687 9C13.693 9 13.706 9.001 13.718 9.001C13.728 9 13.739 9 13.75 9C13.789 9 13.826 9.004 13.863 9.009C15.456 9.133 16.281 10.671 16.281 12.127C16.209 13.472 15.423 14.636 14.229 15.186C14.129 15.232 14.023 15.255 13.915 15.255Z" fill="#171717"/>
<path d="M8.665 15.255C8.373 15.255 8.106 15.084 7.984 14.819C7.811 14.443 7.976 13.997 8.351 13.824C9.038 13.508 9.491 12.842 9.532 12.086C9.532 11.959 9.516 11.799 9.48 11.628C9.213 11.861 8.867 12 8.5 12C7.673 12 7 11.327 7 10.5C7 9.764 7.525 9.147 8.251 9.025C8.314 9.008 8.376 9 8.436 9C8.442 9 8.455 9.001 8.467 9.001C8.478 9 8.489 9 8.499 9C8.538 9 8.575 9.004 8.612 9.009C10.204 9.133 11.03 10.671 11.03 12.127C10.958 13.472 10.172 14.637 8.978 15.186C8.879 15.232 8.774 15.255 8.665 15.255Z" fill="#171717"/>
</svg>
