<svg width="24" height="24" viewBox="0 0 24 24" fill="none" xmlns="http://www.w3.org/2000/svg">
<path d="M14.4507 15C14.1361 15 13.8484 14.836 13.7169 14.5818C13.5305 14.2211 13.7083 13.7933 14.1124 13.6273C14.8537 13.3242 15.3407 12.6854 15.3849 11.9602C15.3849 11.8384 15.3676 11.6849 15.3288 11.5209C15.0412 11.7444 14.6684 11.8777 14.2729 11.8777C13.3819 11.8777 12.6567 11.2321 12.6567 10.4388C12.6567 9.73285 13.2213 9.14101 14.0046 9.02398C14.0736 9.00767 14.1393 9 14.205 9C14.2115 9 14.2255 9.00096 14.2384 9.00096C14.2492 9 14.2611 9 14.2729 9C14.3149 9 14.3548 9.00384 14.3947 9.00863C16.1111 9.12758 17 10.6029 17 11.9995C16.9224 13.2897 16.0755 14.4062 14.789 14.9338C14.6813 14.9779 14.5671 15 14.4507 15Z" fill="#171717"/>
<path d="M8.79399 15C8.47937 15 8.19168 14.836 8.06023 14.5818C7.87383 14.2211 8.05161 13.7933 8.45566 13.6273C9.19588 13.3242 9.68398 12.6854 9.72815 11.9602C9.72815 11.8384 9.71091 11.6849 9.67213 11.5209C9.38444 11.7444 9.01164 11.8777 8.61621 11.8777C7.72514 11.8777 7 11.2321 7 10.4388C7 9.73285 7.56567 9.14101 8.34791 9.02398C8.4158 9.00767 8.4826 9 8.54725 9C8.55371 9 8.56772 9.00096 8.58065 9.00096C8.5925 9 8.60435 9 8.61513 9C8.65715 9 8.69702 9.00384 8.73688 9.00863C10.4522 9.12758 11.3422 10.6029 11.3422 11.9995C11.2646 13.2897 10.4177 14.4072 9.13124 14.9338C9.02457 14.9779 8.91143 15 8.79399 15Z" fill="#171717"/>
</svg>
