<svg width="24" height="24" viewBox="0 0 24 24" fill="none" xmlns="http://www.w3.org/2000/svg">
<path d="M15.7541 7C14.9023 7 14.0854 7.32267 13.4832 7.89702C12.8809 8.47137 12.5425 9.25036 12.5425 10.0626C12.5425 10.8749 12.8809 11.6539 13.4832 12.2282C14.0854 12.8026 14.9023 13.1252 15.7541 13.1252C15.9975 13.125 16.2399 13.0959 16.4757 13.0384C16.5071 13.0324 16.5397 13.035 16.5697 13.046C16.5996 13.057 16.6256 13.0759 16.6447 13.1004C16.6648 13.1183 16.6796 13.1409 16.6876 13.1659C16.6956 13.1909 16.6965 13.2175 16.6902 13.243C16.3112 13.8957 15.758 14.4412 15.0867 14.8245C14.4154 15.2077 13.6499 15.4149 12.8676 15.4253C12.652 15.4253 12.4453 15.5069 12.2929 15.6523C12.1405 15.7976 12.0549 15.9947 12.0549 16.2002C12.0549 16.4058 12.1405 16.6029 12.2929 16.7482C12.4453 16.8936 12.652 16.9752 12.8676 16.9752C14.5362 16.9298 16.1181 16.2559 17.267 15.101C18.4159 13.9461 19.0384 12.4042 18.9982 10.8128V10.0626C18.9879 9.24803 18.6418 8.47003 18.0347 7.8969C17.4276 7.32377 16.6083 7.00157 15.7541 7Z" fill="#0A0B0D"/>
<path d="M7.74467 7C6.89291 7 6.07603 7.32267 5.47375 7.89702C4.87146 8.47137 4.5331 9.25036 4.5331 10.0626C4.5331 10.8749 4.87146 11.6539 5.47375 12.2282C6.07603 12.8026 6.89291 13.1252 7.74467 13.1252C7.98804 13.1247 8.23041 13.0955 8.46631 13.0384C8.49774 13.0324 8.53033 13.035 8.56026 13.046C8.59019 13.057 8.61623 13.0759 8.63534 13.1004C8.65294 13.1251 8.66236 13.1543 8.66236 13.1841C8.66236 13.214 8.65294 13.2431 8.63534 13.2678C8.25573 13.9201 7.70243 14.4653 7.03126 14.8484C6.36009 15.2316 5.5948 15.4391 4.81265 15.4501C4.59712 15.4501 4.39042 15.5317 4.23802 15.6771C4.08562 15.8224 4 16.0195 4 16.225C4 16.4306 4.08562 16.6277 4.23802 16.773C4.39042 16.9184 4.59712 17 4.81265 17C6.48131 16.9546 8.06317 16.2807 9.21209 15.1258C10.361 13.9709 10.9835 12.429 10.9433 10.8376V10.0626C10.9332 9.25547 10.5934 8.4839 9.99606 7.91197C9.39874 7.34004 8.59103 7.01286 7.74467 7Z" fill="#0A0B0D"/>
</svg>
