<svg width="24" height="24" viewBox="0 0 24 24" fill="none" xmlns="http://www.w3.org/2000/svg">
<g clip-path="url(#clip0_2850_15063)">
<path d="M4.41 3.66C3.98 4.08 3.75 4.65 3.75 5.25V8.25C3.75 8.66 4.09 9 4.5 9C4.91 9 5.25 8.66 5.25 8.25V7.5H6.75V8.25C6.75 8.66 7.09 9 7.5 9C7.91 9 8.25 8.66 8.25 8.25V5.25C8.25 4.65 8.02 4.08 7.59 3.66C6.74 2.81 5.26 2.81 4.41 3.66ZM5.25 6V5.25C5.25 5.05 5.33 4.86 5.47 4.72C5.75 4.44 6.25 4.44 6.53 4.72C6.67 4.86 6.75 5.05 6.75 5.25V6H5.25Z" fill="#171717"/>
<path d="M19.5 11.25H17.25V10.5C17.25 10.09 16.91 9.75 16.5 9.75C16.09 9.75 15.75 10.09 15.75 10.5V11.25H13.5C13.09 11.25 12.75 11.59 12.75 12C12.75 12.41 13.09 12.75 13.5 12.75H16.86C16.28 13.93 15.12 15.75 13.5 15.75C13.09 15.75 12.75 16.09 12.75 16.5C12.75 16.91 13.09 17.25 13.5 17.25C14.72 17.25 15.7 16.66 16.48 15.9C16.76 16.18 17.07 16.43 17.42 16.63C18.03 16.99 18.74 17.2 19.45 17.25C19.47 17.25 19.48 17.25 19.5 17.25C19.89 17.25 20.22 16.95 20.25 16.55C20.28 16.14 19.97 15.78 19.55 15.75C19.07 15.72 18.59 15.57 18.17 15.33C17.9 15.17 17.66 14.96 17.45 14.73C17.96 13.98 18.32 13.23 18.52 12.75H19.5C19.91 12.75 20.25 12.41 20.25 12C20.25 11.59 19.91 11.25 19.5 11.25Z" fill="#171717"/>
<path d="M23.34 8.16C22.92 7.74 22.34 7.5 21.75 7.5H11.25C10.65 7.5 10.08 7.73 9.66 8.16C9.23 8.58 9 9.15 9 9.75V17.25C9 17.84 9.24 18.42 9.66 18.84C10.08 19.26 10.65 19.5 11.25 19.5H15.44L19.72 23.78C19.86 23.92 20.05 24 20.25 24C20.35 24 20.44 23.98 20.54 23.94C20.82 23.82 21 23.55 21 23.25V19.5H21.75C22.34 19.5 22.92 19.26 23.34 18.84C23.76 18.42 24 17.84 24 17.25V9.75C24 9.15 23.77 8.58 23.34 8.16ZM22.5 17.25C22.5 17.45 22.42 17.64 22.28 17.78C22.14 17.92 21.95 18 21.75 18H20.25C19.84 18 19.5 18.34 19.5 18.75V21.44L16.28 18.22C16.14 18.08 15.95 18 15.75 18H11.25C11.05 18 10.86 17.92 10.72 17.78C10.58 17.64 10.5 17.45 10.5 17.25V9.75C10.5 9.55 10.58 9.36 10.72 9.22C10.86 9.08 11.05 9 11.25 9H21.75C21.95 9 22.14 9.08 22.28 9.22C22.42 9.36 22.5 9.55 22.5 9.75V17.25Z" fill="#171717"/>
<path d="M6.22 12.22L4.5 13.94V11.25C4.5 10.84 4.16 10.5 3.75 10.5H2.25C2.05 10.5 1.86 10.42 1.72 10.28C1.58 10.14 1.5 9.95 1.5 9.75V2.25C1.5 2.05 1.58 1.86 1.72 1.72C1.86 1.58 2.05 1.5 2.25 1.5H12.75C12.95 1.5 13.14 1.58 13.28 1.72C13.42 1.86 13.5 2.05 13.5 2.25V5.25C13.5 5.66 13.84 6 14.25 6C14.66 6 15 5.66 15 5.25V2.25C15 1.65 14.77 1.08 14.34 0.66C13.92 0.24 13.34 0 12.75 0H2.25C1.65 0 1.08 0.23 0.66 0.66C0.23 1.08 0 1.65 0 2.25V9.75C0 10.35 0.23 10.92 0.66 11.34C1.08 11.77 1.65 12 2.25 12H3V15.75C3 16.05 3.18 16.33 3.46 16.44C3.55 16.48 3.65 16.5 3.75 16.5C3.94 16.5 4.14 16.42 4.28 16.28L7.28 13.28C7.57 12.99 7.57 12.51 7.28 12.22C6.99 11.93 6.51 11.93 6.22 12.22Z" fill="#171717"/>
</g>
<defs>
<clipPath id="clip0_2850_15063">
<rect width="24" height="24" fill="white"/>
</clipPath>
</defs>
</svg>
