<svg width="24" height="24" viewBox="0 0 24 24" fill="none" xmlns="http://www.w3.org/2000/svg">
<path fill-rule="evenodd" clip-rule="evenodd" d="M7.99998 2C8.55226 2 8.99998 2.44772 8.99998 3V4H14C14.5523 4 15 4.44772 15 5C15 5.55228 14.5523 6 14 6H12.3282C11.8159 8.42693 10.875 10.6671 9.56475 12.6367C9.85007 12.8123 10.1336 12.9638 10.4098 13.0878C10.9136 13.3142 11.1385 13.906 10.9121 14.4098C10.6858 14.9136 10.0939 15.1385 9.59016 14.9122C9.17742 14.7267 8.76571 14.501 8.36336 14.244C6.75633 16.1638 4.75738 17.7464 2.44501 18.8955C1.95043 19.1413 1.35025 18.9396 1.10446 18.445C0.858678 17.9505 1.06037 17.3503 1.55494 17.1045C3.59421 16.0911 5.35477 14.7039 6.7748 13.0255C5.63588 11.9944 4.63946 10.7161 4.07882 9.38919C3.86388 8.88045 4.10204 8.29379 4.61078 8.07884C5.11952 7.8639 5.70619 8.10207 5.92113 8.61081C6.32621 9.56955 7.0733 10.5659 7.97601 11.413C9.03019 9.79868 9.81318 7.9769 10.2791 6H1.99998C1.44769 6 0.999977 5.55228 0.999977 5C0.999977 4.44772 1.44769 4 1.99998 4H6.99998V3C6.99998 2.44772 7.44769 2 7.99998 2ZM15.8477 9.30812C16.2598 9.10912 16.7402 9.10912 17.1523 9.30812C17.5107 9.48122 17.7051 9.78284 17.8016 9.94515C17.9028 10.1152 18.0065 10.3322 18.1085 10.5455L22.9021 20.5685C23.1404 21.0668 22.9297 21.6638 22.4314 21.9021C21.9332 22.1404 21.3361 21.9297 21.0978 21.4315L19.4567 18H13.5432L11.9021 21.4315C11.6638 21.9297 11.0668 22.1404 10.5685 21.9021C10.0703 21.6638 9.85956 21.0668 10.0978 20.5685L14.8761 10.5776C14.8812 10.5669 14.8864 10.5562 14.8915 10.5455C14.9934 10.3323 15.0972 10.1152 15.1983 9.94515C15.2949 9.78284 15.4892 9.48122 15.8477 9.30812ZM14.4998 16H18.5002L16.5 11.8177L14.4998 16Z" fill="#101C2D"/>
</svg>
