<svg width="24" height="24" viewBox="0 0 24 24" fill="none" xmlns="http://www.w3.org/2000/svg">
<path d="M23.8168 18.759C23.8068 18.7487 23.8168 18.7487 23.8168 18.759L21.7568 14.1436V4.30769C21.7568 3.69231 21.5268 3.10769 21.0968 2.67692C20.6768 2.24615 20.0968 2 19.5068 2H4.50682C3.91682 2 3.33682 2.24615 2.91682 2.67692C2.48682 3.10769 2.25682 3.69231 2.25682 4.30769V14.1436L0.196819 18.759C0.0468191 19.1077 -0.0231809 19.4974 0.00681907 19.8769C0.0368191 20.2564 0.156819 20.6359 0.366819 20.9538C0.566819 21.2718 0.846819 21.5385 1.17682 21.7231C1.50682 21.9077 1.87682 22 2.24682 22H21.7468C22.1168 22 22.4968 21.9077 22.8168 21.7231C23.1468 21.5385 23.4268 21.2718 23.6268 20.9538C23.8268 20.6359 23.9568 20.2564 23.9868 19.8769C24.0268 19.4872 23.9668 19.1077 23.8168 18.759ZM3.75682 4.30769C3.75682 4.10256 3.83682 3.90769 3.97682 3.7641C4.11682 3.62051 4.30682 3.53846 4.50682 3.53846H19.5068C19.7068 3.53846 19.8968 3.62051 20.0368 3.7641C20.1768 3.90769 20.2568 4.10256 20.2568 4.30769V13.5385H3.75682V4.30769ZM22.3868 20.1128C22.3168 20.2154 22.2268 20.3077 22.1168 20.3692C22.0068 20.4308 21.8868 20.4615 21.7568 20.4615H2.25682C2.13682 20.4615 2.00682 20.4308 1.89682 20.3692C1.78682 20.3077 1.69682 20.2154 1.62682 20.1128C1.55682 20.0103 1.51682 19.8872 1.50682 19.7538C1.49682 19.6308 1.51682 19.4974 1.56682 19.3846L3.48682 15.0769H20.5268L22.4468 19.3846C22.4968 19.4974 22.5168 19.6308 22.5068 19.7538C22.4968 19.8769 22.4568 20 22.3868 20.1128Z" fill="#1D2127"/>
<path d="M13.5068 17.3846H10.5068C10.0968 17.3846 9.75682 17.7333 9.75682 18.1538C9.75682 18.5744 10.0968 18.9231 10.5068 18.9231H13.5068C13.9168 18.9231 14.2568 18.5744 14.2568 18.1538C14.2568 17.7333 13.9168 17.3846 13.5068 17.3846Z" fill="#1D2127"/>
</svg>
