<svg width="24" height="24" viewBox="0 0 24 24" fill="none" xmlns="http://www.w3.org/2000/svg">
<path fill-rule="evenodd" clip-rule="evenodd" d="M6.16149 3H17.8386C18.3657 2.99998 18.8205 2.99997 19.1951 3.03057C19.5904 3.06287 19.9836 3.13419 20.362 3.32698C20.9265 3.6146 21.3854 4.07354 21.6731 4.63803C21.8658 5.01641 21.9372 5.40963 21.9695 5.80497C22.0001 6.17954 22.0001 6.6343 22 7.16144V15.2679C22.4534 15.5297 22.7928 15.9633 22.9319 16.4824C23.0018 16.7432 23.0009 17.031 23.0002 17.2658C23.0001 17.2888 23 17.3114 23 17.3333C23 17.371 23.0001 17.4083 23.0001 17.4452C23.0006 17.9529 23.0011 18.3909 22.8978 18.7765C22.6204 19.8117 21.8118 20.6204 20.7765 20.8978C20.391 21.0011 19.9529 21.0006 19.4452 21.0001C19.4083 21 19.371 21 19.3334 21H4.6667C4.62905 21 4.59177 21 4.55486 21.0001C4.04714 21.0006 3.6091 21.0011 3.22358 20.8978C2.1883 20.6204 1.37966 19.8117 1.10226 18.7765C0.998953 18.3909 0.999417 17.9529 0.999954 17.4452C0.999993 17.4083 1.00003 17.371 1.00003 17.3333V17C1.00003 16.2597 1.40223 15.6134 2.00003 15.2676V7.16146C2.00001 6.63431 2 6.17955 2.0306 5.80497C2.0629 5.40963 2.13422 5.01641 2.32701 4.63803C2.61463 4.07354 3.07358 3.6146 3.63806 3.32698C4.01644 3.13419 4.40966 3.06287 4.805 3.03057C5.17958 2.99997 5.63434 2.99998 6.16149 3ZM4.00003 15H8.33729C8.35386 15 8.37089 15 8.38833 14.9999C8.57824 14.9994 8.81738 14.9988 9.05271 15.0553C9.25678 15.1043 9.45187 15.1851 9.63082 15.2947C9.83717 15.4212 10.0058 15.5907 10.1397 15.7254C10.152 15.7377 10.1641 15.7498 10.1758 15.7615L10.2385 15.8243C10.3311 15.9169 10.3775 15.963 10.4127 15.995C10.4136 15.9958 10.4145 15.9967 10.4153 15.9974C10.4165 15.9975 10.4177 15.9975 10.4189 15.9976C10.4664 15.9998 10.5318 16 10.6628 16H13.3373C13.4683 16 13.5337 15.9998 13.5812 15.9976C13.5824 15.9975 13.5836 15.9975 13.5848 15.9974C13.5856 15.9967 13.5865 15.9958 13.5874 15.995C13.6225 15.963 13.6689 15.9169 13.7616 15.8243L13.8243 15.7615C13.836 15.7498 13.848 15.7377 13.8603 15.7254C13.9942 15.5907 14.1629 15.4212 14.3692 15.2947C14.5482 15.1851 14.7433 15.1043 14.9474 15.0553C15.1827 14.9988 15.4218 14.9994 15.6117 14.9999C15.6292 15 15.6462 15 15.6628 15H20V7.2C20 6.62345 19.9993 6.25118 19.9761 5.96784C19.9539 5.69617 19.9162 5.59546 19.891 5.54601C19.7952 5.35785 19.6422 5.20487 19.454 5.109C19.4046 5.0838 19.3039 5.04612 19.0322 5.02393C18.7489 5.00078 18.3766 5 17.8 5H6.20003C5.62348 5 5.25121 5.00078 4.96787 5.02393C4.69621 5.04612 4.59549 5.0838 4.54604 5.109C4.35788 5.20487 4.2049 5.35785 4.10903 5.54601C4.08383 5.59546 4.04616 5.69617 4.02396 5.96784C4.00081 6.25117 4.00003 6.62345 4.00003 7.2V15ZM15.6628 17C15.5318 17 15.4664 17.0002 15.4189 17.0024C15.4177 17.0025 15.4165 17.0025 15.4153 17.0026C15.4145 17.0034 15.4136 17.0042 15.4127 17.005C15.3775 17.037 15.3311 17.0831 15.2385 17.1757L15.1758 17.2385C15.1641 17.2502 15.152 17.2623 15.1397 17.2746C15.0058 17.4093 14.8372 17.5788 14.6308 17.7053C14.4519 17.8149 14.2568 17.8957 14.0527 17.9447C13.8174 18.0012 13.5782 18.0006 13.3883 18.0001C13.3709 18 13.3539 18 13.3373 18H10.6628C10.6462 18 10.6292 18 10.6117 18.0001C10.4218 18.0006 10.1827 18.0012 9.94736 17.9447C9.74328 17.8957 9.54819 17.8149 9.36925 17.7053C9.1629 17.5788 8.99425 17.4093 8.86032 17.2746C8.84802 17.2623 8.83601 17.2502 8.8243 17.2385L8.76156 17.1757C8.66892 17.0831 8.62252 17.037 8.58741 17.005C8.58649 17.0042 8.5856 17.0034 8.58475 17.0026C8.5836 17.0025 8.58241 17.0025 8.58117 17.0024C8.53367 17.0002 8.46829 17 8.33729 17H3.00003V17.3333C3.00003 18.0177 3.00862 18.1637 3.03411 18.2588C3.12657 18.6039 3.39612 18.8735 3.74121 18.9659C3.83633 18.9914 3.98234 19 4.6667 19H19.3334C20.0177 19 20.1637 18.9914 20.2589 18.9659C20.6039 18.8735 20.8735 18.6039 20.966 18.2588C20.9914 18.1637 21 18.0177 21 17.3333C21 17.1693 20.9998 17.0796 20.9968 17.0143C20.9966 17.0105 20.9965 17.007 20.9963 17.0037C20.9931 17.0036 20.9896 17.0034 20.9858 17.0032C20.9204 17.0002 20.8308 17 20.6667 17H15.6628Z" fill="#101C2D"/>
</svg>
