<svg width="24" height="24" viewBox="0 0 24 24" fill="none" xmlns="http://www.w3.org/2000/svg">
<g clip-path="url(#clip0_2861_15528)">
<path d="M23.81 18.59C23.8 18.58 23.81 18.58 23.81 18.59L21.75 14.09V4.5C21.75 3.9 21.52 3.33 21.09 2.91C20.67 2.49 20.09 2.25 19.5 2.25H4.50001C3.91001 2.25 3.33001 2.49 2.91001 2.91C2.48001 3.33 2.25001 3.9 2.25001 4.5V14.09L0.190014 18.59C0.0400136 18.93 -0.0299864 19.31 1.36462e-05 19.68C0.0300136 20.05 0.150014 20.42 0.360014 20.73C0.560014 21.04 0.840014 21.3 1.17001 21.48C1.50001 21.66 1.87001 21.75 2.24001 21.75H21.74C22.11 21.75 22.49 21.66 22.81 21.48C23.14 21.3 23.42 21.04 23.62 20.73C23.82 20.42 23.95 20.05 23.98 19.68C24.02 19.3 23.96 18.93 23.81 18.59ZM3.75001 4.5C3.75001 4.3 3.83001 4.11 3.97001 3.97C4.11001 3.83 4.30001 3.75 4.50001 3.75H19.5C19.7 3.75 19.89 3.83 20.03 3.97C20.17 4.11 20.25 4.3 20.25 4.5V13.5H3.75001V4.5ZM22.38 19.91C22.31 20.01 22.22 20.1 22.11 20.16C22 20.22 21.88 20.25 21.75 20.25H2.25001C2.13001 20.25 2.00001 20.22 1.89001 20.16C1.78001 20.1 1.69001 20.01 1.62001 19.91C1.55001 19.81 1.51001 19.69 1.50001 19.56C1.49001 19.44 1.51001 19.31 1.56001 19.2L3.48001 15H20.52L22.44 19.2C22.49 19.31 22.51 19.44 22.5 19.56C22.49 19.68 22.45 19.8 22.38 19.91Z" fill="#171717"/>
<path d="M13.5 17.25H10.5C10.09 17.25 9.75001 17.59 9.75001 18C9.75001 18.41 10.09 18.75 10.5 18.75H13.5C13.91 18.75 14.25 18.41 14.25 18C14.25 17.59 13.91 17.25 13.5 17.25Z" fill="#171717"/>
</g>
<defs>
<clipPath id="clip0_2861_15528">
<rect width="24" height="24" fill="white"/>
</clipPath>
</defs>
</svg>
