<svg width="24" height="24" viewBox="0 0 24 24" fill="none" xmlns="http://www.w3.org/2000/svg">
<path d="M3 12.3598C3 11.8646 3.18374 11.4409 3.55121 11.0888C3.91869 10.7367 4.36001 10.5603 4.87518 10.5596C5.39034 10.559 5.83166 10.7354 6.19914 11.0888C6.56661 11.4423 6.75035 11.8659 6.75035 12.3598C6.75035 12.8537 6.56661 13.2774 6.19914 13.6309C5.83166 13.9843 5.39034 14.1607 4.87518 14.16C4.36001 14.1594 3.91869 13.983 3.55121 13.6309C3.18374 13.2788 3 12.8551 3 12.3598V12.3598ZM5.06206 7.32008C5.06206 6.77243 5.2633 6.30541 5.66577 5.91903C6.06825 5.53265 6.55471 5.33946 7.12518 5.33946C7.69564 5.33946 8.1821 5.53265 8.58458 5.91903C8.98705 6.30541 9.18829 6.77243 9.18829 7.32008C9.18829 7.86773 8.98705 8.33475 8.58458 8.72113C8.1821 9.10751 7.69564 9.3007 7.12518 9.3007C6.55471 9.3007 6.06825 9.10751 5.66577 8.72113C5.2633 8.33475 5.06206 7.86773 5.06206 7.32008ZM5.43689 17.3996C5.43689 16.9494 5.60103 16.567 5.9293 16.2525C6.25758 15.9381 6.65586 15.7805 7.12413 15.7798C7.58469 15.7798 7.98122 15.9374 8.3137 16.2525C8.64617 16.5677 8.81206 16.95 8.81136 17.3996C8.81066 17.8491 8.64477 18.2315 8.3137 18.5466C7.98262 18.8618 7.58609 19.0194 7.12413 19.0194C6.65516 19.0194 6.25688 18.8618 5.9293 18.5466C5.60173 18.2315 5.43759 17.8491 5.43689 17.3996ZM10.1248 5.16004C10.1248 4.55997 10.3436 4.04995 10.781 3.62997C11.2185 3.20999 11.7498 3 12.3748 3C12.9999 3 13.5311 3.20999 13.9686 3.62997C14.4061 4.04995 14.6248 4.55997 14.6248 5.16004C14.6248 5.76011 14.4061 6.27013 13.9686 6.69011C13.5311 7.11009 12.9999 7.32008 12.3748 7.32008C11.7498 7.32008 11.2185 7.11009 10.781 6.69011C10.3436 6.27013 10.1248 5.76011 10.1248 5.16004ZM10.8745 19.5596C10.8745 19.1618 11.0211 18.8225 11.3144 18.5416C11.6077 18.2607 11.9612 18.1199 12.3748 18.1193C12.7885 18.1186 13.142 18.2594 13.4353 18.5416C13.7285 18.8238 13.8752 19.1632 13.8752 19.5596C13.8752 19.9561 13.7285 20.2954 13.4353 20.5777C13.142 20.8599 12.7885 21.0007 12.3748 21C11.9612 20.9993 11.6077 20.8585 11.3144 20.5777C11.0211 20.2968 10.8745 19.9574 10.8745 19.5596ZM16.3121 17.3996C16.3121 17.0549 16.4409 16.7585 16.6984 16.5106C16.956 16.2626 17.2647 16.139 17.6245 16.1397C17.9843 16.1403 18.2929 16.264 18.5505 16.5106C18.8081 16.7572 18.9369 17.0535 18.9369 17.3996C18.9369 17.7457 18.8081 18.042 18.5505 18.2886C18.2929 18.5352 17.9843 18.6589 17.6245 18.6595C17.2647 18.6602 16.956 18.5366 16.6984 18.2886C16.4409 18.0407 16.3121 17.7443 16.3121 17.3996ZM16.6869 7.32008C16.6869 7.0728 16.7786 6.86079 16.962 6.68406C17.1454 6.50733 17.3662 6.41931 17.6245 6.41998C17.8828 6.42065 18.1036 6.50868 18.287 6.68406C18.4704 6.85945 18.5621 7.07145 18.5621 7.32008C18.5621 7.56871 18.4704 7.78071 18.287 7.9561C18.1036 8.13148 17.8828 8.21951 17.6245 8.22018C17.3662 8.22085 17.1454 8.13282 16.962 7.9561C16.7786 7.77937 16.6869 7.56736 16.6869 7.32008ZM18.749 12.3598C18.749 12.0601 18.8585 11.8051 19.0776 11.5948C19.2967 11.3845 19.5623 11.2793 19.8745 11.2793C20.1867 11.2793 20.4523 11.3845 20.6714 11.5948C20.8905 11.8051 21 12.0601 21 12.3598C21 12.6595 20.8905 12.9145 20.6714 13.1249C20.4523 13.3352 20.1867 13.4404 19.8745 13.4404C19.5623 13.4404 19.2967 13.3352 19.0776 13.1249C18.8585 12.9145 18.749 12.6595 18.749 12.3598Z" fill="#171717"/>
</svg>
