<svg width="24" height="24" viewBox="0 0 24 24" fill="none" xmlns="http://www.w3.org/2000/svg">
<g clip-path="url(#clip0_4319_18050)">
<path d="M3 12C3 11.5087 3.175 11.0883 3.525 10.739C3.875 10.3897 4.29533 10.2147 4.786 10.214C5.27667 10.2133 5.697 10.3883 6.047 10.739C6.397 11.0897 6.572 11.51 6.572 12C6.572 12.49 6.397 12.9103 6.047 13.261C5.697 13.6117 5.27667 13.7867 4.786 13.786C4.29533 13.7853 3.875 13.6103 3.525 13.261C3.175 12.9117 3 12.4913 3 12V12ZM4.964 6.99999C4.964 6.45666 5.15567 5.99332 5.539 5.60999C5.92233 5.22666 6.38567 5.03499 6.929 5.03499C7.47233 5.03499 7.93567 5.22666 8.319 5.60999C8.70233 5.99332 8.894 6.45666 8.894 6.99999C8.894 7.54332 8.70233 8.00666 8.319 8.38999C7.93567 8.77332 7.47233 8.96499 6.929 8.96499C6.38567 8.96499 5.92233 8.77332 5.539 8.38999C5.15567 8.00666 4.964 7.54332 4.964 6.99999ZM5.321 17C5.321 16.5533 5.47733 16.174 5.79 15.862C6.10267 15.55 6.482 15.3937 6.928 15.393C7.36667 15.393 7.74433 15.5493 8.061 15.862C8.37767 16.1747 8.53567 16.554 8.535 17C8.53433 17.446 8.37633 17.8253 8.061 18.138C7.74567 18.4507 7.368 18.607 6.928 18.607C6.48133 18.607 6.102 18.4507 5.79 18.138C5.478 17.8253 5.32167 17.446 5.321 17ZM9.786 4.85699C9.786 4.26166 9.99433 3.75566 10.411 3.33899C10.8277 2.92232 11.3337 2.71399 11.929 2.71399C12.5243 2.71399 13.0303 2.92232 13.447 3.33899C13.8637 3.75566 14.072 4.26166 14.072 4.85699C14.072 5.45232 13.8637 5.95832 13.447 6.37499C13.0303 6.79166 12.5243 6.99999 11.929 6.99999C11.3337 6.99999 10.8277 6.79166 10.411 6.37499C9.99433 5.95832 9.786 5.45232 9.786 4.85699ZM10.5 19.143C10.5 18.7483 10.6397 18.4117 10.919 18.133C11.1983 17.8543 11.535 17.7147 11.929 17.714C12.323 17.7133 12.6597 17.853 12.939 18.133C13.2183 18.413 13.358 18.7497 13.358 19.143C13.358 19.5363 13.2183 19.873 12.939 20.153C12.6597 20.433 12.323 20.5727 11.929 20.572C11.535 20.5713 11.1983 20.4317 10.919 20.153C10.6397 19.8743 10.5 19.5377 10.5 19.143ZM15.679 17C15.679 16.658 15.8017 16.364 16.047 16.118C16.2923 15.872 16.5863 15.7493 16.929 15.75C17.2717 15.7507 17.5657 15.8733 17.811 16.118C18.0563 16.3627 18.179 16.6567 18.179 17C18.179 17.3433 18.0563 17.6373 17.811 17.882C17.5657 18.1267 17.2717 18.2493 16.929 18.25C16.5863 18.2507 16.2923 18.128 16.047 17.882C15.8017 17.636 15.679 17.342 15.679 17ZM16.036 6.99999C16.036 6.75466 16.1233 6.54432 16.298 6.36899C16.4727 6.19366 16.683 6.10632 16.929 6.10699C17.175 6.10766 17.3853 6.19499 17.56 6.36899C17.7347 6.54299 17.822 6.75332 17.822 6.99999C17.822 7.24666 17.7347 7.45699 17.56 7.63099C17.3853 7.80499 17.175 7.89232 16.929 7.89299C16.683 7.89366 16.4727 7.80632 16.298 7.63099C16.1233 7.45566 16.036 7.24532 16.036 6.99999ZM18 12C18 11.7027 18.1043 11.4497 18.313 11.241C18.5217 11.0323 18.7747 10.928 19.072 10.928C19.3693 10.928 19.6223 11.0323 19.831 11.241C20.0397 11.4497 20.144 11.7027 20.144 12C20.144 12.2973 20.0397 12.5503 19.831 12.759C19.6223 12.9677 19.3693 13.072 19.072 13.072C18.7747 13.072 18.5217 12.9677 18.313 12.759C18.1043 12.5503 18 12.2973 18 12Z" fill="#171717"/>
</g>
<defs>
<clipPath id="clip0_4319_18050">
<rect width="18" height="20" fill="white" transform="translate(3 2)"/>
</clipPath>
</defs>
</svg>
