<svg width="24" height="24" viewBox="0 0 24 24" fill="none" xmlns="http://www.w3.org/2000/svg">
<path fill-rule="evenodd" clip-rule="evenodd" d="M7.00001 5.5C7.00001 3.01472 9.01472 1 11.5 1C12.7661 1 13.9095 1.52329 14.7263 2.36307C15.2705 2.1294 15.8702 2 16.5 2C18.9853 2 21 4.01472 21 6.5C21 8.98528 18.9853 11 16.5 11C15.2345 11 14.0911 10.4776 13.2734 9.63677C12.7288 9.87051 12.1289 10 11.5 10C9.01472 10 7.00001 7.98528 7.00001 5.5ZM12.2204 7.89492C12.0773 7.45575 12 6.98691 12 6.5C12 5.37981 12.4093 4.35522 13.0865 3.56763C12.6544 3.21233 12.1018 3 11.5 3C10.1193 3 9 4.11929 9 5.5C9 6.88071 10.1193 8 11.5 8C11.7509 8 11.9926 7.96328 12.2204 7.89492ZM16.5 4C15.1193 4 14 5.11929 14 6.5C14 7.88071 15.1193 9 16.5 9C17.8807 9 19 7.88071 19 6.5C19 5.11929 17.8807 4 16.5 4ZM3.56809 12L4.43189 12C4.68428 12 4.93007 11.9999 5.13824 12.0169C5.36683 12.0356 5.63656 12.0797 5.90799 12.218C6.28431 12.4097 6.59027 12.7157 6.78202 13.092C6.861 13.247 6.90925 13.4015 6.93958 13.548L8.53285 12.8818L8.54205 12.8776C8.55726 12.8708 8.57881 12.8612 8.60606 12.8492C8.66053 12.8252 8.73803 12.7916 8.83354 12.7516C9.02386 12.6719 9.28913 12.5653 9.58833 12.458C10.1413 12.2599 10.9678 12 11.6431 12C12.1223 12 12.599 12.0571 13.0643 12.1699L15.4497 12.75C16.5433 13.0152 17.3491 13.9573 17.4048 15.0844L18.8878 14.0025C19.9068 13.2594 21.3291 13.3548 22.2352 14.2363C23.2544 15.2277 23.2555 16.847 22.2352 17.8385L20.0776 19.9373C19.3555 20.6397 18.4379 21.1161 17.4442 21.3097L14.3945 21.903C13.6488 22.0478 12.8793 22.0305 12.1402 21.8505L9.38268 21.1804L9.3804 21.1798C9.12936 21.1182 8.87118 21.0872 8.6103 21.0872H6.98685C6.98569 21.1044 6.98443 21.1214 6.98306 21.1382C6.96438 21.3668 6.92032 21.6366 6.78202 21.908C6.59027 22.2843 6.28431 22.5903 5.90799 22.782C5.63656 22.9203 5.36683 22.9644 5.13824 22.9831C4.93008 23.0001 4.6843 23 4.43192 23H3.56816C3.31576 23 3.06995 23.0001 2.86177 22.9831C2.63318 22.9644 2.36345 22.9203 2.09202 22.782C1.7157 22.5903 1.40974 22.2843 1.21799 21.908C1.07969 21.6366 1.03563 21.3668 1.01695 21.1382C0.999943 20.9301 0.999973 20.6843 1 20.4319L1 14.5681C0.999973 14.3157 0.999943 14.0699 1.01695 13.8618C1.03563 13.6332 1.07969 13.3634 1.21799 13.092C1.40974 12.7157 1.7157 12.4097 2.09202 12.218C2.36345 12.0797 2.63318 12.0356 2.86178 12.0169C3.06993 11.9999 3.31571 12 3.56809 12ZM7.00001 19.0872H8.6103C9.02964 19.0872 9.44753 19.137 9.85593 19.2372C9.85636 19.2373 9.8568 19.2374 9.85723 19.2375L12.613 19.9072C13.0708 20.0187 13.5488 20.0298 14.0125 19.9398M14.0125 19.9398L17.0618 19.3466C17.0617 19.3466 17.0618 19.3465 17.0618 19.3466C17.6791 19.2263 18.2437 18.9311 18.6831 18.5037L20.8406 16.4049C21.052 16.1996 21.0535 15.8769 20.8406 15.6699C20.6373 15.472 20.3025 15.4461 20.0663 15.6183L17.5527 17.4522C17.0188 17.8424 16.3733 18.0498 15.7137 18.0498L13.2855 18.0498C12.7333 18.0498 12.2855 17.6021 12.2855 17.0499C12.2855 16.4976 12.7332 16.0499 13.2855 16.0498L14.831 16.0498C15.1761 16.0498 15.4079 15.7852 15.4079 15.5159V15.2091C15.4079 14.9836 15.2478 14.759 14.9784 14.6937L12.5929 14.1136C12.2818 14.0381 11.9633 14 11.6431 14C11.3537 14 10.8246 14.1396 10.2631 14.3408C10.0051 14.4332 9.77346 14.5263 9.60617 14.5964C9.52287 14.6313 9.4564 14.6601 9.41159 14.6798L9.36145 14.7021L9.34984 14.7073L9.34785 14.7082C9.33793 14.7127 9.32777 14.7172 9.31771 14.7214L7.00001 15.6906V19.0872M5.00001 15.048V20.4C5.00001 20.6965 4.99923 20.8588 4.9897 20.9754C4.98932 20.98 4.98894 20.9844 4.98856 20.9885C4.98441 20.9889 4.98001 20.9893 4.97537 20.9897C4.85879 20.9992 4.69653 21 4.4 21H3.6C3.30348 21 3.14123 20.9992 3.02464 20.9897C3.02 20.9893 3.0156 20.9889 3.01145 20.9885C3.01107 20.9844 3.01069 20.98 3.01031 20.9754C3.00078 20.8588 3.00001 20.6965 3.00001 20.4V14.6C3.00001 14.3035 3.00078 14.1412 3.01031 14.0246C3.01069 14.02 3.01107 14.0156 3.01145 14.0114C3.0156 14.0111 3.02 14.0107 3.02464 14.0103C3.14122 14.0008 3.30348 14 3.60001 14L4.40001 14C4.69653 14 4.85879 14.0008 4.97537 14.0103C4.98001 14.0107 4.98441 14.0111 4.98856 14.0114C4.98894 14.0156 4.98932 14.02 4.9897 14.0246C4.99923 14.1412 5.00001 14.3035 5.00001 14.6V15.0026C4.99966 15.0177 4.99966 15.0328 5.00001 15.048Z" fill="#0A0B0D"/>
</svg>
