<svg width="24" height="24" viewBox="0 0 24 24" fill="none" xmlns="http://www.w3.org/2000/svg">
<path d="M14.25 18H11.18C11.04 17.28 10.68 16.63 10.16 16.1C9.44 15.39 8.5 15 7.5 15H1.5V14.25C1.5 13.84 1.16 13.5 0.75 13.5C0.34 13.5 0 13.84 0 14.25V23.25C0 23.66 0.34 24 0.75 24C1.16 24 1.5 23.66 1.5 23.25V22.5H17.25C17.66 22.5 18 22.16 18 21.75C18 20.75 17.61 19.81 16.9 19.1C16.2 18.4 15.24 18 14.25 18ZM1.5 21V16.5H7.5C8.09 16.5 8.67 16.74 9.09 17.16C9.33 17.4 9.5 17.69 9.61 18H6.75C6.34 18 6 18.34 6 18.75C6 19.16 6.34 19.5 6.75 19.5H14.25C14.84 19.5 15.42 19.74 15.84 20.16C16.08 20.4 16.26 20.69 16.37 21H1.5Z" fill="#171717"/>
<path d="M18.75 0C15.86 0 13.5 2.35 13.5 5.25C13.5 8.15 15.86 10.5 18.75 10.5C21.64 10.5 24 8.15 24 5.25C24 2.35 21.64 0 18.75 0ZM18.75 9C16.68 9 15 7.32 15 5.25C15 3.18 16.68 1.5 18.75 1.5C20.82 1.5 22.5 3.18 22.5 5.25C22.5 7.32 20.82 9 18.75 9Z" fill="#171717"/>
<path d="M18.75 12C18.33 12 18 12.34 18 12.75C18 13.11 17.91 13.47 17.74 13.79C17.57 14.11 17.32 14.39 17.03 14.6C16.73 14.81 16.38 14.94 16.02 14.98C15.66 15.02 15.29 14.98 14.95 14.85C14.61 14.72 14.3 14.51 14.06 14.24C13.82 13.97 13.64 13.64 13.56 13.29C13.47 12.94 13.47 12.57 13.56 12.21C13.65 11.86 13.82 11.53 14.06 11.25C14.33 10.94 14.3 10.47 13.99 10.19C13.68 9.92 13.21 9.95 12.93 10.26C12.53 10.71 12.24 11.26 12.1 11.85C11.96 12.44 11.96 13.06 12.1 13.65C12.25 14.23 12.54 14.78 12.94 15.24C13.34 15.69 13.85 16.04 14.42 16.26C14.84 16.42 15.3 16.5 15.75 16.5C15.9 16.5 16.05 16.49 16.2 16.47C16.8 16.4 17.38 16.18 17.88 15.83C18.38 15.49 18.79 15.02 19.07 14.49C19.35 13.95 19.5 13.35 19.5 12.75C19.5 12.33 19.16 12 18.75 12Z" fill="#171717"/>
</svg>
