<svg width="24" height="24" viewBox="0 0 24 24" fill="none" xmlns="http://www.w3.org/2000/svg">
<path fill-rule="evenodd" clip-rule="evenodd" d="M16.8417 6.54843C15.6028 5.36678 13.9493 4.72304 12.2386 4.74949C9.10806 4.74949 6.44934 6.86147 5.50136 9.70537V9.70543C4.99871 11.1957 4.99871 12.8095 5.50135 14.2998H5.50575C6.45814 17.1393 9.11246 19.2513 12.243 19.2513C13.8589 19.2513 15.2463 18.838 16.3215 18.1079V18.1049C17.5869 17.2672 18.4511 15.9488 18.7201 14.4585H12.2386V9.83772H23.557C23.698 10.6402 23.7642 11.4603 23.7642 12.276C23.7642 15.9257 22.4598 19.0114 20.1904 21.1013L20.1927 21.1031C18.2042 22.9374 15.4749 24 12.2386 24C7.70152 24 3.55249 21.4426 1.51545 17.3906V17.3906C-0.18648 14 -0.186476 10.0052 1.51546 6.6146H1.51549L1.51545 6.61457C3.55249 2.55813 7.70152 0.000808637 12.2386 0.000808637C15.2192 -0.0344648 18.0984 1.08547 20.2677 3.12251L16.8417 6.54843Z" fill="#0A0B0D"/>
</svg>
