<svg width="24" height="24" viewBox="0 0 24 24" fill="none" xmlns="http://www.w3.org/2000/svg">
<g clip-path="url(#clip0_2861_15235)">
<path d="M22.38 1.76006C22.25 1.44006 22.01 1.17006 21.7 1.01006C21.4 0.850061 21.04 0.790061 20.7 0.860061C20.36 0.930061 20.05 1.11006 19.84 1.38006C19.62 1.65006 19.5 1.99006 19.5 2.33006V15.0401C19.5 15.0501 19.5 15.0701 19.5 15.0801C19.5 15.0901 19.5 15.1101 19.5 15.1201V22.5801C19.5 22.9901 19.84 23.3301 20.25 23.3301C20.66 23.3301 21 23.0001 21 22.5901V15.8401H22.5C22.9 15.8401 23.28 15.6801 23.56 15.4001C23.84 15.1201 24 14.7401 24 14.2801C24.01 10.4601 24.02 5.71006 22.38 1.76006ZM22.5 14.3401H21V2.34006C22.52 6.01006 22.51 10.5901 22.5 14.3401Z" fill="#171717"/>
<path d="M3.75 0.840061C3.34 0.840061 3 1.17006 3 1.59006V7.59006C3 7.79006 2.92 7.98006 2.78 8.12006C2.5 8.40006 2 8.40006 1.72 8.12006C1.58 7.98006 1.5 7.79006 1.5 7.59006V1.59006C1.5 1.18006 1.16 0.840061 0.75 0.840061C0.34 0.840061 0 1.17006 0 1.59006V7.59006C0 8.19006 0.23 8.76006 0.66 9.18006C0.9 9.42006 1.19 9.59006 1.5 9.70006V22.5901C1.5 23.0001 1.84 23.3401 2.25 23.3401C2.66 23.3401 3 23.0001 3 22.5901V9.70006C3.31 9.59006 3.6 9.42006 3.84 9.18006C4.27 8.75006 4.5 8.19006 4.5 7.59006V1.59006C4.5 1.17006 4.16 0.840061 3.75 0.840061Z" fill="#171717"/>
<path d="M11.82 5.36006C9.81 5.21006 7.85 5.83006 6.29 7.09006C5.96 7.35006 5.91 7.82006 6.17 8.14006C6.43 8.46006 6.9 8.51006 7.23 8.26006C8.5 7.24006 10.09 6.74006 11.72 6.86006C13.34 6.98006 14.85 7.70006 15.96 8.89006C16.11 9.05006 16.31 9.13006 16.51 9.13006C16.69 9.13006 16.88 9.06006 17.02 8.93006C17.32 8.65006 17.34 8.17006 17.06 7.87006C15.68 6.39006 13.82 5.50006 11.82 5.36006Z" fill="#171717"/>
<path d="M15.95 18.2901C15.35 18.9401 14.63 19.4501 13.81 19.8001C12.19 20.5101 10.31 20.5101 8.68 19.8001C7.87 19.4501 7.15 18.9401 6.54 18.2901C6.26 17.9901 5.78 17.9701 5.48 18.2501C5.18 18.5301 5.16 19.0101 5.44 19.3101C6.19 20.1101 7.07 20.7401 8.08 21.1701C9.08 21.6101 10.15 21.8301 11.24 21.8301C12.34 21.8301 13.4 21.6101 14.4 21.1701C15.41 20.7301 16.29 20.1101 17.04 19.3101C17.32 19.0101 17.31 18.5301 17 18.2501C16.69 17.9701 16.23 17.9901 15.95 18.2901Z" fill="#171717"/>
</g>
<defs>
<clipPath id="clip0_2861_15235">
<rect width="24" height="24" fill="white"/>
</clipPath>
</defs>
</svg>
