<svg width="24" height="24" viewBox="0 0 24 24" fill="none" xmlns="http://www.w3.org/2000/svg">
<path d="M22.3785 1.90788C22.2486 1.59512 22.0086 1.33122 21.6986 1.17484C21.3986 1.01846 21.0386 0.959813 20.6987 1.02823C20.3587 1.09665 20.0487 1.27258 19.8387 1.53647C19.6187 1.80037 19.4987 2.13268 19.4987 2.465V14.8876C19.4987 14.8974 19.4987 14.917 19.4987 14.9267C19.4987 14.9365 19.4987 14.9561 19.4987 14.9658V22.2572C19.4987 22.6579 19.8387 22.9902 20.2487 22.9902C20.6587 22.9902 20.9986 22.6677 20.9986 22.267V15.6696H22.4985C22.8985 15.6696 23.2785 15.5132 23.5585 15.2395C23.8385 14.9658 23.9984 14.5944 23.9984 14.1448C24.0084 10.4112 24.0184 5.76858 22.3785 1.90788ZM22.4985 14.2035H20.9986V2.47477C22.5185 6.0618 22.5085 10.5383 22.4985 14.2035Z" fill="#171717"/>
<path d="M3.74976 1.00868C3.33978 1.00868 2.99981 1.33122 2.99981 1.74173V7.60608C2.99981 7.80156 2.91981 7.98726 2.77982 8.1241C2.49984 8.39777 1.99987 8.39777 1.71989 8.1241C1.5799 7.98726 1.4999 7.80156 1.4999 7.60608V1.74173C1.4999 1.341 1.15992 1.00868 0.749951 1.00868C0.339978 1.00868 0 1.33122 0 1.74173V7.60608C0 8.19251 0.229985 8.74963 0.659957 9.16013C0.899942 9.3947 1.18992 9.56086 1.4999 9.66837V22.267C1.4999 22.6677 1.83988 23 2.24985 23C2.65983 23 2.99981 22.6677 2.99981 22.267V9.66837C3.30979 9.56086 3.59977 9.3947 3.83975 9.16013C4.26972 8.73985 4.49971 8.19251 4.49971 7.60608V1.74173C4.49971 1.33122 4.15973 1.00868 3.74976 1.00868Z" fill="#171717"/>
<path d="M11.8192 5.42649C9.80936 5.27989 7.84949 5.88587 6.28959 7.11738C5.95961 7.3715 5.90962 7.83088 6.1696 8.14364C6.42958 8.45641 6.89955 8.50528 7.22953 8.26093C8.49945 7.26399 10.0893 6.7753 11.7192 6.89258C13.3391 7.00987 14.849 7.71359 15.959 8.87669C16.109 9.03307 16.3089 9.11126 16.5089 9.11126C16.6889 9.11126 16.8789 9.04284 17.0189 8.91578C17.3189 8.64211 17.3389 8.17297 17.0589 7.87975C15.679 6.43321 13.8191 5.56333 11.8192 5.42649Z" fill="#171717"/>
<path d="M15.949 18.0642C15.349 18.6995 14.6291 19.1979 13.8091 19.54C12.1892 20.234 10.3093 20.234 8.67944 19.54C7.86949 19.1979 7.14954 18.6995 6.53958 18.0642C6.25959 17.771 5.77963 17.7514 5.47964 18.0251C5.17966 18.2987 5.15967 18.7679 5.43965 19.0611C6.1896 19.843 7.06954 20.4588 8.07948 20.8791C9.07941 21.3091 10.1493 21.5241 11.2393 21.5241C12.3392 21.5241 13.3991 21.3091 14.3991 20.8791C15.409 20.449 16.2889 19.843 17.0389 19.0611C17.3189 18.7679 17.3089 18.2987 16.9989 18.0251C16.6889 17.7514 16.2289 17.771 15.949 18.0642Z" fill="#171717"/>
</svg>
