<svg width="24" height="24" viewBox="0 0 24 24" fill="none" xmlns="http://www.w3.org/2000/svg">
<g clip-path="url(#clip0_2861_15235)">
<path d="M22.38 1.76006C22.25 1.44006 22.01 1.17006 21.7 1.01006C21.4 0.850061 21.04 0.790061 20.7 0.860061C20.36 0.930061 20.05 1.11006 19.84 1.38006C19.62 1.65006 19.5 1.99006 19.5 2.33006V15.0401C19.5 15.0501 19.5 15.0701 19.5 15.0801C19.5 15.0901 19.5 15.1101 19.5 15.1201V22.5801C19.5 22.9901 19.84 23.3301 20.25 23.3301C20.66 23.3301 21 23.0001 21 22.5901V15.8401H22.5C22.9 15.8401 23.28 15.6801 23.56 15.4001C23.84 15.1201 24 14.7401 24 14.2801C24.01 10.4601 24.02 5.71006 22.38 1.76006ZM22.5 14.3401H21V2.34006C22.52 6.01006 22.51 10.5901 22.5 14.3401Z" fill="#171717"/>
<path d="M3.75 0.840088C3.34 0.840088 3 1.17009 3 1.59009V7.59009C3 7.79009 2.92 7.98009 2.78 8.12009C2.5 8.40009 2 8.40009 1.72 8.12009C1.58 7.98009 1.5 7.79009 1.5 7.59009V1.59009C1.5 1.18009 1.16 0.840088 0.75 0.840088C0.34 0.840088 0 1.17009 0 1.59009V7.59009C0 8.19009 0.23 8.76009 0.66 9.18009C0.9 9.42009 1.19 9.59009 1.5 9.70009V22.5901C1.5 23.0001 1.84 23.3401 2.25 23.3401C2.66 23.3401 3 23.0001 3 22.5901V9.70009C3.31 9.59009 3.6 9.42009 3.84 9.18009C4.27 8.75009 4.5 8.19009 4.5 7.59009V1.59009C4.5 1.17009 4.16 0.840088 3.75 0.840088Z" fill="#171717"/>
<path d="M11.82 5.36005C9.81001 5.21005 7.85001 5.83005 6.29001 7.09005C5.96001 7.35005 5.91001 7.82005 6.17001 8.14005C6.43001 8.46005 6.90001 8.51005 7.23001 8.26005C8.50001 7.24005 10.09 6.74005 11.72 6.86005C13.34 6.98005 14.85 7.70005 15.96 8.89005C16.11 9.05005 16.31 9.13005 16.51 9.13005C16.69 9.13005 16.88 9.06005 17.02 8.93005C17.32 8.65005 17.34 8.17005 17.06 7.87005C15.68 6.39005 13.82 5.50005 11.82 5.36005Z" fill="#171717"/>
<path d="M15.95 18.2901C15.35 18.9401 14.63 19.4501 13.81 19.8001C12.19 20.5101 10.31 20.5101 8.67999 19.8001C7.86999 19.4501 7.14999 18.9401 6.53999 18.2901C6.25999 17.9901 5.77999 17.9701 5.47999 18.2501C5.17999 18.5301 5.15999 19.0101 5.43999 19.3101C6.18999 20.1101 7.06999 20.7401 8.07999 21.1701C9.07999 21.6101 10.15 21.8301 11.24 21.8301C12.34 21.8301 13.4 21.6101 14.4 21.1701C15.41 20.7301 16.29 20.1101 17.04 19.3101C17.32 19.0101 17.31 18.5301 17 18.2501C16.69 17.9701 16.23 17.9901 15.95 18.2901Z" fill="#171717"/>
</g>
<defs>
<clipPath id="clip0_2861_15235">
<rect width="24" height="24" fill="white"/>
</clipPath>
</defs>
</svg>
