<svg width="25" height="24" viewBox="0 0 25 24" fill="none" xmlns="http://www.w3.org/2000/svg">
<path d="M22.38 1.90788C22.25 1.59512 22.01 1.33122 21.7 1.17484C21.4 1.01846 21.04 0.959813 20.7 1.02823C20.36 1.09665 20.05 1.27258 19.84 1.53647C19.62 1.80037 19.5 2.13268 19.5 2.465V14.8876C19.5 14.8974 19.5 14.917 19.5 14.9267C19.5 14.9365 19.5 14.9561 19.5 14.9658V22.2572C19.5 22.6579 19.84 22.9902 20.25 22.9902C20.66 22.9902 21 22.6677 21 22.267V15.6696H22.5C22.9 15.6696 23.28 15.5132 23.56 15.2395C23.84 14.9658 24 14.5944 24 14.1448C24.01 10.4112 24.02 5.76858 22.38 1.90788ZM22.5 14.2035H21V2.47477C22.52 6.0618 22.51 10.5383 22.5 14.2035Z" fill="#171717"/>
<path d="M3.75 1.00868C3.34 1.00868 3 1.33122 3 1.74173V7.60608C3 7.80156 2.92 7.98726 2.78 8.1241C2.5 8.39777 2 8.39777 1.72 8.1241C1.58 7.98726 1.5 7.80156 1.5 7.60608V1.74173C1.5 1.341 1.16 1.00868 0.75 1.00868C0.34 1.00868 0 1.33122 0 1.74173V7.60608C0 8.19251 0.23 8.74963 0.66 9.16013C0.9 9.3947 1.19 9.56086 1.5 9.66837V22.267C1.5 22.6677 1.84 23 2.25 23C2.66 23 3 22.6677 3 22.267V9.66837C3.31 9.56086 3.6 9.3947 3.84 9.16013C4.27 8.73985 4.5 8.19251 4.5 7.60608V1.74173C4.5 1.33122 4.16 1.00868 3.75 1.00868Z" fill="#171717"/>
<path d="M11.82 5.42649C9.81 5.27989 7.85 5.88587 6.29 7.11738C5.96 7.3715 5.91 7.83088 6.17 8.14364C6.43 8.45641 6.9 8.50528 7.23 8.26093C8.5 7.26399 10.09 6.7753 11.72 6.89258C13.34 7.00987 14.85 7.71359 15.96 8.87669C16.11 9.03307 16.31 9.11126 16.51 9.11126C16.69 9.11126 16.88 9.04284 17.02 8.91578C17.32 8.64211 17.34 8.17297 17.06 7.87975C15.68 6.43321 13.82 5.56333 11.82 5.42649Z" fill="#171717"/>
<path d="M15.95 18.0642C15.35 18.6995 14.63 19.1979 13.81 19.54C12.19 20.234 10.31 20.234 8.68 19.54C7.87 19.1979 7.15 18.6995 6.54 18.0642C6.26 17.771 5.78 17.7514 5.48 18.0251C5.18 18.2987 5.16 18.7679 5.44 19.0611C6.19 19.843 7.07 20.4588 8.08 20.8791C9.08 21.3091 10.15 21.5241 11.24 21.5241C12.34 21.5241 13.4 21.3091 14.4 20.8791C15.41 20.449 16.29 19.843 17.04 19.0611C17.32 18.7679 17.31 18.2987 17 18.0251C16.69 17.7514 16.23 17.771 15.95 18.0642Z" fill="#171717"/>
</svg>
