<svg width="24" height="24" viewBox="0 0 24 24" fill="none" xmlns="http://www.w3.org/2000/svg">
<g clip-path="url(#clip0_2862_16000)">
<path d="M17.37 12.9799C17.12 12.6299 16.79 12.3499 16.41 12.1599C16.03 11.9699 15.6 11.8799 15.18 11.8799C14.77 11.8899 14.43 12.2299 14.44 12.6399C14.45 13.0499 14.79 13.3699 15.2 13.3799C15.37 13.3699 15.57 13.4199 15.73 13.4999C15.89 13.5799 16.03 13.7099 16.14 13.8499C16.25 13.9999 16.32 14.1699 16.34 14.3499C16.37 14.5299 16.35 14.7199 16.29 14.8899C16.15 15.2799 16.35 15.7099 16.74 15.8499C16.82 15.8799 16.91 15.8899 16.99 15.8899C17.3 15.8899 17.59 15.6999 17.7 15.3899C17.84 14.9899 17.89 14.5599 17.83 14.1399C17.78 13.7299 17.62 13.3199 17.37 12.9799Z" fill="#171717"/>
<path d="M23.84 4.64C23.6 4.08 23.06 3.75 22.35 3.75H15.4C15.41 3.64 15.43 3.54 15.43 3.43C15.43 1.54 13.89 0 12 0C10.11 0 8.57 1.54 8.57 3.43C8.57 3.54 8.59001 3.64 8.60001 3.75H1.65C0.940005 3.75 0.400004 4.07 0.160004 4.64C-0.209996 5.51 0.260005 6.8 1.36 7.93C2.44 9.04 4.14 9.98 6.16 9.98C6.96 9.98 7.81 9.83 8.69 9.49C9.08 9.34 9.27 8.91 9.12 8.52C8.97 8.14 8.54 7.95 8.15 8.1C5.16 9.26 3.08 7.53 2.52 6.97C1.67 6.14 1.48 5.39 1.5 5.27C1.5 5.27 1.54 5.25 1.65 5.25H9.10001C9.58001 6.01 10.35 6.58 11.25 6.78V15.71H8.82C8.5 15.7 8.2 15.57 7.98 15.34C7.76 15.11 7.63 14.81 7.63 14.5C7.63 14.19 7.76 13.91 7.98 13.69C8.2 13.48 8.48 13.36 8.78 13.36H8.79C9.22 13.36 9.54 13.03 9.55 12.62C9.55 12.21 9.22001 11.87 8.81001 11.86C8.10001 11.88 7.44 12.12 6.93 12.61C6.42 13.1 6.14 13.76 6.13 14.48C6.13 15.19 6.41 15.86 6.91 16.37C7.41 16.88 8.07 17.17 8.8 17.19H11.25V19.53H10.38C9.74 19.55 9.15 19.81 8.71 20.27C8.28 20.72 8.03 21.35 8.05 21.95C8.05 22.29 8.11 22.62 8.25 22.92C8.38 23.23 8.57 23.51 8.82 23.74C8.97 23.88 9.15 23.95 9.34 23.95C9.54 23.95 9.74 23.87 9.88 23.72C10.17 23.42 10.15 22.95 9.85001 22.66C9.75001 22.57 9.68 22.46 9.63 22.34C9.58 22.22 9.55 22.09 9.55 21.94C9.54 21.71 9.63 21.47 9.8 21.31C9.96 21.14 10.18 21.04 10.4 21.04H11.25V23.24C11.25 23.65 11.59 23.99 12 23.99C12.41 23.99 12.75 23.65 12.75 23.24V21.04H13.92C14.63 21.04 15.3 20.76 15.81 20.26C16.31 19.76 16.59 19.09 16.59 18.37C16.59 17.67 16.3 16.98 15.81 16.48C15.31 15.98 14.64 15.7 13.92 15.7H12.75V6.78C13.66 6.58 14.42 6.01 14.9 5.25H22.35C22.41 5.25 22.45 5.26 22.47 5.25C22.5 5.46 22.29 6.18 21.48 6.97C20.91 7.53 18.84 9.25 15.85 8.1C15.46 7.95 15.03 8.14 14.88 8.53C14.73 8.92 14.92 9.35 15.31 9.5C16.19 9.84 17.04 9.99 17.84 9.99C19.87 9.99 21.57 9.05 22.64 7.94C23.74 6.8 24.21 5.51 23.84 4.64ZM13.92 17.21C14.23 17.21 14.53 17.33 14.75 17.55C14.97 17.77 15.09 18.07 15.09 18.38C15.09 18.69 14.97 18.99 14.75 19.21C14.53 19.43 14.23 19.55 13.92 19.55H12.75V17.21H13.92V17.21ZM12 5.37C10.93 5.37 10.07 4.5 10.07 3.44C10.07 2.38 10.93 1.5 12 1.5C13.07 1.5 13.93 2.37 13.93 3.43C13.93 4.49 13.07 5.37 12 5.37Z" fill="#171717"/>
</g>
<defs>
<clipPath id="clip0_2862_16000">
<rect width="24" height="24" fill="white"/>
</clipPath>
</defs>
</svg>
