<svg width="24" height="24" viewBox="0 0 24 24" fill="none" xmlns="http://www.w3.org/2000/svg">
<path d="M17.3859 12.9854C17.1352 12.6353 16.8042 12.3551 16.4231 12.1651C16.0419 11.975 15.6107 11.885 15.1894 11.885C14.7782 11.895 14.4372 12.2351 14.4472 12.6453C14.4573 13.0554 14.7983 13.3756 15.2095 13.3856C15.38 13.3756 15.5806 13.4256 15.741 13.5056C15.9015 13.5857 16.0419 13.7157 16.1523 13.8558C16.2626 14.0058 16.3328 14.1759 16.3528 14.356C16.3829 14.5361 16.3629 14.7261 16.3027 14.8962C16.1623 15.2864 16.3629 15.7165 16.754 15.8566C16.8343 15.8866 16.9245 15.8966 17.0048 15.8966C17.3157 15.8966 17.6066 15.7065 17.7169 15.3964C17.8573 14.9962 17.9074 14.5661 17.8473 14.1459C17.7971 13.7357 17.6366 13.3256 17.3859 12.9854Z" fill="#171717"/>
<path d="M23.8751 4.64193C23.6343 4.0817 23.0927 3.75156 22.3806 3.75156H15.4101C15.4201 3.64152 15.4402 3.54148 15.4402 3.43143C15.4402 1.54064 13.8956 0 12 0C10.1044 0 8.55984 1.54064 8.55984 3.43143C8.55984 3.54148 8.5799 3.64152 8.58993 3.75156H1.61935C0.907252 3.75156 0.365653 4.0717 0.124942 4.64193C-0.246153 5.5123 0.225239 6.80283 1.3285 7.93331C2.41169 9.04377 4.11673 9.98416 6.14271 9.98416C6.94508 9.98416 7.79759 9.8341 8.6802 9.49396C9.07135 9.34389 9.26192 8.91372 9.11147 8.52355C8.96103 8.14339 8.52976 7.95331 8.1386 8.10338C5.13975 9.26386 3.05359 7.53314 2.49193 6.97291C1.63941 6.14256 1.44885 5.39225 1.46891 5.2722C1.46891 5.2722 1.50903 5.25219 1.61935 5.25219H9.09141C9.57283 6.01251 10.3451 6.58274 11.2478 6.78283V15.7165H8.81058C8.48964 15.7065 8.18875 15.5765 7.9681 15.3464C7.74745 15.1163 7.61706 14.8162 7.61706 14.506C7.61706 14.1959 7.74745 13.9158 7.9681 13.6957C8.18875 13.4856 8.46958 13.3656 8.77047 13.3656H8.7805C9.21177 13.3656 9.53272 13.0354 9.54275 12.6253C9.54275 12.2151 9.21177 11.8749 8.80056 11.8649C8.08845 11.885 7.4265 12.1251 6.91499 12.6153C6.40348 13.1055 6.12265 13.7657 6.11262 14.486C6.11262 15.1963 6.39345 15.8666 6.89493 16.3768C7.39641 16.887 8.05836 17.1772 8.79053 17.1972H11.2478V19.5381H10.3752C9.73331 19.5582 9.14156 19.8183 8.70026 20.2785C8.26898 20.7286 8.01825 21.3589 8.0383 21.9592C8.0383 22.2993 8.09848 22.6294 8.2389 22.9296C8.36928 23.2397 8.55984 23.5198 8.81058 23.7499C8.96103 23.89 9.14156 23.96 9.33212 23.96C9.53272 23.96 9.73331 23.8799 9.87372 23.7299C10.1646 23.4298 10.1445 22.9596 9.84363 22.6694C9.74334 22.5794 9.67313 22.4694 9.62298 22.3493C9.57283 22.2293 9.54275 22.0992 9.54275 21.9491C9.53272 21.7191 9.62298 21.479 9.79349 21.3189C9.95396 21.1488 10.1746 21.0488 10.3953 21.0488H11.2478V23.2497C11.2478 23.6599 11.5888 24 12 24C12.4112 24 12.7522 23.6599 12.7522 23.2497V21.0488H13.9257C14.6378 21.0488 15.3098 20.7687 15.8213 20.2684C16.3228 19.7682 16.6036 19.098 16.6036 18.3777C16.6036 17.6774 16.3127 16.9871 15.8213 16.4869C15.3198 15.9867 14.6478 15.7065 13.9257 15.7065H12.7522V6.78283C13.6649 6.58274 14.4272 6.01251 14.9086 5.25219H22.3806C22.4408 5.25219 22.4809 5.26219 22.501 5.25219C22.5311 5.46228 22.3205 6.18258 21.5081 6.97291C20.9364 7.53314 18.8603 9.25386 15.8614 8.10338C15.4702 7.95331 15.039 8.14339 14.8885 8.53356C14.7381 8.92372 14.9286 9.3539 15.3198 9.50396C16.2024 9.8441 17.0549 9.99416 17.8573 9.99416C19.8933 9.99416 21.5983 9.05377 22.6715 7.94331C23.7748 6.80283 24.2462 5.5123 23.8751 4.64193ZM13.9257 17.2172C14.2366 17.2172 14.5375 17.3372 14.7581 17.5573C14.9788 17.7774 15.0991 18.0775 15.0991 18.3877C15.0991 18.6978 14.9788 18.9979 14.7581 19.218C14.5375 19.4381 14.2366 19.5581 13.9257 19.5581H12.7522V17.2172H13.9257ZM12 5.37224C10.9268 5.37224 10.0643 4.50188 10.0643 3.44143C10.0643 2.38099 10.9268 1.50063 12 1.50063C13.0732 1.50063 13.9357 2.37099 13.9357 3.43143C13.9357 4.49187 13.0732 5.37224 12 5.37224Z" fill="#171717"/>
</svg>
