<svg width="24" height="24" viewBox="0 0 24 24" fill="none" xmlns="http://www.w3.org/2000/svg">
<path fill-rule="evenodd" clip-rule="evenodd" d="M8.16146 1H15.8385C16.3657 0.999983 16.8205 0.999967 17.195 1.03057C17.5904 1.06287 17.9836 1.13419 18.362 1.32698C18.9265 1.6146 19.3854 2.07354 19.673 2.63803C19.8658 3.01641 19.9371 3.40963 19.9694 3.80497C20 4.17955 20 4.63432 20 5.16148V18.8385C20 19.3657 20 19.8205 19.9694 20.195C19.9371 20.5904 19.8658 20.9836 19.673 21.362C19.3854 21.9265 18.9265 22.3854 18.362 22.673C17.9836 22.8658 17.5904 22.9371 17.195 22.9694C16.8205 23 16.3657 23 15.8386 23H8.16144C7.6343 23 7.17954 23 6.80497 22.9694C6.40963 22.9371 6.01641 22.8658 5.63803 22.673C5.07354 22.3854 4.6146 21.9265 4.32698 21.362C4.13419 20.9836 4.06287 20.5904 4.03057 20.195C3.99997 19.8205 3.99998 19.3657 4 18.8385V5.16146C3.99998 4.63431 3.99997 4.17955 4.03057 3.80497C4.06287 3.40963 4.13419 3.01641 4.32698 2.63803C4.6146 2.07354 5.07354 1.6146 5.63803 1.32698C6.01641 1.13419 6.40963 1.06287 6.80497 1.03057C7.17955 0.999967 7.63431 0.999983 8.16146 1ZM14 3H10V3.4C10 3.69653 10.0008 3.85878 10.0103 3.97537C10.0107 3.98001 10.0111 3.9844 10.0115 3.98855C10.0156 3.98894 10.02 3.98932 10.0246 3.9897C10.1412 3.99922 10.3035 4 10.6 4H13.4C13.6965 4 13.8588 3.99922 13.9754 3.9897C13.98 3.98932 13.9844 3.98894 13.9886 3.98855C13.9889 3.9844 13.9893 3.98001 13.9897 3.97537C13.9992 3.85878 14 3.69653 14 3.4V3ZM8 3.00007V3.4C8 3.41064 8 3.42128 8 3.4319C7.99997 3.68428 7.99994 3.93007 8.01695 4.13823C8.03562 4.36682 8.07969 4.63656 8.21799 4.90798C8.40974 5.28431 8.7157 5.59027 9.09202 5.78201C9.36344 5.92031 9.63318 5.96438 9.86177 5.98306C10.0699 6.00006 10.3157 6.00003 10.5681 6C10.5787 6 10.5894 6 10.6 6L13.4319 6C13.6843 6.00003 13.9301 6.00006 14.1382 5.98306C14.3668 5.96438 14.6366 5.92031 14.908 5.78201C15.2843 5.59027 15.5903 5.28431 15.782 4.90798C15.9203 4.63656 15.9644 4.36682 15.9831 4.13823C16.0001 3.93007 16 3.68427 16 3.43188L16 3.00007C16.4651 3.00052 16.783 3.00357 17.0322 3.02393C17.3038 3.04612 17.4045 3.0838 17.454 3.109C17.6422 3.20487 17.7951 3.35785 17.891 3.54601C17.9162 3.59546 17.9539 3.69617 17.9761 3.96784C17.9992 4.25117 18 4.62345 18 5.2V18.8C18 19.3766 17.9992 19.7488 17.9761 20.0322C17.9539 20.3038 17.9162 20.4045 17.891 20.454C17.7951 20.6422 17.6422 20.7951 17.454 20.891C17.4045 20.9162 17.3038 20.9539 17.0322 20.9761C16.7488 20.9992 16.3766 21 15.8 21H8.2C7.62345 21 7.25117 20.9992 6.96784 20.9761C6.69617 20.9539 6.59546 20.9162 6.54601 20.891C6.35785 20.7951 6.20487 20.6422 6.109 20.454C6.0838 20.4046 6.04612 20.3038 6.02393 20.0322C6.00078 19.7488 6 19.3766 6 18.8V5.2C6 4.62345 6.00078 4.25118 6.02393 3.96784C6.04612 3.69617 6.0838 3.59546 6.109 3.54601C6.20487 3.35785 6.35785 3.20487 6.54601 3.109C6.59546 3.0838 6.69617 3.04612 6.96784 3.02393C7.21698 3.00357 7.5349 3.00052 8 3.00007Z" fill="#0A0B0D"/>
</svg>
