<svg width="24" height="24" viewBox="0 0 24 24" fill="none" xmlns="http://www.w3.org/2000/svg">
<g clip-path="url(#clip0_2878_15092)">
<path d="M7.14005 4.99L8.68005 6.48L8.32005 8.59C8.28005 8.82 8.30005 9.05 8.39005 9.26C8.48005 9.47 8.62005 9.65 8.81005 9.78C9.00005 9.92 9.22005 10 9.45005 10.01C9.48005 10.01 9.51005 10.01 9.54005 10.01C9.74005 10.01 9.94005 9.96 10.11 9.87L12 8.89L13.9 9.88C14.11 9.99 14.33 10.04 14.56 10.02C14.79 10 15.01 9.93 15.19 9.79C15.37 9.66 15.52 9.48 15.61 9.26C15.7 9.05 15.72 8.82 15.69 8.58L15.33 6.48L16.86 4.99C17.02 4.83 17.14 4.63 17.2 4.41C17.26 4.19 17.25 3.96 17.17 3.72C17.09 3.5 16.96 3.31 16.79 3.17C16.61 3.02 16.4 2.93 16.18 2.9L14.05 2.59L13.1 0.68C13 0.48 12.84 0.3 12.64 0.18C12.25 -0.06 11.74 -0.06 11.35 0.18C11.16 0.31 11 0.48 10.9 0.68L9.95005 2.59L7.83005 2.9C7.60005 2.93 7.39005 3.02 7.21005 3.17C7.03005 3.32 6.90005 3.51 6.83005 3.73C6.76005 3.95 6.75005 4.18 6.80005 4.41C6.86005 4.63 6.98005 4.84 7.14005 4.99ZM10.3 4.06C10.5 4.03 10.69 3.95 10.84 3.84C11 3.73 11.13 3.57 11.22 3.39L12 1.83L12.77 3.39C12.86 3.57 12.99 3.72 13.15 3.83C13.31 3.95 13.5 4.02 13.7 4.05L15.41 4.3L14.17 5.51C14.03 5.65 13.93 5.82 13.87 6C13.81 6.19 13.79 6.39 13.83 6.59L14.12 8.3L12.58 7.5C12.4 7.4 12.2 7.35 12 7.35C11.8 7.35 11.6 7.4 11.43 7.49L9.89005 8.3L10.18 6.59C10.21 6.4 10.2 6.19 10.14 6.01C10.08 5.82 9.97005 5.65 9.83005 5.51L8.59005 4.3L10.3 4.06Z" fill="#171717"/>
<path d="M6.99001 10.4499C7.18001 10.0799 7.04001 9.62989 6.67001 9.43989L5.80001 8.98989C5.45001 8.80989 5.01001 8.80989 4.66001 8.98989L3.12001 9.78989L3.41001 8.07989C3.44001 7.88989 3.43001 7.67989 3.37001 7.49989C3.31001 7.30989 3.20001 7.13989 3.06001 6.99989L1.82001 5.79989L3.53001 5.54989C3.73001 5.51989 3.92001 5.43989 4.07001 5.32989C4.23001 5.20989 4.37001 5.05989 4.46001 4.87989L5.41001 2.97989C5.74001 2.89989 5.98001 2.59989 5.98001 2.24989C5.98001 1.83989 5.65001 1.49989 5.23001 1.49989C5.03001 1.47989 4.78001 1.55989 4.59001 1.67989C4.39001 1.79989 4.23001 1.96989 4.13001 2.17989L3.18001 4.08989L1.06001 4.38989C0.830007 4.41989 0.620008 4.51989 0.440007 4.65989C0.270007 4.80989 0.140007 4.99989 0.0600075 5.21989C-0.00999252 5.43989 -0.0199925 5.67989 0.0400075 5.89989C0.0900075 6.11989 0.210007 6.32989 0.380007 6.48989L1.92001 7.97989L1.56001 10.0799C1.52001 10.3099 1.55001 10.5399 1.64001 10.7599C1.73001 10.9699 1.87001 11.1599 2.06001 11.2899C2.25001 11.4199 2.46001 11.4999 2.70001 11.5199C2.73001 11.5199 2.75001 11.5199 2.78001 11.5199C2.98001 11.5199 3.18001 11.4699 3.35001 11.3799L5.24001 10.3899L5.98001 10.7799C6.34001 10.9599 6.80001 10.8199 6.99001 10.4499Z" fill="#171717"/>
<path d="M23.94 5.22C23.87 5 23.74 4.81 23.56 4.66C23.39 4.52 23.17 4.42 22.95 4.39L20.82 4.08L19.87 2.18C19.77 1.97 19.61 1.8 19.42 1.68C19.22 1.56 19 1.5 18.77 1.5C18.77 1.5 18.77 1.5 18.76 1.5C18.35 1.5 18.01 1.84 18.01 2.25C18.01 2.6 18.26 2.9 18.59 2.98L19.53 4.88C19.62 5.06 19.75 5.22 19.91 5.33C20.07 5.45 20.26 5.52 20.46 5.55L22.17 5.8L20.94 7C20.8 7.13 20.69 7.3 20.63 7.5C20.57 7.69 20.56 7.89 20.59 8.08L20.88 9.79L19.34 8.99C18.99 8.81 18.55 8.81 18.19 8.99L17.33 9.44C16.96 9.63 16.82 10.09 17.01 10.45C17.2 10.82 17.65 10.96 18.02 10.77L18.76 10.38L20.66 11.37C20.84 11.46 21.03 11.51 21.23 11.51C21.26 11.51 21.29 11.51 21.31 11.51C21.54 11.49 21.76 11.42 21.94 11.29C22.13 11.16 22.28 10.97 22.36 10.76C22.45 10.55 22.47 10.32 22.44 10.08L22.08 7.98L23.62 6.49C23.79 6.33 23.9 6.12 23.95 5.91C24.02 5.67 24.01 5.43 23.94 5.22Z" fill="#171717"/>
<path d="M15.0701 20.88C13.1201 20 10.8801 20 8.93007 20.88C7.96007 21.32 7.11007 21.95 6.41007 22.75C6.14007 23.06 6.17007 23.54 6.48007 23.81C6.79007 24.08 7.27007 24.05 7.54007 23.74C8.10007 23.1 8.78007 22.6 9.55007 22.24C11.1001 21.54 12.9001 21.54 14.4501 22.24C15.2201 22.59 15.9101 23.1 16.4601 23.74C16.6101 23.91 16.8201 24 17.0201 24C17.2001 24 17.3701 23.94 17.5101 23.81C17.8201 23.54 17.8501 23.06 17.5801 22.75C16.9001 21.96 16.0301 21.31 15.0701 20.88Z" fill="#171717"/>
<path d="M12 10.46C9.31 10.46 7.13 12.65 7.13 15.34C7.13 18.03 9.32 20.22 12 20.22C14.68 20.22 16.88 18.03 16.88 15.34C16.88 12.65 14.69 10.46 12 10.46ZM12 18.71C10.14 18.71 8.62 17.2 8.62 15.33C8.62 13.46 10.13 11.95 12 11.95C13.87 11.95 15.38 13.46 15.38 15.33C15.38 17.2 13.86 18.71 12 18.71Z" fill="#171717"/>
</g>
<defs>
<clipPath id="clip0_2878_15092">
<rect width="24" height="24" fill="white"/>
</clipPath>
</defs>
</svg>
