<svg width="24" height="24" viewBox="0 0 24 24" fill="none" xmlns="http://www.w3.org/2000/svg">
<path d="M7.1394 4.99L8.6794 6.48L8.3194 8.59C8.2794 8.82 8.2994 9.05 8.3894 9.26C8.4794 9.47 8.6194 9.65 8.8094 9.78C8.9994 9.92 9.2194 10 9.4494 10.01C9.4794 10.01 9.5094 10.01 9.5394 10.01C9.7394 10.01 9.9394 9.96 10.1094 9.87L11.9994 8.89L13.8994 9.88C14.1094 9.99 14.3294 10.04 14.5594 10.02C14.7894 10 15.0094 9.93 15.1894 9.79C15.3694 9.66 15.5194 9.48 15.6094 9.26C15.6994 9.05 15.7194 8.82 15.6894 8.58L15.3294 6.48L16.8594 4.99C17.0194 4.83 17.1394 4.63 17.1994 4.41C17.2594 4.19 17.2494 3.96 17.1694 3.72C17.0894 3.5 16.9594 3.31 16.7894 3.17C16.6094 3.02 16.3994 2.93 16.1794 2.9L14.0494 2.59L13.0994 0.68C12.9994 0.48 12.8394 0.3 12.6394 0.18C12.2494 -0.06 11.7394 -0.06 11.3494 0.18C11.1594 0.31 10.9994 0.48 10.8994 0.68L9.9494 2.59L7.8294 2.9C7.5994 2.93 7.3894 3.02 7.2094 3.17C7.0294 3.32 6.8994 3.51 6.8294 3.73C6.7594 3.95 6.7494 4.18 6.7994 4.41C6.8594 4.63 6.9794 4.84 7.1394 4.99ZM10.2994 4.06C10.4994 4.03 10.6894 3.95 10.8394 3.84C10.9994 3.73 11.1294 3.57 11.2194 3.39L11.9994 1.83L12.7694 3.39C12.8594 3.57 12.9894 3.72 13.1494 3.83C13.3094 3.95 13.4994 4.02 13.6994 4.05L15.4094 4.3L14.1694 5.51C14.0294 5.65 13.9294 5.82 13.8694 6C13.8094 6.19 13.7894 6.39 13.8294 6.59L14.1194 8.3L12.5794 7.5C12.3994 7.4 12.1994 7.35 11.9994 7.35C11.7994 7.35 11.5994 7.4 11.4294 7.49L9.8894 8.3L10.1794 6.59C10.2094 6.4 10.1994 6.19 10.1394 6.01C10.0794 5.82 9.9694 5.65 9.8294 5.51L8.5894 4.3L10.2994 4.06Z" fill="#1D2127"/>
<path d="M6.9894 10.45C7.1794 10.08 7.0394 9.63 6.6694 9.44L5.7994 8.99C5.4494 8.81 5.0094 8.81 4.6594 8.99L3.1194 9.79L3.4094 8.08C3.4394 7.89 3.4294 7.68 3.3694 7.5C3.3094 7.31 3.1994 7.14 3.0594 7L1.8194 5.8L3.5294 5.55C3.7294 5.52 3.9194 5.44 4.0694 5.33C4.2294 5.21 4.3694 5.06 4.4594 4.88L5.4094 2.98C5.7394 2.9 5.9794 2.6 5.9794 2.25C5.9794 1.84 5.6494 1.5 5.2294 1.5C5.0294 1.48 4.7794 1.56 4.5894 1.68C4.3894 1.8 4.2294 1.97 4.1294 2.18L3.1794 4.09L1.0594 4.39C0.829397 4.42 0.619397 4.52 0.439397 4.66C0.269397 4.81 0.139397 5 0.0593971 5.22C-0.0106029 5.44 -0.0206029 5.68 0.0393971 5.9C0.0893971 6.12 0.209397 6.33 0.379397 6.49L1.9194 7.98L1.5594 10.08C1.5194 10.31 1.5494 10.54 1.6394 10.76C1.7294 10.97 1.8694 11.16 2.0594 11.29C2.2494 11.42 2.4594 11.5 2.6994 11.52C2.7294 11.52 2.7494 11.52 2.7794 11.52C2.9794 11.52 3.1794 11.47 3.3494 11.38L5.2394 10.39L5.9794 10.78C6.3394 10.96 6.7994 10.82 6.9894 10.45Z" fill="#1D2127"/>
<path d="M23.9394 5.22C23.8694 5 23.7394 4.81 23.5594 4.66C23.3894 4.52 23.1694 4.42 22.9494 4.39L20.8194 4.08L19.8694 2.18C19.7694 1.97 19.6094 1.8 19.4194 1.68C19.2194 1.56 18.9994 1.5 18.7694 1.5C18.7694 1.5 18.7694 1.5 18.7594 1.5C18.3494 1.5 18.0094 1.84 18.0094 2.25C18.0094 2.6 18.2594 2.9 18.5894 2.98L19.5294 4.88C19.6194 5.06 19.7494 5.22 19.9094 5.33C20.0694 5.45 20.2594 5.52 20.4594 5.55L22.1694 5.8L20.9394 7C20.7994 7.13 20.6894 7.3 20.6294 7.5C20.5694 7.69 20.5594 7.89 20.5894 8.08L20.8794 9.79L19.3394 8.99C18.9894 8.81 18.5494 8.81 18.1894 8.99L17.3294 9.44C16.9594 9.63 16.8194 10.09 17.0094 10.45C17.1994 10.82 17.6494 10.96 18.0194 10.77L18.7594 10.38L20.6594 11.37C20.8394 11.46 21.0294 11.51 21.2294 11.51C21.2594 11.51 21.2894 11.51 21.3094 11.51C21.5394 11.49 21.7594 11.42 21.9394 11.29C22.1294 11.16 22.2794 10.97 22.3594 10.76C22.4494 10.55 22.4694 10.32 22.4394 10.08L22.0794 7.98L23.6194 6.49C23.7894 6.33 23.8994 6.12 23.9494 5.91C24.0194 5.67 24.0094 5.43 23.9394 5.22Z" fill="#1D2127"/>
<path d="M15.0694 20.88C13.1194 20 10.8794 20 8.9294 20.88C7.9594 21.32 7.1094 21.95 6.4094 22.75C6.1394 23.06 6.1694 23.54 6.4794 23.81C6.7894 24.08 7.2694 24.05 7.5394 23.74C8.0994 23.1 8.7794 22.6 9.5494 22.24C11.0994 21.54 12.8994 21.54 14.4494 22.24C15.2194 22.59 15.9094 23.1 16.4594 23.74C16.6094 23.91 16.8194 24 17.0194 24C17.1994 24 17.3694 23.94 17.5094 23.81C17.8194 23.54 17.8494 23.06 17.5794 22.75C16.8994 21.96 16.0294 21.31 15.0694 20.88Z" fill="#1D2127"/>
<path d="M11.9994 10.46C9.3094 10.46 7.1294 12.65 7.1294 15.34C7.1294 18.03 9.3194 20.22 11.9994 20.22C14.6794 20.22 16.8794 18.03 16.8794 15.34C16.8794 12.65 14.6894 10.46 11.9994 10.46ZM11.9994 18.71C10.1394 18.71 8.6194 17.2 8.6194 15.33C8.6194 13.46 10.1294 11.95 11.9994 11.95C13.8694 11.95 15.3794 13.46 15.3794 15.33C15.3794 17.2 13.8594 18.71 11.9994 18.71Z" fill="#1D2127"/>
</svg>
