<svg width="24" height="24" viewBox="0 0 24 24" fill="none" xmlns="http://www.w3.org/2000/svg">
<path d="M12.0013 22C13.1614 22 14.1107 21.0769 14.1107 19.9487H9.89194C9.89194 21.0769 10.8306 22 12.0013 22ZM18.3294 15.8462V10.7179C18.3294 7.56923 16.5997 4.93333 13.5833 4.2359V3.53846C13.5833 2.68718 12.8767 2 12.0013 2C11.1259 2 10.4193 2.68718 10.4193 3.53846V4.2359C7.39235 4.93333 5.67322 7.55897 5.67322 10.7179V15.8462L4.31269 17.1692C3.64824 17.8154 4.1123 18.9231 5.05096 18.9231H18.9411C19.8798 18.9231 20.3544 17.8154 19.6899 17.1692L18.3294 15.8462Z" fill="#171717"/>
</svg>
