<svg width="24" height="24" viewBox="0 0 24 24" fill="none" xmlns="http://www.w3.org/2000/svg">
<path d="M8.25 21.0758H6.75C6.34 21.0758 6 21.4256 6 21.8475C6 22.2694 6.34 22.6193 6.75 22.6193H8.25C8.66 22.6193 9 22.2694 9 21.8475C9 21.4256 8.66 21.0758 8.25 21.0758Z" fill="#1D2127"/>
<path d="M3.75 23C4.36856 23 4.87 22.484 4.87 21.8475C4.87 21.211 4.36856 20.695 3.75 20.695C3.13144 20.695 2.63 21.211 2.63 21.8475C2.63 22.484 3.13144 23 3.75 23Z" fill="#1D2127"/>
<path d="M11.25 23C11.8686 23 12.37 22.484 12.37 21.8475C12.37 21.211 11.8686 20.695 11.25 20.695C10.6314 20.695 10.13 21.211 10.13 21.8475C10.13 22.484 10.6314 23 11.25 23Z" fill="#1D2127"/>
<path d="M13.5 17.217H10.5V15.6735C10.5 15.2722 10.34 14.8709 10.06 14.5828C9.78 14.2947 9.4 14.13 9 14.13H6.42C5.92 14.13 5.43 14.305 5.04 14.6239C4.65 14.9429 4.36 15.3854 4.24 15.8896L3.92 17.217H2.25C1.65 17.217 1.08 17.4537 0.66 17.8962C0.24 18.3283 0 18.9252 0 19.5323V21.0758C0 21.4977 0.34 21.8475 0.75 21.8475C1.16 21.8475 1.5 21.4977 1.5 21.0758V19.5323C1.5 19.3265 1.58 19.131 1.72 18.9869C1.86 18.8428 2.05 18.7605 2.25 18.7605H4.5C4.84 18.7605 5.14 18.5239 5.23 18.174L5.7 16.2601C5.74 16.0954 5.83 15.9411 5.97 15.8382C6.1 15.7353 6.26 15.6735 6.43 15.6735H9V17.9888C9 18.4107 9.34 18.7605 9.75 18.7605H13.5V21.0758C13.5 21.4977 13.84 21.8475 14.25 21.8475C14.66 21.8475 15 21.5079 15 21.0758V18.7605C15 18.3592 14.84 17.9579 14.56 17.6698C14.28 17.3817 13.89 17.217 13.5 17.217Z" fill="#1D2127"/>
<path d="M11.25 7.95603C13.11 7.95603 14.63 6.40224 14.63 4.47802C14.63 2.55379 13.12 1 11.25 1C9.39 1 7.87 2.55379 7.87 4.47802C7.87 6.40224 9.39 7.95603 11.25 7.95603ZM11.25 2.55379C12.28 2.55379 13.13 3.41815 13.13 4.48831C13.13 5.55847 12.29 6.42282 11.25 6.42282C10.22 6.42282 9.37 5.55847 9.37 4.48831C9.37 3.41815 10.22 2.55379 11.25 2.55379Z" fill="#1D2127"/>
<path d="M23.34 16.3527C22.92 15.9205 22.34 15.6735 21.75 15.6735H21.25L22.36 12.6277C22.54 12.1441 22.55 11.5987 22.4 11.1048C22.24 10.6109 21.93 10.1787 21.51 9.89055L17.01 6.80355C16.55 6.48456 15.99 6.35079 15.44 6.43312C14.89 6.51543 14.39 6.80355 14.03 7.24602L10.28 11.8765C10.09 12.1132 9.95 12.3807 9.86 12.6688C9.77 12.957 9.74 13.2657 9.77 13.5641C9.8 13.8728 9.88 14.1609 10.02 14.4387C10.16 14.7063 10.34 14.9429 10.57 15.1384C10.8 15.334 11.06 15.478 11.34 15.5706C11.62 15.6632 11.92 15.6941 12.21 15.6632C12.51 15.6324 12.79 15.55 13.05 15.406C13.31 15.2619 13.54 15.0767 13.73 14.84L16.19 11.8045L17.53 12.7203L15.91 17.1759C15.78 17.5257 15.74 17.9065 15.78 18.2769C15.82 18.6473 15.96 19.0075 16.16 19.3059C16.36 19.6146 16.64 19.8616 16.96 20.0365C17.28 20.2114 17.64 20.304 18 20.304H21.75C22.34 20.304 22.92 20.0571 23.34 19.6249C23.76 19.1927 24 18.6062 24 17.9888C24 17.3817 23.76 16.7848 23.34 16.3527ZM22.28 18.5341C22.14 18.6782 21.95 18.7605 21.75 18.7605H18C17.88 18.7605 17.76 18.7297 17.65 18.6679C17.54 18.6062 17.45 18.5239 17.38 18.421C17.31 18.3181 17.27 18.2049 17.25 18.0814C17.24 17.9579 17.25 17.8344 17.29 17.7109L19.12 12.6791C19.24 12.3396 19.12 11.9691 18.83 11.7633L16.44 10.1272C16.31 10.0449 16.17 9.99345 16.02 9.99345C15.8 9.99345 15.59 10.0861 15.44 10.2713L12.55 13.8419C12.49 13.9242 12.41 13.986 12.32 14.0271C12.23 14.0786 12.14 14.0992 12.04 14.1094C11.94 14.1197 11.84 14.1094 11.75 14.0786C11.66 14.0477 11.57 13.9963 11.49 13.9345C11.42 13.8728 11.35 13.7905 11.31 13.6978C11.26 13.6052 11.24 13.5126 11.23 13.4097C11.22 13.3068 11.23 13.2039 11.26 13.1113C11.29 13.0084 11.34 12.9261 11.4 12.8438L15.15 8.21328C15.27 8.06922 15.44 7.96632 15.62 7.94574C15.81 7.91487 15.99 7.96632 16.15 8.06922L20.65 11.1562C20.79 11.2488 20.9 11.3929 20.95 11.5575C21 11.7222 21 11.9074 20.94 12.0617L19.45 16.1469C19.36 16.3835 19.4 16.6511 19.54 16.8569C19.68 17.0627 19.91 17.1862 20.16 17.1862H21.74C21.94 17.1862 22.13 17.2685 22.27 17.4125C22.41 17.5566 22.49 17.7521 22.49 17.9579C22.5 18.1946 22.42 18.3901 22.28 18.5341Z" fill="#1D2127"/>
</svg>
