<svg width="24" height="24" viewBox="0 0 24 24" fill="none" xmlns="http://www.w3.org/2000/svg">
<path d="M8.25 20.8101H6.75C6.34 20.8101 6 21.1501 6 21.5601C6 21.9701 6.34 22.3101 6.75 22.3101H8.25C8.66 22.3101 9 21.9701 9 21.5601C9 21.1501 8.66 20.8101 8.25 20.8101Z" fill="#171717"/>
<path d="M3.75 22.6799C4.36856 22.6799 4.87 22.1785 4.87 21.5599C4.87 20.9414 4.36856 20.4399 3.75 20.4399C3.13145 20.4399 2.63 20.9414 2.63 21.5599C2.63 22.1785 3.13145 22.6799 3.75 22.6799Z" fill="#171717"/>
<path d="M11.25 22.6799C11.8686 22.6799 12.37 22.1785 12.37 21.5599C12.37 20.9414 11.8686 20.4399 11.25 20.4399C10.6314 20.4399 10.13 20.9414 10.13 21.5599C10.13 22.1785 10.6314 22.6799 11.25 22.6799Z" fill="#171717"/>
<path d="M13.5 17.0601H10.5V15.5601C10.5 15.1701 10.34 14.7801 10.06 14.5001C9.78 14.2201 9.4 14.0601 9 14.0601H6.42C5.92 14.0601 5.43 14.2301 5.04 14.5401C4.65 14.8501 4.36 15.2801 4.24 15.7701L3.92 17.0601H2.25C1.65 17.0601 1.08 17.2901 0.66 17.7201C0.24 18.1401 0 18.7201 0 19.3101V20.8101C0 21.2201 0.34 21.5601 0.75 21.5601C1.16 21.5601 1.5 21.2201 1.5 20.8101V19.3101C1.5 19.1101 1.58 18.9201 1.72 18.7801C1.86 18.6401 2.05 18.5601 2.25 18.5601H4.5C4.84 18.5601 5.14 18.3301 5.23 17.9901L5.7 16.1301C5.74 15.9701 5.83 15.8201 5.97 15.7201C6.1 15.6201 6.26 15.5601 6.43 15.5601H9V17.8101C9 18.2201 9.34 18.5601 9.75 18.5601H13.5V20.8101C13.5 21.2201 13.84 21.5601 14.25 21.5601C14.66 21.5601 15 21.2301 15 20.8101V18.5601C15 18.1701 14.84 17.7801 14.56 17.5001C14.28 17.2201 13.89 17.0601 13.5 17.0601Z" fill="#171717"/>
<path d="M11.25 8.06005C13.11 8.06005 14.63 6.55005 14.63 4.68005C14.63 2.81005 13.12 1.30005 11.25 1.30005C9.39 1.30005 7.87 2.81005 7.87 4.68005C7.87 6.55005 9.39 8.06005 11.25 8.06005ZM11.25 2.81005C12.28 2.81005 13.13 3.65005 13.13 4.69005C13.13 5.73005 12.29 6.57005 11.25 6.57005C10.22 6.57005 9.37 5.73005 9.37 4.69005C9.37 3.65005 10.22 2.81005 11.25 2.81005Z" fill="#171717"/>
<path d="M23.34 16.22C22.92 15.8 22.34 15.56 21.75 15.56H21.25L22.36 12.6C22.54 12.13 22.55 11.6 22.4 11.12C22.24 10.64 21.93 10.22 21.51 9.93995L17.01 6.93995C16.55 6.62995 15.99 6.49995 15.44 6.57995C14.89 6.65995 14.39 6.93995 14.03 7.36995L10.28 11.87C10.09 12.1 9.95001 12.36 9.86001 12.64C9.77001 12.92 9.74001 13.22 9.77001 13.51C9.80001 13.81 9.88001 14.09 10.02 14.36C10.16 14.62 10.34 14.85 10.57 15.04C10.8 15.23 11.06 15.37 11.34 15.46C11.62 15.55 11.92 15.58 12.21 15.55C12.51 15.52 12.79 15.44 13.05 15.3C13.31 15.16 13.54 14.98 13.73 14.75L16.19 11.8L17.53 12.69L15.91 17.02C15.78 17.36 15.74 17.73 15.78 18.09C15.82 18.45 15.96 18.8 16.16 19.09C16.36 19.39 16.64 19.63 16.96 19.8C17.28 19.97 17.64 20.06 18 20.06H21.75C22.34 20.06 22.92 19.82 23.34 19.4C23.76 18.98 24 18.41 24 17.81C24 17.22 23.76 16.64 23.34 16.22ZM22.28 18.34C22.14 18.48 21.95 18.56 21.75 18.56H18C17.88 18.56 17.76 18.53 17.65 18.47C17.54 18.41 17.45 18.33 17.38 18.23C17.31 18.13 17.27 18.02 17.25 17.9C17.24 17.78 17.25 17.66 17.29 17.54L19.12 12.65C19.24 12.32 19.12 11.96 18.83 11.76L16.44 10.17C16.31 10.09 16.17 10.04 16.02 10.04C15.8 10.04 15.59 10.13 15.44 10.31L12.55 13.78C12.49 13.86 12.41 13.92 12.32 13.96C12.23 14.01 12.14 14.03 12.04 14.04C11.94 14.05 11.84 14.04 11.75 14.01C11.66 13.98 11.57 13.93 11.49 13.87C11.42 13.81 11.35 13.73 11.31 13.64C11.26 13.55 11.24 13.46 11.23 13.36C11.22 13.26 11.23 13.16 11.26 13.07C11.29 12.97 11.34 12.89 11.4 12.81L15.15 8.30995C15.27 8.16995 15.44 8.06995 15.62 8.04995C15.81 8.01995 15.99 8.06995 16.15 8.16995L20.65 11.17C20.79 11.26 20.9 11.4 20.95 11.56C21 11.72 21 11.9 20.94 12.05L19.45 16.02C19.36 16.25 19.4 16.51 19.54 16.71C19.68 16.91 19.91 17.03 20.16 17.03H21.74C21.94 17.03 22.13 17.11 22.27 17.25C22.41 17.39 22.49 17.58 22.49 17.78C22.5 18.01 22.42 18.2 22.28 18.34Z" fill="#171717"/>
</svg>
