<svg width="24" height="24" viewBox="0 0 24 24" fill="none" xmlns="http://www.w3.org/2000/svg">
<path fill-rule="evenodd" clip-rule="evenodd" d="M19.334 6.07981L11.668 13.7458L14.0011 19.7452L19.334 6.07981ZM10.2538 12.3315L17.9198 4.6656L4.25438 9.99843L10.2538 12.3315ZM20.6472 1.47418C20.8303 1.42096 21.1988 1.32535 21.5946 1.45757C22.0417 1.60694 22.3926 1.95785 22.542 2.40499C22.6742 2.80076 22.5786 3.16922 22.5254 3.35241C22.4674 3.55204 22.3745 3.78996 22.2813 4.02866L15.6639 20.9858C15.5598 21.2526 15.459 21.511 15.3604 21.7105C15.2751 21.8829 15.0855 22.2492 14.6919 22.4537C14.2578 22.6792 13.741 22.6789 13.3072 22.4529C12.9139 22.2479 12.7246 21.8814 12.6396 21.7089C12.5412 21.5093 12.4407 21.2508 12.3369 20.9839L9.72699 14.2726L3.05101 11.6764C3.03924 11.6718 3.02748 11.6672 3.01574 11.6627C2.74878 11.5589 2.49024 11.4584 2.29065 11.36C2.11819 11.2749 1.75163 11.0857 1.54668 10.6923C1.32067 10.2585 1.32036 9.74178 1.54586 9.30772C1.75035 8.91411 2.11669 8.72442 2.28905 8.6392C2.48853 8.54057 2.74695 8.43976 3.01379 8.33566C3.02552 8.33109 3.03727 8.3265 3.04904 8.32191L19.9709 1.71826C20.2096 1.62506 20.4475 1.53216 20.6472 1.47418Z" fill="#101C2D"/>
</svg>
