<svg width="24" height="24" viewBox="0 0 24 24" fill="none" xmlns="http://www.w3.org/2000/svg">
<path opacity="0.2" d="M12.0002 22.7145C10.7683 22.7145 10.7578 21.8182 9.69651 21.0535C7.85028 19.7235 5.0124 18.1582 2.75283 17.8519C2.3478 17.807 1.97373 17.6138 1.70281 17.3093C1.43188 17.0049 1.28332 16.6109 1.2858 16.2034V2.93408C1.28578 2.696 1.33734 2.46073 1.43694 2.24446C1.53653 2.0282 1.68179 1.83608 1.86273 1.68133C2.04046 1.52938 2.24851 1.41699 2.47303 1.35163C2.69755 1.28626 2.9334 1.26942 3.16493 1.3022C6.56765 1.86694 9.68047 3.56273 12.0002 6.11544V22.7145Z" fill="#1D2127"/>
<path d="M12.0002 22.7145C10.7683 22.7145 10.7578 21.8182 9.69651 21.0535C7.85028 19.7235 5.0124 18.1582 2.75283 17.8519C2.3478 17.807 1.97373 17.6138 1.70281 17.3093C1.43188 17.0049 1.28332 16.6109 1.2858 16.2034V2.93408C1.28578 2.696 1.33734 2.46073 1.43694 2.24446C1.53653 2.0282 1.68179 1.83608 1.86273 1.68133C2.04046 1.52938 2.24851 1.41699 2.47303 1.35163C2.69755 1.28626 2.9334 1.26942 3.16493 1.3022C6.56765 1.86694 9.68047 3.56273 12.0002 6.11544M12.0002 22.7145V6.11544M12.0002 22.7145C13.2321 22.7145 13.2423 21.8182 14.3036 21.0535C16.1498 19.7235 18.9877 18.1582 21.2473 17.8519C21.6523 17.807 22.0264 17.6138 22.2973 17.3093C22.5683 17.0049 22.7167 16.6109 22.7143 16.2034V2.93408C22.7143 2.696 22.6627 2.46073 22.5631 2.24446C22.4635 2.0282 22.3183 1.83608 22.1373 1.68133C21.9597 1.52938 21.7516 1.41699 21.527 1.35163C21.3026 1.28626 21.0667 1.26942 20.8351 1.3022C17.4325 1.86694 14.3199 3.56273 12.0002 6.11544" stroke="#1D2127" stroke-width="1.71429" stroke-linecap="round" stroke-linejoin="round"/>
</svg>
