<svg width="24" height="24" viewBox="0 0 24 24" fill="none" xmlns="http://www.w3.org/2000/svg">
<path opacity="0.2" d="M12 22.7C10.8 22.7 10.8 21.8 9.70005 21C7.90005 19.7 5.00005 18.1 2.80005 17.8C2.40005 17.8 2.00005 17.6 1.70005 17.3C1.40005 17 1.30005 16.6 1.30005 16.2V2.90001C1.30005 2.70001 1.40005 2.40001 1.50005 2.20001C1.50005 2.00001 1.70005 1.80001 1.90005 1.70001C2.00005 1.50001 2.20005 1.40001 2.50005 1.40001C2.70005 1.30001 3.00005 1.30001 3.20005 1.40001C6.60005 1.90001 9.70005 3.60001 12 6.10001V22.7Z" fill="#1D2127"/>
<path d="M12 23.6C10.8 23.6 10.3 23 9.90002 22.5C9.70002 22.3 9.50002 22 9.20002 21.8C7.50002 20.6 4.80002 19 2.60002 18.8C2.00002 18.7 1.40002 18.4 1.00002 18C0.600024 17.5 0.400024 16.9 0.400024 16.3V2.90002C0.400024 2.50002 0.500024 2.20002 0.600024 1.90002C0.800024 1.60002 1.00002 1.30002 1.30002 1.00002C1.60002 0.800024 1.90002 0.600024 2.20002 0.500024C2.50002 0.400024 2.90002 0.400024 3.30002 0.400024C6.60002 1.00002 9.60003 2.60002 12 4.90002C14.4 2.60002 17.4 1.00002 20.7 0.500024C21.1 0.400024 21.4 0.500024 21.8 0.600024C22.1 0.700024 22.5 0.900024 22.7 1.10002C23 1.30002 23.2 1.60002 23.3 2.00002C23.5 2.30002 23.5 2.70002 23.5 3.00002V16.3C23.5 16.9 23.3 17.5 22.9 18C22.5 18.5 21.9 18.8 21.3 18.8C19.2 19.1 16.5 20.6 14.8 21.8C14.5 22 14.3 22.3 14.1 22.5C13.7 23 13.2 23.6 12 23.6ZM12.9 6.50002V21.3C13.1 21 13.4 20.7 13.8 20.4C15.8 19 18.7 17.4 21.1 17C21.3 17 21.5 16.9 21.6 16.7C21.7 16.6 21.8 16.4 21.8 16.2V2.90002C21.8 2.80002 21.8 2.70002 21.7 2.60002C21.7 2.50002 21.6 2.40002 21.5 2.30002C21.4 2.20002 21.3 2.20002 21.2 2.10002C21.1 2.10002 21 2.10002 20.9 2.10002C17.9 2.70002 15 4.20002 12.9 6.50002ZM2.90002 2.10002C2.80002 2.10002 2.80002 2.10002 2.70002 2.10002C2.60002 2.10002 2.50002 2.20002 2.40002 2.30002C2.30002 2.40002 2.30002 2.50002 2.20002 2.60002C2.20002 2.70002 2.10002 2.80002 2.10002 2.90002V16.2C2.10002 16.4 2.20002 16.6 2.30002 16.7C2.50002 16.9 2.70002 17 2.80002 17C5.20002 17.3 8.20002 19 10.2 20.4C10.6 20.7 10.9 21 11.1 21.3V6.50002C9.00002 4.20002 6.10002 2.70002 2.90002 2.10002C3.00002 2.10002 3.00002 2.10002 2.90002 2.10002Z" fill="#1D2127"/>
</svg>
