<svg width="24" height="24" viewBox="0 0 24 24" fill="none" xmlns="http://www.w3.org/2000/svg">
<path opacity="0.2" d="M12 22.7C10.8 22.7 10.8 21.8 9.70005 21C7.90005 19.7 5.00005 18.1 2.80005 17.8C2.40005 17.8 2.00005 17.6 1.70005 17.3C1.40005 17 1.30005 16.6 1.30005 16.2V2.90001C1.30005 2.70001 1.40005 2.40001 1.50005 2.20001C1.50005 2.00001 1.70005 1.80001 1.90005 1.70001C2.00005 1.50001 2.20005 1.40001 2.50005 1.40001C2.70005 1.30001 3.00005 1.30001 3.20005 1.40001C6.60005 1.90001 9.70005 3.60001 12 6.10001V22.7Z" fill="#101C2D"/>
<path d="M11.9999 23.6C10.7999 23.6 10.2999 23 9.8999 22.5C9.6999 22.3 9.4999 22 9.1999 21.8C7.4999 20.6 4.7999 19 2.5999 18.8C1.9999 18.7 1.3999 18.4 0.999902 18C0.599902 17.5 0.399902 16.9 0.399902 16.3V2.90002C0.399902 2.50002 0.499902 2.20002 0.599902 1.90002C0.799902 1.60002 0.999902 1.30002 1.2999 1.00002C1.5999 0.800024 1.8999 0.600024 2.1999 0.500024C2.4999 0.400024 2.8999 0.400024 3.2999 0.400024C6.5999 1.00002 9.5999 2.60002 11.9999 4.90002C14.3999 2.60002 17.3999 1.00002 20.6999 0.500024C21.0999 0.400024 21.3999 0.500024 21.7999 0.600024C22.0999 0.700024 22.4999 0.900024 22.6999 1.10002C22.9999 1.30002 23.1999 1.60002 23.2999 2.00002C23.4999 2.30002 23.4999 2.70002 23.4999 3.00002V16.3C23.4999 16.9 23.2999 17.5 22.8999 18C22.4999 18.5 21.8999 18.8 21.2999 18.8C19.1999 19.1 16.4999 20.6 14.7999 21.8C14.4999 22 14.2999 22.3 14.0999 22.5C13.6999 23 13.1999 23.6 11.9999 23.6ZM12.8999 6.50002V21.3C13.0999 21 13.3999 20.7 13.7999 20.4C15.7999 19 18.6999 17.4 21.0999 17C21.2999 17 21.4999 16.9 21.5999 16.7C21.6999 16.6 21.7999 16.4 21.7999 16.2V2.90002C21.7999 2.80002 21.7999 2.70002 21.6999 2.60002C21.6999 2.50002 21.5999 2.40002 21.4999 2.30002C21.3999 2.20002 21.2999 2.20002 21.1999 2.10002C21.0999 2.10002 20.9999 2.10002 20.8999 2.10002C17.8999 2.70002 14.9999 4.20002 12.8999 6.50002ZM2.8999 2.10002C2.7999 2.10002 2.7999 2.10002 2.6999 2.10002C2.5999 2.10002 2.4999 2.20002 2.3999 2.30002C2.2999 2.40002 2.2999 2.50002 2.1999 2.60002C2.1999 2.70002 2.0999 2.80002 2.0999 2.90002V16.2C2.0999 16.4 2.1999 16.6 2.2999 16.7C2.4999 16.9 2.6999 17 2.7999 17C5.1999 17.3 8.1999 19 10.1999 20.4C10.5999 20.7 10.8999 21 11.0999 21.3V6.50002C8.9999 4.20002 6.0999 2.70002 2.8999 2.10002C2.9999 2.10002 2.9999 2.10002 2.8999 2.10002Z" fill="#101C2D"/>
</svg>
