<svg width="24" height="24" viewBox="0 0 24 24" fill="none" xmlns="http://www.w3.org/2000/svg">
<path d="M21.4219 5.67188L15.75 0H4.03125C3.23438 0 2.57812 0.65625 2.57812 1.40625V22.5938C2.57812 22.9688 2.76562 23.3438 3 23.5781C3.28125 23.8594 3.60938 24 4.03125 24H19.9688C20.3906 24 20.7188 23.8594 21 23.5781C21.2344 23.3438 21.4219 22.9688 21.4219 22.5938V5.67188Z" fill="#F4F4F4"/>
<path d="M15.9375 0.0934785L21.3281 5.4841C21.5156 5.62473 21.375 5.95285 21.1406 5.95285H16.875C16.0781 5.95285 15.4688 5.2966 15.4688 4.5466V0.280978C15.4688 0.0466035 15.75 -0.0940215 15.9375 0.0934785Z" fill="#D5D5D5"/>
<path d="M2.57812 11.25V19.3125H17.4375C17.8594 19.3125 18.1875 19.1719 18.4688 18.8906C18.7031 18.6562 18.8438 18.2812 18.8438 17.9062V12.6562C18.8438 12.2344 18.7031 11.9062 18.4688 11.625C18.1875 11.3906 17.8594 11.25 17.4375 11.25H2.57812Z" fill="#D22323"/>
<path d="M4.6875 9.42188C4.3125 9.42188 4.3125 9.98438 4.6875 9.98438H16.7812C17.1562 9.98438 17.1562 9.42188 16.7812 9.42188H4.6875ZM4.6875 7.26562C4.3125 7.26562 4.3125 7.82812 4.6875 7.82812H16.7812C17.1562 7.82812 17.1562 7.26562 16.7812 7.26562H4.6875Z" fill="#D5D5D5"/>
<path fill-rule="evenodd" clip-rule="evenodd" d="M4.67822 12.7406H5.01572C5.25015 12.7406 5.73268 12.7406 6.20353 12.7465C6.66427 12.7522 7.14374 12.7637 7.35446 12.7901L7.36545 12.7915L7.37633 12.7935C8.12157 12.9369 8.54227 13.4292 8.65704 13.9954C8.76556 14.5308 8.59827 15.1207 8.21889 15.5084C8.0604 15.6954 7.84843 15.8082 7.63418 15.8782C7.415 15.9498 7.17292 15.9833 6.93632 15.9989C6.6279 16.0191 6.28079 16.0097 5.97703 16.0014C5.95638 16.0008 5.93594 16.0003 5.91572 15.9997V17.775H4.67822V12.7406ZM8.75635 12.7406H9.09484C9.35255 12.7406 9.81313 12.7406 10.2629 12.7524C10.6991 12.7639 11.168 12.787 11.4171 12.8424C12.4713 13.0767 12.9408 14.0739 13.0105 14.9981C13.046 15.4702 12.9837 15.9581 12.8277 16.3857C12.6736 16.8078 12.4185 17.1962 12.0486 17.4358C11.6289 17.7321 11.1147 17.775 10.6407 17.775H8.75635V12.7406ZM13.1626 12.7406H16.7907V13.9312H14.4001V14.6156H16.4626V15.8062H14.4001V17.775H13.1626V12.7406ZM9.99385 13.927V16.5887C10.0204 16.5893 10.0466 16.5899 10.0726 16.5905C10.087 16.5908 10.1013 16.5912 10.1155 16.5915C10.232 16.5943 10.341 16.5969 10.4457 16.5975C10.6829 16.599 10.8747 16.5897 11.0346 16.5563C11.1898 16.5239 11.3019 16.4712 11.3894 16.3932C11.4771 16.3149 11.5633 16.1903 11.6316 15.9758L11.633 15.9714C11.7318 15.675 11.7752 15.2176 11.6977 14.8044C11.6189 14.3841 11.4371 14.1041 11.1746 14.002L11.1693 13.9999L11.164 13.9977C11.1287 13.9826 11.0516 13.9633 10.9237 13.9489C10.8023 13.9352 10.6588 13.9281 10.5056 13.9253C10.326 13.922 10.1528 13.9243 9.99385 13.927ZM5.91572 13.9318V14.809C5.93113 14.8095 5.9466 14.8099 5.96212 14.8103C6.17081 14.8161 6.3896 14.8222 6.61634 14.815C6.79251 14.8094 6.94841 14.7956 7.07337 14.7703C7.20384 14.7438 7.2619 14.7121 7.27945 14.6977C7.35959 14.6261 7.42442 14.4589 7.39981 14.2702C7.37674 14.0933 7.29234 13.999 7.19194 13.9702C7.15674 13.9645 7.07094 13.9569 6.93384 13.9506C6.79503 13.9443 6.6259 13.9399 6.4515 13.937C6.26587 13.9339 6.07675 13.9325 5.91572 13.9318Z" fill="white"/>
</svg>
