<svg width="24" height="24" viewBox="0 0 24 24" fill="none" xmlns="http://www.w3.org/2000/svg">
<path d="M16.88 3.38C16.88 1.51 15.36 0 13.5 0C11.64 0 10.12 1.51 10.12 3.38C10.12 5.25 11.63 6.76 13.5 6.76C15.36 6.75 16.88 5.24 16.88 3.38ZM13.5 5.25C12.47 5.25 11.62 4.41 11.62 3.37C11.62 2.33 12.47 1.5 13.5 1.5C14.53 1.5 15.38 2.34 15.38 3.38C15.38 4.42 14.53 5.25 13.5 5.25Z" fill="#171717"/>
<path d="M4.41 14.91C3.99 15.33 3.75 15.91 3.75 16.5V23.25C3.75 23.66 4.09 24 4.5 24C4.91 24 5.25 23.66 5.25 23.25V16.5C5.25 16.3 5.33 16.11 5.47 15.97C5.75 15.69 6.25 15.69 6.53 15.97C6.67 16.11 6.75 16.3 6.75 16.5C6.75 16.91 7.09 17.25 7.5 17.25C7.91 17.25 8.25 16.91 8.25 16.5C8.25 15.91 8.01 15.33 7.59 14.91C6.74 14.06 5.26 14.06 4.41 14.91Z" fill="#171717"/>
<path d="M18.71 8.29C17.72 7.3 16.4 6.75 15 6.75H12C10.6 6.75 9.28 7.3 8.29 8.29C7.3 9.28 6.75 10.6 6.75 12C6.75 12.41 7.09 12.75 7.5 12.75C7.91 12.75 8.25 12.41 8.25 12C8.25 11 8.64 10.06 9.35 9.35C10.06 8.64 11 8.25 12 8.25H15C16 8.25 16.94 8.64 17.65 9.35C18.36 10.06 18.75 11 18.75 12V15C18.75 15.2 18.67 15.39 18.53 15.53C18.25 15.81 17.75 15.81 17.47 15.53C17.33 15.39 17.25 15.2 17.25 15V12C17.25 11.59 16.91 11.25 16.5 11.25C16.09 11.25 15.75 11.59 15.75 12V21.75C15.75 21.95 15.67 22.14 15.53 22.28C15.25 22.56 14.75 22.56 14.47 22.28C14.33 22.14 14.25 21.95 14.25 21.75V16.5C14.25 16.09 13.91 15.75 13.5 15.75C13.09 15.75 12.75 16.09 12.75 16.5V21.75C12.75 21.95 12.67 22.14 12.53 22.28C12.25 22.56 11.75 22.56 11.47 22.28C11.33 22.14 11.25 21.95 11.25 21.75V15C11.25 14.59 10.91 14.25 10.5 14.25C10.09 14.25 9.75 14.59 9.75 15V21.75C9.75 22.34 9.99 22.92 10.41 23.34C11.23 24.16 12.64 24.2 13.5 23.43C13.91 23.79 14.45 24 15 24C15.59 24 16.17 23.76 16.59 23.34C17.01 22.92 17.25 22.34 17.25 21.75V17.12C18.04 17.4 18.99 17.19 19.59 16.59C20.01 16.17 20.25 15.59 20.25 15V12C20.25 10.6 19.7 9.28 18.71 8.29Z" fill="#171717"/>
</svg>
