<svg width="24" height="24" viewBox="0 0 24 24" fill="none" xmlns="http://www.w3.org/2000/svg">
<path fill-rule="evenodd" clip-rule="evenodd" d="M11.5 4C10.1193 4 9 5.11929 9 6.5C9 7.88071 10.1193 9 11.5 9C12.7289 9 13.7507 8.11335 13.9605 6.94488C13.9638 6.88511 13.9723 6.82674 13.9856 6.77022C13.9951 6.68146 14 6.5913 14 6.5C14 5.11929 12.8807 4 11.5 4ZM15.9506 5.83121C15.6276 3.66311 13.758 2 11.5 2C9.01472 2 7 4.01472 7 6.5C7 6.74359 7.01935 6.98265 7.05661 7.21575C5.47306 8.29733 4.35501 10.0137 4.07083 12H4C3.44772 12 3 11.5523 3 11C3 10.6311 3.19922 10.3076 3.50073 10.1332C3.97879 9.85663 4.14215 9.2449 3.86561 8.76684C3.58906 8.28878 2.97733 8.12542 2.49927 8.40196C1.60518 8.91916 1 9.88832 1 11C1 12.6569 2.34315 14 4 14H4.07091C4.28686 15.5082 4.98384 16.862 5.99993 17.899L5.99992 20.2231C5.99988 20.3423 5.99982 20.4845 6.01006 20.6098C6.02193 20.755 6.05237 20.963 6.16342 21.181C6.30723 21.4632 6.5367 21.6927 6.81894 21.8365C7.03689 21.9476 7.24488 21.978 7.3901 21.9899C7.51542 22.0001 7.65767 22.0001 7.77678 22C7.7846 22 7.79232 22 7.79993 22H9.69993C9.70754 22 9.71526 22 9.72308 22C9.84219 22.0001 9.98445 22.0001 10.1098 21.9899C10.255 21.978 10.463 21.9476 10.6809 21.8365C10.9632 21.6927 11.1926 21.4632 11.3364 21.181C11.4475 20.963 11.4779 20.755 11.4898 20.6098C11.5 20.4845 11.5 20.3422 11.4999 20.2231L11.4999 20H12.4999L12.4999 20.2231C12.4999 20.3422 12.4998 20.4845 12.5101 20.6098C12.5219 20.755 12.5524 20.963 12.6634 21.181C12.8072 21.4632 13.0367 21.6927 13.3189 21.8365C13.5369 21.9476 13.7449 21.978 13.8901 21.9899C14.0154 22.0001 14.1577 22.0001 14.2768 22C14.2846 22 14.2923 22 14.2999 22H16.2C16.2076 22 16.2153 22 16.2231 22C16.3423 22.0001 16.4845 22.0001 16.6098 21.9899C16.755 21.978 16.963 21.9476 17.181 21.8365C17.4632 21.6927 17.6927 21.4632 17.8365 21.181C17.9476 20.963 17.978 20.755 17.9899 20.6098C18.0001 20.4845 18.0001 20.3423 18 20.2232C18 20.2153 18 20.2076 18 20.2V19.3261C19.1062 18.8007 20.0517 17.9946 20.7452 17L21.2231 17C21.3422 17.0001 21.4845 17.0001 21.6098 16.9899C21.755 16.978 21.963 16.9476 22.181 16.8365C22.4632 16.6927 22.6927 16.4632 22.8365 16.181C22.9476 15.963 22.978 15.755 22.9899 15.6098C23.0001 15.4845 23.0001 15.3423 23 15.2231C23 15.2153 23 15.2076 23 15.2L23 11.7637C23 11.6503 23.0001 11.5148 22.9908 11.3953C22.98 11.2572 22.9525 11.0589 22.8514 10.8491M7.84273 9.12249C8.65945 10.2595 9.99325 11 11.5 11C13.4728 11 15.1491 9.73054 15.7565 7.96393C15.8065 7.95261 15.8506 7.93989 15.8744 7.93303C15.8774 7.93217 15.8801 7.93141 15.8824 7.93075L18 7.32572V8.17018C18 8.17759 17.9999 8.1862 17.9999 8.19587C17.9992 8.28743 17.9979 8.47465 18.041 8.65525C18.0783 8.81143 18.1354 8.94986 18.2189 9.08704C18.3159 9.24634 18.4573 9.38677 18.5284 9.45748C18.5363 9.46533 18.5434 9.47232 18.5494 9.47838C18.9583 9.89047 19.2955 10.3728 19.5415 10.905L19.5484 10.9199C19.5883 11.0062 19.6324 11.1017 19.6746 11.182C19.719 11.2665 19.7951 11.4019 19.9176 11.5313C20.0907 11.7141 20.2891 11.841 20.5277 11.9214C20.69 11.9762 20.863 11.9936 21 11.9987V15H20.6587C20.6493 15 20.6383 14.9999 20.6259 14.9998C20.5101 14.9988 20.2735 14.9967 20.052 15.063C19.8607 15.1203 19.6959 15.207 19.5405 15.3324C19.3597 15.4782 19.219 15.6872 19.1478 15.793C19.1398 15.8048 19.1327 15.8154 19.1265 15.8245C18.62 16.5628 17.9206 17.1582 17.1026 17.538L17.0869 17.5453C16.9968 17.5871 16.8969 17.6334 16.8131 17.6779C16.7245 17.7249 16.5832 17.8055 16.4499 17.9362C16.2824 18.1004 16.1647 18.2847 16.0863 18.5059C15.9953 18.7623 15.9983 19.0455 15.9997 19.1845C15.9999 19.1995 16 19.2129 16 19.2243V20H14.4999L14.4999 19.7769C14.5 19.6578 14.5 19.5155 14.4898 19.3902C14.4779 19.245 14.4475 19.037 14.3364 18.819C14.1926 18.5368 13.9632 18.3073 13.6809 18.1635C13.463 18.0524 13.255 18.022 13.1098 18.0101C12.9844 17.9999 12.8422 17.9999 12.7231 18C12.7152 18 12.7075 18 12.6999 18H11.2999C11.2923 18 11.2846 18 11.2768 18C11.1577 17.9999 11.0154 17.9999 10.8901 18.0101C10.7449 18.022 10.5369 18.0524 10.3189 18.1635C10.0367 18.3073 9.80723 18.5368 9.66342 18.819C9.55237 19.037 9.52193 19.245 9.51006 19.3902C9.49982 19.5155 9.49988 19.6577 9.49992 19.7769L9.49993 20H7.99993V17.8298C7.99993 17.8224 7.99999 17.8138 8.00006 17.8041C8.00071 17.7126 8.00203 17.5253 7.95889 17.3448C7.92159 17.1885 7.86456 17.0501 7.78102 16.913C7.684 16.7537 7.54267 16.6132 7.47149 16.5425C7.46359 16.5347 7.45655 16.5277 7.45053 16.5216C6.55279 15.6168 5.99993 14.374 5.99993 13C5.99993 11.4369 6.71703 10.0402 7.84273 9.12249ZM15.9506 5.83121L17.7055 5.32983C17.7145 5.32728 17.7235 5.32469 17.7326 5.32209C17.8814 5.27951 18.0499 5.23131 18.1986 5.20282C18.3627 5.17136 18.6207 5.13792 18.9094 5.21981C19.2693 5.32191 19.578 5.5548 19.7751 5.87279C19.9331 6.12784 19.9718 6.38517 19.9867 6.55161C20.0001 6.70235 20.0001 6.87761 20 7.03244C20 7.0419 20 7.05128 20 7.06058V8.10102C20.5403 8.65244 20.9905 9.29338 21.3262 10.0001C21.4174 10.0005 21.5155 10.0023 21.6047 10.0092C21.7428 10.02 21.9411 10.0475 22.1509 10.1486C22.457 10.296 22.704 10.543 22.8514 10.8491" fill="#0A0B0D"/>
</svg>
