<svg width="24" height="24" viewBox="0 0 24 24" fill="none" xmlns="http://www.w3.org/2000/svg">
<path d="M16.7321 3.38C16.7321 1.51 15.2582 0 13.4545 0C11.6509 0 10.177 1.51 10.177 3.38C10.177 5.25 11.6412 6.76 13.4545 6.76C15.2582 6.75 16.7321 5.24 16.7321 3.38ZM13.4545 5.25C12.4558 5.25 11.6315 4.41 11.6315 3.37C11.6315 2.33 12.4558 1.5 13.4545 1.5C14.4533 1.5 15.2776 2.34 15.2776 3.38C15.2776 4.42 14.4533 5.25 13.4545 5.25Z" fill="#1D2127"/>
<path d="M4.64 14.91C4.23273 15.33 4 15.91 4 16.5V23.25C4 23.66 4.3297 24 4.72727 24C5.12485 24 5.45455 23.66 5.45455 23.25V16.5C5.45455 16.3 5.53212 16.11 5.66788 15.97C5.93939 15.69 6.42424 15.69 6.69576 15.97C6.83152 16.11 6.90909 16.3 6.90909 16.5C6.90909 16.91 7.23879 17.25 7.63636 17.25C8.03394 17.25 8.36364 16.91 8.36364 16.5C8.36364 15.91 8.13091 15.33 7.72364 14.91C6.89939 14.06 5.46424 14.06 4.64 14.91Z" fill="#1D2127"/>
<path d="M18.5067 8.29C17.5467 7.3 16.2667 6.75 14.9091 6.75H12C10.6424 6.75 9.36242 7.3 8.40242 8.29C7.44242 9.28 6.90909 10.6 6.90909 12C6.90909 12.41 7.23879 12.75 7.63636 12.75C8.03394 12.75 8.36364 12.41 8.36364 12C8.36364 11 8.74182 10.06 9.4303 9.35C10.1188 8.64 11.0303 8.25 12 8.25H14.9091C15.8788 8.25 16.7903 8.64 17.4788 9.35C18.1673 10.06 18.5455 11 18.5455 12V15C18.5455 15.2 18.4679 15.39 18.3321 15.53C18.0606 15.81 17.5758 15.81 17.3042 15.53C17.1685 15.39 17.0909 15.2 17.0909 15V12C17.0909 11.59 16.7612 11.25 16.3636 11.25C15.9661 11.25 15.6364 11.59 15.6364 12V21.75C15.6364 21.95 15.5588 22.14 15.423 22.28C15.1515 22.56 14.6667 22.56 14.3952 22.28C14.2594 22.14 14.1818 21.95 14.1818 21.75V16.5C14.1818 16.09 13.8521 15.75 13.4545 15.75C13.057 15.75 12.7273 16.09 12.7273 16.5V21.75C12.7273 21.95 12.6497 22.14 12.5139 22.28C12.2424 22.56 11.7576 22.56 11.4861 22.28C11.3503 22.14 11.2727 21.95 11.2727 21.75V15C11.2727 14.59 10.943 14.25 10.5455 14.25C10.1479 14.25 9.81818 14.59 9.81818 15V21.75C9.81818 22.34 10.0509 22.92 10.4582 23.34C11.2533 24.16 12.6206 24.2 13.4545 23.43C13.8521 23.79 14.3758 24 14.9091 24C15.4812 24 16.0436 23.76 16.4509 23.34C16.8582 22.92 17.0909 22.34 17.0909 21.75V17.12C17.857 17.4 18.7782 17.19 19.36 16.59C19.7673 16.17 20 15.59 20 15V12C20 10.6 19.4667 9.28 18.5067 8.29Z" fill="#1D2127"/>
</svg>
