<svg width="24" height="24" viewBox="0 0 24 24" fill="none" xmlns="http://www.w3.org/2000/svg">
<g clip-path="url(#clip0_2878_15085)">
<path d="M20.76 0.710094C20.47 0.420094 19.99 0.420094 19.7 0.710094L17.73 2.68009C17.48 2.93009 17.44 3.33009 17.64 3.63009L18.23 4.52009L16.83 5.57009C16.5 5.82009 16.43 6.29009 16.68 6.62009C16.83 6.82009 17.05 6.92009 17.28 6.92009C17.44 6.92009 17.59 6.87009 17.73 6.77009L19.7 5.29009C20.02 5.05009 20.09 4.60009 19.87 4.27009L19.23 3.31009L20.76 1.78009C21.05 1.48009 21.05 1.00009 20.76 0.710094Z" fill="#171717"/>
<path d="M6.73001 6.91009C6.96001 6.91009 7.18001 6.81009 7.33001 6.61009C7.58001 6.28009 7.51001 5.81009 7.18001 5.56009L5.78001 4.51009L6.37001 3.62009C6.57001 3.32009 6.53001 2.93009 6.28001 2.67009L4.30001 0.710094C4.01001 0.420094 3.53001 0.420094 3.24001 0.710094C2.95001 1.00009 2.95001 1.48009 3.24001 1.77009L4.77001 3.30009L4.13001 4.27009C3.91001 4.60009 3.99001 5.05009 4.31001 5.29009L6.28001 6.77009C6.41001 6.87009 6.57001 6.91009 6.73001 6.91009Z" fill="#171717"/>
<path d="M11.82 3.74009C11.97 3.89009 12.16 3.96009 12.35 3.96009C12.54 3.96009 12.73 3.89009 12.88 3.74009C13.17 3.45009 13.17 2.97009 12.88 2.68009L12.33 2.13009L12.97 1.17009C13.2 0.830094 13.11 0.360094 12.76 0.130094C12.42 -0.099906 11.95 -0.00990593 11.72 0.340094L10.74 1.82009C10.54 2.12009 10.58 2.51009 10.83 2.77009L11.82 3.74009Z" fill="#171717"/>
<path d="M11.98 15.7501C10 15.7501 8.07001 16.5501 6.67001 17.9501C5.25001 19.3701 4.47001 21.2501 4.47001 23.2501C4.47001 23.6601 4.81001 24.0001 5.22001 24.0001C5.63001 24.0001 5.97001 23.6601 5.97001 23.2501C5.97001 21.6501 6.59001 20.1401 7.73001 19.0101C8.67001 18.0701 9.91001 17.4701 11.22 17.3101V20.2601C11.22 20.6701 11.56 21.0101 11.97 21.0101C12.38 21.0101 12.72 20.6701 12.72 20.2601V17.3001C14.04 17.4601 15.26 18.0501 16.21 19.0101C17.34 20.1401 17.97 21.6501 17.97 23.2501C17.97 23.6601 18.31 24.0001 18.72 24.0001C19.13 24.0001 19.47 23.6601 19.47 23.2501C19.47 21.2501 18.69 19.3601 17.27 17.9501C15.86 16.5301 13.98 15.7501 11.98 15.7501Z" fill="#171717"/>
<path d="M16.85 10.8801C16.85 10.7201 16.82 10.5601 16.8 10.4001C16.81 10.3001 16.8 10.2001 16.77 10.1001C16.4 7.7801 14.4 6.00009 11.98 6.00009C10.22 6.00009 8.68001 6.95009 7.83001 8.36009C7.79001 8.42009 7.75001 8.48009 7.73001 8.55009C7.35001 9.25009 7.11001 10.0301 7.11001 10.8801C7.11001 13.5701 9.30001 15.7501 11.99 15.7501C14.68 15.7501 16.85 13.5601 16.85 10.8801ZM11.98 7.50009C13.48 7.50009 14.73 8.48009 15.17 9.83009C14.19 10.1301 13.17 10.2001 12.15 10.0001C11.14 9.80009 10.21 9.33009 9.43001 8.67009C10.05 7.96009 10.96 7.50009 11.98 7.50009ZM11.98 14.2501C10.12 14.2501 8.60001 12.7401 8.60001 10.8801C8.60001 10.5901 8.65001 10.3201 8.72001 10.0501C9.64001 10.7601 10.71 11.2501 11.86 11.4801C12.36 11.5801 12.86 11.6301 13.37 11.6301C14.02 11.6301 14.67 11.5401 15.31 11.3701C15.06 12.9901 13.67 14.2501 11.98 14.2501Z" fill="#171717"/>
</g>
<defs>
<clipPath id="clip0_2878_15085">
<rect width="24" height="24" fill="white"/>
</clipPath>
</defs>
</svg>
