<svg width="24" height="24" viewBox="0 0 24 24" fill="none" xmlns="http://www.w3.org/2000/svg">
<path d="M20.782 0.70692C20.4912 0.41692 20.01 0.41692 19.7193 0.70692L17.7444 2.67692C17.4937 2.92692 17.4536 3.32692 17.6541 3.62692L18.2456 4.51692L16.8421 5.56692C16.5113 5.81692 16.4411 6.28692 16.6917 6.61692C16.8421 6.81692 17.0627 6.91692 17.2932 6.91692C17.4536 6.91692 17.604 6.86692 17.7444 6.76692L19.7193 5.28692C20.0401 5.04692 20.1103 4.59692 19.8897 4.26692L19.2481 3.30692L20.782 1.77692C21.0727 1.47692 21.0727 0.99692 20.782 0.70692Z" fill="#1D2127"/>
<path d="M6.71679 6.90692C6.94737 6.90692 7.16792 6.80692 7.3183 6.60692C7.56892 6.27692 7.49875 5.80692 7.16792 5.55692L5.76441 4.50692L6.35589 3.61692C6.55639 3.31692 6.51629 2.92692 6.26566 2.66692L4.2807 0.70692C3.98998 0.41692 3.50877 0.41692 3.21805 0.70692C2.92732 0.99692 2.92732 1.47692 3.21805 1.76692L4.75188 3.29692L4.11028 4.26692C3.88972 4.59692 3.96992 5.04692 4.29073 5.28692L6.26566 6.76692C6.39599 6.86692 6.55639 6.90692 6.71679 6.90692Z" fill="#1D2127"/>
<path d="M11.8195 3.73692C11.9699 3.88692 12.1604 3.95692 12.3509 3.95692C12.5414 3.95692 12.7318 3.88692 12.8822 3.73692C13.1729 3.44692 13.1729 2.96692 12.8822 2.67692L12.3308 2.12692L12.9724 1.16692C13.203 0.82692 13.1128 0.35692 12.7619 0.12692C12.4211 -0.10308 11.9499 -0.0130798 11.7193 0.33692L10.7368 1.81692C10.5363 2.11692 10.5764 2.50692 10.8271 2.76692L11.8195 3.73692Z" fill="#1D2127"/>
<path d="M11.9799 15.7469C9.99499 15.7469 8.06015 16.5469 6.65664 17.9469C5.23308 19.3669 4.45113 21.2469 4.45113 23.2469C4.45113 23.6569 4.79198 23.9969 5.20301 23.9969C5.61403 23.9969 5.95489 23.6569 5.95489 23.2469C5.95489 21.6469 6.57644 20.1369 7.7193 19.0069C8.66165 18.0669 9.90476 17.4669 11.218 17.3069V20.2569C11.218 20.6669 11.5589 21.0069 11.9699 21.0069C12.381 21.0069 12.7218 20.6669 12.7218 20.2569V17.2969C14.0451 17.4569 15.2682 18.0469 16.2206 19.0069C17.3534 20.1369 17.985 21.6469 17.985 23.2469C17.985 23.6569 18.3258 23.9969 18.7368 23.9969C19.1479 23.9969 19.4887 23.6569 19.4887 23.2469C19.4887 21.2469 18.7068 19.3569 17.2832 17.9469C15.8697 16.5269 13.985 15.7469 11.9799 15.7469Z" fill="#1D2127"/>
<path d="M16.8622 10.8769C16.8622 10.7169 16.8321 10.5569 16.812 10.3969C16.8221 10.2969 16.812 10.1969 16.782 10.0969C16.411 7.77692 14.406 5.99692 11.9799 5.99692C10.2155 5.99692 8.67168 6.94692 7.81955 8.35692C7.77945 8.41692 7.73935 8.47692 7.7193 8.54692C7.33835 9.24692 7.09774 10.0269 7.09774 10.8769C7.09774 13.5669 9.29323 15.7469 11.99 15.7469C14.6867 15.7469 16.8622 13.5569 16.8622 10.8769ZM11.9799 7.49692C13.4837 7.49692 14.7368 8.47692 15.1779 9.82692C14.1955 10.1269 13.1729 10.1969 12.1504 9.99692C11.1378 9.79692 10.2055 9.32692 9.42356 8.66692C10.0451 7.95692 10.9574 7.49692 11.9799 7.49692ZM11.9799 14.2469C10.1153 14.2469 8.59148 12.7369 8.59148 10.8769C8.59148 10.5869 8.6416 10.3169 8.71178 10.0469C9.63409 10.7569 10.7068 11.2469 11.8596 11.4769C12.3609 11.5769 12.8622 11.6269 13.3734 11.6269C14.0251 11.6269 14.6767 11.5369 15.3183 11.3669C15.0677 12.9869 13.6742 14.2469 11.9799 14.2469Z" fill="#1D2127"/>
</svg>
