<svg width="24" height="24" viewBox="0 0 24 24" fill="none" xmlns="http://www.w3.org/2000/svg">
<path d="M20.76 0.710176C20.47 0.420176 19.99 0.420176 19.7 0.710176L17.73 2.68018C17.48 2.93018 17.44 3.33018 17.64 3.63018L18.23 4.52018L16.83 5.57018C16.5 5.82018 16.43 6.29018 16.68 6.62018C16.83 6.82018 17.05 6.92018 17.28 6.92018C17.44 6.92018 17.59 6.87018 17.73 6.77018L19.7 5.29018C20.02 5.05018 20.09 4.60018 19.87 4.27018L19.23 3.31018L20.76 1.78018C21.05 1.48018 21.05 1.00018 20.76 0.710176Z" fill="#171717"/>
<path d="M6.73001 6.91018C6.96001 6.91018 7.18001 6.81018 7.33001 6.61018C7.58001 6.28018 7.51001 5.81018 7.18001 5.56018L5.78001 4.51018L6.37001 3.62018C6.57001 3.32018 6.53001 2.93018 6.28001 2.67018L4.30001 0.710176C4.01001 0.420176 3.53001 0.420176 3.24001 0.710176C2.95001 1.00018 2.95001 1.48018 3.24001 1.77018L4.77001 3.30018L4.13001 4.27018C3.91001 4.60018 3.99001 5.05018 4.31001 5.29018L6.28001 6.77018C6.41001 6.87018 6.57001 6.91018 6.73001 6.91018Z" fill="#171717"/>
<path d="M11.82 3.74009C11.97 3.89009 12.16 3.96009 12.35 3.96009C12.54 3.96009 12.73 3.89009 12.88 3.74009C13.17 3.45009 13.17 2.97009 12.88 2.68009L12.33 2.13009L12.97 1.17009C13.2 0.830094 13.11 0.360094 12.76 0.130094C12.42 -0.099906 11.95 -0.00990593 11.72 0.340094L10.74 1.82009C10.54 2.12009 10.58 2.51009 10.83 2.77009L11.82 3.74009Z" fill="#171717"/>
<path d="M11.98 15.75C11.98 15.75 11.97 15.75 11.98 15.75C10 15.75 8.07 16.55 6.67 17.95C5.25 19.37 4.47 21.25 4.47 23.25C4.47 23.66 4.81 24 5.22 24C5.63 24 5.97 23.66 5.97 23.25C5.97 21.65 6.59 20.14 7.73 19.01C8.67 18.07 9.91 17.47 11.22 17.31V20.26C11.22 20.67 11.56 21.01 11.97 21.01C12.38 21.01 12.72 20.67 12.72 20.26V17.3C14.04 17.46 15.26 18.05 16.21 19.01C17.34 20.14 17.97 21.65 17.97 23.25C17.97 23.66 18.31 24 18.72 24C19.13 24 19.47 23.66 19.47 23.25C19.47 21.25 18.69 19.36 17.27 17.95C15.86 16.53 13.98 15.75 11.98 15.75Z" fill="#171717"/>
<path d="M16.85 10.88C16.85 10.72 16.82 10.56 16.8 10.4C16.81 10.3 16.8 10.2 16.77 10.1C16.4 7.78 14.4 6 11.98 6C10.22 6 8.68 6.95 7.83 8.36C7.79 8.42 7.75 8.48 7.73 8.55C7.35 9.25 7.11 10.03 7.11 10.88C7.11 13.57 9.3 15.75 11.99 15.75C14.68 15.75 16.85 13.56 16.85 10.88ZM11.98 7.5C13.48 7.5 14.73 8.48 15.17 9.83C14.19 10.13 13.17 10.2 12.15 10C11.14 9.8 10.21 9.33 9.43 8.67C10.05 7.96 10.96 7.5 11.98 7.5ZM11.98 14.25C10.12 14.25 8.6 12.74 8.6 10.88C8.6 10.59 8.65 10.32 8.72 10.05C9.64 10.76 10.71 11.25 11.86 11.48C12.36 11.58 12.86 11.63 13.37 11.63C14.02 11.63 14.67 11.54 15.31 11.37C15.06 12.99 13.67 14.25 11.98 14.25Z" fill="#171717"/>
</svg>
