<svg width="24" height="24" viewBox="0 0 24 24" fill="none" xmlns="http://www.w3.org/2000/svg">
<path d="M12 24C11.6606 24 11.3697 23.76 11.2921 23.42C11.0206 22.2 10.1091 18.8 9.17818 17.77C8.91636 17.48 8.64485 17.2 8.37333 16.9C6.32727 14.72 4 12.25 4 8.25C4 3.7 7.58788 0 12 0C16.4121 0 20 3.7 20 8.25C20 12.25 17.6824 14.72 15.6364 16.89C15.3648 17.18 15.0933 17.47 14.8315 17.76C13.9006 18.79 12.9794 22.19 12.7079 23.42C12.6303 23.76 12.3394 24 12 24ZM12 1.5C8.39273 1.5 5.45455 4.53 5.45455 8.25C5.45455 11.65 7.47152 13.79 9.42061 15.86C9.70182 16.16 9.97333 16.45 10.2448 16.74C10.9624 17.53 11.5733 19.08 12.0097 20.46C12.4461 19.08 13.057 17.52 13.7745 16.73C14.0364 16.44 14.3176 16.14 14.5988 15.84C16.5382 13.77 18.5552 11.64 18.5552 8.24C18.5455 4.53 15.6073 1.5 12 1.5Z" fill="#1D2127"/>
<path d="M12 12C9.99273 12 8.36364 10.32 8.36364 8.25C8.36364 6.18 9.99273 4.5 12 4.5C14.0073 4.5 15.6364 6.18 15.6364 8.25C15.6364 10.32 14.0073 12 12 12ZM12 6C10.7976 6 9.81818 7.01 9.81818 8.25C9.81818 9.49 10.7976 10.5 12 10.5C13.2024 10.5 14.1818 9.49 14.1818 8.25C14.1818 7.01 13.2024 6 12 6Z" fill="#1D2127"/>
</svg>
