<svg width="24" height="24" viewBox="0 0 24 24" fill="none" xmlns="http://www.w3.org/2000/svg">
<path fill-rule="evenodd" clip-rule="evenodd" d="M12 3C8.13401 3 5 6.13401 5 10C5 12.2992 6.25613 14.0528 7.97135 15.8393C8.38164 16.2666 8.80735 16.6853 9.24218 17.1129L9.29106 17.161C9.73889 17.6015 10.1961 18.0521 10.6317 18.5111C11.112 19.0173 11.581 19.5489 12 20.1148C12.419 19.5489 12.888 19.0173 13.3683 18.5111C13.8039 18.0521 14.2611 17.6015 14.7089 17.161L14.7579 17.1129C15.1927 16.6853 15.6184 16.2666 16.0287 15.8393C17.7439 14.0528 19 12.2992 19 10C19 6.13401 15.866 3 12 3ZM3 10C3 5.02944 7.02944 1 12 1C16.9706 1 21 5.02944 21 10C21 13.1191 19.2561 15.3655 17.4713 17.2244C17.0407 17.673 16.5965 18.1098 16.1671 18.5321L16.1114 18.5869C15.6608 19.0301 15.2274 19.4575 14.8192 19.8878C13.9985 20.7526 13.3284 21.5792 12.8944 22.4472C12.725 22.786 12.3788 23 12 23C11.6212 23 11.275 22.786 11.1056 22.4472C10.6716 21.5792 10.0015 20.7526 9.18085 19.8878C8.77261 19.4575 8.33924 19.0301 7.88863 18.5869L7.83285 18.5321C7.40346 18.1098 6.95932 17.673 6.52865 17.2244C4.74387 15.3655 3 13.1191 3 10ZM12 7.5C10.8954 7.5 10 8.39543 10 9.5C10 10.6046 10.8954 11.5 12 11.5C13.1046 11.5 14 10.6046 14 9.5C14 8.39543 13.1046 7.5 12 7.5ZM8 9.5C8 7.29086 9.79086 5.5 12 5.5C14.2091 5.5 16 7.29086 16 9.5C16 11.7091 14.2091 13.5 12 13.5C9.79086 13.5 8 11.7091 8 9.5Z" fill="#0A0B0D"/>
</svg>
