<svg width="24" height="24" viewBox="0 0 24 24" fill="none" xmlns="http://www.w3.org/2000/svg">
<path d="M12 24C11.65 24 11.35 23.76 11.27 23.42C10.99 22.2 10.05 18.8 9.09 17.77C8.82 17.48 8.54 17.2 8.26 16.9C6.15 14.72 3.75 12.25 3.75 8.25C3.75 3.7 7.45 0 12 0C16.55 0 20.25 3.7 20.25 8.25C20.25 12.25 17.86 14.72 15.75 16.89C15.47 17.18 15.19 17.47 14.92 17.76C13.96 18.79 13.01 22.19 12.73 23.42C12.65 23.76 12.35 24 12 24ZM12 1.5C8.28 1.5 5.25 4.53 5.25 8.25C5.25 11.65 7.33 13.79 9.34 15.86C9.63 16.16 9.91 16.45 10.19 16.74C10.93 17.53 11.56 19.08 12.01 20.46C12.46 19.08 13.09 17.52 13.83 16.73C14.1 16.44 14.39 16.14 14.68 15.84C16.68 13.77 18.76 11.64 18.76 8.24C18.75 4.53 15.72 1.5 12 1.5Z" fill="#171717"/>
<path d="M12 12C9.93 12 8.25 10.32 8.25 8.25C8.25 6.18 9.93 4.5 12 4.5C14.07 4.5 15.75 6.18 15.75 8.25C15.75 10.32 14.07 12 12 12ZM12 6C10.76 6 9.75 7.01 9.75 8.25C9.75 9.49 10.76 10.5 12 10.5C13.24 10.5 14.25 9.49 14.25 8.25C14.25 7.01 13.24 6 12 6Z" fill="#171717"/>
</svg>
