<svg width="24" height="24" viewBox="0 0 24 24" fill="none" xmlns="http://www.w3.org/2000/svg">
<g clip-path="url(#clip0_2849_15119)">
<path d="M23.93 10.93C23.93 10.92 23.93 10.92 23.93 10.91L21.35 5.74C21.16 5.37 20.88 5.05 20.52 4.83C20.16 4.61 19.76 4.49 19.34 4.49H18V0.75C18 0.34 17.66 0 17.25 0H6.75C6.34 0 6 0.34 6 0.75V4.5H4.68C4.26 4.5 3.85 4.62 3.5 4.84C3.14 5.06 2.85 5.37 2.66 5.74L0.08 10.91C0.08 10.92 0.08 10.92 0.08 10.93C0.03 11.03 0 11.14 0 11.25V17.25C0 17.84 0.24 18.42 0.66 18.84C1.08 19.26 1.65 19.5 2.25 19.5H5.24L4.52 23.1C4.48 23.32 4.53 23.55 4.68 23.72C4.83 23.89 5.03 24 5.25 24H18.75C18.97 24 19.19 23.9 19.33 23.73C19.47 23.56 19.53 23.33 19.49 23.11L18.77 19.51H21.76C22.35 19.51 22.93 19.27 23.35 18.85C23.77 18.43 24.01 17.85 24.01 17.26V11.26C24 11.14 23.97 11.03 23.93 10.93ZM7.5 1.5H16.5V7.5H7.5V1.5ZM4.01 6.41C4.07 6.29 4.17 6.18 4.29 6.11C4.4 6.04 4.54 6 4.68 6H6V8.25C6 8.66 6.34 9 6.75 9H17.25C17.66 9 18 8.66 18 8.25V6H19.32C19.46 6 19.6 6.04 19.71 6.11C19.83 6.18 19.92 6.29 19.99 6.41L22.03 10.5H1.96L4.01 6.41ZM6.17 22.5L7.37 16.5H16.64L17.84 22.5H6.17ZM22.5 17.25C22.5 17.45 22.42 17.64 22.28 17.78C22.14 17.92 21.95 18 21.75 18H18.46L17.98 15.6C17.91 15.25 17.6 15 17.24 15H6.75C6.39 15 6.08 15.25 6.01 15.6L5.54 18H2.25C2.05 18 1.86 17.92 1.72 17.78C1.58 17.64 1.5 17.45 1.5 17.25V12H22.5V17.25Z" fill="#171717"/>
<path d="M20.62 15.74C21.2386 15.74 21.74 15.2386 21.74 14.62C21.74 14.0014 21.2386 13.5 20.62 13.5C20.0014 13.5 19.5 14.0014 19.5 14.62C19.5 15.2386 20.0014 15.74 20.62 15.74Z" fill="#171717"/>
<path d="M14.25 19.5H9.75C9.34 19.5 9 19.84 9 20.25C9 20.66 9.34 21 9.75 21H14.25C14.66 21 15 20.66 15 20.25C15 19.84 14.66 19.5 14.25 19.5Z" fill="#171717"/>
</g>
<defs>
<clipPath id="clip0_2849_15119">
<rect width="24" height="24" fill="white"/>
</clipPath>
</defs>
</svg>
