<svg width="24" height="24" viewBox="0 0 24 24" fill="none" xmlns="http://www.w3.org/2000/svg">
<path d="M23.92 10.93C23.92 10.92 23.92 10.92 23.92 10.91L21.3411 5.74C21.1512 5.37 20.8713 5.05 20.5115 4.83C20.1516 4.61 19.7518 4.49 19.3319 4.49H17.9925V0.75C17.9925 0.34 17.6526 0 17.2428 0H6.74719C6.33736 0 5.9975 0.34 5.9975 0.75V4.5H4.67805C4.25823 4.5 3.8484 4.62 3.49854 4.84C3.13869 5.06 2.84881 5.37 2.65889 5.74L0.0799667 10.91C0.0799667 10.92 0.0799667 10.92 0.0799667 10.93C0.0299875 11.03 0 11.14 0 11.25V17.25C0 17.84 0.2399 18.42 0.659725 18.84C1.07955 19.26 1.64931 19.5 2.24906 19.5H5.23782L4.51812 23.1C4.47813 23.32 4.52811 23.55 4.67805 23.72C4.82799 23.89 5.0279 24 5.24781 24H18.7422C18.9621 24 19.182 23.9 19.3219 23.73C19.4619 23.56 19.5219 23.33 19.4819 23.11L18.7622 19.51H21.7509C22.3407 19.51 22.9205 19.27 23.3403 18.85C23.7601 18.43 24 17.85 24 17.26V11.26C23.99 11.14 23.96 11.03 23.92 10.93ZM7.49688 1.5H16.4931V7.5H7.49688V1.5ZM4.00833 6.41C4.06831 6.29 4.16826 6.18 4.28821 6.11C4.39817 6.04 4.53811 6 4.67805 6H5.9975V8.25C5.9975 8.66 6.33736 9 6.74719 9H17.2428C17.6526 9 17.9925 8.66 17.9925 8.25V6H19.312C19.4519 6 19.5918 6.04 19.7018 6.11C19.8217 6.18 19.9117 6.29 19.9817 6.41L22.0208 10.5H1.95918L4.00833 6.41ZM6.16743 22.5L7.36693 16.5H16.6331L17.8326 22.5H6.16743ZM22.4906 17.25C22.4906 17.45 22.4107 17.64 22.2707 17.78C22.1308 17.92 21.9409 18 21.7409 18H18.4523L17.9725 15.6C17.9025 15.25 17.5927 15 17.2328 15H6.74719C6.38734 15 6.07747 15.25 6.0075 15.6L5.53769 18H2.24906C2.04915 18 1.85923 17.92 1.71928 17.78C1.57934 17.64 1.49938 17.45 1.49938 17.25V12H22.4906V17.25Z" fill="#171717"/>
<path d="M20.6114 15.74C21.2297 15.74 21.7309 15.2386 21.7309 14.62C21.7309 14.0014 21.2297 13.5 20.6114 13.5C19.9931 13.5 19.4919 14.0014 19.4919 14.62C19.4919 15.2386 19.9931 15.74 20.6114 15.74Z" fill="#171717"/>
<path d="M14.2441 19.5H9.74594C9.33611 19.5 8.99625 19.84 8.99625 20.25C8.99625 20.66 9.33611 21 9.74594 21H14.2441C14.6539 21 14.9938 20.66 14.9938 20.25C14.9938 19.84 14.6539 19.5 14.2441 19.5Z" fill="#171717"/>
</svg>
