<svg width="24" height="24" viewBox="0 0 24 24" fill="none" xmlns="http://www.w3.org/2000/svg">
<path fill-rule="evenodd" clip-rule="evenodd" d="M9.16143 1H14.8385C15.3657 0.999983 15.8204 0.999967 16.195 1.03057C16.5903 1.06287 16.9836 1.13419 17.3619 1.32698C17.9264 1.6146 18.3854 2.07354 18.673 2.63803C18.8658 3.01641 18.9371 3.40963 18.9694 3.80497C19 4.17954 19 4.6343 19 5.16144V6.02714C19.0867 6.03193 19.1706 6.03757 19.2518 6.0442C19.8139 6.09012 20.3306 6.18869 20.8159 6.43598C21.5686 6.81947 22.1805 7.43139 22.564 8.18404C22.8113 8.66938 22.9099 9.18608 22.9558 9.74818C23 10.2894 23 10.9537 23 11.7587V14C23 14.0465 23 14.0924 23 14.1376C23.0005 14.933 23.0008 15.5236 22.8637 16.0353C22.4938 17.4156 21.4156 18.4938 20.0353 18.8637C19.7278 18.9461 19.3918 18.9789 19 18.9918C18.9997 19.4543 18.997 19.8573 18.9694 20.195C18.9371 20.5904 18.8658 20.9836 18.673 21.362C18.3854 21.9265 17.9264 22.3854 17.3619 22.673C16.9836 22.8658 16.5903 22.9371 16.195 22.9694C15.8204 23 15.3657 23 14.8385 23H9.16141C8.63427 23 8.17951 23 7.80495 22.9694C7.4096 22.9371 7.01638 22.8658 6.638 22.673C6.07352 22.3854 5.61458 21.9265 5.32695 21.362C5.13416 20.9836 5.06284 20.5904 5.03054 20.195C5.00295 19.8573 5.00025 19.4543 5 18.9918C4.60818 18.9789 4.27217 18.9461 3.9647 18.8637C2.58433 18.4938 1.50614 17.4156 1.13627 16.0353C0.999175 15.5236 0.999494 14.933 0.999925 14.1376C0.99995 14.0924 0.999974 14.0465 0.999974 14L0.999974 11.7587C0.999961 10.9537 0.999951 10.2894 1.04417 9.74818C1.09009 9.18608 1.18866 8.66938 1.43595 8.18404C1.81944 7.43139 2.43136 6.81947 3.18401 6.43598C3.66935 6.18869 4.18605 6.09012 4.74815 6.0442C4.8293 6.03757 4.91322 6.03193 4.99997 6.02714L4.99997 5.16146C4.99996 4.63431 4.99994 4.17955 5.03054 3.80497C5.06284 3.40963 5.13416 3.01641 5.32695 2.63803C5.61457 2.07354 6.07352 1.6146 6.638 1.32698C7.01638 1.13419 7.4096 1.06287 7.80495 1.03057C8.17952 0.999967 8.63428 0.999983 9.16143 1ZM6.99997 6H17V5.2C17 4.62345 16.9992 4.25117 16.976 3.96784C16.9539 3.69617 16.9162 3.59546 16.891 3.54601C16.7951 3.35785 16.6421 3.20487 16.454 3.109C16.4045 3.0838 16.3038 3.04612 16.0321 3.02393C15.7488 3.00078 15.3765 3 14.8 3H9.19998C8.62342 3 8.25115 3.00078 7.96781 3.02393C7.69615 3.04612 7.59543 3.0838 7.54598 3.109C7.35782 3.20487 7.20484 3.35785 7.10897 3.54601C7.08378 3.59546 7.0461 3.69617 7.0239 3.96784C7.00075 4.25118 6.99997 4.62345 6.99997 5.2V6ZM6.99997 18.8C6.99997 19.3766 7.00075 19.7488 7.0239 20.0322C7.0461 20.3038 7.08378 20.4045 7.10897 20.454C7.20484 20.6422 7.35782 20.7951 7.54598 20.891C7.59543 20.9162 7.69615 20.9539 7.96781 20.9761C8.25115 20.9992 8.62342 21 9.19997 21H14.8C15.3765 21 15.7488 20.9992 16.0321 20.9761C16.3038 20.9539 16.4045 20.9162 16.454 20.891C16.6421 20.7951 16.7951 20.6422 16.891 20.454C16.9162 20.4046 16.9539 20.3038 16.976 20.0322C16.9992 19.7488 17 19.3766 17 18.8V17.2C17 16.6234 16.9992 16.2512 16.976 15.9678C16.9539 15.6962 16.9162 15.5955 16.891 15.546C16.7951 15.3578 16.6421 15.2049 16.454 15.109C16.4045 15.0838 16.3038 15.0461 16.0321 15.0239C15.7488 15.0008 15.3765 15 14.8 15H9.19998C8.62342 15 8.25115 15.0008 7.96781 15.0239C7.69615 15.0461 7.59543 15.0838 7.54598 15.109C7.35782 15.2049 7.20484 15.3578 7.10897 15.546C7.08378 15.5955 7.0461 15.6962 7.0239 15.9678C7.00075 16.2512 6.99997 16.6234 6.99997 17.2V18.8ZM18.9999 16.9901C18.9996 16.5352 18.9966 16.1383 18.9694 15.805C18.9371 15.4096 18.8658 15.0164 18.673 14.638C18.3854 14.0735 17.9264 13.6146 17.3619 13.327C16.9836 13.1342 16.5903 13.0629 16.195 13.0306C15.8204 13 15.3657 13 14.8385 13H9.16145C8.63429 13 8.17952 13 7.80495 13.0306C7.4096 13.0629 7.01638 13.1342 6.638 13.327C6.07352 13.6146 5.61457 14.0735 5.32695 14.638C5.13416 15.0164 5.06284 15.4096 5.03054 15.805C5.00331 16.1383 5.00032 16.5352 5.00001 16.9901C4.74241 16.981 4.60113 16.9637 4.48234 16.9319C3.79215 16.7469 3.25306 16.2078 3.06812 15.5176C3.00856 15.2954 2.99997 14.9944 2.99997 14V11.8C2.99997 10.9434 3.00075 10.3611 3.03753 9.91104C3.07335 9.47262 3.13827 9.24842 3.21796 9.09202C3.40971 8.7157 3.71567 8.40974 4.09199 8.21799C4.24839 8.1383 4.4726 8.07337 4.91101 8.03755C5.3611 8.00078 5.94339 8 6.79997 8H17.2C18.0566 8 18.6388 8.00078 19.0889 8.03755C19.5274 8.07337 19.7516 8.1383 19.908 8.21799C20.2843 8.40974 20.5902 8.7157 20.782 9.09202C20.8617 9.24842 20.9266 9.47262 20.9624 9.91104C20.9992 10.3611 21 10.9434 21 11.8V14C21 14.9944 20.9914 15.2954 20.9318 15.5176C20.7469 16.2078 20.2078 16.7469 19.5176 16.9319C19.3988 16.9637 19.2575 16.981 18.9999 16.9901ZM14 10.5C14 9.94772 14.4477 9.5 15 9.5H18C18.5523 9.5 19 9.94772 19 10.5C19 11.0523 18.5523 11.5 18 11.5H15C14.4477 11.5 14 11.0523 14 10.5Z" fill="#101C2D"/>
</svg>
