<svg width="24" height="24" viewBox="0 0 24 24" fill="none" xmlns="http://www.w3.org/2000/svg">
<path d="M5.66651 20.0001C5.26585 20.0001 4.8892 19.8434 4.60587 19.5608C4.32255 19.2775 4.16655 18.9008 4.16722 18.4995C4.16722 18.4248 4.17322 18.3482 4.18455 18.2728L4.9212 13.477C4.39588 13.3703 3.99989 12.905 3.99989 12.3483V8.30443C3.99989 7.3098 4.8092 6.50115 5.80384 6.50115H8.49976V6.37516C8.54443 5.03919 9.61773 3.99989 10.9444 3.99989C10.9677 3.99989 10.991 3.99989 11.0144 4.00055L12.9996 4.00122C13.0183 4.00055 13.0456 3.99989 13.073 3.99989C14.3676 3.99989 15.4562 5.05853 15.4996 6.35916V6.50115H18.1948C19.1895 6.50115 19.9994 7.3098 19.9994 8.30443V12.3483C19.9994 12.9043 19.6035 13.3696 19.0788 13.477L19.8161 18.2722C19.9421 19.0895 19.3795 19.8568 18.5621 19.9828C18.4875 19.9941 18.4115 20.0001 18.3362 20.0001H5.66651ZM5.17252 18.4242C5.16919 18.4488 5.16652 18.4748 5.16652 18.5002C5.16652 18.6341 5.21852 18.7595 5.31252 18.8541C5.40718 18.9488 5.53251 19.0008 5.66584 19.0008H18.3322C18.3388 19.0008 18.3522 19.0015 18.3522 19.0015C18.3728 19.0015 18.3888 18.9981 18.4055 18.9955C18.5408 18.9748 18.6568 18.9041 18.7361 18.7961C18.8155 18.6881 18.8475 18.5561 18.8268 18.4242L18.0695 13.5003H13.9329C13.7076 14.3689 12.9116 15.0002 11.9983 15.0002C11.085 15.0002 10.289 14.3689 10.0637 13.5003H5.92917L5.17252 18.4242ZM10.9997 13.0003C10.9997 13.5516 11.4483 14.0003 11.9997 14.0003C12.551 14.0003 12.9996 13.5516 12.9996 13.0003V11.5003H10.9997V13.0003ZM18.8475 12.5003C18.9315 12.5003 18.9995 12.4323 18.9995 12.3483V8.30443C18.9995 7.86111 18.6381 7.50046 18.1948 7.50046H5.80384C5.36052 7.50112 4.99986 7.86178 4.99986 8.30443V12.3483C4.99986 12.4323 5.06786 12.5003 5.15186 12.5003H9.99972V11.5003C9.99972 10.949 10.4484 10.5004 10.9997 10.5004H12.9996C13.551 10.5004 13.9996 10.949 13.9996 11.5003V12.5003H18.8475ZM14.4996 6.50115V6.37516C14.4743 5.62051 13.8289 4.99986 13.061 4.99986L13.015 5.00053H10.9997L10.9437 4.99986C10.1597 4.99986 9.52573 5.61118 9.49907 6.39182V6.50049H14.4996V6.50115Z" fill="#171717"/>
</svg>
