<svg width="24" height="24" viewBox="0 0 24 24" fill="none" xmlns="http://www.w3.org/2000/svg">
<path d="M5.66667 20.0007C5.266 20.0007 4.88933 19.844 4.606 19.5613C4.32267 19.278 4.16667 18.9013 4.16733 18.5C4.16733 18.4253 4.17333 18.3487 4.18467 18.2733L4.92133 13.4773C4.396 13.3707 4 12.9053 4 12.3487V8.30467C4 7.31 4.80933 6.50133 5.804 6.50133H8.5V6.37533C8.54467 5.03933 9.618 4 10.9447 4C10.968 4 10.9913 4 11.0147 4.00067L13 4.00133C13.0187 4.00067 13.046 4 13.0733 4C14.368 4 15.4567 5.05867 15.5 6.35933V6.50133H18.1953C19.19 6.50133 20 7.31 20 8.30467V12.3487C20 12.9047 19.604 13.37 19.0793 13.4773L19.8167 18.2727C19.9427 19.09 19.38 19.8573 18.5627 19.9833C18.488 19.9947 18.412 20.0007 18.3367 20.0007H5.66667ZM5.17267 18.4247C5.16933 18.4493 5.16667 18.4753 5.16667 18.5007C5.16667 18.6347 5.21867 18.76 5.31267 18.8547C5.40733 18.9493 5.53267 19.0013 5.666 19.0013H18.3327C18.3393 19.0013 18.3527 19.002 18.3527 19.002C18.3733 19.002 18.3893 18.9987 18.406 18.996C18.5413 18.9753 18.6573 18.9047 18.7367 18.7967C18.816 18.6887 18.848 18.5567 18.8273 18.4247L18.07 13.5007H13.9333C13.708 14.3693 12.912 15.0007 11.9987 15.0007C11.0853 15.0007 10.2893 14.3693 10.064 13.5007H5.92933L5.17267 18.4247ZM11 13.0007C11 13.552 11.4487 14.0007 12 14.0007C12.5513 14.0007 13 13.552 13 13.0007V11.5007H11V13.0007ZM18.848 12.5007C18.932 12.5007 19 12.4327 19 12.3487V8.30467C19 7.86133 18.6387 7.50067 18.1953 7.50067H5.804C5.36067 7.50133 5 7.862 5 8.30467V12.3487C5 12.4327 5.068 12.5007 5.152 12.5007H10V11.5007C10 10.9493 10.4487 10.5007 11 10.5007H13C13.5513 10.5007 14 10.9493 14 11.5007V12.5007H18.848ZM14.5 6.50133V6.37533C14.4747 5.62067 13.8293 5 13.0613 5L13.0153 5.00067H11L10.944 5C10.16 5 9.526 5.61133 9.49933 6.392V6.50067H14.5V6.50133Z" fill="#171717"/>
</svg>
