<svg width="24" height="24" viewBox="0 0 24 24" fill="none" xmlns="http://www.w3.org/2000/svg">
<path d="M5.66652 20.0002C5.26587 20.0002 4.88921 19.8435 4.60588 19.5608C4.32256 19.2775 4.16656 18.9009 4.16723 18.4995C4.16723 18.4249 4.17323 18.3482 4.18456 18.2729L4.92121 13.477C4.39589 13.3703 3.9999 12.905 3.9999 12.3484V8.30446C3.9999 7.30981 4.80921 6.50117 5.80385 6.50117H8.49978V6.37517C8.54445 5.03921 9.61776 3.9999 10.9444 3.9999C10.9677 3.9999 10.9911 3.9999 11.0144 4.00056L12.9997 4.00123C13.0183 4.00056 13.0457 3.9999 13.073 3.9999C14.3676 3.9999 15.4563 5.05854 15.4996 6.35917V6.50117H18.1949C19.1895 6.50117 19.9995 7.30981 19.9995 8.30446V12.3484C19.9995 12.9043 19.6035 13.3697 19.0788 13.477L19.8162 18.2722C19.9422 19.0895 19.3795 19.8568 18.5622 19.9828C18.4875 19.9942 18.4115 20.0002 18.3362 20.0002H5.66652ZM5.17254 18.4242C5.1692 18.4489 5.16654 18.4749 5.16654 18.5002C5.16654 18.6342 5.21853 18.7595 5.31253 18.8542C5.4072 18.9489 5.53253 19.0009 5.66586 19.0009H18.3322C18.3389 19.0009 18.3522 19.0015 18.3522 19.0015C18.3729 19.0015 18.3889 18.9982 18.4055 18.9955C18.5409 18.9749 18.6569 18.9042 18.7362 18.7962C18.8155 18.6882 18.8475 18.5562 18.8269 18.4242L18.0695 13.5003H13.933C13.7077 14.369 12.9117 15.0003 11.9984 15.0003C11.0851 15.0003 10.2891 14.369 10.0637 13.5003H5.92918L5.17254 18.4242ZM10.9997 13.0003C10.9997 13.5517 11.4484 14.0003 11.9997 14.0003C12.551 14.0003 12.9997 13.5517 12.9997 13.0003V11.5004H10.9997V13.0003ZM18.8475 12.5003C18.9315 12.5003 18.9995 12.4324 18.9995 12.3484V8.30446C18.9995 7.86113 18.6382 7.50048 18.1949 7.50048H5.80385C5.36053 7.50114 4.99987 7.8618 4.99987 8.30446V12.3484C4.99987 12.4324 5.06787 12.5003 5.15187 12.5003H9.99975V11.5004C9.99975 10.9491 10.4484 10.5004 10.9997 10.5004H12.9997C13.551 10.5004 13.9996 10.9491 13.9996 11.5004V12.5003H18.8475ZM14.4996 6.50117V6.37517C14.4743 5.62052 13.829 4.99987 13.061 4.99987L13.015 5.00054H10.9997L10.9437 4.99987C10.1597 4.99987 9.52576 5.61119 9.49909 6.39184V6.5005H14.4996V6.50117Z" fill="#171717"/>
</svg>
