<svg width="24" height="24" viewBox="0 0 24 24" fill="none" xmlns="http://www.w3.org/2000/svg">
<path fill-rule="evenodd" clip-rule="evenodd" d="M11.8621 1.99987C11.9073 1.99989 11.9531 1.99992 11.9997 1.99992C12.0462 1.99992 12.0921 1.99989 12.1372 1.99987C12.9326 1.99944 13.5232 1.99912 14.0349 2.13621C15.4152 2.50607 16.4934 3.58423 16.8632 4.96456C16.9456 5.27202 16.9784 5.60801 16.9913 5.99981L18.838 5.99981C19.3652 5.99979 19.8199 5.99977 20.1945 6.03038C20.5898 6.06268 20.983 6.13399 21.3614 6.32678C21.9258 6.61439 22.3848 7.07332 22.6724 7.63779C22.8652 8.01616 22.9365 8.40937 22.9688 8.8047C22.9994 9.17926 22.9994 9.634 22.9994 10.1611V17.838C22.9994 18.3652 22.9994 18.8199 22.9688 19.1945C22.9365 19.5898 22.8652 19.983 22.6724 20.3614C22.3848 20.9258 21.9258 21.3848 21.3614 21.6724C20.983 21.8652 20.5898 21.9365 20.1945 21.9688C19.8199 21.9994 19.3652 21.9994 18.838 21.9994H5.16129C4.63417 21.9994 4.17942 21.9994 3.80487 21.9688C3.40953 21.9365 3.01633 21.8652 2.63796 21.6724C2.07349 21.3848 1.61456 20.9259 1.32695 20.3614C1.13416 19.983 1.06284 19.5898 1.03054 19.1945C0.99994 18.8199 0.999955 18.3652 0.999973 17.838V10.1611C0.999955 9.63401 0.99994 9.17926 1.03054 8.8047C1.06284 8.40937 1.13416 8.01616 1.32695 7.63779C1.61456 7.07332 2.07349 6.61439 2.63796 6.32678C3.01633 6.13399 3.40953 6.06268 3.80487 6.03038C4.17943 5.99977 4.63418 5.99979 5.16131 5.99981L7.00802 5.99981C7.02095 5.60801 7.05372 5.27202 7.1361 4.96456C7.50596 3.58423 8.58412 2.50607 9.96445 2.13621C10.4761 1.99912 11.0667 1.99944 11.8621 1.99987ZM5.19986 7.99975C4.62332 7.99975 4.25106 8.00053 3.96773 8.02368C3.69607 8.04587 3.59535 8.08355 3.54591 8.10874C3.35776 8.20461 3.20478 8.35759 3.10891 8.54574C3.08372 8.59519 3.04604 8.6959 3.02384 8.96756C3.0007 9.25089 2.99992 9.62315 2.99992 10.1997V17.7995C2.99992 18.376 3.0007 18.7483 3.02384 19.0316C3.04604 19.3033 3.08372 19.404 3.10891 19.4534C3.20478 19.6416 3.35775 19.7946 3.54591 19.8904C3.59535 19.9156 3.69607 19.9533 3.96773 19.9755C4.25106 19.9986 4.62332 19.9994 5.19986 19.9994H18.7995C19.376 19.9994 19.7483 19.9986 20.0316 19.9755C20.3033 19.9533 20.404 19.9156 20.4534 19.8904C20.6416 19.7946 20.7946 19.6416 20.8904 19.4534C20.9156 19.404 20.9533 19.3033 20.9755 19.0316C20.9986 18.7483 20.9994 18.376 20.9994 17.7995V10.1997C20.9994 9.62315 20.9986 9.25089 20.9755 8.96756C20.9533 8.6959 20.9156 8.59519 20.8904 8.54574C20.7946 8.35759 20.6416 8.20461 20.4534 8.10874C20.404 8.08355 20.3033 8.04587 20.0316 8.02368C19.7483 8.00053 19.376 7.99975 18.7995 7.99975H5.19986ZM14.9897 5.99981H9.00961C9.0188 5.74224 9.03607 5.60097 9.0679 5.48218C9.25283 4.79202 9.79191 4.25294 10.4821 4.06801C10.7043 4.00845 11.0053 3.99986 11.9997 3.99986C12.994 3.99986 13.295 4.00845 13.5173 4.06801C14.2074 4.25294 14.7465 4.79202 14.9314 5.48218C14.9633 5.60097 14.9805 5.74224 14.9897 5.99981Z" fill="#0A0B0D"/>
</svg>
