<svg width="24" height="24" viewBox="0 0 24 24" fill="none" xmlns="http://www.w3.org/2000/svg">
<path fill-rule="evenodd" clip-rule="evenodd" d="M13.2864 3.09005C10.2067 2.64644 7.03941 3.83118 5.02206 6.3136C4.94578 6.40746 4.88847 6.47807 4.84034 6.54008C4.80141 6.59023 4.77585 6.62542 4.7585 6.65111C4.84425 6.71262 4.97167 6.78749 5.22539 6.93398L8.18633 8.64348C9.5015 6.55395 11.0083 4.82456 12.4677 3.67619C12.7383 3.46326 13.0117 3.26674 13.2864 3.09005ZM17.4954 2.47104C12.7508 -0.265208 6.81737 0.933132 3.46994 5.05228C3.45127 5.07526 3.4319 5.09884 3.41201 5.12305C3.17295 5.41408 2.85856 5.79681 2.77052 6.33036C2.69822 6.76856 2.79265 7.28055 3.01653 7.66412C3.17802 7.9408 3.38838 8.12954 3.59199 8.27569C3.76837 8.40229 3.98433 8.52692 4.19514 8.64857C4.20524 8.6544 4.21532 8.66022 4.22539 8.66603L8.03559 10.8658L10.634 12.366L5.64915 21H2C1.44772 21 1 21.4477 1 22C1 22.5523 1.44772 23 2 23H22C22.5523 23 23 22.5523 23 22C23 21.4477 22.5523 21 22 21H7.95855L12.366 13.366L18.8048 17.0835C19.0156 17.2052 19.2315 17.3299 19.4294 17.4194C19.6577 17.5227 19.9264 17.6105 20.2467 17.612C20.6908 17.6141 21.1815 17.4399 21.5248 17.1581C21.9428 16.8151 22.1171 16.3515 22.2496 15.9989C22.2606 15.9696 22.2714 15.941 22.2819 15.9134C24.1761 10.9532 22.2453 5.21344 17.5 2.47372C17.4985 2.47283 17.4969 2.47194 17.4954 2.47104ZM16.5 4.20577C16.3366 4.11142 16.0475 4.05018 15.5444 4.20016C15.0384 4.35096 14.4113 4.69174 13.7044 5.24794C12.4743 6.21594 11.1288 7.73675 9.91973 9.64426L15.0803 12.6237C16.1277 10.6228 16.772 8.69725 16.9952 7.14789C17.1235 6.25765 17.1051 5.54413 16.9827 5.03058C16.861 4.51985 16.6634 4.30013 16.5 4.20577ZM16.8137 13.6245C17.9657 11.4407 18.71 9.27115 18.9748 7.4331C19.0239 7.09227 19.0574 6.75717 19.0731 6.43101C20.9971 8.87627 21.5547 12.2116 20.4135 15.1999C20.3704 15.3129 20.3379 15.3978 20.3083 15.4705C20.2843 15.5293 20.2666 15.569 20.253 15.5969C20.1569 15.5534 20.0283 15.4805 19.7746 15.334L16.8137 13.6245Z" fill="#0A0B0D"/>
</svg>
