<svg width="24" height="24" viewBox="0 0 24 24" fill="none" xmlns="http://www.w3.org/2000/svg">
<path fill-rule="evenodd" clip-rule="evenodd" d="M4.5 0C3.90326 0 3.33097 0.291758 2.90901 0.811089C2.48705 1.33042 2.25 2.03479 2.25 2.76923V10.2102C1.70653 10.3339 1.20175 10.6574 0.805456 11.1452C0.289732 11.7799 0 12.6408 0 13.5385V23.0769C0 23.5867 0.335786 24 0.75 24C1.16421 24 1.5 23.5867 1.5 23.0769V20.3077H22.5V23.0769C22.5 23.5867 22.8358 24 23.25 24C23.6642 24 24 23.5867 24 23.0769V13.5385C24 12.6408 23.7103 11.7799 23.1945 11.1452C22.7983 10.6574 22.2935 10.3339 21.75 10.2102V2.76923C21.75 2.03478 21.5129 1.33042 21.091 0.811089C20.669 0.291758 20.0967 0 19.5 0H4.5ZM20.25 5.69684V2.76923C20.25 2.52442 20.171 2.28963 20.0303 2.11652C19.8897 1.94341 19.6989 1.84615 19.5 1.84615H4.5C4.30109 1.84615 4.11032 1.94341 3.96967 2.11652C3.82902 2.28963 3.75 2.52442 3.75 2.76923V5.69683C3.98865 5.59298 4.24204 5.53846 4.5 5.53846H10.5C11.0549 5.53846 11.5886 5.79072 12 6.24362C12.4114 5.79072 12.9451 5.53846 13.5 5.53846H19.5C19.758 5.53846 20.0113 5.59298 20.25 5.69684ZM3.75 8.30769V10.1538H11.25V8.30769C11.25 8.06288 11.171 7.82809 11.0303 7.65498C10.8897 7.48187 10.6989 7.38462 10.5 7.38462H4.5C4.30109 7.38462 4.11032 7.48187 3.96967 7.65498C3.82902 7.82809 3.75 8.06288 3.75 8.30769ZM20.25 10.1538V8.30769C20.25 8.06288 20.171 7.82809 20.0303 7.65498C19.8897 7.48187 19.6989 7.38462 19.5 7.38462H13.5C13.3011 7.38462 13.1103 7.48187 12.9697 7.65498C12.829 7.82809 12.75 8.06288 12.75 8.30769V10.1538H20.25ZM21.25 12C21.5815 12 21.8995 12.1621 22.1339 12.4506C22.3683 12.7391 22.5 13.1304 22.5 13.5385V18.4615H1.5V13.5385C1.5 13.1304 1.6317 12.7391 1.86612 12.4506C2.10054 12.1621 2.41848 12 2.75 12H21.25Z" fill="#171717"/>
</svg>
