<svg width="24" height="24" viewBox="0 0 24 24" fill="none" xmlns="http://www.w3.org/2000/svg">
<g clip-path="url(#clip0_2862_16110)">
<path d="M23.6699 7.62994L12.4199 0.129941C12.1699 -0.0400586 11.8399 -0.0400586 11.5899 0.129941L0.329942 7.62994C-0.0100578 7.85994 -0.110058 8.32994 0.119942 8.66994C0.349942 9.00994 0.819942 9.10994 1.15994 8.87994L11.9999 1.64994L22.8299 8.86994C22.9599 8.95994 23.1099 8.99994 23.2499 8.99994C23.4899 8.99994 23.7299 8.87994 23.8699 8.66994C24.0999 8.31994 24.0099 7.85994 23.6699 7.62994Z" fill="#171717"/>
<path d="M18.75 13.5H14.03C13.05 13.5 12.1 13.77 11.27 14.29C10.44 14.8 9.77 15.54 9.33 16.41L8.98 17.11C8.94 16.18 8.56 15.27 7.9 14.61C7.19 13.9 6.25 13.51 5.25 13.51H3V12.76C3 12.34 2.66 12 2.25 12C1.84 12 1.5 12.34 1.5 12.75V14.25V18.75V23.25C1.5 23.66 1.84 24 2.25 24H21.75C22.16 24 22.5 23.66 22.5 23.25V18.75V17.25C22.5 16.26 22.1 15.3 21.4 14.6C20.69 13.89 19.75 13.5 18.75 13.5ZM10.68 17.07C10.99 16.45 11.47 15.92 12.06 15.56C12.65 15.19 13.34 15 14.03 15H18.75C19.35 15 19.92 15.23 20.34 15.66C20.76 16.08 21 16.66 21 17.25V18H10.21L10.68 17.07ZM5.25 15C5.85 15 6.42 15.23 6.84 15.66C7.26 16.08 7.5 16.66 7.5 17.25V18H3V15H5.25ZM21 22.5H3V19.5H8.25H9H21V22.5Z" fill="#171717"/>
</g>
<defs>
<clipPath id="clip0_2862_16110">
<rect width="24" height="24" fill="white"/>
</clipPath>
</defs>
</svg>
