<svg width="24" height="24" viewBox="0 0 24 24" fill="none" xmlns="http://www.w3.org/2000/svg">
<g clip-path="url(#clip0_2862_16110)">
<path d="M23.6699 7.62994L12.4199 0.129941C12.1699 -0.0400586 11.8399 -0.0400586 11.5899 0.129941L0.329942 7.62994C-0.0100578 7.85994 -0.110058 8.32994 0.119942 8.66994C0.349942 9.00994 0.819942 9.10994 1.15994 8.87994L11.9999 1.64994L22.8299 8.86994C22.9599 8.95994 23.1099 8.99994 23.2499 8.99994C23.4899 8.99994 23.7299 8.87994 23.8699 8.66994C24.0999 8.31994 24.0099 7.85994 23.6699 7.62994Z" fill="#171717"/>
<path d="M18.7499 13.4999H14.0299C13.0499 13.4999 12.0999 13.7699 11.2699 14.2899C10.4399 14.7999 9.76994 15.5399 9.32994 16.4099L8.97994 17.1099C8.93994 16.1799 8.55994 15.2699 7.89994 14.6099C7.18994 13.8999 6.24994 13.5099 5.24994 13.5099H2.99994V12.7599C2.99994 12.3399 2.65994 11.9999 2.24994 11.9999C1.83994 11.9999 1.49994 12.3399 1.49994 12.7499V23.2499C1.49994 23.6599 1.83994 23.9999 2.24994 23.9999H21.7499C22.1599 23.9999 22.4999 23.6599 22.4999 23.2499V17.2499C22.4999 16.2599 22.0999 15.2999 21.3999 14.5999C20.6899 13.8899 19.7499 13.4999 18.7499 13.4999ZM10.6799 17.0699C10.9899 16.4499 11.4699 15.9199 12.0599 15.5599C12.6499 15.1899 13.3399 14.9999 14.0299 14.9999H18.7499C19.3499 14.9999 19.9199 15.2299 20.3399 15.6599C20.7599 16.0799 20.9999 16.6599 20.9999 17.2499V17.9999H10.2099L10.6799 17.0699ZM5.24994 14.9999C5.84994 14.9999 6.41994 15.2299 6.83994 15.6599C7.25994 16.0799 7.49994 16.6599 7.49994 17.2499V17.9999H2.99994V14.9999H5.24994ZM20.9999 22.4999H2.99994V19.4999H20.9999V22.4999Z" fill="#171717"/>
</g>
<defs>
<clipPath id="clip0_2862_16110">
<rect width="24" height="24" fill="white"/>
</clipPath>
</defs>
</svg>
