<svg width="24" height="24" viewBox="0 0 24 24" fill="none" xmlns="http://www.w3.org/2000/svg">
<path d="M12 6.17164V7.91039C12 8.3475 12.54 8.5612 12.85 8.25037L15.64 5.54026C15.84 5.34598 15.84 5.04486 15.64 4.85059L12.85 2.14048C12.54 1.83935 12 2.05305 12 2.49017V4.22891C7.58 4.22891 4 7.7064 4 11.9998C4 13.0101 4.2 13.9814 4.57 14.8654C4.84 15.5162 5.7 15.691 6.21 15.1956C6.48 14.9334 6.59 14.5351 6.44 14.1854C6.15 13.5152 6 12.7672 6 11.9998C6 8.78462 8.69 6.17164 12 6.17164ZM17.79 8.80404C17.52 9.06631 17.41 9.47429 17.56 9.81427C17.84 10.4942 18 11.2325 18 11.9998C18 15.2151 15.31 17.828 12 17.828V16.0893C12 15.6522 11.46 15.4385 11.15 15.7493L8.36 18.4594C8.16 18.6537 8.16 18.9548 8.36 19.1491L11.15 21.8592C11.46 22.1603 12 21.9466 12 21.5192V19.7708C16.42 19.7708 20 16.2933 20 11.9998C20 10.9896 19.8 10.0183 19.43 9.13431C19.16 8.48349 18.3 8.30865 17.79 8.80404Z" fill="#1D2127"/>
</svg>
