<svg width="24" height="24" viewBox="0 0 24 24" fill="none" xmlns="http://www.w3.org/2000/svg">
<path d="M20.25 13.1899C19.84 13.1899 19.5 13.5299 19.5 13.9399V21.4399H15V16.1899C15 15.5999 14.76 15.0199 14.34 14.5999C13.92 14.1799 13.34 13.9399 12.75 13.9399H11.25C10.66 13.9399 10.08 14.1799 9.66 14.5999C9.24 15.0199 9 15.5999 9 16.1899V21.4399H4.5V13.9399C4.5 13.5299 4.16 13.1899 3.75 13.1899C3.34 13.1899 3 13.5299 3 13.9399V22.1899C3 22.5999 3.34 22.9399 3.75 22.9399H9.75C10.16 22.9399 10.5 22.5999 10.5 22.1899V16.1899C10.5 15.9899 10.58 15.7999 10.72 15.6599C10.86 15.5199 11.05 15.4399 11.25 15.4399H12.75C12.95 15.4399 13.14 15.5199 13.28 15.6599C13.42 15.7999 13.5 15.9899 13.5 16.1899V22.1899C13.5 22.5999 13.84 22.9399 14.25 22.9399H20.25C20.66 22.9399 21 22.5999 21 22.1899V13.9399C21 13.5299 20.66 13.1899 20.25 13.1899Z" fill="#171717"/>
<path d="M23.78 11.91L21 9.13V2.77C21 2.36 20.66 2.02 20.25 2.02H16.5C16.09 2.02 15.75 2.36 15.75 2.77V3.88L13.59 1.72C13.38 1.51 13.14 1.34 12.86 1.23C12.31 0.999995 11.69 0.999995 11.14 1.23C10.86 1.35 10.62 1.51 10.41 1.72L0.220002 11.91C-0.0699975 12.2 -0.0699975 12.68 0.220002 12.97C0.510002 13.26 0.990002 13.26 1.28 12.97L11.47 2.78C11.54 2.71 11.62 2.65999 11.71 2.61999C11.89 2.53999 12.1 2.53999 12.28 2.61999C12.37 2.65999 12.45 2.71 12.53 2.79L22.72 12.98C22.87 13.13 23.06 13.2 23.25 13.2C23.44 13.2 23.63 13.13 23.78 12.98C24.07 12.68 24.07 12.2 23.78 11.91ZM17.25 3.51999H19.5V7.63L17.25 5.38V3.51999Z" fill="#171717"/>
</svg>
