<svg width="24" height="24" viewBox="0 0 24 24" fill="none" xmlns="http://www.w3.org/2000/svg">
<path fill-rule="evenodd" clip-rule="evenodd" d="M11.4909 1.31589C11.8247 1.22804 12.1755 1.22804 12.5092 1.31589C12.8964 1.41782 13.225 1.66653 13.4871 1.8649C13.512 1.88378 13.5363 1.9022 13.5601 1.92L14.167 2.37517C14.2434 2.4319 14.3207 2.49009 14.3994 2.5493C14.4382 2.57848 14.4773 2.60791 14.5168 2.63752C14.5179 2.63835 14.519 2.63917 14.5201 2.64L20.6001 7.2C20.6 7.19995 20.6001 7.20005 20.6001 7.2L22.6001 8.7C23.0419 9.03137 23.1314 9.65817 22.8001 10.1C22.4687 10.5418 21.8419 10.6314 21.4001 10.3L21.0001 10V17.8386C21.0001 18.3657 21.0001 18.8205 20.9695 19.195C20.9372 19.5904 20.8659 19.9836 20.6731 20.362C20.3855 20.9265 19.9265 21.3854 19.362 21.673C18.9837 21.8658 18.5904 21.9371 18.1951 21.9694C17.8205 22 17.3658 22 16.8386 22H7.1615C6.63436 22 6.1796 22 5.80503 21.9694C5.40969 21.9371 5.01647 21.8658 4.63809 21.673C4.07361 21.3854 3.61466 20.9265 3.32704 20.362C3.13425 19.9836 3.06293 19.5904 3.03063 19.195C3.00003 18.8205 3.00004 18.3657 3.00006 17.8385L3.00006 10L2.60006 10.3C2.15823 10.6314 1.53143 10.5418 1.20006 10.1C0.868688 9.65817 0.958231 9.03137 1.40006 8.7L9.48006 2.64C9.48173 2.63875 9.4834 2.6375 9.48506 2.63625C9.52397 2.60706 9.56251 2.57806 9.60074 2.5493C9.67941 2.49011 9.75675 2.43192 9.83313 2.3752L10.4401 1.92C10.4638 1.9022 10.4881 1.88378 10.5131 1.8649C10.7751 1.66653 11.1037 1.41782 11.4909 1.31589ZM5.00006 8.5V17.8C5.00006 18.3766 5.00084 18.7488 5.02399 19.0322C5.04619 19.3038 5.08386 19.4045 5.10906 19.454C5.20493 19.6422 5.35791 19.7951 5.54607 19.891C5.59552 19.9162 5.69624 19.9539 5.9679 19.9761C6.25124 19.9992 6.62351 20 7.20006 20H8.00006L8.00006 13.5681C8.00003 13.3157 8 13.0699 8.01701 12.8618C8.03568 12.6332 8.07975 12.3634 8.21805 12.092C8.4098 11.7157 8.71576 11.4097 9.09208 11.218C9.36351 11.0797 9.63324 11.0356 9.86183 11.0169C10.07 10.9999 10.3158 11 10.5682 11H13.4319C13.6843 11 13.9301 10.9999 14.1383 11.0169C14.3669 11.0356 14.6366 11.0797 14.908 11.218C15.2844 11.4097 15.5903 11.7157 15.7821 12.092C15.9204 12.3634 15.9644 12.6332 15.9831 12.8618C16.0001 13.0699 16.0001 13.3157 16.0001 13.5681L16.0001 20H16.8001C17.3766 20 17.7489 19.9992 18.0322 19.9761C18.3039 19.9539 18.4046 19.9162 18.4541 19.891C18.6422 19.7951 18.7952 19.6422 18.8911 19.454C18.9163 19.4045 18.9539 19.3038 18.9761 19.0322C18.9993 18.7488 19.0001 18.3766 19.0001 17.8V8.5L13.3201 4.24C12.5604 3.67022 12.3977 3.57061 12.2546 3.53295C12.0878 3.48902 11.9124 3.48902 11.7455 3.53295C11.6024 3.57061 11.4398 3.67022 10.6801 4.24L5.00006 8.5ZM14.0001 20V13.6C14.0001 13.3035 13.9993 13.1412 13.9898 13.0246C13.9894 13.02 13.989 13.0156 13.9886 13.0114C13.9845 13.0111 13.9801 13.0107 13.9754 13.0103C13.8588 13.0008 13.6966 13 13.4001 13H10.6001C10.3035 13 10.1413 13.0008 10.0247 13.0103C10.0201 13.0107 10.0157 13.0111 10.0115 13.0114C10.0111 13.0156 10.0107 13.02 10.0104 13.0246C10.0008 13.1412 10.0001 13.3035 10.0001 13.6V20H14.0001Z" fill="#0A0B0D"/>
</svg>
