<svg width="24" height="24" viewBox="0 0 24 24" fill="none" xmlns="http://www.w3.org/2000/svg">
<path d="M20.2475 13.1976C19.8375 13.1976 19.4975 13.5395 19.4975 13.9517V21.4919H14.9975V16.2138C14.9975 15.6206 14.7575 15.0375 14.3375 14.6152C13.9175 14.193 13.3375 13.9517 12.7475 13.9517H11.2475C10.6575 13.9517 10.0775 14.193 9.6575 14.6152C9.2375 15.0375 8.9975 15.6206 8.9975 16.2138V21.4919H4.4975V13.9517C4.4975 13.5395 4.1575 13.1976 3.7475 13.1976C3.3375 13.1976 2.9975 13.5395 2.9975 13.9517V22.246C2.9975 22.6582 3.3375 23 3.7475 23H9.7475C10.1575 23 10.4975 22.6582 10.4975 22.246V16.2138C10.4975 16.0127 10.5775 15.8217 10.7175 15.6809C10.8575 15.5402 11.0475 15.4597 11.2475 15.4597H12.7475C12.9475 15.4597 13.1375 15.5402 13.2775 15.6809C13.4175 15.8217 13.4975 16.0127 13.4975 16.2138V22.246C13.4975 22.6582 13.8375 23 14.2475 23H20.2475C20.6575 23 20.9975 22.6582 20.9975 22.246V13.9517C20.9975 13.5395 20.6575 13.1976 20.2475 13.1976Z" fill="#1D2127"/>
<path d="M23.7775 11.9108L20.9975 9.11585V2.7217C20.9975 2.30949 20.6575 1.96767 20.2475 1.96767H16.4975C16.0875 1.96767 15.7475 2.30949 15.7475 2.7217V3.83766L13.5875 1.66606C13.3775 1.45493 13.1375 1.28402 12.8575 1.17343C12.3075 0.942191 11.6875 0.942191 11.1375 1.17343C10.8575 1.29407 10.6175 1.45493 10.4075 1.66606L0.2175 11.9108C-0.0725 12.2023 -0.0725 12.6849 0.2175 12.9765C0.5075 13.268 0.9875 13.268 1.2775 12.9765L11.4675 2.73175C11.5375 2.66137 11.6175 2.6111 11.7075 2.57089C11.8875 2.49046 12.0975 2.49046 12.2775 2.57089C12.3675 2.6111 12.4475 2.66137 12.5275 2.7418L22.7175 12.9865C22.8675 13.1373 23.0575 13.2077 23.2475 13.2077C23.4375 13.2077 23.6275 13.1373 23.7775 12.9865C24.0675 12.6849 24.0675 12.2023 23.7775 11.9108ZM17.2475 3.47572H19.4975V7.60779L17.2475 5.34571V3.47572Z" fill="#1D2127"/>
</svg>
