<svg width="24" height="24" viewBox="0 0 24 24" fill="none" xmlns="http://www.w3.org/2000/svg">
<path d="M20.25 13.19C19.84 13.19 19.5 13.53 19.5 13.94V21.44H15V16.19C15 15.6 14.76 15.02 14.34 14.6C13.92 14.18 13.34 13.94 12.75 13.94H11.25C10.66 13.94 10.08 14.18 9.66 14.6C9.24 15.02 9 15.6 9 16.19V21.44H4.5V13.94C4.5 13.53 4.16 13.19 3.75 13.19C3.34 13.19 3 13.53 3 13.94V22.19C3 22.6 3.34 22.94 3.75 22.94H9.75C10.16 22.94 10.5 22.6 10.5 22.19V16.19C10.5 15.99 10.58 15.8 10.72 15.66C10.86 15.52 11.05 15.44 11.25 15.44H12.75C12.95 15.44 13.14 15.52 13.28 15.66C13.42 15.8 13.5 15.99 13.5 16.19V22.19C13.5 22.6 13.84 22.94 14.25 22.94H20.25C20.66 22.94 21 22.6 21 22.19V13.94C21 13.53 20.66 13.19 20.25 13.19Z" fill="#171717"/>
<path d="M23.78 11.91L21 9.13V2.77C21 2.36 20.66 2.02 20.25 2.02H16.5C16.09 2.02 15.75 2.36 15.75 2.77V3.88L13.59 1.72C13.38 1.51 13.14 1.34 12.86 1.23C12.31 0.999995 11.69 0.999995 11.14 1.23C10.86 1.35 10.62 1.51 10.41 1.72L0.220002 11.91C-0.0699975 12.2 -0.0699975 12.68 0.220002 12.97C0.510002 13.26 0.990002 13.26 1.28 12.97L11.47 2.78C11.54 2.71 11.62 2.65999 11.71 2.61999C11.89 2.53999 12.1 2.53999 12.28 2.61999C12.37 2.65999 12.45 2.71 12.53 2.79L22.72 12.98C22.87 13.13 23.06 13.2 23.25 13.2C23.44 13.2 23.63 13.13 23.78 12.98C24.07 12.68 24.07 12.2 23.78 11.91ZM17.25 3.51999H19.5V7.63L17.25 5.38V3.51999Z" fill="#171717"/>
</svg>
