<svg width="24" height="24" viewBox="0 0 24 24" fill="none" xmlns="http://www.w3.org/2000/svg">
<path d="M23.34 10.8785C23.1 10.6332 22.81 10.4595 22.5 10.3471V9.43754C22.5 8.41562 22.11 7.455 21.4 6.72944C20.82 6.13672 20.05 5.76883 19.24 5.65641L17.09 1.27235C16.96 0.996427 16.78 0.761384 16.55 0.567218C16.33 0.373052 16.07 0.219763 15.79 0.11757C15.51 0.0255965 15.21 -0.0152806 14.92 0.00515796C14.62 0.0255965 14.34 0.107351 14.07 0.240201L3.53 5.63597C2.61 5.68707 1.75 6.06518 1.1 6.72944C0.39 7.455 0 8.41562 0 9.43754V20.1678C0 21.1795 0.4 22.1605 1.1 22.8759C1.81 23.6014 2.75 24 3.75 24H18.75C19.74 24 20.7 23.5912 21.4 22.8759C22.1 22.1605 22.5 21.1795 22.5 20.1678V19.2583C22.81 19.1458 23.1 18.9721 23.34 18.7269C23.76 18.2976 24 17.7049 24 17.102V12.5033C24 11.9004 23.76 11.3077 23.34 10.8785ZM14.75 1.60958C14.84 1.56871 14.93 1.53805 15.03 1.52783C15.13 1.51761 15.23 1.53805 15.32 1.56871C15.41 1.59936 15.5 1.65046 15.57 1.722C15.65 1.78331 15.71 1.86506 15.75 1.95704L17.54 5.60532H6.93L14.75 1.60958ZM20.34 21.7926C19.92 22.2218 19.34 22.4671 18.75 22.4671H3.75C3.16 22.4671 2.58 22.2218 2.16 21.7926C1.74 21.3634 1.5 20.7707 1.5 20.1678V9.43754C1.5 8.83461 1.74 8.24189 2.16 7.81268C2.58 7.38347 3.16 7.13821 3.75 7.13821H18.75C19.34 7.13821 19.92 7.38347 20.34 7.81268C20.76 8.24189 21 8.83461 21 9.43754V10.204H18C16.8 10.204 15.67 10.6843 14.82 11.5529C13.97 12.4216 13.5 13.5763 13.5 14.8027C13.5 16.029 13.97 17.1837 14.82 18.0524C15.67 18.921 16.8 19.4013 18 19.4013H21V20.1678C21 20.7809 20.76 21.3736 20.34 21.7926ZM22.5 17.102C22.5 17.3064 22.42 17.5005 22.28 17.6436C22.14 17.7867 21.95 17.8684 21.75 17.8684H18C17.2 17.8684 16.45 17.5516 15.88 16.9691C15.31 16.3969 15 15.6304 15 14.8027C15 13.9749 15.31 13.2085 15.88 12.6362C16.45 12.0537 17.2 11.7369 18 11.7369H21.75C21.95 11.7369 22.14 11.8186 22.28 11.9617C22.42 12.1048 22.5 12.2989 22.5 12.5033V17.102Z" fill="#1D2127"/>
<path d="M18 15.9472C18.6186 15.9472 19.12 15.4348 19.12 14.8027C19.12 14.1705 18.6186 13.6581 18 13.6581C17.3814 13.6581 16.88 14.1705 16.88 14.8027C16.88 15.4348 17.3814 15.9472 18 15.9472Z" fill="#1D2127"/>
</svg>
