<svg width="24" height="24" viewBox="0 0 24 24" fill="none" xmlns="http://www.w3.org/2000/svg">
<g clip-path="url(#clip0_2862_15709)">
<path d="M23.34 10.9001C23.1 10.6601 22.81 10.4901 22.5 10.3801V9.49005C22.5 8.49005 22.11 7.55005 21.4 6.84005C20.82 6.26005 20.05 5.90005 19.24 5.79005L17.09 1.50005C16.96 1.23005 16.78 1.00005 16.55 0.810052C16.33 0.620052 16.07 0.470052 15.79 0.370052C15.51 0.280052 15.21 0.240052 14.92 0.260052C14.62 0.280052 14.34 0.360052 14.07 0.490052L3.53 5.77005C2.61 5.82005 1.75 6.19005 1.1 6.84005C0.39 7.55005 0 8.49005 0 9.49005V19.9901C0 20.9801 0.4 21.9401 1.1 22.6401C1.81 23.35 2.75 23.7401 3.75 23.7401H18.75C19.74 23.7401 20.7 23.3401 21.4 22.6401C22.1 21.9401 22.5 20.9801 22.5 19.9901V19.1001C22.81 18.9901 23.1 18.8201 23.34 18.5801C23.76 18.1601 24 17.5801 24 16.9901V12.4901C24 11.9001 23.76 11.3201 23.34 10.9001ZM14.75 1.83005C14.84 1.79005 14.93 1.76005 15.03 1.75005C15.13 1.74005 15.23 1.76005 15.32 1.79005C15.41 1.82005 15.5 1.87005 15.57 1.94005C15.65 2.00005 15.71 2.08005 15.75 2.17005L17.54 5.74005H6.93L14.75 1.83005ZM20.34 21.5801C19.92 22.0001 19.34 22.2401 18.75 22.2401H3.75C3.16 22.2401 2.58 22.0001 2.16 21.5801C1.74 21.1601 1.5 20.5801 1.5 19.9901V9.49005C1.5 8.90005 1.74 8.32005 2.16 7.90005C2.58 7.48005 3.16 7.24005 3.75 7.24005H18.75C19.34 7.24005 19.92 7.48005 20.34 7.90005C20.76 8.32005 21 8.90005 21 9.49005V10.2401H18C16.8 10.2401 15.67 10.7101 14.82 11.5601C13.97 12.4101 13.5 13.5401 13.5 14.7401C13.5 15.9401 13.97 17.0701 14.82 17.9201C15.67 18.7701 16.8 19.2401 18 19.2401H21V19.9901C21 20.5901 20.76 21.1701 20.34 21.5801ZM22.5 16.9901C22.5 17.1901 22.42 17.3801 22.28 17.5201C22.14 17.6601 21.95 17.7401 21.75 17.7401H18C17.2 17.7401 16.45 17.4301 15.88 16.8601C15.31 16.3001 15 15.5501 15 14.7401C15 13.9301 15.31 13.1801 15.88 12.6201C16.45 12.0501 17.2 11.7401 18 11.7401H21.75C21.95 11.7401 22.14 11.8201 22.28 11.9601C22.42 12.1001 22.5 12.2901 22.5 12.4901V16.9901Z" fill="#171717"/>
<path d="M18 15.8601C18.6186 15.8601 19.12 15.3586 19.12 14.7401C19.12 14.1215 18.6186 13.6201 18 13.6201C17.3814 13.6201 16.88 14.1215 16.88 14.7401C16.88 15.3586 17.3814 15.8601 18 15.8601Z" fill="#171717"/>
</g>
<defs>
<clipPath id="clip0_2862_15709">
<rect width="24" height="24" fill="white"/>
</clipPath>
</defs>
</svg>
