<svg width="24" height="24" viewBox="0 0 24 24" fill="none" xmlns="http://www.w3.org/2000/svg">
<path d="M6.75 11.25C7.36 11.25 7.98 11.2 8.59 11.11C9 11.05 9.28 10.67 9.22 10.26C9.16 9.85 8.78 9.56 8.37 9.63C7.83 9.71 7.29 9.75 6.75 9.75C3.75 9.75 1.5 8.56 1.5 7.5V6.16C2.72 6.99 4.58 7.5 6.75 7.5C8.92 7.5 10.78 6.99 12 6.16V7.75C12 8.16 12.34 8.5 12.75 8.5C13.16 8.5 13.5 8.16 13.5 7.75V3.75C13.5 1.61 10.6 0 6.75 0C2.9 0 0 1.61 0 3.75V18.75C0 20.89 2.9 22.5 6.75 22.5C6.76 22.5 6.78 22.5 6.79 22.5C7.38 22.5 7.97 22.46 8.55 22.37C8.96 22.31 9.24 21.93 9.18 21.52C9.12 21.11 8.75 20.84 8.33 20.89C7.81 20.96 7.28 21 6.75 21C3.75 21 1.5 19.81 1.5 18.75V17.41C2.72 18.24 4.58 18.75 6.75 18.75C7.36 18.75 7.98 18.7 8.59 18.61C9 18.55 9.28 18.17 9.22 17.76C9.16 17.35 8.78 17.07 8.37 17.13C7.83 17.21 7.29 17.25 6.75 17.25C3.75 17.25 1.5 16.06 1.5 15V13.66C2.72 14.49 4.58 15 6.75 15C6.76 15 6.78 15 6.79 15C7.38 15 7.97 14.96 8.55 14.87C8.96 14.81 9.24 14.43 9.18 14.02C9.12 13.61 8.75 13.33 8.33 13.39C7.81 13.47 7.28 13.5 6.75 13.5C3.75 13.5 1.5 12.31 1.5 11.25V9.91C2.72 10.74 4.58 11.25 6.75 11.25ZM6.75 1.5C9.75 1.5 12 2.69 12 3.75C12 4.81 9.75 6 6.75 6C3.75 6 1.5 4.81 1.5 3.75C1.5 2.69 3.75 1.5 6.75 1.5Z" fill="#171717"/>
<path d="M17.25 9.25C13.4 9.25 10.5 10.86 10.5 13V20.25C10.5 22.39 13.4 24 17.25 24C21.1 24 24 22.39 24 20.25V13C24 10.86 21.1 9.25 17.25 9.25ZM22.5 16.5C22.5 17.56 20.25 18.75 17.25 18.75C14.25 18.75 12 17.56 12 16.5V15.41C13.22 16.24 15.08 16.75 17.25 16.75C19.42 16.75 21.28 16.24 22.5 15.41V16.5ZM17.25 10.75C20.25 10.75 22.5 11.94 22.5 13C22.5 14.06 20.25 15.25 17.25 15.25C14.25 15.25 12 14.06 12 13C12 11.94 14.24 10.75 17.25 10.75ZM17.25 22.5C14.25 22.5 12 21.31 12 20.25V18.91C13.22 19.74 15.08 20.25 17.25 20.25C19.42 20.25 21.28 19.74 22.5 18.91V20.25C22.5 21.31 20.25 22.5 17.25 22.5Z" fill="#171717"/>
</svg>
