<svg width="24" height="24" viewBox="0 0 24 24" fill="none" xmlns="http://www.w3.org/2000/svg">
<path fill-rule="evenodd" clip-rule="evenodd" d="M15.405 4.02761C15.3167 4.00641 15.2113 3.99998 14.6745 3.99998H8V6.39998C8 6.69651 8.00078 6.85876 8.0103 6.97535C8.01068 6.97999 8.01107 6.98438 8.01145 6.98853C8.0156 6.98891 8.01999 6.9893 8.02463 6.98968C8.14122 6.9992 8.30347 6.99998 8.6 6.99998H15.4C15.6965 6.99998 15.8588 6.9992 15.9754 6.98968C15.98 6.9893 15.9844 6.98891 15.9886 6.98853C15.9889 6.98438 15.9893 6.97999 15.9897 6.97535C15.9992 6.85876 16 6.69651 16 6.39998V4.41602C15.8118 4.23169 15.7524 4.18311 15.6941 4.14734C15.6046 4.09251 15.5071 4.05211 15.405 4.02761ZM17.707 3.29274L17.6444 3.23013C17.6246 3.21033 17.605 3.19068 17.5855 3.17119C17.298 2.8832 17.0446 2.62929 16.7391 2.44206C16.4707 2.27757 16.178 2.15636 15.8719 2.08287C15.5235 1.99922 15.1647 1.99955 14.7578 1.99993C14.7303 1.99995 14.7025 1.99998 14.6745 1.99998L7.7587 1.99998C7.50965 1.99998 7.27405 1.99997 7.0514 2.00128C7.03438 2.00042 7.01724 1.99998 7 1.99998C6.97793 1.99998 6.95603 2.00069 6.93432 2.0021C6.48616 2.00583 6.09227 2.01606 5.74817 2.04417C5.18608 2.0901 4.66937 2.18866 4.18404 2.43595C3.43139 2.81945 2.81947 3.43137 2.43597 4.18402C2.18868 4.66935 2.09012 5.18606 2.04419 5.74815C1.99998 6.28935 1.99999 6.95371 2 7.75868V16.2413C1.99999 17.0462 1.99998 17.7106 2.04419 18.2518C2.09012 18.8139 2.18868 19.3306 2.43597 19.8159C2.81947 20.5686 3.43139 21.1805 4.18404 21.564C4.66937 21.8113 5.18608 21.9099 5.74817 21.9558C6.09227 21.9839 6.48616 21.9941 6.93431 21.9979C6.95603 21.9993 6.97793 22 7 22C7.01724 22 7.03437 21.9995 7.0514 21.9987C7.27404 22 7.50963 22 7.75868 22H16.2413C16.4904 22 16.726 22 16.9486 21.9987C16.9656 21.9995 16.9828 22 17 22C17.0221 22 17.044 21.9993 17.0657 21.9979C17.5138 21.9941 17.9077 21.9839 18.2518 21.9558C18.8139 21.9099 19.3306 21.8113 19.816 21.564C20.5686 21.1805 21.1805 20.5686 21.564 19.8159C21.8113 19.3306 21.9099 18.8139 21.9558 18.2518C22 17.7106 22 17.0463 22 16.2413V9.32546C22 9.29746 22 9.26969 22.0001 9.24215C22.0004 8.83526 22.0008 8.47651 21.9171 8.12807C21.8436 7.82196 21.7224 7.52933 21.5579 7.26091C21.3707 6.95537 21.1168 6.70194 20.8288 6.41449C20.8093 6.39503 20.7896 6.37541 20.7698 6.35562L17.707 3.29274C17.7071 3.29283 17.7069 3.29265 17.707 3.29274ZM18 6.41419V6.43186C18 6.68425 18.0001 6.93005 17.9831 7.13821C17.9644 7.3668 17.9203 7.63654 17.782 7.90796C17.5903 8.28429 17.2843 8.59025 16.908 8.78199C16.6366 8.92029 16.3668 8.96436 16.1382 8.98303C15.9301 9.00004 15.6843 9.00001 15.4319 8.99998L8.6 8.99998C8.58936 8.99998 8.57873 8.99998 8.5681 8.99998C8.31572 9.00001 8.06993 9.00004 7.86177 8.98303C7.63318 8.96436 7.36344 8.92029 7.09202 8.78199C6.7157 8.59025 6.40973 8.28429 6.21799 7.90796C6.07969 7.63654 6.03562 7.3668 6.01695 7.13821C5.99994 6.93005 5.99997 6.68426 6 6.43188C6 6.42126 6 6.41062 6 6.39998V4.03084C5.96977 4.03293 5.94013 4.03515 5.91104 4.03753C5.47262 4.07335 5.24842 4.13828 5.09202 4.21797C4.7157 4.40971 4.40973 4.71567 4.21799 5.092C4.1383 5.2484 4.07337 5.4726 4.03755 5.91102C4.00078 6.36111 4 6.9434 4 7.79998V16.2C4 17.0566 4.00078 17.6389 4.03755 18.0889C4.07337 18.5274 4.1383 18.7516 4.21799 18.908C4.40973 19.2843 4.7157 19.5902 5.09202 19.782C5.24842 19.8617 5.47262 19.9266 5.91104 19.9624C5.94013 19.9648 5.96977 19.967 6 19.9691L6 14.5681C5.99997 14.3157 5.99994 14.0699 6.01695 13.8617C6.03562 13.6332 6.07969 13.3634 6.21799 13.092C6.40974 12.7157 6.7157 12.4097 7.09202 12.218C7.36344 12.0797 7.63318 12.0356 7.86177 12.0169C8.06993 11.9999 8.31573 11.9999 8.56812 12H15.4319C15.6843 11.9999 15.9301 11.9999 16.1382 12.0169C16.3668 12.0356 16.6366 12.0797 16.908 12.218C17.2843 12.4097 17.5903 12.7157 17.782 13.092C17.9203 13.3634 17.9644 13.6332 17.9831 13.8617C18.0001 14.0699 18 14.3157 18 14.5681L18 19.9691C18.0302 19.967 18.0599 19.9648 18.089 19.9624C18.5274 19.9266 18.7516 19.8617 18.908 19.782C19.2843 19.5902 19.5903 19.2843 19.782 18.908C19.8617 18.7516 19.9266 18.5274 19.9624 18.0889C19.9992 17.6389 20 17.0566 20 16.2V9.32546C20 8.78868 19.9936 8.68328 19.9724 8.59496C19.9479 8.49293 19.9075 8.39538 19.8526 8.30591C19.8052 8.22846 19.7352 8.14939 19.3556 7.76983L18 6.41419ZM16 20V14.6C16 14.3035 15.9992 14.1412 15.9897 14.0246C15.9893 14.02 15.9889 14.0156 15.9886 14.0114C15.9844 14.011 15.98 14.0107 15.9754 14.0103C15.8588 14.0008 15.6965 14 15.4 14H8.6C8.30347 14 8.14122 14.0008 8.02463 14.0103C8.01999 14.0107 8.0156 14.011 8.01145 14.0114C8.01107 14.0156 8.01068 14.02 8.0103 14.0246C8.00078 14.1412 8 14.3035 8 14.6V20H16Z" fill="#0A0B0D"/>
</svg>
