<svg width="24" height="24" viewBox="0 0 24 24" fill="none" xmlns="http://www.w3.org/2000/svg">
<g clip-path="url(#clip0_2862_15704)">
<path d="M17.25 10.5C13.53 10.5 10.5 13.53 10.5 17.25C10.5 20.97 13.53 24 17.25 24C20.97 24 24 20.97 24 17.25C24 13.53 20.97 10.5 17.25 10.5ZM17.25 22.5C14.36 22.5 12 20.14 12 17.25C12 14.36 14.36 12 17.25 12C20.14 12 22.5 14.36 22.5 17.25C22.5 20.14 20.15 22.5 17.25 22.5Z" fill="#171717"/>
<path d="M19.9 16.5H18V14.6C18 14.19 17.66 13.85 17.25 13.85C16.84 13.85 16.5 14.19 16.5 14.6V17.25C16.5 17.66 16.84 18 17.25 18H19.9C20.31 18 20.65 17.66 20.65 17.25C20.65 16.84 20.32 16.5 19.9 16.5Z" fill="#171717"/>
<path d="M10.5 3H13.5V5.25C13.5 5.66 13.84 6 14.25 6C14.66 6 15 5.66 15 5.25V3H17.22C17.43 3.01 17.63 3.1 17.78 3.26C17.93 3.42 18 3.62 18 3.86V8.25C18 8.66 18.34 9 18.75 9C19.16 9 19.5 8.66 19.5 8.25V3.88C19.52 3.27 19.3 2.68 18.88 2.23C18.46 1.78 17.89 1.52 17.25 1.5H15V0.75C15 0.34 14.66 0 14.25 0C13.84 0 13.5 0.34 13.5 0.75V1.5H10.5V0.75C10.5 0.34 10.16 0 9.74997 0C9.33997 0 8.99997 0.34 8.99997 0.75V1.5H5.99997V0.75C5.99997 0.34 5.65997 0 5.24997 0C4.83997 0 4.49997 0.34 4.49997 0.75V1.5H2.21997C1.60997 1.52 1.03997 1.78 0.619971 2.23C0.199971 2.68 -0.0200288 3.27 -2.88297e-05 3.86V18.73C-0.0100288 19.03 0.0499712 19.33 0.159971 19.61C0.269971 19.89 0.439971 20.14 0.649971 20.35C0.859971 20.56 1.10997 20.73 1.38997 20.84C1.64997 20.95 1.92997 21 2.19997 21C2.21997 21 2.22997 21 2.24997 21H8.24997C8.65997 21 8.99997 20.66 8.99997 20.25C8.99997 19.84 8.65997 19.5 8.24997 19.5H2.22997C2.12997 19.5 2.03997 19.49 1.94997 19.45C1.85997 19.41 1.77997 19.36 1.70997 19.29C1.63997 19.22 1.58997 19.14 1.54997 19.05C1.50997 18.96 1.49997 18.86 1.49997 18.75V3.83C1.48997 3.62 1.56997 3.41 1.71997 3.26C1.85997 3.1 2.05997 3.01 2.24997 3H4.49997V5.25C4.49997 5.66 4.83997 6 5.24997 6C5.65997 6 5.99997 5.66 5.99997 5.25V3H8.99997V5.25C8.99997 5.66 9.33997 6 9.74997 6C10.16 6 10.5 5.66 10.5 5.25V3Z" fill="#171717"/>
</g>
<defs>
<clipPath id="clip0_2862_15704">
<rect width="24" height="24" fill="white"/>
</clipPath>
</defs>
</svg>
