<svg width="24" height="24" viewBox="0 0 24 24" fill="none" xmlns="http://www.w3.org/2000/svg">
<path fill-rule="evenodd" clip-rule="evenodd" d="M8 1C8.55229 1 9 1.44772 9 2V3H15V2C15 1.44772 15.4477 1 16 1C16.5523 1 17 1.44772 17 2V3.00163C17.4755 3.00489 17.891 3.01471 18.2518 3.04419C18.8139 3.09012 19.3306 3.18868 19.816 3.43597C20.5686 3.81947 21.1805 4.43139 21.564 5.18404C21.8113 5.66937 21.9099 6.18608 21.9558 6.74817C22 7.28936 22 7.95372 22 8.75868V11.5C22 12.0523 21.5523 12.5 21 12.5C20.4477 12.5 20 12.0523 20 11.5V11H4V17.2C4 18.0566 4.00078 18.6389 4.03755 19.089C4.07337 19.5274 4.1383 19.7516 4.21799 19.908C4.40973 20.2843 4.7157 20.5903 5.09202 20.782C5.24842 20.8617 5.47262 20.9266 5.91104 20.9624C6.36113 20.9992 6.94342 21 7.8 21H12.5C13.0523 21 13.5 21.4477 13.5 22C13.5 22.5523 13.0523 23 12.5 23H7.75868C6.95372 23 6.28936 23 5.74817 22.9558C5.18608 22.9099 4.66937 22.8113 4.18404 22.564C3.43139 22.1805 2.81947 21.5686 2.43598 20.816C2.18868 20.3306 2.09012 19.8139 2.04419 19.2518C1.99998 18.7106 1.99999 18.0463 2 17.2413V8.7587C1.99999 7.95373 1.99998 7.28937 2.04419 6.74817C2.09012 6.18608 2.18868 5.66937 2.43597 5.18404C2.81947 4.43139 3.43139 3.81947 4.18404 3.43597C4.66937 3.18868 5.18608 3.09012 5.74818 3.04419C6.10898 3.01471 6.52454 3.00489 7 3.00163V2C7 1.44772 7.44772 1 8 1ZM7 5.00176C6.55447 5.00489 6.20463 5.01356 5.91104 5.03755C5.47262 5.07337 5.24842 5.1383 5.09202 5.21799C4.7157 5.40973 4.40973 5.71569 4.21799 6.09202C4.1383 6.24842 4.07337 6.47262 4.03755 6.91104C4.00078 7.36113 4 7.94342 4 8.8V9H20V8.8C20 7.94342 19.9992 7.36113 19.9624 6.91104C19.9266 6.47262 19.8617 6.24842 19.782 6.09202C19.5903 5.71569 19.2843 5.40973 18.908 5.21799C18.7516 5.1383 18.5274 5.07337 18.089 5.03755C17.7954 5.01356 17.4455 5.00489 17 5.00176V6C17 6.55228 16.5523 7 16 7C15.4477 7 15 6.55228 15 6V5H9V6C9 6.55228 8.55229 7 8 7C7.44772 7 7 6.55228 7 6V5.00176ZM17.497 14.433C18.4947 13.8402 19.7966 13.8095 20.8617 14.6526C22.1948 15.7078 22.3659 17.5465 21.3275 18.819C20.9216 19.3165 20.0912 20.0752 19.4285 20.6598C19.0838 20.9638 18.7617 21.2404 18.5259 21.4409C18.4079 21.5412 18.3113 21.6228 18.2439 21.6794L18.1657 21.7449L18.1379 21.7681C18.1378 21.7682 18.1373 21.7687 17.4976 21C16.858 21.7687 16.8579 21.7686 16.8579 21.7686L16.8295 21.7449L16.7513 21.6794C16.6839 21.6228 16.5873 21.5412 16.4693 21.4409C16.2335 21.2404 15.9114 20.9638 15.5667 20.6598C14.904 20.0752 14.0736 19.3165 13.6677 18.819C12.6199 17.5349 12.8295 15.7135 14.123 14.661C15.1837 13.7979 16.4974 13.8394 17.497 14.433ZM17.4976 21L16.8579 21.7686C17.2285 22.077 17.7672 22.0766 18.1379 21.7681L17.4976 21ZM17.4976 19.6888C17.68 19.5321 17.8883 19.3514 18.1054 19.1599C18.7982 18.5488 19.4954 17.9009 19.7779 17.5546C20.1166 17.1395 20.071 16.5774 19.6204 16.2208C19.195 15.884 18.6348 15.9423 18.2416 16.3801C18.0519 16.5913 17.7814 16.7119 17.4976 16.7119C17.2138 16.7119 16.9433 16.5913 16.7536 16.3801C16.3531 15.9342 15.7851 15.887 15.3853 16.2123C14.9252 16.5867 14.888 17.1511 15.2173 17.5546C15.4998 17.9009 16.197 18.5488 16.8898 19.1599C17.1069 19.3514 17.3153 19.5321 17.4976 19.6888Z" fill="#0A0B0D"/>
</svg>
