<svg width="24" height="24" viewBox="0 0 24 24" fill="none" xmlns="http://www.w3.org/2000/svg">
<path d="M17.2504 10.5C13.5305 10.5 10.5007 13.53 10.5007 17.25C10.5007 20.97 13.5305 24 17.2504 24C20.9702 24 24 20.97 24 17.25C24 13.53 20.9702 10.5 17.2504 10.5ZM17.2504 22.5C14.3605 22.5 12.0006 20.14 12.0006 17.25C12.0006 14.36 14.3605 12 17.2504 12C20.1402 12 22.5001 14.36 22.5001 17.25C22.5001 20.14 20.1502 22.5 17.2504 22.5Z" fill="#171717"/>
<path d="M19.9002 16.5H18.0003V14.6C18.0003 14.19 17.6603 13.85 17.2504 13.85C16.8404 13.85 16.5004 14.19 16.5004 14.6V17.25C16.5004 17.66 16.8404 18 17.2504 18H19.9002C20.3102 18 20.6502 17.66 20.6502 17.25C20.6502 16.84 20.3202 16.5 19.9002 16.5Z" fill="#171717"/>
<path d="M10.5007 3H13.5005V5.25C13.5005 5.66 13.8405 6 14.2505 6C14.6605 6 15.0005 5.66 15.0005 5.25V3H17.2204C17.4303 3.01 17.6303 3.1 17.7803 3.26C17.9303 3.42 18.0003 3.62 18.0003 3.86V8.25C18.0003 8.66 18.3403 9 18.7503 9C19.1603 9 19.5002 8.66 19.5002 8.25V3.88C19.5202 3.27 19.3002 2.68 18.8803 2.23C18.4603 1.78 17.8903 1.52 17.2504 1.5H15.0005V0.75C15.0005 0.34 14.6605 0 14.2505 0C13.8405 0 13.5005 0.34 13.5005 0.75V1.5H10.5007V0.75C10.5007 0.34 10.1607 0 9.75074 0C9.34077 0 9.00078 0.34 9.00078 0.75V1.5H6.00094V0.75C6.00094 0.34 5.66096 0 5.25098 0C4.841 0 4.50102 0.34 4.50102 0.75V1.5H2.22114C1.61117 1.52 1.0412 1.78 0.62122 2.23C0.201242 2.68 -0.0187461 3.27 0.00125284 3.86V18.73C-0.00874663 19.03 0.0512502 19.33 0.161244 19.61C0.271239 19.89 0.44123 20.14 0.651219 20.35C0.861208 20.56 1.11119 20.73 1.39118 20.84C1.65117 20.95 1.93115 21 2.20114 21C2.22114 21 2.23114 21 2.25114 21H8.25082C8.6608 21 9.00078 20.66 9.00078 20.25C9.00078 19.84 8.6608 19.5 8.25082 19.5H2.23114C2.13114 19.5 2.04115 19.49 1.95115 19.45C1.86116 19.41 1.78116 19.36 1.71116 19.29C1.64117 19.22 1.59117 19.14 1.55117 19.05C1.51117 18.96 1.50117 18.86 1.50117 18.75V3.83C1.49118 3.62 1.57117 3.41 1.72116 3.26C1.86116 3.1 2.06115 3.01 2.25114 3H4.50102V5.25C4.50102 5.66 4.841 6 5.25098 6C5.66096 6 6.00094 5.66 6.00094 5.25V3H9.00078V5.25C9.00078 5.66 9.34077 6 9.75074 6C10.1607 6 10.5007 5.66 10.5007 5.25V3Z" fill="#171717"/>
</svg>
