<svg width="25" height="24" viewBox="0 0 25 24" fill="none" xmlns="http://www.w3.org/2000/svg">
<path d="M17.2513 10.5C13.5313 10.5 10.5013 13.53 10.5013 17.25C10.5013 20.97 13.5313 24 17.2513 24C20.9713 24 24.0013 20.97 24.0013 17.25C24.0013 13.53 20.9713 10.5 17.2513 10.5ZM17.2513 22.5C14.3613 22.5 12.0013 20.14 12.0013 17.25C12.0013 14.36 14.3613 12 17.2513 12C20.1413 12 22.5013 14.36 22.5013 17.25C22.5013 20.14 20.1513 22.5 17.2513 22.5Z" fill="#171717"/>
<path d="M19.9013 16.5H18.0013V14.6C18.0013 14.19 17.6613 13.85 17.2513 13.85C16.8413 13.85 16.5013 14.19 16.5013 14.6V17.25C16.5013 17.66 16.8413 18 17.2513 18H19.9013C20.3113 18 20.6513 17.66 20.6513 17.25C20.6513 16.84 20.3213 16.5 19.9013 16.5Z" fill="#171717"/>
<path d="M10.5013 3H13.5013V5.25C13.5013 5.66 13.8413 6 14.2513 6C14.6613 6 15.0013 5.66 15.0013 5.25V3H17.2213C17.4313 3.01 17.6313 3.1 17.7813 3.26C17.9313 3.42 18.0013 3.62 18.0013 3.86V8.25C18.0013 8.66 18.3413 9 18.7513 9C19.1613 9 19.5013 8.66 19.5013 8.25V3.88C19.5213 3.27 19.3013 2.68 18.8813 2.23C18.4613 1.78 17.8913 1.52 17.2513 1.5H15.0013V0.75C15.0013 0.34 14.6613 0 14.2513 0C13.8413 0 13.5013 0.34 13.5013 0.75V1.5H10.5013V0.75C10.5013 0.34 10.1613 0 9.75125 0C9.34125 0 9.00125 0.34 9.00125 0.75V1.5H6.00125V0.75C6.00125 0.34 5.66125 0 5.25125 0C4.84125 0 4.50125 0.34 4.50125 0.75V1.5H2.22125C1.61125 1.52 1.04125 1.78 0.621253 2.23C0.201253 2.68 -0.0187471 3.27 0.00125291 3.86V18.73C-0.00874709 19.03 0.0512529 19.33 0.161253 19.61C0.271253 19.89 0.441253 20.14 0.651253 20.35C0.861253 20.56 1.11125 20.73 1.39125 20.84C1.65125 20.95 1.93125 21 2.20125 21C2.22125 21 2.23125 21 2.25125 21H8.25125C8.66125 21 9.00125 20.66 9.00125 20.25C9.00125 19.84 8.66125 19.5 8.25125 19.5H2.23125C2.13125 19.5 2.04125 19.49 1.95125 19.45C1.86125 19.41 1.78125 19.36 1.71125 19.29C1.64125 19.22 1.59125 19.14 1.55125 19.05C1.51125 18.96 1.50125 18.86 1.50125 18.75V3.83C1.49125 3.62 1.57125 3.41 1.72125 3.26C1.86125 3.1 2.06125 3.01 2.25125 3H4.50125V5.25C4.50125 5.66 4.84125 6 5.25125 6C5.66125 6 6.00125 5.66 6.00125 5.25V3H9.00125V5.25C9.00125 5.66 9.34125 6 9.75125 6C10.1613 6 10.5013 5.66 10.5013 5.25V3Z" fill="#171717"/>
</svg>
