<svg width="24" height="24" viewBox="0 0 24 24" fill="none" xmlns="http://www.w3.org/2000/svg">
<path opacity="0.2" d="M5.5 12.005L2 4.005L3 3.505L21 12.005H5.5Z" fill="#101C2D"/>
<path fill-rule="evenodd" clip-rule="evenodd" d="M4.03883 2.82574C4.04996 2.83075 4.06108 2.83576 4.0722 2.84076L20.8226 10.3784C21.0507 10.481 21.2796 10.584 21.4581 10.6844C21.6239 10.7777 21.9441 10.9712 22.1265 11.3401C22.3337 11.7591 22.3337 12.2508 22.1265 12.6698C21.9441 13.0387 21.624 13.2322 21.4581 13.3255C21.2796 13.426 21.0508 13.5289 20.8226 13.6315L4.04456 21.1816C3.81038 21.2871 3.57711 21.3921 3.38043 21.4602C3.20014 21.5227 2.83645 21.6372 2.43402 21.5249C1.97957 21.398 1.61128 21.0648 1.43981 20.6252C1.28796 20.236 1.36562 19.8627 1.4098 19.6771C1.45801 19.4746 1.53927 19.232 1.62085 18.9884L3.94624 12.0422L1.62519 5.04924C1.62135 5.03767 1.6175 5.02609 1.61366 5.01451C1.53298 4.77156 1.45254 4.52935 1.40495 4.32711C1.36127 4.14144 1.28489 3.76881 1.43715 3.38058C1.60922 2.94185 1.97748 2.60949 2.43149 2.48316C2.83326 2.37138 3.19613 2.48544 3.37636 2.54787C3.57267 2.61588 3.8054 2.72065 4.03883 2.82574ZM3.66685 4.85152L5.70924 11.005H10.5003C11.0526 11.005 11.5003 11.4527 11.5003 12.005C11.5003 12.5572 11.0526 13.005 10.5003 13.005H5.73304L3.67413 19.1552L19.5635 12.005L3.66685 4.85152Z" fill="#101C2D"/>
</svg>
