<svg width="24" height="24" viewBox="0 0 24 24" fill="none" xmlns="http://www.w3.org/2000/svg">
<path fill-rule="evenodd" clip-rule="evenodd" d="M4.03896 2.8208C4.05008 2.8258 4.0612 2.83081 4.07232 2.83582L20.8227 10.3734C21.0509 10.4761 21.2797 10.579 21.4583 10.6795C21.6241 10.7728 21.9442 10.9663 22.1266 11.3352C22.3338 11.7542 22.3338 12.2458 22.1266 12.6648C21.9442 13.0338 21.6241 13.2272 21.4583 13.3205C21.2797 13.421 21.0509 13.524 20.8227 13.6266L4.04468 21.1767C3.8105 21.2821 3.57723 21.3871 3.38055 21.4553C3.20026 21.5177 2.83657 21.6322 2.43414 21.5199C1.97969 21.3931 1.61141 21.0598 1.43993 20.6203C1.28808 20.2311 1.36574 19.8578 1.40993 19.6721C1.45814 19.4696 1.53939 19.227 1.62097 18.9835L3.94636 12.0373L1.62531 5.0443C1.62147 5.03272 1.61762 5.02115 1.61378 5.00957C1.5331 4.76662 1.45266 4.5244 1.40508 4.32217C1.36139 4.1365 1.28501 3.76387 1.43727 3.37564C1.60934 2.93691 1.9776 2.60455 2.43162 2.47822C2.83338 2.36643 3.19625 2.4805 3.37648 2.54293C3.57279 2.61093 3.80552 2.71571 4.03896 2.8208ZM3.66697 4.84658L5.70936 11H10.5005C11.0527 11 11.5005 11.4477 11.5005 12C11.5005 12.5523 11.0527 13 10.5005 13H5.73316L3.67426 19.1502L19.5636 12L3.66697 4.84658Z" fill="#101C2D"/>
</svg>
