<svg width="24" height="24" viewBox="0 0 24 24" fill="none" xmlns="http://www.w3.org/2000/svg">
<path d="M23.6192 1.13514C23.2691 0.585261 22.7131 0.205346 22.0748 0.0653774C21.4261 -0.0845889 20.7569 0.0253864 20.2009 0.375308L1.16346 11.9227C0.432435 12.3626 0 13.1324 0 13.9723C0 15.302 1.11198 16.3817 2.48135 16.3817H7.72205V20.8007C7.72205 21.4406 7.97945 22.0504 8.45307 22.5103C8.92669 22.9702 9.54445 23.2202 10.2137 23.2202C10.7182 23.2202 11.2021 23.0702 11.614 22.8003L14.2806 21.0407L15.8251 23.0402C16.1957 23.5201 16.7414 23.85 17.3489 23.96C17.5033 23.99 17.6577 24 17.8122 24C18.9859 24 20.0258 23.1902 20.2524 22.0304L23.9589 2.86475C24.0722 2.26488 23.9486 1.65502 23.6192 1.13514ZM1.53411 13.9723C1.53411 13.6523 1.69885 13.3624 1.97684 13.2024L21.0143 1.64502C21.0246 1.63502 21.0452 1.63502 21.0555 1.62503L10.6873 14.882H8.49425H2.48135C1.95625 14.882 1.53411 14.4721 1.53411 13.9723ZM13.3437 19.8309L10.7388 21.5506C10.3784 21.7905 9.85333 21.7405 9.54445 21.4406C9.36942 21.2706 9.26646 21.0407 9.26646 20.7907V16.3717H10.677L13.3437 19.8309ZM18.7285 21.7605C18.6359 22.2604 18.1417 22.5803 17.6269 22.4903C17.4003 22.4503 17.1944 22.3204 17.0503 22.1404L12.3862 16.0918L12.0361 15.6319L22.4351 2.33487C22.4454 2.41485 22.4557 2.50483 22.4351 2.58481L18.7285 21.7605Z" fill="#171717"/>
</svg>
