<svg width="24" height="24" viewBox="0 0 24 24" fill="none" xmlns="http://www.w3.org/2000/svg">
<g clip-path="url(#clip0_2849_15110)">
<path d="M23.29 1.13002C22.95 0.580021 22.41 0.200021 21.79 0.060021C21.16 -0.089979 20.51 0.020021 19.97 0.370021L1.47998 11.92C0.769976 12.36 0.349976 13.13 0.349976 13.97C0.349976 15.3 1.42998 16.38 2.75998 16.38H7.84998V20.8C7.84998 21.44 8.09998 22.05 8.55998 22.51C9.01998 22.97 9.61998 23.22 10.27 23.22C10.76 23.22 11.23 23.07 11.63 22.8L14.22 21.04L15.72 23.04C16.08 23.52 16.61 23.85 17.2 23.96C17.35 23.99 17.5 24 17.65 24C18.79 24 19.8 23.19 20.02 22.03L23.62 2.86002C23.73 2.26002 23.61 1.65002 23.29 1.13002ZM1.83998 13.97C1.83998 13.65 1.99998 13.36 2.26998 13.2L20.76 1.64002C20.77 1.63002 20.79 1.63002 20.8 1.62002L10.73 14.88H8.59998H2.75998C2.24998 14.88 1.83998 14.47 1.83998 13.97ZM13.31 19.83L10.78 21.55C10.43 21.79 9.91998 21.74 9.61998 21.44C9.44998 21.27 9.34998 21.04 9.34998 20.79V16.37H10.72L13.31 19.83ZM18.54 21.76C18.45 22.26 17.97 22.58 17.47 22.49C17.25 22.45 17.05 22.32 16.91 22.14L12.38 16.09L12.04 15.63L22.14 2.33002C22.15 2.41002 22.16 2.50002 22.14 2.58002L18.54 21.76Z" fill="#171717"/>
</g>
<defs>
<clipPath id="clip0_2849_15110">
<rect width="24" height="24" fill="white"/>
</clipPath>
</defs>
</svg>
