<svg width="24" height="24" viewBox="0 0 24 24" fill="none" xmlns="http://www.w3.org/2000/svg">
<path d="M19.7134 12C19.7134 11.77 19.7031 11.55 19.6826 11.32L21.5955 9.91C22.0069 9.61 22.12 9.05 21.8629 8.61L19.9397 5.38C19.6826 4.94 19.1272 4.76 18.6541 4.96L16.4429 5.87C16.0624 5.61 15.6613 5.38 15.2396 5.19L14.9414 2.88C14.8797 2.38 14.4374 2 13.9232 2H10.0871C9.56256 2 9.12032 2.38 9.05861 2.88L8.76036 5.19C8.33869 5.38 7.93759 5.61 7.55706 5.87L5.34588 4.96C4.87279 4.76 4.31742 4.94 4.06031 5.38L2.13709 8.62C1.87998 9.06 1.99311 9.61 2.40449 9.92L4.31742 11.33C4.29685 11.55 4.28657 11.77 4.28657 12C4.28657 12.23 4.29685 12.45 4.31742 12.68L2.40449 14.09C1.99311 14.39 1.87998 14.95 2.13709 15.39L4.06031 18.62C4.31742 19.06 4.87279 19.24 5.34588 19.04L7.55706 18.13C7.93759 18.39 8.33869 18.62 8.76036 18.81L9.05861 21.12C9.12032 21.62 9.56256 22 10.0768 22H13.9129C14.4272 22 14.8694 21.62 14.9311 21.12L15.2294 18.81C15.651 18.62 16.0521 18.39 16.4327 18.13L18.6438 19.04C19.1169 19.24 19.6723 19.06 19.9294 18.62L21.8526 15.39C22.1097 14.95 21.9966 14.4 21.5852 14.09L19.6723 12.68C19.7031 12.45 19.7134 12.23 19.7134 12ZM12.0411 15.5C10.0562 15.5 8.44154 13.93 8.44154 12C8.44154 10.07 10.0562 8.5 12.0411 8.5C14.0261 8.5 15.6407 10.07 15.6407 12C15.6407 13.93 14.0261 15.5 12.0411 15.5Z" fill="#171717"/>
</svg>
