<svg width="24" height="24" viewBox="0 0 24 24" fill="none" xmlns="http://www.w3.org/2000/svg">
<circle opacity="0.2" cx="12" cy="12" r="5" fill="#101C2D"/>
<path fill-rule="evenodd" clip-rule="evenodd" d="M15.259 1.00534C14.6087 1.04798 14.0155 1.30411 13.544 1.74587C13.5009 1.78619 13.2483 2.0577 12.9825 2.34923C12.6903 2.66975 12.4777 2.89563 12.4447 2.92061C12.3769 2.97199 12.267 3.02451 12.1771 3.0485C12.0812 3.0741 11.916 3.0741 11.8201 3.0485C11.73 3.02447 11.6202 2.97197 11.5521 2.92033C11.5181 2.89454 11.3226 2.68587 11.0378 2.37119C10.5406 1.82197 10.4629 1.74157 10.309 1.61717C9.90836 1.29333 9.45962 1.10077 8.93181 1.02622C8.77403 1.00394 8.39128 1.00389 8.23221 1.02614C7.52323 1.1253 6.9033 1.46958 6.46265 2.00886C6.24917 2.27014 6.08795 2.56193 5.98374 2.87566C5.9022 3.12116 5.8634 3.32533 5.84664 3.59726C5.8378 3.74075 5.83995 3.81907 5.86942 4.42886C5.90294 5.12249 5.90438 5.26416 5.8789 5.35726C5.82059 5.57036 5.65542 5.7597 5.45304 5.84546C5.29221 5.91362 5.29525 5.91354 4.47736 5.87147C3.81692 5.83751 3.75417 5.83561 3.59735 5.84471C3.09319 5.87398 2.64453 6.02258 2.23501 6.29592C1.57518 6.73635 1.15299 7.39913 1.03356 8.18206C1.01021 8.33521 1.00072 8.66037 1.01507 8.81628C1.07425 9.45925 1.34876 10.0537 1.79501 10.5051C1.83857 10.5492 2.10191 10.7918 2.38021 11.0444C2.68502 11.3209 2.90119 11.5237 2.92388 11.5544C2.97366 11.6216 3.02577 11.7294 3.05055 11.8165C3.06716 11.8748 3.07049 11.9072 3.06998 12.0057C3.06944 12.1085 3.06616 12.135 3.04552 12.2032C3.01807 12.2939 2.96709 12.3963 2.91932 12.4568C2.90111 12.4798 2.64839 12.714 2.35773 12.9772C2.06707 13.2404 1.79436 13.4928 1.75171 13.5381C1.36254 13.9514 1.11283 14.4701 1.02992 15.0373C1.00047 15.2387 0.99817 15.5513 1.02464 15.7565C1.08101 16.1938 1.21912 16.5673 1.45994 16.9337C1.56038 17.0865 1.65978 17.2075 1.80381 17.3522C2.26059 17.8111 2.83129 18.0822 3.48021 18.1485C3.64636 18.1655 3.8829 18.1605 4.52741 18.1262C4.88247 18.1074 5.17223 18.0958 5.21821 18.0987C5.57751 18.1211 5.86653 18.4014 5.90431 18.7641C5.90786 18.7981 5.8954 19.1061 5.87353 19.5253C5.83952 20.177 5.83751 20.2413 5.84656 20.3921C5.86308 20.667 5.90156 20.8707 5.98374 21.1181C6.21054 21.8008 6.71097 22.3774 7.35661 22.6997C7.76679 22.9044 8.19781 22.9986 8.66341 22.9853C9.26892 22.968 9.83242 22.7603 10.3036 22.3808C10.4601 22.2547 10.5393 22.173 11.0461 21.6153C11.299 21.337 11.5265 21.0935 11.5516 21.0742C11.6152 21.0255 11.7293 20.9699 11.8158 20.9456C11.919 20.9166 12.0867 20.9163 12.1878 20.945C12.2819 20.9717 12.3872 21.0235 12.4558 21.0768C12.4893 21.1028 12.7056 21.3345 12.9923 21.6513C13.2661 21.9539 13.5142 22.2199 13.5694 22.2699C13.9315 22.5985 14.3841 22.8298 14.8542 22.9265C15.2998 23.0182 15.7468 23.0015 16.1786 22.8771C16.7741 22.7055 17.3083 22.322 17.6647 21.8102C17.9579 21.3893 18.117 20.9304 18.1514 20.4059C18.1614 20.2537 18.1599 20.2022 18.1279 19.5764C18.109 19.2095 18.0942 18.8677 18.0949 18.8169C18.0993 18.5012 18.2989 18.2328 18.6055 18.1303C18.7288 18.0891 18.7956 18.0888 19.5035 18.1253C20.3076 18.1669 20.4497 18.166 20.7274 18.1175C21.5452 17.9747 22.2602 17.4609 22.6627 16.7269C22.8378 16.4074 22.9543 16.022 22.9817 15.6709C22.9867 15.6079 22.994 15.5233 22.9981 15.4828C23.0021 15.4423 23.0021 15.3849 22.9979 15.3552C22.9938 15.3255 22.9865 15.2458 22.9817 15.1781C22.9385 14.5672 22.6543 13.9486 22.2096 13.4973C22.1667 13.4537 21.9119 13.2197 21.6433 12.9773C21.3747 12.7348 21.137 12.517 21.115 12.4933C21.0339 12.4055 20.983 12.3122 20.9463 12.1842C20.9183 12.0861 20.9183 11.9076 20.9463 11.8095C20.9822 11.6843 21.0333 11.5895 21.1107 11.5048C21.1302 11.4835 21.366 11.2678 21.6346 11.0256C22.1616 10.5505 22.2632 10.4527 22.3793 10.3085C22.7187 9.88724 22.9238 9.39072 22.9816 8.85007C22.997 8.70616 22.9947 8.40688 22.9771 8.26126C22.9023 7.64164 22.6322 7.08187 22.1983 6.64718C21.6786 6.12663 20.9911 5.83772 20.2706 5.83708C20.1908 5.83701 19.8561 5.85079 19.5271 5.86771C19.198 5.88462 18.8899 5.89846 18.8425 5.89846C18.6893 5.89846 18.5549 5.85855 18.4289 5.77557C18.3678 5.73539 18.2708 5.64198 18.2312 5.58527C18.198 5.53773 18.1415 5.41725 18.1276 5.36436C18.0947 5.23907 18.0947 5.22338 18.133 4.47729C18.1669 3.81579 18.1689 3.75242 18.1597 3.59726C18.1497 3.42706 18.1288 3.27314 18.0964 3.13086C17.9305 2.40262 17.4622 1.76184 16.8166 1.37981C16.3551 1.1067 15.7889 0.970586 15.259 1.00534ZM8.48301 3.01302C8.40038 3.02494 8.31393 3.05398 8.22814 3.09862C8.16697 3.13046 8.13122 3.15743 8.06878 3.21886C7.91994 3.36529 7.84501 3.5398 7.84501 3.74001C7.84501 3.78586 7.85924 4.11505 7.87664 4.47152C7.89898 4.92948 7.90682 5.16098 7.90335 5.26046C7.8577 6.56982 6.8872 7.66907 5.59661 7.8732C5.34005 7.91379 5.20341 7.91388 4.42621 7.87404C4.09709 7.85718 3.78899 7.84335 3.74154 7.84332C3.54255 7.84319 3.35413 7.92421 3.21513 8.06971C3.10865 8.18116 3.04663 8.30249 3.0176 8.45615C2.9826 8.64141 3.0359 8.86359 3.15299 9.0205C3.17914 9.05555 3.36306 9.22918 3.65621 9.49558C3.91031 9.72649 4.15385 9.94884 4.19741 9.98969C4.66222 10.4255 4.94235 10.9563 5.04844 11.6022C5.06534 11.7052 5.06776 11.7539 5.06795 11.9969C5.06819 12.2936 5.06277 12.3536 5.0154 12.578C4.90995 13.0774 4.64926 13.5601 4.28776 13.9255C4.24291 13.9709 3.98445 14.2082 3.71341 14.453C3.44237 14.6978 3.20543 14.9149 3.18688 14.9355C3.04283 15.0953 2.9752 15.3465 3.01898 15.559C3.08487 15.8788 3.33652 16.1123 3.65748 16.1515C3.72818 16.1602 3.84104 16.1565 4.45701 16.1253C5.07821 16.0938 5.19306 16.0901 5.31501 16.0973C5.57681 16.1129 5.79548 16.154 6.02781 16.2314C6.9373 16.5344 7.6151 17.274 7.83675 18.2053C7.91568 18.5369 7.92112 18.7234 7.87656 19.5712C7.8592 19.9013 7.84501 20.209 7.84501 20.2548C7.84501 20.5723 8.05898 20.8591 8.36662 20.954C8.59081 21.0232 8.84691 20.9769 9.035 20.8333C9.0581 20.8157 9.26604 20.5934 9.49709 20.3393C9.72813 20.0852 9.95059 19.8416 9.99144 19.7981C10.4277 19.3328 10.9574 19.0532 11.604 18.947C11.7069 18.9301 11.7556 18.9277 11.9986 18.9275C12.2954 18.9273 12.3553 18.9327 12.5797 18.9801C13.0029 19.0694 13.4263 19.2761 13.762 19.5573C13.8931 19.6671 13.9822 19.7605 14.4584 20.2868C14.7079 20.5626 14.9347 20.8063 14.9623 20.8283C15.025 20.878 15.1317 20.9305 15.2238 20.9569C15.3246 20.9858 15.5099 20.986 15.6092 20.9573C15.8819 20.8786 16.0755 20.674 16.1393 20.3971C16.1589 20.3117 16.1572 20.2285 16.1217 19.5356C16.1046 19.2025 16.0906 18.8778 16.0906 18.814C16.0907 18.2635 16.2697 17.707 16.5946 17.2473C16.9518 16.7421 17.4753 16.3702 18.0704 16.1989C18.2013 16.1612 18.3619 16.128 18.4946 16.1111C18.7075 16.0839 18.8283 16.0853 19.5666 16.1236C19.9514 16.1436 20.288 16.1576 20.3146 16.1547C20.5099 16.1337 20.6712 16.0537 20.8011 15.9134C21.0547 15.6394 21.0544 15.196 20.8003 14.9212C20.7727 14.8915 20.5285 14.6674 20.2574 14.4234C19.7769 13.9907 19.6404 13.8598 19.5391 13.7345C19.2589 13.3881 19.0654 12.982 18.9777 12.5566C18.9305 12.3273 18.9134 12.1007 18.9251 11.8598C18.9337 11.6818 18.9452 11.593 18.9827 11.4168C19.086 10.9306 19.3363 10.4591 19.6809 10.1016C19.7269 10.0538 19.9982 9.80315 20.2838 9.54465C20.5694 9.28615 20.8138 9.06147 20.827 9.04536C20.8986 8.95801 20.9563 8.83236 20.9783 8.71569C21.0247 8.47001 20.9502 8.23047 20.7728 8.05446C20.6876 7.96993 20.6023 7.917 20.4876 7.87745C20.3577 7.83268 20.3435 7.8326 19.5497 7.87211C18.8775 7.90556 18.813 7.90745 18.6697 7.89788C18.4944 7.88618 18.3439 7.86349 18.1881 7.82527C17.0643 7.54955 16.2352 6.60074 16.1123 5.44966C16.0931 5.27043 16.0964 5.08907 16.1309 4.42437C16.172 3.62989 16.1705 3.59622 16.0871 3.42136C16.0123 3.2646 15.9062 3.1573 15.7518 3.08221C15.6233 3.01971 15.5727 3.00818 15.4262 3.008C15.3238 3.00786 15.2911 3.01124 15.2326 3.028C15.1376 3.05523 15.0326 3.10739 14.9686 3.15916C14.9396 3.18267 14.7443 3.38986 14.5347 3.61958C13.9475 4.26326 13.9302 4.28174 13.8303 4.37036C13.4413 4.71565 12.9819 4.9406 12.4826 5.03026C12.309 5.06143 12.237 5.06682 11.9942 5.06676C11.7517 5.0667 11.6954 5.06241 11.5146 5.03017C11.0928 4.95494 10.6646 4.76546 10.3266 4.50444C10.1387 4.35931 10.085 4.30359 9.32161 3.46072C9.19235 3.31802 9.06532 3.18474 9.03932 3.16453C8.93305 3.08197 8.80512 3.02987 8.66709 3.01293C8.57909 3.00215 8.55838 3.00215 8.48301 3.01302ZM11.607 7.01213C10.5266 7.10001 9.53337 7.51683 8.71621 8.22525C8.58631 8.33787 8.33961 8.58457 8.227 8.71446C7.57526 9.46623 7.16723 10.3721 7.03984 11.3501C6.98902 11.7402 6.98755 12.2385 7.03606 12.6217C7.15167 13.5346 7.51368 14.3927 8.08663 15.112C8.37464 15.4736 8.73515 15.8144 9.11373 16.0829C9.76705 16.5462 10.5499 16.8527 11.343 16.9556C11.7524 17.0087 12.2462 17.0086 12.6542 16.9555C14.0213 16.7775 15.2606 16.0319 16.0696 14.9009C16.8506 13.8089 17.1555 12.4543 16.9213 11.117C16.7824 10.3243 16.4409 9.56069 15.9371 8.91686C15.7055 8.62077 15.3897 8.30308 15.1006 8.07525C14.3848 7.51111 13.5402 7.15472 12.6431 7.03826C12.3398 6.99888 11.9047 6.98791 11.607 7.01213ZM11.8182 9.00541C11.2027 9.04147 10.6213 9.26413 10.133 9.65072C9.99901 9.75682 9.75933 9.99545 9.65478 10.1269C8.83369 11.1589 8.78076 12.602 9.52404 13.6909C9.62835 13.8437 9.72004 13.9522 9.88165 14.1141C10.1473 14.3802 10.3775 14.5442 10.7083 14.7031C11.12 14.9008 11.5288 14.9925 11.9986 14.9925C12.4908 14.9925 12.9145 14.8925 13.3514 14.6733C13.6423 14.5273 13.866 14.3636 14.1156 14.1139C14.3644 13.8652 14.5292 13.6403 14.6735 13.3527C14.953 12.7957 15.0545 12.1715 14.9648 11.561C14.8404 10.7142 14.3617 9.96537 13.6398 9.48848C13.204 9.20056 12.7015 9.03636 12.1601 9.00492C11.9984 8.99553 11.9865 8.99555 11.8182 9.00541ZM1 15.4201C1 15.4322 1.002 15.4371 1.00444 15.4311C1.00688 15.425 1.00688 15.4151 1.00444 15.4091C1.002 15.403 1 15.408 1 15.4201Z" fill="#101C2D"/>
</svg>
