<svg width="24" height="24" viewBox="0 0 24 24" fill="none" xmlns="http://www.w3.org/2000/svg">
<path fill-rule="evenodd" clip-rule="evenodd" d="M5.99015 5.9959L5.40227 5.96673L5.39824 5.96654C4.73133 5.93493 4.07089 6.10986 3.50706 6.4675C2.94323 6.82515 2.50351 7.34808 2.2479 7.9649C1.9923 8.58173 1.93327 9.26237 2.07881 9.91396C2.22435 10.5655 2.56737 11.1563 3.06105 11.6058L3.50247 12.0069L3.06592 12.4013L3.062 12.4049C2.5675 12.8543 2.2239 13.4454 2.07813 14.0975C1.93236 14.7495 1.99154 15.4307 2.24753 16.0478C2.50351 16.6649 2.94382 17.1879 3.50826 17.5453C4.07251 17.9027 4.73332 18.0771 5.40044 18.0448L5.99378 18.0162L5.96389 18.6032L5.96379 18.6054C5.93053 19.2742 6.10511 19.9369 6.46352 20.5025C6.82193 21.0681 7.34661 21.509 7.96555 21.7645C8.58449 22.0201 9.26738 22.0778 9.92047 21.9297C10.5727 21.7819 11.1632 21.436 11.6112 20.9394L12.0035 20.5052L12.3951 20.9393L12.4019 20.9468C12.8517 21.4398 13.4425 21.7821 14.0939 21.927C14.7453 22.072 15.4256 22.0125 16.042 21.7567C16.6584 21.5009 17.1809 21.0612 17.5382 20.4976C17.8956 19.934 18.0704 19.2739 18.0388 18.6073L18.0101 18.0128L18.5975 18.0425L18.609 18.0431C19.2744 18.0725 19.9328 17.8963 20.4947 17.5385C21.0566 17.1806 21.4947 16.6585 21.7495 16.043C22.0042 15.4275 22.0633 14.7485 21.9187 14.0982C21.7742 13.448 21.433 12.8581 20.9415 12.4085L20.4985 12.0082L20.9326 11.616C21.4295 11.1671 21.7756 10.5753 21.9229 9.92209C22.0702 9.26879 22.0117 8.58593 21.7555 7.96722C21.4993 7.34852 21.0579 6.82426 20.4919 6.46637C19.9259 6.10849 19.263 5.9345 18.5942 5.96833L18.0074 5.99849L18.0375 5.41315L18.0376 5.41148C18.0713 4.74312 17.8975 4.0807 17.54 3.51501C17.1826 2.9493 16.659 2.50796 16.0409 2.25147C15.4228 1.99497 14.7405 1.93586 14.0875 2.0823C13.4345 2.22874 12.8428 2.57356 12.3934 3.06952L12.0017 3.50309L11.6103 3.06988C11.1615 2.57306 10.5698 2.22694 9.91664 2.07956C9.26339 1.93216 8.58051 1.99053 7.96172 2.2467C7.34293 2.50288 6.8186 2.9443 6.46072 3.51038C6.10364 4.07518 5.92973 4.73641 5.96265 5.40369L5.99015 5.9959ZM7.77895 5.31611L7.82637 6.33707C7.83678 6.53633 7.8052 6.73554 7.73369 6.9218C7.66217 7.10806 7.55232 7.27721 7.41124 7.41829C7.27017 7.55936 7.10102 7.66922 6.91476 7.74073C6.7285 7.81225 6.52929 7.84382 6.33003 7.83342L5.31215 7.78291C5.01906 7.76902 4.72884 7.84589 4.48109 8.00305C4.23333 8.16021 4.04011 8.38998 3.92779 8.66103C3.81547 8.93208 3.78953 9.2312 3.85349 9.51756C3.91745 9.80393 4.06821 10.0636 4.2852 10.2611L5.04068 10.9477C5.18936 11.0812 5.30828 11.2446 5.38973 11.4271C5.47117 11.6096 5.51332 11.8072 5.51343 12.007C5.51355 12.2069 5.47162 12.4045 5.39038 12.5871C5.30914 12.7697 5.19039 12.9331 5.04187 13.0668L4.28494 13.7506C4.06772 13.948 3.91677 14.2077 3.85274 14.4942C3.7887 14.7806 3.81469 15.0799 3.92717 15.351C4.03965 15.6222 4.23311 15.852 4.48113 16.0091C4.72914 16.1661 5.01959 16.2428 5.31278 16.2285L6.33477 16.1792C6.53403 16.1691 6.7332 16.2009 6.91941 16.2725C7.10562 16.3442 7.27474 16.4541 7.41583 16.5952C7.55692 16.7363 7.66684 16.9054 7.7385 17.0916C7.81016 17.2778 7.84197 17.477 7.83185 17.6763L7.77995 18.6957C7.76534 18.9895 7.84204 19.2807 7.99953 19.5292C8.15701 19.7777 8.38755 19.9714 8.65951 20.0837C8.93146 20.196 9.23149 20.2214 9.5184 20.1563C9.80532 20.0913 10.065 19.939 10.2619 19.7204L10.9458 18.9635C11.0794 18.8154 11.2426 18.697 11.4248 18.616C11.6071 18.535 11.8043 18.4931 12.0038 18.4931C12.2032 18.4931 12.4005 18.535 12.5827 18.6161C12.765 18.6971 12.9282 18.8156 13.0618 18.9637L13.7453 19.7212C13.9429 19.9379 14.2026 20.0883 14.4889 20.152C14.7752 20.2157 15.0741 20.1896 15.345 20.0772C15.6159 19.9648 15.8454 19.7716 16.0025 19.5239C16.1595 19.2762 16.2363 18.9862 16.2225 18.6932L16.173 17.6712C16.1628 17.472 16.1945 17.2729 16.2661 17.0868C16.3377 16.9006 16.4476 16.7315 16.5886 16.5905C16.7296 16.4495 16.8987 16.3396 17.0849 16.268C17.271 16.1964 17.4701 16.1647 17.6693 16.1749L18.6893 16.2264C18.9817 16.2393 19.271 16.1619 19.5179 16.0047C19.7649 15.8474 19.9574 15.618 20.0693 15.3475C20.1812 15.0771 20.2072 14.7787 20.1437 14.4929C20.0801 14.2071 19.9302 13.9478 19.7142 13.7502L18.9571 13.0663C18.809 12.9327 18.6906 12.7694 18.6096 12.5872C18.5285 12.4049 18.4866 12.2077 18.4866 12.0082C18.4866 11.8088 18.5284 11.6115 18.6095 11.4293C18.6905 11.2471 18.8089 11.0838 18.957 10.9503L19.7139 10.2664C19.9323 10.0692 20.0843 9.80917 20.149 9.52208C20.2138 9.23499 20.1881 8.93489 20.0755 8.66296C19.9629 8.39104 19.7689 8.16061 19.5201 8.00331C19.2713 7.84602 18.98 7.76956 18.6861 7.78442L17.6661 7.83684C17.4669 7.84695 17.2677 7.81515 17.0815 7.74349C16.8953 7.67183 16.7262 7.5619 16.5851 7.42081C16.444 7.27972 16.3341 7.11061 16.2624 6.9244C16.1907 6.73819 16.1589 6.53902 16.169 6.33976L16.2215 5.31983C16.2363 5.02611 16.1599 4.73498 16.0028 4.48634C15.8457 4.23771 15.6155 4.04373 15.3439 3.93099C15.0723 3.81826 14.7724 3.79229 14.4854 3.85664C14.1985 3.92099 13.9385 4.07252 13.741 4.29044L13.0572 5.04737C12.9235 5.19477 12.7604 5.31253 12.5784 5.39307C12.3965 5.47361 12.1997 5.51513 12.0006 5.51497C11.8016 5.51481 11.6049 5.47297 11.423 5.39214C11.2411 5.31131 11.0782 5.19328 10.9447 5.04567L10.2608 4.28864C10.0635 4.0702 9.80349 3.91816 9.51639 3.85338C9.22929 3.7886 8.9292 3.81425 8.65729 3.92682C8.38538 4.03939 8.15498 4.23336 7.99772 4.4821C7.84046 4.73085 7.76404 5.02218 7.77895 5.31611Z" fill="#0A0B0D"/>
<path fill-rule="evenodd" clip-rule="evenodd" d="M9.19187 9.19876C10.0018 8.38884 11.1003 7.93384 12.2457 7.93384C13.3911 7.93384 14.4896 8.38884 15.2995 9.19876C16.1094 10.0087 16.5644 11.1072 16.5644 12.2526C16.5644 13.398 16.1094 14.4964 15.2995 15.3064C14.4896 16.1163 13.3911 16.5713 12.2457 16.5713C11.1003 16.5713 10.0018 16.1163 9.19187 15.3064C8.38195 14.4964 7.92694 13.398 7.92694 12.2526C7.92694 11.1072 8.38195 10.0087 9.19187 9.19876ZM12.2457 9.75225C11.5825 9.75225 10.9466 10.0157 10.4777 10.4846C10.0088 10.9535 9.74535 11.5894 9.74535 12.2526C9.74535 12.9157 10.0088 13.5517 10.4777 14.0206C10.9466 14.4895 11.5825 14.7529 12.2457 14.7529C12.9088 14.7529 13.5448 14.4895 14.0137 14.0206C14.4826 13.5517 14.746 12.9157 14.746 12.2526C14.746 11.5894 14.4826 10.9535 14.0137 10.4846C13.5448 10.0157 12.9088 9.75225 12.2457 9.75225Z" fill="#0A0B0D"/>
</svg>
