<svg width="24" height="24" viewBox="0 0 24 24" fill="none" xmlns="http://www.w3.org/2000/svg">
<path opacity="0.2" d="M20.2999 13.5C20.1999 13.4 20.1999 13.3 20.1999 13.3V10.8C20.1999 10.7 20.1999 10.6 20.2999 10.6L21.3999 9.20001C21.5999 8.90001 21.6999 8.60001 21.7999 8.30001C21.7999 8.00001 21.6999 7.60001 21.5999 7.40001L20.8999 6.20001C20.6999 5.90001 20.4999 5.70001 20.1999 5.50001C19.8999 5.40001 19.5999 5.30001 19.1999 5.40001L17.3999 5.70001C17.2999 5.70001 17.1999 5.70001 17.1999 5.70001L14.9999 4.20001C14.8999 4.20001 14.8999 4.10001 14.7999 4.00001L14.0999 2.30001C13.9999 2.00001 13.7999 1.70001 13.4999 1.50001C13.1999 1.30001 12.8999 1.20001 12.5999 1.20001H11.2999C10.9999 1.20001 10.5999 1.30001 10.3999 1.50001C10.0999 1.80001 9.89988 2.00001 9.79988 2.30001L9.09988 4.00001C9.09988 4.10001 8.99988 4.20001 8.99988 4.20001L6.79988 5.50001C6.69988 5.50001 6.59987 5.60001 6.59987 5.50001L4.69987 5.30001C4.39987 5.30001 3.99988 5.30001 3.69987 5.40001C3.49987 5.50001 3.19987 5.80001 3.09987 6.10001L2.39988 7.20001C2.19988 7.50001 2.09988 7.80001 2.19988 8.20001C2.19988 8.50001 2.29987 8.80001 2.59987 9.10001L3.69987 10.5C3.79988 10.6 3.79987 10.7 3.79987 10.7V13.2C3.79987 13.3 3.79988 13.4 3.69987 13.4L2.59987 14.8C2.39987 15.1 2.29988 15.4 2.19988 15.7C2.19988 16 2.29988 16.4 2.39988 16.6L3.09987 17.8C3.29987 18.1 3.49987 18.3 3.79987 18.5C4.09987 18.6 4.39988 18.7 4.79988 18.6L6.59987 18.3C6.69987 18.3 6.79988 18.3 6.79988 18.3L8.99988 19.8C9.09987 19.8 9.09987 19.9 9.19987 20L9.89987 21.7C9.99987 22 10.1999 22.3 10.4999 22.5C10.7999 22.7 11.0999 22.8 11.3999 22.8H12.6999C12.9999 22.8 13.3999 22.7 13.5999 22.5C13.8999 22.3 14.0999 22 14.1999 21.7L14.8999 20C14.8999 19.9 14.9999 19.9 15.0999 19.8L17.2999 18.6C17.3999 18.6 17.4999 18.5 17.4999 18.6L19.2999 18.9C19.5999 18.9 19.9999 18.9 20.2999 18.8C20.5999 18.7 20.7999 18.4 20.9999 18.1L21.6999 16.9C21.8999 16.6 21.8999 16.3 21.8999 16C21.8999 15.7 21.7999 15.4 21.4999 15.1L20.2999 13.5ZM11.9999 15.4C11.2999 15.4 10.6999 15.2 10.0999 14.8C9.49988 14.4 9.09988 13.9 8.79988 13.3C8.49988 12.7 8.49988 12 8.59988 11.3C8.69988 10.6 9.09987 10 9.49988 9.50001C9.99988 9.00001 10.5999 8.70001 11.2999 8.60001C11.9999 8.50001 12.6999 8.50001 13.2999 8.80001C13.8999 9.10001 14.4999 9.50001 14.7999 10.1C15.1999 10.7 15.3999 11.3 15.3999 12C15.3999 12.9 14.9999 13.8 14.3999 14.4C13.7999 15.1 12.8999 15.4 11.9999 15.4Z" fill="#101C2D"/>
<path d="M12.7001 23.6H11.4001C10.9001 23.6 10.4001 23.4 10.0001 23.2C9.6001 23 9.2001 22.4 9.0001 22L8.4001 20.4L6.5001 19.3L4.8001 19.6C4.3001 19.7 3.8001 19.6 3.3001 19.4C2.8001 19.2 2.5001 18.8 2.2001 18.4L1.5001 17.2C1.2001 16.8 1.1001 16.3 1.2001 15.8C1.2001 15.3 1.4001 14.8 1.7001 14.4L2.7001 13.1V10.9L1.7001 9.60003C1.5001 9.20003 1.4001 8.70002 1.3001 8.20002C1.3001 7.70002 1.4001 7.20002 1.6001 6.80002L2.3001 5.60002C2.6001 5.20002 2.9001 4.80002 3.4001 4.60002C3.9001 4.40002 4.4001 4.30002 4.9001 4.40002L6.6001 4.70002L8.5001 3.60002L9.0001 2.00002C9.2001 1.50002 9.5001 1.10002 9.9001 0.800024C10.3001 0.500024 10.8001 0.400024 11.3001 0.400024H12.6001C13.1001 0.400024 13.6001 0.600024 14.0001 0.800024C14.5001 1.20002 14.8001 1.60002 15.0001 2.00002L15.6001 3.60002L17.5001 4.70002L19.2001 4.40002C19.7001 4.30002 20.2001 4.40002 20.7001 4.60002C21.2001 4.80002 21.5001 5.20002 21.8001 5.60002L22.5001 6.80002C22.8001 7.20002 22.9001 7.70002 22.8001 8.20002C22.8001 8.70002 22.6001 9.20003 22.3001 9.60003L21.3001 10.9V13.1L22.3001 14.4C22.6001 14.8 22.8001 15.3 22.8001 15.8C22.8001 16.3 22.7001 16.8 22.5001 17.2L21.8001 18.4C21.5001 18.8 21.2001 19.2 20.7001 19.4C20.2001 19.6 19.7001 19.7 19.2001 19.6L17.5001 19.3L15.6001 20.4L15.0001 22C14.8001 22.5 14.5001 22.9 14.1001 23.2C13.7001 23.4 13.2001 23.6 12.7001 23.6ZM6.6001 17.6C6.8001 17.6 7.0001 17.7 7.2001 17.8L9.4001 19C9.6001 19.1 9.8001 19.4 9.9001 19.6L10.6001 21.3C10.7001 21.4 10.8001 21.6 10.9001 21.7C11.0001 21.8 11.2001 21.8 11.3001 21.8H12.6001C12.8001 21.8 12.9001 21.8 13.0001 21.7C13.1001 21.6 13.2001 21.5 13.3001 21.3L14.0001 19.6C14.1001 19.3 14.3001 19.1 14.5001 19L16.7001 17.8C16.9001 17.7 17.2001 17.6 17.5001 17.6L19.3001 17.9C19.5001 17.9 19.6001 17.9 19.8001 17.8C19.9001 17.7 20.1001 17.6 20.1001 17.5L20.8001 16.3C20.9001 16.2 20.9001 16 20.9001 15.8C20.9001 15.6 20.8001 15.5 20.7001 15.4L19.7001 14C19.5001 13.8 19.4001 13.5 19.4001 13.2V10.7C19.4001 10.4 19.5001 10.1 19.7001 9.90002L20.9001 8.50002C20.9001 8.40002 21.0001 8.30002 21.0001 8.10002C21.0001 7.90002 21.0001 7.80002 20.9001 7.60002L20.2001 6.40002C20.1001 6.30002 20.0001 6.20002 19.9001 6.10002C19.8001 6.00002 19.6001 6.00002 19.4001 6.00002L17.6001 6.30002C17.3001 6.30002 17.0001 6.30002 16.8001 6.20002L14.6001 5.00002C14.3001 4.80002 14.2001 4.60002 14.1001 4.40002L13.4001 2.70002C13.3001 2.50002 13.2001 2.40002 13.1001 2.30002C13.0001 2.20002 12.8001 2.20002 12.7001 2.20002H11.4001C11.2001 2.20002 11.1001 2.20002 11.0001 2.30002C10.9001 2.40002 10.8001 2.50002 10.7001 2.70002L9.9001 4.40002C9.8001 4.60002 9.6001 4.80002 9.4001 5.00002L7.2001 6.20002C7.0001 6.40002 6.7001 6.40002 6.4001 6.40002L4.6001 6.10002C4.4001 6.10002 4.3001 6.10002 4.1001 6.20002C4.0001 6.20002 3.9001 6.40002 3.8001 6.50002L3.1001 7.70002C3.0001 7.80002 3.0001 7.90002 3.0001 8.10002C3.0001 8.30002 3.1001 8.40002 3.2001 8.50002L4.3001 10C4.5001 10.2 4.6001 10.5 4.6001 10.8V13.3C4.6001 13.6 4.5001 13.9 4.3001 14.1L3.1001 15.5C3.1001 15.6 3.0001 15.7 3.0001 15.9C3.0001 16.1 3.0001 16.2 3.1001 16.4L3.8001 17.6C3.9001 17.7 4.0001 17.9 4.1001 17.9C4.2001 17.9 4.4001 18 4.6001 18L6.4001 17.7C6.5001 17.6 6.5001 17.6 6.6001 17.6ZM12.0001 16.3C11.1001 16.3 10.3001 16 9.6001 15.6C8.9001 15.2 8.4001 14.4 8.0001 13.6C7.7001 12.8 7.6001 12 7.8001 11.1C7.9001 10.3 8.4001 9.60003 9.0001 9.00002C9.6001 8.40002 10.4001 8.00002 11.2001 7.80002C12.0001 7.60002 12.9001 7.70002 13.6001 8.00002C14.4001 8.30002 15.1001 8.90003 15.5001 9.60003C16.0001 10.3 16.2001 11.1 16.2001 12C16.2001 13.1 15.7001 14.2 14.9001 15C14.2001 15.9 13.1001 16.3 12.0001 16.3ZM12.0001 9.40002C11.8001 9.40002 11.7001 9.40002 11.5001 9.50002C11.0001 9.60003 10.5001 9.80002 10.2001 10.2C9.8001 10.6 9.6001 11 9.5001 11.5C9.4001 12 9.5001 12.5 9.6001 13C9.8001 13.5 10.1001 13.9 10.6001 14.2C11.6001 14.9 13.0001 14.7 13.9001 13.9C14.4001 13.4 14.7001 12.8 14.7001 12.1C14.7001 11.6 14.5001 11.1 14.3001 10.7C14.0001 10.3 13.6001 9.90002 13.1001 9.70002C12.7001 9.50002 12.3001 9.40002 12.0001 9.40002Z" fill="#101C2D"/>
</svg>
