<svg width="24" height="24" viewBox="0 0 24 24" fill="none" xmlns="http://www.w3.org/2000/svg">
<path opacity="0.2" d="M20.3 13.5C20.2 13.4 20.2 13.3 20.2 13.3V10.8C20.2 10.7 20.2 10.6 20.3 10.6L21.4 9.20001C21.6 8.90001 21.7 8.60001 21.8 8.30001C21.8 8.00001 21.7 7.60001 21.6 7.40001L20.9 6.20001C20.7 5.90001 20.5 5.70001 20.2 5.50001C19.9 5.40001 19.6 5.30001 19.2 5.40001L17.4 5.70001C17.3 5.70001 17.2 5.70001 17.2 5.70001L15 4.20001C14.9 4.20001 14.9 4.10001 14.8 4.00001L14.1 2.30001C14 2.00001 13.8 1.70001 13.5 1.50001C13.2 1.30001 12.9 1.20001 12.6 1.20001H11.3C11 1.20001 10.6 1.30001 10.4 1.50001C10.1 1.80001 9.9 2.00001 9.8 2.30001L9.1 4.00001C9.1 4.10001 9 4.20001 9 4.20001L6.8 5.50001C6.7 5.50001 6.6 5.60001 6.6 5.50001L4.7 5.30001C4.4 5.30001 4 5.30001 3.7 5.40001C3.5 5.50001 3.2 5.80001 3.1 6.10001L2.4 7.20001C2.2 7.50001 2.1 7.80001 2.2 8.20001C2.2 8.50001 2.3 8.80001 2.6 9.10001L3.7 10.5C3.8 10.6 3.8 10.7 3.8 10.7V13.2C3.8 13.3 3.8 13.4 3.7 13.4L2.6 14.8C2.4 15.1 2.3 15.4 2.2 15.7C2.2 16 2.3 16.4 2.4 16.6L3.1 17.8C3.3 18.1 3.5 18.3 3.8 18.5C4.1 18.6 4.4 18.7 4.8 18.6L6.6 18.3C6.7 18.3 6.8 18.3 6.8 18.3L9 19.8C9.1 19.8 9.1 19.9 9.2 20L9.9 21.7C10 22 10.2 22.3 10.5 22.5C10.8 22.7 11.1 22.8 11.4 22.8H12.7C13 22.8 13.4 22.7 13.6 22.5C13.9 22.3 14.1 22 14.2 21.7L14.9 20C14.9 19.9 15 19.9 15.1 19.8L17.3 18.6C17.4 18.6 17.5 18.5 17.5 18.6L19.3 18.9C19.6 18.9 20 18.9 20.3 18.8C20.6 18.7 20.8 18.4 21 18.1L21.7 16.9C21.9 16.6 21.9 16.3 21.9 16C21.9 15.7 21.8 15.4 21.5 15.1L20.3 13.5ZM12 15.4C11.3 15.4 10.7 15.2 10.1 14.8C9.5 14.4 9.1 13.9 8.8 13.3C8.5 12.7 8.5 12 8.6 11.3C8.7 10.6 9.1 10 9.5 9.50001C10 9.00001 10.6 8.70001 11.3 8.60001C12 8.50001 12.7 8.50001 13.3 8.80001C13.9 9.10001 14.5 9.50001 14.8 10.1C15.2 10.7 15.4 11.3 15.4 12C15.4 12.9 15 13.8 14.4 14.4C13.8 15.1 12.9 15.4 12 15.4Z" fill="#1D2127"/>
<path d="M12.7 23.6H11.4C10.9 23.6 10.4 23.4 9.99998 23.2C9.59998 23 9.19998 22.4 8.99998 22L8.39998 20.4L6.49998 19.3L4.79998 19.6C4.29998 19.7 3.79998 19.6 3.29998 19.4C2.79998 19.2 2.49998 18.8 2.19998 18.4L1.49998 17.2C1.19998 16.8 1.09998 16.3 1.19998 15.8C1.19998 15.3 1.39998 14.8 1.69998 14.4L2.69998 13.1V10.9L1.69998 9.60003C1.49998 9.20003 1.39998 8.70002 1.29998 8.20002C1.29998 7.70002 1.39998 7.20002 1.59998 6.80002L2.29998 5.60002C2.59998 5.20002 2.89998 4.80002 3.39998 4.60002C3.89998 4.40002 4.39998 4.30002 4.89998 4.40002L6.59998 4.70002L8.49998 3.60002L8.99998 2.00002C9.19998 1.50002 9.49998 1.10002 9.89997 0.800024C10.3 0.500024 10.8 0.400024 11.3 0.400024H12.6C13.1 0.400024 13.6 0.600024 14 0.800024C14.5 1.20002 14.8 1.60002 15 2.00002L15.6 3.60002L17.5 4.70002L19.2 4.40002C19.7 4.30002 20.2 4.40002 20.7 4.60002C21.2 4.80002 21.5 5.20002 21.8 5.60002L22.5 6.80002C22.8 7.20002 22.9 7.70002 22.8 8.20002C22.8 8.70002 22.6 9.20003 22.3 9.60003L21.3 10.9V13.1L22.3 14.4C22.6 14.8 22.8 15.3 22.8 15.8C22.8 16.3 22.7 16.8 22.5 17.2L21.8 18.4C21.5 18.8 21.2 19.2 20.7 19.4C20.2 19.6 19.7 19.7 19.2 19.6L17.5 19.3L15.6 20.4L15 22C14.8 22.5 14.5 22.9 14.1 23.2C13.7 23.4 13.2 23.6 12.7 23.6ZM6.59998 17.6C6.79998 17.6 6.99998 17.7 7.19998 17.8L9.39997 19C9.59997 19.1 9.79997 19.4 9.89997 19.6L10.6 21.3C10.7 21.4 10.8 21.6 10.9 21.7C11 21.8 11.2 21.8 11.3 21.8H12.6C12.8 21.8 12.9 21.8 13 21.7C13.1 21.6 13.2 21.5 13.3 21.3L14 19.6C14.1 19.3 14.3 19.1 14.5 19L16.7 17.8C16.9 17.7 17.2 17.6 17.5 17.6L19.3 17.9C19.5 17.9 19.6 17.9 19.8 17.8C19.9 17.7 20.1 17.6 20.1 17.5L20.8 16.3C20.9 16.2 20.9 16 20.9 15.8C20.9 15.6 20.8 15.5 20.7 15.4L19.7 14C19.5 13.8 19.4 13.5 19.4 13.2V10.7C19.4 10.4 19.5 10.1 19.7 9.90002L20.9 8.50002C20.9 8.40002 21 8.30002 21 8.10002C21 7.90002 21 7.80002 20.9 7.60002L20.2 6.40002C20.1 6.30002 20 6.20002 19.9 6.10002C19.8 6.00002 19.6 6.00002 19.4 6.00002L17.6 6.30002C17.3 6.30002 17 6.30002 16.8 6.20002L14.6 5.00002C14.3 4.80002 14.2 4.60002 14.1 4.40002L13.4 2.70002C13.3 2.50002 13.2 2.40002 13.1 2.30002C13 2.20002 12.8 2.20002 12.7 2.20002H11.4C11.2 2.20002 11.1 2.20002 11 2.30002C10.9 2.40002 10.8 2.50002 10.7 2.70002L9.89997 4.40002C9.79997 4.60002 9.59997 4.80002 9.39997 5.00002L7.19998 6.20002C6.99998 6.40002 6.69998 6.40002 6.39998 6.40002L4.59998 6.10002C4.39998 6.10002 4.29998 6.10002 4.09998 6.20002C3.99998 6.20002 3.89998 6.40002 3.79998 6.50002L3.09998 7.70002C2.99998 7.80002 2.99998 7.90002 2.99998 8.10002C2.99998 8.30002 3.09998 8.40002 3.19998 8.50002L4.29998 10C4.49998 10.2 4.59998 10.5 4.59998 10.8V13.3C4.59998 13.6 4.49998 13.9 4.29998 14.1L3.09998 15.5C3.09998 15.6 2.99998 15.7 2.99998 15.9C2.99998 16.1 2.99998 16.2 3.09998 16.4L3.79998 17.6C3.89998 17.7 3.99998 17.9 4.09998 17.9C4.19998 17.9 4.39998 18 4.59998 18L6.39998 17.7C6.49998 17.6 6.49998 17.6 6.59998 17.6ZM12 16.3C11.1 16.3 10.3 16 9.59998 15.6C8.89998 15.2 8.39998 14.4 7.99998 13.6C7.69998 12.8 7.59998 12 7.79998 11.1C7.89998 10.3 8.39998 9.60003 8.99998 9.00002C9.59998 8.40002 10.4 8.00002 11.2 7.80002C12 7.60002 12.9 7.70002 13.6 8.00002C14.4 8.30002 15.1 8.90003 15.5 9.60003C16 10.3 16.2 11.1 16.2 12C16.2 13.1 15.7 14.2 14.9 15C14.2 15.9 13.1 16.3 12 16.3ZM12 9.40002C11.8 9.40002 11.7 9.40002 11.5 9.50002C11 9.60003 10.5 9.80002 10.2 10.2C9.79998 10.6 9.59998 11 9.49998 11.5C9.39997 12 9.49998 12.5 9.59998 13C9.79998 13.5 10.1 13.9 10.6 14.2C11.6 14.9 13 14.7 13.9 13.9C14.4 13.4 14.7 12.8 14.7 12.1C14.7 11.6 14.5 11.1 14.3 10.7C14 10.3 13.6 9.90002 13.1 9.70002C12.7 9.50002 12.3 9.40002 12 9.40002Z" fill="#1D2127"/>
</svg>
