<svg width="24" height="24" viewBox="0 0 24 24" fill="none" xmlns="http://www.w3.org/2000/svg">
<path opacity="0.2" d="M20.3249 13.4847C20.2713 13.4167 20.2421 13.3326 20.2423 13.2459V10.7541C20.2421 10.6674 20.2713 10.5832 20.3249 10.5153L21.4745 9.07499C21.6813 8.81612 21.8052 8.50089 21.8301 8.17048C21.8549 7.84007 21.7795 7.50985 21.6137 7.22295L20.9435 6.06275C20.778 5.77561 20.53 5.54502 20.2315 5.40111C19.9331 5.25721 19.5981 5.20667 19.2705 5.25611L17.4491 5.53316C17.3628 5.54524 17.2752 5.52856 17.1995 5.48571L15.0413 4.23978C14.9653 4.19409 14.907 4.12393 14.876 4.0408L14.2041 2.33264C14.0838 2.02449 13.8734 1.75977 13.6003 1.57301C13.3273 1.38625 13.0043 1.28613 12.6735 1.28571H11.3296C10.9988 1.28613 10.6758 1.38625 10.4028 1.57301C10.1297 1.75977 9.91932 2.02449 9.79899 2.33264L9.12399 4.0408C9.09183 4.12167 9.03369 4.18952 8.9587 4.23366L6.79594 5.48571C6.72031 5.52867 6.63257 5.54536 6.54644 5.53316L4.72961 5.25611C4.40198 5.20667 4.06704 5.25721 3.76858 5.40111C3.47012 5.54502 3.222 5.77561 3.05666 6.06275L2.38625 7.22295C2.22046 7.50985 2.14507 7.84007 2.16992 8.17048C2.19476 8.50089 2.31871 8.81612 2.52554 9.07499L3.67502 10.5153C3.72881 10.5832 3.75795 10.6674 3.75768 10.7541V13.2459C3.75795 13.3326 3.72881 13.4167 3.67502 13.4847L2.52554 14.925C2.31871 15.1839 2.19476 15.4991 2.16992 15.8295C2.14507 16.1599 2.22046 16.4902 2.38625 16.777L3.05666 17.9372C3.222 18.2244 3.47012 18.455 3.76858 18.5988C4.06704 18.7428 4.40198 18.7934 4.72961 18.7438L6.55104 18.4668C6.63716 18.4546 6.7249 18.4712 6.80054 18.5143L8.9587 19.7602C9.03369 19.8043 9.09183 19.8722 9.12399 19.9531L9.79594 21.6674C9.91625 21.9754 10.1267 22.2403 10.3997 22.427C10.6727 22.6136 10.9958 22.7139 11.3266 22.7143H12.6674C12.9982 22.7139 13.3212 22.6136 13.5942 22.427C13.8673 22.2403 14.0777 21.9754 14.198 21.6674L14.8699 19.9531C14.9021 19.8722 14.9602 19.8043 15.0352 19.7602L17.1935 18.5143C17.2691 18.4714 17.3568 18.4548 17.4429 18.4668L19.2643 18.7438C19.5919 18.7934 19.9269 18.7428 20.2253 18.5988C20.5238 18.455 20.7719 18.2244 20.9373 17.9372L21.6077 16.777C21.7735 16.4902 21.8488 16.1599 21.8239 15.8295C21.7992 15.4991 21.6753 15.1839 21.4684 14.925L20.3249 13.4847ZM12 15.4439C11.3189 15.4439 10.6531 15.2419 10.0867 14.8635C9.52037 14.4851 9.07896 13.9472 8.81828 13.3179C8.55763 12.6886 8.48943 11.9962 8.62231 11.3281C8.7552 10.6601 9.08319 10.0464 9.56484 9.5648C10.0465 9.08317 10.6601 8.75517 11.3282 8.62228C11.9962 8.48941 12.6886 8.5576 13.3179 8.81826C13.9472 9.07892 14.4851 9.52033 14.8635 10.0867C15.2419 10.653 15.4439 11.3189 15.4439 12C15.4439 12.9134 15.0811 13.7893 14.4352 14.4352C13.7894 15.081 12.9134 15.4439 12 15.4439Z" fill="#1D2127"/>
<path d="M20.3249 13.4847C20.2713 13.4167 20.2421 13.3326 20.2423 13.2459V10.7541C20.2421 10.6674 20.2713 10.5832 20.3249 10.5153L21.4745 9.07499C21.6813 8.81612 21.8052 8.50089 21.8301 8.17048C21.8549 7.84007 21.7795 7.50985 21.6137 7.22295L20.9435 6.06275C20.778 5.77561 20.53 5.54502 20.2315 5.40111C19.9331 5.25721 19.5981 5.20667 19.2705 5.25611L17.4491 5.53316C17.3628 5.54524 17.2752 5.52856 17.1995 5.48571L15.0413 4.23978C14.9653 4.19409 14.907 4.12393 14.876 4.0408L14.2041 2.33264C14.0838 2.02449 13.8734 1.75977 13.6003 1.57301C13.3273 1.38625 13.0043 1.28613 12.6735 1.28571H11.3296C10.9988 1.28613 10.6758 1.38625 10.4028 1.57301C10.1297 1.75977 9.91932 2.02449 9.79899 2.33264L9.12399 4.0408C9.09183 4.12167 9.03369 4.18952 8.9587 4.23366L6.79594 5.48571C6.72031 5.52867 6.63257 5.54536 6.54644 5.53316L4.72961 5.25611C4.40198 5.20667 4.06704 5.25721 3.76858 5.40111C3.47012 5.54502 3.222 5.77561 3.05666 6.06275L2.38625 7.22295C2.22046 7.50985 2.14507 7.84007 2.16992 8.17048C2.19476 8.50089 2.31871 8.81612 2.52554 9.07499L3.67502 10.5153C3.72881 10.5832 3.75795 10.6674 3.75768 10.7541V13.2459C3.75795 13.3326 3.72881 13.4167 3.67502 13.4847L2.52554 14.925C2.31871 15.1839 2.19476 15.4991 2.16992 15.8295C2.14507 16.1599 2.22046 16.4902 2.38625 16.777L3.05666 17.9372C3.222 18.2244 3.47012 18.455 3.76858 18.5988C4.06704 18.7428 4.40198 18.7934 4.72961 18.7438L6.55104 18.4668C6.63716 18.4546 6.7249 18.4712 6.80054 18.5143L8.9587 19.7602C9.03369 19.8043 9.09183 19.8722 9.12399 19.9531L9.79594 21.6674C9.91625 21.9754 10.1267 22.2403 10.3997 22.427C10.6727 22.6136 10.9958 22.7139 11.3266 22.7143H12.6674C12.9982 22.7139 13.3212 22.6136 13.5942 22.427C13.8673 22.2403 14.0777 21.9754 14.198 21.6674L14.8699 19.9531C14.9021 19.8722 14.9602 19.8043 15.0352 19.7602L17.1935 18.5143C17.2691 18.4714 17.3568 18.4548 17.4429 18.4668L19.2643 18.7438C19.5919 18.7934 19.9269 18.7428 20.2253 18.5988C20.5238 18.455 20.7719 18.2244 20.9373 17.9372L21.6077 16.777C21.7735 16.4902 21.8488 16.1599 21.8239 15.8295C21.7992 15.4991 21.6753 15.1839 21.4684 14.925L20.3249 13.4847ZM12 15.4439C11.3189 15.4439 10.6531 15.2419 10.0867 14.8635C9.52037 14.4851 9.07896 13.9472 8.81828 13.3179C8.55763 12.6886 8.48943 11.9962 8.62231 11.3281C8.7552 10.6601 9.08319 10.0464 9.56484 9.5648C10.0465 9.08317 10.6601 8.75517 11.3282 8.62228C11.9962 8.48941 12.6886 8.5576 13.3179 8.81826C13.9472 9.07892 14.4851 9.52033 14.8635 10.0867C15.2419 10.653 15.4439 11.3189 15.4439 12C15.4439 12.9134 15.0811 13.7893 14.4352 14.4352C13.7894 15.081 12.9134 15.4439 12 15.4439Z" stroke="#1D2127" stroke-width="1.71429"/>
</svg>
