<svg width="24" height="24" viewBox="0 0 24 24" fill="none" xmlns="http://www.w3.org/2000/svg">
<path fill-rule="evenodd" clip-rule="evenodd" d="M10.5681 2H13.4319C13.6843 1.99997 13.9301 1.99994 14.1382 2.01695C14.3668 2.03563 14.6366 2.07969 14.908 2.21799C15.2843 2.40974 15.5903 2.7157 15.782 3.09202C15.9203 3.36345 15.9644 3.63318 15.9831 3.86178C16.0001 4.06994 16 4.31574 16 4.56812L16 7.4C16 7.69653 16.0008 7.85879 16.0103 7.97537C16.0107 7.98001 16.0111 7.98441 16.0115 7.98856C16.0156 7.98894 16.02 7.98932 16.0246 7.9897C16.1412 7.99923 16.3035 8 16.6 8L19.4319 8C19.6843 7.99997 19.9301 7.99994 20.1382 8.01695C20.3668 8.03563 20.6366 8.07969 20.908 8.21799C21.2843 8.40974 21.5903 8.7157 21.782 9.09202C21.9203 9.36345 21.9644 9.63318 21.9831 9.86178C22.0001 10.0699 22 10.3157 22 10.5681V13.4319C22 13.6843 22.0001 13.9301 21.9831 14.1382C21.9644 14.3668 21.9203 14.6366 21.782 14.908C21.5903 15.2843 21.2843 15.5903 20.908 15.782C20.6366 15.9203 20.3668 15.9644 20.1382 15.9831C19.9301 16.0001 19.6843 16 19.4319 16L16.6 16C16.3035 16 16.1412 16.0008 16.0246 16.0103C16.02 16.0107 16.0156 16.0111 16.0115 16.0115C16.0111 16.0156 16.0107 16.02 16.0103 16.0246C16.0008 16.1412 16 16.3035 16 16.6L16 19.4319C16 19.6843 16.0001 19.9301 15.9831 20.1382C15.9644 20.3668 15.9203 20.6366 15.782 20.908C15.5903 21.2843 15.2843 21.5903 14.908 21.782C14.6366 21.9203 14.3668 21.9644 14.1382 21.9831C13.9301 22.0001 13.6843 22 13.4319 22H10.5681C10.3157 22 10.0699 22.0001 9.86178 21.9831C9.63318 21.9644 9.36345 21.9203 9.09202 21.782C8.7157 21.5903 8.40974 21.2843 8.21799 20.908C8.07969 20.6366 8.03563 20.3668 8.01695 20.1382C7.99994 19.9301 7.99997 19.6843 8 19.4319L8.00001 16.6C8.00001 16.3035 7.99923 16.1412 7.9897 16.0246C7.98932 16.02 7.98894 16.0156 7.98856 16.0115C7.98441 16.0111 7.98001 16.0107 7.97537 16.0103C7.85879 16.0008 7.69653 16 7.40001 16L4.56812 16C4.31574 16 4.06994 16.0001 3.86178 15.9831C3.63318 15.9644 3.36345 15.9203 3.09202 15.782C2.7157 15.5903 2.40974 15.2843 2.21799 14.908C2.07969 14.6366 2.03563 14.3668 2.01695 14.1382C1.99994 13.9301 1.99997 13.6843 2 13.4319V10.5681C1.99997 10.3157 1.99994 10.0699 2.01695 9.86177C2.03563 9.63318 2.07969 9.36345 2.21799 9.09202C2.40974 8.7157 2.7157 8.40974 3.09202 8.21799C3.36345 8.07969 3.63318 8.03563 3.86178 8.01695C4.06993 7.99994 4.31572 7.99997 4.56811 8C4.57873 8 4.58936 8 4.60001 8H7.4C7.69653 8 7.85879 7.99923 7.97537 7.9897C7.98001 7.98932 7.98441 7.98894 7.98856 7.98856C7.98894 7.98441 7.98932 7.98001 7.9897 7.97537C7.99923 7.85879 8.00001 7.69653 8.00001 7.4V4.6C8.00001 4.58936 8 4.57873 8 4.56811C7.99997 4.31572 7.99994 4.06993 8.01695 3.86178C8.03563 3.63318 8.07969 3.36345 8.21799 3.09202C8.40974 2.7157 8.7157 2.40974 9.09202 2.21799C9.36345 2.07969 9.63318 2.03563 9.86178 2.01695C10.0699 1.99994 10.3157 1.99997 10.5681 2ZM10.0115 4.01145C10.0111 4.0156 10.0107 4.02 10.0103 4.02464C10.0008 4.14122 10 4.30348 10 4.6V7.4C10 7.41065 10 7.42128 10 7.4319C10 7.68428 10.0001 7.93008 9.98306 8.13823C9.96438 8.36683 9.92032 8.63656 9.78202 8.90799C9.59027 9.28431 9.28431 9.59027 8.90799 9.78202C8.63656 9.92032 8.36683 9.96438 8.13824 9.98306C7.93008 10.0001 7.68429 10 7.4319 10C7.42128 10 7.41065 10 7.4 10H4.60001C4.30348 10 4.14122 10.0008 4.02464 10.0103C4.02 10.0107 4.0156 10.0111 4.01145 10.0115C4.01107 10.0156 4.01069 10.02 4.01031 10.0246C4.00078 10.1412 4.00001 10.3035 4.00001 10.6V13.4C4.00001 13.6965 4.00078 13.8588 4.01031 13.9754C4.01069 13.98 4.01107 13.9844 4.01145 13.9886C4.0156 13.9889 4.02 13.9893 4.02464 13.9897C4.14122 13.9992 4.30348 14 4.60001 14L7.43189 14C7.68428 14 7.93007 13.9999 8.13824 14.0169C8.36683 14.0356 8.63656 14.0797 8.90799 14.218C9.28431 14.4097 9.59027 14.7157 9.78202 15.092C9.92032 15.3634 9.96438 15.6332 9.98306 15.8618C10.0001 16.0699 10 16.3157 10 16.5681L10 19.4C10 19.6965 10.0008 19.8588 10.0103 19.9754C10.0107 19.98 10.0111 19.9844 10.0115 19.9885C10.0156 19.9889 10.02 19.9893 10.0246 19.9897C10.1412 19.9992 10.3035 20 10.6 20H13.4C13.6965 20 13.8588 19.9992 13.9754 19.9897C13.98 19.9893 13.9844 19.9889 13.9886 19.9885C13.9889 19.9844 13.9893 19.98 13.9897 19.9754C13.9992 19.8588 14 19.6965 14 19.4L14 16.5681C14 16.3157 13.9999 16.0699 14.0169 15.8618C14.0356 15.6332 14.0797 15.3634 14.218 15.092C14.4097 14.7157 14.7157 14.4097 15.092 14.218C15.3634 14.0797 15.6332 14.0356 15.8618 14.0169C16.0699 13.9999 16.3157 14 16.5681 14L19.4 14C19.6965 14 19.8588 13.9992 19.9754 13.9897C19.98 13.9893 19.9844 13.9889 19.9886 13.9885C19.9889 13.9844 19.9893 13.98 19.9897 13.9754C19.9992 13.8588 20 13.6965 20 13.4V10.6C20 10.3035 19.9992 10.1412 19.9897 10.0246C19.9893 10.02 19.9889 10.0156 19.9885 10.0115C19.9844 10.0111 19.98 10.0107 19.9754 10.0103C19.8588 10.0008 19.6965 10 19.4 10L16.5681 10C16.3157 10 16.0699 10.0001 15.8618 9.98306C15.6332 9.96438 15.3634 9.92032 15.092 9.78202C14.7157 9.59027 14.4097 9.28431 14.218 8.90799C14.0797 8.63656 14.0356 8.36683 14.0169 8.13823C13.9999 7.93007 14 7.68427 14 7.43189L14 4.60001C14 4.30348 13.9992 4.14122 13.9897 4.02464C13.9893 4.02 13.9889 4.0156 13.9886 4.01145C13.9844 4.01107 13.98 4.01069 13.9754 4.01031C13.8588 4.00078 13.6965 4.00001 13.4 4.00001H10.6C10.3035 4.00001 10.1412 4.00078 10.0246 4.01031C10.02 4.01069 10.0156 4.01107 10.0115 4.01145Z" fill="#0A0B0D"/>
</svg>
