<svg width="24" height="24" viewBox="0 0 24 24" fill="none" xmlns="http://www.w3.org/2000/svg">
<g clip-path="url(#clip0_2861_15489)">
<path d="M12 0C5.38 0 0 5.38 0 12C0 18.62 5.38 24 12 24C18.62 24 24 18.62 24 12C24 5.38 18.62 0 12 0ZM12 22.5C6.21 22.5 1.5 17.79 1.5 12C1.5 6.21 6.21 1.5 12 1.5C17.79 1.5 22.5 6.21 22.5 12C22.5 17.79 17.79 22.5 12 22.5Z" fill="#171717"/>
<path d="M19.06 9.44C18.78 9.16 18.39 9 18 9H15V6C15 5.6 14.84 5.22 14.56 4.94C14.28 4.66 13.89 4.5 13.5 4.5H10.5C10.1 4.5 9.72 4.66 9.44 4.94C9.16 5.22 9 5.6 9 6V9H6C5.6 9 5.22 9.16 4.94 9.44C4.66 9.72 4.5 10.1 4.5 10.5V13.5C4.5 13.9 4.66 14.28 4.94 14.56C5.22 14.84 5.6 15 6 15H9V18C9 18.4 9.16 18.78 9.44 19.06C9.72 19.34 10.11 19.5 10.5 19.5H13.5C13.89 19.5 14.28 19.34 14.56 19.06C14.84 18.78 15 18.4 15 18V15H18C18.39 15 18.78 14.84 19.06 14.56C19.34 14.28 19.5 13.9 19.5 13.5V10.5C19.5 10.1 19.34 9.72 19.06 9.44ZM18 13.5H14.25C13.84 13.5 13.5 13.84 13.5 14.25V18H10.5V14.25C10.5 13.84 10.16 13.5 9.75 13.5H6V10.5H9.75C10.16 10.5 10.5 10.16 10.5 9.75V6H13.5V9.75C13.5 10.16 13.84 10.5 14.25 10.5H18V13.5Z" fill="#171717"/>
</g>
<defs>
<clipPath id="clip0_2861_15489">
<rect width="24" height="24" fill="white"/>
</clipPath>
</defs>
</svg>
