<svg width="24" height="24" viewBox="0 0 24 24" fill="none" xmlns="http://www.w3.org/2000/svg">
<path fill-rule="evenodd" clip-rule="evenodd" d="M6.5 4.505C6.5 2.57201 8.067 1.005 10 1.005C11.933 1.005 13.5 2.57201 13.5 4.505V5.005L13.5343 5.005C14.2041 5.005 14.7569 5.00499 15.2095 5.03587C15.6788 5.06789 16.1129 5.13642 16.5307 5.30949C17.5108 5.71546 18.2895 6.49416 18.6955 7.47427C18.8686 7.89209 18.9371 8.32618 18.9691 8.79547C18.9837 9.00907 18.9914 9.245 18.9955 9.505H19.5C21.433 9.505 23 11.072 23 13.005C23 14.938 21.433 16.505 19.5 16.505H19V17.2463C19 18.0513 19 18.7156 18.9558 19.2568C18.9099 19.8189 18.8113 20.3356 18.564 20.821C18.1805 21.5736 17.5686 22.1855 16.816 22.569C16.3306 22.8163 15.8139 22.9149 15.2518 22.9608C14.7106 23.005 14.0463 23.005 13.2413 23.005H12.5C11.9477 23.005 11.5 22.5573 11.5 22.005V20.255C11.5 19.5646 10.9404 19.005 10.25 19.005C9.55964 19.005 9 19.5646 9 20.255V22.005C9 22.5573 8.55229 23.005 8 23.005H6.75868C5.95372 23.005 5.28936 23.005 4.74817 22.9608C4.18608 22.9149 3.66937 22.8163 3.18404 22.569C2.43139 22.1855 1.81947 21.5736 1.43597 20.821C1.18868 20.3356 1.09012 19.8189 1.04419 19.2568C0.999977 18.7156 0.999988 18.0513 1 17.2463L1 15.505C1 14.9527 1.44772 14.505 2 14.505H3.5C4.32843 14.505 5 13.8334 5 13.005C5 12.1766 4.32843 11.505 3.5 11.505H2C1.44772 11.505 1 11.0573 1 10.505L1 10.4707C0.999992 9.80095 0.999984 9.24808 1.03087 8.79547C1.06288 8.32618 1.13142 7.89209 1.30448 7.47427C1.71046 6.49416 2.48915 5.71546 3.46927 5.30949C3.88708 5.13642 4.32118 5.06789 4.79046 5.03587C5.24307 5.00499 5.79594 5.005 6.46573 5.005L6.5 5.005L6.5 4.505ZM10 3.005C9.17157 3.005 8.5 3.67658 8.5 4.505V6.005C8.5 6.55729 8.05229 7.005 7.5 7.005H6.5C5.78741 7.005 5.30304 7.00555 4.9266 7.03123C4.55915 7.0563 4.36813 7.10195 4.23463 7.15725C3.74458 7.36023 3.35523 7.74958 3.15224 8.23964C3.09694 8.37314 3.0513 8.56415 3.02623 8.93161C3.01486 9.09815 3.00842 9.2858 3.00477 9.505H3.5C5.433 9.505 7 11.072 7 13.005C7 14.938 5.433 16.505 3.5 16.505H3V17.205C3 18.0616 3.00078 18.6439 3.03755 19.094C3.07337 19.5324 3.1383 19.7566 3.21799 19.913C3.40973 20.2893 3.7157 20.5953 4.09202 20.787C4.24842 20.8667 4.47262 20.9316 4.91104 20.9675C5.36113 21.0042 5.94342 21.005 6.8 21.005H7V20.255C7 18.4601 8.45508 17.005 10.25 17.005C12.0449 17.005 13.5 18.4601 13.5 20.255V21.0049C14.196 21.0043 14.6935 20.9998 15.089 20.9675C15.5274 20.9316 15.7516 20.8667 15.908 20.787C16.2843 20.5953 16.5903 20.2893 16.782 19.913C16.8617 19.7566 16.9266 19.5324 16.9624 19.094C16.9992 18.6439 17 18.0616 17 17.205V15.505C17 14.9527 17.4477 14.505 18 14.505H19.5C20.3284 14.505 21 13.8334 21 13.005C21 12.1766 20.3284 11.505 19.5 11.505H18C17.4477 11.505 17 11.0573 17 10.505C17 9.79241 16.9995 9.30805 16.9738 8.93161C16.9487 8.56415 16.9031 8.37314 16.8478 8.23964C16.6448 7.74958 16.2554 7.36023 15.7654 7.15725C15.6319 7.10195 15.4409 7.0563 15.0734 7.03123C14.697 7.00555 14.2126 7.005 13.5 7.005H12.5C11.9477 7.005 11.5 6.55729 11.5 6.005V4.505C11.5 3.67658 10.8284 3.005 10 3.005Z" fill="#101C2D"/>
<path opacity="0.2" d="M2.5 7.005L2 10.005L5.5 11.505V15.005L2 16.005L3 21.005L7.5 22.005L8.5 18.505H12L13 22.005L17 21.005L18 16.005L21.5 15.005V11.505L18 10.505L17 6.505H12.5L12 2.505H8.5L7.5 6.005L2.5 7.005Z" fill="#101C2D"/>
</svg>
