<svg width="24" height="24" viewBox="0 0 24 24" fill="none" xmlns="http://www.w3.org/2000/svg">
<path fill-rule="evenodd" clip-rule="evenodd" d="M11.5933 1.00243C11.1358 1.02442 10.8476 1.04949 10.4804 1.09922C8.97653 1.3029 7.4902 1.84091 6.1825 2.65498C5.14504 3.30082 4.1988 4.141 3.41462 5.11264C2.61052 6.10896 1.97117 7.28085 1.55924 8.51346C1.28213 9.34261 1.11121 10.1699 1.036 11.0458C1.00586 11.3969 1.00052 11.5405 1.00052 12.0009C1.00052 12.5243 1.01361 12.7843 1.06235 13.2289C1.23934 14.8435 1.78716 16.4232 2.65281 17.8153C3.39162 19.0034 4.3831 20.0693 5.52704 20.9051C6.41474 21.5538 7.44182 22.0831 8.5052 22.4399C9.33152 22.7172 10.1621 22.8892 11.0391 22.9646C11.3884 22.9946 11.5337 23 11.9937 23C12.5172 23 12.7772 22.9869 13.221 22.9382C14.8345 22.7611 16.4137 22.2129 17.8048 21.3469C18.3397 21.0139 18.8366 20.6397 19.3489 20.1842C19.5024 20.0477 20.036 19.5138 20.1724 19.3602C20.8763 18.5678 21.3971 17.8001 21.8475 16.891C22.4599 15.6547 22.8228 14.3729 22.9476 13.0053C22.9639 12.8261 22.9825 12.5182 22.9825 12.4257C22.9825 12.3714 22.986 12.3354 22.9913 12.3354C22.997 12.3354 23.0001 12.2145 23 11.9899C22.9999 11.7636 22.9969 11.649 22.9913 11.6576C22.9855 11.6666 22.9828 11.6413 22.9826 11.5784C22.9824 11.4267 22.9557 11.0542 22.9249 10.7729C22.7487 9.16064 22.2 7.57843 21.3345 6.1866C20.9363 5.54619 20.4757 4.95391 19.9483 4.404C19.0295 3.44594 18.0415 2.71726 16.881 2.14174C15.5539 1.48355 14.2213 1.12496 12.7068 1.01849C12.5313 1.00616 11.7503 0.994899 11.5933 1.00243ZM11.6857 2.37956C10.3764 2.42146 9.15623 2.70952 7.95972 3.25918C6.38008 3.98486 4.99412 5.16564 4.01179 6.62266C3.12773 7.93393 2.58153 9.44262 2.42162 11.015C2.37694 11.4543 2.36154 12.0967 2.38553 12.5203C2.45632 13.77 2.73783 14.9064 3.25668 16.0371C3.92423 17.4918 4.96931 18.7742 6.2824 19.75C7.07473 20.3388 7.99884 20.8183 8.95972 21.1391C9.65634 21.3716 10.3714 21.5208 11.1051 21.5867C11.4265 21.6156 11.6347 21.6244 11.9937 21.6244C12.6293 21.6244 13.1525 21.5778 13.7525 21.4676C15.0285 21.2335 16.2824 20.7205 17.3653 19.9897C18.1732 19.4444 18.9155 18.7575 19.5295 17.9869C20.3113 17.0059 20.8964 15.8688 21.2454 14.6524C21.4455 13.9551 21.559 13.2749 21.6019 12.5159C21.6147 12.2893 21.6147 11.7126 21.6019 11.486C21.5254 10.1333 21.2046 8.91581 20.6068 7.7095C20.0325 6.55054 19.2368 5.53391 18.2227 4.66358C16.9805 3.59743 15.4325 2.85538 13.7973 2.54217C13.1338 2.41509 12.3827 2.35725 11.6857 2.37956ZM8.43922 8.22541C8.04825 8.26956 7.70946 8.54092 7.58316 8.9111C7.54303 9.02872 7.52899 9.11658 7.52899 9.25002C7.52899 9.63226 7.71889 9.95764 8.05428 10.1501C8.38178 10.3379 8.80222 10.3225 9.12342 10.1109C9.55433 9.82698 9.70845 9.26425 9.48232 8.80061C9.32477 8.4776 9.02247 8.26361 8.66983 8.22546C8.56906 8.21456 8.53531 8.21455 8.43922 8.22541ZM15.3062 8.22573C15.0381 8.25522 14.7701 8.41092 14.6045 8.63335C14.2944 9.05006 14.3454 9.64227 14.7222 9.99866C15.1134 10.3688 15.7329 10.3753 16.1232 10.0134C16.2908 9.85791 16.3928 9.67843 16.4419 9.45249C16.463 9.35565 16.463 9.14438 16.4419 9.04755C16.3434 8.59464 15.9916 8.27464 15.5375 8.22501C15.4414 8.21451 15.4071 8.21462 15.3062 8.22573ZM1 12.0009C1 12.1922 1.00116 12.2704 1.00259 12.1748C1.004 12.0792 1.004 11.9227 1.00259 11.8271C1.00116 11.7315 1 11.8097 1 12.0009ZM9.79286 12.7003C9.65979 12.7282 9.55663 12.7853 9.4504 12.89C9.32903 13.0097 9.26794 13.1338 9.2492 13.2988C9.22781 13.4871 9.27767 13.6586 9.39682 13.8065C9.42561 13.8423 9.80191 14.2241 10.233 14.6549L11.0169 15.4382L10.2047 16.2526C9.68414 16.7746 9.38064 17.0853 9.35944 17.118C9.27811 17.2435 9.24679 17.3505 9.24679 17.5028C9.24679 17.6292 9.26321 17.7025 9.31479 17.8065C9.39198 17.9621 9.545 18.1002 9.69873 18.1531C9.86155 18.2092 10.0873 18.1975 10.2296 18.1256C10.3271 18.0764 10.3936 18.0136 11.1777 17.2307L11.9938 16.4158L12.8097 17.231C13.2585 17.6794 13.6445 18.0588 13.6676 18.0743C13.7347 18.1192 13.8318 18.1615 13.9012 18.176C13.985 18.1934 14.1331 18.1932 14.2135 18.1754C14.4006 18.134 14.5858 17.986 14.6752 17.8065C14.7717 17.6126 14.7629 17.3499 14.6535 17.1595C14.6264 17.1124 14.4735 16.9547 13.7933 16.2725L12.9661 15.4428L13.7812 14.6264C14.6647 13.7415 14.659 13.7477 14.7063 13.6045C14.7654 13.4256 14.7471 13.1962 14.6619 13.0485C14.4977 12.7639 14.1883 12.6331 13.8715 12.7141C13.796 12.7334 13.7331 12.7637 13.6609 12.8156C13.6319 12.8365 13.2459 13.2162 12.8032 13.6595L11.9983 14.4656L11.1887 13.6573C10.7435 13.2128 10.359 12.8346 10.3343 12.8169C10.2754 12.7747 10.2002 12.738 10.1241 12.7142C10.0448 12.6894 9.87821 12.6824 9.79286 12.7003Z" fill="#1D2127"/>
</svg>
