<svg width="24" height="24" viewBox="0 0 24 24" fill="none" xmlns="http://www.w3.org/2000/svg">
<path fill-rule="evenodd" clip-rule="evenodd" d="M11.5847 1.00253C10.4654 1.04711 9.37817 1.25238 8.36899 1.60966C8.11566 1.69933 8.11011 1.70138 7.96867 1.75707C6.78052 2.22487 5.71066 2.87822 4.74744 3.72419L4.61432 3.84111L4.55828 3.81818C4.32401 3.72233 4.07026 3.66122 3.81091 3.63819C3.65472 3.62431 3.37677 3.63264 3.22399 3.65576C2.382 3.78321 1.67523 4.30118 1.28223 5.0788C1.14618 5.34802 1.05835 5.63605 1.01236 5.96384C0.994105 6.09396 0.996824 6.52125 1.01675 6.65451C1.09632 7.18659 1.29548 7.63679 1.62733 8.03464L1.69974 8.12147L1.66133 8.22492C1.38277 8.97522 1.17745 9.82892 1.07623 10.6577C1.0187 11.1287 1.00101 11.4429 1.00088 11.9963C1.00076 12.4757 1.00677 12.6265 1.04088 13.0002C1.19189 14.6543 1.71758 16.2598 2.57343 17.6808C3.15688 18.6495 3.88503 19.5229 4.7222 20.258C5.96783 21.3519 7.4091 22.1393 8.98925 22.5893C9.74547 22.8046 10.4905 22.9319 11.3251 22.9883C11.5546 23.0038 12.4406 23.0039 12.6624 22.9885C14.1704 22.8834 15.5186 22.528 16.8134 21.8943C18.2658 21.1834 19.5401 20.1683 20.5475 18.9196C21.9777 17.1467 22.8167 14.9956 22.9696 12.7096C22.9766 12.6054 22.9823 12.4818 22.9824 12.4349C22.9825 12.3877 22.9865 12.3471 22.9913 12.3441C22.997 12.3406 23.0001 12.2113 23 11.9847C22.9999 11.753 22.9969 11.6353 22.9913 11.644C22.9855 11.6531 22.9828 11.6315 22.9827 11.5754C22.9824 11.4016 22.948 10.9591 22.9114 10.6577C22.8121 9.83946 22.6026 8.96828 22.3267 8.22602L22.2875 8.12066L22.3426 8.05719C22.52 7.85305 22.6811 7.59237 22.7857 7.34028C22.8847 7.10167 22.9443 6.86773 22.9839 6.56268C22.9962 6.46765 23.0034 6.08713 22.9929 6.08713C22.9886 6.08713 22.9826 6.05413 22.9795 6.01379C22.9664 5.84278 22.9108 5.59476 22.8411 5.39583C22.6291 4.79105 22.1975 4.27052 21.6518 3.96127C21.283 3.75229 20.899 3.64552 20.4707 3.63288C20.099 3.62192 19.7627 3.68177 19.4293 3.81818L19.3732 3.84111L19.2401 3.72419C18.2769 2.87822 17.207 2.22487 16.0189 1.75707C15.8774 1.70138 15.8719 1.69933 15.6186 1.60966C14.6962 1.28311 13.7496 1.09099 12.7064 1.0186C12.5191 1.0056 11.7752 0.99495 11.5847 1.00253ZM11.787 2.37655C9.61002 2.41771 7.46807 3.22352 5.81315 4.62393C5.76476 4.66488 5.72421 4.70075 5.72304 4.70365C5.72187 4.70656 5.80699 4.79751 5.9122 4.90578L6.10349 5.10264L6.39822 4.79643C6.8179 4.36043 6.89206 4.28702 7.0007 4.20003C7.45054 3.83983 7.96396 3.64964 8.53175 3.63288C8.97702 3.61975 9.37104 3.70748 9.76787 3.90812C10.1841 4.11859 10.5499 4.45714 10.8038 4.86716C11.304 5.67466 11.344 6.68602 10.9092 7.53478C10.8082 7.73204 10.6527 7.95753 10.5109 8.11261C10.4777 8.14894 9.6621 8.99502 8.69854 9.99279C7.55151 11.1806 6.92409 11.824 6.88138 11.8563C6.70608 11.989 6.55522 12.0584 6.34544 12.1027C6.21368 12.1306 5.99326 12.1306 5.86154 12.1027C5.6533 12.0587 5.49825 11.9874 5.32568 11.8564C5.28402 11.8248 4.81288 11.3436 4.01989 10.5227C3.18311 9.65652 2.77727 9.2423 2.7731 9.25017C2.76154 9.27199 2.68585 9.55167 2.63769 9.75061C2.3558 10.9146 2.29714 12.1854 2.47062 13.3701C2.75379 15.3039 3.58755 17.0676 4.8959 18.5004C5.30464 18.948 5.80928 19.4008 6.30584 19.7655C7.68231 20.7763 9.30023 21.4002 11.004 21.577C11.6283 21.6418 12.3592 21.6418 12.9836 21.577C13.9352 21.4782 14.8927 21.2311 15.7635 20.8597C17.2207 20.238 18.5051 19.2626 19.5046 18.0185C20.0382 17.3543 20.4985 16.5855 20.8377 15.7918C21.6637 13.859 21.8372 11.695 21.3289 9.66576C21.2803 9.47177 21.2188 9.25042 21.2115 9.24311C21.2098 9.24141 20.7257 9.74018 20.1357 10.3515C18.8233 11.7113 18.7432 11.7933 18.6715 11.8506C18.2449 12.1915 17.6436 12.2176 17.189 11.9151C17.1552 11.8926 17.0907 11.8412 17.0458 11.8009C16.9593 11.7233 13.5591 8.20492 13.4473 8.07739C13.1416 7.72855 12.9282 7.29823 12.8347 6.84226C12.7945 6.64617 12.7827 6.52187 12.7827 6.29408C12.7827 6.14604 12.7872 6.04844 12.7976 5.96825C12.8676 5.43215 13.0686 4.96717 13.4074 4.5576C13.4996 4.44613 13.6902 4.25996 13.7974 4.17663C14.1507 3.90201 14.5634 3.72376 15.0051 3.65502C15.1737 3.6288 15.5562 3.62643 15.7197 3.6506C16.1986 3.72141 16.6185 3.90334 16.9867 4.19956C17.0965 4.28793 17.1658 4.35656 17.5849 4.79189L17.8841 5.10257L18.0753 4.90575C18.1805 4.7975 18.2656 4.70655 18.2645 4.70364C18.2633 4.70074 18.2228 4.66496 18.1744 4.62413C16.6729 3.35715 14.7988 2.58055 12.834 2.41109C12.53 2.38487 12.0989 2.37065 11.787 2.37655ZM3.52126 5.00953C3.11273 5.04042 2.75832 5.26751 2.54733 5.6336C2.3562 5.96523 2.31929 6.383 2.44941 6.74192C2.51278 6.9167 2.60265 7.06237 2.73573 7.20597C2.83838 7.31674 6.09931 10.6929 6.10365 10.6929C6.10758 10.6929 9.34122 7.34454 9.45418 7.22351C9.55992 7.1102 9.62446 7.02009 9.68382 6.90281C9.78468 6.70353 9.82927 6.51909 9.82939 6.30063C9.82958 5.96365 9.71779 5.66476 9.49701 5.41199C9.09057 4.94665 8.39535 4.87494 7.89975 5.24725C7.84613 5.28754 7.6466 5.48784 7.20262 5.94706C6.86053 6.30091 6.55746 6.60972 6.52916 6.6333C6.47115 6.68161 6.3564 6.74155 6.28385 6.76143C6.25724 6.76872 6.19183 6.77707 6.1385 6.77997C5.93448 6.7911 5.77198 6.72978 5.61793 6.58355C5.58798 6.55513 5.31559 6.27427 5.01263 5.95944C4.70966 5.64461 4.42745 5.35598 4.3855 5.31804C4.17114 5.12421 3.92793 5.02379 3.64004 5.01026C3.59649 5.00821 3.54304 5.00789 3.52126 5.00953ZM15.2635 5.01356C14.7143 5.06838 14.2741 5.49799 14.1754 6.07544C14.1113 6.45072 14.221 6.85881 14.4628 7.14469C14.5241 7.21718 17.8827 10.6934 17.8889 10.6908C17.8919 10.6895 18.5331 10.0267 19.3138 9.21782C20.0945 8.40895 20.8484 7.62826 20.9891 7.48295C21.1299 7.33765 21.2704 7.18922 21.3013 7.15313C21.664 6.73003 21.7182 6.10759 21.4345 5.62399C21.3759 5.52401 21.3314 5.466 21.2407 5.37106C20.9961 5.11495 20.6492 4.98358 20.2965 5.01354C20.012 5.0377 19.7784 5.14645 19.5585 5.35714C19.5262 5.3881 19.2577 5.66508 18.9618 5.97265C18.3689 6.58897 18.3386 6.61929 18.2626 6.67112C18.0682 6.80361 17.7926 6.81939 17.5766 6.71038C17.4655 6.65429 17.4817 6.67001 16.6585 5.81737C16.3096 5.45591 16.1418 5.28849 16.0878 5.24777C15.8541 5.07161 15.5494 4.98502 15.2635 5.01356ZM1 6.29408C1 6.40549 1.00127 6.44984 1.0028 6.39266C1.00434 6.33547 1.00433 6.24433 1.00279 6.19012C1.00125 6.13589 0.999991 6.18268 1 6.29408ZM1.00024 11.9963C1.00024 12.1924 1.0014 12.2727 1.00282 12.1746C1.00423 12.0765 1.00423 11.916 1.00282 11.8179C1.0014 11.7198 1.00024 11.8001 1.00024 11.9963ZM6.31904 14.0785C6.1018 14.1253 5.92586 14.2598 5.83511 14.4486C5.7774 14.5686 5.76133 14.6366 5.76123 14.7615C5.76111 14.8923 5.77977 14.9591 5.86268 15.1249C6.11037 15.6201 6.43559 16.0998 6.83726 16.5624C7.04096 16.797 7.41894 17.1578 7.68714 17.3737C9.13528 18.5394 11.0058 19.0679 12.8583 18.8347C14.874 18.581 16.6965 17.4261 17.7853 15.7126C17.9902 15.3902 18.1735 15.044 18.2056 14.9188C18.2215 14.8571 18.2239 14.8273 18.2208 14.7351C18.2176 14.6404 18.2131 14.6133 18.1888 14.5413C18.1253 14.3536 18.0068 14.2195 17.8313 14.1368C17.7183 14.0836 17.6614 14.0706 17.5409 14.0706C17.3505 14.0706 17.1899 14.1338 17.0609 14.2595C16.9933 14.3255 16.9503 14.389 16.88 14.5269C16.6139 15.0489 16.2738 15.509 15.8374 15.9372C15.4079 16.3586 14.9531 16.6821 14.4264 16.9409C13.8209 17.2384 13.2275 17.4095 12.5431 17.4839C12.3825 17.5014 12.3127 17.504 11.9982 17.5041C11.6124 17.5043 11.4927 17.4966 11.1888 17.4517C9.43543 17.1929 7.9012 16.0925 7.09876 14.5181C7.0321 14.3873 6.99127 14.3255 6.93409 14.2691C6.80745 14.144 6.6519 14.0775 6.46861 14.07C6.40879 14.0675 6.35607 14.0705 6.31904 14.0785Z" fill="#1D2127"/>
</svg>
