<svg width="24" height="24" viewBox="0 0 24 24" fill="none" xmlns="http://www.w3.org/2000/svg">
<path fill-rule="evenodd" clip-rule="evenodd" d="M11.5933 1.00243C11.1358 1.02442 10.8476 1.04949 10.4804 1.09922C8.97653 1.3029 7.4902 1.84091 6.1825 2.65498C5.14504 3.30082 4.1988 4.141 3.41462 5.11264C2.61052 6.10896 1.97117 7.28085 1.55924 8.51346C1.28213 9.34261 1.11121 10.1699 1.036 11.0458C1.00586 11.3969 1.00052 11.5405 1.00052 12.0009C1.00052 12.5243 1.01361 12.7843 1.06235 13.2289C1.23934 14.8435 1.78716 16.4232 2.65281 17.8153C3.39162 19.0034 4.3831 20.0693 5.52704 20.9051C6.41474 21.5538 7.44182 22.0831 8.5052 22.4399C9.33152 22.7172 10.1621 22.8892 11.0391 22.9646C11.3884 22.9946 11.5337 23 11.9937 23C12.5172 23 12.7772 22.9869 13.221 22.9382C14.8345 22.7611 16.4137 22.2129 17.8048 21.3469C18.3397 21.0139 18.8366 20.6397 19.3489 20.1842C19.5024 20.0477 20.036 19.5138 20.1724 19.3602C20.8763 18.5678 21.3971 17.8001 21.8475 16.891C22.4599 15.6547 22.8228 14.3729 22.9476 13.0053C22.9639 12.8261 22.9825 12.5182 22.9825 12.4257C22.9825 12.3714 22.986 12.3354 22.9913 12.3354C22.997 12.3354 23.0001 12.2145 23 11.9899C22.9999 11.7636 22.9969 11.649 22.9913 11.6576C22.9855 11.6666 22.9828 11.6413 22.9826 11.5784C22.9824 11.4267 22.9557 11.0542 22.9249 10.7729C22.7487 9.16064 22.2 7.57843 21.3345 6.1866C20.9363 5.54619 20.4757 4.95391 19.9483 4.404C19.0295 3.44594 18.0415 2.71726 16.881 2.14174C15.5539 1.48355 14.2213 1.12496 12.7068 1.01849C12.5313 1.00616 11.7503 0.994899 11.5933 1.00243ZM11.6857 2.37956C10.3764 2.42146 9.15623 2.70952 7.95972 3.25918C6.38008 3.98486 4.99412 5.16564 4.01179 6.62266C3.12773 7.93393 2.58153 9.44262 2.42162 11.015C2.37694 11.4543 2.36154 12.0967 2.38553 12.5203C2.45632 13.77 2.73783 14.9064 3.25668 16.0371C3.92423 17.4918 4.96931 18.7742 6.2824 19.75C7.07473 20.3388 7.99884 20.8183 8.95972 21.1391C9.65634 21.3716 10.3714 21.5208 11.1051 21.5867C11.4265 21.6156 11.6347 21.6244 11.9937 21.6244C12.6293 21.6244 13.1525 21.5778 13.7525 21.4676C15.0285 21.2335 16.2824 20.7205 17.3653 19.9897C18.1732 19.4444 18.9155 18.7575 19.5295 17.9869C20.3113 17.0059 20.8964 15.8688 21.2454 14.6524C21.4455 13.9551 21.559 13.2749 21.6019 12.5159C21.6147 12.2893 21.6147 11.7126 21.6019 11.486C21.5254 10.1333 21.2046 8.91581 20.6068 7.7095C20.0325 6.55054 19.2368 5.53391 18.2227 4.66358C16.9805 3.59743 15.4325 2.85538 13.7973 2.54217C13.1338 2.41509 12.3827 2.35725 11.6857 2.37956ZM15.2226 7.88154C14.6552 7.93101 14.148 8.13172 13.7081 8.48085C13.5895 8.57493 13.3792 8.78528 13.2867 8.9023C12.9861 9.28254 12.773 9.75632 12.7981 9.98852C12.8282 10.2669 12.9991 10.492 13.2495 10.5833C13.4764 10.666 13.7157 10.6279 13.9141 10.4775C14.02 10.3972 14.0735 10.3196 14.1468 10.1401C14.2355 9.92331 14.3205 9.79256 14.4654 9.65055C14.659 9.46079 14.8964 9.33431 15.1698 9.27525C15.2288 9.26249 15.2835 9.25906 15.4293 9.25895C15.5906 9.25884 15.6256 9.2614 15.7049 9.27915C15.9408 9.33202 16.1342 9.4264 16.3144 9.57652C16.4963 9.72812 16.6187 9.90206 16.7167 10.1483C16.7658 10.2717 16.8078 10.3398 16.8823 10.4168C17.1118 10.654 17.4753 10.6935 17.754 10.5114C17.9096 10.4098 18.0152 10.2488 18.052 10.0569C18.0825 9.89793 18.0565 9.76569 17.9452 9.51411C17.6641 8.87863 17.1429 8.36411 16.5071 8.09432C16.2701 7.99375 16.021 7.92737 15.756 7.89415C15.6227 7.87746 15.3448 7.87089 15.2226 7.88154ZM8.43922 8.22541C8.04825 8.26956 7.70946 8.54092 7.58316 8.9111C7.54303 9.02872 7.52899 9.11658 7.52899 9.25002C7.52899 9.63226 7.71889 9.95764 8.05428 10.1501C8.38178 10.3379 8.80222 10.3225 9.12342 10.1109C9.55433 9.82698 9.70845 9.26425 9.48232 8.80061C9.32477 8.4776 9.02247 8.26361 8.66983 8.22546C8.56906 8.21456 8.53531 8.21455 8.43922 8.22541ZM1 12.0009C1 12.1922 1.00116 12.2704 1.00259 12.1748C1.004 12.0792 1.004 11.9227 1.00259 11.8271C1.00116 11.7315 1 11.8097 1 12.0009ZM5.69121 12.6962C5.42036 12.7455 5.20188 12.9501 5.13868 13.2137C5.12141 13.2857 5.12055 13.3072 5.12515 13.5547C5.14285 14.506 5.36232 15.4306 5.78236 16.3232C6.30737 17.4389 7.14951 18.4132 8.18407 19.102C9.38064 19.8986 10.7965 20.3004 12.2264 20.2491C12.6792 20.2329 13.0471 20.1871 13.4674 20.0948C15.0773 19.7411 16.5038 18.8221 17.4963 17.4992C18.2086 16.5499 18.6684 15.4102 18.816 14.2281C18.8436 14.007 18.8571 13.8132 18.8623 13.5635C18.8668 13.3426 18.8655 13.2981 18.8524 13.2335C18.8038 12.9936 18.6151 12.7876 18.3777 12.7153C18.3168 12.6968 18.2882 12.6935 18.1832 12.6931C18.0911 12.6928 18.0455 12.6966 18.0028 12.7084C17.7762 12.7706 17.5812 12.9608 17.5188 13.1805C17.5032 13.2355 17.498 13.2929 17.4877 13.5238C17.4715 13.8877 17.4547 14.0571 17.4081 14.3249C17.257 15.1942 16.8799 16.0484 16.3415 16.7413C16.146 16.9928 15.8335 17.3241 15.6009 17.5262C14.7821 18.2378 13.7679 18.693 12.693 18.8315C12.4481 18.863 12.3022 18.8713 11.9937 18.8713C11.621 18.8713 11.3937 18.8532 11.0611 18.797C10.1821 18.6485 9.29331 18.2526 8.59384 17.6981C8.24952 17.4251 7.88869 17.0591 7.62899 16.7193C7.25045 16.224 6.96777 15.6857 6.76926 15.082C6.63748 14.6812 6.56964 14.3516 6.51646 13.854C6.51388 13.8297 6.50625 13.6832 6.49952 13.5282C6.48928 13.2925 6.48423 13.2358 6.46853 13.1805C6.40663 12.9626 6.20967 12.7693 5.98894 12.7099C5.92682 12.6931 5.75206 12.6851 5.69121 12.6962Z" fill="#1D2127"/>
</svg>
