<svg width="24" height="24" viewBox="0 0 24 24" fill="none" xmlns="http://www.w3.org/2000/svg">
<path fill-rule="evenodd" clip-rule="evenodd" d="M11.5977 1.00234C11.1715 1.02133 10.8476 1.04939 10.4803 1.09913C8.97648 1.3028 7.49016 1.84082 6.18247 2.6549C5.14501 3.30074 4.19878 4.14092 3.41461 5.11256C2.61052 6.10888 1.97194 7.27932 1.55917 8.5134C1.28257 9.34037 1.1112 10.1698 1.036 11.0458C1.0061 11.3941 1.00064 11.5411 1.00056 12.0009C1.00047 12.524 1.01352 12.7834 1.06235 13.2289C1.23932 14.8433 1.78724 16.4233 2.6528 17.8153C3.39161 19.0034 4.38308 20.0692 5.52701 20.9051C6.41471 21.5538 7.44178 22.0831 8.50516 22.4399C9.33148 22.7172 10.1621 22.8892 11.039 22.9646C11.3884 22.9946 11.5336 23 11.9936 23C12.5171 23 12.7772 22.9869 13.2209 22.9382C14.8344 22.7611 16.4136 22.2129 17.8047 21.3469C18.3396 21.0139 18.8365 20.6397 19.3488 20.1841C19.5023 20.0477 20.0359 19.5137 20.1723 19.3602C20.8762 18.5678 21.397 17.8 21.8474 16.8909C22.4598 15.6547 22.8227 14.3729 22.9474 13.0052C22.9638 12.8261 22.9823 12.5181 22.9824 12.4256C22.9824 12.3714 22.9859 12.3354 22.9912 12.3354C22.9969 12.3354 23 12.2164 23 11.996C23 11.7719 22.997 11.6584 22.9912 11.662C22.9856 11.6655 22.9824 11.6349 22.9824 11.5767C22.9823 11.4278 22.9556 11.0543 22.9248 10.7729C22.7486 9.16058 22.1999 7.57836 21.3344 6.18653C20.9362 5.54612 20.4756 4.95384 19.9482 4.40392C19.0294 3.44586 18.0414 2.71718 16.8809 2.14165C15.554 1.48359 14.2183 1.12417 12.7067 1.01847C12.5309 1.00618 11.7624 0.995 11.5977 1.00234ZM11.7956 2.37608C9.93695 2.41492 8.15098 2.98014 6.61829 4.01463C5.16195 4.99758 3.982 6.38408 3.25666 7.96473C2.73784 9.09534 2.45594 10.2334 2.38557 11.4815C2.37252 11.713 2.37254 12.2874 2.38562 12.5203C2.45559 13.7666 2.73796 14.9067 3.25666 16.0371C3.92549 17.4946 4.97476 18.7806 6.29276 19.7583C7.07573 20.3391 8.00565 20.8206 8.95968 21.139C9.77025 21.4097 10.5882 21.564 11.4789 21.6144C11.7054 21.6272 12.2818 21.6272 12.5083 21.6144C13.8602 21.5379 15.077 21.2169 16.2827 20.6188C17.223 20.1523 18.035 19.5664 18.795 18.806C19.5549 18.0456 20.1405 17.2332 20.6067 16.2923C21.2045 15.086 21.5253 13.8685 21.6018 12.5159C21.6146 12.2892 21.6146 11.7125 21.6018 11.4859C21.5253 10.1333 21.2045 8.91576 20.6067 7.70944C20.0324 6.55048 19.2367 5.53384 18.2226 4.66351C16.6429 3.30764 14.5857 2.48871 12.5083 2.38873C12.2961 2.37852 11.9625 2.37259 11.7956 2.37608ZM9.35417 6.03623C9.19767 6.07104 9.04834 6.1589 8.96493 6.26525C8.9241 6.31731 8.90148 6.3545 8.81739 6.50783C8.70035 6.72123 8.56334 6.90321 8.38651 7.08015C8.152 7.31478 7.91924 7.47331 7.58136 7.62851C7.09698 7.851 6.57349 7.92148 6.06809 7.83222C5.85881 7.79526 5.81328 7.79119 5.7268 7.80171C5.43835 7.8368 5.20639 8.04343 5.1396 8.32478C5.08079 8.57255 5.16178 8.83155 5.35143 9.00215C5.45349 9.09396 5.54929 9.13554 5.74861 9.17449C6.01314 9.22619 6.21937 9.24555 6.5036 9.24536C7.03404 9.245 7.54892 9.1411 8.03173 8.93702C8.17011 8.87852 8.46136 8.73274 8.57115 8.66703C8.88791 8.47741 9.10307 8.30981 9.35893 8.05338C9.62774 7.78397 9.81039 7.54651 9.99103 7.23157C10.1229 7.00159 10.1574 6.91744 10.1743 6.78398C10.1866 6.6873 10.1709 6.56984 10.1316 6.46371C10.1002 6.3791 10.0175 6.25551 9.9588 6.20564C9.85558 6.11793 9.72828 6.05424 9.6143 6.03328C9.54725 6.02094 9.41625 6.02243 9.35417 6.03623ZM14.4131 6.04166C14.2666 6.07942 14.1103 6.18058 14.0286 6.29049C13.9806 6.35517 13.928 6.46355 13.906 6.54305C13.8812 6.6326 13.8833 6.8091 13.9102 6.89517C13.9714 7.09139 14.217 7.48554 14.4643 7.78427C14.567 7.9084 14.8437 8.18643 14.963 8.28529C15.6663 8.86853 16.4987 9.1937 17.3965 9.23597C17.8212 9.25596 18.3691 9.19466 18.5508 9.10682C18.7007 9.03435 18.8073 8.92636 18.8788 8.7746C18.9313 8.66301 18.9476 8.58079 18.9415 8.4586C18.9291 8.21022 18.8105 8.01247 18.601 7.89078C18.4418 7.79836 18.2937 7.77809 18.0687 7.81795C17.7458 7.87517 17.463 7.87803 17.1493 7.82726C16.5913 7.73694 16.0842 7.4761 15.6798 7.07145C15.4913 6.88281 15.339 6.67859 15.2135 6.44621C15.112 6.2583 15.0227 6.16511 14.8761 6.0942C14.7328 6.02485 14.556 6.0048 14.4131 6.04166ZM6.43321 10.5803C6.20669 10.6049 6.0048 10.7347 5.894 10.9269C5.88145 10.9487 5.85848 11.0042 5.84297 11.0502C5.81893 11.1214 5.81414 11.1501 5.81055 11.2442C5.80385 11.4199 5.83659 11.5237 5.95101 11.6896C6.27692 12.162 6.77721 12.5014 7.34383 12.6346C7.69616 12.7174 8.10944 12.7107 8.46557 12.6164C8.77442 12.5346 9.094 12.3713 9.35417 12.1623C9.50923 12.0377 9.68497 11.8436 9.80538 11.6641C9.91725 11.4973 9.95405 11.338 9.92252 11.1572C9.89476 10.998 9.8266 10.8693 9.71579 10.7668C9.51084 10.5771 9.2248 10.5275 8.96706 10.6368C8.84704 10.6877 8.77074 10.7531 8.65891 10.901C8.5388 11.0599 8.43304 11.1484 8.26993 11.2266C8.06988 11.3225 7.8074 11.3405 7.59224 11.2732C7.37637 11.2056 7.22986 11.0984 7.07679 10.8961C6.97315 10.7591 6.89678 10.6929 6.78206 10.6403C6.68946 10.5979 6.52744 10.57 6.43321 10.5803ZM14.6473 10.5844C14.4648 10.6091 14.2729 10.7297 14.1701 10.8844C14.1175 10.9637 14.0828 11.0534 14.0647 11.1572C14.0332 11.3379 14.0699 11.4971 14.1817 11.6641C14.4086 12.0031 14.7174 12.2705 15.0945 12.4545C15.3895 12.5985 15.6397 12.6649 15.9727 12.6877C16.4838 12.7226 16.9796 12.5882 17.4176 12.2961C17.6775 12.1228 17.8823 11.9191 18.0516 11.6656C18.1546 11.5114 18.1827 11.4162 18.1764 11.2438C18.173 11.1498 18.1683 11.1216 18.1442 11.0502C18.1115 10.953 18.0872 10.9082 18.0264 10.8326C17.9362 10.7202 17.7947 10.6317 17.6464 10.5948C17.5662 10.5749 17.4074 10.5776 17.3216 10.6004C17.1465 10.6468 17.0432 10.7211 16.9101 10.8961C16.7881 11.0566 16.6894 11.1424 16.5466 11.2123C16.2305 11.3669 15.882 11.3454 15.5847 11.153C15.4974 11.0965 15.4147 11.0152 15.328 10.9005C15.2435 10.7889 15.1867 10.7317 15.1155 10.6868C14.9838 10.6037 14.8007 10.5637 14.6473 10.5844ZM1 12.0053C1 12.1941 1.00116 12.2701 1.00259 12.1742C1.00401 12.0782 1.004 11.9237 1.00258 11.8308C1.00116 11.738 0.999991 11.8165 1 12.0053ZM11.7077 13.5243C10.6653 13.61 9.72106 14.005 8.92307 14.6892C8.7932 14.8006 8.51222 15.0841 8.40733 15.2096C7.91599 15.7974 7.5868 16.4426 7.40535 17.1734C7.35342 17.3825 7.33953 17.4801 7.33947 17.6361C7.33919 18.3066 7.81481 18.8742 8.47877 18.9957C8.58804 19.0157 8.79907 19.0182 8.87028 19.0003C8.89689 18.9936 8.9971 18.9568 9.09295 18.9184C10.1021 18.515 11.0391 18.3303 12.0772 18.3303C13.1264 18.3303 14.1117 18.5276 15.1065 18.9369C15.2764 19.0068 15.3026 19.0122 15.4644 19.0114C15.5737 19.0108 15.6259 19.0063 15.6976 18.9912C16.1319 18.8999 16.4806 18.6331 16.6734 18.2449C16.7633 18.0636 16.8042 17.8967 16.8119 17.6788C16.8182 17.4987 16.8057 17.4056 16.7402 17.1462C16.269 15.2811 14.7395 13.8794 12.8402 13.572C12.5909 13.5316 12.4695 13.5226 12.1344 13.5195C11.9529 13.5178 11.7609 13.52 11.7077 13.5243ZM11.8748 14.8941C10.6963 14.9652 9.635 15.637 9.0652 16.6725C8.93189 16.9147 8.81498 17.2109 8.75134 17.4675C8.73873 17.5184 8.72664 17.5654 8.72447 17.5719C8.72166 17.5805 8.72502 17.582 8.73601 17.5774C8.81397 17.5447 9.15564 17.4242 9.29259 17.3812C10.0551 17.1415 10.7469 17.0152 11.5713 16.9651C11.781 16.9523 12.3733 16.9523 12.5831 16.965C13.2493 17.0055 13.849 17.0999 14.4351 17.2565C14.7119 17.3305 15.0587 17.441 15.2995 17.532C15.4006 17.5702 15.4248 17.5766 15.4248 17.5653C15.4248 17.5395 15.3648 17.3238 15.3278 17.2167C14.9008 15.9783 13.8193 15.0902 12.5303 14.9194C12.3268 14.8924 12.068 14.8824 11.8748 14.8941Z" fill="#1D2127"/>
</svg>
