<svg width="24" height="24" viewBox="0 0 24 24" fill="none" xmlns="http://www.w3.org/2000/svg">
<path d="M20.31 6.85002C20.06 6.52002 19.59 6.46002 19.26 6.71002C18.93 6.96002 18.87 7.43002 19.12 7.76002C20.27 9.25002 20.43 12.04 20.09 14.14C19.32 18.85 17.38 22.21 15.28 22.49C15.16 22.5 15.04 22.48 14.91 22.41L13 21.44C12.38 21.12 11.61 21.13 11 21.44L9.05999 22.43C8.95999 22.49 8.83999 22.51 8.73999 22.5C6.61999 22.22 4.67999 18.86 3.90999 14.15C3.47999 11.52 3.88999 8.29002 5.48999 7.19002C6.53999 6.47002 8.08999 6.71002 10.15 7.92002C10.73 8.19002 11.36 8.31002 12 8.27002C12 8.27002 12 8.27002 12.01 8.27002H12.02C12.04 8.27002 12.05 8.27002 12.07 8.27002C12.11 8.27002 12.14 8.25002 12.18 8.24002C12.23 8.23002 12.28 8.22002 12.33 8.20002C12.37 8.18002 12.41 8.15002 12.45 8.12002C12.49 8.09002 12.53 8.07002 12.56 8.03002C12.59 7.99002 12.62 7.95002 12.64 7.91002C12.66 7.87002 12.69 7.83002 12.71 7.79002C12.73 7.74002 12.73 7.69002 12.74 7.64002C12.75 7.60002 12.76 7.57002 12.76 7.53002V3.77002C12.76 3.36002 12.42 3.02002 12.01 3.02002C11.6 3.02002 11.26 3.36002 11.26 3.77002V6.72002C11.12 6.69002 10.97 6.65002 10.85 6.60002C8.30999 5.10002 6.21999 4.88002 4.63999 5.96002C2.40999 7.48002 1.91999 11.3 2.41999 14.4C3.12999 18.74 5.10999 23.54 8.55999 24C8.63999 23.99 8.70999 24 8.77999 24C9.12999 24 9.47999 23.91 9.76999 23.75L11.69 22.77C11.89 22.67 12.12 22.67 12.32 22.77L14.21 23.73C14.58 23.94 15 24.02 15.46 23.98C18.89 23.52 20.87 18.72 21.57 14.39C21.94 12.14 21.83 8.82002 20.31 6.85002Z" fill="#171717"/>
<path d="M14.51 6.19998C14.73 6.41998 15.01 6.57998 15.31 6.65998C15.45 6.68998 15.59 6.70998 15.72 6.70998C15.88 6.70998 16.02 6.68998 16.13 6.64998C17.24 6.43998 18.25 5.91998 19.07 5.14998C19.08 5.13998 19.1 5.11998 19.11 5.10998C19.86 4.28998 20.36 3.27998 20.57 2.17998C20.65 1.89998 20.67 1.60998 20.6 1.32998C20.53 1.01998 20.38 0.739984 20.16 0.519984C19.94 0.299984 19.66 0.139984 19.36 0.0699838C19.06 -1.62497e-05 18.74 0.00998375 18.54 0.0799837C17.43 0.289984 16.42 0.809984 15.56 1.61998C14.81 2.43998 14.31 3.44998 14.1 4.54998C14.01 4.82998 14 5.11998 14.07 5.39998C14.14 5.68998 14.29 5.96998 14.51 6.19998ZM15.57 4.84998C15.72 4.01998 16.1 3.23998 16.63 2.64998C17.24 2.06998 17.99 1.68998 18.81 1.52998H18.82C18.87 1.52998 19.06 1.55998 19.09 1.54998L19.13 1.72998C19.12 1.76998 19.11 1.80998 19.1 1.83998C18.95 2.66998 18.58 3.42998 18.02 4.05998C17.42 4.61998 16.67 4.99998 15.86 5.15998C15.84 5.15998 15.67 5.13998 15.61 5.13998C15.6 5.13998 15.59 5.13998 15.59 5.13998L15.55 4.95998C15.55 4.92998 15.56 4.88998 15.57 4.84998Z" fill="#171717"/>
</svg>
