<svg width="24" height="24" viewBox="0 0 24 24" fill="none" xmlns="http://www.w3.org/2000/svg">
<path d="M20.5254 6.8341C20.269 6.50379 19.7872 6.44374 19.4488 6.69397C19.1105 6.9442 19.049 7.41464 19.3053 7.74494C20.4844 9.23632 20.6484 12.0289 20.2998 14.1309C19.5103 18.8452 17.5213 22.2083 15.3683 22.4886C15.2452 22.4986 15.1222 22.4786 14.9889 22.4085L13.0306 21.4376C12.395 21.1173 11.6055 21.1273 10.9801 21.4376L8.99108 22.4285C8.88856 22.4886 8.76552 22.5086 8.663 22.4986C6.48943 22.2183 4.5004 18.8552 3.71095 14.1409C3.27008 11.5084 3.69044 8.27543 5.33087 7.17441C6.4074 6.45375 7.99657 6.69397 10.1086 7.90509C10.7033 8.17534 11.3492 8.29545 12.0054 8.25542C12.0054 8.25542 12.0054 8.25542 12.0156 8.25542H12.0259C12.0464 8.25542 12.0566 8.25542 12.0771 8.25542C12.1182 8.25542 12.1489 8.2354 12.1899 8.22539C12.2412 8.21538 12.2924 8.20537 12.3437 8.18535C12.3847 8.16533 12.4257 8.1353 12.4667 8.10528C12.5078 8.07525 12.5488 8.05523 12.5795 8.01519C12.6103 7.97516 12.641 7.93512 12.6615 7.89508C12.6821 7.85504 12.7128 7.81501 12.7333 7.77497C12.7538 7.72492 12.7538 7.67488 12.7641 7.62483C12.7743 7.58479 12.7846 7.55477 12.7846 7.51473V3.75124C12.7846 3.34086 12.436 3.00055 12.0156 3.00055C11.5953 3.00055 11.2467 3.34086 11.2467 3.75124V6.70398C11.1031 6.67395 10.9493 6.63391 10.8263 6.58387C8.22213 5.08248 6.07932 4.86227 4.45939 5.94327C2.17304 7.46468 1.67066 11.2882 2.18329 14.3911C2.91124 18.7351 4.94127 23.5396 8.47845 24C8.56047 23.99 8.63224 24 8.70401 24C9.06285 24 9.4217 23.9099 9.71902 23.7498L11.6875 22.7689C11.8926 22.6688 12.1284 22.6688 12.3335 22.7689L14.2712 23.7297C14.6506 23.9399 15.0812 24.02 15.5528 23.98C19.0695 23.5196 21.0995 18.7151 21.8172 14.3811C22.1966 12.129 22.0838 8.80593 20.5254 6.8341Z" fill="#171717"/>
<path d="M14.5788 6.1835C14.8044 6.4037 15.0914 6.56385 15.399 6.64392C15.5426 6.67395 15.6861 6.69397 15.8194 6.69397C15.9834 6.69397 16.127 6.67395 16.2397 6.63391C17.3778 6.42372 18.4133 5.90324 19.254 5.13252C19.2643 5.12251 19.2848 5.10249 19.295 5.09248C20.064 4.27172 20.5766 3.26079 20.7919 2.15977C20.874 1.87951 20.8945 1.58924 20.8227 1.30898C20.7509 0.998692 20.5971 0.718433 20.3716 0.498229C20.146 0.278025 19.8589 0.117876 19.5514 0.0478113C19.2438 -0.0222537 18.9157 -0.0122444 18.7106 0.0578205C17.5726 0.268015 16.5371 0.788498 15.6553 1.59925C14.8864 2.42001 14.3737 3.43095 14.1584 4.53197C14.0662 4.81223 14.0559 5.10249 14.1277 5.38275C14.1995 5.67302 14.3532 5.95328 14.5788 6.1835ZM15.6656 4.83224C15.8194 4.00147 16.209 3.22075 16.7524 2.6302C17.3778 2.04967 18.1467 1.66931 18.9875 1.50917H18.9977C19.049 1.50917 19.2438 1.53919 19.2745 1.52918L19.3155 1.70935C19.3053 1.74939 19.295 1.78942 19.2848 1.81945C19.131 2.65022 18.7516 3.41093 18.1775 4.04151C17.5623 4.60203 16.7934 4.98238 15.9629 5.14253C15.9424 5.14253 15.7681 5.12251 15.7066 5.12251C15.6963 5.12251 15.6861 5.12251 15.6861 5.12251L15.6451 4.94235C15.6451 4.91232 15.6553 4.87228 15.6656 4.83224Z" fill="#171717"/>
</svg>
