<svg width="24" height="24" viewBox="0 0 24 24" fill="none" xmlns="http://www.w3.org/2000/svg">
<path opacity="0.2" d="M14.5 19.005L5.5 10.005V15.005L2.5 18.505L5 21.505L8.5 18.505L14.5 19.005Z" fill="#101C2D"/>
<path d="M8.64697 18.0183L9.1328 17.241C8.94862 17.126 8.72957 17.08 8.51469 17.1114C8.29981 17.1428 8.10305 17.2495 7.95947 17.4124L8.64697 18.0183ZM5.8713 15.2427L6.47814 15.9302C6.64092 15.7865 6.7474 15.5897 6.77863 15.3748C6.80985 15.1599 6.76379 14.9409 6.64864 14.7568L5.8713 15.2427ZM1.9168 18.7324L1.30997 18.0449C1.21612 18.1278 1.14023 18.229 1.087 18.3423C1.03376 18.4556 1.0043 18.5786 1.00044 18.7038C0.996572 18.8289 1.01838 18.9535 1.06452 19.0699C1.11067 19.1863 1.18016 19.292 1.26872 19.3805L1.9168 18.7324ZM5.15814 21.9728L4.50914 22.6209C4.59763 22.7095 4.70333 22.779 4.81972 22.8251C4.93611 22.8713 5.06071 22.8931 5.18585 22.8892C5.31099 22.8853 5.43401 22.8559 5.54733 22.8026C5.66065 22.7494 5.76186 22.6735 5.84472 22.5797L5.15814 21.9728ZM18.7697 16.1392C17.5242 17.3843 15.8937 18.1711 14.1439 18.3711C12.3942 18.5712 10.6273 18.1729 9.1328 17.241L8.16114 18.7957C11.8773 21.1203 16.8337 20.6684 20.0659 17.4363L18.7697 16.1392ZM18.7697 5.12084C20.2307 6.58203 21.0515 8.56371 21.0515 10.63C21.0515 12.6963 20.2307 14.678 18.7697 16.1392L20.0659 17.4363C23.8242 13.6779 23.8242 7.58209 20.0659 3.82375L18.7697 5.12084ZM7.75047 5.12084C9.21166 3.65985 11.1933 2.83909 13.2596 2.83909C15.3259 2.83909 17.3085 3.65985 18.7697 5.12084L20.0659 3.82375C16.3076 0.0654218 10.2126 0.0654218 6.45339 3.82375L7.75047 5.12084ZM6.64864 14.7568C5.71676 13.2624 5.31842 11.4964 5.5185 9.74662C5.71858 7.99683 6.50529 6.36636 7.75047 5.12084L6.4543 3.82284C3.22214 7.05592 2.7693 12.0133 5.09397 15.7303L6.64864 14.7568ZM2.52364 19.4199L6.47814 15.9302L5.26539 14.5552L1.30997 18.0449L2.52364 19.4199ZM5.8053 21.3248L2.56489 18.0843L1.26872 19.3805L4.50914 22.6209L5.8053 21.3248ZM7.95947 17.4124L4.47064 21.3669L5.84472 22.5797L9.33447 18.6252L7.95947 17.4124Z" fill="#101C2D"/>
<path fill-rule="evenodd" clip-rule="evenodd" d="M14.0065 19.9206L3.98454 9.89863L5.39876 8.48442L15.4207 18.5063L14.0065 19.9206Z" fill="#101C2D"/>
</svg>
