<svg width="24" height="24" viewBox="0 0 24 24" fill="none" xmlns="http://www.w3.org/2000/svg">
<path opacity="0.2" fill-rule="evenodd" clip-rule="evenodd" d="M6.36461 22.3344C3.89611 22.0593 1.90977 20.0729 1.64554 17.6031C1.45048 15.78 1.28577 13.9083 1.28577 12C1.28577 10.0917 1.45048 8.21997 1.64554 6.39681C1.90977 3.92713 3.89611 1.94077 6.36461 1.66562C8.19813 1.46125 10.0807 1.28572 12.0001 1.28572C13.9194 1.28572 15.802 1.46125 17.6354 1.66562C20.104 1.94077 22.0903 3.92713 22.3545 6.39681C22.5496 8.21997 22.7143 10.0917 22.7143 12C22.7143 13.9083 22.5496 15.78 22.3545 17.6031C22.0903 20.0729 20.104 22.0593 17.6354 22.3344C15.802 22.5387 13.9194 22.7143 12.0001 22.7143C10.0807 22.7143 8.19813 22.5387 6.36461 22.3344ZM12.7931 6.39505C12.5022 5.68583 11.4979 5.68583 11.207 6.39505L10.0025 9.33218L6.74181 9.61799C5.97686 9.68505 5.67922 10.6468 6.27257 11.1342L8.26346 12.7697C8.51162 12.9735 8.625 13.299 8.55718 13.6129L7.90498 16.6326C7.7423 17.3858 8.57875 17.9544 9.21929 17.526L12.0001 15.6664L14.7808 17.526C15.4213 17.9544 16.2578 17.3858 16.0951 16.6326L15.4429 13.6129C15.3751 13.299 15.4885 12.9735 15.7366 12.7697L17.7275 11.1342C18.3208 10.6467 18.0232 9.68505 17.2583 9.61799L13.9976 9.33218L12.7931 6.39505Z" fill="#1D2127"/>
<path d="M1.64554 17.6031C1.90977 20.0729 3.89611 22.0593 6.36461 22.3344C8.19813 22.5388 10.0807 22.7143 12.0001 22.7143C13.9194 22.7143 15.802 22.5388 17.6354 22.3344C20.104 22.0593 22.0903 20.0729 22.3545 17.6031C22.5496 15.78 22.7143 13.9083 22.7143 12C22.7143 10.0917 22.5496 8.21997 22.3545 6.39681C22.0903 3.92713 20.104 1.94077 17.6354 1.66562C15.802 1.46125 13.9194 1.28572 12.0001 1.28572C10.0807 1.28572 8.19813 1.46125 6.36461 1.66562C3.89611 1.94077 1.90977 3.92713 1.64554 6.39681C1.45048 8.21997 1.28577 10.0917 1.28577 12C1.28577 13.9083 1.45048 15.78 1.64554 17.6031Z" stroke="#1D2127" stroke-width="1.71429" stroke-linejoin="round"/>
<path d="M11.207 6.39525C11.4979 5.68604 12.5022 5.68604 12.7931 6.39525L13.9976 9.33239L17.2583 9.6182C18.0232 9.68526 18.3208 10.647 17.7275 11.1344L15.7366 12.7699C15.4885 12.9737 15.3751 13.2992 15.4429 13.6131L16.0951 16.6328C16.2578 17.386 15.4213 17.9546 14.7808 17.5262L12.0001 15.6666L9.21929 17.5262C8.57875 17.9546 7.7423 17.386 7.90498 16.6328L8.55718 13.6131C8.625 13.2992 8.51162 12.9737 8.26346 12.7699L6.27257 11.1344C5.67922 10.647 5.97686 9.68526 6.74181 9.6182L10.0025 9.33239L11.207 6.39525Z" stroke="#1D2127" stroke-width="1.71429" stroke-linejoin="round"/>
</svg>
