<svg width="24" height="24" viewBox="0 0 24 24" fill="none" xmlns="http://www.w3.org/2000/svg">
<path d="M3.37469 17.2765C1.5166 17.2765 0 18.7873 0 20.6382C0 22.4892 1.5166 24 3.37469 24C5.23278 24 6.74938 22.4892 6.74938 20.6382C6.75942 18.7873 5.24282 17.2765 3.37469 17.2765ZM3.37469 22.5092C2.34019 22.5092 1.50656 21.6688 1.50656 20.6483C1.50656 19.6277 2.35023 18.7873 3.37469 18.7873C4.39915 18.7873 5.24282 19.6177 5.24282 20.6483C5.24282 21.6788 4.40919 22.5092 3.37469 22.5092Z" fill="#171717"/>
<path d="M14.5031 17.4266H9.50136C9.08956 17.4266 8.74808 17.7668 8.74808 18.177V23.1596C8.74808 23.5698 9.08956 23.91 9.50136 23.91H14.5031C14.9149 23.91 15.2564 23.5698 15.2564 23.1596V18.177C15.2564 17.7668 14.9149 17.4266 14.5031 17.4266ZM13.7498 22.4092H10.2546V18.9274H13.7498V22.4092Z" fill="#171717"/>
<path d="M23.9141 22.7994L20.911 17.3165C20.6499 16.8363 19.8564 16.8363 19.5852 17.3165L16.5822 22.7994C16.4516 23.0295 16.4617 23.3096 16.5922 23.5398C16.7228 23.7699 16.9739 23.91 17.235 23.91H23.2311C23.4923 23.91 23.7433 23.7699 23.8739 23.5398C24.0346 23.3096 24.0346 23.0295 23.9141 22.7994ZM18.5206 22.4092L20.2481 19.2475L21.9757 22.4092H18.5206Z" fill="#171717"/>
<path d="M8.34633 7.19125C8.71795 7.71152 9.20004 8.14174 9.75245 8.46191V9.81261C9.75245 10.2228 10.0939 10.563 10.5057 10.563H11.249V12.1939H3.50526C3.09346 12.1939 2.75198 12.534 2.75198 12.9442V15.4355C2.75198 15.8458 3.09346 16.1859 3.50526 16.1859C3.91705 16.1859 4.25854 15.8458 4.25854 15.4355V13.6946H11.249V14.9353C11.249 15.3455 11.5904 15.6857 12.0022 15.6857C12.414 15.6857 12.7555 15.3455 12.7555 14.9353V13.6946H19.7459V15.4355C19.7459 15.8458 20.0874 16.1859 20.4992 16.1859C20.911 16.1859 21.2525 15.8458 21.2525 15.4355V12.9442C21.2525 12.534 20.911 12.1939 20.4992 12.1939H12.7555V10.563H13.4988C13.9105 10.563 14.252 10.2228 14.252 9.81261V8.46191C14.8647 8.11173 15.3769 7.63148 15.7686 7.04117C16.2507 6.31079 16.5018 5.46034 16.5018 4.58989C16.5018 3.77947 16.2809 2.98906 15.8691 2.28869C15.4573 1.59833 14.8547 1.01803 14.1416 0.637832C13.4284 0.257634 12.625 0.0675352 11.8114 0.0975508C10.9979 0.127566 10.2145 0.377697 9.53149 0.827931C8.84851 1.27817 8.3162 1.88848 7.95462 2.60886C7.60309 3.33924 7.45244 4.14966 7.5127 4.95008C7.58301 5.7605 7.86423 6.5309 8.34633 7.19125ZM9.31052 3.2692C9.55157 2.78895 9.91315 2.37874 10.3651 2.07858C10.8171 1.78843 11.3394 1.61834 11.8817 1.59833C12.4241 1.56832 12.9564 1.69838 13.4284 1.95852C13.9005 2.21866 14.3023 2.59885 14.5734 3.05909C14.8446 3.51933 14.9953 4.04961 14.9953 4.58989C14.9953 5.17019 14.8245 5.74049 14.5031 6.22074C14.1817 6.711 13.7298 7.09119 13.1974 7.32131C12.9263 7.43137 12.7455 7.70151 12.7455 8.00167V9.06222H11.249V8.00167C11.249 7.70151 11.0682 7.43137 10.797 7.31131C10.3049 7.1012 9.87297 6.75102 9.56162 6.31079C9.25026 5.87056 9.05943 5.36029 9.00921 4.82001C8.96904 4.28973 9.06948 3.74945 9.31052 3.2692Z" fill="#171717"/>
<path d="M19.8163 4.47983C19.4045 4.47983 19.063 4.82001 19.063 5.23022C19.063 5.64044 19.4045 5.98062 19.8163 5.98062H21.3128C21.7246 5.98062 22.066 5.64044 22.066 5.23022C22.066 4.82001 21.7246 4.47983 21.3128 4.47983H19.8163Z" fill="#171717"/>
<path d="M20.0272 10.2428C20.1778 10.3929 20.3687 10.4629 20.5595 10.4629C20.7503 10.4629 20.9411 10.3929 21.0918 10.2428C21.3831 9.95268 21.3831 9.47243 21.0918 9.18228L20.0372 8.12173C19.7459 7.83158 19.2638 7.83158 18.9726 8.12173C18.6813 8.41188 18.6813 8.89213 18.9726 9.18228L20.0272 10.2428Z" fill="#171717"/>
<path d="M19.5049 2.55883C19.6957 2.55883 19.8866 2.4888 20.0372 2.33872L21.0918 1.27817C21.3831 0.988015 21.3831 0.507765 21.0918 0.217613C20.8005 -0.0725378 20.3184 -0.0725378 20.0272 0.217613L18.9726 1.27817C18.6813 1.56832 18.6813 2.04857 18.9726 2.33872C19.1132 2.47879 19.3141 2.55883 19.5049 2.55883Z" fill="#171717"/>
<path d="M2.69172 5.98062H4.18823C4.60002 5.98062 4.94151 5.64044 4.94151 5.23022C4.94151 4.82001 4.61007 4.47983 4.19827 4.47983H2.69172C2.27992 4.47983 1.93844 4.82001 1.93844 5.23022C1.93844 5.64044 2.27992 5.98062 2.69172 5.98062Z" fill="#171717"/>
<path d="M3.44499 10.4629C3.63583 10.4629 3.82666 10.3929 3.97731 10.2428L5.04195 9.18228C5.33321 8.89213 5.33321 8.41188 5.04195 8.12173C4.75068 7.83158 4.26858 7.83158 3.96727 8.12173L2.91268 9.18228C2.62141 9.47243 2.62141 9.95268 2.91268 10.2428C3.05329 10.3929 3.25416 10.4629 3.44499 10.4629Z" fill="#171717"/>
<path d="M3.96727 2.33872C4.11792 2.4888 4.30875 2.55883 4.49959 2.55883C4.69042 2.55883 4.88125 2.4888 5.0319 2.33872C5.32317 2.04857 5.32317 1.56832 5.0319 1.27817L3.97731 0.217613C3.68604 -0.0725378 3.20395 -0.0725378 2.91268 0.217613C2.62141 0.507765 2.62141 0.988015 2.91268 1.27817L3.96727 2.33872Z" fill="#171717"/>
</svg>
