<svg width="24" height="24" viewBox="0 0 24 24" fill="none" xmlns="http://www.w3.org/2000/svg">
<g clip-path="url(#clip0_2862_15907)">
<path d="M3.41005 17.2699C1.56005 17.2699 0.0500488 18.7799 0.0500488 20.6299C0.0500488 22.4799 1.56005 23.9899 3.41005 23.9899C5.26005 23.9899 6.77005 22.4799 6.77005 20.6299C6.78005 18.7799 5.27005 17.2699 3.41005 17.2699ZM3.41005 22.4999C2.38005 22.4999 1.55005 21.6599 1.55005 20.6399C1.55005 19.6199 2.39005 18.7799 3.41005 18.7799C4.43005 18.7799 5.27005 19.6099 5.27005 20.6399C5.27005 21.6699 4.44005 22.4999 3.41005 22.4999Z" fill="#171717"/>
<path d="M14.49 17.4199H9.51001C9.10001 17.4199 8.76001 17.7599 8.76001 18.1699V23.1499C8.76001 23.5599 9.10001 23.8999 9.51001 23.8999H14.49C14.9 23.8999 15.24 23.5599 15.24 23.1499V18.1699C15.24 17.7599 14.9 17.4199 14.49 17.4199ZM13.74 22.3999H10.26V18.9199H13.74V22.3999Z" fill="#171717"/>
<path d="M23.8601 22.79L20.8701 17.31C20.6101 16.83 19.8201 16.83 19.5501 17.31L16.5601 22.79C16.4301 23.02 16.4401 23.3 16.5701 23.53C16.7001 23.76 16.9501 23.9 17.2101 23.9H23.1801C23.4401 23.9 23.6901 23.76 23.8201 23.53C23.9801 23.3 23.9801 23.02 23.8601 22.79ZM18.4901 22.4L20.2101 19.24L21.9301 22.4H18.4901Z" fill="#171717"/>
<path d="M8.36004 7.19C8.73004 7.71 9.21004 8.14 9.76004 8.46V9.81C9.76004 10.22 10.1 10.56 10.51 10.56H11.25V12.19H3.54004C3.13004 12.19 2.79004 12.53 2.79004 12.94V15.43C2.79004 15.84 3.13004 16.18 3.54004 16.18C3.95004 16.18 4.29004 15.84 4.29004 15.43V13.69H11.25V14.93C11.25 15.34 11.59 15.68 12 15.68C12.41 15.68 12.75 15.34 12.75 14.93V13.69H19.71V15.43C19.71 15.84 20.05 16.18 20.46 16.18C20.87 16.18 21.21 15.84 21.21 15.43V12.94C21.21 12.53 20.87 12.19 20.46 12.19H12.75V10.56H13.49C13.9 10.56 14.24 10.22 14.24 9.81V8.46C14.85 8.11 15.36 7.63 15.75 7.04C16.23 6.31 16.48 5.46 16.48 4.59C16.48 3.78 16.26 2.99 15.85 2.29C15.44 1.6 14.84 1.02 14.13 0.640002C13.42 0.260002 12.62 0.0700016 11.81 0.100002C11 0.130002 10.22 0.380002 9.54004 0.830002C8.86004 1.28 8.33004 1.89 7.97004 2.61C7.62004 3.34 7.47004 4.15 7.53004 4.95C7.60004 5.76 7.88004 6.53 8.36004 7.19ZM9.32004 3.27C9.56004 2.79 9.92004 2.38 10.37 2.08C10.82 1.79 11.34 1.62 11.88 1.6C12.42 1.57 12.95 1.7 13.42 1.96C13.89 2.22 14.29 2.6 14.56 3.06C14.83 3.52 14.98 4.05 14.98 4.59C14.98 5.17 14.81 5.74 14.49 6.22C14.17 6.71 13.72 7.09 13.19 7.32C12.92 7.43 12.74 7.7 12.74 8V9.06H11.25V8C11.25 7.7 11.07 7.43 10.8 7.31C10.31 7.1 9.88004 6.75 9.57004 6.31C9.26004 5.87 9.07004 5.36 9.02004 4.82C8.98004 4.29 9.08004 3.75 9.32004 3.27Z" fill="#171717"/>
<path d="M19.78 4.47998C19.37 4.47998 19.03 4.81998 19.03 5.22998C19.03 5.63998 19.37 5.97998 19.78 5.97998H21.27C21.68 5.97998 22.02 5.63998 22.02 5.22998C22.02 4.81998 21.68 4.47998 21.27 4.47998H19.78Z" fill="#171717"/>
<path d="M19.99 10.24C20.14 10.39 20.33 10.46 20.52 10.46C20.71 10.46 20.9 10.39 21.05 10.24C21.34 9.94997 21.34 9.46997 21.05 9.17997L20 8.11997C19.71 7.82997 19.23 7.82997 18.94 8.11997C18.65 8.40997 18.65 8.88997 18.94 9.17997L19.99 10.24Z" fill="#171717"/>
<path d="M19.47 2.55994C19.66 2.55994 19.85 2.48994 20 2.33994L21.05 1.27994C21.34 0.989941 21.34 0.509941 21.05 0.219941C20.76 -0.0700586 20.28 -0.0700586 19.99 0.219941L18.94 1.27994C18.65 1.56994 18.65 2.04994 18.94 2.33994C19.08 2.47994 19.28 2.55994 19.47 2.55994Z" fill="#171717"/>
<path d="M2.7301 5.97998H4.2201C4.6301 5.97998 4.9701 5.63998 4.9701 5.22998C4.9701 4.81998 4.6401 4.47998 4.2301 4.47998H2.7301C2.3201 4.47998 1.9801 4.81998 1.9801 5.22998C1.9801 5.63998 2.3201 5.97998 2.7301 5.97998Z" fill="#171717"/>
<path d="M3.48004 10.46C3.67004 10.46 3.86004 10.39 4.01004 10.24L5.07004 9.17997C5.36004 8.88997 5.36004 8.40997 5.07004 8.11997C4.78004 7.82997 4.30004 7.82997 4.00004 8.11997L2.95004 9.17997C2.66004 9.46997 2.66004 9.94997 2.95004 10.24C3.09004 10.39 3.29004 10.46 3.48004 10.46Z" fill="#171717"/>
<path d="M4.00004 2.33994C4.15004 2.48994 4.34004 2.55994 4.53004 2.55994C4.72004 2.55994 4.91004 2.48994 5.06004 2.33994C5.35004 2.04994 5.35004 1.56994 5.06004 1.27994L4.01004 0.219941C3.72004 -0.0700586 3.24004 -0.0700586 2.95004 0.219941C2.66004 0.509941 2.66004 0.989941 2.95004 1.27994L4.00004 2.33994Z" fill="#171717"/>
</g>
<defs>
<clipPath id="clip0_2862_15907">
<rect width="24" height="24" fill="white"/>
</clipPath>
</defs>
</svg>
