<svg width="24" height="24" viewBox="0 0 24 24" fill="none" xmlns="http://www.w3.org/2000/svg">
<path opacity="0.2" d="M6.40005 22.3C3.90005 22 1.90005 20 1.70005 17.6C1.50005 15.8 1.30005 13.9 1.30005 12C1.30005 10.1 1.50005 8.19999 1.70005 6.39999C2.00005 3.89999 4.00005 1.89999 6.40005 1.69999C8.20005 1.49999 10.1 1.29999 12 1.29999C13.9 1.29999 15.8 1.49999 17.6 1.69999C20.1 1.99999 22.1 3.99999 22.3 6.39999C22.5 8.19999 22.7001 10.1 22.7001 12C22.7001 13.9 22.5 15.8 22.3 17.6C22 20.1 20 22.1 17.6 22.3C15.8 22.5 13.9 22.7 12 22.7C10.1 22.7 8.20005 22.5 6.40005 22.3ZM12.8 6.39999C12.5 5.69999 11.5 5.69999 11.2 6.39999L10 9.29999L6.70005 9.59999C5.90005 9.69999 5.60005 10.6 6.20005 11.1L8.20005 12.7C8.40005 12.9 8.60005 13.2 8.50005 13.5L7.80005 16.5C7.60005 17.3 8.50005 17.8 9.10005 17.4L11.9 15.5L14.7 17.4C15.3 17.8 16.2 17.3 16 16.5L15.3 13.5C15.2 13.2 15.3 12.9 15.6 12.7L17.6 11.1C18.2001 10.6 17.9 9.69999 17.1 9.59999L14 9.29999L12.8 6.39999Z" fill="#1D2127"/>
<path d="M12 23.6C10 23.6 8.10002 23.4 6.30002 23.2C3.40002 22.9 1.10002 20.6 0.800024 17.7C0.600024 16 0.400024 14 0.400024 12C0.400024 10 0.600024 8.10002 0.800024 6.30002C1.10002 3.40002 3.40002 1.10002 6.30002 0.800024C8.10002 0.600024 10 0.400024 12 0.400024C14 0.400024 15.9 0.600024 17.7 0.800024C20.6 1.10002 22.9 3.40002 23.2 6.30002C23.4 8.00002 23.6 10 23.6 12C23.6 14 23.4 16 23.2 17.7C22.9 20.6 20.6 22.9 17.7 23.2C15.9 23.4 14 23.6 12 23.6ZM2.50002 17.5C2.70002 19.6 4.40002 21.2 6.50002 21.5C8.20002 21.7 10.1 21.9 12 21.9C13.9 21.9 15.8 21.7 17.5 21.5C19.6 21.3 21.2 19.6 21.5 17.5C21.7 15.9 21.9 13.9 21.9 12C21.9 10.1 21.7 8.10002 21.5 6.50002C21.3 4.40002 19.6 2.80002 17.5 2.50002C15.8 2.30002 13.9 2.10002 12 2.10002C10.1 2.10002 8.20002 2.30002 6.50002 2.50002C4.40002 2.70002 2.80002 4.40002 2.50002 6.50002C2.30002 8.20002 2.10002 10.1 2.10002 12C2.10002 13.9 2.30002 15.8 2.50002 17.5Z" fill="#1D2127"/>
<path d="M15.3 18.5C15 18.5 14.6 18.4 14.3 18.2L12 16.7L9.70002 18.2C9.10002 18.6 8.40003 18.6 7.80002 18.2C7.20003 17.8 6.90002 17.1 7.10002 16.4L7.80002 13.4L5.80002 11.8C5.20002 11.4 5.00002 10.6 5.20002 10C5.40002 9.30002 6.00002 8.80002 6.70002 8.80002L9.40002 8.60003L10.4 6.10002C10.7 5.40002 11.3 5.00002 12 5.00002C12.7 5.00002 13.3 5.40002 13.6 6.10002L14.6 8.60003L17.3 8.80002C18 8.90003 18.6 9.30002 18.8 10C19 10.7 18.8 11.4 18.3 11.8L16.3 13.4L17 16.4C17.1 17.1 16.9 17.8 16.3 18.2C15.9 18.4 15.6 18.5 15.3 18.5ZM12 14.8C12.2 14.8 12.3 14.8 12.5 14.9L15.3 16.8L14.6 13.8C14.5 13.2 14.7 12.5 15.2 12.1L17.2 10.5L13.9 10.2C13.6 10.2 13.3 10 13.2 9.70002L12 6.70002L10.8 9.60003C10.7 9.90003 10.4 10.1 10.1 10.1L6.80002 10.4L8.80002 12C9.30002 12.4 9.50002 13.1 9.40002 13.7L8.70002 16.7L11.5 14.8C11.7 14.9 11.8 14.8 12 14.8Z" fill="#1D2127"/>
</svg>
