<svg width="24" height="24" viewBox="0 0 24 24" fill="none" xmlns="http://www.w3.org/2000/svg">
<g clip-path="url(#clip0_2862_15907)">
<path d="M3.41005 17.2699C1.56005 17.2699 0.0500488 18.7799 0.0500488 20.6299C0.0500488 22.4799 1.56005 23.9899 3.41005 23.9899C5.26005 23.9899 6.77005 22.4799 6.77005 20.6299C6.78005 18.7799 5.27005 17.2699 3.41005 17.2699ZM3.41005 22.4999C2.38005 22.4999 1.55005 21.6599 1.55005 20.6399C1.55005 19.6199 2.39005 18.7799 3.41005 18.7799C4.43005 18.7799 5.27005 19.6099 5.27005 20.6399C5.27005 21.6699 4.44005 22.4999 3.41005 22.4999Z" fill="#171717"/>
<path d="M14.49 17.4199H9.51005C9.10005 17.4199 8.76005 17.7599 8.76005 18.1699V23.1499C8.76005 23.5599 9.10005 23.8999 9.51005 23.8999H14.49C14.9 23.8999 15.24 23.5599 15.24 23.1499V18.1699C15.24 17.7599 14.9 17.4199 14.49 17.4199ZM13.74 22.3999H10.26V18.9199H13.74V22.3999Z" fill="#171717"/>
<path d="M23.8601 22.7899L20.8701 17.3099C20.6101 16.8299 19.82 16.8299 19.55 17.3099L16.56 22.7899C16.43 23.0199 16.4401 23.2999 16.57 23.5299C16.7 23.7599 16.95 23.8999 17.21 23.8999H23.18C23.4401 23.8999 23.69 23.7599 23.82 23.5299C23.98 23.2999 23.98 23.0199 23.8601 22.7899ZM18.49 22.3999L20.21 19.2399L21.93 22.3999H18.49Z" fill="#171717"/>
<path d="M8.36005 7.18994C8.73005 7.70994 9.21005 8.13994 9.76005 8.45994V9.80994C9.76005 10.2199 10.1 10.5599 10.51 10.5599H11.25V12.1899H3.54005C3.13005 12.1899 2.79005 12.5299 2.79005 12.9399V15.4299C2.79005 15.8399 3.13005 16.1799 3.54005 16.1799C3.95005 16.1799 4.29005 15.8399 4.29005 15.4299V13.6899H11.25V14.9299C11.25 15.3399 11.59 15.6799 12 15.6799C12.41 15.6799 12.75 15.3399 12.75 14.9299V13.6899H19.71V15.4299C19.71 15.8399 20.05 16.1799 20.46 16.1799C20.87 16.1799 21.21 15.8399 21.21 15.4299V12.9399C21.21 12.5299 20.87 12.1899 20.46 12.1899H12.75V10.5599H13.49C13.9 10.5599 14.24 10.2199 14.24 9.80994V8.45994C14.85 8.10994 15.36 7.62994 15.75 7.03994C16.23 6.30994 16.48 5.45994 16.48 4.58994C16.48 3.77994 16.26 2.98994 15.85 2.28994C15.44 1.59994 14.84 1.01994 14.13 0.639941C13.42 0.259941 12.62 0.0699414 11.81 0.0999414C11 0.129941 10.22 0.379941 9.54005 0.829941C8.86005 1.27994 8.33005 1.88994 7.97005 2.60994C7.62005 3.33994 7.47005 4.14994 7.53005 4.94994C7.60005 5.75994 7.88005 6.52994 8.36005 7.18994ZM9.32005 3.26994C9.56005 2.78994 9.92005 2.37994 10.37 2.07994C10.82 1.78994 11.34 1.61994 11.88 1.59994C12.42 1.56994 12.95 1.69994 13.42 1.95994C13.89 2.21994 14.29 2.59994 14.56 3.05994C14.83 3.51994 14.98 4.04994 14.98 4.58994C14.98 5.16994 14.81 5.73994 14.49 6.21994C14.17 6.70994 13.72 7.08994 13.19 7.31994C12.92 7.42994 12.74 7.69994 12.74 7.99994V9.05994H11.25V7.99994C11.25 7.69994 11.07 7.42994 10.8 7.30994C10.31 7.09994 9.88005 6.74994 9.57005 6.30994C9.26005 5.86994 9.07005 5.35994 9.02005 4.81994C8.98005 4.28994 9.08005 3.74994 9.32005 3.26994Z" fill="#171717"/>
<path d="M19.7801 4.47994C19.3701 4.47994 19.0301 4.81994 19.0301 5.22994C19.0301 5.63994 19.3701 5.97994 19.7801 5.97994H21.2701C21.68 5.97994 22.0201 5.63994 22.0201 5.22994C22.0201 4.81994 21.68 4.47994 21.2701 4.47994H19.7801Z" fill="#171717"/>
<path d="M19.99 10.2399C20.14 10.3899 20.33 10.4599 20.5201 10.4599C20.7101 10.4599 20.9 10.3899 21.05 10.2399C21.34 9.94994 21.34 9.46994 21.05 9.17994L20 8.11994C19.71 7.82994 19.2301 7.82994 18.9401 8.11994C18.65 8.40994 18.65 8.88994 18.9401 9.17994L19.99 10.2399Z" fill="#171717"/>
<path d="M19.47 2.55994C19.66 2.55994 19.85 2.48994 20 2.33994L21.05 1.27994C21.34 0.989941 21.34 0.509941 21.05 0.219941C20.76 -0.0700586 20.28 -0.0700586 19.99 0.219941L18.9401 1.27994C18.65 1.56994 18.65 2.04994 18.9401 2.33994C19.08 2.47994 19.28 2.55994 19.47 2.55994Z" fill="#171717"/>
<path d="M2.73005 5.97994H4.22005C4.63005 5.97994 4.97005 5.63994 4.97005 5.22994C4.97005 4.81994 4.64005 4.47994 4.23005 4.47994H2.73005C2.32005 4.47994 1.98005 4.81994 1.98005 5.22994C1.98005 5.63994 2.32005 5.97994 2.73005 5.97994Z" fill="#171717"/>
<path d="M3.48005 10.4599C3.67005 10.4599 3.86005 10.3899 4.01005 10.2399L5.07005 9.17994C5.36005 8.88994 5.36005 8.40994 5.07005 8.11994C4.78005 7.82994 4.30005 7.82994 4.00005 8.11994L2.95005 9.17994C2.66005 9.46994 2.66005 9.94994 2.95005 10.2399C3.09005 10.3899 3.29005 10.4599 3.48005 10.4599Z" fill="#171717"/>
<path d="M4.00005 2.33994C4.15005 2.48994 4.34005 2.55994 4.53005 2.55994C4.72005 2.55994 4.91005 2.48994 5.06005 2.33994C5.35005 2.04994 5.35005 1.56994 5.06005 1.27994L4.01005 0.219941C3.72005 -0.0700586 3.24005 -0.0700586 2.95005 0.219941C2.66005 0.509941 2.66005 0.989941 2.95005 1.27994L4.00005 2.33994Z" fill="#171717"/>
</g>
<defs>
<clipPath id="clip0_2862_15907">
<rect width="24" height="24" fill="white"/>
</clipPath>
</defs>
</svg>
