<svg width="24" height="24" viewBox="0 0 24 24" fill="none" xmlns="http://www.w3.org/2000/svg">
<path opacity="0.2" d="M6.40005 22.3C3.90005 22 1.90005 20 1.70005 17.6C1.50005 15.8 1.30005 13.9 1.30005 12C1.30005 10.1 1.50005 8.19999 1.70005 6.39999C2.00005 3.89999 4.00005 1.89999 6.40005 1.69999C8.20005 1.49999 10.1 1.29999 12 1.29999C13.9 1.29999 15.8 1.49999 17.6 1.69999C20.1 1.99999 22.1 3.99999 22.3 6.39999C22.5 8.19999 22.7001 10.1 22.7001 12C22.7001 13.9 22.5 15.8 22.3 17.6C22 20.1 20 22.1 17.6 22.3C15.8 22.5 13.9 22.7 12 22.7C10.1 22.7 8.20005 22.5 6.40005 22.3ZM12.8 6.39999C12.5 5.69999 11.5 5.69999 11.2 6.39999L10 9.29999L6.70005 9.59999C5.90005 9.69999 5.60005 10.6 6.20005 11.1L8.20005 12.7C8.40005 12.9 8.60005 13.2 8.50005 13.5L7.80005 16.5C7.60005 17.3 8.50005 17.8 9.10005 17.4L11.9 15.5L14.7 17.4C15.3 17.8 16.2 17.3 16 16.5L15.3 13.5C15.2 13.2 15.3 12.9 15.6 12.7L17.6 11.1C18.2001 10.6 17.9 9.69999 17.1 9.59999L14 9.29999L12.8 6.39999Z" fill="#101C2D"/>
<path d="M11.9999 23.6C9.9999 23.6 8.0999 23.4 6.2999 23.2C3.3999 22.9 1.0999 20.6 0.799902 17.7C0.599902 16 0.399902 14 0.399902 12C0.399902 10 0.599902 8.10002 0.799902 6.30002C1.0999 3.40002 3.3999 1.10002 6.2999 0.800024C8.0999 0.600024 9.9999 0.400024 11.9999 0.400024C13.9999 0.400024 15.8999 0.600024 17.6999 0.800024C20.5999 1.10002 22.8999 3.40002 23.1999 6.30002C23.3999 8.00002 23.5999 10 23.5999 12C23.5999 14 23.3999 16 23.1999 17.7C22.8999 20.6 20.5999 22.9 17.6999 23.2C15.8999 23.4 13.9999 23.6 11.9999 23.6ZM2.4999 17.5C2.6999 19.6 4.3999 21.2 6.4999 21.5C8.1999 21.7 10.0999 21.9 11.9999 21.9C13.8999 21.9 15.7999 21.7 17.4999 21.5C19.5999 21.3 21.1999 19.6 21.4999 17.5C21.6999 15.9 21.8999 13.9 21.8999 12C21.8999 10.1 21.6999 8.10002 21.4999 6.50002C21.2999 4.40002 19.5999 2.80002 17.4999 2.50002C15.7999 2.30002 13.8999 2.10002 11.9999 2.10002C10.0999 2.10002 8.1999 2.30002 6.4999 2.50002C4.3999 2.70002 2.7999 4.40002 2.4999 6.50002C2.2999 8.20002 2.0999 10.1 2.0999 12C2.0999 13.9 2.2999 15.8 2.4999 17.5Z" fill="#101C2D"/>
<path d="M15.2999 18.5C14.9999 18.5 14.5999 18.4 14.2999 18.2L11.9999 16.7L9.6999 18.2C9.0999 18.6 8.3999 18.6 7.7999 18.2C7.1999 17.8 6.8999 17.1 7.0999 16.4L7.7999 13.4L5.7999 11.8C5.1999 11.4 4.9999 10.6 5.1999 10C5.3999 9.30002 5.9999 8.80002 6.6999 8.80002L9.3999 8.60003L10.3999 6.10002C10.6999 5.40002 11.2999 5.00002 11.9999 5.00002C12.6999 5.00002 13.2999 5.40002 13.5999 6.10002L14.5999 8.60003L17.2999 8.80002C17.9999 8.90003 18.5999 9.30002 18.7999 10C18.9999 10.7 18.7999 11.4 18.2999 11.8L16.2999 13.4L16.9999 16.4C17.0999 17.1 16.8999 17.8 16.2999 18.2C15.8999 18.4 15.5999 18.5 15.2999 18.5ZM11.9999 14.8C12.1999 14.8 12.2999 14.8 12.4999 14.9L15.2999 16.8L14.5999 13.8C14.4999 13.2 14.6999 12.5 15.1999 12.1L17.1999 10.5L13.8999 10.2C13.5999 10.2 13.2999 10 13.1999 9.70002L11.9999 6.70002L10.7999 9.60003C10.6999 9.90003 10.3999 10.1 10.0999 10.1L6.7999 10.4L8.7999 12C9.2999 12.4 9.4999 13.1 9.3999 13.7L8.6999 16.7L11.4999 14.8C11.6999 14.9 11.7999 14.8 11.9999 14.8Z" fill="#101C2D"/>
</svg>
