<svg width="24" height="24" viewBox="0 0 24 24" fill="none" xmlns="http://www.w3.org/2000/svg">
<path opacity="0.2" d="M9.99878 9.99609H7.49878L6.99878 10.9961L8.99878 12.9961L7.99878 16.9961L11.9988 15.4961L15.4988 16.9961L14.4988 13.4961L16.9988 9.99609H14.4988L11.9988 6.99609L9.99878 9.99609Z" fill="#0A0B0D"/>
<path fill-rule="evenodd" clip-rule="evenodd" d="M4.26796 1.00604C3.37282 1.06791 2.62119 1.39415 2.05036 1.9686C1.64333 2.3782 1.34466 2.90352 1.16173 3.53157C1.10834 3.71486 1.06181 3.94399 1.01892 4.23469C1.005 4.32912 1.00379 4.84449 1.0009 11.9347C0.998657 17.4496 1.0005 19.5769 1.00762 19.6919C1.05182 20.4062 1.25169 21.008 1.61705 21.5267C2.02798 22.1101 2.63691 22.5437 3.38796 22.7878C3.65317 22.874 3.8685 22.9217 4.23716 22.9761C4.33159 22.9901 4.84696 22.9913 11.9372 22.9942C17.4521 22.9964 19.5794 22.9946 19.6944 22.9874C20.4087 22.9432 21.0105 22.7434 21.5292 22.378C22.3261 21.8167 22.8366 20.8918 22.9763 19.7565C22.9838 19.6952 22.9905 19.6239 22.9912 19.5981L22.9925 19.5511L22.9988 19.5863C23.0022 19.6057 23.0044 16.1961 23.0036 12.0095C23.0025 6.22995 22.9997 4.36889 22.9918 4.27869C22.9423 3.71395 22.839 3.31211 22.6379 2.90149C22.2396 2.08837 21.5392 1.50535 20.5932 1.19958C20.3352 1.11618 20.1367 1.07262 19.7575 1.01617C19.6664 1.00261 19.0936 1.00143 12.0164 1.00013C7.81282 0.999366 4.32604 1.00202 4.26796 1.00604ZM4.38682 2.80143C4.09627 2.82101 3.79976 2.9041 3.59916 3.02214C3.21363 3.24902 2.95295 3.67065 2.83861 4.25229C2.79085 4.49519 2.79395 3.95393 2.7941 12.0138C2.79419 16.8587 2.79729 19.5003 2.803 19.5863C2.82388 19.9008 2.9027 20.1887 3.02461 20.3959C3.25148 20.7814 3.67312 21.0421 4.25476 21.1565C4.49766 21.2042 3.9564 21.2011 12.0163 21.201C16.9407 21.2009 19.5014 21.1978 19.5888 21.1919C19.9052 21.1706 20.1912 21.0923 20.3984 20.9704C20.7839 20.7436 21.0446 20.3219 21.1589 19.7403C21.2067 19.4974 21.2036 20.0387 21.2034 11.9787C21.2033 7.05436 21.2003 4.49366 21.1944 4.40629C21.173 4.08982 21.0948 3.80382 20.9729 3.59669C20.746 3.21117 20.3244 2.95048 19.7428 2.83614C19.4997 2.78835 20.0446 2.79139 11.9592 2.79276C7.85487 2.79346 4.44729 2.79736 4.38682 2.80143ZM1.00315 12.0271C1.00315 16.2089 1.00414 17.9209 1.00536 15.8316C1.00659 13.7423 1.00659 10.3209 1.00536 8.22842C1.00414 6.13593 1.00315 7.84534 1.00315 12.0271ZM11.8448 5.86828C11.7549 5.87808 11.6032 5.90946 11.5257 5.93426C11.1589 6.05175 10.8337 6.30565 10.6465 6.62056C10.6231 6.65995 10.3326 7.22726 10.001 7.88124L9.39803 9.07029L8.3686 9.07523C7.45488 9.07962 7.32928 9.08186 7.25125 9.09514C6.9468 9.14695 6.69558 9.26389 6.46179 9.46262C6.17813 9.70371 5.98736 10.0552 5.93017 10.442C5.90981 10.5797 5.91763 10.8168 5.94721 10.9584C6.00273 11.2243 6.11055 11.4516 6.27888 11.6576C6.30746 11.6926 6.74902 12.1325 7.26011 12.6351C7.8741 13.239 8.18802 13.5536 8.18536 13.5625C8.18315 13.5698 7.95772 14.0887 7.68441 14.7155C7.41111 15.3423 7.17301 15.8938 7.15531 15.9411C7.11901 16.0381 7.0855 16.1716 7.07009 16.2805C7.05452 16.3905 7.06406 16.6591 7.08754 16.7719C7.15754 17.1082 7.28594 17.3499 7.51952 17.5851C7.77988 17.8473 8.08651 17.9971 8.45521 18.0424C8.57635 18.0573 8.82658 18.0483 8.94076 18.0249C9.06439 17.9996 9.20656 17.9512 9.31476 17.8974C9.36558 17.8722 9.98715 17.5252 10.696 17.1264C11.4049 16.7276 11.9911 16.4013 11.9988 16.4013C12.0064 16.4013 12.5926 16.7276 13.3015 17.1264C14.0104 17.5252 14.6319 17.8722 14.6828 17.8976C14.7933 17.9527 14.9314 17.9994 15.0596 18.0252C15.1783 18.049 15.4191 18.0575 15.5428 18.0424C15.911 17.9971 16.2178 17.8471 16.478 17.5851C16.7718 17.2893 16.9207 16.9432 16.9332 16.5267C16.9401 16.2985 16.9146 16.1344 16.8421 15.9408C16.8244 15.8937 16.5864 15.3423 16.3131 14.7155C16.0397 14.0887 15.8143 13.5698 15.8121 13.5622C15.8094 13.5531 16.1039 13.2569 16.704 12.6655C17.1968 12.1798 17.631 11.7485 17.6689 11.7071C17.8393 11.521 17.9512 11.3216 18.0215 11.0788C18.066 10.9252 18.0748 10.8536 18.075 10.6411C18.0751 10.4663 18.0727 10.4318 18.0545 10.3463C17.9587 9.89719 17.7057 9.53741 17.3205 9.30245C17.113 9.17589 16.8889 9.10371 16.6417 9.08382C16.5726 9.07827 16.1509 9.07469 15.5635 9.07469H14.5988L14.0006 7.8938C13.6716 7.24432 13.381 6.67705 13.3548 6.6332C13.232 6.42756 13.0803 6.26815 12.8797 6.13402C12.6826 6.00222 12.4846 5.92288 12.254 5.88327C12.1802 5.87061 11.9132 5.86082 11.8448 5.86828ZM11.3737 9.15169C11.0338 9.82325 10.7374 10.4041 10.715 10.4424C10.6191 10.6069 10.4175 10.7691 10.2342 10.8291C10.0943 10.8749 10.1415 10.873 9.05573 10.8782L8.0443 10.8831L8.98839 11.8115C9.61763 12.4303 9.95005 12.7634 9.98516 12.8103C10.0936 12.9552 10.1484 13.1114 10.157 13.3006C10.1627 13.4269 10.1522 13.5141 10.119 13.6139C10.1033 13.6614 9.33013 15.4475 9.12694 15.9058C9.10464 15.9561 9.10461 15.9564 9.12382 15.9462C9.13446 15.9406 9.67991 15.6341 10.3359 15.2652C10.992 14.8962 11.5602 14.5786 11.5987 14.5594C11.7339 14.4918 11.842 14.4668 11.9988 14.4668C12.1555 14.4668 12.2636 14.4918 12.3988 14.5594C12.4373 14.5786 13.0056 14.8962 13.6616 15.2652C15.0532 16.0478 14.8975 15.9619 14.8868 15.9416C14.8655 15.9011 13.8953 13.6672 13.8808 13.6253C13.8475 13.5287 13.8355 13.4339 13.8408 13.3075C13.8493 13.1022 13.899 12.9608 14.0188 12.8014C14.0449 12.7666 14.4758 12.3351 15.0072 11.8114L15.9493 10.8831L14.9399 10.8781C14.0363 10.8736 13.9239 10.8715 13.8689 10.8583C13.6251 10.7997 13.4295 10.669 13.3044 10.4812C13.2808 10.4457 12.9784 9.85742 12.6323 9.17385C12.2863 8.4903 12.0006 7.93094 11.9975 7.93085C11.9943 7.93076 11.7137 8.48015 11.3737 9.15169Z" fill="#0A0B0D"/>
</svg>
