<svg width="24" height="24" viewBox="0 0 24 24" fill="none" xmlns="http://www.w3.org/2000/svg">
<path fill-rule="evenodd" clip-rule="evenodd" d="M20.9591 3.03868C19.2917 3.174 17.6675 3.66036 16.1949 4.47031C14.419 5.44705 12.9225 6.86189 11.8478 8.58026L11.8422 8.58924C11.1968 9.59723 10.639 10.6582 10.1747 11.7605L12.2419 13.8277C13.3575 13.3645 14.4321 12.8073 15.4541 12.162C19.6793 9.3238 20.7549 5.61275 20.9591 3.03868ZM15.3413 14.551C14.5825 14.9699 13.8009 15.3464 13 15.6785V18.7053C13.0961 18.6739 13.1949 18.6401 13.2952 18.6037C14.1578 18.2908 14.8771 17.8795 15.1684 17.4446C15.3115 17.2296 15.4176 16.8976 15.4599 16.4428C15.5014 15.9961 15.475 15.5005 15.4132 15.0203C15.3922 14.858 15.3677 14.7006 15.3413 14.551ZM12 20L12.1786 20.9839C11.8869 21.0369 11.5867 20.9577 11.3591 20.7677C11.1315 20.5777 11 20.2965 11 20V15.4142L8.58575 13H3.99996C3.70349 13 3.4223 12.8685 3.2323 12.6409C3.0423 12.4133 2.96309 12.1131 3.01604 11.8214L3.99996 12C3.01604 11.8214 3.016 11.8216 3.01604 11.8214L3.01643 11.8193L3.01702 11.816L3.01885 11.8063L3.02505 11.774C3.03033 11.7469 3.03793 11.7091 3.04795 11.6616C3.06795 11.5667 3.0977 11.433 3.13797 11.2707C3.21812 10.9475 3.34179 10.5034 3.51614 10.0228C3.8406 9.12828 4.42903 7.84778 5.44394 7.16884L5.44526 7.16795C6.04025 6.77129 6.73804 6.6076 7.3721 6.54867C8.01479 6.48894 8.66791 6.53008 9.23528 6.60321C9.76088 6.67094 10.236 6.76923 10.5949 6.8551C11.8058 5.14622 13.3899 3.73052 15.231 2.71788C17.3059 1.5767 19.6382 0.985336 22.0062 1.00002C22.556 1.00343 23 1.45014 23 2C23 4.8103 22.2116 9.70768 17.1476 13.4166C17.2328 13.7741 17.3297 14.2447 17.3968 14.7647C17.4699 15.3321 17.511 15.9852 17.4513 16.6279C17.3924 17.2619 17.2287 17.9597 16.832 18.5547L16.8311 18.556C16.1522 19.5709 14.8717 20.1594 13.9772 20.4838C13.4965 20.6582 13.0524 20.7818 12.7293 20.862C12.567 20.9023 12.4333 20.932 12.3384 20.952C12.2909 20.962 12.253 20.9696 12.226 20.9749L12.1937 20.9811L12.1839 20.9829L12.1807 20.9835L12.1786 20.9839C12.1783 20.984 12.1786 20.9839 12 20ZM9.46729 8.66191C9.04273 9.41894 8.66127 10.1995 8.3248 11H5.29463C5.32602 10.9039 5.35988 10.8051 5.39628 10.7047C5.70914 9.84223 6.12042 9.12306 6.55523 8.83168C6.77026 8.68853 7.10228 8.58237 7.55719 8.54009C8.00389 8.49857 8.49951 8.52492 8.97964 8.5868C9.14856 8.60857 9.31225 8.63429 9.46729 8.66191ZM3.85615 15.7348C4.45542 15.2301 5.21994 14.9643 6.0031 14.9885C6.78653 15.0127 7.53341 15.3254 8.1004 15.8666L8.11255 15.8784C9.30096 17.0518 9.28572 18.9352 8.26469 20.1444C7.82202 20.6709 7.21235 21.0575 6.62604 21.3439C6.02785 21.636 5.38232 21.8581 4.80247 22.0239C4.21944 22.1907 3.6817 22.3066 3.29056 22.3809C3.0943 22.4182 2.93322 22.4453 2.81969 22.4633C2.76289 22.4723 2.71787 22.479 2.68618 22.4836L2.64879 22.4889L2.63793 22.4904L2.63332 22.4911C2.63312 22.4911 2.63247 22.4912 2.49996 21.5C1.50878 21.3675 1.5088 21.3673 1.50883 21.3671L1.50952 21.362L1.51102 21.3512L1.51635 21.3138C1.52096 21.2821 1.5277 21.2371 1.53671 21.1803C1.5547 21.0667 1.58181 20.9057 1.61908 20.7094C1.69334 20.3183 1.80925 19.7805 1.97602 19.1975C2.14188 18.6176 2.36392 17.9721 2.65611 17.3739C2.94259 16.7874 3.32938 16.1775 3.85615 15.7348ZM2.49996 21.5L1.50883 21.3671C1.46754 21.676 1.57252 21.9868 1.79285 22.2071C2.01318 22.4274 2.32448 22.5324 2.63332 22.4911L2.49996 21.5ZM3.77041 20.2296C3.92545 20.1911 4.08719 20.1483 4.25245 20.1011C4.76511 19.9544 5.29082 19.7702 5.74825 19.5468C6.21715 19.3177 6.54701 19.0797 6.73426 18.8568L6.73623 18.8545C7.13222 18.386 7.09892 17.6948 6.71323 17.3074C6.50362 17.1103 6.22909 16.9965 5.94127 16.9876C5.65057 16.9786 5.36678 17.0772 5.14438 17.2647L5.14315 17.2657C4.92024 17.453 4.68222 17.7828 4.45319 18.2517C4.22975 18.7091 4.04554 19.2349 3.8989 19.7475C3.85163 19.9128 3.80887 20.0745 3.77041 20.2296Z" fill="#0A0B0D"/>
</svg>
