<svg width="24" height="24" viewBox="0 0 24 24" fill="none" xmlns="http://www.w3.org/2000/svg">
<g clip-path="url(#clip0_2862_16105)">
<path d="M23.81 1.3899C23.69 1.1099 23.51 0.849902 23.28 0.629902C23.05 0.419902 22.78 0.259902 22.49 0.149902C22.2 0.0499023 21.89 0.00990234 21.59 0.0299023C17.22 0.289902 13.56 1.6099 12.02 3.3199C10.66 1.6999 7.41 0.289902 2.39 0.0299023C2.08 0.00990234 1.78 0.0499023 1.49 0.159902C1.2 0.259902 0.94 0.419902 0.71 0.639902C0.49 0.849902 0.31 1.0999 0.19 1.3899C0.06 1.6699 0 1.9699 0 2.2799V15.6299C0 16.2099 0.21 16.7599 0.61 17.1799C1.01 17.5999 1.54 17.8499 2.14 17.8799C4.11 17.9399 6.05 18.2799 7.93 18.8999C8.01 18.9299 8.09 18.9399 8.17 18.9399C8.48 18.9399 8.78 18.7399 8.88 18.4299C9.01 18.0399 8.8 17.6099 8.4 17.4799C6.39 16.8099 4.3 16.4399 2.2 16.3799C2.01 16.3699 1.83 16.2899 1.7 16.1499C1.57 16.0099 1.5 15.8299 1.5 15.6299V2.2699C1.5 2.1699 1.52 2.0699 1.56 1.9699C1.6 1.8699 1.66 1.7899 1.73 1.7199C1.81 1.6599 1.9 1.5999 2 1.5699C2.1 1.5299 2.2 1.5199 2.31 1.5299C8.55 1.8499 11.25 4.0499 11.25 5.0899V8.9799C11.25 9.3899 11.59 9.7299 12 9.7299C12.41 9.7299 12.75 9.3899 12.75 8.9799V5.0899C12.75 4.0599 15.9 1.8799 21.7 1.5399C21.8 1.5299 21.91 1.5399 22 1.5799C22.1 1.6099 22.19 1.6699 22.26 1.7399C22.34 1.8099 22.4 1.8999 22.44 1.9899C22.48 2.0799 22.5 2.1799 22.5 2.2999V14.8999C22.5 15.3099 22.84 15.6499 23.25 15.6499C23.66 15.6499 24 15.3099 24 14.8999V2.2899C24 1.9799 23.94 1.6699 23.81 1.3899Z" fill="#171717"/>
<path d="M9.58997 5.82C7.73997 5.15 5.79997 4.7 3.84997 4.48C3.42997 4.44 3.05997 4.73 3.01997 5.14C2.96997 5.55 3.26997 5.93 3.67997 5.97C5.51997 6.17 7.33997 6.6 9.07997 7.23C9.15997 7.26 9.24997 7.27 9.33997 7.27C9.64997 7.27 9.92997 7.08 10.05 6.78C10.18 6.39 9.97997 5.96 9.58997 5.82Z" fill="#171717"/>
<path d="M20.39 8.29988C20 8.33988 19.64 8.38988 19.27 8.45988C18.86 8.52988 18.59 8.91988 18.66 9.32988C18.72 9.69988 19.04 9.94988 19.4 9.94988C19.44 9.94988 19.48 9.94988 19.53 9.93988C19.86 9.87988 20.2 9.82988 20.55 9.79988C20.96 9.75988 21.26 9.38988 21.22 8.96988C21.18 8.54988 20.81 8.24988 20.39 8.29988Z" fill="#171717"/>
<path d="M9.58997 9.62988C7.72997 8.96988 5.79997 8.51988 3.84997 8.29988C3.42997 8.24988 3.05997 8.54988 3.01997 8.95988C2.96997 9.36988 3.26997 9.74988 3.67997 9.78988C5.51997 9.99988 7.33997 10.4199 9.07997 11.0399C9.15997 11.0699 9.24997 11.0799 9.32997 11.0799C9.63997 11.0799 9.92997 10.8899 10.04 10.5799C10.18 10.1999 9.97997 9.76988 9.58997 9.62988Z" fill="#171717"/>
<path d="M3.62999 13.8199C5.48999 14.0299 7.31999 14.4599 9.07999 15.0899C9.15999 15.1199 9.24999 15.1299 9.32999 15.1299C9.63999 15.1299 9.92999 14.9399 10.04 14.6299C10.18 14.2399 9.97999 13.8099 9.58999 13.6699C7.71999 12.9999 5.77999 12.5499 3.79999 12.3199C3.38999 12.2699 3.01999 12.5699 2.96999 12.9799C2.91999 13.3999 3.21999 13.7699 3.62999 13.8199Z" fill="#171717"/>
<path d="M20.44 4.48C18.46 4.71 16.51 5.16 14.64 5.83C14.25 5.97 14.05 6.4 14.19 6.79C14.3 7.1 14.59 7.29 14.9 7.29C14.98 7.29 15.07 7.28 15.15 7.25C16.91 6.62 18.75 6.19 20.61 5.98C21.02 5.93 21.32 5.56 21.27 5.15C21.22 4.73 20.85 4.44 20.44 4.48Z" fill="#171717"/>
<path d="M21.06 18.1698L18 17.4898V12.4098C18.03 12.0498 17.98 11.6898 17.86 11.3498C17.74 11.0098 17.55 10.6998 17.31 10.4298C17.06 10.1598 16.77 9.94979 16.43 9.80979C15.76 9.51979 14.99 9.51979 14.33 9.80979C14 9.94979 13.7 10.1598 13.45 10.4298C13.2 10.6998 13.01 11.0098 12.9 11.3498C12.78 11.6898 12.73 12.0498 12.76 12.3598V20.0698L12.46 19.8498C12.02 19.5198 11.47 19.3498 10.92 19.3898C10.37 19.4298 9.85001 19.6598 9.46001 20.0598C9.07001 20.4498 8.84001 20.9698 8.80001 21.5198C8.77001 22.0698 8.93001 22.6198 9.26001 23.0498L9.73001 23.6798C9.98001 24.0098 10.45 24.0798 10.78 23.8298C11.11 23.5798 11.18 23.1098 10.93 22.7798L10.45 22.1398C10.33 21.9898 10.28 21.7998 10.29 21.6098C10.3 21.4198 10.38 21.2398 10.52 21.1098C10.65 20.9798 10.83 20.8898 11.02 20.8798C11.2 20.8698 11.4 20.9198 11.55 21.0398L13.05 22.1498C13.28 22.3198 13.58 22.3398 13.83 22.2198C14.08 22.0898 14.24 21.8298 14.24 21.5498V12.2998C14.23 12.1498 14.25 11.9898 14.3 11.8398C14.35 11.6998 14.43 11.5598 14.54 11.4498C14.65 11.3398 14.77 11.2498 14.92 11.1798C15.21 11.0598 15.54 11.0598 15.82 11.1798C15.96 11.2398 16.09 11.3298 16.19 11.4498C16.29 11.5698 16.38 11.6998 16.43 11.8498C16.48 11.9898 16.5 12.1498 16.49 12.3598V18.0998C16.49 18.4498 16.73 18.7598 17.08 18.8298L20.73 19.6398C21.27 19.7598 21.74 20.0698 22.06 20.5098C22.38 20.9498 22.53 21.4998 22.48 22.0398L22.38 23.1598C22.34 23.5698 22.65 23.9398 23.06 23.9698C23.08 23.9698 23.11 23.9698 23.13 23.9698C23.51 23.9698 23.84 23.6798 23.88 23.2898L23.98 22.1698C24.06 21.2598 23.81 20.3498 23.27 19.6198C22.74 18.8898 21.95 18.3698 21.06 18.1698Z" fill="#171717"/>
</g>
<defs>
<clipPath id="clip0_2862_16105">
<rect width="24" height="24" fill="white"/>
</clipPath>
</defs>
</svg>
