<svg width="24" height="24" viewBox="0 0 24 24" fill="none" xmlns="http://www.w3.org/2000/svg">
<path d="M23.81 1.36755C23.69 1.08703 23.51 0.82654 23.28 0.60613C23.05 0.395738 22.78 0.235439 22.49 0.125233C22.2 0.0250467 21.89 -0.015028 21.59 0.00500934C17.22 0.265495 13.56 1.58796 12.02 3.30115C10.66 1.67813 7.41 0.265495 2.39 0.00500934C2.08 -0.015028 1.78 0.0250467 1.49 0.135252C1.2 0.235439 0.94 0.395738 0.71 0.616148C0.49 0.82654 0.31 1.07701 0.19 1.36755C0.06 1.64807 0 1.94863 0 2.25921V15.6341C0 16.2152 0.21 16.7662 0.61 17.187C1.01 17.6078 1.54 17.8583 2.14 17.8883C4.11 17.9485 6.05 18.2891 7.93 18.9102C8.01 18.9403 8.09 18.9503 8.17 18.9503C8.48 18.9503 8.78 18.7499 8.88 18.4394C9.01 18.0486 8.8 17.6178 8.4 17.4876C6.39 16.8163 4.3 16.4456 2.2 16.3855C2.01 16.3755 1.83 16.2954 1.7 16.1551C1.57 16.0148 1.5 15.8345 1.5 15.6341V2.24919C1.5 2.14901 1.52 2.04882 1.56 1.94863C1.6 1.84844 1.66 1.7683 1.73 1.69816C1.81 1.63805 1.9 1.57794 2 1.54788C2.1 1.50781 2.2 1.49779 2.31 1.50781C8.55 1.82841 11.25 4.03252 11.25 5.07446V8.97172C11.25 9.38249 11.59 9.72312 12 9.72312C12.41 9.72312 12.75 9.38249 12.75 8.97172V5.07446C12.75 4.04253 15.9 1.85846 21.7 1.51783C21.8 1.50781 21.91 1.51783 22 1.5579C22.1 1.58796 22.19 1.64807 22.26 1.7182C22.34 1.78833 22.4 1.8785 22.44 1.96867C22.48 2.05884 22.5 2.15902 22.5 2.27925V14.9028C22.5 15.3135 22.84 15.6542 23.25 15.6542C23.66 15.6542 24 15.3135 24 14.9028V2.26923C24 1.95865 23.94 1.64807 23.81 1.36755Z" fill="#171717"/>
<path d="M9.59 5.80582C7.74 5.13457 5.8 4.68373 3.85 4.46332C3.43 4.42324 3.06 4.71378 3.02 5.12455C2.97 5.53532 3.27 5.91603 3.68 5.9561C5.52 6.15647 7.34 6.58728 9.08 7.21845C9.16 7.24851 9.25 7.25853 9.34 7.25853C9.65 7.25853 9.93 7.06817 10.05 6.76761C10.18 6.37688 9.98 5.94608 9.59 5.80582Z" fill="#171717"/>
<path d="M20.39 8.29045C20 8.33053 19.64 8.38062 19.27 8.45075C18.86 8.52088 18.59 8.91161 18.66 9.32237C18.72 9.69307 19.04 9.94353 19.4 9.94353C19.44 9.94353 19.48 9.94353 19.53 9.93351C19.86 9.8734 20.2 9.82331 20.55 9.79325C20.96 9.75318 21.26 9.38249 21.22 8.9617C21.18 8.54092 20.81 8.24036 20.39 8.29045Z" fill="#171717"/>
<path d="M9.59 9.62293C7.73 8.9617 5.8 8.51086 3.85 8.29045C3.43 8.24036 3.06 8.54092 3.02 8.95168C2.97 9.36245 3.27 9.74316 3.68 9.78323C5.52 9.99363 7.34 10.4144 9.08 11.0356C9.16 11.0656 9.25 11.0756 9.33 11.0756C9.64 11.0756 9.93 10.8853 10.04 10.5747C10.18 10.194 9.98 9.7632 9.59 9.62293Z" fill="#171717"/>
<path d="M3.63 13.8208C5.49 14.0311 7.32 14.462 9.08 15.0931C9.16 15.1232 9.25 15.1332 9.33 15.1332C9.64 15.1332 9.93 14.9428 10.04 14.6323C10.18 14.2415 9.98 13.8107 9.59 13.6705C7.72 12.9992 5.78 12.5484 3.8 12.318C3.39 12.2679 3.02 12.5684 2.97 12.9792C2.92 13.4 3.22 13.7707 3.63 13.8208Z" fill="#171717"/>
<path d="M20.44 4.46332C18.46 4.69375 16.51 5.14459 14.64 5.81584C14.25 5.9561 14.05 6.3869 14.19 6.77763C14.3 7.08821 14.59 7.27856 14.9 7.27856C14.98 7.27856 15.07 7.26855 15.15 7.23849C16.91 6.60731 18.75 6.17651 20.61 5.96612C21.02 5.91603 21.32 5.54533 21.27 5.13457C21.22 4.71379 20.85 4.42324 20.44 4.46332Z" fill="#171717"/>
<path d="M21.06 18.1789L18 17.4976V12.4081C18.03 12.0475 17.98 11.6868 17.86 11.3461C17.74 11.0055 17.55 10.6949 17.31 10.4244C17.06 10.1539 16.77 9.94353 16.43 9.80327C15.76 9.51273 14.99 9.51273 14.33 9.80327C14 9.94353 13.7 10.1539 13.45 10.4244C13.2 10.6949 13.01 11.0055 12.9 11.3461C12.78 11.6868 12.73 12.0475 12.76 12.358V20.0824L12.46 19.862C12.02 19.5314 11.47 19.3611 10.92 19.4012C10.37 19.4412 9.85 19.6717 9.46 20.0724C9.07 20.4631 8.84 20.9841 8.8 21.5351C8.77 22.0862 8.93 22.6372 9.26 23.068L9.73 23.6992C9.98 24.0298 10.45 24.0999 10.78 23.8494C11.11 23.599 11.18 23.1281 10.93 22.7975L10.45 22.1563C10.33 22.006 10.28 21.8157 10.29 21.6253C10.3 21.4349 10.38 21.2546 10.52 21.1244C10.65 20.9941 10.83 20.904 11.02 20.8939C11.2 20.8839 11.4 20.934 11.55 21.0542L13.05 22.1663C13.28 22.3366 13.58 22.3567 13.83 22.2364C14.08 22.1062 14.24 21.8457 14.24 21.5652V12.2979C14.23 12.1476 14.25 11.9873 14.3 11.8371C14.35 11.6968 14.43 11.5565 14.54 11.4463C14.65 11.3361 14.77 11.246 14.92 11.1758C15.21 11.0556 15.54 11.0556 15.82 11.1758C15.96 11.2359 16.09 11.3261 16.19 11.4463C16.29 11.5666 16.38 11.6968 16.43 11.8471C16.48 11.9873 16.5 12.1476 16.49 12.358V18.1087C16.49 18.4594 16.73 18.77 17.08 18.8401L20.73 19.6516C21.27 19.7718 21.74 20.0824 22.06 20.5233C22.38 20.9641 22.53 21.5151 22.48 22.0561L22.38 23.1782C22.34 23.589 22.65 23.9597 23.06 23.9897C23.08 23.9897 23.11 23.9897 23.13 23.9897C23.51 23.9897 23.84 23.6992 23.88 23.3084L23.98 22.1863C24.06 21.2747 23.81 20.363 23.27 19.6316C22.74 18.9002 21.95 18.3793 21.06 18.1789Z" fill="#171717"/>
</svg>
