<svg width="24" height="24" viewBox="0 0 24 24" fill="none" xmlns="http://www.w3.org/2000/svg">
<g clip-path="url(#clip0_2862_16105)">
<path d="M23.81 1.3899C23.69 1.1099 23.51 0.849902 23.28 0.629902C23.05 0.419902 22.78 0.259902 22.49 0.149902C22.2 0.0499023 21.89 0.00990234 21.59 0.0299023C17.22 0.289902 13.56 1.6099 12.02 3.3199C10.66 1.6999 7.41 0.289902 2.39 0.0299023C2.08 0.00990234 1.78 0.0499023 1.49 0.159902C1.2 0.259902 0.94 0.419902 0.71 0.639902C0.49 0.849902 0.31 1.0999 0.19 1.3899C0.06 1.6699 0 1.9699 0 2.2799V15.6299C0 16.2099 0.21 16.7599 0.61 17.1799C1.01 17.5999 1.54 17.8499 2.14 17.8799C4.11 17.9399 6.05 18.2799 7.93 18.8999C8.01 18.9299 8.09 18.9399 8.17 18.9399C8.48 18.9399 8.78 18.7399 8.88 18.4299C9.01 18.0399 8.8 17.6099 8.4 17.4799C6.39 16.8099 4.3 16.4399 2.2 16.3799C2.01 16.3699 1.83 16.2899 1.7 16.1499C1.57 16.0099 1.5 15.8299 1.5 15.6299V2.2699C1.5 2.1699 1.52 2.0699 1.56 1.9699C1.6 1.8699 1.66 1.7899 1.73 1.7199C1.81 1.6599 1.9 1.5999 2 1.5699C2.1 1.5299 2.2 1.5199 2.31 1.5299C8.55 1.8499 11.25 4.0499 11.25 5.0899V8.9799C11.25 9.3899 11.59 9.7299 12 9.7299C12.41 9.7299 12.75 9.3899 12.75 8.9799V5.0899C12.75 4.0599 15.9 1.8799 21.7 1.5399C21.8 1.5299 21.91 1.5399 22 1.5799C22.1 1.6099 22.19 1.6699 22.26 1.7399C22.34 1.8099 22.4 1.8999 22.44 1.9899C22.48 2.0799 22.5 2.1799 22.5 2.2999V14.8999C22.5 15.3099 22.84 15.6499 23.25 15.6499C23.66 15.6499 24 15.3099 24 14.8999V2.2899C24 1.9799 23.94 1.6699 23.81 1.3899Z" fill="#171717"/>
<path d="M9.59 5.8199C7.74 5.1499 5.8 4.6999 3.85 4.4799C3.43 4.4399 3.06 4.7299 3.02 5.1399C2.97 5.5499 3.27 5.9299 3.68 5.9699C5.52 6.1699 7.34 6.5999 9.08 7.2299C9.16 7.2599 9.25 7.2699 9.34 7.2699C9.65 7.2699 9.93 7.0799 10.05 6.7799C10.18 6.3899 9.98 5.9599 9.59 5.8199Z" fill="#171717"/>
<path d="M20.39 8.2999C20 8.3399 19.64 8.3899 19.27 8.4599C18.86 8.5299 18.59 8.9199 18.66 9.3299C18.72 9.6999 19.04 9.9499 19.4 9.9499C19.44 9.9499 19.48 9.9499 19.53 9.9399C19.86 9.8799 20.2 9.8299 20.55 9.7999C20.96 9.7599 21.26 9.3899 21.22 8.9699C21.18 8.5499 20.81 8.2499 20.39 8.2999Z" fill="#171717"/>
<path d="M9.59 9.6299C7.73 8.9699 5.8 8.5199 3.85 8.2999C3.43 8.2499 3.06 8.5499 3.02 8.9599C2.97 9.3699 3.27 9.7499 3.68 9.7899C5.52 9.9999 7.34 10.4199 9.08 11.0399C9.16 11.0699 9.25 11.0799 9.33 11.0799C9.64 11.0799 9.93 10.8899 10.04 10.5799C10.18 10.1999 9.98 9.7699 9.59 9.6299Z" fill="#171717"/>
<path d="M3.63 13.8199C5.49 14.0299 7.32 14.4599 9.08 15.0899C9.16 15.1199 9.25 15.1299 9.33 15.1299C9.64 15.1299 9.93 14.9399 10.04 14.6299C10.18 14.2399 9.98 13.8099 9.59 13.6699C7.72 12.9999 5.78 12.5499 3.8 12.3199C3.39 12.2699 3.02 12.5699 2.97 12.9799C2.92 13.3999 3.22 13.7699 3.63 13.8199Z" fill="#171717"/>
<path d="M20.44 4.4799C18.46 4.7099 16.51 5.1599 14.64 5.8299C14.25 5.9699 14.05 6.3999 14.19 6.7899C14.3 7.0999 14.59 7.2899 14.9 7.2899C14.98 7.2899 15.07 7.2799 15.15 7.2499C16.91 6.6199 18.75 6.1899 20.61 5.9799C21.02 5.9299 21.32 5.5599 21.27 5.1499C21.22 4.7299 20.85 4.4399 20.44 4.4799Z" fill="#171717"/>
<path d="M21.06 18.1699L18 17.4899V12.4099C18.03 12.0499 17.98 11.6899 17.86 11.3499C17.74 11.0099 17.55 10.6999 17.31 10.4299C17.06 10.1599 16.77 9.9499 16.43 9.8099C15.76 9.5199 14.99 9.5199 14.33 9.8099C14 9.9499 13.7 10.1599 13.45 10.4299C13.2 10.6999 13.01 11.0099 12.9 11.3499C12.78 11.6899 12.73 12.0499 12.76 12.3599V20.0699L12.46 19.8499C12.02 19.5199 11.47 19.3499 10.92 19.3899C10.37 19.4299 9.85 19.6599 9.46 20.0599C9.07 20.4499 8.84 20.9699 8.8 21.5199C8.77 22.0699 8.93 22.6199 9.26 23.0499L9.73 23.6799C9.98 24.0099 10.45 24.0799 10.78 23.8299C11.11 23.5799 11.18 23.1099 10.93 22.7799L10.45 22.1399C10.33 21.9899 10.28 21.7999 10.29 21.6099C10.3 21.4199 10.38 21.2399 10.52 21.1099C10.65 20.9799 10.83 20.8899 11.02 20.8799C11.2 20.8699 11.4 20.9199 11.55 21.0399L13.05 22.1499C13.28 22.3199 13.58 22.3399 13.83 22.2199C14.08 22.0899 14.24 21.8299 14.24 21.5499V12.2999C14.23 12.1499 14.25 11.9899 14.3 11.8399C14.35 11.6999 14.43 11.5599 14.54 11.4499C14.65 11.3399 14.77 11.2499 14.92 11.1799C15.21 11.0599 15.54 11.0599 15.82 11.1799C15.96 11.2399 16.09 11.3299 16.19 11.4499C16.29 11.5699 16.38 11.6999 16.43 11.8499C16.48 11.9899 16.5 12.1499 16.49 12.3599V18.0999C16.49 18.4499 16.73 18.7599 17.08 18.8299L20.73 19.6399C21.27 19.7599 21.74 20.0699 22.06 20.5099C22.38 20.9499 22.53 21.4999 22.48 22.0399L22.38 23.1599C22.34 23.5699 22.65 23.9399 23.06 23.9699C23.08 23.9699 23.11 23.9699 23.13 23.9699C23.51 23.9699 23.84 23.6799 23.88 23.2899L23.98 22.1699C24.06 21.2599 23.81 20.3499 23.27 19.6199C22.74 18.8899 21.95 18.3699 21.06 18.1699Z" fill="#171717"/>
</g>
<defs>
<clipPath id="clip0_2862_16105">
<rect width="24" height="24" fill="white"/>
</clipPath>
</defs>
</svg>
