<svg width="24" height="24" viewBox="0 0 24 24" fill="none" xmlns="http://www.w3.org/2000/svg">
<path d="M3.93333 9.06667C3.15536 9.06667 2.40926 9.37571 1.85915 9.92582C1.30905 10.4759 1 11.222 1 12V14.9333C1 15.7113 1.30905 16.4574 1.85915 17.0075C2.40926 17.5576 3.15536 17.8667 3.93333 17.8667H4.66667C4.86116 17.8667 5.04769 17.7894 5.18521 17.6519C5.32274 17.5144 5.4 17.3278 5.4 17.1333V9.8C5.4 9.60551 5.32274 9.41898 5.18521 9.28146C5.04769 9.14393 4.86116 9.06667 4.66667 9.06667H3.93333ZM3.93333 9.06667C3.93333 6.92725 4.78321 4.87547 6.29601 3.36267C7.8088 1.84988 9.86059 1 12 1C14.1394 1 16.1912 1.84988 17.704 3.36267C19.2168 4.87547 20.0667 6.92725 20.0667 9.06667M20.0667 17.8667H19.3333C19.1388 17.8667 18.9523 17.7894 18.8148 17.6519C18.6773 17.5144 18.6 17.3278 18.6 17.1333V9.8C18.6 9.60551 18.6773 9.41898 18.8148 9.28146C18.9523 9.14393 19.1388 9.06667 19.3333 9.06667H20.0667M20.0667 17.8667C20.8446 17.8667 21.5907 17.5576 22.1408 17.0075C22.691 16.4574 23 15.7113 23 14.9333V12C23 11.222 22.691 10.4759 22.1408 9.92582C21.5907 9.37571 20.8446 9.06667 20.0667 9.06667M20.0667 17.8667V18.6C20.0667 19.378 19.7576 20.1241 19.2075 20.6742C18.6574 21.2243 17.9113 21.5333 17.1333 21.5333H14.9333M14.9333 21.5333C14.9333 21.1443 14.7788 20.7713 14.5038 20.4962C14.2287 20.2212 13.8557 20.0667 13.4667 20.0667H12C11.611 20.0667 11.238 20.2212 10.9629 20.4962C10.6879 20.7713 10.5333 21.1443 10.5333 21.5333C10.5333 21.9223 10.6879 22.2954 10.9629 22.5704C11.238 22.8455 11.611 23 12 23H13.4667C13.8557 23 14.2287 22.8455 14.5038 22.5704C14.7788 22.2954 14.9333 21.9223 14.9333 21.5333ZM9.06667 15.3655C9.86876 16.0964 10.9148 16.5016 12 16.5016C13.0852 16.5016 14.1312 16.0964 14.9333 15.3655M9.06667 10.0298V11.3126M14.9333 10.0298V11.3126" stroke="#1D2127" stroke-width="1.5" stroke-linecap="round" stroke-linejoin="round"/>
</svg>
