<svg width="24" height="24" viewBox="0 0 24 24" fill="none" xmlns="http://www.w3.org/2000/svg">
<path fill-rule="evenodd" clip-rule="evenodd" d="M11.564 1.00909C9.86674 1.09412 8.21197 1.7179 6.88061 2.77456C6.43454 3.12859 5.9689 3.58648 5.61641 4.01772C4.64502 5.20609 4.03227 6.60747 3.82325 8.11866C3.80755 8.23217 3.79211 8.37266 3.77435 8.56345L3.76859 8.62543L3.69232 8.6417C3.31258 8.72276 2.89617 8.89837 2.55604 9.1209C2.07336 9.43667 1.68085 9.86621 1.40115 10.3847C1.24031 10.6829 1.10206 11.0848 1.04826 11.4105C1.00242 11.6881 1.00471 11.5967 1.0012 13.2889C0.997888 14.8908 0.999542 14.9986 1.03086 15.2249C1.16589 16.2007 1.71885 17.076 2.54284 17.6184C2.99804 17.918 3.4726 18.0926 4.02951 18.1653C4.17665 18.1845 5.15878 18.1942 5.28747 18.1777C5.91401 18.0973 6.3949 17.6223 6.48393 16.9957C6.50345 16.8584 6.50347 9.9021 6.48395 9.75377C6.4055 9.15759 5.94032 8.67839 5.34465 8.58013C5.30352 8.57334 5.24699 8.56772 5.21902 8.56763C5.18216 8.56753 5.16678 8.56386 5.16313 8.55436C5.15699 8.53835 5.18792 8.28559 5.21807 8.10546C5.40729 6.9749 5.89105 5.88531 6.60121 4.99015C7.60119 3.72969 8.99358 2.86171 10.5524 2.52708C11.4862 2.32661 12.5052 2.32663 13.4378 2.52712C14.9395 2.84995 16.2793 3.66167 17.2781 4.85375C17.9799 5.69135 18.4869 6.73318 18.7151 7.80651C18.7709 8.06886 18.8389 8.52342 18.8271 8.55436C18.8234 8.56386 18.808 8.56753 18.7712 8.56763C18.6225 8.56808 18.3994 8.63033 18.2321 8.71807C17.8367 8.92534 17.5641 9.31442 17.5062 9.75377C17.4867 9.9021 17.4867 16.8584 17.5063 16.9957C17.5718 17.4567 17.8432 17.8357 18.2578 18.0451C18.4147 18.1243 18.6586 18.1862 18.814 18.1862H18.8682L18.8624 18.2927C18.8287 18.9202 18.5257 19.4791 18.015 19.8558C17.8214 19.9986 17.5776 20.1144 17.3348 20.179C17.0898 20.2441 17.0645 20.2455 16.1336 20.2455H15.3143L15.2897 20.1817C15.2761 20.1466 15.2396 20.0674 15.2085 20.0058C14.9075 19.409 14.3491 19.0062 13.6665 18.8935C13.5849 18.88 13.4802 18.8778 12.7692 18.8746C12.1967 18.8721 11.9264 18.8741 11.833 18.8815C10.972 18.9501 10.2463 19.5467 10.0079 20.3819C9.95268 20.5753 9.93327 20.747 9.9389 20.9923C9.94651 21.3241 10.0028 21.5557 10.1479 21.8516C10.4566 22.4814 11.0586 22.9043 11.7639 22.9869C11.8557 22.9976 12.0227 23 12.6781 23C13.1569 23 13.5166 22.9964 13.571 22.991C13.874 22.9612 14.212 22.8462 14.4618 22.6878C14.7255 22.5207 14.9635 22.2812 15.1266 22.0189C15.1747 21.9417 15.2578 21.7746 15.2899 21.691L15.3143 21.6272L16.1024 21.627C16.8815 21.6269 17.054 21.6222 17.26 21.5956C18.0145 21.4983 18.7389 21.1333 19.2701 20.583C19.7972 20.0371 20.1174 19.3718 20.2156 18.6188C20.2267 18.5335 20.2457 18.239 20.2464 18.1415C20.2466 18.1199 20.251 18.1178 20.3336 18.0993C20.6181 18.0358 20.976 17.8964 21.243 17.7454C22.1768 17.217 22.812 16.2832 22.96 15.2211C22.9677 15.1658 22.9765 15.0795 22.9795 15.0294C22.9826 14.9793 22.9885 14.9362 22.9926 14.9337C22.9966 14.9311 23 14.2242 23 13.3626C23 12.3206 22.9971 11.798 22.9912 11.8016C22.9858 11.8049 22.9824 11.7907 22.9824 11.7647C22.9824 11.7414 22.9764 11.6708 22.969 11.6079C22.8833 10.8748 22.5722 10.1969 22.0784 9.66752C21.7681 9.33489 21.4363 9.08989 21.0364 8.89804C20.8036 8.78633 20.5509 8.69796 20.3169 8.64644C20.2661 8.63525 20.2239 8.62576 20.2231 8.62533C20.2222 8.62491 20.215 8.55528 20.2071 8.47062C20.0536 6.83399 19.4221 5.30021 18.3738 4.01772C18.0219 3.58727 17.5532 3.12629 17.1105 2.77539C15.8552 1.78034 14.3161 1.16734 12.7296 1.03049C12.3751 0.999913 11.9157 0.991473 11.564 1.00909ZM9.10092 9.47879C8.89983 9.52196 8.72811 9.65572 8.6313 9.84459C8.55819 9.98721 8.55991 9.96523 8.55991 10.7544C8.55991 11.5453 8.55789 11.5201 8.63303 11.6685C8.6669 11.7355 8.68833 11.7635 8.76193 11.8372C8.85909 11.9345 8.93282 11.9798 9.05694 12.0186C9.11288 12.036 9.14163 12.0391 9.24607 12.0391C9.3878 12.0391 9.4495 12.0245 9.57155 11.9619C9.62704 11.9334 9.66056 11.907 9.72999 11.8373C9.80288 11.764 9.82507 11.735 9.85889 11.6685C9.93425 11.5204 9.93223 11.5457 9.93223 10.7544C9.93223 9.96531 9.93395 9.9873 9.86089 9.84459C9.78599 9.69829 9.65066 9.57181 9.50623 9.51309C9.393 9.46707 9.22266 9.45265 9.10092 9.47879ZM14.599 9.47879C14.3979 9.52196 14.2262 9.65572 14.1294 9.84459C14.0562 9.98721 14.058 9.96523 14.058 10.7544C14.058 11.5453 14.0559 11.5201 14.1311 11.6685C14.165 11.7355 14.1864 11.7635 14.26 11.8372C14.3571 11.9345 14.4309 11.9798 14.555 12.0186C14.6109 12.036 14.6397 12.0391 14.7441 12.0391C14.8859 12.0391 14.9475 12.0245 15.0696 11.9619C15.1251 11.9334 15.1586 11.907 15.228 11.8373C15.3009 11.764 15.3231 11.735 15.3569 11.6685C15.4323 11.5204 15.4303 11.5457 15.4303 10.7544C15.4303 9.96531 15.432 9.9873 15.3589 9.84459C15.284 9.69829 15.1487 9.57181 15.0043 9.51309C14.8911 9.46707 14.7207 9.45265 14.599 9.47879ZM4.24944 9.94635C4.07967 9.96109 3.84876 10.0156 3.69083 10.0781C3.10386 10.3106 2.66625 10.7755 2.47428 11.3704C2.43544 11.4907 2.4193 11.5592 2.39539 11.7048C2.37684 11.8177 2.37656 11.8378 2.37346 13.2668C2.37144 14.1931 2.37355 14.7668 2.37933 14.8597C2.38947 15.0228 2.40533 15.1263 2.44239 15.271C2.50988 15.5346 2.65231 15.8198 2.82375 16.0345C2.89141 16.1193 3.05588 16.2845 3.14092 16.3531C3.37387 16.5411 3.67046 16.6866 3.95914 16.7545C4.16653 16.8033 4.20844 16.8066 4.68268 16.811L5.12473 16.8151V13.3777V9.94033L4.70468 9.94181C4.47365 9.94263 4.26879 9.94467 4.24944 9.94635ZM18.8655 13.377V16.8151L19.3075 16.811C19.7816 16.8066 19.8233 16.8034 20.031 16.7546C20.3174 16.6874 20.6176 16.5401 20.8493 16.3531C20.9343 16.2845 21.0988 16.1193 21.1664 16.0345C21.3379 15.8198 21.4803 15.5346 21.5478 15.271C21.5853 15.1244 21.6009 15.022 21.6108 14.8553C21.6165 14.7607 21.6187 14.1752 21.6167 13.2624C21.6136 11.8378 21.6133 11.8177 21.5948 11.7048C21.5709 11.5592 21.5548 11.4907 21.5159 11.3704C21.2779 10.6327 20.6651 10.1029 19.8903 9.96497C19.7936 9.94776 19.7461 9.94588 19.3251 9.94257L18.8655 9.93896V13.377ZM1.00329 13.3725C1.00329 14.2364 1.00432 14.5899 1.00559 14.1579C1.00684 13.7259 1.00684 13.019 1.00559 12.587C1.00432 12.155 1.00329 12.5085 1.00329 13.3725ZM9.1449 14.4733C8.96653 14.4997 8.80783 14.5952 8.69527 14.7439C8.6004 14.8692 8.56094 14.9901 8.56128 15.1545C8.56165 15.3421 8.61571 15.4851 8.73555 15.6156C8.77958 15.6635 8.91845 15.7848 9.03494 15.8772C10.2989 16.8787 11.9838 17.1731 13.5126 16.6596C14.1119 16.4583 14.6513 16.1488 15.1312 15.7308C15.3063 15.5783 15.3718 15.4832 15.413 15.3217C15.4345 15.2373 15.4347 15.0709 15.4134 14.9873C15.3574 14.7679 15.178 14.5724 14.9698 14.5041C14.7494 14.4317 14.5096 14.4679 14.3395 14.5992C14.3201 14.6141 14.2607 14.6635 14.2075 14.7088C13.6842 15.1549 13.085 15.4192 12.3954 15.508C12.2995 15.5204 12.2107 15.5239 11.9951 15.5239C11.7795 15.5239 11.6907 15.5204 11.5948 15.508C10.8972 15.4181 10.3076 15.1563 9.76948 14.6973C9.60478 14.5569 9.54229 14.5197 9.41514 14.4866C9.34897 14.4693 9.21582 14.4628 9.1449 14.4733ZM11.8324 20.2709C11.6706 20.3118 11.5312 20.4066 11.4369 20.5397C11.3458 20.6683 11.3139 20.771 11.3139 20.9363C11.3139 21.0712 11.332 21.1481 11.3903 21.2614C11.4434 21.3646 11.5743 21.4939 11.6784 21.546C11.7195 21.5666 11.7848 21.5922 11.8236 21.603C11.8939 21.6226 11.8942 21.6226 12.6813 21.6227C13.4081 21.6227 13.4733 21.6215 13.5302 21.6071C13.617 21.5849 13.7406 21.5217 13.804 21.4669C13.9659 21.327 14.0412 21.1761 14.0511 20.9711C14.0615 20.757 13.9915 20.5844 13.8347 20.4376C13.7514 20.3597 13.6917 20.3228 13.5896 20.2863L13.5126 20.2587L12.7032 20.257C11.9547 20.2555 11.8893 20.2565 11.8324 20.2709Z" fill="#1D2127"/>
</svg>
