<svg width="24" height="24" viewBox="0 0 24 24" fill="none" xmlns="http://www.w3.org/2000/svg">
<path opacity="0.2" d="M8.30002 2.49998C7.10002 1.49998 5.30002 1.59998 4.30002 2.89998C4.10002 3.19998 3.80002 3.69998 3.30002 4.29998C1.60002 6.49998 1.60002 9.59998 3.30002 11.8C4.60002 13.4 5.90002 15 7.50002 16.5C9.10002 18 10.6 19.4 12.2 20.7C14.4 22.4 17.5 22.4 19.7 20.7C20.4 20.2 20.8 19.9 21.2 19.6C22.4 18.7 22.6 17 21.6 15.8C20.8 14.9 20 14 19.1 13.1C18.4 12.4 17.3 12.4 16.6 13C16.4 13.2 16.1 13.4 15.6 13.8C13.1 12.3 11.6 10.8 10.2 8.39998C10.7 7.89998 10.9 7.59998 11.1 7.39998C11.7 6.69998 11.7 5.59998 11 4.89998C10 4.09998 9.20002 3.29998 8.30002 2.49998Z" fill="#1D2127"/>
<path d="M15.9 22.9C14.4 22.9 12.9 22.4 11.6 21.4C9.99998 20.1 8.39998 18.8 6.79998 17.2C5.19998 15.6 3.79998 14 2.59998 12.4C0.599976 9.90003 0.599976 6.30003 2.59998 3.80003C3.09998 3.20003 3.39998 2.80003 3.59998 2.50003C4.19998 1.70003 4.99998 1.20003 5.99998 1.00003C6.99998 0.900029 7.99998 1.20003 8.79998 1.80003C9.69998 2.50003 10.5 3.30003 11.3 4.10003L11.4 4.20003C12.4 5.10003 12.5 6.80003 11.6 7.90003C11.5 8.00003 11.4 8.20003 11.1 8.40003C12.3 10.3 13.5 11.5 15.4 12.7C15.6 12.5 15.8 12.4 15.9 12.3C17 11.4 18.6 11.5 19.6 12.5L19.8 12.7C20.6 13.5 21.4 14.3 22.1 15.2C22.8 16 23.1 17 23 18C22.9 19 22.4 19.8 21.6 20.3L21.5 20.4C21.2 20.6 20.8 20.9 20.2 21.4C18.9 22.4 17.4 22.9 15.9 22.9ZM6.39998 2.70003C6.29998 2.70003 6.19998 2.70003 6.19998 2.70003C5.69998 2.80003 5.29998 3.10003 4.99998 3.50003C4.69998 3.80003 4.39998 4.30003 3.89998 4.90003C2.39998 6.80003 2.39998 9.50003 3.89998 11.3C5.09998 12.8 6.49998 14.4 7.99998 16C9.49998 17.5 11.1 18.9 12.7 20.1C14.6 21.6 17.2 21.6 19.1 20.1C19.7 19.6 20.1 19.3 20.5 19.1L20.6 19C21 18.7 21.2 18.3 21.3 17.8C21.4 17.3 21.2 16.8 20.9 16.4C20.2 15.6 19.4 14.8 18.7 14L18.5 13.8C18.2 13.4 17.6 13.4 17.1 13.7C16.9 13.9 16.7 14.1 16.2 14.5C15.9 14.8 15.5 14.8 15.2 14.6C12.6 13 11 11.4 9.39997 8.80003C9.19998 8.50003 9.29998 8.10003 9.49998 7.80003C9.99998 7.30003 10.2 7.10003 10.3 6.90003C10.6 6.50003 10.6 5.90003 10.2 5.60003L10.1 5.50003C9.39998 4.70003 8.59998 3.90003 7.69998 3.20003C7.39998 2.90003 6.89998 2.70003 6.39998 2.70003Z" fill="#1D2127"/>
</svg>
