<svg width="24" height="24" viewBox="0 0 24 24" fill="none" xmlns="http://www.w3.org/2000/svg">
<path opacity="0.2" d="M8.2999 2.49998C7.0999 1.49998 5.2999 1.59998 4.2999 2.89998C4.0999 3.19998 3.7999 3.69998 3.2999 4.29998C1.5999 6.49998 1.5999 9.59998 3.2999 11.8C4.5999 13.4 5.8999 15 7.4999 16.5C9.0999 18 10.5999 19.4 12.1999 20.7C14.3999 22.4 17.4999 22.4 19.6999 20.7C20.3999 20.2 20.7999 19.9 21.1999 19.6C22.3999 18.7 22.5999 17 21.5999 15.8C20.7999 14.9 19.9999 14 19.0999 13.1C18.3999 12.4 17.2999 12.4 16.5999 13C16.3999 13.2 16.0999 13.4 15.5999 13.8C13.0999 12.3 11.5999 10.8 10.1999 8.39998C10.6999 7.89998 10.8999 7.59998 11.0999 7.39998C11.6999 6.69998 11.6999 5.59998 10.9999 4.89998C9.9999 4.09998 9.1999 3.29998 8.2999 2.49998Z" fill="#101C2D"/>
<path d="M15.9001 22.9C14.4001 22.9 12.9001 22.4 11.6001 21.4C10.0001 20.1 8.4001 18.8 6.8001 17.2C5.2001 15.6 3.8001 14 2.6001 12.4C0.600098 9.90003 0.600098 6.30003 2.6001 3.80003C3.1001 3.20003 3.4001 2.80003 3.6001 2.50003C4.2001 1.70003 5.0001 1.20003 6.0001 1.00003C7.0001 0.900029 8.0001 1.20003 8.8001 1.80003C9.7001 2.50003 10.5001 3.30003 11.3001 4.10003L11.4001 4.20003C12.4001 5.10003 12.5001 6.80003 11.6001 7.90003C11.5001 8.00003 11.4001 8.20003 11.1001 8.40003C12.3001 10.3 13.5001 11.5 15.4001 12.7C15.6001 12.5 15.8001 12.4 15.9001 12.3C17.0001 11.4 18.6001 11.5 19.6001 12.5L19.8001 12.7C20.6001 13.5 21.4001 14.3 22.1001 15.2C22.8001 16 23.1001 17 23.0001 18C22.9001 19 22.4001 19.8 21.6001 20.3L21.5001 20.4C21.2001 20.6 20.8001 20.9 20.2001 21.4C18.9001 22.4 17.4001 22.9 15.9001 22.9ZM6.4001 2.70003C6.3001 2.70003 6.2001 2.70003 6.2001 2.70003C5.7001 2.80003 5.3001 3.10003 5.0001 3.50003C4.7001 3.80003 4.4001 4.30003 3.9001 4.90003C2.4001 6.80003 2.4001 9.50003 3.9001 11.3C5.1001 12.8 6.5001 14.4 8.0001 16C9.5001 17.5 11.1001 18.9 12.7001 20.1C14.6001 21.6 17.2001 21.6 19.1001 20.1C19.7001 19.6 20.1001 19.3 20.5001 19.1L20.6001 19C21.0001 18.7 21.2001 18.3 21.3001 17.8C21.4001 17.3 21.2001 16.8 20.9001 16.4C20.2001 15.6 19.4001 14.8 18.7001 14L18.5001 13.8C18.2001 13.4 17.6001 13.4 17.1001 13.7C16.9001 13.9 16.7001 14.1 16.2001 14.5C15.9001 14.8 15.5001 14.8 15.2001 14.6C12.6001 13 11.0001 11.4 9.4001 8.80003C9.2001 8.50003 9.3001 8.10003 9.5001 7.80003C10.0001 7.30003 10.2001 7.10003 10.3001 6.90003C10.6001 6.50003 10.6001 5.90003 10.2001 5.60003L10.1001 5.50003C9.4001 4.70003 8.6001 3.90003 7.7001 3.20003C7.4001 2.90003 6.9001 2.70003 6.4001 2.70003Z" fill="#101C2D"/>
</svg>
