<svg width="24" height="24" viewBox="0 0 24 24" fill="none" xmlns="http://www.w3.org/2000/svg">
<path opacity="0.2" d="M12.0002 22.2999C17.7002 22.2999 22.3002 17.7 22.3002 12C22.3002 6.29995 17.7002 1.69995 12.0002 1.69995C6.3002 1.69995 1.7002 6.29995 1.7002 12C1.7002 17.7 6.3002 22.2999 12.0002 22.2999ZM17.5002 7.79995C18.1002 8.29995 18.2002 9.19995 17.7002 9.79995C17.2002 10.4 16.8002 10.9 16.3002 11.4C16.1002 11.7 15.8002 11.9 15.6002 12.2C15.2002 11.8 15.1002 11.7 14.9002 11.6C14.8002 11.5 14.6002 11.4 14.3002 11C12.9002 11.8 12.0002 12.7 11.2002 14.1C11.5002 14.5 11.6002 14.6 11.8002 14.7C11.9002 14.8 12.0002 15 12.4002 15.4C12.1002 15.6 11.8002 15.9 11.6002 16.2C11.1002 16.7 10.6002 17.2 10.0002 17.6C9.4002 18.1 8.5002 18 8.1002 17.4C8.0002 17.3 8.0002 17.3 7.9002 17.2C7.8002 17 7.6002 16.8 7.3002 16.4C6.3002 15.2 6.3002 13.3 7.3002 12.1C8.0002 11.2 8.8002 10.3 9.7002 9.39995C10.6002 8.49995 11.5002 7.79995 12.4002 6.99995C13.6002 5.99995 15.5002 5.99995 16.7002 6.99995C17.1002 7.29995 17.3002 7.39995 17.5002 7.59995C17.3002 7.69995 17.4002 7.79995 17.5002 7.79995Z" fill="#101C2D"/>
<path d="M11.9999 23.1C5.8999 23.1 0.899902 18.1 0.899902 12C0.899902 5.90002 5.8999 0.900024 11.9999 0.900024C18.0999 0.900024 23.0999 5.90002 23.0999 12C23.0999 18.1 18.0999 23.1 11.9999 23.1ZM11.9999 2.60002C6.7999 2.60002 2.5999 6.80002 2.5999 12C2.5999 17.2 6.7999 21.4 11.9999 21.4C17.1999 21.4 21.3999 17.2 21.3999 12C21.3999 6.80002 17.1999 2.60002 11.9999 2.60002Z" fill="#101C2D"/>
<path d="M8.89988 18.9C8.79988 18.9 8.69988 18.9 8.59988 18.9C7.99988 18.8 7.49988 18.5 7.19988 18L6.99988 17.8C6.89988 17.6 6.69988 17.4 6.39988 17.1C5.19988 15.5 5.19988 13.3 6.39988 11.7C7.19988 10.8 7.99988 9.80002 8.89988 8.90002C9.79988 8.00002 10.7999 7.10002 11.6999 6.50002C13.2999 5.20002 15.4999 5.20002 17.0999 6.50002C17.3999 6.80002 17.6999 6.90002 17.7999 7.10002H17.9999C18.4999 7.50002 18.7999 8.00002 18.8999 8.60002C18.9999 9.20002 18.7999 9.90002 18.3999 10.3C17.8999 10.9 17.3999 11.4 16.8999 11.9C16.6999 12.2 16.3999 12.4 16.1999 12.7C15.9999 12.9 15.7999 13 15.5999 13C15.3999 13 15.0999 12.9 14.9999 12.8C14.5999 12.5 14.4999 12.4 14.3999 12.3C14.2999 12.3 14.2999 12.2 14.1999 12.1C13.3999 12.7 12.7999 13.2 12.1999 14.1C12.2999 14.2 12.2999 14.2 12.3999 14.3C12.4999 14.4 12.5999 14.6 12.8999 14.9C13.0999 15.1 13.0999 15.3 13.0999 15.5C13.0999 15.7 12.9999 16 12.7999 16.1C12.4999 16.3 12.2999 16.6 11.9999 16.9C11.4999 17.4 10.8999 17.9 10.2999 18.4C9.89988 18.7 9.39988 18.9 8.89988 18.9ZM14.3999 7.20002C13.7999 7.20002 13.2999 7.40002 12.7999 7.80002C11.9999 8.50002 10.9999 9.30002 10.1999 10.1C9.29988 11 8.59988 11.9 7.89988 12.7C6.99988 13.7 6.99988 15 7.79988 16C8.09988 16.4 8.29988 16.6 8.39988 16.8L8.49988 17C8.59988 17.1 8.69988 17.2 8.79988 17.2C8.89988 17.2 9.09988 17.2 9.19988 17.1C9.69988 16.7 10.1999 16.2 10.6999 15.7C10.7999 15.6 10.8999 15.6 10.8999 15.5C10.8999 15.5 10.8999 15.4 10.7999 15.4C10.6999 15.3 10.5999 15.2 10.2999 14.8C9.99988 14.5 9.99988 14.1 10.1999 13.8C11.0999 12.3 12.0999 11.3 13.5999 10.4C13.8999 10.2 14.2999 10.2 14.5999 10.5C14.8999 10.8 15.0999 10.9 15.1999 11C15.1999 11 15.2999 11 15.2999 11.1C15.3999 11 15.3999 11 15.4999 10.9C15.9999 10.4 16.4999 9.90002 16.8999 9.30002C16.9999 9.20002 17.0999 9.00002 16.9999 8.90002C16.9999 8.80002 16.8999 8.70002 16.7999 8.60002L16.5999 8.50002C16.3999 8.40002 16.1999 8.20002 15.7999 7.90002C15.4999 7.40002 14.8999 7.20002 14.3999 7.20002Z" fill="#101C2D"/>
</svg>
