<svg width="24" height="24" viewBox="0 0 24 24" fill="none" xmlns="http://www.w3.org/2000/svg">
<path opacity="0.2" d="M7.5 9H2.5L3 4.5L12 3L21 4.5L21.5 9H16.5L15.5 7H8.5L7.5 9Z" fill="#0A0B0D"/>
<path fill-rule="evenodd" clip-rule="evenodd" d="M10.9791 2.00781C8.96663 2.06538 7.04783 2.27111 5.07871 2.64046C4.80688 2.69145 4.70027 2.71618 4.52907 2.76799C4.22497 2.86002 4.01125 2.94468 3.73671 3.08187C3.00227 3.44885 2.38608 3.97527 1.91294 4.63992C1.4597 5.27661 1.15658 6.03438 1.04935 6.79877C1.00689 7.10142 1.0001 7.2488 1 7.86923C0.999896 8.50971 1.00662 8.60834 1.06678 8.84917C1.27527 9.68388 1.95512 10.3335 2.79674 10.5023C3.02849 10.5487 2.97314 10.5476 4.92911 10.5476C6.87887 10.5476 6.83108 10.5486 7.05576 10.5034C7.2533 10.4637 7.41122 10.4093 7.60431 10.3143C8.28148 9.98142 8.7396 9.34052 8.84035 8.58517C8.84552 8.54645 8.85317 8.44547 8.85735 8.36077C8.86323 8.24144 8.86907 8.19518 8.88327 8.1553C8.9405 7.99455 9.08614 7.87843 9.25488 7.85904C9.35574 7.84744 14.6441 7.84744 14.745 7.85904C14.9137 7.87843 15.0593 7.99453 15.1166 8.1553C15.1307 8.19499 15.1366 8.24099 15.1422 8.35637C15.1509 8.53471 15.1621 8.62918 15.1909 8.76747C15.3723 9.63738 16.0693 10.3276 16.9441 10.5034C17.1687 10.5486 17.121 10.5476 19.0707 10.5476C21.0267 10.5476 20.9713 10.5487 21.2031 10.5023C22.0997 10.3225 22.8014 9.60453 22.965 8.69958C22.9747 8.64634 22.9851 8.56998 22.9881 8.52989C22.9912 8.48978 22.9971 8.45489 23.0012 8.45235C23.0054 8.44981 23.0087 8.18043 23.0087 7.85373C23.0087 7.45997 23.0057 7.26156 22.9999 7.26517C22.9945 7.26854 22.9911 7.25261 22.9911 7.22333C22.9911 7.19734 22.985 7.11097 22.9775 7.03141C22.8384 5.5543 22.0235 4.19784 20.7867 3.38454C20.2995 3.06419 19.8084 2.84841 19.2467 2.7079C19.0472 2.658 18.1468 2.49961 17.5659 2.41224C16.0261 2.18062 14.5762 2.05288 12.9679 2.00711C12.6232 1.99729 11.3308 1.99775 10.9791 2.00781ZM11.1243 3.803C9.22577 3.84906 7.2934 4.05339 5.42191 4.40598C5.17816 4.4519 5.11053 4.46813 4.96221 4.51628C4.49599 4.66761 4.07104 4.92888 3.71893 5.28068C3.17787 5.82126 2.85875 6.5257 2.80397 7.30037C2.79919 7.36813 2.7953 7.62949 2.79534 7.88117C2.79543 8.38771 2.79776 8.41495 2.84949 8.51199C2.88545 8.57945 2.97205 8.66626 3.03535 8.69828C3.13919 8.75083 3.02172 8.74775 4.92971 8.74786C6.50778 8.74796 6.68626 8.74658 6.72931 8.73393C6.80431 8.7119 6.87277 8.67132 6.92624 8.61718C7.02947 8.51267 7.0519 8.44826 7.06309 8.22416C7.07276 8.03034 7.08967 7.90981 7.12947 7.75101C7.20085 7.46626 7.33238 7.19194 7.51433 6.94837C7.59911 6.83487 7.81 6.61948 7.91671 6.53739C8.27675 6.26043 8.67872 6.10262 9.12231 6.06411C9.26114 6.05205 14.7393 6.05209 14.8775 6.06414C15.4005 6.10975 15.8804 6.32743 16.2536 6.68834C16.5605 6.98509 16.7706 7.35028 16.8743 7.7672C16.9104 7.91235 16.9276 8.03856 16.9366 8.22437C16.9475 8.44757 16.97 8.51237 17.0736 8.61718C17.1271 8.67132 17.1955 8.7119 17.2705 8.73393C17.3136 8.74658 17.492 8.74796 19.0701 8.74786C20.5604 8.74777 20.829 8.74588 20.8692 8.73518C21.0344 8.6912 21.1677 8.54568 21.1959 8.37839C21.2119 8.28352 21.2024 7.29257 21.1842 7.15517C21.1444 6.85585 21.091 6.63689 20.9965 6.38555C20.9515 6.26595 20.8458 6.04201 20.7845 5.93637C20.3644 5.21212 19.6743 4.682 18.8771 4.47111C18.6864 4.42066 17.9031 4.28152 17.2955 4.19017C15.793 3.9643 14.3537 3.83972 12.8139 3.80227C12.4176 3.79263 11.536 3.793 11.1243 3.803ZM1.00408 7.86357C1.00408 8.19269 1.00517 8.32605 1.00651 8.15992C1.00785 7.9938 1.00785 7.72452 1.0065 7.56152C1.00517 7.39853 1.00408 7.53445 1.00408 7.86357ZM4.50231 11.4496C4.29811 11.4692 4.12704 11.5475 3.97729 11.6897C3.82583 11.8335 3.73731 11.998 3.70533 12.195C3.69465 12.2608 3.69277 12.6889 3.69275 15.0645C3.69272 16.8421 3.69595 17.9117 3.70162 18.0081C3.77386 19.2371 4.2777 20.3608 5.1447 21.2264C5.99067 22.071 7.07704 22.5669 8.27751 22.6566C8.53471 22.6758 15.4651 22.6758 15.7223 22.6566C16.5846 22.5922 17.3677 22.3266 18.0851 21.8552C18.652 21.4827 19.1727 20.9546 19.5321 20.3873C19.9924 19.6608 20.25 18.859 20.2983 18.0024C20.3038 17.9032 20.3071 16.8177 20.3071 15.0588C20.307 12.0289 20.3097 12.1975 20.259 12.0488C20.1654 11.7742 19.9054 11.5349 19.6312 11.4712C19.4851 11.4373 19.3012 11.4394 19.1631 11.4766C18.9701 11.5286 18.7756 11.6722 18.6566 11.8506C18.5998 11.9356 18.5739 11.9907 18.541 12.0964L18.5163 12.1756L18.5112 15.0708C18.5084 16.6631 18.5037 17.9759 18.5007 17.988C18.4977 18.0001 18.4907 18.0535 18.4852 18.1068C18.4796 18.16 18.4634 18.263 18.4492 18.3356C18.2882 19.1595 17.8041 19.8822 17.0995 20.3505C16.6404 20.6557 16.123 20.8286 15.5597 20.8652C15.365 20.8779 8.63481 20.8779 8.44016 20.8652C7.97008 20.8347 7.5487 20.7145 7.13791 20.4937C6.71423 20.2661 6.33003 19.9214 6.04629 19.5145C5.76524 19.1114 5.56803 18.5893 5.51457 18.1068C5.50921 18.0584 5.50241 18.0069 5.49946 17.9924C5.49652 17.9778 5.49172 16.6631 5.48881 15.0708L5.48351 12.1756L5.45964 12.0995C5.42613 11.9929 5.39807 11.9328 5.34342 11.8506C5.2252 11.673 5.03045 11.5294 4.83579 11.4765C4.78338 11.4623 4.59072 11.437 4.57271 11.442C4.57029 11.4427 4.53861 11.4461 4.50231 11.4496ZM8.20271 12.797C7.83015 12.8225 7.4819 13.0246 7.27277 13.3366C7.1794 13.476 7.1203 13.6176 7.08346 13.7904C7.06092 13.8961 7.06093 14.16 7.08349 14.2656C7.1895 14.7618 7.55504 15.13 8.04871 15.2379C8.13797 15.2574 8.36135 15.2651 8.45477 15.2518C8.98149 15.1772 9.39583 14.7922 9.5067 14.2744C9.52941 14.1683 9.52945 13.888 9.50677 13.7816C9.4145 13.3486 9.10682 12.9988 8.69551 12.8592C8.59998 12.8268 8.49713 12.805 8.41391 12.7994C8.38003 12.7972 8.33845 12.7944 8.32151 12.7931C8.30457 12.7919 8.25111 12.7936 8.20271 12.797ZM11.9075 12.797C11.3646 12.8341 10.9085 13.2323 10.7899 13.7728C10.7702 13.8629 10.7625 14.0981 10.7763 14.1944C10.7977 14.3445 10.8565 14.5172 10.9279 14.6396C11.1249 14.977 11.4525 15.1969 11.8403 15.2518C11.9337 15.2651 12.1571 15.2574 12.2463 15.2379C12.7651 15.1246 13.1494 14.7142 13.2235 14.1944C13.2371 14.0997 13.2298 13.8629 13.2107 13.7772C13.125 13.3922 12.8875 13.0894 12.5323 12.9124C12.4182 12.8555 12.243 12.8077 12.1187 12.7994C12.0848 12.7972 12.0433 12.7944 12.0263 12.7931C12.0094 12.7919 11.9559 12.7936 11.9075 12.797ZM15.6123 12.797C15.0066 12.8384 14.5131 13.332 14.474 13.9356C14.454 14.2441 14.537 14.527 14.718 14.7676C14.9187 15.0343 15.2088 15.2042 15.5451 15.2518C15.6385 15.2651 15.8619 15.2574 15.9511 15.2379C16.3902 15.142 16.7357 14.8345 16.8753 14.4156C16.9221 14.2751 16.9323 14.2056 16.9323 14.028C16.9323 13.8465 16.9223 13.7815 16.8706 13.6261C16.7528 13.2719 16.4628 12.9815 16.1051 12.8595C16.0096 12.8269 15.9067 12.805 15.8235 12.7994C15.7896 12.7972 15.7481 12.7944 15.7311 12.7931C15.7142 12.7919 15.6607 12.7936 15.6123 12.797ZM8.15571 16.167C7.6944 16.2191 7.28939 16.5401 7.13438 16.9766C7.08252 17.1226 7.06342 17.2349 7.06342 17.394C7.06342 17.6067 7.10459 17.7767 7.20159 17.9646C7.42966 18.4064 7.91985 18.6731 8.41075 18.6225C8.70984 18.5917 8.96453 18.4712 9.17208 18.2622C9.67222 17.7587 9.64272 16.9366 9.10754 16.4642C8.9476 16.323 8.72581 16.2158 8.51901 16.1797C8.42074 16.1626 8.24816 16.1565 8.15571 16.167ZM11.8591 16.1676C11.397 16.2153 10.9827 16.5499 10.831 16.998C10.7824 17.1415 10.7723 17.2097 10.7723 17.394C10.7723 17.522 10.7761 17.5787 10.7883 17.636C10.8644 17.9931 11.0818 18.2916 11.3964 18.4708C11.7632 18.6798 12.2367 18.6798 12.6035 18.4708C12.918 18.2916 13.1355 17.9931 13.2116 17.636C13.2238 17.5787 13.2275 17.522 13.2275 17.394C13.2275 17.266 13.2238 17.2092 13.2116 17.152C13.0974 16.6163 12.6601 16.22 12.1244 16.1666C12.0212 16.1564 11.9663 16.1566 11.8591 16.1676ZM15.5639 16.1676C15.0242 16.2233 14.5817 16.6451 14.4854 17.1959C14.4699 17.2844 14.468 17.4828 14.4819 17.5751C14.5239 17.8562 14.6742 18.1315 14.889 18.321C15.2347 18.626 15.7194 18.7106 16.1587 18.5427C16.4204 18.4427 16.6661 18.2205 16.7986 17.964C16.8939 17.7795 16.9364 17.6036 16.9364 17.394C16.9364 17.1411 16.8694 16.9177 16.7319 16.712C16.671 16.6207 16.6632 16.6112 16.5865 16.5328C16.3813 16.3233 16.1186 16.1963 15.8292 16.1669C15.7262 16.1564 15.6715 16.1565 15.5639 16.1676Z" fill="#0A0B0D"/>
</svg>
