<svg width="24" height="24" viewBox="0 0 24 24" fill="none" xmlns="http://www.w3.org/2000/svg">
<path opacity="0.2" d="M8.26849 2.53647C7.05113 1.51623 5.23731 1.66288 4.31363 2.95507C4.06693 3.30021 3.77458 3.71187 3.26962 4.34352C1.53255 6.51641 1.53256 9.66269 3.27922 11.8279C4.56863 13.4263 5.92057 15.0391 7.43187 16.5504C8.94317 18.0617 10.556 19.4136 12.1544 20.7031C14.3196 22.4498 17.4659 22.4498 19.6387 20.7127C20.3126 20.1739 20.7331 19.8802 21.09 19.6255C22.3382 18.7341 22.5131 16.9856 21.5385 15.8012C20.7683 14.8654 19.9106 13.9725 19.0833 13.101C18.4243 12.4067 17.3236 12.3613 16.5756 12.9587C16.3744 13.1194 16.1246 13.3311 15.6182 13.806C13.1327 12.329 11.6263 10.8043 10.1763 8.3641C10.6569 7.85148 10.8689 7.60097 11.0309 7.39783C11.6272 6.65042 11.583 5.55262 10.8846 4.89955C10.0334 4.10361 9.16719 3.28963 8.26849 2.53647Z" fill="#1D2127"/>
<path d="M8.26849 2.53647C7.05113 1.51623 5.23731 1.66288 4.31363 2.95507C4.06693 3.30021 3.77458 3.71187 3.26962 4.34352C1.53255 6.51641 1.53256 9.66269 3.27922 11.8279C4.56863 13.4263 5.92057 15.0391 7.43187 16.5504C8.94317 18.0617 10.556 19.4136 12.1544 20.7031C14.3196 22.4498 17.4659 22.4498 19.6387 20.7127C20.3126 20.1739 20.7331 19.8802 21.09 19.6255C22.3382 18.7341 22.5131 16.9856 21.5385 15.8012C20.7683 14.8654 19.9106 13.9725 19.0833 13.101C18.4243 12.4067 17.3236 12.3613 16.5756 12.9587C16.3744 13.1194 16.1246 13.3311 15.6182 13.806C13.1327 12.329 11.6263 10.8043 10.1763 8.3641C10.6569 7.85148 10.8689 7.60097 11.0309 7.39783C11.6272 6.65042 11.583 5.55262 10.8846 4.89955C10.0334 4.10361 9.16719 3.28963 8.26849 2.53647Z" stroke="#1D2127" stroke-width="1.71429" stroke-linejoin="round"/>
</svg>
