<svg width="24" height="24" viewBox="0 0 24 24" fill="none" xmlns="http://www.w3.org/2000/svg">
<path opacity="0.2" d="M12.0001 22.3C17.7001 22.3 22.3001 17.7 22.3001 12C22.3001 6.29998 17.7001 1.69998 12.0001 1.69998C6.30007 1.69998 1.70007 6.29998 1.70007 12C1.70007 17.7 6.30007 22.3 12.0001 22.3ZM17.5001 7.79998C18.1001 8.29998 18.2001 9.19998 17.7001 9.79998C17.2001 10.4 16.8001 10.9 16.3001 11.4C16.1001 11.7 15.8001 11.9 15.6001 12.2C15.2001 11.8 15.1001 11.7 14.9001 11.6C14.8001 11.5 14.6001 11.4 14.3001 11C12.9001 11.8 12.0001 12.7 11.2001 14.1C11.5001 14.5 11.6001 14.6 11.8001 14.7C11.9001 14.8 12.0001 15 12.4001 15.4C12.1001 15.6 11.8001 15.9 11.6001 16.2C11.1001 16.7 10.6001 17.2 10.0001 17.6C9.40007 18.1 8.50007 18 8.10007 17.4C8.00007 17.3 8.00007 17.3 7.90007 17.2C7.80007 17 7.60007 16.8 7.30007 16.4C6.30007 15.2 6.30007 13.3 7.30007 12.1C8.00007 11.2 8.80007 10.3 9.70007 9.39998C10.6001 8.49998 11.5001 7.79998 12.4001 6.99998C13.6001 5.99998 15.5001 5.99998 16.7001 6.99998C17.1001 7.29998 17.3001 7.39998 17.5001 7.59998C17.3001 7.69998 17.4001 7.79998 17.5001 7.79998Z" fill="#1D2127"/>
<path d="M12 23.1C5.90002 23.1 0.900024 18.1 0.900024 12C0.900024 5.89999 5.90002 0.899994 12 0.899994C18.1 0.899994 23.1 5.89999 23.1 12C23.1 18.1 18.1 23.1 12 23.1ZM12 2.59999C6.80002 2.59999 2.60002 6.79999 2.60002 12C2.60002 17.2 6.80002 21.4 12 21.4C17.2 21.4 21.4 17.2 21.4 12C21.4 6.79999 17.2 2.59999 12 2.59999Z" fill="#1D2127"/>
<path d="M8.9 18.9C8.8 18.9 8.7 18.9 8.6 18.9C8 18.8 7.5 18.5 7.2 18L7 17.8C6.9 17.6 6.7 17.4 6.4 17.1C5.2 15.5 5.2 13.3 6.4 11.7C7.2 10.8 8 9.79999 8.9 8.89999C9.8 7.99999 10.8 7.09999 11.7 6.49999C13.3 5.19999 15.5 5.19999 17.1 6.49999C17.4 6.79999 17.7 6.89999 17.8 7.09999H18C18.5 7.49999 18.8 7.99999 18.9 8.59999C19 9.19999 18.8 9.89999 18.4 10.3C17.9 10.9 17.4 11.4 16.9 11.9C16.7 12.2 16.4 12.4 16.2 12.7C16 12.9 15.8 13 15.6 13C15.4 13 15.1 12.9 15 12.8C14.6 12.5 14.5 12.4 14.4 12.3C14.3 12.3 14.3 12.2 14.2 12.1C13.4 12.7 12.8 13.2 12.2 14.1C12.3 14.2 12.3 14.2 12.4 14.3C12.5 14.4 12.6 14.6 12.9 14.9C13.1 15.1 13.1 15.3 13.1 15.5C13.1 15.7 13 16 12.8 16.1C12.5 16.3 12.3 16.6 12 16.9C11.5 17.4 10.9 17.9 10.3 18.4C9.9 18.7 9.4 18.9 8.9 18.9ZM14.4 7.19999C13.8 7.19999 13.3 7.39999 12.8 7.79999C12 8.49999 11 9.29999 10.2 10.1C9.3 11 8.6 11.9 7.9 12.7C7 13.7 7 15 7.8 16C8.1 16.4 8.3 16.6 8.4 16.8L8.5 17C8.6 17.1 8.7 17.2 8.8 17.2C8.9 17.2 9.1 17.2 9.2 17.1C9.7 16.7 10.2 16.2 10.7 15.7C10.8 15.6 10.9 15.6 10.9 15.5C10.9 15.5 10.9 15.4 10.8 15.4C10.7 15.3 10.6 15.2 10.3 14.8C10 14.5 10 14.1 10.2 13.8C11.1 12.3 12.1 11.3 13.6 10.4C13.9 10.2 14.3 10.2 14.6 10.5C14.9 10.8 15.1 10.9 15.2 11C15.2 11 15.3 11 15.3 11.1C15.4 11 15.4 11 15.5 10.9C16 10.4 16.5 9.89999 16.9 9.29999C17 9.19999 17.1 8.99999 17 8.89999C17 8.79999 16.9 8.69999 16.8 8.59999L16.6 8.49999C16.4 8.39999 16.2 8.19999 15.8 7.89999C15.5 7.39999 14.9 7.19999 14.4 7.19999Z" fill="#1D2127"/>
</svg>
