<svg width="24" height="24" viewBox="0 0 24 24" fill="none" xmlns="http://www.w3.org/2000/svg">
<path opacity="0.2" fill-rule="evenodd" clip-rule="evenodd" d="M11.9999 22.2857C17.6806 22.2857 22.2857 17.6806 22.2857 12C22.2857 6.31936 17.6806 1.71429 11.9999 1.71429C6.3193 1.71429 1.71423 6.31936 1.71423 12C1.71423 17.6806 6.3193 22.2857 11.9999 22.2857ZM17.4683 7.82219C18.1088 8.2917 18.1767 9.20595 17.6741 9.82077C17.2239 10.3714 16.7295 10.8999 16.2446 11.4183C15.995 11.6852 15.7479 11.9494 15.5106 12.2126C15.1206 11.8509 14.9763 11.738 14.8381 11.63C14.6993 11.5215 14.5667 11.4178 14.1979 11.072C12.7962 11.9049 11.9203 12.7702 11.072 14.1979C11.4172 14.5661 11.5203 14.6982 11.6283 14.8363C11.7358 14.974 11.8481 15.1177 12.2091 15.507C11.9316 15.7564 11.6522 16.0219 11.3685 16.2913C10.8558 16.7785 10.3293 17.2788 9.77595 17.7201C9.17642 18.1984 8.29796 18.114 7.84215 17.4972C7.79143 17.4286 7.74183 17.3589 7.68806 17.2834C7.5505 17.0904 7.3856 16.8589 7.10462 16.5074C6.1068 15.2593 6.10682 13.452 7.11014 12.2083C7.85079 11.2901 8.62738 10.3637 9.4955 9.49556C10.3636 8.62743 11.2901 7.85084 12.2082 7.11018C13.4519 6.10686 15.2592 6.10686 16.5074 7.10466C16.8582 7.38512 17.0909 7.5514 17.2851 7.69021C17.3494 7.73617 17.4095 7.77911 17.4683 7.82219Z" fill="#1D2127"/>
<path d="M17.6741 9.82077L18.3376 10.3633L18.3377 10.3633L17.6741 9.82077ZM17.4683 7.82219L16.9615 8.51345L16.9616 8.51348L17.4683 7.82219ZM16.5074 7.10466L17.0427 6.43516L17.0426 6.43515L16.5074 7.10466ZM12.2083 7.11018L12.7464 7.77732L12.7464 7.77731L12.2083 7.11018ZM9.49553 9.49556L10.1016 10.1017L10.1016 10.1016L9.49553 9.49556ZM7.11015 12.2083L6.44303 11.6701L6.44302 11.6701L7.11015 12.2083ZM7.10463 16.5074L6.43513 17.0427L6.43513 17.0427L7.10463 16.5074ZM7.84219 17.4972L7.15281 18.0066L7.15285 18.0066L7.84219 17.4972ZM9.77599 17.7201L9.24153 17.05L9.24145 17.05L9.77599 17.7201ZM12.2091 15.507L12.7821 16.1445C12.9529 15.991 13.0549 15.7754 13.0654 15.546C13.0758 15.3166 12.9938 15.0926 12.8376 14.9242L12.2091 15.507ZM11.072 14.1979L10.3351 13.7601C10.1401 14.0882 10.1856 14.5057 10.4467 14.7842L11.072 14.1979ZM14.1979 11.072L14.7841 10.4467C14.5057 10.1856 14.0882 10.1402 13.76 10.3351L14.1979 11.072ZM15.5106 12.2126L14.9278 12.841C15.096 12.997 15.3197 13.0791 15.5489 13.0689C15.7781 13.0586 15.9936 12.9569 16.1472 12.7866L15.5106 12.2126ZM21.4285 12C21.4285 17.2073 17.2072 21.4286 11.9999 21.4286V23.1429C18.154 23.1429 23.1428 18.154 23.1428 12H21.4285ZM11.9999 21.4286C6.79269 21.4286 2.57138 17.2073 2.57138 12H0.857091C0.857091 18.154 5.84592 23.1429 11.9999 23.1429V21.4286ZM2.57138 12C2.57138 6.79275 6.79269 2.57144 11.9999 2.57144V0.857152C5.84592 0.857152 0.857091 5.84598 0.857091 12H2.57138ZM11.9999 2.57144C17.2072 2.57144 21.4285 6.79275 21.4285 12H23.1428C23.1428 5.84598 18.154 0.857152 11.9999 0.857152V2.57144ZM18.3377 10.3633C19.1162 9.41101 19.0549 7.92248 17.9751 7.13091L16.9616 8.51348C17.1627 8.66093 17.2372 9.00088 17.0105 9.27827L18.3377 10.3633ZM17.9752 7.13093C17.7147 6.93995 17.4911 6.7937 17.0427 6.43516L15.9722 7.77416C16.4577 8.16226 16.7496 8.35804 16.9615 8.51345L17.9752 7.13093ZM17.0426 6.43515C15.4819 5.18749 13.2282 5.18607 11.6701 6.44305L12.7464 7.77731C13.6757 7.02766 15.0366 7.02624 15.9722 7.77417L17.0426 6.43515ZM11.6701 6.44304C10.7455 7.1889 9.79052 7.98837 8.88943 8.88947L10.1016 10.1016C10.9368 9.26649 11.8347 8.51278 12.7464 7.77732L11.6701 6.44304ZM8.88945 8.88946C7.98834 9.79055 7.18889 10.7455 6.44303 11.6701L7.77728 12.7464C8.51277 11.8347 9.26646 10.9368 10.1016 10.1017L8.88945 8.88946ZM6.44302 11.6701C5.18604 13.2283 5.18746 15.4819 6.43513 17.0427L7.77414 15.9722C7.02621 15.0366 7.02763 13.6757 7.77728 12.7464L6.44302 11.6701ZM6.43513 17.0427C6.81389 17.5165 6.94581 17.7264 7.15281 18.0066L8.53156 16.9878C8.37757 16.7794 8.17705 16.4762 7.77414 15.9722L6.43513 17.0427ZM7.15285 18.0066C7.9184 19.0426 9.35945 19.1488 10.3105 18.3901L9.24145 17.05C8.99345 17.2479 8.6776 17.1855 8.53153 16.9878L7.15285 18.0066ZM10.3104 18.3902C11.1879 17.6904 12.0757 16.7793 12.7821 16.1445L11.6362 14.8695C10.7842 15.6351 10.0831 16.3788 9.24153 17.05L10.3104 18.3902ZM12.8376 14.9242C12.4927 14.5522 12.3963 14.4271 12.3031 14.3078C12.1797 14.1498 12.0595 13.9981 11.6973 13.6117L10.4467 14.7842C10.7735 15.1328 10.8602 15.2455 10.9522 15.3633C11.0745 15.5198 11.2021 15.6817 11.5806 16.0898L12.8376 14.9242ZM11.8089 14.6358C12.5833 13.3325 13.3558 12.5694 14.6358 11.8089L13.76 10.3351C12.2366 11.2404 11.2574 12.208 10.3351 13.7601L11.8089 14.6358ZM13.6117 11.6973C13.9986 12.0601 14.1509 12.1807 14.3093 12.3046C14.4293 12.3984 14.5551 12.4954 14.9278 12.841L16.0935 11.5841C15.6847 11.205 15.5222 11.0768 15.3653 10.9541C15.2468 10.8614 15.1334 10.7741 14.7841 10.4467L13.6117 11.6973ZM16.1472 12.7866C16.8016 12.0608 17.6413 11.215 18.3376 10.3633L17.0105 9.27823C16.343 10.0946 15.6159 10.8159 14.8741 11.6386L16.1472 12.7866Z" fill="#1D2127"/>
</svg>
