<svg width="24" height="24" viewBox="0 0 24 24" fill="none" xmlns="http://www.w3.org/2000/svg">
<g clip-path="url(#clip0_2850_15072)">
<path d="M23.56 8.79C22.86 6.28 21.34 4.03 19.26 2.45C17.19 0.88 14.61 0.01 12.01 0C11.6 0 11.26 0.34 11.26 0.75C11.26 1.16 11.6 1.5 12.01 1.5C14.29 1.5 16.54 2.26 18.36 3.64C20.17 5.02 21.51 6.99 22.12 9.18C22.73 11.38 22.6 13.75 21.76 15.87C20.92 17.99 19.38 19.8 17.43 20.98C15.48 22.16 13.16 22.67 10.89 22.43C8.62 22.19 6.46 21.19 4.81 19.63C3.15 18.07 2.04 15.96 1.66 13.72C1.29 11.47 1.67 9.12 2.73 7.11C2.91 6.74 2.77 6.28 2.4 6.09C2.04 5.9 1.58 6.04 1.39 6.41C0.180003 8.71 -0.259997 11.4 0.170003 13.97C0.600003 16.54 1.87 18.94 3.77 20.73C5.66 22.52 8.13 23.66 10.72 23.94C11.14 23.98 11.56 24.01 11.99 24.01C14.17 24.01 16.33 23.41 18.2 22.29C20.43 20.94 22.19 18.87 23.15 16.45C24.11 14.01 24.25 11.3 23.56 8.79Z" fill="#171717"/>
<path d="M11.47 12.54C11.62 12.69 11.81 12.76 12 12.76C12.19 12.76 12.38 12.69 12.53 12.54C12.82 12.25 12.82 11.77 12.53 11.48L2.04 0.97C1.75 0.68 1.27 0.68 0.980003 0.97C0.690003 1.26 0.690003 1.74 0.980003 2.03L11.47 12.54Z" fill="#171717"/>
<path d="M7.88 3C8.49856 3 9 2.49856 9 1.88C9 1.26144 8.49856 0.76 7.88 0.76C7.26144 0.76 6.76 1.26144 6.76 1.88C6.76 2.49856 7.26144 3 7.88 3Z" fill="#171717"/>
</g>
<defs>
<clipPath id="clip0_2850_15072">
<rect width="24" height="24" fill="white"/>
</clipPath>
</defs>
</svg>
