<svg width="24" height="24" viewBox="0 0 24 24" fill="none" xmlns="http://www.w3.org/2000/svg">
<path d="M23.5687 8.78634C22.8682 6.27738 21.3471 4.02832 19.2655 2.44898C17.1939 0.879633 14.612 0.00999583 12.01 0C11.5997 0 11.2594 0.339858 11.2594 0.749688C11.2594 1.15952 11.5997 1.49938 12.01 1.49938C14.2917 1.49938 16.5434 2.25906 18.3648 3.63848C20.1762 5.01791 21.5172 6.98709 22.1277 9.17618C22.7381 11.3753 22.608 13.7443 21.7674 15.8634C20.9267 17.9825 19.3856 19.7918 17.4341 20.9713C15.4826 22.1508 13.1609 22.6606 10.8892 22.4207C8.61745 22.1808 6.45582 21.1812 4.80457 19.6218C3.14331 18.0625 2.03247 15.9534 1.65219 13.7143C1.28191 11.4652 1.66219 9.1162 2.723 7.10704C2.90313 6.73719 2.76303 6.27738 2.39275 6.08746C2.03247 5.89754 1.57213 6.03748 1.38198 6.40733C0.171068 8.70637 -0.269265 11.3953 0.161061 13.9642C0.591386 16.5331 1.86235 18.9321 3.76378 20.7214C5.65521 22.5106 8.12708 23.6501 10.719 23.93C11.1394 23.97 11.5597 24 11.99 24C14.1716 24 16.3333 23.4003 18.2047 22.2807C20.4364 20.9313 22.1977 18.8621 23.1584 16.4431C24.1192 14.0042 24.2593 11.2953 23.5687 8.78634Z" fill="#171717"/>
<path d="M11.4696 12.5348C11.6197 12.6847 11.8099 12.7547 12 12.7547C12.1901 12.7547 12.3803 12.6847 12.5304 12.5348C12.8206 12.2449 12.8206 11.7651 12.5304 11.4752L2.03247 0.969596C1.74226 0.679717 1.26189 0.679717 0.971673 0.969596C0.681454 1.25948 0.681454 1.73928 0.971673 2.02915L11.4696 12.5348Z" fill="#171717"/>
<path d="M7.87689 2.99875C8.49592 2.99875 8.99774 2.49752 8.99774 1.87922C8.99774 1.26092 8.49592 0.759683 7.87689 0.759683C7.25786 0.759683 6.75604 1.26092 6.75604 1.87922C6.75604 2.49752 7.25786 2.99875 7.87689 2.99875Z" fill="#171717"/>
</svg>
