<svg width="24" height="24" viewBox="0 0 24 24" fill="none" xmlns="http://www.w3.org/2000/svg">
<path fill-rule="evenodd" clip-rule="evenodd" d="M7.7587 1H16.2413C17.0463 0.999988 17.7106 0.999977 18.2518 1.04419C18.8139 1.09012 19.3306 1.18868 19.816 1.43597C20.5686 1.81947 21.1805 2.43139 21.564 3.18404C21.8113 3.66937 21.9099 4.18608 21.9558 4.74817C21.9707 4.93099 21.9806 5.12786 21.9872 5.33945C21.9956 5.39172 22 5.44535 22 5.5C22 5.53798 21.9979 5.57546 21.9938 5.61234C22 5.95792 22 6.33921 22 6.75868V14.2413C22 15.0463 22 15.7106 21.9558 16.2518C21.9099 16.8139 21.8113 17.3306 21.564 17.816C21.2123 18.5063 20.6684 19.0782 20 19.4641V21.2C20 21.2076 20 21.2153 20 21.2232C20.0001 21.3423 20.0001 21.4845 19.9899 21.6098C19.978 21.755 19.9476 21.963 19.8365 22.181C19.6927 22.4632 19.4632 22.6927 19.181 22.8365C18.963 22.9476 18.755 22.978 18.6098 22.9899C18.4845 23.0001 18.3423 23.0001 18.2232 23C18.2153 23 18.2076 23 18.2 23H16.3C16.2924 23 16.2847 23 16.2769 23C16.1577 23.0001 16.0155 23.0001 15.8902 22.9899C15.745 22.978 15.537 22.9476 15.319 22.8365C15.0368 22.6927 14.8073 22.4632 14.6635 22.181C14.5524 21.963 14.522 21.755 14.5101 21.6098C14.4999 21.4845 14.4999 21.3422 14.5 21.2231L14.5 20H9.5L9.50001 21.2231C9.50005 21.3423 9.50011 21.4845 9.48987 21.6098C9.478 21.755 9.44756 21.963 9.33651 22.181C9.1927 22.4632 8.96323 22.6927 8.68099 22.8365C8.46304 22.9476 8.25505 22.978 8.10983 22.9899C7.98452 23.0001 7.84226 23.0001 7.72315 23C7.71533 23 7.70761 23 7.7 23H5.8C5.79239 23 5.78467 23 5.77685 23C5.65774 23.0001 5.51549 23.0001 5.39017 22.9899C5.24495 22.978 5.03696 22.9476 4.81902 22.8365C4.53677 22.6927 4.3073 22.4632 4.16349 22.181C4.05244 21.963 4.022 21.755 4.01013 21.6098C3.9999 21.4845 3.99995 21.3423 3.99999 21.2231L4 19.4641C3.33161 19.0782 2.78771 18.5063 2.43597 17.816C2.18868 17.3306 2.09012 16.8139 2.04419 16.2518C1.99998 15.7106 1.99999 15.0463 2 14.2413V6.7587C1.99999 6.33922 1.99999 5.95792 2.00624 5.61234C2.00212 5.57546 2 5.53798 2 5.5C2 5.44535 2.00438 5.39172 2.01282 5.33945C2.01937 5.12786 2.02926 4.93099 2.04419 4.74817C2.09012 4.18608 2.18868 3.66937 2.43597 3.18404C2.81947 2.43139 3.43139 1.81947 4.18404 1.43597C4.66937 1.18868 5.18608 1.09012 5.74817 1.04419C6.28937 0.999977 6.95373 0.999988 7.7587 1ZM4.0001 6.5C4.00001 6.59613 4 6.69605 4 6.8V11H20V6.8C20 6.69605 20 6.59613 19.9999 6.5H4.0001ZM19.9105 4.5H4.08946C4.12422 4.3138 4.16822 4.18969 4.21799 4.09202C4.40973 3.7157 4.7157 3.40973 5.09202 3.21799C5.24842 3.1383 5.47262 3.07337 5.91104 3.03755C6.36113 3.00078 6.94342 3 7.8 3H16.2C17.0566 3 17.6389 3.00078 18.089 3.03755C18.5274 3.07337 18.7516 3.1383 18.908 3.21799C19.2843 3.40973 19.5903 3.7157 19.782 4.09202C19.8318 4.18969 19.8758 4.3138 19.9105 4.5ZM20 13H4V14.2C4 15.0566 4.00078 15.6389 4.03755 16.089C4.07337 16.5274 4.1383 16.7516 4.21799 16.908C4.40973 17.2843 4.7157 17.5903 5.09202 17.782C5.24842 17.8617 5.47262 17.9266 5.91104 17.9624C6.36113 17.9992 6.94342 18 7.8 18H16.2C17.0566 18 17.6389 17.9992 18.089 17.9624C18.5274 17.9266 18.7516 17.8617 18.908 17.782C19.2843 17.5903 19.5903 17.2843 19.782 16.908C19.8617 16.7516 19.9266 16.5274 19.9624 16.089C19.9992 15.6389 20 15.0566 20 14.2V13ZM16.5 19.9999V21H18V19.9729C17.5714 19.9965 17.0738 19.9996 16.5 19.9999ZM7.5 19.9999C6.92624 19.9996 6.4286 19.9965 6 19.9729V21H7.5V19.9999ZM5.5 15.5C5.5 14.9477 5.94772 14.5 6.5 14.5H8C8.55229 14.5 9 14.9477 9 15.5C9 16.0523 8.55229 16.5 8 16.5H6.5C5.94772 16.5 5.5 16.0523 5.5 15.5ZM15 15.5C15 14.9477 15.4477 14.5 16 14.5H17.5C18.0523 14.5 18.5 14.9477 18.5 15.5C18.5 16.0523 18.0523 16.5 17.5 16.5H16C15.4477 16.5 15 16.0523 15 15.5Z" fill="#101C2D"/>
</svg>
