<svg width="24" height="24" viewBox="0 0 24 24" fill="none" xmlns="http://www.w3.org/2000/svg">
<g clip-path="url(#clip0_2862_15787)">
<path d="M9.75 4.5H14.25C14.66 4.5 15 4.16 15 3.75C15 3.34 14.66 3 14.25 3H9.75C9.34 3 9 3.34 9 3.75C9 4.16 9.34 4.5 9.75 4.5Z" fill="#171717"/>
<path d="M9.75 16.5H6.75C6.34 16.5 6 16.84 6 17.25C6 17.66 6.34 18 6.75 18H9.75C10.16 18 10.5 17.66 10.5 17.25C10.5 16.84 10.16 16.5 9.75 16.5Z" fill="#171717"/>
<path d="M17.25 16.5H14.25C13.84 16.5 13.5 16.84 13.5 17.25C13.5 17.66 13.84 18 14.25 18H17.25C17.66 18 18 17.66 18 17.25C18 16.84 17.66 16.5 17.25 16.5Z" fill="#171717"/>
<path d="M23.34 8.16C22.92 7.74 22.34 7.5 21.75 7.5H21V6.75V5.25C21 3.85 20.45 2.53 19.46 1.54C18.47 0.55 17.15 0 15.75 0H8.25C6.85 0 5.53 0.55 4.54 1.54C3.55 2.53 3 3.85 3 5.25V6.75V7.5H2.25C1.66 7.5 1.08 7.74 0.66 8.16C0.23 8.58 0 9.15 0 9.75V14.25C0 14.66 0.34 15 0.75 15C1.16 15 1.5 14.66 1.5 14.25V9.75C1.5 9.55 1.58 9.36 1.72 9.22C1.86 9.08 2.05 9 2.25 9H3V14.25V18.75C3 19.34 3.24 19.92 3.66 20.34C3.9 20.58 4.19 20.75 4.5 20.86V21.75C4.5 22.34 4.74 22.92 5.16 23.34C5.58 23.76 6.16 24 6.75 24C7.34 24 7.92 23.76 8.34 23.34C8.76 22.92 9 22.34 9 21.75V21H15V21.75C15 22.34 15.24 22.92 15.66 23.34C16.08 23.76 16.65 24 17.25 24C17.84 24 18.42 23.76 18.84 23.34C19.26 22.92 19.5 22.34 19.5 21.75V20.86C19.81 20.75 20.1 20.58 20.34 20.34C20.76 19.92 21 19.34 21 18.75V14.25V9H21.75C21.95 9 22.14 9.08 22.28 9.22C22.42 9.36 22.5 9.55 22.5 9.75V14.25C22.5 14.66 22.84 15 23.25 15C23.66 15 24 14.66 24 14.25V9.75C24 9.15 23.77 8.58 23.34 8.16ZM4.5 7.5H19.5V13.5H4.5V7.5ZM5.6 2.6C6.31 1.89 7.25 1.5 8.25 1.5H15.75C16.75 1.5 17.69 1.89 18.4 2.6C19.11 3.31 19.5 4.25 19.5 5.25V6H4.5V5.25C4.5 4.25 4.89 3.31 5.6 2.6ZM7.5 21.75C7.5 21.95 7.42 22.14 7.28 22.28C7 22.56 6.5 22.56 6.22 22.28C6.08 22.14 6 21.95 6 21.75V21H7.5V21.75ZM17.78 22.28C17.5 22.56 17 22.56 16.72 22.28C16.58 22.14 16.5 21.95 16.5 21.75V21H18V21.75C18 21.95 17.92 22.14 17.78 22.28ZM19.28 19.28C19.14 19.42 18.95 19.5 18.75 19.5H5.25C5.05 19.5 4.86 19.42 4.72 19.28C4.58 19.14 4.5 18.95 4.5 18.75V15H19.5V18.75C19.5 18.95 19.42 19.14 19.28 19.28Z" fill="#171717"/>
</g>
<defs>
<clipPath id="clip0_2862_15787">
<rect width="24" height="24" fill="white"/>
</clipPath>
</defs>
</svg>
