<svg width="24" height="24" viewBox="0 0 24 24" fill="none" xmlns="http://www.w3.org/2000/svg">
<path d="M21.8439 7.36647C21.9055 7.31528 21.9516 7.24801 21.9773 7.17215C22.0029 7.09628 22.0069 7.0148 21.989 6.93676C21.9711 6.85872 21.9318 6.78719 21.8756 6.73012C21.8195 6.67306 21.7486 6.63271 21.6708 6.61356L20.9871 6.44913C20.9241 6.4333 20.8656 6.40322 20.8161 6.36121C20.7666 6.31919 20.7274 6.26637 20.7015 6.20681C20.6739 6.14869 20.6595 6.08512 20.6595 6.02075C20.6595 5.95637 20.6739 5.8928 20.7015 5.83468L21.091 5.06446C21.128 4.98905 21.1423 4.9045 21.132 4.82112C21.1218 4.73774 21.0875 4.65914 21.0334 4.59491C20.9793 4.53067 20.9076 4.48359 20.8272 4.4594C20.7467 4.43521 20.661 4.43495 20.5804 4.45867L18.8495 4.9433C18.7858 4.96088 18.7188 4.96298 18.654 4.94943C18.5893 4.93589 18.5288 4.90708 18.4774 4.86542C17.8345 4.38326 17.0701 4.08965 16.2698 4.01749C15.4694 3.94532 14.6648 4.09745 13.946 4.45682C13.2273 4.8162 12.6228 5.36862 12.2003 6.0522C11.7779 6.73577 11.5541 7.52349 11.5541 8.32708V8.63863C11.5545 8.69178 11.5353 8.74321 11.5002 8.78312C11.4651 8.82302 11.4165 8.8486 11.3637 8.85498C8.93189 9.14057 6.60393 7.90302 4.09422 5.01254C4.04129 4.95006 3.97172 4.90389 3.8936 4.87938C3.81547 4.85487 3.73199 4.85303 3.65286 4.87407C3.57748 4.90575 3.51287 4.95855 3.4668 5.02611C3.42074 5.09367 3.39519 5.17311 3.39324 5.25485C3.04252 6.67846 3.18279 8.17878 3.79133 9.5127C3.81026 9.54717 3.82019 9.58587 3.82019 9.6252C3.82019 9.66453 3.81026 9.70323 3.79133 9.7377C3.76805 9.77211 3.735 9.79875 3.69643 9.81417C3.65786 9.8296 3.61555 9.83311 3.57497 9.82424L2.59705 9.63385C2.52786 9.62447 2.45744 9.63131 2.39135 9.65384C2.32526 9.67637 2.26532 9.71397 2.21627 9.76367C2.16908 9.81394 2.13432 9.87457 2.11478 9.94069C2.09524 10.0068 2.09147 10.0766 2.10377 10.1444C2.17849 10.8086 2.40162 11.4475 2.75665 12.0137C3.11169 12.58 3.58953 13.0591 4.1548 13.4157C4.18866 13.4362 4.21625 13.4656 4.23456 13.5007C4.25288 13.5358 4.26121 13.5753 4.25865 13.6148C4.25822 13.6558 4.24567 13.6957 4.22257 13.7296C4.19947 13.7635 4.16685 13.7898 4.12884 13.8052L3.66151 13.9869C3.55084 14.0354 3.46376 14.1256 3.4192 14.2379C3.39587 14.2926 3.38384 14.3515 3.38384 14.4109C3.38384 14.4704 3.39587 14.5293 3.4192 14.584C3.67284 15.139 4.05732 15.6243 4.53965 15.9981C5.02198 16.3719 5.58778 16.6231 6.18853 16.7303C6.23124 16.743 6.26941 16.7677 6.29855 16.8014C6.32768 16.8352 6.34656 16.8765 6.35295 16.9206C6.35723 16.967 6.34705 17.0135 6.3238 17.0538C6.30055 17.0941 6.26539 17.1262 6.22314 17.1457C5.05085 17.6257 3.79454 17.867 2.52782 17.8553C2.41306 17.8323 2.29388 17.8559 2.1965 17.9208C2.09912 17.9858 2.03152 18.0867 2.00857 18.2015C1.98562 18.3162 2.0092 18.4354 2.07411 18.5328C2.13903 18.6302 2.23998 18.6978 2.35474 18.7207C4.5582 19.7698 6.9593 20.3391 9.39922 20.391C11.5448 20.4227 13.6521 19.8206 15.4571 18.6601C16.9426 17.6704 18.1596 16.3279 18.9993 14.7527C19.839 13.1776 20.2751 11.4188 20.2688 9.63385V8.88094C20.2688 8.818 20.2827 8.75584 20.3096 8.69896C20.3366 8.64207 20.3759 8.5919 20.4246 8.55208L21.8439 7.36647Z" fill="#171717"/>
</svg>
