<svg width="24" height="24" viewBox="0 0 24 24" fill="none" xmlns="http://www.w3.org/2000/svg">
<path d="M8.79627 22C6.17919 22 3.36081 21.3388 0.451831 20.0062C0.119664 19.8512 -0.0615183 19.4897 0.019007 19.1281C0.0995323 18.7665 0.411568 18.5186 0.773932 18.5186C2.28378 18.5496 3.7735 18.2707 5.1525 17.6818C3.64265 17.3409 2.3945 16.6384 1.58925 14.9855C1.48859 14.7893 1.48859 14.562 1.55905 14.3554C1.63958 14.1488 1.80063 13.9938 2.00194 13.9112L2.65621 13.6736C2.29385 13.4566 1.95161 13.1983 1.64964 12.9091C0.743735 12.031 0.159926 10.843 0.00894134 9.57231C-0.0212556 9.34504 0.0693353 9.10744 0.230386 8.93182C0.401502 8.76653 0.643078 8.68388 0.864523 8.72521L2.31398 8.95248C1.59932 7.54752 1.43827 5.78099 1.82076 3.67355C1.87109 3.3843 2.08247 3.14669 2.36431 3.06405C2.64615 2.9814 2.93805 3.07438 3.1293 3.30165C5.98795 6.67975 8.62515 8.12603 11.363 7.79545V7.42355C11.363 5.97727 11.9166 4.61364 12.9131 3.59091C13.9096 2.56818 15.2383 2 16.6475 2C17.8151 2.01033 18.9324 2.41322 19.8383 3.14669L22.0125 2.40289C22.2943 2.30992 22.6164 2.39256 22.8077 2.61983C23.009 2.84711 23.0593 3.17769 22.9285 3.45661L22.1433 5.21281L23.5425 5.83264C23.7941 5.94628 23.9652 6.18388 23.9954 6.46281C24.0256 6.74174 23.9048 7.01033 23.6834 7.17562L21.8816 8.51859V8.98347C21.8816 13.3223 19.6571 17.5062 16.0939 19.8926C13.9801 21.2975 11.5039 22 8.79627 22ZM3.99494 19.7169C9.34988 21.3492 13.0339 20.0888 15.2886 18.5806C18.4392 16.4835 20.3919 12.7955 20.3919 8.97314V8.1157C20.3919 7.86777 20.5127 7.63017 20.7039 7.48554L21.7407 6.72107L20.8449 6.32851C20.6536 6.24587 20.5127 6.09091 20.4422 5.89463C20.3718 5.69835 20.3718 5.4814 20.4624 5.29545L20.8449 4.43802L19.9188 4.75826C19.6471 4.84091 19.3551 4.77893 19.1538 4.58264C18.4694 3.93182 17.5735 3.55992 16.6374 3.54959C15.6409 3.54959 14.6947 3.95248 13.9801 4.68595C13.2654 5.41942 12.8729 6.3905 12.8729 7.42355V8.45661C12.8729 8.82851 12.6212 9.13843 12.2689 9.21074C9.1687 9.88223 6.15906 8.68388 3.1293 5.57438C3.08903 7.2376 3.56212 8.50826 4.56869 9.42769C4.82033 9.65496 4.89079 10.0269 4.74987 10.3368C4.60895 10.6467 4.28685 10.8223 3.95468 10.781L1.77043 10.4401C1.97175 10.9463 2.28378 11.4112 2.68641 11.7934C3.34068 12.4236 4.18619 12.7955 5.08204 12.8574C5.43433 12.8781 5.7363 13.157 5.78663 13.5186C5.83696 13.8802 5.63565 14.2314 5.29342 14.3554L3.41114 15.0578C4.21639 16.0289 5.4746 16.2975 7.60852 16.4731C7.93062 16.5041 8.19233 16.7314 8.28292 17.0413C8.37351 17.3512 8.24265 17.6921 7.98095 17.8781C6.75294 18.7355 5.40414 19.3554 3.99494 19.7169Z" fill="#1D2127"/>
</svg>
