<svg width="24" height="24" viewBox="0 0 24 24" fill="none" xmlns="http://www.w3.org/2000/svg">
<path d="M8.80999 21.6701C6.20999 21.6701 3.40999 21.0301 0.519989 19.7401C0.189989 19.5901 0.00998898 19.2401 0.089989 18.8901C0.169989 18.5401 0.479989 18.3001 0.839989 18.3001C2.33999 18.3301 3.81999 18.0601 5.18999 17.4901C3.68999 17.1601 2.44999 16.4801 1.64999 14.8801C1.54999 14.6901 1.54999 14.4701 1.61999 14.2701C1.69999 14.0701 1.85999 13.9201 2.05999 13.8401L2.70999 13.6101C2.34999 13.4001 2.00999 13.1501 1.70999 12.8701C0.809989 12.0201 0.229989 10.8701 0.079989 9.64006C0.049989 9.42006 0.139989 9.19006 0.299989 9.02006C0.469989 8.86006 0.709989 8.78006 0.929989 8.82006L2.36999 9.04006C1.65999 7.68006 1.49999 5.97006 1.87999 3.93006C1.92999 3.65006 2.13999 3.42006 2.41999 3.34006C2.69999 3.26006 2.98999 3.35006 3.17999 3.57006C6.01999 6.84006 8.63999 8.24006 11.36 7.92006V7.56006C11.36 6.16006 11.91 4.84006 12.9 3.85006C13.89 2.86006 15.21 2.31006 16.61 2.31006C17.77 2.32006 18.88 2.71006 19.78 3.42006L21.94 2.70006C22.22 2.61006 22.54 2.69006 22.73 2.91006C22.93 3.13006 22.98 3.45006 22.85 3.72006L22.07 5.42006L23.46 6.02006C23.71 6.13006 23.88 6.36006 23.91 6.63006C23.94 6.90006 23.82 7.16006 23.6 7.32006L21.81 8.62006V9.07006C21.81 13.2701 19.6 17.3201 16.06 19.6301C13.96 20.9901 11.5 21.6701 8.80999 21.6701ZM4.03999 19.4601C9.35999 21.0401 13.02 19.8201 15.26 18.3601C18.39 16.3301 20.33 12.7601 20.33 9.06006V8.23006C20.33 7.99006 20.45 7.76006 20.64 7.62006L21.67 6.88006L20.78 6.50006C20.59 6.42006 20.45 6.27006 20.38 6.08006C20.31 5.89006 20.31 5.68006 20.4 5.50006L20.78 4.67006L19.86 4.98006C19.59 5.06006 19.3 5.00006 19.1 4.81006C18.42 4.18006 17.53 3.82006 16.6 3.81006C15.61 3.81006 14.67 4.20006 13.96 4.91006C13.25 5.62006 12.86 6.56006 12.86 7.56006V8.56006C12.86 8.92006 12.61 9.22006 12.26 9.29006C9.17999 9.94006 6.18999 8.78006 3.17999 5.77006C3.13999 7.38006 3.60999 8.61006 4.60999 9.50006C4.85999 9.72006 4.92999 10.0801 4.78999 10.3801C4.64999 10.6801 4.32999 10.8501 3.99999 10.8101L1.82999 10.4801C2.02999 10.9701 2.33999 11.4201 2.73999 11.7901C3.38999 12.4001 4.22999 12.7601 5.11999 12.8201C5.46999 12.8401 5.76999 13.1101 5.81999 13.4601C5.86999 13.8101 5.66999 14.1501 5.32999 14.2701L3.45999 14.9501C4.25999 15.8901 5.50999 16.1501 7.62999 16.3201C7.94999 16.3501 8.20999 16.5701 8.29999 16.8701C8.38999 17.1701 8.25999 17.5001 7.99999 17.6801C6.77999 18.5101 5.43999 19.1101 4.03999 19.4601Z" fill="#171717"/>
</svg>
