<svg width="24" height="24" viewBox="0 0 24 24" fill="none" xmlns="http://www.w3.org/2000/svg">
<path d="M21.8439 7.28593C21.9055 7.23597 21.9516 7.17031 21.9773 7.09626C22.0029 7.02221 22.0069 6.94267 21.989 6.8665C21.9711 6.79033 21.9318 6.72051 21.8756 6.66481C21.8195 6.60912 21.7486 6.56973 21.6708 6.55103L20.9871 6.39054C20.9241 6.37509 20.8656 6.34573 20.8161 6.30472C20.7666 6.26371 20.7274 6.21215 20.7015 6.15402C20.6739 6.09729 20.6595 6.03524 20.6595 5.9724C20.6595 5.90957 20.6739 5.84752 20.7015 5.79079L21.091 5.039C21.128 4.96539 21.1423 4.88286 21.132 4.80148C21.1218 4.72009 21.0875 4.64337 21.0334 4.58067C20.9793 4.51798 20.9076 4.47202 20.8272 4.44841C20.7467 4.4248 20.661 4.42455 20.5804 4.4477L18.8495 4.92074C18.7858 4.93789 18.7188 4.93994 18.654 4.92672C18.5893 4.9135 18.5288 4.88538 18.4774 4.84471C17.8345 4.37409 17.0701 4.08751 16.2698 4.01707C15.4694 3.94663 14.6648 4.09512 13.946 4.44589C13.2273 4.79667 12.6228 5.33588 12.2003 6.0031C11.7779 6.67032 11.5541 7.43919 11.5541 8.22356V8.52766C11.5545 8.57954 11.5353 8.62974 11.5002 8.66869C11.4651 8.70764 11.4165 8.73261 11.3637 8.73883C8.93189 9.01759 6.60393 7.80965 4.09422 4.98831C4.04129 4.92733 3.97172 4.88226 3.8936 4.85834C3.81547 4.83442 3.73199 4.83262 3.65286 4.85316C3.57748 4.88409 3.51287 4.93562 3.4668 5.00157C3.42074 5.06751 3.39519 5.14504 3.39324 5.22483C3.04252 6.61438 3.18279 8.07881 3.79133 9.38081C3.81026 9.41446 3.82019 9.45223 3.82019 9.49063C3.82019 9.52902 3.81026 9.56679 3.79133 9.60044C3.76805 9.63402 3.735 9.66002 3.69643 9.67508C3.65786 9.69014 3.61555 9.69356 3.57497 9.68491L2.59705 9.49907C2.52786 9.48991 2.45744 9.49659 2.39135 9.51858C2.32526 9.54057 2.26532 9.57727 2.21627 9.62578C2.16908 9.67485 2.13432 9.73403 2.11478 9.79857C2.09524 9.86312 2.09147 9.93123 2.10377 9.99745C2.17849 10.6457 2.40162 11.2693 2.75665 11.822C3.11169 12.3747 3.58953 12.8424 4.1548 13.1905C4.18866 13.2105 4.21625 13.2392 4.23456 13.2734C4.25288 13.3077 4.26121 13.3462 4.25865 13.3847C4.25822 13.4248 4.24567 13.4638 4.22257 13.4968C4.19947 13.5299 4.16685 13.5556 4.12884 13.5706L3.66151 13.748C3.55084 13.7953 3.46376 13.8833 3.4192 13.9929C3.39587 14.0464 3.38384 14.1038 3.38384 14.1619C3.38384 14.2199 3.39587 14.2774 3.4192 14.3308C3.67284 14.8726 4.05732 15.3462 4.53965 15.711C5.02198 16.0759 5.58778 16.3211 6.18853 16.4257C6.23124 16.4382 6.26941 16.4623 6.29855 16.4952C6.32768 16.5281 6.34656 16.5685 6.35295 16.6115C6.35723 16.6568 6.34705 16.7022 6.3238 16.7415C6.30055 16.7808 6.26539 16.8122 6.22314 16.8312C5.05085 17.2997 3.79454 17.5352 2.52782 17.5238C2.41306 17.5014 2.29388 17.5244 2.1965 17.5878C2.09912 17.6512 2.03152 17.7497 2.00857 17.8617C1.98562 17.9737 2.0092 18.0901 2.07411 18.1851C2.13903 18.2802 2.23998 18.3461 2.35474 18.3685C4.5582 19.3926 6.9593 19.9482 9.39922 19.9988C11.5448 20.0298 13.6521 19.4421 15.4571 18.3094C16.9426 17.3433 18.1596 16.033 18.9993 14.4955C19.839 12.958 20.2751 11.2414 20.2688 9.49907V8.76417C20.2688 8.70274 20.2827 8.64206 20.3096 8.58654C20.3366 8.53102 20.3759 8.48205 20.4246 8.44318L21.8439 7.28593Z" fill="#171717"/>
</svg>
