<svg width="24" height="24" viewBox="0 0 24 24" fill="none" xmlns="http://www.w3.org/2000/svg">
<path d="M1.78534 6.59C1.98429 6.59 2.18325 6.52 2.34031 6.37L7.43979 1.5H16.5497L21.6492 6.37C21.9529 6.66 22.4555 6.66 22.7592 6.37C23.0628 6.08 23.0628 5.6 22.7592 5.31L17.4293 0.22C17.2827 0.08 17.0838 0 16.8743 0H7.11518C6.90576 0 6.70681 0.08 6.56021 0.22L1.23037 5.31C0.926702 5.6 0.926702 6.08 1.23037 6.37C1.38743 6.52 1.58639 6.59 1.78534 6.59Z" fill="#171717"/>
<path d="M21.6492 17.63L16.5497 22.5H7.43979L2.34031 17.63C2.03665 17.34 1.53403 17.34 1.23037 17.63C0.926702 17.92 0.926702 18.4 1.23037 18.69L6.56021 23.78C6.70681 23.92 6.90576 24 7.11518 24H16.8743C17.0838 24 17.2827 23.92 17.4293 23.78L22.7592 18.69C23.0628 18.4 23.0628 17.92 22.7592 17.63C22.4555 17.34 21.9529 17.34 21.6492 17.63Z" fill="#171717"/>
<path d="M8.8534 15.75C9.28272 15.75 9.63874 15.41 9.63874 15V9.75H10.4241C10.8534 9.75 11.2094 9.41 11.2094 9C11.2094 8.59 10.8534 8.25 10.4241 8.25H7.28272C6.8534 8.25 6.49738 8.59 6.49738 9C6.49738 9.41 6.8534 9.75 7.28272 9.75H8.06806V15C8.06806 15.41 8.42408 15.75 8.8534 15.75Z" fill="#171717"/>
<path d="M12.6859 8.91C12.2356 9.33 11.9948 9.9 11.9948 10.5V13.5C11.9948 14.1 12.2356 14.67 12.6859 15.09C13.1257 15.51 13.7225 15.75 14.3508 15.75C14.9791 15.75 15.5759 15.52 16.0157 15.09C16.4555 14.66 16.7068 14.1 16.7068 13.5V10.5C16.7068 9.9 16.466 9.33 16.0157 8.91C15.1361 8.07 13.5759 8.06 12.6859 8.91ZM15.1361 13.5C15.1361 13.7 15.0524 13.89 14.9058 14.03C14.6126 14.31 14.089 14.31 13.7958 14.03C13.6492 13.89 13.5654 13.7 13.5654 13.5V10.5C13.5654 10.3 13.6492 10.11 13.7958 9.97C13.9424 9.83 14.1414 9.75 14.3508 9.75C14.5602 9.75 14.7592 9.83 14.9058 9.97C15.0524 10.11 15.1361 10.3 15.1361 10.5V13.5Z" fill="#171717"/>
<path d="M3.35602 14.25H1.78534C1.35602 14.25 1 14.59 1 15C1 15.41 1.35602 15.75 1.78534 15.75H3.35602C3.98429 15.75 4.58115 15.52 5.02094 15.09C5.4712 14.67 5.71204 14.1 5.71204 13.5C5.71204 11.79 4.36126 11.47 3.5445 11.27C2.67539 11.06 2.57068 10.98 2.57068 10.5C2.57068 10.3 2.65445 10.11 2.80105 9.97C2.94764 9.83 3.1466 9.75 3.35602 9.75H4.9267C5.35602 9.75 5.71204 9.41 5.71204 9C5.71204 8.59 5.35602 8.25 4.9267 8.25H3.35602C2.72775 8.25 2.13089 8.48 1.6911 8.91C1.24084 9.33 1 9.9 1 10.5C1 12.21 2.35079 12.53 3.16754 12.73C4.03665 12.94 4.14136 13.02 4.14136 13.5C4.14136 13.7 4.05759 13.89 3.911 14.03C3.7644 14.17 3.56545 14.25 3.35602 14.25Z" fill="#171717"/>
<path d="M20.2461 8.25H19.0733C18.6335 8.25 18.2775 8.59 18.2775 9V15C18.2775 15.41 18.6335 15.75 19.0628 15.75C19.4921 15.75 19.8482 15.41 19.8482 15V13.5H20.2461C20.9791 13.5 21.6702 13.23 22.1937 12.73C22.7068 12.24 23 11.56 23 10.87C23 10.17 22.7173 9.51 22.1937 9.01C21.6702 8.52 20.9791 8.25 20.2461 8.25ZM21.0733 11.67C20.8534 11.88 20.5497 12 20.2461 12H19.8482V9.75H20.2461C20.5602 9.75 20.8534 9.87 21.0733 10.08C21.2932 10.29 21.4188 10.58 21.4188 10.88C21.4188 11.17 21.2932 11.46 21.0733 11.67Z" fill="#171717"/>
</svg>
