<svg width="24" height="24" viewBox="0 0 24 24" fill="none" xmlns="http://www.w3.org/2000/svg">
<path d="M2.25 6.59C2.44 6.59 2.63 6.52 2.78 6.37L7.65 1.5H16.35L21.22 6.37C21.51 6.66 21.99 6.66 22.28 6.37C22.57 6.08 22.57 5.6 22.28 5.31L17.19 0.22C17.05 0.08 16.86 0 16.66 0H7.34C7.14 0 6.95 0.08 6.81 0.22L1.72 5.31C1.43 5.6 1.43 6.08 1.72 6.37C1.87 6.52 2.06 6.59 2.25 6.59Z" fill="#171717"/>
<path d="M21.22 17.6301L16.35 22.5001H7.65L2.78 17.6301C2.49 17.3401 2.01 17.3401 1.72 17.6301C1.43 17.9201 1.43 18.4001 1.72 18.6901L6.81 23.7801C6.95 23.9201 7.14 24.0001 7.34 24.0001H16.66C16.86 24.0001 17.05 23.9201 17.19 23.7801L22.28 18.6901C22.57 18.4001 22.57 17.9201 22.28 17.6301C21.99 17.3401 21.51 17.3401 21.22 17.6301Z" fill="#171717"/>
<path d="M9 15.75C9.41 15.75 9.75 15.41 9.75 15V9.75H10.5C10.91 9.75 11.25 9.41 11.25 9C11.25 8.59 10.91 8.25 10.5 8.25H7.5C7.09 8.25 6.75 8.59 6.75 9C6.75 9.41 7.09 9.75 7.5 9.75H8.25V15C8.25 15.41 8.59 15.75 9 15.75Z" fill="#171717"/>
<path d="M12.66 8.90988C12.23 9.32988 12 9.89988 12 10.4999V13.4999C12 14.0999 12.23 14.6699 12.66 15.0899C13.08 15.5099 13.65 15.7499 14.25 15.7499C14.85 15.7499 15.42 15.5199 15.84 15.0899C16.26 14.6599 16.5 14.0999 16.5 13.4999V10.4999C16.5 9.89988 16.27 9.32988 15.84 8.90988C15 8.06988 13.51 8.05988 12.66 8.90988ZM15 13.4999C15 13.6999 14.92 13.8899 14.78 14.0299C14.5 14.3099 14 14.3099 13.72 14.0299C13.58 13.8899 13.5 13.6999 13.5 13.4999V10.4999C13.5 10.2999 13.58 10.1099 13.72 9.96988C13.86 9.82988 14.05 9.74988 14.25 9.74988C14.45 9.74988 14.64 9.82988 14.78 9.96988C14.92 10.1099 15 10.2999 15 10.4999V13.4999Z" fill="#171717"/>
<path d="M3.75 14.25H2.25C1.84 14.25 1.5 14.59 1.5 15C1.5 15.41 1.84 15.75 2.25 15.75H3.75C4.35 15.75 4.92 15.52 5.34 15.09C5.77 14.67 6 14.1 6 13.5C6 11.79 4.71 11.47 3.93 11.27C3.1 11.06 3 10.98 3 10.5C3 10.3 3.08 10.11 3.22 9.97C3.36 9.83 3.55 9.75 3.75 9.75H5.25C5.66 9.75 6 9.41 6 9C6 8.59 5.66 8.25 5.25 8.25H3.75C3.15 8.25 2.58 8.48 2.16 8.91C1.73 9.33 1.5 9.9 1.5 10.5C1.5 12.21 2.79 12.53 3.57 12.73C4.4 12.94 4.5 13.02 4.5 13.5C4.5 13.7 4.42 13.89 4.28 14.03C4.14 14.17 3.95 14.25 3.75 14.25Z" fill="#171717"/>
<path d="M19.88 8.25H18.76C18.34 8.25 18 8.59 18 9V15C18 15.41 18.34 15.75 18.75 15.75C19.16 15.75 19.5 15.41 19.5 15V13.5H19.88C20.58 13.5 21.24 13.23 21.74 12.73C22.23 12.24 22.51 11.56 22.51 10.87C22.51 10.17 22.24 9.51 21.74 9.01C21.24 8.52 20.58 8.25 19.88 8.25ZM20.67 11.67C20.46 11.88 20.17 12 19.88 12H19.5V9.75H19.88C20.18 9.75 20.46 9.87 20.67 10.08C20.88 10.29 21 10.58 21 10.88C21 11.17 20.88 11.46 20.67 11.67Z" fill="#171717"/>
</svg>
