<svg width="24" height="24" viewBox="0 0 24 24" fill="none" xmlns="http://www.w3.org/2000/svg">
<path opacity="0.2" d="M3 5C3 2.79086 4.79086 1 7 1H17C19.2091 1 21 2.79086 21 5V15C21 17.2091 19.2091 19 17 19H7C4.79086 19 3 17.2091 3 15V5Z" fill="#0A0B0D"/>
<path fill-rule="evenodd" clip-rule="evenodd" d="M6.40141 1.00838C5.76104 1.05931 5.16518 1.26297 4.64619 1.60829C4.10642 1.96745 3.68392 2.44314 3.39759 3.01412C3.26448 3.27955 3.18854 3.48 3.1192 3.74892C3.05721 3.98935 3.02461 4.19742 3.00892 4.45292C2.9968 4.65037 2.99714 16.018 3.00928 16.2141C3.075 17.2762 3.57542 18.2304 4.41261 18.89C4.86501 19.2464 5.43582 19.5028 6.00582 19.6057C6.31376 19.6612 6.25678 19.6593 7.60701 19.6593H8.83901L8.92379 19.6359C9.09416 19.5888 9.23034 19.5119 9.35743 19.3911C9.6051 19.1557 9.71233 18.8346 9.6571 18.4941C9.59981 18.1408 9.33412 17.8302 8.99046 17.7149C8.84472 17.6659 8.85155 17.6662 7.68495 17.6662C7.01567 17.6661 6.57569 17.6627 6.51894 17.6571C6.12551 17.6181 5.7762 17.4549 5.49901 17.1806C5.24382 16.9281 5.08777 16.6258 5.02269 16.2581C5.01306 16.2037 5.01101 15.1612 5.01101 10.3225V4.45292L5.03485 4.34273C5.11064 3.99254 5.26611 3.71093 5.51824 3.46719C5.81212 3.18309 6.16428 3.03018 6.58181 3.00539C6.77993 2.99362 17.2253 2.99362 17.4234 3.00539C17.6648 3.01972 17.8601 3.07032 18.0702 3.17295C18.5734 3.41877 18.923 3.91399 18.9896 4.47492C18.9969 4.53637 18.9987 6.1033 18.9964 10.3885C18.9935 15.7725 18.9922 16.2238 18.9787 16.2872C18.901 16.6535 18.754 16.9322 18.5093 17.1768C18.2325 17.4534 17.8823 17.6179 17.4863 17.6571C17.4295 17.6627 16.9896 17.6661 16.3203 17.6662C15.1509 17.6662 15.1598 17.6659 15.0129 17.7157C14.7292 17.8119 14.4758 18.0657 14.3868 18.343C14.2641 18.7247 14.3626 19.1185 14.6491 19.392C14.7704 19.5077 14.9169 19.5907 15.0782 19.6351L15.1662 19.6593H16.4026C17.6331 19.6593 17.6397 19.6592 17.7851 19.6396C18.762 19.508 19.5924 19.0431 20.2016 18.2865C20.6728 17.7013 20.9484 16.9823 20.9959 16.2141C21.0081 16.018 21.0084 4.65037 20.9963 4.45292C20.9716 4.05041 20.8932 3.69299 20.7491 3.32639C20.3874 2.40568 19.6771 1.6778 18.7566 1.28456C18.6305 1.23067 18.3551 1.1396 18.2135 1.10497C18.01 1.0552 17.8218 1.02589 17.5911 1.00806C17.4493 0.997104 6.53924 0.997421 6.40141 1.00838ZM11.8945 7.67035C11.7341 7.6858 11.5934 7.73671 11.4465 7.83243C11.3954 7.86566 10.9644 8.29161 9.35071 9.90359C8.23338 11.0197 7.28885 11.9674 7.25175 12.0094C7.09597 12.1862 7.01834 12.3772 7.00683 12.6122C6.99342 12.8864 7.07451 13.1242 7.24837 13.3206C7.39898 13.4907 7.57604 13.5979 7.78301 13.6441C7.92196 13.6751 8.14254 13.6693 8.27756 13.6311C8.37584 13.6032 8.51322 13.536 8.59261 13.4769C8.62651 13.4516 9.18162 12.9041 9.82681 12.2596L10.9994 11.0883L10.9996 16.531C10.9996 20.0524 11.0028 22.0109 11.0084 22.0791C11.035 22.4001 11.1939 22.6643 11.4702 22.8473C11.7742 23.0486 12.2256 23.0501 12.5344 22.8507C12.7305 22.7241 12.8832 22.5318 12.9527 22.324C13.01 22.1524 13.0057 22.6149 13.0058 16.5795L13.0058 11.0885L14.174 12.2554C14.9948 13.0754 15.3642 13.4386 15.4163 13.4768C15.6107 13.6195 15.8413 13.6815 16.1008 13.6609C16.3194 13.6434 16.5324 13.5458 16.7005 13.3861C16.7923 13.2988 16.9045 13.1299 16.9442 13.0194C16.9821 12.9136 16.9937 12.8469 16.9983 12.7073C17.0067 12.4547 16.9572 12.2792 16.826 12.0956C16.7584 12.0011 12.6961 7.93345 12.5886 7.85264C12.4526 7.75047 12.287 7.68836 12.1007 7.66966C12.001 7.65966 12.0055 7.65965 11.8945 7.67035Z" fill="#0A0B0D"/>
</svg>
