<svg width="24" height="24" viewBox="0 0 24 24" fill="none" xmlns="http://www.w3.org/2000/svg">
<path opacity="0.2" d="M3 5C3 2.79086 4.79086 1 7 1H17C19.2091 1 21 2.79086 21 5V15C21 17.2091 19.2091 19 17 19H7C4.79086 19 3 17.2091 3 15V5Z" fill="#101C2D"/>
<path fill-rule="evenodd" clip-rule="evenodd" d="M5.72282 0.01478C4.53597 0.122358 3.48129 0.761199 2.83098 1.76641C2.74907 1.89302 2.68406 2.01081 2.60212 2.18113C2.39114 2.61961 2.27195 3.06818 2.2366 3.55681C2.22921 3.65892 2.22711 5.6038 2.22939 10.2432L2.2326 16.7856L2.25345 16.9296C2.3304 17.4612 2.46491 17.8757 2.69749 18.2979C3.26404 19.3265 4.27703 20.0477 5.4191 20.2356C5.73948 20.2884 5.91441 20.2941 7.1903 20.2942C8.24763 20.2942 8.40579 20.2902 8.51971 20.2605C8.80503 20.186 9.05329 19.9366 9.13097 19.6464C9.1585 19.5436 9.1616 19.3244 9.13694 19.2232C9.06306 18.9196 8.83091 18.6782 8.52178 18.5834L8.4527 18.5622L7.1519 18.5565C6.20342 18.5523 5.83305 18.5476 5.78444 18.5391C5.56607 18.5012 5.43132 18.4643 5.2655 18.3969C5.01036 18.2932 4.79933 18.1544 4.59924 17.9587C4.25605 17.623 4.05852 17.2349 3.97769 16.7376C3.96135 16.6371 3.96038 16.3268 3.95739 10.2912C3.95531 6.09161 3.95753 3.88719 3.96397 3.76321C3.97824 3.48897 4.02084 3.28303 4.10927 3.0609C4.396 2.34059 5.06163 1.83242 5.82913 1.74788C5.95548 1.73396 18.0434 1.73351 18.1679 1.74742C18.4617 1.78024 18.7792 1.88815 19.0271 2.03937C19.4815 2.31668 19.8164 2.75628 19.9588 3.2625C20.0042 3.42359 20.0253 3.56119 20.0358 3.76321C20.0423 3.88718 20.0445 6.09183 20.0424 10.2912C20.0395 16.154 20.0381 16.6393 20.0233 16.7284C19.9865 16.9504 19.9414 17.1102 19.8649 17.2896C19.6849 17.7117 19.3377 18.089 18.9296 18.3062C18.7161 18.4198 18.5039 18.489 18.2154 18.5391C18.1668 18.5476 17.7964 18.5523 16.8479 18.5565L15.5471 18.5622L15.4767 18.5838C15.2441 18.6549 15.0408 18.8244 14.933 19.0368C14.8395 19.221 14.8188 19.4745 14.8808 19.6762C14.9477 19.894 15.1066 20.0844 15.3118 20.1924C15.4147 20.2467 15.5087 20.2729 15.6431 20.2848C15.7823 20.2972 17.8047 20.297 18.0863 20.2846C18.3612 20.2725 18.5633 20.247 18.7823 20.1969C19.924 19.9359 20.8807 19.1769 21.3882 18.1296C21.5819 17.73 21.6933 17.3477 21.7506 16.8864C21.7671 16.7536 21.7679 16.4463 21.7679 10.152C21.7679 3.0535 21.771 3.49495 21.7189 3.18721C21.6544 2.80702 21.5427 2.46917 21.3633 2.11201C20.8115 1.0134 19.7608 0.242588 18.5512 0.0488696C18.2295 -0.00265356 18.5972 1.52417e-05 11.9807 0.00118644C7.03827 0.00206964 5.83417 0.00468084 5.72282 0.01478ZM11.8847 7.42663C11.7302 7.45594 11.6318 7.49311 11.5247 7.5625C11.4725 7.59637 10.957 8.10614 9.20813 9.85344C7.97097 11.0895 6.92967 12.1354 6.89414 12.1776C6.81468 12.2721 6.78856 12.3124 6.7501 12.4C6.70065 12.5127 6.68741 12.5837 6.68682 12.7392C6.68621 12.903 6.70154 12.9804 6.75876 13.1025C6.8095 13.2108 6.86596 13.2873 6.96212 13.3782C7.10057 13.509 7.25312 13.5804 7.44312 13.603C7.64911 13.6276 7.8512 13.5818 8.01907 13.4724C8.07267 13.4375 8.42509 13.0907 9.61186 11.9051L11.1358 10.3826L11.1383 16.8385L11.1407 23.2944L11.1677 23.3808C11.2441 23.6257 11.4164 23.8221 11.6477 23.9277C11.7513 23.9751 11.8272 23.9916 11.9663 23.997C12.1237 24.0031 12.2424 23.9812 12.3616 23.9241C12.4629 23.8754 12.517 23.8385 12.5938 23.7654C12.731 23.6348 12.8066 23.505 12.852 23.3219C12.8672 23.2603 12.8685 22.8413 12.871 16.8242L12.8737 10.3924L14.3832 11.9005C15.3388 12.8551 15.9156 13.4244 15.9551 13.4519C16.0825 13.5406 16.1961 13.5841 16.349 13.6028C16.7125 13.6474 17.0591 13.4639 17.2292 13.1368C17.2983 13.004 17.3135 12.9333 17.3135 12.744C17.3135 12.603 17.3105 12.5706 17.2918 12.5059C17.2683 12.4248 17.2297 12.3423 17.1764 12.2592C17.1389 12.2007 12.6198 7.67061 12.5262 7.59766C12.447 7.53589 12.3433 7.4831 12.2447 7.45432C12.1762 7.4343 12.1325 7.42837 12.0335 7.42559C11.9649 7.42366 11.8979 7.42413 11.8847 7.42663Z" fill="#101C2D"/>
</svg>
