<svg width="24" height="24" viewBox="0 0 24 24" fill="none" xmlns="http://www.w3.org/2000/svg">
<path fill-rule="evenodd" clip-rule="evenodd" d="M12 2C12.5523 2 13 2.44772 13 3V5C13 5.55228 12.5523 6 12 6C11.4477 6 11 5.55228 11 5V3C11 2.44772 11.4477 2 12 2ZM4.1928 5.1928C4.58332 4.80227 5.21648 4.80227 5.60701 5.1928L7.02122 6.60701C7.41175 6.99753 7.41175 7.6307 7.02122 8.02122C6.6307 8.41175 5.99753 8.41175 5.60701 8.02122L4.1928 6.60701C3.80227 6.21648 3.80227 5.58332 4.1928 5.1928ZM19.8069 5.1928C20.1974 5.58332 20.1974 6.21648 19.8069 6.60701L18.3927 8.02122C18.0021 8.41175 17.369 8.41175 16.9784 8.02122C16.5879 7.6307 16.5879 6.99753 16.9784 6.60701L18.3927 5.1928C18.7832 4.80227 19.4163 4.80227 19.8069 5.1928ZM12 9C9.79086 9 8 10.7909 8 13C8 13.5523 7.55228 14 7 14C6.44772 14 6 13.5523 6 13C6 9.68629 8.68629 7 12 7C15.3137 7 18 9.68629 18 13C18 13.5523 17.5523 14 17 14C16.4477 14 16 13.5523 16 13C16 10.7909 14.2091 9 12 9ZM1 13C1 12.4477 1.44772 12 2 12H4C4.55228 12 5 12.4477 5 13C5 13.5523 4.55228 14 4 14H2C1.44772 14 1 13.5523 1 13ZM19 13C19 12.4477 19.4477 12 20 12H22C22.5523 12 23 12.4477 23 13C23 13.5523 22.5523 14 22 14H20C19.4477 14 19 13.5523 19 13ZM5.64629 18.3229C4.69922 17.8924 3.46098 17.8924 2.5139 18.3229C2.01112 18.5514 1.41827 18.3291 1.18973 17.8263C0.961194 17.3235 1.18351 16.7307 1.68629 16.5021C3.15922 15.8326 5.00098 15.8326 6.4739 16.5021C7.42098 16.9326 8.65922 16.9326 9.60629 16.5021C11.0792 15.8326 12.921 15.8326 14.3939 16.5021C15.341 16.9326 16.5792 16.9326 17.5263 16.5021C18.9992 15.8326 20.841 15.8326 22.3139 16.5021C22.8167 16.7307 23.039 17.3235 22.8105 17.8263C22.5819 18.3291 21.9891 18.5514 21.4863 18.3229C20.5392 17.8924 19.301 17.8924 18.3539 18.3229C16.881 18.9924 15.0392 18.9924 13.5663 18.3229C12.6192 17.8924 11.381 17.8924 10.4339 18.3229C8.96098 18.9924 7.11922 18.9924 5.64629 18.3229ZM13.5663 21.8229C12.6192 21.3924 11.3809 21.3924 10.4339 21.8229C8.96094 22.4924 7.11918 22.4924 5.64626 21.8229C5.14347 21.5943 4.92115 21.0015 5.14969 20.4987C5.37823 19.9959 5.97108 19.7736 6.47386 20.0021C7.42094 20.4326 8.65918 20.4326 9.60626 20.0021C11.0792 19.3326 12.9209 19.3326 14.3939 20.0021C15.3409 20.4326 16.5792 20.4326 17.5263 20.0021C18.029 19.7736 18.6219 19.9959 18.8504 20.4987C19.079 21.0015 18.8566 21.5943 18.3539 21.8229C16.8809 22.4924 15.0392 22.4924 13.5663 21.8229Z" fill="#0A0B0D"/>
</svg>
