<svg width="24" height="24" viewBox="0 0 24 24" fill="none" xmlns="http://www.w3.org/2000/svg">
<g clip-path="url(#clip0_2862_16041)">
<path d="M23.16 22.49C22.46 22.57 21.74 22.5 21.07 22.28C20.4 22.06 19.78 21.68 19.27 21.19C19.12 21.05 18.93 20.98 18.72 20.98C18.52 20.99 18.33 21.08 18.19 21.23C17.83 21.63 17.4 21.94 16.91 22.15C15.93 22.58 14.81 22.59 13.83 22.15C13.34 21.93 12.91 21.62 12.55 21.23C12.27 20.92 11.72 20.92 11.44 21.23C11.08 21.63 10.65 21.94 10.16 22.15C9.18001 22.59 8.06001 22.59 7.08001 22.15C6.59001 21.93 6.16001 21.62 5.80001 21.23C5.66001 21.08 5.47001 20.99 5.27001 20.98C5.08001 20.98 4.87001 21.05 4.72001 21.19C4.21001 21.68 3.59001 22.05 2.92001 22.28C2.25001 22.5 1.53001 22.57 0.830011 22.49C0.420011 22.44 0.040011 22.73 -0.00998904 23.14C-0.059989 23.55 0.230011 23.93 0.640011 23.98C1.56001 24.09 2.51001 24 3.39001 23.71C4.04001 23.49 4.66001 23.17 5.20001 22.75C5.58001 23.07 6.00001 23.33 6.45001 23.53C7.81001 24.14 9.39001 24.14 10.75 23.53C11.19 23.33 11.6 23.08 11.97 22.77C12.34 23.08 12.75 23.33 13.19 23.53C14.55 24.14 16.13 24.14 17.49 23.53C17.95 23.33 18.37 23.07 18.74 22.75C19.29 23.17 19.9 23.49 20.55 23.71C21.19 23.92 21.86 24.03 22.54 24.03C22.8 24.03 23.05 24.01 23.3 23.98C23.71 23.93 24 23.56 23.95 23.14C23.94 22.73 23.57 22.43 23.16 22.49Z" fill="#171717"/>
<path d="M23.16 17.99C22.46 18.07 21.74 18 21.07 17.78C20.4 17.56 19.78 17.18 19.27 16.69C19.12 16.55 18.93 16.48 18.72 16.48C18.52 16.49 18.33 16.58 18.19 16.73C17.83 17.13 17.4 17.44 16.91 17.65C15.93 18.08 14.81 18.09 13.83 17.65C13.34 17.43 12.91 17.12 12.55 16.73C12.27 16.42 11.72 16.42 11.44 16.73C11.08 17.13 10.65 17.44 10.16 17.65C9.18002 18.09 8.06002 18.09 7.08002 17.65C6.59002 17.43 6.16002 17.12 5.80002 16.73C5.66002 16.58 5.47002 16.49 5.27002 16.48C5.08002 16.48 4.87002 16.55 4.72002 16.69C4.21002 17.18 3.59002 17.55 2.92002 17.78C2.26002 18 1.54002 18.07 0.840021 17.99C0.430021 17.94 0.0500207 18.23 2.0727e-05 18.64C-0.0499793 19.05 0.240021 19.43 0.650021 19.48C1.57002 19.59 2.52002 19.5 3.40002 19.21C4.05002 18.99 4.67002 18.67 5.21002 18.25C5.59002 18.57 6.01002 18.83 6.46002 19.03C7.82002 19.64 9.40002 19.64 10.76 19.03C11.2 18.83 11.61 18.58 11.98 18.27C12.35 18.58 12.76 18.83 13.2 19.03C14.56 19.64 16.14 19.64 17.5 19.03C17.96 18.83 18.38 18.57 18.75 18.25C19.3 18.67 19.91 18.99 20.56 19.21C21.2 19.42 21.87 19.53 22.55 19.53C22.81 19.53 23.06 19.51 23.31 19.48C23.72 19.43 24.01 19.06 23.96 18.64C23.94 18.23 23.57 17.93 23.16 17.99Z" fill="#171717"/>
<path d="M18.97 5.75992C19.12 5.90992 19.31 5.97992 19.5 5.97992C19.69 5.97992 19.88 5.90992 20.03 5.75992L21.53 4.25992C21.82 3.96992 21.82 3.48992 21.53 3.19992C21.24 2.90992 20.76 2.90992 20.47 3.19992L19.5 4.16992L18.53 3.19992C18.24 2.90992 17.76 2.90992 17.47 3.19992C17.18 3.48992 17.18 3.96992 17.47 4.25992L18.97 5.75992Z" fill="#171717"/>
<path d="M20.78 8.44992C20.49 8.15992 20.01 8.15992 19.72 8.44992C19.43 8.73992 19.43 9.21992 19.72 9.50992L21.22 11.0099C21.37 11.1599 21.56 11.2299 21.75 11.2299C21.94 11.2299 22.13 11.1599 22.28 11.0099L23.78 9.50992C24.07 9.21992 24.07 8.73992 23.78 8.44992C23.49 8.15992 23.01 8.15992 22.72 8.44992L21.75 9.41992L20.78 8.44992Z" fill="#171717"/>
<path d="M3.75 5.97998C3.75 7.62998 5.1 8.97998 6.75 8.97998C8.4 8.97998 9.75 7.62998 9.75 5.97998C9.75 4.32998 8.4 2.97998 6.75 2.97998C5.1 2.97998 3.75 4.32998 3.75 5.97998ZM6.75 4.47998C7.58 4.47998 8.25 5.14998 8.25 5.97998C8.25 6.80998 7.58 7.47998 6.75 7.47998C5.92 7.47998 5.25 6.80998 5.25 5.97998C5.25 5.14998 5.92 4.47998 6.75 4.47998Z" fill="#171717"/>
<path d="M11.25 6.72998H12.75C13.16 6.72998 13.5 6.38998 13.5 5.97998C13.5 5.56998 13.16 5.22998 12.75 5.22998H11.25C10.84 5.22998 10.5 5.56998 10.5 5.97998C10.5 6.38998 10.84 6.72998 11.25 6.72998Z" fill="#171717"/>
<path d="M0.75 6.72998H2.25C2.66 6.72998 3 6.38998 3 5.97998C3 5.56998 2.66 5.22998 2.25 5.22998H0.75C0.34 5.22998 0 5.56998 0 5.97998C0 6.38998 0.34 6.72998 0.75 6.72998Z" fill="#171717"/>
<path d="M8.63 2.67985C8.74 2.74985 8.87 2.77985 9 2.77985C9.26 2.77985 9.51 2.64985 9.65 2.39985L10.4 1.09985C10.61 0.73985 10.48 0.27985 10.13 0.0798497C9.78 -0.12015 9.31 -0.000150323 9.1 0.34985L8.35 1.64985C8.14 2.00985 8.27 2.46985 8.63 2.67985Z" fill="#171717"/>
<path d="M3.38 11.88C3.5 11.95 3.63 11.98 3.75 11.98C4.01 11.98 4.26 11.85 4.4 11.6L5.15 10.3C5.36 9.93999 5.23 9.47999 4.88 9.27999C4.52 9.06999 4.06 9.19999 3.85 9.55999L3.1 10.86C2.89 11.21 3.02 11.67 3.38 11.88Z" fill="#171717"/>
<path d="M3.85 2.3999C3.99 2.6399 4.24 2.7799 4.5 2.7799C4.63 2.7799 4.76 2.7499 4.87 2.6799C5.23 2.4699 5.35 2.0099 5.14 1.6599L4.4 0.349899C4.19 -0.000101358 3.73 -0.130101 3.38 0.0798986C3.02 0.289899 2.89 0.749899 3.1 1.0999L3.85 2.3999Z" fill="#171717"/>
<path d="M9.65002 9.55999C9.44002 9.19999 8.98002 9.06999 8.63002 9.27999C8.27002 9.48999 8.15002 9.94999 8.36002 10.3L9.11002 11.6C9.25002 11.84 9.50002 11.98 9.76002 11.98C9.89002 11.98 10.02 11.95 10.13 11.88C10.49 11.67 10.61 11.21 10.4 10.86L9.65002 9.55999Z" fill="#171717"/>
</g>
<defs>
<clipPath id="clip0_2862_16041">
<rect width="24" height="24" fill="white"/>
</clipPath>
</defs>
</svg>
