<svg width="24" height="24" viewBox="0 0 24 24" fill="none" xmlns="http://www.w3.org/2000/svg">
<g clip-path="url(#clip0_2862_16041)">
<path d="M23.16 22.4899C22.46 22.5699 21.74 22.4999 21.07 22.2799C20.4 22.0599 19.78 21.6799 19.27 21.1899C19.12 21.0499 18.93 20.9799 18.72 20.9799C18.52 20.9899 18.33 21.0799 18.19 21.2299C17.83 21.6299 17.4 21.9399 16.91 22.1499C15.93 22.5799 14.81 22.5899 13.83 22.1499C13.34 21.9299 12.91 21.6199 12.55 21.2299C12.27 20.9199 11.72 20.9199 11.44 21.2299C11.08 21.6299 10.65 21.9399 10.16 22.1499C9.18001 22.5899 8.06001 22.5899 7.08001 22.1499C6.59001 21.9299 6.16001 21.6199 5.80001 21.2299C5.66001 21.0799 5.47001 20.9899 5.27001 20.9799C5.08001 20.9799 4.87001 21.0499 4.72001 21.1899C4.21001 21.6799 3.59001 22.0499 2.92001 22.2799C2.25001 22.4999 1.53001 22.5699 0.830011 22.4899C0.420011 22.4399 0.040011 22.7299 -0.00998904 23.1399C-0.059989 23.5499 0.230011 23.9299 0.640011 23.9799C1.56001 24.0899 2.51001 23.9999 3.39001 23.7099C4.04001 23.4899 4.66001 23.1699 5.20001 22.7499C5.58001 23.0699 6.00001 23.3299 6.45001 23.5299C7.81001 24.1399 9.39001 24.1399 10.75 23.5299C11.19 23.3299 11.6 23.0799 11.97 22.7699C12.34 23.0799 12.75 23.3299 13.19 23.5299C14.55 24.1399 16.13 24.1399 17.49 23.5299C17.95 23.3299 18.37 23.0699 18.74 22.7499C19.29 23.1699 19.9 23.4899 20.55 23.7099C21.19 23.9199 21.86 24.0299 22.54 24.0299C22.8 24.0299 23.05 24.0099 23.3 23.9799C23.71 23.9299 24 23.5599 23.95 23.1399C23.94 22.7299 23.57 22.4299 23.16 22.4899Z" fill="#171717"/>
<path d="M23.16 17.9899C22.46 18.0699 21.74 17.9999 21.07 17.7799C20.4 17.5599 19.78 17.1799 19.27 16.6899C19.12 16.5499 18.93 16.4799 18.72 16.4799C18.52 16.4899 18.33 16.5799 18.19 16.7299C17.83 17.1299 17.4 17.4399 16.91 17.6499C15.93 18.0799 14.81 18.0899 13.83 17.6499C13.34 17.4299 12.91 17.1199 12.55 16.7299C12.27 16.4199 11.72 16.4199 11.44 16.7299C11.08 17.1299 10.65 17.4399 10.16 17.6499C9.18001 18.0899 8.06001 18.0899 7.08001 17.6499C6.59001 17.4299 6.16001 17.1199 5.80001 16.7299C5.66001 16.5799 5.47001 16.4899 5.27001 16.4799C5.08001 16.4799 4.87001 16.5499 4.72001 16.6899C4.21001 17.1799 3.59001 17.5499 2.92001 17.7799C2.26001 17.9999 1.54001 18.0699 0.840011 17.9899C0.430011 17.9399 0.050011 18.2299 1.09607e-05 18.6399C-0.049989 19.0499 0.240011 19.4299 0.650011 19.4799C1.57001 19.5899 2.52001 19.4999 3.40001 19.2099C4.05001 18.9899 4.67001 18.6699 5.21001 18.2499C5.59001 18.5699 6.01001 18.8299 6.46001 19.0299C7.82001 19.6399 9.40001 19.6399 10.76 19.0299C11.2 18.8299 11.61 18.5799 11.98 18.2699C12.35 18.5799 12.76 18.8299 13.2 19.0299C14.56 19.6399 16.14 19.6399 17.5 19.0299C17.96 18.8299 18.38 18.5699 18.75 18.2499C19.3 18.6699 19.91 18.9899 20.56 19.2099C21.2 19.4199 21.87 19.5299 22.55 19.5299C22.81 19.5299 23.06 19.5099 23.31 19.4799C23.72 19.4299 24.01 19.0599 23.96 18.6399C23.94 18.2299 23.57 17.9299 23.16 17.9899Z" fill="#171717"/>
<path d="M18.97 5.7599C19.12 5.9099 19.31 5.9799 19.5 5.9799C19.69 5.9799 19.88 5.9099 20.03 5.7599L21.53 4.2599C21.82 3.9699 21.82 3.4899 21.53 3.1999C21.24 2.9099 20.76 2.9099 20.47 3.1999L19.5 4.1699L18.53 3.1999C18.24 2.9099 17.76 2.9099 17.47 3.1999C17.18 3.4899 17.18 3.9699 17.47 4.2599L18.97 5.7599Z" fill="#171717"/>
<path d="M20.78 8.4499C20.49 8.1599 20.01 8.1599 19.72 8.4499C19.43 8.7399 19.43 9.2199 19.72 9.5099L21.22 11.0099C21.37 11.1599 21.56 11.2299 21.75 11.2299C21.94 11.2299 22.13 11.1599 22.28 11.0099L23.78 9.5099C24.07 9.2199 24.07 8.7399 23.78 8.4499C23.49 8.1599 23.01 8.1599 22.72 8.4499L21.75 9.4199L20.78 8.4499Z" fill="#171717"/>
<path d="M3.75001 5.9799C3.75001 7.6299 5.10001 8.9799 6.75001 8.9799C8.40001 8.9799 9.75001 7.6299 9.75001 5.9799C9.75001 4.3299 8.40001 2.9799 6.75001 2.9799C5.10001 2.9799 3.75001 4.3299 3.75001 5.9799ZM6.75001 4.4799C7.58001 4.4799 8.25001 5.1499 8.25001 5.9799C8.25001 6.8099 7.58001 7.4799 6.75001 7.4799C5.92001 7.4799 5.25001 6.8099 5.25001 5.9799C5.25001 5.1499 5.92001 4.4799 6.75001 4.4799Z" fill="#171717"/>
<path d="M11.25 6.7299H12.75C13.16 6.7299 13.5 6.3899 13.5 5.9799C13.5 5.5699 13.16 5.2299 12.75 5.2299H11.25C10.84 5.2299 10.5 5.5699 10.5 5.9799C10.5 6.3899 10.84 6.7299 11.25 6.7299Z" fill="#171717"/>
<path d="M0.750011 6.7299H2.25001C2.66001 6.7299 3.00001 6.3899 3.00001 5.9799C3.00001 5.5699 2.66001 5.2299 2.25001 5.2299H0.750011C0.340011 5.2299 1.09607e-05 5.5699 1.09607e-05 5.9799C1.09607e-05 6.3899 0.340011 6.7299 0.750011 6.7299Z" fill="#171717"/>
<path d="M8.63001 2.6799C8.74001 2.7499 8.87001 2.7799 9.00001 2.7799C9.26001 2.7799 9.51001 2.6499 9.65001 2.3999L10.4 1.0999C10.61 0.739899 10.48 0.279899 10.13 0.0798986C9.78001 -0.120101 9.31001 -0.000101388 9.10001 0.349899L8.35001 1.6499C8.14001 2.0099 8.27001 2.4699 8.63001 2.6799Z" fill="#171717"/>
<path d="M3.38001 11.8799C3.50001 11.9499 3.63001 11.9799 3.75001 11.9799C4.01001 11.9799 4.26001 11.8499 4.40001 11.5999L5.15001 10.2999C5.36001 9.9399 5.23001 9.4799 4.88001 9.2799C4.52001 9.0699 4.06001 9.1999 3.85001 9.5599L3.10001 10.8599C2.89001 11.2099 3.02001 11.6699 3.38001 11.8799Z" fill="#171717"/>
<path d="M3.85001 2.3999C3.99001 2.6399 4.24001 2.7799 4.50001 2.7799C4.63001 2.7799 4.76001 2.7499 4.87001 2.6799C5.23001 2.4699 5.35001 2.0099 5.14001 1.6599L4.40001 0.349899C4.19001 -0.000101358 3.73001 -0.130101 3.38001 0.0798986C3.02001 0.289899 2.89001 0.749899 3.10001 1.0999L3.85001 2.3999Z" fill="#171717"/>
<path d="M9.65001 9.5599C9.44001 9.1999 8.98001 9.0699 8.63001 9.2799C8.27001 9.4899 8.15001 9.9499 8.36001 10.2999L9.11001 11.5999C9.25001 11.8399 9.50001 11.9799 9.76001 11.9799C9.89001 11.9799 10.02 11.9499 10.13 11.8799C10.49 11.6699 10.61 11.2099 10.4 10.8599L9.65001 9.5599Z" fill="#171717"/>
</g>
<defs>
<clipPath id="clip0_2862_16041">
<rect width="24" height="24" fill="white"/>
</clipPath>
</defs>
</svg>
