<svg width="24" height="24" viewBox="0 0 24 24" fill="none" xmlns="http://www.w3.org/2000/svg">
<path d="M23.163 22.4633C22.4633 22.5431 21.7437 22.4733 21.0741 22.2537C20.4045 22.0342 19.7848 21.655 19.2751 21.166C19.1252 21.0263 18.9353 20.9565 18.7254 20.9565C18.5255 20.9665 18.3356 21.0563 18.1957 21.206C17.8359 21.6051 17.4061 21.9144 16.9164 22.124C15.9369 22.5531 14.8175 22.5631 13.838 22.124C13.3483 21.9045 12.9186 21.5951 12.5587 21.206C12.2789 20.8966 11.7292 20.8966 11.4494 21.206C11.0896 21.6051 10.6598 21.9144 10.1701 22.124C9.19059 22.5631 8.0712 22.5631 7.09173 22.124C6.602 21.9045 6.17224 21.5951 5.81243 21.206C5.67251 21.0563 5.48261 20.9665 5.28272 20.9565C5.09282 20.9565 4.88294 21.0263 4.73302 21.166C4.2233 21.655 3.60364 22.0242 2.934 22.2537C2.26437 22.4733 1.54476 22.5431 0.845144 22.4633C0.435368 22.4134 0.0555751 22.7028 0.00560238 23.1119C-0.0443703 23.521 0.245471 23.9002 0.655248 23.9501C1.57475 24.0599 2.52423 23.9701 3.40375 23.6807C4.05339 23.4611 4.67305 23.1418 5.21276 22.7227C5.59255 23.042 6.01232 23.3015 6.46208 23.5011C7.82133 24.1098 9.40047 24.1098 10.7597 23.5011C11.1995 23.3015 11.6093 23.052 11.9791 22.7427C12.3489 23.052 12.7586 23.3015 13.1984 23.5011C14.5577 24.1098 16.1368 24.1098 17.4961 23.5011C17.9558 23.3015 18.3756 23.042 18.7454 22.7227C19.2951 23.1418 19.9047 23.4611 20.5544 23.6807C21.194 23.8902 21.8637 24 22.5433 24C22.8032 24 23.053 23.98 23.3029 23.9501C23.7127 23.9002 24.0025 23.531 23.9525 23.1119C23.9425 22.7028 23.5727 22.4034 23.163 22.4633Z" fill="#171717"/>
<path d="M23.163 17.9728C22.4633 18.0527 21.7437 17.9828 21.0741 17.7633C20.4045 17.5438 19.7848 17.1646 19.2751 16.6756C19.1252 16.5359 18.9353 16.4661 18.7254 16.4661C18.5255 16.476 18.3356 16.5658 18.1957 16.7155C17.8359 17.1147 17.4061 17.424 16.9164 17.6336C15.9369 18.0627 14.8175 18.0726 13.838 17.6336C13.3483 17.414 12.9186 17.1047 12.5587 16.7155C12.2789 16.4062 11.7292 16.4062 11.4494 16.7155C11.0896 17.1147 10.6598 17.424 10.1701 17.6336C9.19059 18.0726 8.0712 18.0726 7.09173 17.6336C6.602 17.414 6.17224 17.1047 5.81243 16.7155C5.67251 16.5658 5.48261 16.476 5.28272 16.4661C5.09282 16.4661 4.88294 16.5359 4.73302 16.6756C4.2233 17.1646 3.60364 17.5338 2.934 17.7633C2.27436 17.9828 1.55476 18.0527 0.855138 17.9728C0.445362 17.9229 0.0655696 18.2123 0.0155969 18.6215C-0.0343758 19.0306 0.255466 19.4098 0.665242 19.4597C1.58474 19.5694 2.53422 19.4796 3.41374 19.1902C4.06339 18.9707 4.68305 18.6514 5.22275 18.2323C5.60255 18.5516 6.02232 18.8111 6.47207 19.0106C7.83133 19.6193 9.41047 19.6193 10.7697 19.0106C11.2095 18.8111 11.6193 18.5616 11.9891 18.2522C12.3589 18.5616 12.7686 18.8111 13.2084 19.0106C14.5677 19.6193 16.1468 19.6193 17.506 19.0106C17.9658 18.8111 18.3856 18.5516 18.7554 18.2323C19.3051 18.6514 19.9147 18.9707 20.5644 19.1902C21.204 19.3998 21.8737 19.5096 22.5533 19.5096C22.8131 19.5096 23.063 19.4896 23.3129 19.4597C23.7227 19.4098 24.0125 19.0406 23.9625 18.6215C23.9425 18.2123 23.5727 17.913 23.163 17.9728Z" fill="#171717"/>
<path d="M18.9752 5.76885C19.1252 5.91853 19.3151 5.98838 19.505 5.98838C19.6949 5.98838 19.8847 5.91853 20.0347 5.76885L21.5338 4.27204C21.8237 3.98265 21.8237 3.50367 21.5338 3.21429C21.244 2.92491 20.7643 2.92491 20.4744 3.21429L19.505 4.18223L18.5355 3.21429C18.2456 2.92491 17.7659 2.92491 17.4761 3.21429C17.1862 3.50367 17.1862 3.98265 17.4761 4.27204L18.9752 5.76885Z" fill="#171717"/>
<path d="M20.7843 8.45313C20.4944 8.16374 20.0147 8.16374 19.7248 8.45313C19.435 8.74251 19.435 9.22149 19.7248 9.51087L21.224 11.0077C21.3739 11.1574 21.5638 11.2272 21.7537 11.2272C21.9436 11.2272 22.1335 11.1574 22.2834 11.0077L23.7826 9.51087C24.0725 9.22149 24.0725 8.74251 23.7826 8.45313C23.4928 8.16374 23.013 8.16374 22.7232 8.45313L21.7537 9.42106L20.7843 8.45313Z" fill="#171717"/>
<path d="M3.76355 5.98838C3.76355 7.63487 5.11281 8.982 6.76191 8.982C8.41101 8.982 9.76028 7.63487 9.76028 5.98838C9.76028 4.34189 8.41101 2.99476 6.76191 2.99476C5.11281 2.99476 3.76355 4.34189 3.76355 5.98838ZM6.76191 4.49157C7.59146 4.49157 8.26109 5.16014 8.26109 5.98838C8.26109 6.81661 7.59146 7.48519 6.76191 7.48519C5.93237 7.48519 5.26273 6.81661 5.26273 5.98838C5.26273 5.16014 5.93237 4.49157 6.76191 4.49157Z" fill="#171717"/>
<path d="M11.2595 6.73678H12.7586C13.1684 6.73678 13.5082 6.39751 13.5082 5.98838C13.5082 5.57925 13.1684 5.23997 12.7586 5.23997H11.2595C10.8497 5.23997 10.5099 5.57925 10.5099 5.98838C10.5099 6.39751 10.8497 6.73678 11.2595 6.73678Z" fill="#171717"/>
<path d="M0.765188 6.73678H2.26437C2.67415 6.73678 3.01396 6.39751 3.01396 5.98838C3.01396 5.57925 2.67415 5.23997 2.26437 5.23997H0.765188C0.355411 5.23997 0.0155969 5.57925 0.0155969 5.98838C0.0155969 6.39751 0.355411 6.73678 0.765188 6.73678Z" fill="#171717"/>
<path d="M8.64089 2.6954C8.75083 2.76525 8.88076 2.79518 9.01068 2.79518C9.27054 2.79518 9.5204 2.66546 9.66033 2.41599L10.4099 1.11876C10.6198 0.759521 10.4899 0.300499 10.1401 0.100924C9.79026 -0.0986509 9.32052 0.0210939 9.11063 0.37035L8.36104 1.66759C8.15115 2.02682 8.28108 2.48584 8.64089 2.6954Z" fill="#171717"/>
<path d="M3.39375 11.8758C3.51369 11.9457 3.64362 11.9756 3.76355 11.9756C4.02341 11.9756 4.27327 11.8459 4.4132 11.5964L5.16279 10.2992C5.37267 9.93996 5.24274 9.48094 4.89293 9.28136C4.53313 9.07181 4.07338 9.20153 3.8635 9.56077L3.1139 10.858C2.90402 11.2073 3.03395 11.6663 3.39375 11.8758Z" fill="#171717"/>
<path d="M3.8635 2.41599C4.00342 2.65548 4.25328 2.79518 4.51314 2.79518C4.64307 2.79518 4.773 2.76525 4.88294 2.6954C5.24274 2.48584 5.36268 2.02682 5.15279 1.67756L4.4132 0.37035C4.20331 0.0210939 3.74356 -0.10863 3.39375 0.100924C3.03395 0.310477 2.90402 0.769499 3.1139 1.11876L3.8635 2.41599Z" fill="#171717"/>
<path d="M9.66033 9.56077C9.45044 9.20153 8.9907 9.07181 8.64089 9.28136C8.28108 9.49092 8.16115 9.94994 8.37103 10.2992L9.12062 11.5964C9.26055 11.8359 9.51041 11.9756 9.77027 11.9756C9.9002 11.9756 10.0301 11.9457 10.1401 11.8758C10.4999 11.6663 10.6198 11.2073 10.4099 10.858L9.66033 9.56077Z" fill="#171717"/>
</svg>
