<svg width="24" height="24" viewBox="0 0 24 24" fill="none" xmlns="http://www.w3.org/2000/svg">
<path d="M12.005 6.21053C14.7663 6.21053 17.0073 8.56842 17.0073 11.4737C17.0073 12.1579 16.8772 12.8 16.6471 13.4L19.5684 16.4737C21.0791 15.1474 22.2697 13.4316 23 11.4737C21.2692 6.85263 16.9973 3.57895 11.995 3.57895C10.5944 3.57895 9.25375 3.84211 8.01319 4.31579L10.1742 6.58947C10.7444 6.34737 11.3547 6.21053 12.005 6.21053ZM2.00045 3.33684L4.28149 5.73684L4.7417 6.22105C3.08095 7.57895 1.78035 9.38947 1 11.4737C2.73079 16.0947 7.00273 19.3684 12.005 19.3684C13.5557 19.3684 15.0364 19.0526 16.387 18.4842L16.8072 18.9263L19.7385 22L21.0091 20.6632L3.27103 2L2.00045 3.33684ZM7.53297 9.1579L9.08367 10.7895C9.03365 11.0105 9.00364 11.2421 9.00364 11.4737C9.00364 13.2211 10.3442 14.6316 12.005 14.6316C12.2251 14.6316 12.4452 14.6 12.6553 14.5474L14.206 16.1789C13.5357 16.5263 12.7954 16.7368 12.005 16.7368C9.24375 16.7368 7.00273 14.3789 7.00273 11.4737C7.00273 10.6421 7.20282 9.86316 7.53297 9.1579ZM11.8449 8.33684L14.9964 11.6526L15.0164 11.4842C15.0164 9.73684 13.6758 8.32632 12.015 8.32632L11.8449 8.33684Z" fill="#171717"/>
</svg>
