<svg width="24" height="24" viewBox="0 0 24 24" fill="none" xmlns="http://www.w3.org/2000/svg">
<path d="M18 15.4417C18.6186 15.4417 19.12 14.9296 19.12 14.2979C19.12 13.6662 18.6186 13.154 18 13.154C17.3814 13.154 16.88 13.6662 16.88 14.2979C16.88 14.9296 17.3814 15.4417 18 15.4417Z" fill="#1D2127"/>
<path d="M23.34 10.3762C23.1 10.1311 22.81 9.95745 22.5 9.84511V7.14894C22.5 6.53617 22.27 5.95404 21.84 5.52511C21.6 5.28 21.31 5.10638 21 4.99404V2.29787C21 1.68511 20.77 1.10298 20.34 0.674043C19.92 0.245106 19.34 0 18.75 0H3C2.2 0 1.44 0.316596 0.88 0.898723C0.31 1.47064 0 2.24681 0 3.06383V20.9362C0 21.7532 0.31 22.5294 0.88 23.1013C1.45 23.6834 2.2 24 3 24H20.25C20.84 24 21.42 23.7549 21.84 23.326C22.26 22.897 22.5 22.3047 22.5 21.7021V18.7506C22.81 18.6383 23.1 18.4647 23.34 18.2196C23.76 17.7906 24 17.1983 24 16.5957V12C24 11.3872 23.77 10.8051 23.34 10.3762ZM20.78 22.2434C20.64 22.3864 20.45 22.4681 20.25 22.4681H3C2.6 22.4681 2.22 22.3047 1.94 22.0187C1.66 21.7328 1.5 21.3447 1.5 20.9362V3.06383C1.5 2.65532 1.66 2.26723 1.94 1.98128C2.22 1.69532 2.6 1.53191 3 1.53191H18.75C18.95 1.53191 19.14 1.61362 19.28 1.7566C19.42 1.89957 19.5 2.09362 19.5 2.29787V4.85106H5.59C5.4 4.86128 5.21 4.82043 5.05 4.72851C4.88 4.6366 4.75 4.49362 4.66 4.33021C4.45 3.95234 4 3.81957 3.63 4.03404C3.26 4.24851 3.14 4.69787 3.35 5.07574C3.58 5.49447 3.92 5.8417 4.33 6.06638C4.74 6.30128 5.2 6.41362 5.63 6.38298H20.25C20.45 6.38298 20.64 6.46468 20.78 6.60766C20.92 6.75064 21 6.94468 21 7.14894V9.70213H17.5C16.3 9.70213 15.17 10.1821 14.32 11.0502C13.47 11.9183 13 13.0723 13 14.2979C13 15.503 13.48 16.6877 14.32 17.5455C15.16 18.4034 16.32 18.8936 17.5 18.8936H21V21.7021C21 21.9064 20.92 22.1004 20.78 22.2434ZM22.5 16.5957C22.5 16.8 22.42 16.994 22.28 17.137C22.14 17.28 21.95 17.3617 21.75 17.3617H17.5C16.71 17.3617 15.94 17.0349 15.38 16.463C14.82 15.8911 14.5 15.1047 14.5 14.2979C14.5 13.4911 14.82 12.7047 15.38 12.1328C15.94 11.5609 16.71 11.234 17.5 11.234H21.75C21.95 11.234 22.14 11.3157 22.28 11.4587C22.42 11.6017 22.5 11.7957 22.5 12V16.5957Z" fill="#1D2127"/>
</svg>
