<svg width="24" height="24" viewBox="0 0 24 24" fill="none" xmlns="http://www.w3.org/2000/svg">
<g clip-path="url(#clip0_10343_43643)">
<path opacity="0.2" fill-rule="evenodd" clip-rule="evenodd" d="M1.45825 14.0011C1.45825 13.6756 1.46326 13.3738 1.47259 13.0915C1.46328 12.7167 1.45825 12.3138 1.45825 11.8761C1.45825 9.28505 1.63441 7.91465 1.83149 6.38145L1.84656 6.26424C2.10977 4.2144 3.30514 2.56725 4.80571 2.25504L5.03383 2.20743C6.43552 1.91462 7.74705 1.64062 9.70752 1.64062C11.7739 1.64062 15.2304 1.75911 16.7204 2.06913C18.5379 2.4473 19.0213 5.05802 17.1556 5.8997C17.1658 5.97783 17.1767 6.05637 17.1886 6.13538L17.2532 6.14453C19.0554 6.39948 20.4911 7.74454 20.8072 9.41846L20.8252 9.51415C20.9425 10.1339 21.0534 10.721 21.1357 11.4126H18.4729C17.023 11.4126 15.8478 12.5879 15.8478 14.0377C15.8478 15.4875 17.023 16.6628 18.4729 16.6628H21.1268C21.0455 17.3229 20.9384 17.8903 20.8252 18.4879L20.8072 18.5837C20.4911 20.2575 19.0554 21.6026 17.2532 21.8577L16.9792 21.8964C15.2957 22.1355 13.7205 22.3593 11.3659 22.3593C9.01137 22.3593 7.4362 22.1355 5.75275 21.8964L5.47867 21.8577C3.67644 21.6026 2.24074 20.2575 1.92463 18.5837L1.90653 18.4879C1.66983 17.2359 1.45825 16.1169 1.45825 14.0011Z" fill="#101C2D"/>
<path d="M4.86868 1.36631C6.27607 1.0723 7.65846 0.783508 9.70749 0.783508C11.7605 0.783508 15.3048 0.899121 16.8949 1.22998C18.2046 1.50249 19.0091 2.57751 19.1677 3.6896C19.2641 4.36502 19.1265 5.08179 18.7237 5.6775C20.2208 6.32908 21.3469 7.65708 21.6495 9.25943L21.6674 9.35479C21.7852 9.97717 21.9022 10.5951 21.9886 11.326L20.2862 11.5273C20.2076 10.8629 20.1014 10.299 19.983 9.67361L19.965 9.57754C19.721 8.28572 18.5936 7.19993 17.1333 6.99327L16.4354 6.89395L16.3408 6.26231C16.3282 6.1778 16.3164 6.09364 16.3056 6.00976L16.224 5.37968L16.8031 5.11841C17.3498 4.87179 17.5378 4.40261 17.4706 3.93165C17.3995 3.43341 17.0535 3.01398 16.5457 2.90832C15.156 2.61916 11.7872 2.49779 9.70749 2.49779C7.8405 2.49779 6.60155 2.7556 5.20908 3.04649L4.98043 3.09421C3.98047 3.30226 2.93515 4.51637 2.69669 6.37343L2.68106 6.49504C2.48624 8.01058 2.31536 9.33999 2.31536 11.8761C2.31536 12.3073 2.32031 12.7031 2.32943 13.0702L2.33005 13.095L2.32923 13.1198C2.32023 13.3921 2.31536 13.6845 2.31536 14.0011C2.31536 16.0366 2.51563 17.0959 2.74766 18.3231L2.76685 18.4247C3.0108 19.7162 4.13792 20.802 5.59809 21.0089L5.8726 21.0477C7.54897 21.2859 9.07498 21.5021 11.3659 21.5021C13.6568 21.5021 15.1822 21.2859 16.8586 21.0478C16.9477 21.0352 17.0414 21.0218 17.1334 21.0089C18.5938 20.8021 19.721 19.7163 19.965 18.4247L19.9829 18.3294C20.1012 17.7041 20.2076 17.1393 20.2862 16.4749L21.9886 16.6761C21.9023 17.4067 21.7853 18.0244 21.6676 18.6464L21.6495 18.7428C21.2612 20.7987 19.5172 22.4029 17.3733 22.7064L17.094 22.7459C15.4055 22.9857 13.7814 23.2164 11.3659 23.2164C8.95041 23.2164 7.32635 22.9857 5.6379 22.7459L5.35851 22.7064C3.21458 22.4029 1.47061 20.7987 1.08234 18.7428L1.06427 18.6471C0.823346 17.3729 0.601074 16.1941 0.601074 14.0011C0.601074 13.6763 0.605927 13.3732 0.615067 13.0881C0.605961 12.7128 0.601074 12.3109 0.601074 11.8761C0.601074 9.23257 0.782186 7.82129 0.981308 6.27221L0.996364 6.1551C1.28437 3.91261 2.62989 1.83236 4.63092 1.41593L4.86868 1.36631Z" fill="#101C2D"/>
<path fill-rule="evenodd" clip-rule="evenodd" d="M8.45316 6.90266C8.13929 6.9294 7.85031 6.95402 7.5918 6.97341C7.11974 7.00882 6.70835 6.65485 6.67295 6.18279C6.63754 5.71073 6.99151 5.29934 7.46357 5.26393C7.69831 5.24632 7.96945 5.22317 8.27006 5.1975C9.42938 5.09849 11.027 4.96206 12.6648 4.96206C14.8007 4.96206 15.8303 5.07225 17.2362 5.26989C17.705 5.33579 18.0316 5.76924 17.9657 6.23801C17.8998 6.70679 17.4664 7.03339 16.9976 6.96749C15.6598 6.77942 14.7105 6.67635 12.6648 6.67635C11.1091 6.67635 9.61163 6.80395 8.45316 6.90266Z" fill="#101C2D"/>
<path fill-rule="evenodd" clip-rule="evenodd" d="M18.4727 12.2697C17.4963 12.2697 16.7047 13.0613 16.7047 14.0377C16.7047 15.0141 17.4963 15.8056 18.4727 15.8056H21.1569C21.6303 15.8056 22.0141 15.4219 22.0141 14.9485V13.1269C22.0141 12.6535 21.6303 12.2697 21.1569 12.2697H18.4727ZM14.9904 14.0377C14.9904 12.1145 16.5495 10.5554 18.4727 10.5554H21.1569C22.5771 10.5554 23.7284 11.7067 23.7284 13.1269V14.9485C23.7284 16.3686 22.5771 17.5199 21.1569 17.5199H18.4727C16.5495 17.5199 14.9904 15.9609 14.9904 14.0377Z" fill="#101C2D"/>
</g>
<defs>
<clipPath id="clip0_10343_43643">
<rect width="24" height="24" fill="white"/>
</clipPath>
</defs>
</svg>
