<svg width="24" height="24" viewBox="0 0 24 24" fill="none" xmlns="http://www.w3.org/2000/svg">
<path fill-rule="evenodd" clip-rule="evenodd" d="M14.952 3.60462C14.7782 3.66636 14.5437 3.7735 14.1485 3.9559L7.55295 7.00002L15 7.00002V4.50067C15 4.06542 14.999 3.80761 14.9822 3.62394C14.9813 3.61366 14.9803 3.60408 14.9794 3.59516C14.9709 3.59802 14.9618 3.60117 14.952 3.60462ZM17 7.00002L17 4.46009C17 4.07922 17 3.72806 16.9739 3.4421C16.9469 3.14575 16.8825 2.7719 16.6496 2.43206C16.3434 1.98548 15.8693 1.6821 15.3355 1.59127C14.9293 1.52215 14.5629 1.6204 14.2825 1.72002C14.0119 1.81615 13.6931 1.96334 13.3473 2.12297L4.43994 6.23405C4.40064 6.25219 4.36165 6.27012 4.32299 6.2879C3.76618 6.54398 3.2767 6.76908 2.90314 7.13416C2.57607 7.45381 2.32641 7.84401 2.17324 8.27493C1.9983 8.7671 1.99904 9.30586 1.99987 9.91873C1.99993 9.96128 1.99999 10.0042 1.99999 10.0475V11.0843C1.99998 11.1098 1.99998 11.1356 1.99998 11.1615L1.99998 17.8386C1.99997 18.3657 1.99995 18.8205 2.03055 19.195C2.06286 19.5904 2.13417 19.9836 2.32697 20.362C2.61459 20.9265 3.07353 21.3854 3.63801 21.673C4.01639 21.8658 4.40961 21.9371 4.80496 21.9694C5.17952 22.0001 5.63428 22 6.16142 22H17.8386C18.3657 22 18.8204 22.0001 19.195 21.9694C19.5904 21.9371 19.9836 21.8658 20.362 21.673C20.9264 21.3854 21.3854 20.9265 21.673 20.362C21.8658 19.9836 21.9371 19.5904 21.9694 19.195C22 18.8205 22 18.3657 22 17.8386V11.1615C22 10.6343 22 10.1796 21.9694 9.80499C21.9371 9.40965 21.8658 9.01643 21.673 8.63805C21.3854 8.07356 20.9264 7.61462 20.362 7.327C19.9836 7.13421 19.5904 7.06289 19.195 7.03059C18.8204 6.99999 18.3657 7 17.8385 7.00002L17 7.00002ZM6.19999 9.00002C5.62343 9.00002 5.25116 9.0008 4.96782 9.02395C4.69616 9.04614 4.59544 9.08382 4.54599 9.10901C4.35783 9.20489 4.20485 9.35787 4.10898 9.54603C4.08379 9.59547 4.04611 9.69619 4.02391 9.96786C4.00076 10.2512 3.99999 10.6235 3.99999 11.2V15C3.99999 14.9999 3.99999 15.0001 3.99999 15L3.99998 17.8C3.99998 18.3766 4.00076 18.7488 4.02391 19.0322C4.04611 19.3038 4.08379 19.4046 4.10898 19.454C4.20485 19.6422 4.35783 19.7952 4.54599 19.891C4.59544 19.9162 4.69616 19.9539 4.96782 19.9761C5.25116 19.9992 5.62343 20 6.19999 20H17.8C18.3765 20 18.7488 19.9992 19.0322 19.9761C19.3038 19.9539 19.4045 19.9162 19.454 19.891C19.6421 19.7952 19.7951 19.6422 19.891 19.454C19.9162 19.4046 19.9539 19.3038 19.9761 19.0322C19.9992 18.7488 20 18.3766 20 17.8V11.2C20 10.6235 19.9992 10.2512 19.9761 9.96786C19.9539 9.69619 19.9162 9.59547 19.891 9.54603C19.7951 9.35787 19.6421 9.20489 19.454 9.10901C19.4045 9.08382 19.3038 9.04614 19.0322 9.02395C18.7488 9.0008 18.3765 9.00002 17.8 9.00002L6.19999 9.00002ZM15 14.5C15 13.6716 15.6716 13 16.5 13C17.3284 13 18 13.6716 18 14.5C18 15.3284 17.3284 16 16.5 16C15.6716 16 15 15.3284 15 14.5Z" fill="#0A0B0D"/>
</svg>
