<svg width="24" height="24" viewBox="0 0 24 24" fill="none" xmlns="http://www.w3.org/2000/svg">
<g clip-path="url(#clip0_2849_15071)">
<path d="M18 15.37C18.6186 15.37 19.12 14.8686 19.12 14.25C19.12 13.6314 18.6186 13.13 18 13.13C17.3814 13.13 16.88 13.6314 16.88 14.25C16.88 14.8686 17.3814 15.37 18 15.37Z" fill="#171717"/>
<path d="M23.34 10.41C23.1 10.17 22.81 10 22.5 9.89V7.25C22.5 6.65 22.27 6.08 21.84 5.66C21.6 5.42 21.31 5.25 21 5.14V2.5C21 1.9 20.77 1.33 20.34 0.91C19.92 0.49 19.34 0.25 18.75 0.25H3C2.2 0.25 1.44 0.56 0.88 1.13C0.31 1.69 0 2.45 0 3.25V20.75C0 21.55 0.31 22.31 0.88 22.87C1.45 23.44 2.2 23.75 3 23.75H20.25C20.84 23.75 21.42 23.51 21.84 23.09C22.26 22.67 22.5 22.09 22.5 21.5V18.61C22.81 18.5 23.1 18.33 23.34 18.09C23.76 17.67 24 17.09 24 16.5V12C24 11.4 23.77 10.83 23.34 10.41ZM20.78 22.03C20.64 22.17 20.45 22.25 20.25 22.25H3C2.6 22.25 2.22 22.09 1.94 21.81C1.66 21.53 1.5 21.15 1.5 20.75V3.25C1.5 2.85 1.66 2.47 1.94 2.19C2.22 1.91 2.6 1.75 3 1.75H18.75C18.95 1.75 19.14 1.83 19.28 1.97C19.42 2.11 19.5 2.3 19.5 2.5V5H5.59C5.4 5.01 5.21 4.97 5.05 4.88C4.88 4.79 4.75 4.65 4.66 4.49C4.45 4.12 4 3.99 3.63 4.2C3.26 4.41 3.14 4.85 3.35 5.22C3.58 5.63 3.92 5.97 4.33 6.19C4.74 6.42 5.2 6.53 5.63 6.5H20.25C20.45 6.5 20.64 6.58 20.78 6.72C20.92 6.86 21 7.05 21 7.25V9.75H17.5C16.3 9.75 15.17 10.22 14.32 11.07C13.47 11.92 13 13.05 13 14.25C13 15.43 13.48 16.59 14.32 17.43C15.16 18.27 16.32 18.75 17.5 18.75H21V21.5C21 21.7 20.92 21.89 20.78 22.03ZM22.5 16.5C22.5 16.7 22.42 16.89 22.28 17.03C22.14 17.17 21.95 17.25 21.75 17.25H17.5C16.71 17.25 15.94 16.93 15.38 16.37C14.82 15.81 14.5 15.04 14.5 14.25C14.5 13.46 14.82 12.69 15.38 12.13C15.94 11.57 16.71 11.25 17.5 11.25H21.75C21.95 11.25 22.14 11.33 22.28 11.47C22.42 11.61 22.5 11.8 22.5 12V16.5Z" fill="#171717"/>
</g>
<defs>
<clipPath id="clip0_2849_15071">
<rect width="24" height="24" fill="white"/>
</clipPath>
</defs>
</svg>
