<svg width="24" height="25" viewBox="0 0 24 25" fill="none" xmlns="http://www.w3.org/2000/svg">
<path d="M2.97671 21.0025H21.0233C21.7732 21.0025 22.2407 20.1725 21.8706 19.5025L12.8424 3.5025C12.4626 2.8325 11.5277 2.8325 11.1576 3.5025L2.12941 19.5025C1.75932 20.1725 2.2268 21.0025 2.97671 21.0025ZM12.9788 18.0025H11.031V16.0025H12.9788V18.0025ZM12.0049 14.0025C11.4692 14.0025 11.031 13.5525 11.031 13.0025V11.0025C11.031 10.4525 11.4692 10.0025 12.0049 10.0025C12.5405 10.0025 12.9788 10.4525 12.9788 11.0025V13.0025C12.9788 13.5525 12.5405 14.0025 12.0049 14.0025Z" fill="#171717"/>
</svg>
