<svg width="24" height="24" viewBox="0 0 24 24" fill="none" xmlns="http://www.w3.org/2000/svg">
<path fill-rule="evenodd" clip-rule="evenodd" d="M2 12C2 9.34784 3.05357 6.8043 4.92893 4.92893C6.8043 3.05357 9.34784 2 12 2C14.6522 2 17.1957 3.05357 19.0711 4.92893C20.9464 6.8043 22 9.34784 22 12C22 14.6522 20.9464 17.1957 19.0711 19.0711C17.1957 20.9464 14.6522 22 12 22C9.34784 22 6.8043 20.9464 4.92893 19.0711C3.05357 17.1957 2 14.6522 2 12ZM13 7.5C13 7.23478 12.8946 6.98043 12.7071 6.79289C12.5196 6.60536 12.2652 6.5 12 6.5C11.7348 6.5 11.4804 6.60536 11.2929 6.79289C11.1054 6.98043 11 7.23478 11 7.5V11.5C11 11.7652 11.1054 12.0196 11.2929 12.2071C11.4804 12.3946 11.7348 12.5 12 12.5C12.2652 12.5 12.5196 12.3946 12.7071 12.2071C12.8946 12.0196 13 11.7652 13 11.5V7.5ZM12 14.492C12.3978 14.492 12.7794 14.65 13.0607 14.9313C13.342 15.2126 13.5 15.5942 13.5 15.992C13.5 16.3898 13.342 16.7714 13.0607 17.0527C12.7794 17.334 12.3978 17.492 12 17.492C11.6022 17.492 11.2206 17.334 10.9393 17.0527C10.658 16.7714 10.5 16.3898 10.5 15.992C10.5 15.5942 10.658 15.2126 10.9393 14.9313C11.2206 14.65 11.6022 14.492 12 14.492Z" fill="#0A0B0D"/>
</svg>
