<svg width="24" height="24" viewBox="0 0 24 24" fill="none" xmlns="http://www.w3.org/2000/svg">
<path d="M11.9991 3.0051C6.73836 3.0051 2.46526 7.37404 2.46526 12.7527C2.46526 16.0519 4.07867 18.9712 6.54279 20.7308L5.47696 22.9103C5.29118 23.2802 5.43785 23.7301 5.80942 23.92C5.90721 23.97 6.02455 24 6.13211 24C6.39612 24 6.66013 23.85 6.78725 23.5901L7.81397 21.5006C9.07536 22.1405 10.503 22.5004 11.9991 22.5004C13.5049 22.5004 14.9228 22.1305 16.1842 21.5006L17.2109 23.5901C17.338 23.85 17.602 24 17.866 24C17.9736 24 18.0909 23.97 18.1887 23.92C18.5505 23.7301 18.6972 23.2802 18.5114 22.9103L17.4455 20.7308C19.9097 18.9712 21.5231 16.0519 21.5231 12.7527C21.5329 7.37404 17.2598 3.0051 11.9991 3.0051ZM11.9991 21.0007C7.54995 21.0007 3.932 17.3016 3.932 12.7527C3.932 8.20384 7.54995 4.50474 11.9991 4.50474C16.4482 4.50474 20.0661 8.20384 20.0661 12.7527C20.0661 17.3016 16.4482 21.0007 11.9991 21.0007Z" fill="#1D2127"/>
<path d="M11.9991 6.75419C11.5982 6.75419 11.2657 7.09411 11.2657 7.50401V12.0029H8.68423C8.28332 12.0029 7.95086 12.3428 7.95086 12.7527C7.95086 13.1626 8.28332 13.5026 8.68423 13.5026H11.9991C12.4 13.5026 12.7324 13.1626 12.7324 12.7527V7.50401C12.7324 7.09411 12.4 6.75419 11.9991 6.75419Z" fill="#1D2127"/>
<path d="M5.97566 0.285762C5.72142 -0.0341607 5.26184 -0.0841485 4.93916 0.165791L1.27232 3.16506C0.959411 3.425 0.91052 3.89488 1.15498 4.2248C1.30165 4.40476 1.51677 4.50474 1.73189 4.50474C1.88835 4.50474 2.05458 4.45475 2.19147 4.34478L5.85832 1.3455C6.17122 1.08557 6.22011 0.605684 5.97566 0.285762Z" fill="#1D2127"/>
<path d="M22.7258 3.16506L19.059 0.165791C18.7461 -0.0941461 18.2865 -0.0441583 18.0322 0.285762C17.778 0.605684 17.8269 1.08557 18.1496 1.33551L21.8164 4.33478C21.9533 4.44475 22.1098 4.49474 22.276 4.49474C22.4911 4.49474 22.7062 4.39476 22.8529 4.21481C23.0876 3.89489 23.0387 3.425 22.7258 3.16506Z" fill="#1D2127"/>
</svg>
