<svg width="24" height="24" viewBox="0 0 24 24" fill="none" xmlns="http://www.w3.org/2000/svg">
<path fill-rule="evenodd" clip-rule="evenodd" d="M8.10503 0.00906355C8.08392 0.0134603 7.02421 0.365003 5.75013 0.790273C3.86194 1.42052 3.42154 1.57067 3.36828 1.60232C3.20358 1.70022 3.07591 1.86904 3.02137 2.06109L3.00038 2.13497L2.99458 4.56857C2.99052 6.26766 2.98558 7.02101 2.97821 7.06457C2.8656 7.73089 2.52978 8.2622 1.99546 8.61942C1.85193 8.71538 1.71642 8.7844 1.51771 8.86274C1.19839 8.98866 1.02219 9.08872 0.81244 9.26331C0.363149 9.63726 0.0809262 10.1625 0.0157535 10.7461C-0.00519351 10.9337 -0.00527987 19.5196 0.0156671 19.6934C0.0332461 19.8392 0.0446648 19.9012 0.0748811 20.015C0.228275 20.5923 0.611606 21.0935 1.12429 21.3871C1.243 21.4551 6.43534 23.811 6.58667 23.8655C6.70652 23.9087 6.87254 23.9515 7.01594 23.9761C7.17481 24.0034 7.53465 24.0009 7.70623 23.9713C7.94729 23.9297 8.14574 23.8657 8.34972 23.7635C8.52664 23.6749 8.70469 23.5553 8.7877 23.4693C8.81486 23.4412 9.54618 22.6233 10.4129 21.6518C11.2796 20.6803 11.9919 19.8854 11.9959 19.8854C11.9998 19.8854 12.6929 20.6587 13.5361 21.6038C14.3793 22.5489 15.1098 23.3663 15.1596 23.4203C15.4021 23.6835 15.8294 23.8926 16.2858 23.9713C16.4574 24.0009 16.8172 24.0034 16.9761 23.9761C17.1195 23.9515 17.2855 23.9087 17.4054 23.8655C17.5567 23.811 22.749 21.4551 22.8677 21.3871C23.229 21.1803 23.5198 20.8784 23.7302 20.4916C23.8594 20.2543 23.9544 19.944 23.977 19.6859C23.9806 19.6448 23.9872 19.6089 23.9917 19.6061C23.9963 19.6033 24 17.6504 24 15.2138C24 12.7732 23.9963 10.8289 23.9918 10.8317C23.9872 10.8345 23.9806 10.8013 23.9771 10.7579C23.9646 10.6051 23.9147 10.3845 23.857 10.2278C23.718 9.84989 23.4838 9.51627 23.1801 9.26369C22.9705 9.08937 22.775 8.97904 22.4551 8.85457C22.1156 8.72246 21.8295 8.53176 21.6026 8.28637C21.2833 7.9411 21.0964 7.55309 21.0138 7.06457C21.0064 7.02101 21.0015 6.26766 20.9974 4.56857L20.9916 2.13497L20.9707 2.06109C20.9161 1.86904 20.7885 1.70022 20.6237 1.60232C20.5705 1.57067 20.1303 1.42063 18.2419 0.790379C16.9678 0.365166 15.9043 0.0131531 15.8785 0.00812275C15.8199 -0.00331085 8.16004 -0.00237966 8.10503 0.00906355ZM9.03471 1.60937C9.05919 2.03185 9.13534 2.74008 9.20943 3.23417C9.62676 6.01752 10.5201 7.95834 11.7609 8.77759C11.8948 8.866 11.9816 8.91737 11.9969 8.91737C12.0101 8.91737 12.1661 8.82348 12.2695 8.7533C13.4652 7.94195 14.3469 6.03506 14.7637 3.35897C14.847 2.8237 14.9307 2.06763 14.9573 1.60937L14.9638 1.49657H11.996H9.02818L9.03471 1.60937ZM6.00841 2.28773L4.50671 2.78937L4.50162 4.91017C4.49607 7.21802 4.49919 7.08488 4.44328 7.40057C4.30599 8.17582 3.9371 8.8742 3.37309 9.42663C2.99832 9.7937 2.60109 10.0501 2.10224 10.247C1.88188 10.334 1.80304 10.3803 1.71218 10.476C1.61084 10.5827 1.54465 10.708 1.51613 10.847C1.49654 10.9424 1.49715 19.4919 1.51674 19.583C1.5336 19.6613 1.56972 19.7543 1.61042 19.8241C1.65391 19.8987 1.76434 20.0143 1.83649 20.0608C1.92437 20.1174 7.07913 22.4505 7.16889 22.4743C7.32313 22.5151 7.51301 22.4956 7.67142 22.4225L7.73805 22.3918L9.49281 20.4256L11.2476 18.4595V14.3427V10.2258L11.1348 10.16C10.5124 9.79684 9.94817 9.25208 9.47986 8.56217C9.07619 7.96748 8.74684 7.30435 8.46189 6.51257C8.05922 5.3937 7.75673 3.9832 7.60646 2.52377C7.58068 2.27346 7.54387 1.85489 7.54376 1.81097C7.54371 1.79197 7.53899 1.78479 7.5269 1.78533C7.51767 1.78575 6.83435 2.01183 6.00841 2.28773ZM16.4483 1.80907C16.4483 1.82255 16.4396 1.93595 16.429 2.06107C16.3457 3.03963 16.2213 3.87782 16.0295 4.75097C15.717 6.17448 15.255 7.38999 14.6758 8.31257C14.2634 8.96942 13.8097 9.47942 13.2866 9.87399C13.1756 9.95775 12.9548 10.1042 12.8474 10.1654L12.7547 10.2182L12.7544 14.3442L12.7541 18.4702L14.504 20.431L16.2539 22.3918L16.3206 22.4225C16.479 22.4956 16.6689 22.5151 16.8231 22.4743C16.8801 22.4592 19.9859 21.0599 21.9557 20.1618C22.1438 20.0761 22.2008 20.039 22.2856 19.9474C22.3802 19.8451 22.4384 19.736 22.4723 19.5974C22.4877 19.5345 22.4887 19.2543 22.4887 15.2102V10.8902L22.4677 10.8113C22.429 10.6664 22.358 10.5474 22.2499 10.4462C22.163 10.3649 22.1012 10.3308 21.8898 10.2472C21.3902 10.0496 20.9936 9.79359 20.6189 9.42663C20.0549 8.8742 19.686 8.17582 19.5487 7.40057C19.4928 7.08488 19.496 7.21802 19.4904 4.91018L19.4853 2.78938L17.9788 2.28698C17.1503 2.01065 16.467 1.78457 16.4603 1.78457C16.4537 1.78457 16.4483 1.79559 16.4483 1.80907ZM0.00637869 15.2246C0.00637869 17.6402 0.00747257 18.6284 0.00881595 17.4206C0.0101593 16.2128 0.0101593 14.2364 0.00881595 13.0286C0.00747257 11.8208 0.00637869 12.809 0.00637869 15.2246ZM5.15829 15.0038C4.87314 15.0345 4.61806 15.2471 4.53049 15.527C4.5006 15.6225 4.49382 15.7979 4.51581 15.9068C4.56336 16.1423 4.7401 16.3539 4.96631 16.446C5.10833 16.5038 5.04725 16.502 6.791 16.4991L8.3833 16.4964L8.45372 16.4746C8.63813 16.4176 8.80005 16.2908 8.89699 16.1275C9.01888 15.9223 9.02989 15.6361 8.92412 15.4221C8.82451 15.2207 8.64723 15.0765 8.42487 15.0162C8.36873 15.001 8.24462 14.9996 6.79524 14.9981C5.93237 14.9972 5.19574 14.9998 5.15829 15.0038ZM15.6855 15.0004C15.4161 15.0237 15.1878 15.1796 15.0679 15.4221C14.9621 15.6361 14.9731 15.9223 15.095 16.1275C15.192 16.2908 15.3539 16.4176 15.5383 16.4746L15.6087 16.4964L17.201 16.4991C18.9448 16.502 18.8837 16.5038 19.0257 16.446C19.2519 16.3539 19.4287 16.1423 19.4762 15.9068C19.4982 15.7979 19.4914 15.6225 19.4615 15.527C19.3863 15.2864 19.1826 15.0903 18.9349 15.02L18.8616 14.9992L17.2927 14.9982C16.4299 14.9976 15.7066 14.9986 15.6855 15.0004Z" fill="#171717"/>
</svg>
