<svg width="24" height="24" viewBox="0 0 24 24" fill="none" xmlns="http://www.w3.org/2000/svg">
<path d="M8.25 16.5H2.25C2.05 16.5 1.86 16.42 1.72 16.28C1.58 16.14 1.5 15.95 1.5 15.75V7.5H16.5V8.25C16.5 8.66 16.84 9 17.25 9C17.66 9 18 8.66 18 8.25V3.75C18 3.15 17.77 2.58 17.34 2.16C16.92 1.74 16.34 1.5 15.75 1.5H13.5V0.75C13.5 0.34 13.16 0 12.75 0C12.34 0 12 0.34 12 0.75V1.5H6V0.75C6 0.34 5.66 0 5.25 0C4.84 0 4.5 0.34 4.5 0.75V1.5H2.25C1.66 1.5 1.08 1.74 0.66 2.16C0.23 2.58 0 3.15 0 3.75V15.75C0 16.34 0.24 16.92 0.66 17.34C1.08 17.76 1.66 18 2.25 18H8.25C8.66 18 9 17.66 9 17.25C9 16.84 8.66 16.5 8.25 16.5ZM1.72 3.22C1.86 3.08 2.05 3 2.25 3H4.5V3.75C4.5 4.16 4.84 4.5 5.25 4.5C5.66 4.5 6 4.16 6 3.75V3H12V3.75C12 4.16 12.34 4.5 12.75 4.5C13.16 4.5 13.5 4.16 13.5 3.75V3H15.75C15.95 3 16.14 3.08 16.28 3.22C16.42 3.36 16.5 3.55 16.5 3.75V6H1.5V3.75C1.5 3.55 1.58 3.36 1.72 3.22Z" fill="#171717"/>
<path d="M17.25 10.5C13.53 10.5 10.5 13.53 10.5 17.25C10.5 20.97 13.53 24 17.25 24C20.97 24 24 20.97 24 17.25C24 13.53 20.97 10.5 17.25 10.5ZM17.25 22.5C14.35 22.5 12 20.14 12 17.25C12 14.36 14.35 12 17.25 12C20.14 12 22.5 14.36 22.5 17.25C22.5 20.14 20.14 22.5 17.25 22.5Z" fill="#171717"/>
<path d="M19.9 16.5H18V14.6C18 14.19 17.66 13.85 17.25 13.85C16.84 13.85 16.5 14.19 16.5 14.6V17.25C16.5 17.66 16.84 18 17.25 18H19.9C20.31 18 20.65 17.66 20.65 17.25C20.65 16.84 20.32 16.5 19.9 16.5Z" fill="#171717"/>
</svg>
