<svg width="24" height="24" viewBox="0 0 24 24" fill="none" xmlns="http://www.w3.org/2000/svg">
<g clip-path="url(#clip0_2861_15473)">
<path d="M12 3C6.62 3 2.25 7.37 2.25 12.75C2.25 16.05 3.9 18.97 6.42 20.73L5.33 22.91C5.14 23.28 5.29 23.73 5.67 23.92C5.77 23.97 5.89 24 6 24C6.27 24 6.54 23.85 6.67 23.59L7.72 21.5C9.01 22.14 10.47 22.5 12 22.5C13.54 22.5 14.99 22.13 16.28 21.5L17.33 23.59C17.46 23.85 17.73 24 18 24C18.11 24 18.23 23.97 18.33 23.92C18.7 23.73 18.85 23.28 18.66 22.91L17.57 20.73C20.09 18.97 21.74 16.05 21.74 12.75C21.75 7.37 17.38 3 12 3ZM12 21C7.45 21 3.75 17.3 3.75 12.75C3.75 8.2 7.45 4.5 12 4.5C16.55 4.5 20.25 8.2 20.25 12.75C20.25 17.3 16.55 21 12 21Z" fill="#171717"/>
<path d="M12 6.75C11.59 6.75 11.25 7.09 11.25 7.5V12H8.60998C8.19998 12 7.85999 12.34 7.85999 12.75C7.85999 13.16 8.19998 13.5 8.60998 13.5H12C12.41 13.5 12.75 13.16 12.75 12.75V7.5C12.75 7.09 12.41 6.75 12 6.75Z" fill="#171717"/>
<path d="M5.83996 0.279956C5.57996 -0.0400442 5.10996 -0.0900442 4.77996 0.159956L1.02996 3.15996C0.709956 3.41996 0.659956 3.88996 0.909956 4.21996C1.05996 4.39996 1.27996 4.49996 1.49996 4.49996C1.65996 4.49996 1.82996 4.44996 1.96996 4.33996L5.71996 1.33996C6.03996 1.07996 6.08996 0.599956 5.83996 0.279956Z" fill="#171717"/>
<path d="M22.97 3.15997L19.22 0.159972C18.9 -0.100028 18.43 -0.0500284 18.17 0.279972C17.91 0.599972 17.96 1.07997 18.29 1.32997L22.04 4.32997C22.18 4.43997 22.34 4.48997 22.51 4.48997C22.73 4.48997 22.95 4.38997 23.1 4.20997C23.34 3.88997 23.29 3.41997 22.97 3.15997Z" fill="#171717"/>
</g>
<defs>
<clipPath id="clip0_2861_15473">
<rect width="24" height="24" fill="white"/>
</clipPath>
</defs>
</svg>
