<svg width="24" height="24" viewBox="0 0 24 24" fill="none" xmlns="http://www.w3.org/2000/svg">
<g clip-path="url(#clip0_2861_15473)">
<path d="M12 2.99997C6.61996 2.99997 2.24996 7.36997 2.24996 12.75C2.24996 16.05 3.89996 18.97 6.41996 20.73L5.32996 22.91C5.13996 23.28 5.28996 23.73 5.66996 23.92C5.76996 23.97 5.88996 24 5.99996 24C6.26996 24 6.53996 23.85 6.66996 23.59L7.71996 21.5C9.00996 22.14 10.47 22.5 12 22.5C13.54 22.5 14.99 22.13 16.28 21.5L17.33 23.59C17.46 23.85 17.73 24 18 24C18.11 24 18.23 23.97 18.33 23.92C18.7 23.73 18.85 23.28 18.66 22.91L17.57 20.73C20.09 18.97 21.74 16.05 21.74 12.75C21.75 7.36997 17.38 2.99997 12 2.99997ZM12 21C7.44996 21 3.74996 17.3 3.74996 12.75C3.74996 8.19997 7.44996 4.49997 12 4.49997C16.55 4.49997 20.25 8.19997 20.25 12.75C20.25 17.3 16.55 21 12 21Z" fill="#171717"/>
<path d="M12 6.74997C11.59 6.74997 11.25 7.08997 11.25 7.49997V12H8.60996C8.19996 12 7.85996 12.34 7.85996 12.75C7.85996 13.16 8.19996 13.5 8.60996 13.5H12C12.41 13.5 12.75 13.16 12.75 12.75V7.49997C12.75 7.08997 12.41 6.74997 12 6.74997Z" fill="#171717"/>
<path d="M5.83996 0.279972C5.57996 -0.0400284 5.10996 -0.0900284 4.77996 0.159972L1.02996 3.15997C0.709956 3.41997 0.659956 3.88997 0.909956 4.21997C1.05996 4.39997 1.27996 4.49997 1.49996 4.49997C1.65996 4.49997 1.82996 4.44997 1.96996 4.33997L5.71996 1.33997C6.03996 1.07997 6.08996 0.599972 5.83996 0.279972Z" fill="#171717"/>
<path d="M22.97 3.15997L19.22 0.159972C18.9 -0.100028 18.43 -0.0500284 18.17 0.279972C17.91 0.599972 17.96 1.07997 18.29 1.32997L22.04 4.32997C22.18 4.43997 22.34 4.48997 22.51 4.48997C22.73 4.48997 22.95 4.38997 23.1 4.20997C23.34 3.88997 23.29 3.41997 22.97 3.15997Z" fill="#171717"/>
</g>
<defs>
<clipPath id="clip0_2861_15473">
<rect width="24" height="24" fill="white"/>
</clipPath>
</defs>
</svg>
