<svg width="24" height="24" viewBox="0 0 24 24" fill="none" xmlns="http://www.w3.org/2000/svg">
<path d="M18.7167 5H5.28333C4.41656 5.01291 3.58891 5.36297 2.97594 5.97594C2.36297 6.58891 2.01291 7.41656 2 8.28333L2 15.8833C2.01291 16.7501 2.36297 17.5778 2.97594 18.1907C3.58891 18.8037 4.41656 19.1538 5.28333 19.1667H18.7167C19.5834 19.1538 20.4111 18.8037 21.0241 18.1907C21.637 17.5778 21.9871 16.7501 22 15.8833V8.28333C21.9871 7.41656 21.637 6.58891 21.0241 5.97594C20.4111 5.36297 19.5834 5.01291 18.7167 5ZM15.7833 12.0833L10.1417 15.7167C10.0757 15.7624 9.99687 15.7858 9.91667 15.7833C9.84686 15.7837 9.77809 15.7665 9.71667 15.7333C9.65149 15.6967 9.59713 15.6435 9.55909 15.5791C9.52105 15.5147 9.50066 15.4414 9.5 15.3667V8.15C9.50066 8.07522 9.52105 8.00195 9.55909 7.93757C9.59713 7.87319 9.65149 7.81999 9.71667 7.78333C9.78068 7.74432 9.8542 7.72368 9.92917 7.72368C10.0041 7.72368 10.0777 7.74432 10.1417 7.78333L15.7833 11.3917C15.8418 11.4294 15.8899 11.4813 15.9232 11.5424C15.9565 11.6035 15.9739 11.6721 15.9739 11.7417C15.9739 11.8113 15.9565 11.8798 15.9232 11.9409C15.8899 12.0021 15.8418 12.0539 15.7833 12.0917V12.0833Z" fill="#171717"/>
</svg>
