<svg width="24" height="24" viewBox="0 0 24 24" fill="none" xmlns="http://www.w3.org/2000/svg">
<path d="M18.7167 5H5.28333C4.41656 5.01276 3.58891 5.3587 2.97594 5.96446C2.36297 6.57022 2.01291 7.38813 2 8.24471L2 15.7553C2.01291 16.6119 2.36297 17.4298 2.97594 18.0355C3.58891 18.6413 4.41656 18.9872 5.28333 19H18.7167C19.5834 18.9872 20.4111 18.6413 21.0241 18.0355C21.637 17.4298 21.9871 16.6119 22 15.7553V8.24471C21.9871 7.38813 21.637 6.57022 21.0241 5.96446C20.4111 5.3587 19.5834 5.01276 18.7167 5ZM15.7833 12L10.1417 15.5906C10.0757 15.6358 9.99687 15.6589 9.91667 15.6565C9.84686 15.6568 9.77809 15.6398 9.71667 15.6071C9.65149 15.5708 9.59713 15.5183 9.55909 15.4546C9.52105 15.391 9.50066 15.3186 9.5 15.2447V8.11294C9.50066 8.03905 9.52105 7.96663 9.55909 7.90301C9.59713 7.83939 9.65149 7.78681 9.71667 7.75059C9.78068 7.71203 9.8542 7.69164 9.92917 7.69164C10.0041 7.69164 10.0777 7.71203 10.1417 7.75059L15.7833 11.3165C15.8418 11.3538 15.8899 11.405 15.9232 11.4654C15.9565 11.5259 15.9739 11.5936 15.9739 11.6624C15.9739 11.7312 15.9565 11.7989 15.9232 11.8593C15.8899 11.9197 15.8418 11.9709 15.7833 12.0082V12Z" fill="#171717"/>
</svg>
